G04*
G04 #@! TF.GenerationSoftware,Altium Limited,Altium Designer,22.9.1 (49)*
G04*
G04 Layer_Color=32768*
%FSLAX24Y24*%
%MOIN*%
G70*
G04*
G04 #@! TF.SameCoordinates,D869CEA3-EDD9-45C0-ACDC-C570693A3B7D*
G04*
G04*
G04 #@! TF.FilePolarity,Positive*
G04*
G01*
G75*
%ADD12C,0.0100*%
%ADD43C,0.0020*%
D12*
X67500Y44500D02*
G03*
X67000Y45000I-500J0D01*
G01*
Y10000D02*
G03*
X67500Y10500I0J500D01*
G01*
X18000Y45000D02*
G03*
X17500Y44500I0J-500D01*
G01*
Y10500D02*
G03*
X18000Y10000I500J0D01*
G01*
X67000D01*
X18000Y45000D02*
X67000D01*
X67500Y10500D02*
Y44500D01*
X17500Y10500D02*
Y44500D01*
D43*
X18632Y22228D02*
G03*
X18632Y26732I4829J2252D01*
G01*
X35219Y19325D02*
X37781D01*
Y22675D01*
X35219D02*
X37781D01*
X35219Y19325D02*
Y22675D01*
X35591Y18453D02*
X37409D01*
X35591Y17547D02*
X37409D01*
Y18453D01*
X35591Y17547D02*
Y18453D01*
Y16547D02*
X37409D01*
X35591Y17453D02*
X37409D01*
X35591Y16547D02*
Y17453D01*
X37409Y16547D02*
Y17453D01*
X18091Y30953D02*
X19909D01*
X18091Y30047D02*
X19909D01*
Y30953D01*
X18091Y30047D02*
Y30953D01*
X35666Y34453D02*
X37483D01*
X35666Y33547D02*
X37483D01*
Y34453D01*
X35666Y33547D02*
Y34453D01*
X17752Y22217D02*
X18638D01*
X17752D02*
Y26744D01*
X18638D01*
X57719Y15825D02*
X60281D01*
Y19175D01*
X57719D02*
X60281D01*
X57719Y15825D02*
Y19175D01*
X64719Y22825D02*
X67281D01*
Y26175D01*
X64719D02*
X67281D01*
X64719Y22825D02*
Y26175D01*
X57719Y22825D02*
X60281D01*
Y26175D01*
X57719D02*
X60281D01*
X57719Y22825D02*
Y26175D01*
X50719Y22825D02*
X53281D01*
Y26175D01*
X50719D02*
X53281D01*
X50719Y22825D02*
Y26175D01*
X57719Y29825D02*
X60281D01*
Y33175D01*
X57719D02*
X60281D01*
X57719Y29825D02*
Y33175D01*
X58091Y13047D02*
X59909D01*
X58091Y13953D02*
X59909D01*
X58091Y13047D02*
Y13953D01*
X59909Y13047D02*
Y13953D01*
X65091Y20047D02*
X66909D01*
X65091Y20953D02*
X66909D01*
X65091Y20047D02*
Y20953D01*
X66909Y20047D02*
Y20953D01*
X58091Y20047D02*
X59909D01*
X58091Y20953D02*
X59909D01*
X58091Y20047D02*
Y20953D01*
X59909Y20047D02*
Y20953D01*
X51091Y20047D02*
X52909D01*
X51091Y20953D02*
X52909D01*
X51091Y20047D02*
Y20953D01*
X52909Y20047D02*
Y20953D01*
X18091Y31047D02*
X19909D01*
X18091Y31953D02*
X19909D01*
X18091Y31047D02*
Y31953D01*
X19909Y31047D02*
Y31953D01*
X58091Y27047D02*
X59909D01*
X58091Y27953D02*
X59909D01*
X58091Y27047D02*
Y27953D01*
X59909Y27047D02*
Y27953D01*
X58091Y14953D02*
X59909D01*
X58091Y14047D02*
X59909D01*
Y14953D01*
X58091Y14047D02*
Y14953D01*
X65091Y21953D02*
X66909D01*
X65091Y21047D02*
X66909D01*
Y21953D01*
X65091Y21047D02*
Y21953D01*
X58091D02*
X59909D01*
X58091Y21047D02*
X59909D01*
Y21953D01*
X58091Y21047D02*
Y21953D01*
X51091D02*
X52909D01*
X51091Y21047D02*
X52909D01*
Y21953D01*
X51091Y21047D02*
Y21953D01*
X58091Y28953D02*
X59909D01*
X58091Y28047D02*
X59909D01*
Y28953D01*
X58091Y28047D02*
Y28953D01*
M02*
