G04*
G04 #@! TF.GenerationSoftware,Altium Limited,Altium Designer,22.9.1 (49)*
G04*
G04 Layer_Color=32896*
%FSLAX24Y24*%
%MOIN*%
G70*
G04*
G04 #@! TF.SameCoordinates,D869CEA3-EDD9-45C0-ACDC-C570693A3B7D*
G04*
G04*
G04 #@! TF.FilePolarity,Positive*
G04*
G01*
G75*
%ADD10C,0.0079*%
%ADD12C,0.0100*%
%ADD13C,0.0150*%
G36*
X31711Y20568D02*
X31776D01*
Y20563D01*
X31804D01*
Y20557D01*
X31837D01*
Y20552D01*
X31865D01*
Y20547D01*
X31881D01*
Y20541D01*
X31914D01*
Y20536D01*
X31930D01*
Y20530D01*
X31953D01*
Y20524D01*
X31969D01*
Y20519D01*
X31991D01*
Y20514D01*
X32008D01*
Y20508D01*
X32024D01*
Y20503D01*
X32046D01*
Y20497D01*
X32057D01*
Y20491D01*
X32079D01*
Y20486D01*
X32095D01*
Y20480D01*
X32106D01*
Y20475D01*
X32129D01*
Y20470D01*
X32139D01*
Y20464D01*
X32156D01*
Y20459D01*
X32167D01*
Y20453D01*
X32183D01*
Y20447D01*
X32200D01*
Y20442D01*
X32211D01*
Y20436D01*
X32233D01*
Y20431D01*
X32244D01*
Y20426D01*
X32260D01*
Y20420D01*
X32271D01*
Y20415D01*
X32283D01*
Y20409D01*
X32299D01*
Y20403D01*
X32310D01*
Y20398D01*
X32327D01*
Y20392D01*
X32338D01*
Y20387D01*
X32348D01*
Y20382D01*
X32365D01*
Y20376D01*
X32376D01*
Y20371D01*
X32392D01*
Y20365D01*
X32398D01*
Y20359D01*
X32415D01*
Y20354D01*
X32425D01*
Y20348D01*
X32436D01*
Y20343D01*
X32453D01*
Y20338D01*
X32459D01*
Y20332D01*
X32475D01*
Y20326D01*
X32486D01*
Y20321D01*
X32503D01*
Y20315D01*
X32513D01*
Y20310D01*
X32524D01*
Y20305D01*
X32536D01*
Y20299D01*
X32547D01*
Y20294D01*
X32557D01*
Y20288D01*
X32569D01*
Y20282D01*
X32580D01*
Y20277D01*
X32590D01*
Y20271D01*
X32601D01*
Y20266D01*
X32613D01*
Y20261D01*
X32618D01*
Y20255D01*
X32629D01*
Y20250D01*
X32634D01*
Y20244D01*
X32640D01*
Y20238D01*
X32645D01*
Y20233D01*
X32651D01*
Y20227D01*
X32657D01*
Y20222D01*
X32662D01*
Y20217D01*
X32668D01*
Y20206D01*
X32673D01*
Y20200D01*
X32678D01*
Y20189D01*
X32684D01*
Y20178D01*
X32689D01*
Y20173D01*
X32695D01*
Y20156D01*
X32701D01*
Y20140D01*
X32706D01*
Y20129D01*
X32712D01*
Y20101D01*
X32717D01*
Y20079D01*
X32722D01*
Y20062D01*
X32728D01*
Y20057D01*
X32739D01*
Y20052D01*
X32750D01*
Y20046D01*
X32761D01*
Y20041D01*
X32772D01*
Y20035D01*
X32778D01*
Y20029D01*
X32794D01*
Y20024D01*
X32799D01*
Y20018D01*
X32810D01*
Y20013D01*
X32822D01*
Y20008D01*
X32833D01*
Y20002D01*
X32838D01*
Y19997D01*
X32849D01*
Y19991D01*
X32860D01*
Y19986D01*
X32866D01*
Y19980D01*
X32877D01*
Y19974D01*
X32887D01*
Y19969D01*
X32893D01*
Y19958D01*
X32898D01*
Y19947D01*
X32904D01*
Y19936D01*
X32910D01*
Y19925D01*
X32915D01*
Y19914D01*
X32920D01*
Y19903D01*
X32926D01*
Y19886D01*
X32931D01*
Y19876D01*
X32937D01*
Y19864D01*
X32943D01*
Y19854D01*
X32948D01*
Y19837D01*
X32954D01*
Y19826D01*
X32959D01*
Y19815D01*
X32964D01*
Y19799D01*
X32970D01*
Y19787D01*
X32975D01*
Y19771D01*
X32981D01*
Y19765D01*
X32987D01*
Y19749D01*
X32992D01*
Y19738D01*
X32998D01*
Y19727D01*
X33003D01*
Y19711D01*
X33008D01*
Y19699D01*
X33014D01*
Y19689D01*
X33019D01*
Y19677D01*
X33025D01*
Y19661D01*
X33031D01*
Y19650D01*
X33036D01*
Y19639D01*
X33042D01*
Y19617D01*
X33047D01*
Y19612D01*
X33052D01*
Y19590D01*
X33058D01*
Y19584D01*
X33063D01*
Y19568D01*
X33069D01*
Y19551D01*
X33075D01*
Y19546D01*
X33080D01*
Y19524D01*
X33085D01*
Y19518D01*
X33091D01*
Y19502D01*
X33096D01*
Y19485D01*
X33102D01*
Y19474D01*
X33108D01*
Y19457D01*
X33113D01*
Y19447D01*
X33119D01*
Y19430D01*
X33124D01*
Y19419D01*
X33129D01*
Y19403D01*
X33135D01*
Y19391D01*
X33140D01*
Y19381D01*
X33146D01*
Y19364D01*
X33152D01*
Y19353D01*
X33157D01*
Y19331D01*
X33163D01*
Y19320D01*
X33168D01*
Y19309D01*
X33173D01*
Y19293D01*
X33179D01*
Y19282D01*
X33184D01*
Y19260D01*
X33190D01*
Y19248D01*
X33196D01*
Y19238D01*
X33201D01*
Y19216D01*
X33207D01*
Y19204D01*
X33212D01*
Y19188D01*
X33217D01*
Y19177D01*
X33223D01*
Y19160D01*
X33228D01*
Y19144D01*
X33234D01*
Y19128D01*
X33240D01*
Y19111D01*
X33245D01*
Y19100D01*
X33251D01*
Y19083D01*
X33256D01*
Y19067D01*
X33261D01*
Y19051D01*
X33267D01*
Y19034D01*
X33273D01*
Y19023D01*
X33278D01*
Y19007D01*
X33284D01*
Y18990D01*
X33289D01*
Y18973D01*
X33294D01*
Y18957D01*
X33300D01*
Y18946D01*
X33305D01*
Y18924D01*
X33311D01*
Y18913D01*
X33317D01*
Y18891D01*
X33322D01*
Y18880D01*
X33328D01*
Y18858D01*
X33333D01*
Y18842D01*
X33338D01*
Y18830D01*
X33344D01*
Y18803D01*
X33349D01*
Y18792D01*
X33355D01*
Y18770D01*
X33361D01*
Y18753D01*
X33366D01*
Y18737D01*
X33372D01*
Y18721D01*
X33377D01*
Y18709D01*
X33382D01*
Y18682D01*
X33388D01*
Y18671D01*
X33393D01*
Y18649D01*
X33399D01*
Y18633D01*
X33405D01*
Y18616D01*
X33410D01*
Y18589D01*
X33416D01*
Y18578D01*
X33421D01*
Y18561D01*
X33426D01*
Y18539D01*
X33432D01*
Y18522D01*
X33438D01*
Y18500D01*
X33443D01*
Y18484D01*
X33449D01*
Y18462D01*
X33454D01*
Y18446D01*
X33459D01*
Y18424D01*
X33465D01*
Y18407D01*
X33470D01*
Y18391D01*
X33476D01*
Y18363D01*
X33482D01*
Y18347D01*
X33487D01*
Y18325D01*
X33493D01*
Y18303D01*
X33498D01*
Y18286D01*
X33503D01*
Y18259D01*
X33509D01*
Y18242D01*
X33514D01*
Y18214D01*
X33520D01*
Y18198D01*
X33526D01*
Y18170D01*
X33531D01*
Y18148D01*
X33537D01*
Y18132D01*
X33542D01*
Y18104D01*
X33547D01*
Y18082D01*
X33553D01*
Y18049D01*
X33558D01*
Y18033D01*
X33564D01*
Y18011D01*
X33570D01*
Y17978D01*
X33575D01*
Y17961D01*
X33581D01*
Y17929D01*
X33586D01*
Y17901D01*
X33591D01*
Y17874D01*
X33597D01*
Y17840D01*
X33602D01*
Y17818D01*
X33608D01*
Y17780D01*
X33614D01*
Y17758D01*
X33619D01*
Y17720D01*
X33624D01*
Y17687D01*
X33630D01*
Y17653D01*
X33635D01*
Y17615D01*
X33641D01*
Y17577D01*
X33647D01*
Y17516D01*
X33652D01*
Y17478D01*
X33658D01*
Y17417D01*
X33663D01*
Y17329D01*
X33668D01*
Y17219D01*
X33674D01*
Y17136D01*
X33668D01*
Y17026D01*
X33663D01*
Y16933D01*
X33658D01*
Y16883D01*
X33652D01*
Y16856D01*
X33647D01*
Y16818D01*
X33641D01*
Y16801D01*
X33635D01*
Y16768D01*
X33630D01*
Y16752D01*
X33624D01*
Y16735D01*
X33619D01*
Y16713D01*
X33614D01*
Y16696D01*
X33608D01*
Y16680D01*
X33602D01*
Y16669D01*
X33597D01*
Y16652D01*
X33591D01*
Y16636D01*
X33586D01*
Y16625D01*
X33581D01*
Y16609D01*
X33575D01*
Y16603D01*
X33570D01*
Y16587D01*
X33564D01*
Y16575D01*
X33558D01*
Y16565D01*
X33553D01*
Y16553D01*
X33547D01*
Y16548D01*
X33542D01*
Y16537D01*
X33537D01*
Y16526D01*
X33531D01*
Y16521D01*
X33526D01*
Y16509D01*
X33520D01*
Y16499D01*
X33514D01*
Y16487D01*
X33509D01*
Y16482D01*
X33503D01*
Y16477D01*
X33498D01*
Y16466D01*
X33493D01*
Y16454D01*
X33487D01*
Y16449D01*
X33482D01*
Y16444D01*
X33476D01*
Y16432D01*
X33470D01*
Y16427D01*
X33465D01*
Y16422D01*
X33459D01*
Y16410D01*
X33454D01*
Y16405D01*
X33449D01*
Y16400D01*
X33443D01*
Y16394D01*
X33438D01*
Y16388D01*
X33432D01*
Y16378D01*
X33426D01*
Y16372D01*
X33421D01*
Y16366D01*
X33416D01*
Y16361D01*
X33410D01*
Y16356D01*
X33405D01*
Y16350D01*
X33399D01*
Y16344D01*
X33393D01*
Y16339D01*
X33388D01*
Y16334D01*
X33382D01*
Y16328D01*
X33377D01*
Y16322D01*
X33372D01*
Y16317D01*
X33366D01*
Y16312D01*
X33361D01*
Y16306D01*
X33355D01*
Y16300D01*
X33349D01*
Y16295D01*
X33338D01*
Y16289D01*
X33333D01*
Y16284D01*
X33328D01*
Y16279D01*
X33322D01*
Y16273D01*
X33317D01*
Y16267D01*
X33305D01*
Y16262D01*
X33300D01*
Y16257D01*
X33294D01*
Y16251D01*
X33284D01*
Y16245D01*
X33273D01*
Y16240D01*
X33267D01*
Y16235D01*
X33256D01*
Y16229D01*
X33251D01*
Y16223D01*
X33240D01*
Y16218D01*
X33228D01*
Y16213D01*
X33223D01*
Y16207D01*
X33212D01*
Y16201D01*
X33201D01*
Y16196D01*
X33190D01*
Y16191D01*
X33173D01*
Y16185D01*
X33163D01*
Y16179D01*
X33140D01*
Y16174D01*
X33119D01*
Y16169D01*
X33091D01*
Y16163D01*
X32992D01*
Y16169D01*
X32970D01*
Y16174D01*
X32954D01*
Y16179D01*
X32931D01*
Y16185D01*
X32926D01*
Y16191D01*
X32910D01*
Y16196D01*
X32898D01*
Y16201D01*
X32893D01*
Y16207D01*
X32877D01*
Y16213D01*
X32871D01*
Y16218D01*
X32860D01*
Y16223D01*
X32854D01*
Y16229D01*
X32843D01*
Y16235D01*
X32838D01*
Y16240D01*
X32827D01*
Y16245D01*
X32822D01*
Y16251D01*
X32810D01*
Y16257D01*
X32805D01*
Y16262D01*
X32799D01*
Y16267D01*
X32789D01*
Y16273D01*
X32783D01*
Y16279D01*
X32778D01*
Y16284D01*
X32772D01*
Y16289D01*
X32761D01*
Y16295D01*
X32755D01*
Y16300D01*
X32750D01*
Y16306D01*
X32745D01*
Y16312D01*
X32739D01*
Y16317D01*
X32734D01*
Y16322D01*
X32722D01*
Y16328D01*
X32717D01*
Y16334D01*
X32712D01*
Y16339D01*
X32706D01*
Y16344D01*
X32701D01*
Y16350D01*
X32695D01*
Y16356D01*
X32689D01*
Y16361D01*
X32678D01*
Y16366D01*
X32673D01*
Y16372D01*
X32668D01*
Y16378D01*
X32662D01*
Y16383D01*
X32657D01*
Y16388D01*
X32651D01*
Y16394D01*
X32645D01*
Y16400D01*
X32640D01*
Y16405D01*
X32634D01*
Y16410D01*
X32629D01*
Y16416D01*
X32618D01*
Y16422D01*
X32613D01*
Y16427D01*
X32607D01*
Y16432D01*
X32601D01*
Y16438D01*
X32596D01*
Y16444D01*
X32590D01*
Y16449D01*
X32585D01*
Y16454D01*
X32580D01*
Y16460D01*
X32574D01*
Y16466D01*
X32569D01*
Y16471D01*
X32563D01*
Y16477D01*
X32557D01*
Y16482D01*
X32547D01*
Y16487D01*
X32541D01*
Y16493D01*
X32536D01*
Y16499D01*
X32530D01*
Y16504D01*
X32524D01*
Y16509D01*
X32519D01*
Y16515D01*
X32513D01*
Y16521D01*
X32508D01*
Y16526D01*
X32503D01*
Y16531D01*
X32497D01*
Y16537D01*
X32492D01*
Y16543D01*
X32486D01*
Y16548D01*
X32480D01*
Y16553D01*
X32475D01*
Y16559D01*
X32469D01*
Y16565D01*
X32464D01*
Y16570D01*
X32459D01*
Y16575D01*
X32448D01*
Y16587D01*
X32436D01*
Y16597D01*
X32431D01*
Y16603D01*
X32420D01*
Y16614D01*
X32409D01*
Y16619D01*
X32404D01*
Y16625D01*
X32398D01*
Y16631D01*
X32392D01*
Y16636D01*
X32387D01*
Y16641D01*
X32381D01*
Y16647D01*
X32376D01*
Y16652D01*
X32371D01*
Y16658D01*
X32365D01*
Y16664D01*
X32359D01*
Y16669D01*
X32354D01*
Y16674D01*
X32348D01*
Y16680D01*
X32343D01*
Y16686D01*
X32338D01*
Y16691D01*
X32332D01*
Y16696D01*
X32327D01*
Y16708D01*
X32315D01*
Y16718D01*
X32304D01*
Y16730D01*
X32299D01*
Y16735D01*
X32288D01*
Y16740D01*
X32283D01*
Y16746D01*
X32277D01*
Y16752D01*
X32271D01*
Y16757D01*
X32266D01*
Y16762D01*
X32260D01*
Y16768D01*
X32255D01*
Y16774D01*
X32250D01*
Y16779D01*
X32244D01*
Y16784D01*
X32239D01*
Y16796D01*
X32233D01*
Y16801D01*
X32227D01*
Y16806D01*
X32222D01*
Y16812D01*
X32216D01*
Y16818D01*
X32211D01*
Y16823D01*
X32206D01*
Y16829D01*
X32200D01*
Y16834D01*
X32194D01*
Y16839D01*
X32189D01*
Y16845D01*
X32183D01*
Y16851D01*
X32178D01*
Y16856D01*
X32173D01*
Y16861D01*
X32167D01*
Y16867D01*
X32162D01*
Y16873D01*
X32156D01*
Y16878D01*
X32150D01*
Y16883D01*
X32145D01*
Y16889D01*
X32139D01*
Y16895D01*
X32134D01*
Y16900D01*
X32129D01*
Y16905D01*
X32123D01*
Y16911D01*
X32118D01*
Y16917D01*
X32112D01*
Y16922D01*
X32106D01*
Y16927D01*
X32101D01*
Y16933D01*
X32095D01*
Y16939D01*
X32090D01*
Y16944D01*
X32085D01*
Y16949D01*
X32079D01*
Y16955D01*
X32074D01*
Y16961D01*
X32068D01*
Y16966D01*
X32062D01*
Y16971D01*
X32057D01*
Y16977D01*
X32051D01*
Y16983D01*
X32046D01*
Y16988D01*
X32041D01*
Y16993D01*
X32035D01*
Y16999D01*
X32030D01*
Y17004D01*
X32024D01*
Y17010D01*
X32018D01*
Y17016D01*
X32013D01*
Y17021D01*
X32008D01*
Y17026D01*
X32002D01*
Y17032D01*
X31997D01*
Y17038D01*
X31985D01*
Y17043D01*
X31980D01*
Y17048D01*
X31974D01*
Y17054D01*
X31969D01*
Y17060D01*
X31964D01*
Y17065D01*
X31958D01*
Y17070D01*
X31953D01*
Y17076D01*
X31941D01*
Y17082D01*
X31936D01*
Y17087D01*
X31925D01*
Y17092D01*
X31920D01*
Y17098D01*
X31914D01*
Y17104D01*
X31903D01*
Y17109D01*
X31897D01*
Y17114D01*
X31886D01*
Y17120D01*
X31876D01*
Y17126D01*
X31865D01*
Y17131D01*
X31859D01*
Y17136D01*
X31848D01*
Y17142D01*
X31837D01*
Y17148D01*
X31826D01*
Y17153D01*
X31809D01*
Y17158D01*
X31799D01*
Y17164D01*
X31788D01*
Y17170D01*
X31771D01*
Y17175D01*
X31765D01*
Y17181D01*
X31744D01*
Y17186D01*
X31732D01*
Y17191D01*
X31711D01*
Y17197D01*
X31694D01*
Y17203D01*
X31672D01*
Y17208D01*
X31650D01*
Y17213D01*
X31634D01*
Y17219D01*
X29109D01*
Y17213D01*
X29093D01*
Y17208D01*
X29065D01*
Y17203D01*
X29049D01*
Y17197D01*
X29032D01*
Y17191D01*
X29016D01*
Y17186D01*
X28999D01*
Y17181D01*
X28983D01*
Y17175D01*
X28972D01*
Y17170D01*
X28960D01*
Y17164D01*
X28944D01*
Y17158D01*
X28939D01*
Y17153D01*
X28922D01*
Y17148D01*
X28916D01*
Y17142D01*
X28905D01*
Y17136D01*
X28895D01*
Y17131D01*
X28884D01*
Y17126D01*
X28872D01*
Y17120D01*
X28867D01*
Y17114D01*
X28856D01*
Y17109D01*
X28851D01*
Y17104D01*
X28839D01*
Y17098D01*
X28834D01*
Y17092D01*
X28823D01*
Y17087D01*
X28818D01*
Y17082D01*
X28812D01*
Y17076D01*
X28801D01*
Y17070D01*
X28795D01*
Y17065D01*
X28790D01*
Y17060D01*
X28779D01*
Y17054D01*
X28774D01*
Y17048D01*
X28768D01*
Y17043D01*
X28763D01*
Y17038D01*
X28751D01*
Y17032D01*
X28746D01*
Y17026D01*
X28740D01*
Y17021D01*
X28735D01*
Y17016D01*
X28730D01*
Y17010D01*
X28724D01*
Y17004D01*
X28719D01*
Y16999D01*
X28713D01*
Y16993D01*
X28707D01*
Y16988D01*
X28702D01*
Y16983D01*
X28696D01*
Y16977D01*
X28691D01*
Y16971D01*
X28686D01*
Y16966D01*
X28680D01*
Y16961D01*
X28674D01*
Y16955D01*
X28669D01*
Y16949D01*
X28663D01*
Y16944D01*
X28658D01*
Y16939D01*
X28653D01*
Y16933D01*
X28647D01*
Y16927D01*
X28642D01*
Y16922D01*
X28636D01*
Y16917D01*
X28630D01*
Y16911D01*
X28625D01*
Y16905D01*
X28619D01*
Y16900D01*
X28614D01*
Y16895D01*
X28609D01*
Y16889D01*
X28603D01*
Y16883D01*
X28598D01*
Y16878D01*
X28592D01*
Y16873D01*
X28586D01*
Y16867D01*
X28581D01*
Y16861D01*
X28575D01*
Y16856D01*
X28570D01*
Y16851D01*
X28565D01*
Y16845D01*
X28559D01*
Y16839D01*
X28554D01*
Y16834D01*
X28548D01*
Y16829D01*
X28542D01*
Y16823D01*
X28537D01*
Y16812D01*
X28526D01*
Y16801D01*
X28515D01*
Y16796D01*
X28510D01*
Y16790D01*
X28504D01*
Y16784D01*
X28498D01*
Y16779D01*
X28493D01*
Y16774D01*
X28488D01*
Y16768D01*
X28482D01*
Y16757D01*
X28477D01*
Y16752D01*
X28471D01*
Y16746D01*
X28465D01*
Y16740D01*
X28460D01*
Y16735D01*
X28454D01*
Y16730D01*
X28449D01*
Y16724D01*
X28444D01*
Y16718D01*
X28438D01*
Y16713D01*
X28433D01*
Y16708D01*
X28427D01*
Y16702D01*
X28421D01*
Y16696D01*
X28416D01*
Y16691D01*
X28410D01*
Y16686D01*
X28405D01*
Y16680D01*
X28400D01*
Y16674D01*
X28394D01*
Y16669D01*
X28389D01*
Y16664D01*
X28383D01*
Y16658D01*
X28377D01*
Y16652D01*
X28372D01*
Y16647D01*
X28366D01*
Y16641D01*
X28361D01*
Y16636D01*
X28356D01*
Y16631D01*
X28350D01*
Y16625D01*
X28345D01*
Y16619D01*
X28339D01*
Y16614D01*
X28333D01*
Y16609D01*
X28328D01*
Y16603D01*
X28323D01*
Y16597D01*
X28317D01*
Y16592D01*
X28312D01*
Y16587D01*
X28306D01*
Y16581D01*
X28300D01*
Y16575D01*
X28295D01*
Y16570D01*
X28289D01*
Y16565D01*
X28284D01*
Y16559D01*
X28279D01*
Y16553D01*
X28273D01*
Y16548D01*
X28262D01*
Y16543D01*
X28256D01*
Y16537D01*
X28251D01*
Y16531D01*
X28245D01*
Y16526D01*
X28240D01*
Y16521D01*
X28235D01*
Y16515D01*
X28229D01*
Y16509D01*
X28224D01*
Y16504D01*
X28218D01*
Y16499D01*
X28212D01*
Y16493D01*
X28207D01*
Y16487D01*
X28201D01*
Y16482D01*
X28191D01*
Y16477D01*
X28185D01*
Y16471D01*
X28180D01*
Y16466D01*
X28174D01*
Y16460D01*
X28168D01*
Y16454D01*
X28163D01*
Y16449D01*
X28157D01*
Y16444D01*
X28152D01*
Y16438D01*
X28147D01*
Y16432D01*
X28141D01*
Y16427D01*
X28135D01*
Y16422D01*
X28130D01*
Y16416D01*
X28124D01*
Y16410D01*
X28119D01*
Y16405D01*
X28114D01*
Y16400D01*
X28103D01*
Y16394D01*
X28097D01*
Y16388D01*
X28091D01*
Y16383D01*
X28086D01*
Y16378D01*
X28080D01*
Y16372D01*
X28075D01*
Y16366D01*
X28070D01*
Y16361D01*
X28064D01*
Y16356D01*
X28059D01*
Y16350D01*
X28053D01*
Y16344D01*
X28042D01*
Y16339D01*
X28036D01*
Y16334D01*
X28031D01*
Y16328D01*
X28026D01*
Y16322D01*
X28020D01*
Y16317D01*
X28015D01*
Y16312D01*
X28003D01*
Y16306D01*
X27998D01*
Y16300D01*
X27992D01*
Y16295D01*
X27982D01*
Y16289D01*
X27976D01*
Y16284D01*
X27970D01*
Y16279D01*
X27965D01*
Y16273D01*
X27959D01*
Y16267D01*
X27949D01*
Y16262D01*
X27943D01*
Y16257D01*
X27932D01*
Y16251D01*
X27926D01*
Y16245D01*
X27921D01*
Y16240D01*
X27910D01*
Y16235D01*
X27905D01*
Y16229D01*
X27894D01*
Y16223D01*
X27888D01*
Y16218D01*
X27877D01*
Y16213D01*
X27871D01*
Y16207D01*
X27861D01*
Y16201D01*
X27850D01*
Y16196D01*
X27838D01*
Y16191D01*
X27827D01*
Y16185D01*
X27817D01*
Y16179D01*
X27800D01*
Y16174D01*
X27784D01*
Y16169D01*
X27756D01*
Y16163D01*
X27652D01*
Y16169D01*
X27624D01*
Y16174D01*
X27608D01*
Y16179D01*
X27585D01*
Y16185D01*
X27575D01*
Y16191D01*
X27558D01*
Y16196D01*
X27547D01*
Y16201D01*
X27536D01*
Y16207D01*
X27525D01*
Y16213D01*
X27514D01*
Y16218D01*
X27503D01*
Y16223D01*
X27497D01*
Y16229D01*
X27487D01*
Y16235D01*
X27481D01*
Y16240D01*
X27470D01*
Y16245D01*
X27464D01*
Y16251D01*
X27459D01*
Y16257D01*
X27448D01*
Y16262D01*
X27443D01*
Y16267D01*
X27437D01*
Y16273D01*
X27426D01*
Y16279D01*
X27420D01*
Y16284D01*
X27415D01*
Y16289D01*
X27410D01*
Y16295D01*
X27404D01*
Y16300D01*
X27393D01*
Y16306D01*
X27387D01*
Y16312D01*
X27382D01*
Y16317D01*
X27376D01*
Y16322D01*
X27371D01*
Y16328D01*
X27366D01*
Y16334D01*
X27360D01*
Y16339D01*
X27355D01*
Y16344D01*
X27349D01*
Y16350D01*
X27343D01*
Y16356D01*
X27338D01*
Y16361D01*
X27332D01*
Y16366D01*
X27327D01*
Y16378D01*
X27322D01*
Y16383D01*
X27316D01*
Y16388D01*
X27311D01*
Y16394D01*
X27305D01*
Y16400D01*
X27299D01*
Y16410D01*
X27294D01*
Y16416D01*
X27288D01*
Y16422D01*
X27283D01*
Y16427D01*
X27278D01*
Y16432D01*
X27272D01*
Y16444D01*
X27266D01*
Y16449D01*
X27261D01*
Y16460D01*
X27255D01*
Y16466D01*
X27250D01*
Y16471D01*
X27245D01*
Y16482D01*
X27239D01*
Y16487D01*
X27234D01*
Y16499D01*
X27228D01*
Y16509D01*
X27222D01*
Y16521D01*
X27217D01*
Y16526D01*
X27211D01*
Y16537D01*
X27206D01*
Y16548D01*
X27201D01*
Y16559D01*
X27195D01*
Y16570D01*
X27190D01*
Y16581D01*
X27184D01*
Y16592D01*
X27178D01*
Y16603D01*
X27173D01*
Y16614D01*
X27167D01*
Y16631D01*
X27162D01*
Y16641D01*
X27157D01*
Y16652D01*
X27151D01*
Y16669D01*
X27146D01*
Y16680D01*
X27140D01*
Y16702D01*
X27134D01*
Y16713D01*
X27129D01*
Y16735D01*
X27123D01*
Y16752D01*
X27118D01*
Y16768D01*
X27113D01*
Y16796D01*
X27107D01*
Y16818D01*
X27102D01*
Y16856D01*
X27096D01*
Y16883D01*
X27090D01*
Y16933D01*
X27085D01*
Y17032D01*
X27080D01*
Y17340D01*
X27085D01*
Y17417D01*
X27090D01*
Y17483D01*
X27096D01*
Y17527D01*
X27102D01*
Y17582D01*
X27107D01*
Y17615D01*
X27113D01*
Y17659D01*
X27118D01*
Y17692D01*
X27123D01*
Y17720D01*
X27129D01*
Y17764D01*
X27134D01*
Y17791D01*
X27140D01*
Y17830D01*
X27146D01*
Y17852D01*
X27151D01*
Y17885D01*
X27157D01*
Y17912D01*
X27162D01*
Y17934D01*
X27167D01*
Y17967D01*
X27173D01*
Y17989D01*
X27178D01*
Y18017D01*
X27184D01*
Y18044D01*
X27190D01*
Y18060D01*
X27195D01*
Y18088D01*
X27201D01*
Y18104D01*
X27206D01*
Y18138D01*
X27211D01*
Y18160D01*
X27217D01*
Y18176D01*
X27222D01*
Y18204D01*
X27228D01*
Y18226D01*
X27234D01*
Y18247D01*
X27239D01*
Y18269D01*
X27245D01*
Y18291D01*
X27250D01*
Y18308D01*
X27255D01*
Y18325D01*
X27261D01*
Y18352D01*
X27266D01*
Y18369D01*
X27272D01*
Y18396D01*
X27278D01*
Y18407D01*
X27283D01*
Y18429D01*
X27288D01*
Y18451D01*
X27294D01*
Y18468D01*
X27299D01*
Y18490D01*
X27305D01*
Y18506D01*
X27311D01*
Y18528D01*
X27316D01*
Y18544D01*
X27322D01*
Y18561D01*
X27327D01*
Y18589D01*
X27332D01*
Y18599D01*
X27338D01*
Y18621D01*
X27343D01*
Y18638D01*
X27349D01*
Y18660D01*
X27355D01*
Y18677D01*
X27360D01*
Y18693D01*
X27366D01*
Y18715D01*
X27371D01*
Y18726D01*
X27376D01*
Y18748D01*
X27382D01*
Y18764D01*
X27387D01*
Y18776D01*
X27393D01*
Y18803D01*
X27399D01*
Y18814D01*
X27404D01*
Y18836D01*
X27410D01*
Y18847D01*
X27415D01*
Y18864D01*
X27420D01*
Y18880D01*
X27426D01*
Y18891D01*
X27431D01*
Y18918D01*
X27437D01*
Y18930D01*
X27443D01*
Y18946D01*
X27448D01*
Y18963D01*
X27453D01*
Y18973D01*
X27459D01*
Y18995D01*
X27464D01*
Y19007D01*
X27470D01*
Y19029D01*
X27476D01*
Y19045D01*
X27481D01*
Y19061D01*
X27487D01*
Y19073D01*
X27492D01*
Y19089D01*
X27497D01*
Y19105D01*
X27503D01*
Y19116D01*
X27508D01*
Y19133D01*
X27514D01*
Y19150D01*
X27520D01*
Y19160D01*
X27525D01*
Y19182D01*
X27531D01*
Y19194D01*
X27536D01*
Y19210D01*
X27541D01*
Y19221D01*
X27547D01*
Y19238D01*
X27552D01*
Y19254D01*
X27558D01*
Y19265D01*
X27564D01*
Y19282D01*
X27569D01*
Y19293D01*
X27575D01*
Y19315D01*
X27580D01*
Y19325D01*
X27585D01*
Y19337D01*
X27591D01*
Y19353D01*
X27596D01*
Y19364D01*
X27602D01*
Y19386D01*
X27608D01*
Y19397D01*
X27613D01*
Y19408D01*
X27619D01*
Y19425D01*
X27624D01*
Y19441D01*
X27629D01*
Y19452D01*
X27635D01*
Y19463D01*
X27641D01*
Y19480D01*
X27646D01*
Y19490D01*
X27652D01*
Y19507D01*
X27657D01*
Y19524D01*
X27662D01*
Y19534D01*
X27668D01*
Y19551D01*
X27673D01*
Y19562D01*
X27679D01*
Y19573D01*
X27685D01*
Y19590D01*
X27690D01*
Y19600D01*
X27696D01*
Y19617D01*
X27701D01*
Y19628D01*
X27706D01*
Y19639D01*
X27712D01*
Y19650D01*
X27717D01*
Y19661D01*
X27723D01*
Y19677D01*
X27729D01*
Y19689D01*
X27734D01*
Y19705D01*
X27740D01*
Y19716D01*
X27745D01*
Y19727D01*
X27750D01*
Y19743D01*
X27756D01*
Y19755D01*
X27761D01*
Y19771D01*
X27767D01*
Y19782D01*
X27773D01*
Y19793D01*
X27778D01*
Y19809D01*
X27784D01*
Y19820D01*
X27789D01*
Y19832D01*
X27794D01*
Y19842D01*
X27800D01*
Y19859D01*
X27806D01*
Y19870D01*
X27811D01*
Y19881D01*
X27817D01*
Y19892D01*
X27822D01*
Y19903D01*
X27827D01*
Y19920D01*
X27833D01*
Y19925D01*
X27838D01*
Y19942D01*
X27844D01*
Y19952D01*
X27850D01*
Y19958D01*
X27855D01*
Y19969D01*
X27861D01*
Y19974D01*
X27871D01*
Y19980D01*
X27882D01*
Y19986D01*
X27888D01*
Y19991D01*
X27899D01*
Y19997D01*
X27910D01*
Y20002D01*
X27921D01*
Y20008D01*
X27926D01*
Y20013D01*
X27938D01*
Y20018D01*
X27949D01*
Y20024D01*
X27954D01*
Y20029D01*
X27970D01*
Y20035D01*
X27976D01*
Y20041D01*
X27987D01*
Y20046D01*
X27998D01*
Y20052D01*
X28009D01*
Y20057D01*
X28020D01*
Y20068D01*
X28026D01*
Y20096D01*
X28031D01*
Y20112D01*
X28036D01*
Y20134D01*
X28042D01*
Y20145D01*
X28047D01*
Y20161D01*
X28053D01*
Y20173D01*
X28059D01*
Y20178D01*
X28064D01*
Y20194D01*
X28070D01*
Y20200D01*
X28075D01*
Y20206D01*
X28080D01*
Y20217D01*
X28086D01*
Y20222D01*
X28091D01*
Y20227D01*
X28097D01*
Y20233D01*
X28103D01*
Y20238D01*
X28108D01*
Y20244D01*
X28114D01*
Y20250D01*
X28119D01*
Y20255D01*
X28130D01*
Y20261D01*
X28135D01*
Y20266D01*
X28147D01*
Y20271D01*
X28157D01*
Y20277D01*
X28168D01*
Y20282D01*
X28180D01*
Y20288D01*
X28185D01*
Y20294D01*
X28201D01*
Y20299D01*
X28207D01*
Y20305D01*
X28224D01*
Y20310D01*
X28235D01*
Y20315D01*
X28245D01*
Y20321D01*
X28256D01*
Y20326D01*
X28268D01*
Y20332D01*
X28279D01*
Y20338D01*
X28289D01*
Y20343D01*
X28306D01*
Y20348D01*
X28317D01*
Y20354D01*
X28328D01*
Y20359D01*
X28345D01*
Y20365D01*
X28350D01*
Y20371D01*
X28366D01*
Y20376D01*
X28377D01*
Y20382D01*
X28394D01*
Y20387D01*
X28405D01*
Y20392D01*
X28416D01*
Y20398D01*
X28433D01*
Y20403D01*
X28444D01*
Y20409D01*
X28460D01*
Y20415D01*
X28471D01*
Y20420D01*
X28482D01*
Y20426D01*
X28504D01*
Y20431D01*
X28510D01*
Y20436D01*
X28526D01*
Y20442D01*
X28542D01*
Y20447D01*
X28554D01*
Y20453D01*
X28570D01*
Y20459D01*
X28581D01*
Y20464D01*
X28603D01*
Y20470D01*
X28614D01*
Y20475D01*
X28630D01*
Y20480D01*
X28647D01*
Y20486D01*
X28658D01*
Y20491D01*
X28680D01*
Y20497D01*
X28696D01*
Y20503D01*
X28713D01*
Y20508D01*
X28730D01*
Y20514D01*
X28751D01*
Y20519D01*
X28768D01*
Y20524D01*
X28784D01*
Y20530D01*
X28812D01*
Y20536D01*
X28828D01*
Y20541D01*
X28856D01*
Y20547D01*
X28878D01*
Y20552D01*
X28900D01*
Y20557D01*
X28939D01*
Y20563D01*
X28966D01*
Y20568D01*
X29032D01*
Y20574D01*
X29104D01*
Y20568D01*
X29142D01*
Y20563D01*
X29158D01*
Y20557D01*
X29186D01*
Y20552D01*
X29202D01*
Y20547D01*
X29225D01*
Y20541D01*
X29241D01*
Y20536D01*
X29258D01*
Y20530D01*
X29274D01*
Y20524D01*
X29285D01*
Y20519D01*
X29296D01*
Y20514D01*
X29313D01*
Y20508D01*
X29318D01*
Y20503D01*
X29334D01*
Y20497D01*
X29340D01*
Y20491D01*
X29351D01*
Y20486D01*
X29362D01*
Y20480D01*
X29373D01*
Y20475D01*
X29378D01*
Y20470D01*
X29390D01*
Y20464D01*
X29400D01*
Y20459D01*
X29406D01*
Y20453D01*
X29417D01*
Y20447D01*
X29434D01*
Y20442D01*
X29439D01*
Y20436D01*
X29455D01*
Y20431D01*
X29467D01*
Y20426D01*
X29488D01*
Y20420D01*
X29499D01*
Y20415D01*
X29522D01*
Y20409D01*
X29538D01*
Y20403D01*
X31205D01*
Y20409D01*
X31226D01*
Y20415D01*
X31243D01*
Y20420D01*
X31254D01*
Y20426D01*
X31276D01*
Y20431D01*
X31287D01*
Y20436D01*
X31298D01*
Y20442D01*
X31309D01*
Y20447D01*
X31320D01*
Y20453D01*
X31331D01*
Y20459D01*
X31342D01*
Y20464D01*
X31353D01*
Y20470D01*
X31364D01*
Y20475D01*
X31370D01*
Y20480D01*
X31381D01*
Y20486D01*
X31391D01*
Y20491D01*
X31402D01*
Y20497D01*
X31408D01*
Y20503D01*
X31425D01*
Y20508D01*
X31435D01*
Y20514D01*
X31446D01*
Y20519D01*
X31463D01*
Y20524D01*
X31469D01*
Y20530D01*
X31490D01*
Y20536D01*
X31502D01*
Y20541D01*
X31523D01*
Y20547D01*
X31540D01*
Y20552D01*
X31556D01*
Y20557D01*
X31584D01*
Y20563D01*
X31606D01*
Y20568D01*
X31700D01*
Y20574D01*
X31711D01*
Y20568D01*
D02*
G37*
G36*
X36647Y34358D02*
X36660D01*
Y34277D01*
X36674D01*
Y34236D01*
X36688D01*
Y34169D01*
X36701D01*
Y34101D01*
X36715D01*
Y34047D01*
X36728D01*
Y33966D01*
X36742D01*
Y33911D01*
X36755D01*
Y33857D01*
X36769D01*
Y33776D01*
X36782D01*
Y33735D01*
X36796D01*
Y33654D01*
X36809D01*
Y33614D01*
X36823D01*
Y33519D01*
X36836D01*
Y33478D01*
X36850D01*
Y33424D01*
X36864D01*
Y33343D01*
X36877D01*
Y33289D01*
X36891D01*
Y33207D01*
X36904D01*
Y33167D01*
X36918D01*
Y33099D01*
X36931D01*
Y33031D01*
X36945D01*
Y32977D01*
X36958D01*
Y32896D01*
X36972D01*
Y32855D01*
X36985D01*
Y32760D01*
X36999D01*
Y32720D01*
X37013D01*
Y32666D01*
X37026D01*
Y32611D01*
X37013D01*
Y32598D01*
X36985D01*
Y32584D01*
X36972D01*
Y32571D01*
X36945D01*
Y32557D01*
X36931D01*
Y32544D01*
X36904D01*
Y32530D01*
X36891D01*
Y32517D01*
X36864D01*
Y32503D01*
X36850D01*
Y32490D01*
X36823D01*
Y32476D01*
X36796D01*
Y32462D01*
X36782D01*
Y32449D01*
X36755D01*
Y32435D01*
X36742D01*
Y32422D01*
X36715D01*
Y32408D01*
X36701D01*
Y32395D01*
X36688D01*
Y32381D01*
X36647D01*
Y32368D01*
X36620D01*
Y32381D01*
X36579D01*
Y32395D01*
X36566D01*
Y32408D01*
X36552D01*
Y32422D01*
X36525D01*
Y32435D01*
X36511D01*
Y32449D01*
X36484D01*
Y32462D01*
X36471D01*
Y32476D01*
X36444D01*
Y32490D01*
X36417D01*
Y32503D01*
X36403D01*
Y32517D01*
X36376D01*
Y32530D01*
X36363D01*
Y32544D01*
X36335D01*
Y32557D01*
X36322D01*
Y32571D01*
X36295D01*
Y32584D01*
X36281D01*
Y32598D01*
X36254D01*
Y32611D01*
X36241D01*
Y32666D01*
X36254D01*
Y32720D01*
X36268D01*
Y32760D01*
X36281D01*
Y32855D01*
X36295D01*
Y32896D01*
X36308D01*
Y32977D01*
X36322D01*
Y33031D01*
X36335D01*
Y33085D01*
X36349D01*
Y33167D01*
X36363D01*
Y33180D01*
Y33207D01*
X36376D01*
Y33289D01*
X36390D01*
Y33329D01*
X36403D01*
Y33424D01*
X36417D01*
Y33465D01*
X36430D01*
Y33532D01*
X36444D01*
Y33614D01*
X36457D01*
Y33654D01*
X36471D01*
Y33735D01*
X36484D01*
Y33776D01*
X36498D01*
Y33857D01*
X36511D01*
Y33911D01*
X36525D01*
Y33966D01*
X36539D01*
Y34047D01*
X36552D01*
Y34101D01*
X36566D01*
Y34169D01*
X36579D01*
Y34236D01*
X36593D01*
Y34277D01*
X36606D01*
Y34358D01*
X36620D01*
Y34385D01*
X36647D01*
Y34358D01*
D02*
G37*
G36*
X39030Y33383D02*
X39017D01*
Y33370D01*
X39003D01*
Y33343D01*
X38990D01*
Y33329D01*
X38976D01*
Y33302D01*
X38963D01*
Y33289D01*
X38949D01*
Y33261D01*
X38935D01*
Y33248D01*
X38922D01*
Y33221D01*
X38908D01*
Y33194D01*
X38895D01*
Y33180D01*
X38881D01*
Y33167D01*
X38868D01*
Y33140D01*
X38854D01*
Y33126D01*
X38841D01*
Y33099D01*
X38827D01*
Y33085D01*
X38814D01*
Y33058D01*
X38800D01*
Y33031D01*
X38786D01*
Y33018D01*
X38773D01*
Y32991D01*
X38759D01*
Y32977D01*
X38746D01*
Y32950D01*
X38732D01*
Y32936D01*
X38719D01*
Y32909D01*
X38705D01*
Y32882D01*
X38692D01*
Y32869D01*
X38678D01*
Y32842D01*
X38665D01*
Y32828D01*
X38651D01*
Y32801D01*
X38637D01*
Y32787D01*
X38624D01*
Y32760D01*
X38610D01*
Y32733D01*
X38597D01*
Y32720D01*
X38583D01*
Y32693D01*
X38570D01*
Y32679D01*
X38556D01*
Y32652D01*
X38543D01*
Y32639D01*
X38529D01*
Y32625D01*
X38516D01*
Y32584D01*
X38502D01*
Y32571D01*
X38489D01*
Y32557D01*
X38475D01*
Y32530D01*
X38461D01*
Y32517D01*
X38448D01*
Y32490D01*
X38434D01*
Y32476D01*
X38421D01*
Y32449D01*
X38407D01*
Y32422D01*
X38394D01*
Y32408D01*
X38380D01*
Y32381D01*
X38367D01*
Y32368D01*
X38353D01*
Y32341D01*
X38340D01*
Y32327D01*
X38326D01*
Y32300D01*
X38312D01*
Y32286D01*
X38299D01*
Y32259D01*
X38285D01*
Y32232D01*
X38272D01*
Y32219D01*
X38258D01*
Y32192D01*
X38245D01*
Y32178D01*
X38231D01*
Y32151D01*
X38218D01*
Y32137D01*
X38204D01*
Y32124D01*
X38191D01*
Y32097D01*
X38177D01*
Y32070D01*
X38164D01*
Y32043D01*
X38150D01*
Y32029D01*
X38136D01*
Y32016D01*
X38123D01*
Y31989D01*
X38109D01*
Y31975D01*
X38096D01*
Y31934D01*
X38082D01*
Y31921D01*
X38069D01*
Y31907D01*
X38055D01*
Y31880D01*
X38042D01*
Y31867D01*
X38028D01*
Y31840D01*
X38015D01*
Y31826D01*
X38001D01*
Y31799D01*
X37987D01*
Y31772D01*
X37974D01*
Y31758D01*
X37960D01*
Y31731D01*
X37947D01*
Y31718D01*
X37933D01*
Y31691D01*
X37920D01*
Y31677D01*
X37906D01*
Y31650D01*
X37893D01*
Y31636D01*
X37879D01*
Y31609D01*
X37866D01*
Y31596D01*
X37852D01*
Y31569D01*
X37839D01*
Y31542D01*
X37825D01*
Y31528D01*
X37811D01*
Y31515D01*
X37798D01*
Y31488D01*
X37784D01*
Y31474D01*
X37771D01*
Y31447D01*
X37757D01*
Y31420D01*
X37744D01*
Y31406D01*
X37730D01*
Y31379D01*
X37717D01*
Y31366D01*
X37703D01*
Y31339D01*
X37690D01*
Y31325D01*
X37676D01*
Y31298D01*
X37662D01*
Y31271D01*
X37649D01*
Y31257D01*
X37635D01*
Y31230D01*
X37622D01*
Y31217D01*
X37608D01*
Y31190D01*
X37595D01*
Y31176D01*
X37581D01*
Y31149D01*
X37568D01*
Y31122D01*
X37554D01*
Y31108D01*
X37541D01*
Y31081D01*
X37527D01*
Y31068D01*
X37514D01*
Y31054D01*
X37500D01*
Y31000D01*
X37514D01*
Y30973D01*
X37527D01*
Y30959D01*
X37541D01*
Y30932D01*
X37554D01*
Y30919D01*
X37568D01*
Y30892D01*
X37581D01*
Y30865D01*
X37595D01*
Y30851D01*
X37608D01*
Y30824D01*
X37622D01*
Y30810D01*
X37635D01*
Y30783D01*
X37649D01*
Y30770D01*
X37662D01*
Y30743D01*
X37676D01*
Y30716D01*
X37690D01*
Y30702D01*
X37703D01*
Y30689D01*
X37717D01*
Y30661D01*
X37730D01*
Y30648D01*
X37744D01*
Y30621D01*
X37757D01*
Y30607D01*
X37771D01*
Y30580D01*
X37784D01*
Y30553D01*
X37798D01*
Y30540D01*
X37811D01*
Y30512D01*
X37825D01*
Y30499D01*
X37839D01*
Y30472D01*
X37852D01*
Y30458D01*
X37866D01*
Y30431D01*
X37879D01*
Y30418D01*
X37893D01*
Y30391D01*
X37906D01*
Y30364D01*
X37920D01*
Y30350D01*
X37933D01*
Y30323D01*
X37947D01*
Y30309D01*
X37960D01*
Y30282D01*
X37974D01*
Y30269D01*
X37987D01*
Y30242D01*
X38001D01*
Y30228D01*
X38015D01*
Y30201D01*
X38028D01*
Y30174D01*
X38042D01*
Y30160D01*
X38055D01*
Y30147D01*
X38069D01*
Y30120D01*
X38082D01*
Y30106D01*
X38096D01*
Y30079D01*
X38109D01*
Y30052D01*
X38123D01*
Y30025D01*
X38136D01*
Y30011D01*
X38150D01*
Y29998D01*
X38164D01*
Y29971D01*
X38177D01*
Y29957D01*
X38191D01*
Y29930D01*
X38204D01*
Y29903D01*
X38218D01*
Y29890D01*
X38231D01*
Y29862D01*
X38245D01*
Y29849D01*
X38258D01*
Y29822D01*
X38272D01*
Y29808D01*
X38285D01*
Y29781D01*
X38299D01*
Y29768D01*
X38312D01*
Y29741D01*
X38326D01*
Y29714D01*
X38340D01*
Y29700D01*
X38353D01*
Y29673D01*
X38367D01*
Y29659D01*
X38380D01*
Y29632D01*
X38394D01*
Y29619D01*
X38407D01*
Y29605D01*
X38421D01*
Y29578D01*
X38434D01*
Y29551D01*
X38448D01*
Y29524D01*
X38461D01*
Y29510D01*
X38475D01*
Y29497D01*
X38489D01*
Y29470D01*
X38502D01*
Y29456D01*
X38516D01*
Y29429D01*
X38529D01*
Y29402D01*
X38543D01*
Y29389D01*
X38556D01*
Y29361D01*
X38570D01*
Y29348D01*
X38583D01*
Y29321D01*
X38597D01*
Y29307D01*
X38610D01*
Y29280D01*
X38624D01*
Y29267D01*
X38637D01*
Y29240D01*
X38651D01*
Y29213D01*
X38665D01*
Y29199D01*
X38678D01*
Y29172D01*
X38692D01*
Y29158D01*
X38705D01*
Y29131D01*
X38719D01*
Y29118D01*
X38732D01*
Y29091D01*
X38746D01*
Y29064D01*
X38759D01*
Y29050D01*
X38773D01*
Y29023D01*
X38786D01*
Y29009D01*
X38800D01*
Y28982D01*
X38814D01*
Y28969D01*
X38827D01*
Y28955D01*
X38841D01*
Y28915D01*
X38854D01*
Y28901D01*
X38868D01*
Y28888D01*
X38881D01*
Y28860D01*
X38895D01*
Y28847D01*
X38908D01*
Y28820D01*
X38922D01*
Y28806D01*
X38935D01*
Y28779D01*
X38949D01*
Y28752D01*
X38963D01*
Y28739D01*
X38976D01*
Y28711D01*
X38990D01*
Y28698D01*
X39003D01*
Y28671D01*
X39017D01*
Y28657D01*
X39030D01*
Y28617D01*
X39003D01*
Y28644D01*
X38976D01*
Y28657D01*
X38949D01*
Y28671D01*
X38935D01*
Y28684D01*
X38908D01*
Y28698D01*
X38895D01*
Y28711D01*
X38868D01*
Y28725D01*
X38854D01*
Y28739D01*
X38827D01*
Y28752D01*
X38814D01*
Y28766D01*
X38786D01*
Y28779D01*
X38759D01*
Y28793D01*
X38746D01*
Y28806D01*
X38719D01*
Y28820D01*
X38705D01*
Y28833D01*
X38678D01*
Y28847D01*
X38665D01*
Y28860D01*
X38637D01*
Y28874D01*
X38610D01*
Y28888D01*
X38597D01*
Y28901D01*
X38570D01*
Y28915D01*
X38556D01*
Y28928D01*
X38529D01*
Y28942D01*
X38516D01*
Y28955D01*
X38489D01*
Y28969D01*
X38461D01*
Y28982D01*
X38448D01*
Y28996D01*
X38434D01*
Y29009D01*
X38407D01*
Y29023D01*
X38394D01*
Y29036D01*
X38367D01*
Y29050D01*
X38353D01*
Y29064D01*
X38326D01*
Y29077D01*
X38299D01*
Y29091D01*
X38285D01*
Y29104D01*
X38258D01*
Y29118D01*
X38245D01*
Y29131D01*
X38218D01*
Y29145D01*
X38204D01*
Y29158D01*
X38177D01*
Y29172D01*
X38164D01*
Y29185D01*
X38136D01*
Y29199D01*
X38109D01*
Y29213D01*
X38096D01*
Y29226D01*
X38069D01*
Y29240D01*
X38055D01*
Y29253D01*
X38028D01*
Y29267D01*
X38015D01*
Y29280D01*
X37987D01*
Y29294D01*
X37960D01*
Y29307D01*
X37947D01*
Y29321D01*
X37920D01*
Y29334D01*
X37906D01*
Y29348D01*
X37893D01*
Y29361D01*
X37866D01*
Y29375D01*
X37852D01*
Y29389D01*
X37825D01*
Y29402D01*
X37798D01*
Y29416D01*
X37784D01*
Y29429D01*
X37757D01*
Y29443D01*
X37744D01*
Y29456D01*
X37717D01*
Y29470D01*
X37703D01*
Y29483D01*
X37676D01*
Y29497D01*
X37649D01*
Y29510D01*
X37635D01*
Y29524D01*
X37608D01*
Y29537D01*
X37595D01*
Y29551D01*
X37568D01*
Y29565D01*
X37554D01*
Y29578D01*
X37527D01*
Y29592D01*
X37514D01*
Y29605D01*
X37486D01*
Y29619D01*
X37459D01*
Y29632D01*
X37446D01*
Y29646D01*
X37419D01*
Y29659D01*
X37405D01*
Y29673D01*
X37378D01*
Y29686D01*
X37365D01*
Y29700D01*
X37338D01*
Y29714D01*
X37324D01*
Y29727D01*
X37297D01*
Y29741D01*
X37283D01*
Y29754D01*
X37256D01*
Y29768D01*
X37243D01*
Y29781D01*
X37216D01*
Y29795D01*
X37202D01*
Y29808D01*
X37175D01*
Y29822D01*
X37148D01*
Y29835D01*
X37134D01*
Y29849D01*
X37107D01*
Y29862D01*
X37094D01*
Y29876D01*
X37067D01*
Y29890D01*
X37053D01*
Y29903D01*
X37026D01*
Y29917D01*
X36999D01*
Y29930D01*
X36985D01*
Y29944D01*
X36958D01*
Y29957D01*
X36945D01*
Y29971D01*
X36918D01*
Y29984D01*
X36904D01*
Y29998D01*
X36877D01*
Y30011D01*
X36850D01*
Y30025D01*
X36836D01*
Y30039D01*
X36809D01*
Y30052D01*
X36796D01*
Y30066D01*
X36782D01*
Y30079D01*
X36755D01*
Y30093D01*
X36728D01*
Y30106D01*
X36715D01*
Y30120D01*
X36688D01*
Y30133D01*
X36674D01*
Y30147D01*
X36647D01*
Y30160D01*
X36620D01*
Y30147D01*
X36593D01*
Y30133D01*
X36579D01*
Y30120D01*
X36552D01*
Y30106D01*
X36539D01*
Y30093D01*
X36511D01*
Y30079D01*
X36484D01*
Y30066D01*
X36471D01*
Y30052D01*
X36457D01*
Y30039D01*
X36430D01*
Y30025D01*
X36417D01*
Y30011D01*
X36390D01*
Y29998D01*
X36363D01*
Y29984D01*
X36349D01*
Y29971D01*
X36322D01*
Y29957D01*
X36308D01*
Y29944D01*
X36281D01*
Y29930D01*
X36268D01*
Y29917D01*
X36241D01*
Y29903D01*
X36214D01*
Y29890D01*
X36200D01*
Y29876D01*
X36173D01*
Y29862D01*
X36159D01*
Y29849D01*
X36132D01*
Y29835D01*
X36119D01*
Y29822D01*
X36092D01*
Y29808D01*
X36065D01*
Y29795D01*
X36051D01*
Y29781D01*
X36024D01*
Y29768D01*
X36010D01*
Y29754D01*
X35983D01*
Y29741D01*
X35970D01*
Y29727D01*
X35943D01*
Y29714D01*
X35916D01*
Y29700D01*
X35902D01*
Y29686D01*
X35889D01*
Y29673D01*
X35861D01*
Y29659D01*
X35848D01*
Y29646D01*
X35821D01*
Y29632D01*
X35807D01*
Y29619D01*
X35780D01*
Y29605D01*
X35753D01*
Y29592D01*
X35740D01*
Y29578D01*
X35712D01*
Y29565D01*
X35699D01*
Y29551D01*
X35672D01*
Y29537D01*
X35658D01*
Y29524D01*
X35631D01*
Y29510D01*
X35618D01*
Y29497D01*
X35591D01*
Y29483D01*
X35564D01*
Y29470D01*
X35550D01*
Y29456D01*
X35523D01*
Y29443D01*
X35509D01*
Y29429D01*
X35482D01*
Y29416D01*
X35469D01*
Y29402D01*
X35442D01*
Y29389D01*
X35415D01*
Y29375D01*
X35401D01*
Y29361D01*
X35374D01*
Y29348D01*
X35360D01*
Y29334D01*
X35347D01*
Y29321D01*
X35320D01*
Y29307D01*
X35306D01*
Y29294D01*
X35279D01*
Y29280D01*
X35252D01*
Y29267D01*
X35239D01*
Y29253D01*
X35211D01*
Y29240D01*
X35198D01*
Y29226D01*
X35171D01*
Y29213D01*
X35157D01*
Y29199D01*
X35130D01*
Y29185D01*
X35103D01*
Y29172D01*
X35090D01*
Y29158D01*
X35062D01*
Y29145D01*
X35049D01*
Y29131D01*
X35022D01*
Y29118D01*
X35008D01*
Y29104D01*
X34981D01*
Y29091D01*
X34968D01*
Y29077D01*
X34941D01*
Y29064D01*
X34914D01*
Y29050D01*
X34900D01*
Y29036D01*
X34873D01*
Y29023D01*
X34859D01*
Y29009D01*
X34832D01*
Y28996D01*
X34819D01*
Y28982D01*
X34805D01*
Y28969D01*
X34765D01*
Y28955D01*
X34751D01*
Y28942D01*
X34738D01*
Y28928D01*
X34710D01*
Y28915D01*
X34697D01*
Y28901D01*
X34670D01*
Y28888D01*
X34656D01*
Y28874D01*
X34629D01*
Y28860D01*
X34602D01*
Y28847D01*
X34589D01*
Y28833D01*
X34561D01*
Y28820D01*
X34548D01*
Y28806D01*
X34521D01*
Y28793D01*
X34507D01*
Y28779D01*
X34480D01*
Y28766D01*
X34453D01*
Y28752D01*
X34440D01*
Y28739D01*
X34413D01*
Y28725D01*
X34399D01*
Y28711D01*
X34372D01*
Y28698D01*
X34358D01*
Y28684D01*
X34331D01*
Y28671D01*
X34318D01*
Y28657D01*
X34291D01*
Y28644D01*
X34264D01*
Y28617D01*
X34236D01*
Y28657D01*
X34250D01*
Y28671D01*
X34264D01*
Y28698D01*
X34277D01*
Y28711D01*
X34291D01*
Y28739D01*
X34304D01*
Y28752D01*
X34318D01*
Y28779D01*
X34331D01*
Y28806D01*
X34345D01*
Y28820D01*
X34358D01*
Y28847D01*
X34372D01*
Y28860D01*
X34385D01*
Y28888D01*
X34399D01*
Y28901D01*
X34413D01*
Y28915D01*
X34426D01*
Y28955D01*
X34440D01*
Y28969D01*
X34453D01*
Y28982D01*
X34467D01*
Y29009D01*
X34480D01*
Y29023D01*
X34494D01*
Y29050D01*
X34507D01*
Y29064D01*
X34521D01*
Y29091D01*
X34534D01*
Y29118D01*
X34548D01*
Y29131D01*
X34561D01*
Y29158D01*
X34575D01*
Y29172D01*
X34589D01*
Y29199D01*
X34602D01*
Y29213D01*
X34616D01*
Y29240D01*
X34629D01*
Y29267D01*
X34643D01*
Y29280D01*
X34656D01*
Y29307D01*
X34670D01*
Y29321D01*
X34683D01*
Y29348D01*
X34697D01*
Y29361D01*
X34710D01*
Y29389D01*
X34724D01*
Y29402D01*
X34738D01*
Y29429D01*
X34751D01*
Y29456D01*
X34765D01*
Y29470D01*
X34778D01*
Y29497D01*
X34792D01*
Y29510D01*
X34805D01*
Y29524D01*
X34819D01*
Y29551D01*
X34832D01*
Y29578D01*
X34846D01*
Y29605D01*
X34859D01*
Y29619D01*
X34873D01*
Y29632D01*
X34886D01*
Y29659D01*
X34900D01*
Y29673D01*
X34914D01*
Y29700D01*
X34927D01*
Y29714D01*
X34941D01*
Y29741D01*
X34954D01*
Y29768D01*
X34968D01*
Y29781D01*
X34981D01*
Y29808D01*
X34995D01*
Y29822D01*
X35008D01*
Y29849D01*
X35022D01*
Y29862D01*
X35035D01*
Y29890D01*
X35049D01*
Y29903D01*
X35062D01*
Y29930D01*
X35076D01*
Y29957D01*
X35090D01*
Y29971D01*
X35103D01*
Y29998D01*
X35117D01*
Y30011D01*
X35130D01*
Y30025D01*
X35144D01*
Y30052D01*
X35157D01*
Y30079D01*
X35171D01*
Y30106D01*
X35184D01*
Y30120D01*
X35198D01*
Y30147D01*
X35211D01*
Y30160D01*
X35225D01*
Y30174D01*
X35239D01*
Y30201D01*
X35252D01*
Y30228D01*
X35266D01*
Y30242D01*
X35279D01*
Y30269D01*
X35293D01*
Y30282D01*
X35306D01*
Y30309D01*
X35320D01*
Y30323D01*
X35333D01*
Y30350D01*
X35347D01*
Y30364D01*
X35360D01*
Y30391D01*
X35374D01*
Y30418D01*
X35387D01*
Y30431D01*
X35401D01*
Y30458D01*
X35415D01*
Y30472D01*
X35428D01*
Y30499D01*
X35442D01*
Y30512D01*
X35455D01*
Y30540D01*
X35469D01*
Y30553D01*
X35482D01*
Y30580D01*
X35496D01*
Y30607D01*
X35509D01*
Y30621D01*
X35523D01*
Y30648D01*
X35536D01*
Y30661D01*
X35550D01*
Y30689D01*
X35564D01*
Y30702D01*
X35577D01*
Y30729D01*
X35591D01*
Y30756D01*
X35604D01*
Y30770D01*
X35618D01*
Y30783D01*
X35631D01*
Y30810D01*
X35645D01*
Y30824D01*
X35658D01*
Y30851D01*
X35672D01*
Y30865D01*
X35685D01*
Y30892D01*
X35699D01*
Y30919D01*
X35712D01*
Y30932D01*
X35726D01*
Y30959D01*
X35740D01*
Y30973D01*
X35753D01*
Y31000D01*
X35767D01*
Y31054D01*
X35753D01*
Y31068D01*
X35740D01*
Y31081D01*
X35726D01*
Y31108D01*
X35712D01*
Y31122D01*
X35699D01*
Y31149D01*
X35685D01*
Y31176D01*
X35672D01*
Y31190D01*
X35658D01*
Y31217D01*
X35645D01*
Y31230D01*
X35631D01*
Y31257D01*
X35618D01*
Y31271D01*
X35604D01*
Y31298D01*
X35591D01*
Y31325D01*
X35577D01*
Y31339D01*
X35564D01*
Y31366D01*
X35550D01*
Y31379D01*
X35536D01*
Y31406D01*
X35523D01*
Y31420D01*
X35509D01*
Y31447D01*
X35496D01*
Y31474D01*
X35482D01*
Y31488D01*
X35469D01*
Y31515D01*
X35455D01*
Y31528D01*
X35442D01*
Y31542D01*
X35428D01*
Y31569D01*
X35415D01*
Y31582D01*
X35401D01*
Y31609D01*
X35387D01*
Y31636D01*
X35374D01*
Y31650D01*
X35360D01*
Y31677D01*
X35347D01*
Y31691D01*
X35333D01*
Y31718D01*
X35320D01*
Y31731D01*
X35306D01*
Y31758D01*
X35293D01*
Y31772D01*
X35279D01*
Y31799D01*
X35266D01*
Y31826D01*
X35252D01*
Y31840D01*
X35239D01*
Y31867D01*
X35225D01*
Y31880D01*
X35211D01*
Y31907D01*
X35198D01*
Y31921D01*
X35184D01*
Y31934D01*
X35171D01*
Y31975D01*
X35157D01*
Y31989D01*
X35144D01*
Y32016D01*
X35130D01*
Y32029D01*
X35117D01*
Y32043D01*
X35103D01*
Y32070D01*
X35090D01*
Y32083D01*
X35076D01*
Y32124D01*
X35062D01*
Y32137D01*
X35049D01*
Y32151D01*
X35035D01*
Y32178D01*
X35022D01*
Y32192D01*
X35008D01*
Y32219D01*
X34995D01*
Y32232D01*
X34981D01*
Y32259D01*
X34968D01*
Y32286D01*
X34954D01*
Y32300D01*
X34941D01*
Y32327D01*
X34927D01*
Y32341D01*
X34914D01*
Y32368D01*
X34900D01*
Y32381D01*
X34886D01*
Y32408D01*
X34873D01*
Y32422D01*
X34859D01*
Y32449D01*
X34846D01*
Y32476D01*
X34832D01*
Y32490D01*
X34819D01*
Y32517D01*
X34805D01*
Y32530D01*
X34792D01*
Y32557D01*
X34778D01*
Y32571D01*
X34765D01*
Y32584D01*
X34751D01*
Y32625D01*
X34738D01*
Y32639D01*
X34724D01*
Y32652D01*
X34710D01*
Y32679D01*
X34697D01*
Y32693D01*
X34683D01*
Y32720D01*
X34670D01*
Y32733D01*
X34656D01*
Y32760D01*
X34643D01*
Y32787D01*
X34629D01*
Y32801D01*
X34616D01*
Y32828D01*
X34602D01*
Y32842D01*
X34589D01*
Y32869D01*
X34575D01*
Y32882D01*
X34561D01*
Y32909D01*
X34548D01*
Y32936D01*
X34534D01*
Y32950D01*
X34521D01*
Y32977D01*
X34507D01*
Y32991D01*
X34494D01*
Y33018D01*
X34480D01*
Y33031D01*
X34467D01*
Y33058D01*
X34453D01*
Y33085D01*
X34440D01*
Y33099D01*
X34426D01*
Y33126D01*
X34413D01*
Y33140D01*
X34399D01*
Y33167D01*
X34385D01*
Y33180D01*
X34372D01*
Y33194D01*
X34358D01*
Y33221D01*
X34345D01*
Y33248D01*
X34331D01*
Y33261D01*
X34318D01*
Y33289D01*
X34304D01*
Y33302D01*
X34291D01*
Y33329D01*
X34277D01*
Y33343D01*
X34264D01*
Y33370D01*
X34250D01*
Y33383D01*
X34236D01*
Y33424D01*
X34264D01*
Y33410D01*
X34277D01*
Y33397D01*
X34291D01*
Y33383D01*
X34318D01*
Y33370D01*
X34331D01*
Y33356D01*
X34358D01*
Y33343D01*
X34385D01*
Y33329D01*
X34399D01*
Y33316D01*
X34426D01*
Y33302D01*
X34440D01*
Y33289D01*
X34467D01*
Y33275D01*
X34480D01*
Y33261D01*
X34507D01*
Y33248D01*
X34534D01*
Y33234D01*
X34548D01*
Y33221D01*
X34575D01*
Y33207D01*
X34589D01*
Y33194D01*
X34616D01*
Y33180D01*
X34629D01*
Y33167D01*
X34656D01*
Y33153D01*
X34683D01*
Y33140D01*
X34697D01*
Y33126D01*
X34724D01*
Y33112D01*
X34738D01*
Y33099D01*
X34751D01*
Y33085D01*
X34778D01*
Y33072D01*
X34792D01*
Y33058D01*
X34819D01*
Y33045D01*
X34832D01*
Y33031D01*
X34859D01*
Y33018D01*
X34886D01*
Y33004D01*
X34900D01*
Y32991D01*
X34927D01*
Y32977D01*
X34941D01*
Y32964D01*
X34968D01*
Y32950D01*
X34981D01*
Y32936D01*
X35008D01*
Y32923D01*
X35035D01*
Y32909D01*
X35049D01*
Y32896D01*
X35076D01*
Y32882D01*
X35090D01*
Y32869D01*
X35117D01*
Y32855D01*
X35130D01*
Y32842D01*
X35157D01*
Y32828D01*
X35184D01*
Y32815D01*
X35198D01*
Y32801D01*
X35225D01*
Y32787D01*
X35239D01*
Y32774D01*
X35266D01*
Y32760D01*
X35279D01*
Y32747D01*
X35306D01*
Y32733D01*
X35333D01*
Y32720D01*
X35347D01*
Y32706D01*
X35360D01*
Y32693D01*
X35387D01*
Y32679D01*
X35401D01*
Y32666D01*
X35428D01*
Y32652D01*
X35442D01*
Y32639D01*
X35469D01*
Y32625D01*
X35496D01*
Y32611D01*
X35509D01*
Y32598D01*
X35536D01*
Y32584D01*
X35550D01*
Y32571D01*
X35577D01*
Y32557D01*
X35591D01*
Y32544D01*
X35618D01*
Y32530D01*
X35645D01*
Y32517D01*
X35658D01*
Y32503D01*
X35685D01*
Y32490D01*
X35699D01*
Y32476D01*
X35726D01*
Y32462D01*
X35740D01*
Y32449D01*
X35767D01*
Y32435D01*
X35780D01*
Y32422D01*
X35807D01*
Y32408D01*
X35834D01*
Y32395D01*
X35848D01*
Y32381D01*
X35875D01*
Y32368D01*
X35889D01*
Y32354D01*
X35902D01*
Y32341D01*
X35929D01*
Y32327D01*
X35943D01*
Y32314D01*
X35983D01*
Y32300D01*
X35997D01*
Y32286D01*
X36010D01*
Y32273D01*
X36037D01*
Y32259D01*
X36051D01*
Y32246D01*
X36078D01*
Y32232D01*
X36092D01*
Y32219D01*
X36119D01*
Y32205D01*
X36146D01*
Y32192D01*
X36159D01*
Y32178D01*
X36186D01*
Y32165D01*
X36200D01*
Y32151D01*
X36227D01*
Y32137D01*
X36241D01*
Y32124D01*
X36268D01*
Y32110D01*
X36295D01*
Y32097D01*
X36308D01*
Y32083D01*
X36335D01*
Y32070D01*
X36349D01*
Y32056D01*
X36376D01*
Y32043D01*
X36390D01*
Y32029D01*
X36417D01*
Y32016D01*
X36430D01*
Y32002D01*
X36444D01*
Y31989D01*
X36484D01*
Y31975D01*
X36498D01*
Y31961D01*
X36525D01*
Y31948D01*
X36539D01*
Y31934D01*
X36552D01*
Y31921D01*
X36579D01*
Y31907D01*
X36593D01*
Y31894D01*
X36674D01*
Y31907D01*
X36688D01*
Y31921D01*
X36715D01*
Y31934D01*
X36728D01*
Y31948D01*
X36742D01*
Y31961D01*
X36769D01*
Y31975D01*
X36782D01*
Y31989D01*
X36823D01*
Y32002D01*
X36836D01*
Y32016D01*
X36850D01*
Y32029D01*
X36877D01*
Y32043D01*
X36891D01*
Y32056D01*
X36918D01*
Y32070D01*
X36931D01*
Y32083D01*
X36958D01*
Y32097D01*
X36972D01*
Y32110D01*
X36999D01*
Y32124D01*
X37026D01*
Y32137D01*
X37040D01*
Y32151D01*
X37067D01*
Y32165D01*
X37080D01*
Y32178D01*
X37107D01*
Y32192D01*
X37121D01*
Y32205D01*
X37148D01*
Y32219D01*
X37175D01*
Y32232D01*
X37189D01*
Y32246D01*
X37216D01*
Y32259D01*
X37229D01*
Y32273D01*
X37256D01*
Y32286D01*
X37270D01*
Y32300D01*
X37283D01*
Y32314D01*
X37324D01*
Y32327D01*
X37338D01*
Y32341D01*
X37365D01*
Y32354D01*
X37378D01*
Y32368D01*
X37392D01*
Y32381D01*
X37419D01*
Y32395D01*
X37432D01*
Y32408D01*
X37459D01*
Y32422D01*
X37486D01*
Y32435D01*
X37500D01*
Y32449D01*
X37527D01*
Y32462D01*
X37541D01*
Y32476D01*
X37568D01*
Y32490D01*
X37581D01*
Y32503D01*
X37608D01*
Y32517D01*
X37622D01*
Y32530D01*
X37649D01*
Y32544D01*
X37676D01*
Y32557D01*
X37690D01*
Y32571D01*
X37717D01*
Y32584D01*
X37730D01*
Y32598D01*
X37757D01*
Y32611D01*
X37771D01*
Y32625D01*
X37798D01*
Y32639D01*
X37825D01*
Y32652D01*
X37839D01*
Y32666D01*
X37866D01*
Y32679D01*
X37879D01*
Y32693D01*
X37906D01*
Y32706D01*
X37920D01*
Y32720D01*
X37933D01*
Y32733D01*
X37960D01*
Y32747D01*
X37987D01*
Y32760D01*
X38001D01*
Y32774D01*
X38028D01*
Y32787D01*
X38042D01*
Y32801D01*
X38069D01*
Y32815D01*
X38082D01*
Y32828D01*
X38109D01*
Y32842D01*
X38136D01*
Y32855D01*
X38150D01*
Y32869D01*
X38177D01*
Y32882D01*
X38191D01*
Y32896D01*
X38218D01*
Y32909D01*
X38231D01*
Y32923D01*
X38258D01*
Y32936D01*
X38285D01*
Y32950D01*
X38299D01*
Y32964D01*
X38326D01*
Y32977D01*
X38340D01*
Y32991D01*
X38367D01*
Y33004D01*
X38380D01*
Y33018D01*
X38407D01*
Y33031D01*
X38434D01*
Y33045D01*
X38448D01*
Y33058D01*
X38475D01*
Y33072D01*
X38489D01*
Y33085D01*
X38516D01*
Y33099D01*
X38529D01*
Y33112D01*
X38543D01*
Y33126D01*
X38570D01*
Y33140D01*
X38583D01*
Y33153D01*
X38610D01*
Y33167D01*
X38637D01*
Y33180D01*
X38651D01*
Y33194D01*
X38678D01*
Y33207D01*
X38692D01*
Y33221D01*
X38719D01*
Y33234D01*
X38732D01*
Y33248D01*
X38759D01*
Y33261D01*
X38786D01*
Y33275D01*
X38800D01*
Y33289D01*
X38827D01*
Y33302D01*
X38841D01*
Y33316D01*
X38868D01*
Y33329D01*
X38881D01*
Y33343D01*
X38908D01*
Y33356D01*
X38935D01*
Y33370D01*
X38949D01*
Y33383D01*
X38976D01*
Y33397D01*
X38990D01*
Y33410D01*
X39003D01*
Y33424D01*
X39030D01*
Y33383D01*
D02*
G37*
G36*
X38312Y31393D02*
X38367D01*
Y31379D01*
X38421D01*
Y31366D01*
X38502D01*
Y31352D01*
X38543D01*
Y31339D01*
X38624D01*
Y31325D01*
X38678D01*
Y31311D01*
X38746D01*
Y31298D01*
X38814D01*
Y31284D01*
X38854D01*
Y31271D01*
X38949D01*
Y31257D01*
X38990D01*
Y31244D01*
X39071D01*
Y31230D01*
X39125D01*
Y31217D01*
X39166D01*
Y31203D01*
X39260D01*
Y31190D01*
X39301D01*
Y31176D01*
X39382D01*
Y31163D01*
X39423D01*
Y31149D01*
X39491D01*
Y31135D01*
X39572D01*
Y31122D01*
X39613D01*
Y31108D01*
X39707D01*
Y31095D01*
X39748D01*
Y31081D01*
X39829D01*
Y31068D01*
X39870D01*
Y31054D01*
X39938D01*
Y31041D01*
X40019D01*
Y31014D01*
X39992D01*
Y31000D01*
X39938D01*
Y30986D01*
X39856D01*
Y30973D01*
X39802D01*
Y30959D01*
X39748D01*
Y30946D01*
X39667D01*
Y30932D01*
X39626D01*
Y30919D01*
X39545D01*
Y30905D01*
X39491D01*
Y30892D01*
X39423D01*
Y30878D01*
X39355D01*
Y30865D01*
X39315D01*
Y30851D01*
X39220D01*
Y30838D01*
X39179D01*
Y30824D01*
X39098D01*
Y30810D01*
X39044D01*
Y30797D01*
X38990D01*
Y30783D01*
X38908D01*
Y30770D01*
X38868D01*
Y30756D01*
X38786D01*
Y30743D01*
X38732D01*
Y30729D01*
X38665D01*
Y30716D01*
X38610D01*
Y30702D01*
X38556D01*
Y30689D01*
X38461D01*
Y30675D01*
X38421D01*
Y30661D01*
X38340D01*
Y30648D01*
X38285D01*
Y30634D01*
X38218D01*
Y30648D01*
X38204D01*
Y30675D01*
X38191D01*
Y30702D01*
X38177D01*
Y30716D01*
X38164D01*
Y30743D01*
X38150D01*
Y30756D01*
X38136D01*
Y30783D01*
X38123D01*
Y30797D01*
X38109D01*
Y30810D01*
X38096D01*
Y30838D01*
X38082D01*
Y30865D01*
X38069D01*
Y30892D01*
X38055D01*
Y30905D01*
X38042D01*
Y30919D01*
X38028D01*
Y30946D01*
X38015D01*
Y30959D01*
X38001D01*
Y30986D01*
X37987D01*
Y31014D01*
X37974D01*
Y31041D01*
X37987D01*
Y31054D01*
X38001D01*
Y31081D01*
X38015D01*
Y31095D01*
X38028D01*
Y31122D01*
X38042D01*
Y31135D01*
X38055D01*
Y31149D01*
X38069D01*
Y31190D01*
X38082D01*
Y31203D01*
X38096D01*
Y31230D01*
X38109D01*
Y31244D01*
X38123D01*
Y31271D01*
X38136D01*
Y31284D01*
X38150D01*
Y31298D01*
X38164D01*
Y31339D01*
X38177D01*
Y31352D01*
X38191D01*
Y31366D01*
X38204D01*
Y31393D01*
X38218D01*
Y31406D01*
X38312D01*
Y31393D01*
D02*
G37*
G36*
X35049D02*
X35062D01*
Y31366D01*
X35076D01*
Y31352D01*
X35090D01*
Y31339D01*
X35103D01*
Y31311D01*
X35117D01*
Y31284D01*
X35130D01*
Y31271D01*
X35144D01*
Y31244D01*
X35157D01*
Y31230D01*
X35171D01*
Y31203D01*
X35184D01*
Y31190D01*
X35198D01*
Y31163D01*
X35211D01*
Y31135D01*
X35225D01*
Y31122D01*
X35239D01*
Y31095D01*
X35252D01*
Y31081D01*
X35266D01*
Y31054D01*
X35279D01*
Y31041D01*
X35293D01*
Y31000D01*
X35279D01*
Y30986D01*
X35266D01*
Y30959D01*
X35252D01*
Y30946D01*
X35239D01*
Y30919D01*
X35225D01*
Y30905D01*
X35211D01*
Y30878D01*
X35198D01*
Y30851D01*
X35184D01*
Y30838D01*
X35171D01*
Y30810D01*
X35157D01*
Y30797D01*
X35144D01*
Y30783D01*
X35130D01*
Y30756D01*
X35117D01*
Y30743D01*
X35103D01*
Y30716D01*
X35090D01*
Y30702D01*
X35076D01*
Y30675D01*
X35062D01*
Y30648D01*
X35049D01*
Y30634D01*
X34981D01*
Y30648D01*
X34927D01*
Y30661D01*
X34846D01*
Y30675D01*
X34805D01*
Y30689D01*
X34710D01*
Y30702D01*
X34656D01*
Y30716D01*
X34602D01*
Y30729D01*
X34534D01*
Y30743D01*
X34480D01*
Y30756D01*
X34399D01*
Y30770D01*
X34358D01*
Y30783D01*
X34277D01*
Y30797D01*
X34223D01*
Y30810D01*
X34169D01*
Y30824D01*
X34088D01*
Y30838D01*
X34047D01*
Y30851D01*
X33952D01*
Y30865D01*
X33911D01*
Y30878D01*
X33844D01*
Y30892D01*
X33776D01*
Y30905D01*
X33722D01*
Y30919D01*
X33641D01*
Y30932D01*
X33600D01*
Y30946D01*
X33519D01*
Y30959D01*
X33465D01*
Y30973D01*
X33410D01*
Y30986D01*
X33329D01*
Y31000D01*
X33275D01*
Y31014D01*
X33248D01*
Y31041D01*
X33329D01*
Y31054D01*
X33397D01*
Y31068D01*
X33438D01*
Y31081D01*
X33519D01*
Y31095D01*
X33559D01*
Y31108D01*
X33654D01*
Y31122D01*
X33695D01*
Y31135D01*
X33776D01*
Y31149D01*
X33844D01*
Y31163D01*
X33884D01*
Y31176D01*
X33966D01*
Y31190D01*
X34006D01*
Y31203D01*
X34101D01*
Y31217D01*
X34142D01*
Y31230D01*
X34196D01*
Y31244D01*
X34277D01*
Y31257D01*
X34318D01*
Y31271D01*
X34413D01*
Y31284D01*
X34453D01*
Y31298D01*
X34521D01*
Y31311D01*
X34589D01*
Y31325D01*
X34643D01*
Y31339D01*
X34724D01*
Y31352D01*
X34765D01*
Y31366D01*
X34846D01*
Y31379D01*
X34900D01*
Y31393D01*
X34954D01*
Y31406D01*
X35049D01*
Y31393D01*
D02*
G37*
G36*
X36660Y29659D02*
X36674D01*
Y29646D01*
X36701D01*
Y29632D01*
X36715D01*
Y29619D01*
X36742D01*
Y29605D01*
X36769D01*
Y29592D01*
X36782D01*
Y29578D01*
X36809D01*
Y29565D01*
X36823D01*
Y29551D01*
X36850D01*
Y29537D01*
X36864D01*
Y29524D01*
X36891D01*
Y29510D01*
X36918D01*
Y29497D01*
X36931D01*
Y29483D01*
X36958D01*
Y29470D01*
X36972D01*
Y29456D01*
X36999D01*
Y29443D01*
X37013D01*
Y29429D01*
X37026D01*
Y29375D01*
X37013D01*
Y29334D01*
X36999D01*
Y29267D01*
X36985D01*
Y29199D01*
X36972D01*
Y29145D01*
X36958D01*
Y29064D01*
X36945D01*
Y29023D01*
X36931D01*
Y28955D01*
X36918D01*
Y28888D01*
X36904D01*
Y28833D01*
X36891D01*
Y28752D01*
X36877D01*
Y28698D01*
X36864D01*
Y28630D01*
X36850D01*
Y28576D01*
X36836D01*
Y28522D01*
X36823D01*
Y28441D01*
X36809D01*
Y28386D01*
X36796D01*
Y28305D01*
X36782D01*
Y28265D01*
X36769D01*
Y28197D01*
X36755D01*
Y28129D01*
X36742D01*
Y28075D01*
X36728D01*
Y27994D01*
X36715D01*
Y27940D01*
X36701D01*
Y27872D01*
X36688D01*
Y27818D01*
X36674D01*
Y27764D01*
X36660D01*
Y27682D01*
X36647D01*
Y27655D01*
X36620D01*
Y27682D01*
X36606D01*
Y27764D01*
X36593D01*
Y27818D01*
X36579D01*
Y27872D01*
X36566D01*
Y27940D01*
X36552D01*
Y27994D01*
X36539D01*
Y28075D01*
X36525D01*
Y28129D01*
X36511D01*
Y28197D01*
X36498D01*
Y28265D01*
X36484D01*
Y28305D01*
X36471D01*
Y28386D01*
X36457D01*
Y28441D01*
X36444D01*
Y28522D01*
X36430D01*
Y28576D01*
X36417D01*
Y28630D01*
X36403D01*
Y28711D01*
X36390D01*
Y28739D01*
Y28752D01*
X36376D01*
Y28833D01*
X36363D01*
Y28888D01*
X36349D01*
Y28955D01*
X36335D01*
Y29023D01*
X36322D01*
Y29064D01*
X36308D01*
Y29145D01*
X36295D01*
Y29199D01*
X36281D01*
Y29267D01*
X36268D01*
Y29334D01*
X36254D01*
Y29375D01*
X36241D01*
Y29429D01*
X36254D01*
Y29443D01*
X36268D01*
Y29456D01*
X36295D01*
Y29470D01*
X36308D01*
Y29483D01*
X36335D01*
Y29497D01*
X36349D01*
Y29510D01*
X36376D01*
Y29524D01*
X36403D01*
Y29537D01*
X36417D01*
Y29551D01*
X36444D01*
Y29565D01*
X36457D01*
Y29578D01*
X36484D01*
Y29592D01*
X36498D01*
Y29605D01*
X36525D01*
Y29619D01*
X36552D01*
Y29632D01*
X36566D01*
Y29646D01*
X36593D01*
Y29659D01*
X36606D01*
Y29673D01*
X36660D01*
Y29659D01*
D02*
G37*
G36*
X35591Y26883D02*
X35604D01*
Y26870D01*
X35618D01*
Y26843D01*
X35604D01*
Y26585D01*
Y26572D01*
X35428D01*
Y26585D01*
X35415D01*
Y26883D01*
X35442D01*
Y26897D01*
X35591D01*
Y26883D01*
D02*
G37*
G36*
X36701D02*
X36728D01*
Y24649D01*
X36715D01*
Y24595D01*
X36701D01*
Y24527D01*
X36688D01*
Y24500D01*
X36674D01*
Y24473D01*
X36660D01*
Y24446D01*
X36647D01*
Y24419D01*
X36633D01*
Y24392D01*
X36620D01*
Y24378D01*
X36606D01*
Y24365D01*
X36593D01*
Y24351D01*
X36579D01*
Y24337D01*
X36566D01*
Y24324D01*
X36552D01*
Y24310D01*
X36525D01*
Y24297D01*
X36511D01*
Y24283D01*
X36484D01*
Y24270D01*
X36471D01*
Y24256D01*
X36430D01*
Y24243D01*
X36403D01*
Y24229D01*
X36363D01*
Y24216D01*
X36295D01*
Y24202D01*
X36241D01*
Y24189D01*
X36078D01*
Y24202D01*
X36010D01*
Y24216D01*
X35943D01*
Y24229D01*
X35902D01*
Y24243D01*
X35875D01*
Y24256D01*
X35834D01*
Y24283D01*
X35821D01*
Y24432D01*
X35834D01*
Y24446D01*
X35889D01*
Y24432D01*
X35902D01*
Y24419D01*
X35956D01*
Y24405D01*
X35997D01*
Y24392D01*
X36092D01*
Y24378D01*
X36173D01*
Y24392D01*
X36254D01*
Y24405D01*
X36295D01*
Y24419D01*
X36335D01*
Y24432D01*
X36363D01*
Y24446D01*
X36390D01*
Y24459D01*
X36403D01*
Y24473D01*
X36417D01*
Y24486D01*
X36430D01*
Y24500D01*
X36444D01*
Y24514D01*
X36457D01*
Y24527D01*
X36471D01*
Y24568D01*
X36484D01*
Y24581D01*
X36498D01*
Y24635D01*
X36511D01*
Y24690D01*
X36525D01*
Y26057D01*
X36511D01*
Y26071D01*
X35821D01*
Y26247D01*
X35834D01*
Y26260D01*
X35861D01*
Y26247D01*
X36498D01*
Y26260D01*
X36525D01*
Y26870D01*
X36539D01*
Y26883D01*
X36552D01*
Y26897D01*
X36701D01*
Y26883D01*
D02*
G37*
G36*
X39288Y26274D02*
X39464D01*
Y26260D01*
X39545D01*
Y26247D01*
X39585D01*
Y26233D01*
X39653D01*
Y26220D01*
X39680D01*
Y26206D01*
X39734D01*
Y26193D01*
X39761D01*
Y26179D01*
X39802D01*
Y26166D01*
X39843D01*
Y26152D01*
X39870D01*
Y26139D01*
X39910D01*
Y26125D01*
X39924D01*
Y26111D01*
X39951D01*
Y26071D01*
X39938D01*
Y26044D01*
X39924D01*
Y26017D01*
X39910D01*
Y25976D01*
X39897D01*
Y25949D01*
X39883D01*
Y25935D01*
X39843D01*
Y25949D01*
X39829D01*
Y25963D01*
X39802D01*
Y25976D01*
X39761D01*
Y25990D01*
X39734D01*
Y26003D01*
X39694D01*
Y26017D01*
X39653D01*
Y26030D01*
X39626D01*
Y26044D01*
X39558D01*
Y26057D01*
X39518D01*
Y26071D01*
X39423D01*
Y26084D01*
X39084D01*
Y26071D01*
X39003D01*
Y26057D01*
X38976D01*
Y26044D01*
X38922D01*
Y26030D01*
X38895D01*
Y26017D01*
X38868D01*
Y26003D01*
X38841D01*
Y25990D01*
X38827D01*
Y25976D01*
X38800D01*
Y25963D01*
X38786D01*
Y25949D01*
X38773D01*
Y25935D01*
X38759D01*
Y25922D01*
X38746D01*
Y25908D01*
X38732D01*
Y25895D01*
X38719D01*
Y25881D01*
X38705D01*
Y25854D01*
X38692D01*
Y25841D01*
X38678D01*
Y25814D01*
X38665D01*
Y25800D01*
X38651D01*
Y25759D01*
X38637D01*
Y25732D01*
X38624D01*
Y25692D01*
X38610D01*
Y25610D01*
X38597D01*
Y25543D01*
X38583D01*
Y25434D01*
X38597D01*
Y25407D01*
X38637D01*
Y25421D01*
X38705D01*
Y25434D01*
X38759D01*
Y25448D01*
X38827D01*
Y25461D01*
X38935D01*
Y25475D01*
X39030D01*
Y25489D01*
X39423D01*
Y25475D01*
X39491D01*
Y25461D01*
X39572D01*
Y25448D01*
X39626D01*
Y25434D01*
X39653D01*
Y25421D01*
X39707D01*
Y25407D01*
X39734D01*
Y25394D01*
X39775D01*
Y25380D01*
X39802D01*
Y25367D01*
X39816D01*
Y25353D01*
X39843D01*
Y25340D01*
X39856D01*
Y25326D01*
X39883D01*
Y25312D01*
X39910D01*
Y25299D01*
X39924D01*
Y25285D01*
X39938D01*
Y25272D01*
X39951D01*
Y25258D01*
X39978D01*
Y25231D01*
X39992D01*
Y25218D01*
X40005D01*
Y25204D01*
X40019D01*
Y25191D01*
X40032D01*
Y25164D01*
X40046D01*
Y25136D01*
X40059D01*
Y25123D01*
X40073D01*
Y25096D01*
X40086D01*
Y25069D01*
X40100D01*
Y25028D01*
X40114D01*
Y24974D01*
X40127D01*
Y24906D01*
X40141D01*
Y24744D01*
X40127D01*
Y24690D01*
X40114D01*
Y24622D01*
X40100D01*
Y24595D01*
X40086D01*
Y24568D01*
X40073D01*
Y24541D01*
X40059D01*
Y24514D01*
X40046D01*
Y24486D01*
X40032D01*
Y24473D01*
X40019D01*
Y24459D01*
X40005D01*
Y24446D01*
X39992D01*
Y24432D01*
X39978D01*
Y24405D01*
X39951D01*
Y24392D01*
X39938D01*
Y24378D01*
X39924D01*
Y24365D01*
X39910D01*
Y24351D01*
X39883D01*
Y24337D01*
X39870D01*
Y24324D01*
X39843D01*
Y24310D01*
X39829D01*
Y24297D01*
X39802D01*
Y24283D01*
X39775D01*
Y24270D01*
X39748D01*
Y24256D01*
X39707D01*
Y24243D01*
X39680D01*
Y24229D01*
X39640D01*
Y24216D01*
X39572D01*
Y24202D01*
X39518D01*
Y24189D01*
X39179D01*
Y24202D01*
X39125D01*
Y24216D01*
X39071D01*
Y24229D01*
X39030D01*
Y24243D01*
X39003D01*
Y24256D01*
X38949D01*
Y24270D01*
X38935D01*
Y24283D01*
X38895D01*
Y24297D01*
X38881D01*
Y24310D01*
X38854D01*
Y24324D01*
X38827D01*
Y24337D01*
X38814D01*
Y24351D01*
X38786D01*
Y24365D01*
X38773D01*
Y24378D01*
X38759D01*
Y24392D01*
X38732D01*
Y24405D01*
X38719D01*
Y24419D01*
X38705D01*
Y24432D01*
X38692D01*
Y24446D01*
X38678D01*
Y24459D01*
X38665D01*
Y24473D01*
X38651D01*
Y24486D01*
X38637D01*
Y24500D01*
X38624D01*
Y24514D01*
X38610D01*
Y24527D01*
X38583D01*
Y24229D01*
X38407D01*
Y24243D01*
X38394D01*
Y25624D01*
X38407D01*
Y25692D01*
X38421D01*
Y25773D01*
X38434D01*
Y25800D01*
X38448D01*
Y25841D01*
X38461D01*
Y25868D01*
X38475D01*
Y25895D01*
X38489D01*
Y25935D01*
X38502D01*
Y25949D01*
X38516D01*
Y25976D01*
X38529D01*
Y25990D01*
X38543D01*
Y26003D01*
X38556D01*
Y26030D01*
X38570D01*
Y26044D01*
X38583D01*
Y26057D01*
X38597D01*
Y26071D01*
X38610D01*
Y26084D01*
X38624D01*
Y26098D01*
X38651D01*
Y26111D01*
X38665D01*
Y26125D01*
X38678D01*
Y26139D01*
X38705D01*
Y26152D01*
X38719D01*
Y26166D01*
X38746D01*
Y26179D01*
X38773D01*
Y26193D01*
X38800D01*
Y26206D01*
X38841D01*
Y26220D01*
X38868D01*
Y26233D01*
X38922D01*
Y26247D01*
X38963D01*
Y26260D01*
X39044D01*
Y26274D01*
X39179D01*
Y26288D01*
X39288D01*
Y26274D01*
D02*
G37*
G36*
X38136Y26233D02*
X38150D01*
Y24229D01*
X37960D01*
Y24243D01*
X37947D01*
Y25191D01*
X37933D01*
Y25299D01*
X37920D01*
Y25340D01*
X37906D01*
Y25407D01*
X37893D01*
Y25434D01*
X37879D01*
Y25461D01*
X37866D01*
Y25502D01*
X37852D01*
Y25516D01*
X37839D01*
Y25556D01*
X37825D01*
Y25570D01*
Y25583D01*
X37811D01*
Y25597D01*
X37798D01*
Y25624D01*
X37784D01*
Y25638D01*
X37771D01*
Y25665D01*
X37757D01*
Y25678D01*
X37744D01*
Y25692D01*
X37730D01*
Y25719D01*
X37717D01*
Y25732D01*
X37703D01*
Y25746D01*
X37690D01*
Y25759D01*
X37676D01*
Y25773D01*
X37662D01*
Y25786D01*
X37649D01*
Y25800D01*
X37635D01*
Y25814D01*
X37622D01*
Y25827D01*
X37608D01*
Y25841D01*
X37581D01*
Y25854D01*
X37568D01*
Y25868D01*
X37554D01*
Y25881D01*
X37527D01*
Y25895D01*
X37514D01*
Y25908D01*
X37486D01*
Y25922D01*
X37473D01*
Y25935D01*
X37446D01*
Y25949D01*
X37405D01*
Y25963D01*
X37392D01*
Y25976D01*
X37351D01*
Y25990D01*
X37324D01*
Y26003D01*
X37283D01*
Y26017D01*
X37229D01*
Y26030D01*
X37189D01*
Y26044D01*
X37080D01*
Y26057D01*
X36972D01*
Y26071D01*
X36958D01*
Y26233D01*
X36972D01*
Y26247D01*
X37067D01*
Y26233D01*
X37189D01*
Y26220D01*
X37243D01*
Y26206D01*
X37310D01*
Y26193D01*
X37338D01*
Y26179D01*
X37378D01*
Y26166D01*
X37419D01*
Y26152D01*
X37446D01*
Y26139D01*
X37486D01*
Y26125D01*
X37514D01*
Y26111D01*
X37541D01*
Y26098D01*
X37568D01*
Y26084D01*
X37581D01*
Y26071D01*
X37608D01*
Y26057D01*
X37635D01*
Y26044D01*
X37649D01*
Y26030D01*
X37676D01*
Y26017D01*
X37690D01*
Y26003D01*
X37703D01*
Y25990D01*
X37717D01*
Y25976D01*
X37744D01*
Y25963D01*
X37757D01*
Y25949D01*
X37771D01*
Y25935D01*
X37784D01*
Y25922D01*
X37798D01*
Y25908D01*
X37811D01*
Y25895D01*
X37825D01*
Y25881D01*
X37839D01*
Y25854D01*
X37852D01*
Y25841D01*
X37866D01*
Y25827D01*
X37879D01*
Y25814D01*
X37893D01*
Y25786D01*
X37906D01*
Y25759D01*
X37933D01*
Y25746D01*
X37947D01*
Y26233D01*
X37974D01*
Y26247D01*
X38136D01*
Y26233D01*
D02*
G37*
G36*
X34345D02*
X34440D01*
Y26220D01*
X34480D01*
Y26206D01*
X34521D01*
Y26193D01*
X34561D01*
Y26179D01*
X34602D01*
Y26166D01*
X34629D01*
Y26152D01*
X34643D01*
Y26139D01*
X34683D01*
Y26125D01*
X34710D01*
Y26111D01*
X34724D01*
Y26098D01*
X34751D01*
Y26084D01*
X34765D01*
Y26071D01*
X34792D01*
Y26057D01*
X34805D01*
Y26044D01*
X34832D01*
Y26030D01*
X34846D01*
Y26017D01*
X34859D01*
Y26003D01*
X34873D01*
Y25990D01*
X34886D01*
Y25976D01*
X34900D01*
Y25963D01*
X34914D01*
Y25949D01*
X34927D01*
Y25935D01*
X34941D01*
Y25922D01*
X34954D01*
Y25908D01*
X34968D01*
Y25895D01*
X34981D01*
Y25881D01*
X34995D01*
Y25854D01*
X35008D01*
Y25841D01*
X35022D01*
Y25827D01*
X35035D01*
Y25800D01*
X35049D01*
Y25786D01*
X35062D01*
Y25759D01*
X35076D01*
Y25732D01*
X35090D01*
Y25719D01*
X35103D01*
Y25678D01*
X35117D01*
Y25665D01*
X35130D01*
Y25638D01*
X35144D01*
Y25583D01*
X35157D01*
Y25556D01*
X35171D01*
Y25543D01*
Y25529D01*
Y25502D01*
X35184D01*
Y25475D01*
X35198D01*
Y25394D01*
X35211D01*
Y25285D01*
X35225D01*
Y25136D01*
X35211D01*
Y25028D01*
X35198D01*
Y24960D01*
X35184D01*
Y24920D01*
X35171D01*
Y24866D01*
X35157D01*
Y24839D01*
X35144D01*
Y24798D01*
X35130D01*
Y24771D01*
X35117D01*
Y24744D01*
X35103D01*
Y24717D01*
X35090D01*
Y24690D01*
X35076D01*
Y24662D01*
X35062D01*
Y24649D01*
X35049D01*
Y24622D01*
X35035D01*
Y24608D01*
X35022D01*
Y24581D01*
X35008D01*
Y24568D01*
X34995D01*
Y24554D01*
X34981D01*
Y24527D01*
X34968D01*
Y24514D01*
X34954D01*
Y24500D01*
X34941D01*
Y24486D01*
X34927D01*
Y24473D01*
X34914D01*
Y24459D01*
X34900D01*
Y24446D01*
X34886D01*
Y24432D01*
X34873D01*
Y24419D01*
X34846D01*
Y24405D01*
X34832D01*
Y24392D01*
X34819D01*
Y24378D01*
X34792D01*
Y24365D01*
X34778D01*
Y24351D01*
X34751D01*
Y24337D01*
X34738D01*
Y24324D01*
X34710D01*
Y24310D01*
X34697D01*
Y24297D01*
X34670D01*
Y24283D01*
X34643D01*
Y24270D01*
X34616D01*
Y24256D01*
X34575D01*
Y24243D01*
X34534D01*
Y24229D01*
X34494D01*
Y24216D01*
X34440D01*
Y24202D01*
X34385D01*
Y24189D01*
X34047D01*
Y24202D01*
X33993D01*
Y24216D01*
X33925D01*
Y24229D01*
X33884D01*
Y24243D01*
X33857D01*
Y24256D01*
X33817D01*
Y24270D01*
X33803D01*
Y24283D01*
X33763D01*
Y24297D01*
X33735D01*
Y24310D01*
X33708D01*
Y24324D01*
X33681D01*
Y24337D01*
X33668D01*
Y24351D01*
X33654D01*
Y24365D01*
X33641D01*
Y24378D01*
X33614D01*
Y24392D01*
X33600D01*
Y24405D01*
X33586D01*
Y24419D01*
X33559D01*
Y24432D01*
X33546D01*
Y24446D01*
X33532D01*
Y24459D01*
X33519D01*
Y24473D01*
X33505D01*
Y24486D01*
X33492D01*
Y24500D01*
X33478D01*
Y24514D01*
X33465D01*
Y24527D01*
X33451D01*
Y24541D01*
X33438D01*
Y24554D01*
X33424D01*
Y24595D01*
X33438D01*
Y24608D01*
X33451D01*
Y24622D01*
X33478D01*
Y24649D01*
X33505D01*
Y24662D01*
X33519D01*
Y24676D01*
X33532D01*
Y24690D01*
X33573D01*
Y24676D01*
X33586D01*
Y24649D01*
X33614D01*
Y24622D01*
X33641D01*
Y24608D01*
X33654D01*
Y24581D01*
X33681D01*
Y24568D01*
X33695D01*
Y24554D01*
X33708D01*
Y24541D01*
X33735D01*
Y24527D01*
X33749D01*
Y24514D01*
X33776D01*
Y24500D01*
X33790D01*
Y24486D01*
X33817D01*
Y24473D01*
X33830D01*
Y24459D01*
X33857D01*
Y24446D01*
X33898D01*
Y24432D01*
X33925D01*
Y24419D01*
X33966D01*
Y24405D01*
X34006D01*
Y24392D01*
X34047D01*
Y24378D01*
X34169D01*
Y24365D01*
X34250D01*
Y24378D01*
X34358D01*
Y24392D01*
X34413D01*
Y24405D01*
X34453D01*
Y24419D01*
X34494D01*
Y24432D01*
X34521D01*
Y24446D01*
X34561D01*
Y24459D01*
X34575D01*
Y24473D01*
X34602D01*
Y24486D01*
X34629D01*
Y24500D01*
X34643D01*
Y24514D01*
X34670D01*
Y24527D01*
X34683D01*
Y24541D01*
X34697D01*
Y24554D01*
X34710D01*
Y24568D01*
X34724D01*
Y24581D01*
X34751D01*
Y24608D01*
X34778D01*
Y24635D01*
X34792D01*
Y24649D01*
X34805D01*
Y24662D01*
X34819D01*
Y24676D01*
X34832D01*
Y24690D01*
X34846D01*
Y24717D01*
X34859D01*
Y24730D01*
X34873D01*
Y24757D01*
X34886D01*
Y24784D01*
X34900D01*
Y24798D01*
X34914D01*
Y24839D01*
X34927D01*
Y24852D01*
X34941D01*
Y24906D01*
X34954D01*
Y24933D01*
X34968D01*
Y24974D01*
X34981D01*
Y25042D01*
X34995D01*
Y25096D01*
X35008D01*
Y25353D01*
X34995D01*
Y25407D01*
X34981D01*
Y25475D01*
X34968D01*
Y25516D01*
X34954D01*
Y25543D01*
X34941D01*
Y25583D01*
X34927D01*
Y25597D01*
X34914D01*
Y25638D01*
X34900D01*
Y25665D01*
X34886D01*
Y25678D01*
X34873D01*
Y25705D01*
X34859D01*
Y25719D01*
X34846D01*
Y25746D01*
X34832D01*
Y25759D01*
X34819D01*
Y25786D01*
X34805D01*
Y25800D01*
X34792D01*
Y25814D01*
X34778D01*
Y25827D01*
X34765D01*
Y25841D01*
X34751D01*
Y25854D01*
X34738D01*
Y25868D01*
X34724D01*
Y25881D01*
X34697D01*
Y25895D01*
X34683D01*
Y25908D01*
X34670D01*
Y25922D01*
X34656D01*
Y25935D01*
X34629D01*
Y25949D01*
X34602D01*
Y25963D01*
X34589D01*
Y25976D01*
X34548D01*
Y25990D01*
X34534D01*
Y26003D01*
X34494D01*
Y26017D01*
X34467D01*
Y26030D01*
X34426D01*
Y26044D01*
X34345D01*
Y26057D01*
X34264D01*
Y26071D01*
X34182D01*
Y26057D01*
X34101D01*
Y26044D01*
X34020D01*
Y26030D01*
X33993D01*
Y26017D01*
X33952D01*
Y26003D01*
X33911D01*
Y25990D01*
X33884D01*
Y25976D01*
X33857D01*
Y25963D01*
X33844D01*
Y25949D01*
X33817D01*
Y25935D01*
X33790D01*
Y25922D01*
X33776D01*
Y25908D01*
X33749D01*
Y25895D01*
X33735D01*
Y25881D01*
X33722D01*
Y25868D01*
X33708D01*
Y25854D01*
X33695D01*
Y25841D01*
X33668D01*
Y25827D01*
X33654D01*
Y25814D01*
X33641D01*
Y25800D01*
X33627D01*
Y25786D01*
X33614D01*
Y25773D01*
X33600D01*
Y25759D01*
X33586D01*
Y25746D01*
X33546D01*
Y25773D01*
X33532D01*
Y25786D01*
X33519D01*
Y25800D01*
X33505D01*
Y25814D01*
X33492D01*
Y25827D01*
X33478D01*
Y25841D01*
X33465D01*
Y25854D01*
X33451D01*
Y25868D01*
X33438D01*
Y25908D01*
X33451D01*
Y25922D01*
X33478D01*
Y25935D01*
X33492D01*
Y25949D01*
X33505D01*
Y25963D01*
X33519D01*
Y25976D01*
X33532D01*
Y25990D01*
X33546D01*
Y26003D01*
X33559D01*
Y26017D01*
X33573D01*
Y26030D01*
X33586D01*
Y26044D01*
X33614D01*
Y26057D01*
X33627D01*
Y26071D01*
X33654D01*
Y26084D01*
X33668D01*
Y26098D01*
X33695D01*
Y26111D01*
X33722D01*
Y26125D01*
X33735D01*
Y26139D01*
X33763D01*
Y26152D01*
X33790D01*
Y26166D01*
X33830D01*
Y26179D01*
X33857D01*
Y26193D01*
X33884D01*
Y26206D01*
X33952D01*
Y26220D01*
X33993D01*
Y26233D01*
X34101D01*
Y26247D01*
X34345D01*
Y26233D01*
D02*
G37*
G36*
X32002D02*
X32097D01*
Y26220D01*
X32137D01*
Y26206D01*
X32192D01*
Y26193D01*
X32219D01*
Y26179D01*
X32246D01*
Y26166D01*
X32286D01*
Y26152D01*
X32300D01*
Y26139D01*
X32341D01*
Y26125D01*
X32354D01*
Y26111D01*
X32381D01*
Y26098D01*
X32395D01*
Y26084D01*
X32408D01*
Y26071D01*
X32435D01*
Y26057D01*
X32449D01*
Y26044D01*
X32462D01*
Y26030D01*
X32476D01*
Y26017D01*
X32490D01*
Y26003D01*
X32517D01*
Y25990D01*
X32530D01*
Y25976D01*
X32544D01*
Y25949D01*
X32557D01*
Y25935D01*
X32571D01*
Y25922D01*
X32584D01*
Y25908D01*
X32598D01*
Y25895D01*
X32611D01*
Y25868D01*
X32625D01*
Y25854D01*
X32639D01*
Y25827D01*
X32652D01*
Y25814D01*
X32666D01*
Y25786D01*
X32679D01*
Y25773D01*
X32693D01*
Y25746D01*
X32706D01*
Y25719D01*
X32720D01*
Y25692D01*
X32733D01*
Y25651D01*
X32747D01*
Y25624D01*
X32760D01*
Y25570D01*
X32774D01*
Y25529D01*
X32787D01*
Y25489D01*
X32801D01*
Y25394D01*
X32815D01*
Y25312D01*
X32828D01*
Y25123D01*
X32815D01*
Y25028D01*
X32801D01*
Y24947D01*
X32787D01*
Y24893D01*
X32774D01*
Y24852D01*
X32760D01*
Y24811D01*
X32747D01*
Y24784D01*
X32733D01*
Y24744D01*
X32720D01*
Y24717D01*
X32706D01*
Y24690D01*
X32693D01*
Y24662D01*
X32679D01*
Y24649D01*
X32666D01*
Y24622D01*
X32652D01*
Y24608D01*
X32639D01*
Y24581D01*
X32625D01*
Y24568D01*
X32611D01*
Y24554D01*
X32598D01*
Y24527D01*
X32584D01*
Y24514D01*
X32571D01*
Y24486D01*
X32544D01*
Y24473D01*
X32530D01*
Y24446D01*
X32503D01*
Y24419D01*
X32476D01*
Y24405D01*
X32462D01*
Y24392D01*
X32449D01*
Y24378D01*
X32422D01*
Y24365D01*
X32408D01*
Y24351D01*
X32381D01*
Y24337D01*
X32368D01*
Y24324D01*
X32341D01*
Y24310D01*
X32327D01*
Y24297D01*
X32300D01*
Y24283D01*
X32259D01*
Y24270D01*
X32246D01*
Y24256D01*
X32205D01*
Y24243D01*
X32178D01*
Y24229D01*
X32137D01*
Y24216D01*
X32070D01*
Y24202D01*
X32016D01*
Y24189D01*
X31664D01*
Y24202D01*
X31623D01*
Y24216D01*
X31555D01*
Y24229D01*
X31515D01*
Y24243D01*
X31474D01*
Y24256D01*
X31433D01*
Y24270D01*
X31420D01*
Y24283D01*
X31366D01*
Y24297D01*
X31352D01*
Y24310D01*
X31339D01*
Y24324D01*
X31311D01*
Y24337D01*
X31284D01*
Y24351D01*
X31257D01*
Y24365D01*
X31244D01*
Y24378D01*
X31230D01*
Y24392D01*
X31203D01*
Y24405D01*
X31190D01*
Y24419D01*
X31176D01*
Y24432D01*
X31163D01*
Y24446D01*
X31149D01*
Y24459D01*
X31135D01*
Y24473D01*
X31122D01*
Y24486D01*
X31108D01*
Y24500D01*
X31095D01*
Y24514D01*
X31081D01*
Y24527D01*
X31068D01*
Y24541D01*
X31054D01*
Y24581D01*
X31068D01*
Y24595D01*
X31081D01*
Y24608D01*
X31108D01*
Y24622D01*
X31122D01*
Y24635D01*
X31135D01*
Y24649D01*
X31149D01*
Y24662D01*
X31163D01*
Y24676D01*
X31190D01*
Y24662D01*
X31203D01*
Y24649D01*
X31217D01*
Y24635D01*
X31230D01*
Y24622D01*
X31244D01*
Y24608D01*
X31257D01*
Y24595D01*
X31271D01*
Y24581D01*
X31298D01*
Y24568D01*
X31311D01*
Y24554D01*
X31325D01*
Y24541D01*
X31339D01*
Y24527D01*
X31366D01*
Y24514D01*
X31393D01*
Y24500D01*
X31406D01*
Y24486D01*
X31433D01*
Y24473D01*
X31447D01*
Y24459D01*
X31474D01*
Y24446D01*
X31515D01*
Y24432D01*
X31528D01*
Y24419D01*
X31582D01*
Y24405D01*
X31623D01*
Y24392D01*
X31677D01*
Y24378D01*
X31799D01*
Y24365D01*
X31880D01*
Y24378D01*
X32002D01*
Y24392D01*
X32056D01*
Y24405D01*
X32097D01*
Y24419D01*
X32137D01*
Y24432D01*
X32151D01*
Y24446D01*
X32192D01*
Y24459D01*
X32219D01*
Y24473D01*
X32232D01*
Y24486D01*
X32259D01*
Y24500D01*
X32273D01*
Y24514D01*
X32300D01*
Y24527D01*
X32314D01*
Y24541D01*
X32327D01*
Y24554D01*
X32341D01*
Y24568D01*
X32354D01*
Y24581D01*
X32368D01*
Y24595D01*
X32381D01*
Y24608D01*
X32395D01*
Y24622D01*
X32408D01*
Y24635D01*
X32422D01*
Y24649D01*
X32435D01*
Y24662D01*
X32449D01*
Y24676D01*
X32462D01*
Y24703D01*
X32476D01*
Y24730D01*
X32490D01*
Y24744D01*
X32503D01*
Y24771D01*
X32517D01*
Y24798D01*
X32530D01*
Y24825D01*
X32544D01*
Y24866D01*
X32557D01*
Y24893D01*
X32571D01*
Y24947D01*
X32584D01*
Y24974D01*
X32598D01*
Y25069D01*
X32611D01*
Y25123D01*
X32598D01*
Y25136D01*
X31000D01*
Y25150D01*
X30986D01*
Y25340D01*
X31000D01*
Y25448D01*
X31014D01*
Y25529D01*
X31027D01*
Y25570D01*
X31041D01*
Y25624D01*
X31054D01*
Y25665D01*
X31068D01*
Y25692D01*
X31081D01*
Y25732D01*
X31095D01*
Y25746D01*
X31108D01*
Y25786D01*
X31122D01*
Y25800D01*
X31135D01*
Y25827D01*
X31149D01*
Y25854D01*
X31163D01*
Y25868D01*
X31176D01*
Y25895D01*
X31190D01*
Y25908D01*
X31203D01*
Y25935D01*
X31217D01*
Y25949D01*
X31230D01*
Y25963D01*
X31244D01*
Y25976D01*
X31257D01*
Y25990D01*
X31271D01*
Y26003D01*
X31284D01*
Y26017D01*
X31298D01*
Y26030D01*
X31311D01*
Y26044D01*
X31325D01*
Y26057D01*
X31339D01*
Y26071D01*
X31366D01*
Y26084D01*
X31379D01*
Y26098D01*
X31393D01*
Y26111D01*
X31420D01*
Y26125D01*
X31433D01*
Y26139D01*
X31474D01*
Y26152D01*
X31488D01*
Y26166D01*
X31515D01*
Y26179D01*
X31555D01*
Y26193D01*
X31582D01*
Y26206D01*
X31636D01*
Y26220D01*
X31664D01*
Y26233D01*
X31772D01*
Y26247D01*
X32002D01*
Y26233D01*
D02*
G37*
G36*
X42050Y26992D02*
X42064D01*
Y24229D01*
X41860D01*
Y24839D01*
Y24852D01*
Y25258D01*
X41116D01*
Y25272D01*
X41034D01*
Y25285D01*
X40953D01*
Y25299D01*
X40885D01*
Y25312D01*
X40858D01*
Y25326D01*
X40791D01*
Y25340D01*
X40764D01*
Y25353D01*
X40723D01*
Y25367D01*
X40696D01*
Y25380D01*
X40669D01*
Y25394D01*
X40642D01*
Y25407D01*
X40628D01*
Y25421D01*
X40588D01*
Y25434D01*
X40574D01*
Y25448D01*
X40547D01*
Y25461D01*
X40533D01*
Y25475D01*
X40520D01*
Y25489D01*
X40493D01*
Y25502D01*
X40479D01*
Y25516D01*
X40466D01*
Y25529D01*
X40452D01*
Y25543D01*
X40439D01*
Y25556D01*
X40425D01*
Y25570D01*
X40411D01*
Y25583D01*
X40398D01*
Y25597D01*
X40384D01*
Y25610D01*
X40371D01*
Y25624D01*
X40357D01*
Y25638D01*
X40344D01*
Y25665D01*
X40330D01*
Y25678D01*
X40317D01*
Y25705D01*
X40303D01*
Y25732D01*
X40290D01*
Y25746D01*
X40276D01*
Y25786D01*
X40262D01*
Y25814D01*
X40249D01*
Y25841D01*
X40235D01*
Y25881D01*
X40222D01*
Y25922D01*
X40208D01*
Y26030D01*
X40195D01*
Y26260D01*
X40208D01*
Y26369D01*
X40222D01*
Y26409D01*
X40235D01*
Y26464D01*
X40249D01*
Y26491D01*
X40262D01*
Y26518D01*
X40276D01*
Y26545D01*
X40290D01*
Y26558D01*
X40303D01*
Y26599D01*
X40317D01*
Y26613D01*
X40330D01*
Y26626D01*
X40344D01*
Y26653D01*
X40357D01*
Y26667D01*
X40371D01*
Y26680D01*
X40384D01*
Y26694D01*
X40398D01*
Y26707D01*
X40411D01*
Y26721D01*
X40425D01*
Y26734D01*
X40439D01*
Y26748D01*
X40452D01*
Y26761D01*
X40466D01*
Y26775D01*
X40479D01*
Y26789D01*
X40506D01*
Y26802D01*
X40520D01*
Y26816D01*
X40547D01*
Y26829D01*
X40560D01*
Y26843D01*
X40574D01*
Y26856D01*
X40615D01*
Y26870D01*
X40628D01*
Y26883D01*
X40669D01*
Y26897D01*
X40696D01*
Y26910D01*
X40723D01*
Y26924D01*
X40764D01*
Y26937D01*
X40791D01*
Y26951D01*
X40858D01*
Y26965D01*
X40912D01*
Y26978D01*
X41007D01*
Y26992D01*
X41116D01*
Y27005D01*
X42050D01*
Y26992D01*
D02*
G37*
G36*
X35604Y24229D02*
X35428D01*
Y24243D01*
X35415D01*
Y25394D01*
Y25407D01*
Y26233D01*
X35428D01*
Y26247D01*
X35604D01*
Y24229D01*
D02*
G37*
G36*
X33207Y27100D02*
X33221D01*
Y24256D01*
X33207D01*
Y24229D01*
X33031D01*
Y24243D01*
X33018D01*
Y25651D01*
Y25665D01*
Y27100D01*
X33031D01*
Y27114D01*
X33207D01*
Y27100D01*
D02*
G37*
%LPC*%
G36*
X31755Y20475D02*
X31634D01*
Y20470D01*
X31611D01*
Y20464D01*
X31584D01*
Y20459D01*
X31567D01*
Y20453D01*
X31546D01*
Y20447D01*
X31535D01*
Y20442D01*
X31518D01*
Y20436D01*
X31502D01*
Y20431D01*
X31490D01*
Y20426D01*
X31479D01*
Y20420D01*
X31469D01*
Y20415D01*
X31458D01*
Y20409D01*
X31446D01*
Y20403D01*
X31441D01*
Y20398D01*
X31425D01*
Y20392D01*
X31419D01*
Y20387D01*
X31408D01*
Y20382D01*
X31397D01*
Y20376D01*
X31391D01*
Y20371D01*
X31375D01*
Y20365D01*
X31370D01*
Y20359D01*
X31353D01*
Y20354D01*
X31342D01*
Y20348D01*
X31337D01*
Y20326D01*
X31342D01*
Y20315D01*
X31347D01*
Y20310D01*
X31353D01*
Y20294D01*
X31358D01*
Y20288D01*
X31364D01*
Y20277D01*
X31370D01*
Y20266D01*
X31375D01*
Y20255D01*
X31381D01*
Y20244D01*
X31386D01*
Y20238D01*
X31391D01*
Y20222D01*
X31397D01*
Y20217D01*
X31402D01*
Y20206D01*
X31408D01*
Y20194D01*
X31414D01*
Y20183D01*
X31419D01*
Y20173D01*
X31425D01*
Y20167D01*
X31430D01*
Y20150D01*
X31435D01*
Y20145D01*
X31441D01*
Y20134D01*
X31446D01*
Y20123D01*
X31458D01*
Y20129D01*
X31463D01*
Y20134D01*
X31469D01*
Y20140D01*
X31479D01*
Y20145D01*
X31485D01*
Y20150D01*
X31490D01*
Y20156D01*
X31496D01*
Y20161D01*
X31507D01*
Y20167D01*
X31512D01*
Y20173D01*
X31518D01*
Y20178D01*
X31529D01*
Y20183D01*
X31535D01*
Y20189D01*
X31546D01*
Y20194D01*
X31551D01*
Y20200D01*
X31562D01*
Y20206D01*
X31567D01*
Y20211D01*
X31579D01*
Y20217D01*
X31590D01*
Y20222D01*
X31600D01*
Y20227D01*
X31617D01*
Y20233D01*
X31623D01*
Y20238D01*
X31639D01*
Y20244D01*
X31650D01*
Y20250D01*
X31661D01*
Y20255D01*
X31683D01*
Y20261D01*
X31694D01*
Y20266D01*
X31721D01*
Y20271D01*
X31744D01*
Y20277D01*
X31765D01*
Y20282D01*
X31809D01*
Y20288D01*
X31936D01*
Y20282D01*
X31997D01*
Y20277D01*
X32046D01*
Y20271D01*
X32079D01*
Y20266D01*
X32123D01*
Y20261D01*
X32150D01*
Y20255D01*
X32189D01*
Y20250D01*
X32211D01*
Y20244D01*
X32233D01*
Y20238D01*
X32266D01*
Y20233D01*
X32283D01*
Y20227D01*
X32310D01*
Y20222D01*
X32327D01*
Y20217D01*
X32348D01*
Y20211D01*
X32365D01*
Y20206D01*
X32381D01*
Y20200D01*
X32404D01*
Y20194D01*
X32415D01*
Y20189D01*
X32436D01*
Y20183D01*
X32448D01*
Y20178D01*
X32459D01*
Y20173D01*
X32480D01*
Y20167D01*
X32492D01*
Y20161D01*
X32508D01*
Y20156D01*
X32519D01*
Y20150D01*
X32536D01*
Y20145D01*
X32547D01*
Y20140D01*
X32557D01*
Y20134D01*
X32574D01*
Y20129D01*
X32585D01*
Y20123D01*
X32607D01*
Y20134D01*
X32601D01*
Y20140D01*
X32596D01*
Y20150D01*
X32590D01*
Y20156D01*
X32585D01*
Y20161D01*
X32580D01*
Y20167D01*
X32574D01*
Y20173D01*
X32569D01*
Y20178D01*
X32563D01*
Y20183D01*
X32552D01*
Y20189D01*
X32541D01*
Y20194D01*
X32536D01*
Y20200D01*
X32519D01*
Y20206D01*
X32513D01*
Y20211D01*
X32497D01*
Y20217D01*
X32486D01*
Y20222D01*
X32480D01*
Y20227D01*
X32464D01*
Y20233D01*
X32459D01*
Y20238D01*
X32442D01*
Y20244D01*
X32431D01*
Y20250D01*
X32420D01*
Y20255D01*
X32409D01*
Y20261D01*
X32398D01*
Y20266D01*
X32381D01*
Y20271D01*
X32371D01*
Y20277D01*
X32359D01*
Y20282D01*
X32343D01*
Y20288D01*
X32338D01*
Y20294D01*
X32321D01*
Y20299D01*
X32310D01*
Y20305D01*
X32294D01*
Y20310D01*
X32283D01*
Y20315D01*
X32271D01*
Y20321D01*
X32255D01*
Y20326D01*
X32244D01*
Y20332D01*
X32222D01*
Y20338D01*
X32211D01*
Y20343D01*
X32194D01*
Y20348D01*
X32183D01*
Y20354D01*
X32173D01*
Y20359D01*
X32150D01*
Y20365D01*
X32139D01*
Y20371D01*
X32123D01*
Y20376D01*
X32106D01*
Y20382D01*
X32095D01*
Y20387D01*
X32074D01*
Y20392D01*
X32062D01*
Y20398D01*
X32041D01*
Y20403D01*
X32030D01*
Y20409D01*
X32008D01*
Y20415D01*
X31991D01*
Y20420D01*
X31980D01*
Y20426D01*
X31953D01*
Y20431D01*
X31941D01*
Y20436D01*
X31914D01*
Y20442D01*
X31897D01*
Y20447D01*
X31876D01*
Y20453D01*
X31848D01*
Y20459D01*
X31826D01*
Y20464D01*
X31788D01*
Y20470D01*
X31755D01*
Y20475D01*
D02*
G37*
G36*
X29081Y20480D02*
X29027D01*
Y20475D01*
X28977D01*
Y20470D01*
X28949D01*
Y20464D01*
X28911D01*
Y20459D01*
X28895D01*
Y20453D01*
X28861D01*
Y20447D01*
X28845D01*
Y20442D01*
X28828D01*
Y20436D01*
X28801D01*
Y20431D01*
X28790D01*
Y20426D01*
X28763D01*
Y20420D01*
X28751D01*
Y20415D01*
X28735D01*
Y20409D01*
X28713D01*
Y20403D01*
X28702D01*
Y20398D01*
X28680D01*
Y20392D01*
X28669D01*
Y20387D01*
X28647D01*
Y20382D01*
X28636D01*
Y20376D01*
X28619D01*
Y20371D01*
X28603D01*
Y20365D01*
X28592D01*
Y20359D01*
X28575D01*
Y20354D01*
X28565D01*
Y20348D01*
X28548D01*
Y20343D01*
X28531D01*
Y20338D01*
X28521D01*
Y20332D01*
X28504D01*
Y20326D01*
X28493D01*
Y20321D01*
X28477D01*
Y20315D01*
X28465D01*
Y20310D01*
X28454D01*
Y20305D01*
X28438D01*
Y20299D01*
X28427D01*
Y20294D01*
X28410D01*
Y20288D01*
X28400D01*
Y20282D01*
X28389D01*
Y20277D01*
X28377D01*
Y20271D01*
X28366D01*
Y20266D01*
X28350D01*
Y20261D01*
X28339D01*
Y20255D01*
X28328D01*
Y20250D01*
X28312D01*
Y20244D01*
X28306D01*
Y20238D01*
X28289D01*
Y20233D01*
X28279D01*
Y20227D01*
X28268D01*
Y20222D01*
X28256D01*
Y20217D01*
X28245D01*
Y20211D01*
X28235D01*
Y20206D01*
X28224D01*
Y20200D01*
X28212D01*
Y20194D01*
X28207D01*
Y20189D01*
X28191D01*
Y20183D01*
X28185D01*
Y20178D01*
X28180D01*
Y20173D01*
X28174D01*
Y20167D01*
X28168D01*
Y20161D01*
X28163D01*
Y20156D01*
X28157D01*
Y20145D01*
X28152D01*
Y20140D01*
X28147D01*
Y20123D01*
X28157D01*
Y20129D01*
X28168D01*
Y20134D01*
X28185D01*
Y20140D01*
X28196D01*
Y20145D01*
X28207D01*
Y20150D01*
X28224D01*
Y20156D01*
X28235D01*
Y20161D01*
X28256D01*
Y20167D01*
X28268D01*
Y20173D01*
X28284D01*
Y20178D01*
X28295D01*
Y20183D01*
X28312D01*
Y20189D01*
X28328D01*
Y20194D01*
X28339D01*
Y20200D01*
X28366D01*
Y20206D01*
X28377D01*
Y20211D01*
X28394D01*
Y20217D01*
X28416D01*
Y20222D01*
X28433D01*
Y20227D01*
X28460D01*
Y20233D01*
X28477D01*
Y20238D01*
X28504D01*
Y20244D01*
X28526D01*
Y20250D01*
X28554D01*
Y20255D01*
X28592D01*
Y20261D01*
X28614D01*
Y20266D01*
X28663D01*
Y20271D01*
X28691D01*
Y20277D01*
X28740D01*
Y20282D01*
X28790D01*
Y20288D01*
X28828D01*
Y20294D01*
X28928D01*
Y20288D01*
X28960D01*
Y20282D01*
X28999D01*
Y20277D01*
X29027D01*
Y20271D01*
X29037D01*
Y20266D01*
X29065D01*
Y20261D01*
X29076D01*
Y20255D01*
X29093D01*
Y20250D01*
X29104D01*
Y20244D01*
X29120D01*
Y20238D01*
X29131D01*
Y20233D01*
X29142D01*
Y20227D01*
X29153D01*
Y20222D01*
X29164D01*
Y20217D01*
X29175D01*
Y20211D01*
X29186D01*
Y20206D01*
X29192D01*
Y20200D01*
X29202D01*
Y20194D01*
X29208D01*
Y20189D01*
X29219D01*
Y20183D01*
X29225D01*
Y20178D01*
X29235D01*
Y20173D01*
X29241D01*
Y20167D01*
X29252D01*
Y20161D01*
X29258D01*
Y20156D01*
X29263D01*
Y20150D01*
X29274D01*
Y20145D01*
X29279D01*
Y20140D01*
X29285D01*
Y20134D01*
X29290D01*
Y20129D01*
X29296D01*
Y20123D01*
X29302D01*
Y20117D01*
X29307D01*
Y20112D01*
X29313D01*
Y20106D01*
X29318D01*
Y20101D01*
X29323D01*
Y20096D01*
X29329D01*
Y20090D01*
X29334D01*
Y20085D01*
X29340D01*
Y20079D01*
X29346D01*
Y20068D01*
X29362D01*
Y20073D01*
X29367D01*
Y20079D01*
X29373D01*
Y20090D01*
X29378D01*
Y20101D01*
X29384D01*
Y20112D01*
X29390D01*
Y20117D01*
X29395D01*
Y20134D01*
X29400D01*
Y20140D01*
X29406D01*
Y20150D01*
X29411D01*
Y20161D01*
X29417D01*
Y20173D01*
X29423D01*
Y20183D01*
X29428D01*
Y20194D01*
X29434D01*
Y20200D01*
X29439D01*
Y20217D01*
X29444D01*
Y20222D01*
X29450D01*
Y20233D01*
X29455D01*
Y20244D01*
X29461D01*
Y20255D01*
X29467D01*
Y20266D01*
X29472D01*
Y20271D01*
X29478D01*
Y20282D01*
X29483D01*
Y20294D01*
X29488D01*
Y20305D01*
X29494D01*
Y20321D01*
X29483D01*
Y20326D01*
X29472D01*
Y20332D01*
X29450D01*
Y20338D01*
X29439D01*
Y20343D01*
X29423D01*
Y20348D01*
X29406D01*
Y20354D01*
X29395D01*
Y20359D01*
X29384D01*
Y20365D01*
X29373D01*
Y20371D01*
X29362D01*
Y20376D01*
X29351D01*
Y20382D01*
X29346D01*
Y20387D01*
X29334D01*
Y20392D01*
X29329D01*
Y20398D01*
X29313D01*
Y20403D01*
X29307D01*
Y20409D01*
X29296D01*
Y20415D01*
X29285D01*
Y20420D01*
X29279D01*
Y20426D01*
X29263D01*
Y20431D01*
X29252D01*
Y20436D01*
X29235D01*
Y20442D01*
X29219D01*
Y20447D01*
X29208D01*
Y20453D01*
X29186D01*
Y20459D01*
X29169D01*
Y20464D01*
X29142D01*
Y20470D01*
X29125D01*
Y20475D01*
X29081D01*
Y20480D01*
D02*
G37*
G36*
X31243Y20310D02*
X31221D01*
Y20305D01*
X29593D01*
Y20294D01*
X29588D01*
Y20282D01*
X29582D01*
Y20271D01*
X29576D01*
Y20261D01*
X29571D01*
Y20250D01*
X29565D01*
Y20244D01*
X29560D01*
Y20233D01*
X29555D01*
Y20222D01*
X29549D01*
Y20211D01*
X29543D01*
Y20200D01*
X29538D01*
Y20189D01*
X29532D01*
Y20178D01*
X29527D01*
Y20167D01*
X29522D01*
Y20161D01*
X29516D01*
Y20150D01*
X29511D01*
Y20145D01*
X29505D01*
Y20129D01*
X29499D01*
Y20123D01*
X29494D01*
Y20112D01*
X29488D01*
Y20101D01*
X29483D01*
Y20090D01*
X29478D01*
Y20079D01*
X29472D01*
Y20073D01*
X29467D01*
Y20062D01*
X29461D01*
Y20052D01*
X29455D01*
Y20041D01*
X29450D01*
Y20029D01*
X29444D01*
Y20018D01*
X29439D01*
Y20008D01*
X29434D01*
Y19997D01*
X29428D01*
Y19991D01*
X29423D01*
Y19969D01*
X29428D01*
Y19964D01*
X29434D01*
Y19958D01*
X29439D01*
Y19952D01*
X29444D01*
Y19947D01*
X29450D01*
Y19942D01*
X29455D01*
Y19936D01*
X29461D01*
Y19925D01*
X29467D01*
Y19920D01*
X29472D01*
Y19914D01*
X29478D01*
Y19908D01*
X29483D01*
Y19903D01*
X29488D01*
Y19898D01*
X29494D01*
Y19886D01*
X29499D01*
Y19881D01*
X29505D01*
Y19876D01*
X29511D01*
Y19870D01*
X29516D01*
Y19864D01*
X29522D01*
Y19859D01*
X29527D01*
Y19854D01*
X29532D01*
Y19848D01*
X29538D01*
Y19842D01*
X29543D01*
Y19832D01*
X29549D01*
Y19826D01*
X29555D01*
Y19820D01*
X29560D01*
Y19815D01*
X29565D01*
Y19809D01*
X29571D01*
Y19804D01*
X29576D01*
Y19799D01*
X29582D01*
Y19793D01*
X29588D01*
Y19787D01*
X29593D01*
Y19782D01*
X29599D01*
Y19777D01*
X29604D01*
Y19765D01*
X29609D01*
Y19760D01*
X29615D01*
Y19755D01*
X29620D01*
Y19749D01*
X29626D01*
Y19743D01*
X29632D01*
Y19738D01*
X29637D01*
Y19733D01*
X29643D01*
Y19727D01*
X29648D01*
Y19721D01*
X29659D01*
Y19716D01*
X29664D01*
Y19711D01*
X29670D01*
Y19705D01*
X29676D01*
Y19699D01*
X29681D01*
Y19694D01*
X29687D01*
Y19689D01*
X29692D01*
Y19683D01*
X29703D01*
Y19677D01*
X29708D01*
Y19672D01*
X29720D01*
Y19667D01*
X29725D01*
Y19661D01*
X29741D01*
Y19655D01*
X29747D01*
Y19650D01*
X29764D01*
Y19645D01*
X29791D01*
Y19639D01*
X29813D01*
Y19634D01*
X30913D01*
Y19639D01*
X30946D01*
Y19645D01*
X30973D01*
Y19650D01*
X30990D01*
Y19655D01*
X31007D01*
Y19661D01*
X31017D01*
Y19667D01*
X31028D01*
Y19672D01*
X31040D01*
Y19677D01*
X31045D01*
Y19683D01*
X31051D01*
Y19689D01*
X31061D01*
Y19694D01*
X31067D01*
Y19699D01*
X31072D01*
Y19705D01*
X31078D01*
Y19711D01*
X31084D01*
Y19716D01*
X31089D01*
Y19721D01*
X31095D01*
Y19727D01*
X31100D01*
Y19733D01*
X31105D01*
Y19738D01*
X31111D01*
Y19743D01*
X31116D01*
Y19749D01*
X31128D01*
Y19755D01*
X31133D01*
Y19760D01*
X31139D01*
Y19771D01*
X31144D01*
Y19777D01*
X31149D01*
Y19782D01*
X31155D01*
Y19787D01*
X31161D01*
Y19793D01*
X31166D01*
Y19799D01*
X31172D01*
Y19804D01*
X31177D01*
Y19809D01*
X31182D01*
Y19815D01*
X31188D01*
Y19820D01*
X31193D01*
Y19826D01*
X31199D01*
Y19832D01*
X31205D01*
Y19837D01*
X31210D01*
Y19842D01*
X31216D01*
Y19848D01*
X31221D01*
Y19859D01*
X31226D01*
Y19864D01*
X31232D01*
Y19870D01*
X31237D01*
Y19876D01*
X31243D01*
Y19881D01*
X31249D01*
Y19886D01*
X31254D01*
Y19892D01*
X31260D01*
Y19903D01*
X31265D01*
Y19908D01*
X31270D01*
Y19914D01*
X31276D01*
Y19920D01*
X31281D01*
Y19925D01*
X31287D01*
Y19930D01*
X31293D01*
Y19936D01*
X31298D01*
Y19947D01*
X31304D01*
Y19952D01*
X31309D01*
Y19958D01*
X31314D01*
Y19964D01*
X31320D01*
Y19969D01*
X31326D01*
Y19974D01*
X31331D01*
Y19980D01*
X31337D01*
Y19991D01*
X31342D01*
Y19997D01*
X31347D01*
Y20002D01*
X31353D01*
Y20008D01*
X31358D01*
Y20018D01*
X31364D01*
Y20024D01*
X31370D01*
Y20029D01*
X31375D01*
Y20035D01*
X31381D01*
Y20057D01*
X31375D01*
Y20068D01*
X31370D01*
Y20073D01*
X31364D01*
Y20090D01*
X31358D01*
Y20096D01*
X31353D01*
Y20106D01*
X31347D01*
Y20117D01*
X31342D01*
Y20129D01*
X31337D01*
Y20140D01*
X31331D01*
Y20145D01*
X31326D01*
Y20161D01*
X31320D01*
Y20173D01*
X31314D01*
Y20178D01*
X31309D01*
Y20189D01*
X31304D01*
Y20200D01*
X31298D01*
Y20211D01*
X31293D01*
Y20222D01*
X31287D01*
Y20233D01*
X31281D01*
Y20244D01*
X31276D01*
Y20250D01*
X31270D01*
Y20261D01*
X31265D01*
Y20271D01*
X31260D01*
Y20282D01*
X31254D01*
Y20294D01*
X31249D01*
Y20299D01*
X31243D01*
Y20310D01*
D02*
G37*
G36*
X31892Y20200D02*
X31853D01*
Y20194D01*
X31804D01*
Y20189D01*
X31765D01*
Y20183D01*
X31744D01*
Y20178D01*
X31727D01*
Y20173D01*
X31705D01*
Y20167D01*
X31700D01*
Y20161D01*
X31677D01*
Y20156D01*
X31667D01*
Y20150D01*
X31655D01*
Y20145D01*
X31644D01*
Y20140D01*
X31634D01*
Y20134D01*
X31623D01*
Y20129D01*
X31611D01*
Y20123D01*
X31600D01*
Y20117D01*
X31595D01*
Y20112D01*
X31590D01*
Y20106D01*
X31579D01*
Y20101D01*
X31573D01*
Y20096D01*
X31562D01*
Y20090D01*
X31556D01*
Y20085D01*
X31551D01*
Y20079D01*
X31540D01*
Y20073D01*
X31535D01*
Y20068D01*
X31529D01*
Y20062D01*
X31523D01*
Y20057D01*
X31518D01*
Y20052D01*
X31512D01*
Y20046D01*
X31507D01*
Y20041D01*
X31502D01*
Y20035D01*
X31496D01*
Y20029D01*
X31490D01*
Y20024D01*
X31485D01*
Y20018D01*
X31479D01*
Y20013D01*
X31474D01*
Y20002D01*
X31469D01*
Y19997D01*
X31463D01*
Y19991D01*
X31458D01*
Y19986D01*
X31452D01*
Y19980D01*
X31446D01*
Y19969D01*
X31441D01*
Y19964D01*
X31435D01*
Y19958D01*
X31430D01*
Y19952D01*
X31425D01*
Y19947D01*
X31419D01*
Y19936D01*
X31414D01*
Y19930D01*
X31408D01*
Y19925D01*
X31402D01*
Y19920D01*
X31397D01*
Y19914D01*
X31391D01*
Y19903D01*
X31386D01*
Y19898D01*
X31381D01*
Y19892D01*
X31375D01*
Y19886D01*
X31370D01*
Y19881D01*
X31364D01*
Y19876D01*
X31358D01*
Y19870D01*
X31353D01*
Y19859D01*
X31347D01*
Y19854D01*
X31342D01*
Y19848D01*
X31337D01*
Y19842D01*
X31331D01*
Y19837D01*
X31326D01*
Y19832D01*
X31320D01*
Y19826D01*
X31314D01*
Y19815D01*
X31309D01*
Y19809D01*
X31304D01*
Y19804D01*
X31298D01*
Y19799D01*
X31293D01*
Y19793D01*
X31287D01*
Y19787D01*
X31281D01*
Y19782D01*
X31276D01*
Y19777D01*
X31270D01*
Y19765D01*
X31265D01*
Y19760D01*
X31260D01*
Y19755D01*
X31254D01*
Y19749D01*
X31249D01*
Y19743D01*
X31243D01*
Y19738D01*
X31237D01*
Y19733D01*
X31232D01*
Y19727D01*
X31226D01*
Y19721D01*
X31221D01*
Y19716D01*
X31216D01*
Y19711D01*
X31210D01*
Y19705D01*
X31205D01*
Y19699D01*
X31199D01*
Y19689D01*
X31193D01*
Y19683D01*
X31188D01*
Y19677D01*
X31182D01*
Y19672D01*
X31172D01*
Y19667D01*
X31166D01*
Y19661D01*
X31161D01*
Y19655D01*
X31155D01*
Y19650D01*
X31149D01*
Y19645D01*
X31144D01*
Y19639D01*
X31139D01*
Y19634D01*
X31133D01*
Y19628D01*
X31128D01*
Y19622D01*
X31122D01*
Y19617D01*
X31111D01*
Y19612D01*
X31105D01*
Y19606D01*
X31100D01*
Y19600D01*
X31089D01*
Y19595D01*
X31084D01*
Y19590D01*
X31072D01*
Y19584D01*
X31061D01*
Y19578D01*
X31051D01*
Y19573D01*
X31040D01*
Y19568D01*
X31023D01*
Y19562D01*
X31012D01*
Y19556D01*
X30984D01*
Y19551D01*
X30957D01*
Y19546D01*
X30924D01*
Y19540D01*
X30721D01*
Y19534D01*
X30660D01*
Y19540D01*
X29818D01*
Y19546D01*
X29785D01*
Y19551D01*
X29758D01*
Y19556D01*
X29736D01*
Y19562D01*
X29725D01*
Y19568D01*
X29703D01*
Y19573D01*
X29697D01*
Y19578D01*
X29681D01*
Y19584D01*
X29676D01*
Y19590D01*
X29664D01*
Y19595D01*
X29653D01*
Y19600D01*
X29648D01*
Y19606D01*
X29643D01*
Y19612D01*
X29632D01*
Y19617D01*
X29626D01*
Y19622D01*
X29620D01*
Y19628D01*
X29615D01*
Y19634D01*
X29609D01*
Y19639D01*
X29604D01*
Y19645D01*
X29599D01*
Y19650D01*
X29593D01*
Y19655D01*
X29588D01*
Y19661D01*
X29576D01*
Y19667D01*
X29571D01*
Y19672D01*
X29565D01*
Y19677D01*
X29560D01*
Y19683D01*
X29555D01*
Y19689D01*
X29549D01*
Y19694D01*
X29543D01*
Y19699D01*
X29538D01*
Y19705D01*
X29532D01*
Y19711D01*
X29527D01*
Y19721D01*
X29522D01*
Y19727D01*
X29516D01*
Y19733D01*
X29511D01*
Y19738D01*
X29505D01*
Y19743D01*
X29499D01*
Y19749D01*
X29494D01*
Y19755D01*
X29488D01*
Y19760D01*
X29483D01*
Y19765D01*
X29478D01*
Y19771D01*
X29472D01*
Y19777D01*
X29467D01*
Y19782D01*
X29461D01*
Y19793D01*
X29455D01*
Y19799D01*
X29450D01*
Y19804D01*
X29444D01*
Y19809D01*
X29439D01*
Y19815D01*
X29434D01*
Y19820D01*
X29428D01*
Y19826D01*
X29423D01*
Y19832D01*
X29417D01*
Y19842D01*
X29411D01*
Y19848D01*
X29406D01*
Y19854D01*
X29400D01*
Y19859D01*
X29395D01*
Y19864D01*
X29390D01*
Y19870D01*
X29384D01*
Y19881D01*
X29378D01*
Y19886D01*
X29373D01*
Y19892D01*
X29367D01*
Y19898D01*
X29362D01*
Y19903D01*
X29357D01*
Y19914D01*
X29351D01*
Y19920D01*
X29346D01*
Y19925D01*
X29340D01*
Y19930D01*
X29334D01*
Y19936D01*
X29329D01*
Y19947D01*
X29323D01*
Y19952D01*
X29318D01*
Y19958D01*
X29313D01*
Y19964D01*
X29307D01*
Y19969D01*
X29302D01*
Y19974D01*
X29296D01*
Y19980D01*
X29290D01*
Y19991D01*
X29285D01*
Y19997D01*
X29279D01*
Y20002D01*
X29274D01*
Y20008D01*
X29269D01*
Y20018D01*
X29263D01*
Y20024D01*
X29258D01*
Y20029D01*
X29252D01*
Y20035D01*
X29246D01*
Y20041D01*
X29241D01*
Y20046D01*
X29235D01*
Y20052D01*
X29230D01*
Y20057D01*
X29225D01*
Y20062D01*
X29219D01*
Y20068D01*
X29214D01*
Y20073D01*
X29208D01*
Y20079D01*
X29197D01*
Y20085D01*
X29192D01*
Y20090D01*
X29186D01*
Y20096D01*
X29175D01*
Y20101D01*
X29169D01*
Y20106D01*
X29158D01*
Y20112D01*
X29153D01*
Y20117D01*
X29142D01*
Y20123D01*
X29131D01*
Y20129D01*
X29125D01*
Y20134D01*
X29114D01*
Y20140D01*
X29104D01*
Y20145D01*
X29093D01*
Y20150D01*
X29076D01*
Y20156D01*
X29070D01*
Y20161D01*
X29049D01*
Y20167D01*
X29037D01*
Y20173D01*
X29016D01*
Y20178D01*
X28999D01*
Y20183D01*
X28972D01*
Y20189D01*
X28933D01*
Y20194D01*
X28812D01*
Y20189D01*
X28746D01*
Y20183D01*
X28707D01*
Y20178D01*
X28669D01*
Y20173D01*
X28625D01*
Y20167D01*
X28603D01*
Y20161D01*
X28565D01*
Y20156D01*
X28542D01*
Y20150D01*
X28515D01*
Y20145D01*
X28493D01*
Y20140D01*
X28477D01*
Y20134D01*
X28449D01*
Y20129D01*
X28438D01*
Y20123D01*
X28416D01*
Y20117D01*
X28400D01*
Y20112D01*
X28383D01*
Y20106D01*
X28361D01*
Y20101D01*
X28350D01*
Y20096D01*
X28328D01*
Y20090D01*
X28317D01*
Y20085D01*
X28300D01*
Y20079D01*
X28284D01*
Y20073D01*
X28273D01*
Y20068D01*
X28256D01*
Y20062D01*
X28245D01*
Y20057D01*
X28229D01*
Y20052D01*
X28218D01*
Y20046D01*
X28207D01*
Y20041D01*
X28191D01*
Y20035D01*
X28185D01*
Y20029D01*
X28168D01*
Y20024D01*
X28157D01*
Y20018D01*
X28147D01*
Y20013D01*
X28130D01*
Y20008D01*
X28124D01*
Y20002D01*
X28108D01*
Y19997D01*
X28097D01*
Y19991D01*
X28086D01*
Y19986D01*
X28075D01*
Y19980D01*
X28064D01*
Y19974D01*
X28053D01*
Y19969D01*
X28042D01*
Y19964D01*
X28031D01*
Y19958D01*
X28020D01*
Y19952D01*
X28015D01*
Y19947D01*
X28003D01*
Y19942D01*
X27992D01*
Y19936D01*
X27982D01*
Y19930D01*
X27970D01*
Y19925D01*
X27959D01*
Y19920D01*
X27954D01*
Y19914D01*
X27943D01*
Y19908D01*
X27932D01*
Y19898D01*
X27926D01*
Y19892D01*
X27921D01*
Y19876D01*
X27915D01*
Y19864D01*
X27910D01*
Y19854D01*
X27905D01*
Y19842D01*
X27899D01*
Y19832D01*
X27894D01*
Y19815D01*
X27888D01*
Y19804D01*
X27882D01*
Y19793D01*
X27877D01*
Y19782D01*
X27871D01*
Y19771D01*
X27866D01*
Y19755D01*
X27861D01*
Y19743D01*
X27855D01*
Y19727D01*
X27850D01*
Y19716D01*
X27844D01*
Y19705D01*
X27838D01*
Y19694D01*
X27833D01*
Y19683D01*
X27827D01*
Y19667D01*
X27822D01*
Y19655D01*
X27817D01*
Y19645D01*
X27811D01*
Y19628D01*
X27806D01*
Y19622D01*
X27800D01*
Y19600D01*
X27794D01*
Y19595D01*
X27789D01*
Y19578D01*
X27784D01*
Y19568D01*
X27778D01*
Y19556D01*
X27773D01*
Y19534D01*
X27767D01*
Y19529D01*
X27761D01*
Y19512D01*
X27756D01*
Y19502D01*
X27750D01*
Y19485D01*
X27745D01*
Y19468D01*
X27740D01*
Y19463D01*
X27734D01*
Y19441D01*
X27729D01*
Y19430D01*
X27723D01*
Y19413D01*
X27717D01*
Y19403D01*
X27712D01*
Y19391D01*
X27706D01*
Y19375D01*
X27701D01*
Y19364D01*
X27696D01*
Y19347D01*
X27690D01*
Y19337D01*
X27685D01*
Y19320D01*
X27679D01*
Y19303D01*
X27673D01*
Y19293D01*
X27668D01*
Y19276D01*
X27662D01*
Y19265D01*
X27657D01*
Y19248D01*
X27652D01*
Y19232D01*
X27646D01*
Y19221D01*
X27641D01*
Y19204D01*
X27635D01*
Y19194D01*
X27629D01*
Y19172D01*
X27624D01*
Y19160D01*
X27619D01*
Y19144D01*
X27613D01*
Y19128D01*
X27608D01*
Y19116D01*
X27602D01*
Y19095D01*
X27596D01*
Y19083D01*
X27591D01*
Y19067D01*
X27585D01*
Y19051D01*
X27580D01*
Y19039D01*
X27575D01*
Y19017D01*
X27569D01*
Y19007D01*
X27564D01*
Y18985D01*
X27558D01*
Y18973D01*
X27552D01*
Y18957D01*
X27547D01*
Y18935D01*
X27541D01*
Y18924D01*
X27536D01*
Y18902D01*
X27531D01*
Y18891D01*
X27525D01*
Y18874D01*
X27520D01*
Y18858D01*
X27514D01*
Y18842D01*
X27508D01*
Y18825D01*
X27503D01*
Y18814D01*
X27497D01*
Y18786D01*
X27492D01*
Y18776D01*
X27487D01*
Y18759D01*
X27481D01*
Y18737D01*
X27476D01*
Y18726D01*
X27470D01*
Y18704D01*
X27464D01*
Y18687D01*
X27459D01*
Y18665D01*
X27453D01*
Y18649D01*
X27448D01*
Y18638D01*
X27443D01*
Y18616D01*
X27437D01*
Y18599D01*
X27431D01*
Y18578D01*
X27426D01*
Y18566D01*
X27420D01*
Y18544D01*
X27415D01*
Y18522D01*
X27410D01*
Y18512D01*
X27404D01*
Y18484D01*
X27399D01*
Y18473D01*
X27393D01*
Y18451D01*
X27387D01*
Y18434D01*
X27382D01*
Y18418D01*
X27376D01*
Y18391D01*
X27371D01*
Y18374D01*
X27366D01*
Y18352D01*
X27360D01*
Y18335D01*
X27355D01*
Y18313D01*
X27349D01*
Y18291D01*
X27343D01*
Y18275D01*
X27338D01*
Y18247D01*
X27332D01*
Y18231D01*
X27327D01*
Y18204D01*
X27322D01*
Y18182D01*
X27316D01*
Y18165D01*
X27311D01*
Y18138D01*
X27305D01*
Y18121D01*
X27299D01*
Y18088D01*
X27294D01*
Y18072D01*
X27288D01*
Y18049D01*
X27283D01*
Y18022D01*
X27278D01*
Y18005D01*
X27272D01*
Y17973D01*
X27266D01*
Y17951D01*
X27261D01*
Y17917D01*
X27255D01*
Y17895D01*
X27250D01*
Y17874D01*
X27245D01*
Y17835D01*
X27239D01*
Y17818D01*
X27234D01*
Y17774D01*
X27228D01*
Y17747D01*
X27222D01*
Y17714D01*
X27217D01*
Y17675D01*
X27211D01*
Y17648D01*
X27206D01*
Y17599D01*
X27201D01*
Y17571D01*
X27195D01*
Y17510D01*
X27190D01*
Y17466D01*
X27184D01*
Y17417D01*
X27178D01*
Y17313D01*
X27173D01*
Y17219D01*
X27167D01*
Y17114D01*
X27173D01*
Y17021D01*
X27178D01*
Y16922D01*
X27184D01*
Y16889D01*
X27190D01*
Y16861D01*
X27195D01*
Y16823D01*
X27201D01*
Y16806D01*
X27206D01*
Y16779D01*
X27211D01*
Y16762D01*
X27217D01*
Y16746D01*
X27222D01*
Y16730D01*
X27228D01*
Y16718D01*
X27234D01*
Y16696D01*
X27239D01*
Y16686D01*
X27245D01*
Y16669D01*
X27250D01*
Y16658D01*
X27255D01*
Y16647D01*
X27261D01*
Y16636D01*
X27266D01*
Y16625D01*
X27272D01*
Y16609D01*
X27278D01*
Y16603D01*
X27283D01*
Y16592D01*
X27288D01*
Y16581D01*
X27294D01*
Y16575D01*
X27299D01*
Y16559D01*
X27305D01*
Y16553D01*
X27311D01*
Y16543D01*
X27316D01*
Y16537D01*
X27322D01*
Y16526D01*
X27327D01*
Y16521D01*
X27332D01*
Y16515D01*
X27338D01*
Y16504D01*
X27343D01*
Y16499D01*
X27349D01*
Y16487D01*
X27355D01*
Y16482D01*
X27360D01*
Y16477D01*
X27366D01*
Y16466D01*
X27371D01*
Y16460D01*
X27376D01*
Y16454D01*
X27382D01*
Y16449D01*
X27387D01*
Y16444D01*
X27393D01*
Y16432D01*
X27399D01*
Y16427D01*
X27404D01*
Y16422D01*
X27410D01*
Y16416D01*
X27415D01*
Y16410D01*
X27420D01*
Y16405D01*
X27426D01*
Y16400D01*
X27431D01*
Y16394D01*
X27437D01*
Y16388D01*
X27443D01*
Y16383D01*
X27448D01*
Y16378D01*
X27453D01*
Y16372D01*
X27459D01*
Y16366D01*
X27470D01*
Y16361D01*
X27476D01*
Y16356D01*
X27481D01*
Y16350D01*
X27492D01*
Y16344D01*
X27497D01*
Y16339D01*
X27503D01*
Y16334D01*
X27514D01*
Y16328D01*
X27520D01*
Y16322D01*
X27531D01*
Y16317D01*
X27536D01*
Y16312D01*
X27547D01*
Y16306D01*
X27552D01*
Y16300D01*
X27564D01*
Y16295D01*
X27575D01*
Y16289D01*
X27585D01*
Y16284D01*
X27602D01*
Y16279D01*
X27613D01*
Y16273D01*
X27629D01*
Y16267D01*
X27652D01*
Y16262D01*
X27668D01*
Y16257D01*
X27745D01*
Y16262D01*
X27761D01*
Y16267D01*
X27778D01*
Y16273D01*
X27789D01*
Y16279D01*
X27800D01*
Y16284D01*
X27811D01*
Y16289D01*
X27822D01*
Y16295D01*
X27833D01*
Y16300D01*
X27838D01*
Y16306D01*
X27850D01*
Y16312D01*
X27855D01*
Y16317D01*
X27861D01*
Y16322D01*
X27871D01*
Y16328D01*
X27877D01*
Y16334D01*
X27888D01*
Y16339D01*
X27894D01*
Y16344D01*
X27899D01*
Y16350D01*
X27910D01*
Y16356D01*
X27915D01*
Y16361D01*
X27921D01*
Y16366D01*
X27926D01*
Y16372D01*
X27932D01*
Y16378D01*
X27943D01*
Y16383D01*
X27949D01*
Y16388D01*
X27954D01*
Y16394D01*
X27959D01*
Y16400D01*
X27965D01*
Y16405D01*
X27970D01*
Y16410D01*
X27976D01*
Y16416D01*
X27987D01*
Y16422D01*
X27992D01*
Y16427D01*
X27998D01*
Y16432D01*
X28003D01*
Y16438D01*
X28009D01*
Y16444D01*
X28015D01*
Y16449D01*
X28020D01*
Y16454D01*
X28031D01*
Y16460D01*
X28036D01*
Y16466D01*
X28042D01*
Y16471D01*
X28047D01*
Y16477D01*
X28053D01*
Y16482D01*
X28059D01*
Y16487D01*
X28064D01*
Y16493D01*
X28070D01*
Y16499D01*
X28075D01*
Y16504D01*
X28080D01*
Y16509D01*
X28091D01*
Y16515D01*
X28097D01*
Y16521D01*
X28103D01*
Y16526D01*
X28108D01*
Y16531D01*
X28114D01*
Y16537D01*
X28119D01*
Y16543D01*
X28124D01*
Y16548D01*
X28130D01*
Y16553D01*
X28135D01*
Y16559D01*
X28141D01*
Y16565D01*
X28147D01*
Y16570D01*
X28152D01*
Y16575D01*
X28163D01*
Y16581D01*
X28168D01*
Y16587D01*
X28174D01*
Y16592D01*
X28180D01*
Y16597D01*
X28185D01*
Y16603D01*
X28191D01*
Y16609D01*
X28196D01*
Y16614D01*
X28201D01*
Y16619D01*
X28207D01*
Y16625D01*
X28212D01*
Y16631D01*
X28218D01*
Y16636D01*
X28224D01*
Y16641D01*
X28229D01*
Y16647D01*
X28235D01*
Y16652D01*
X28240D01*
Y16658D01*
X28245D01*
Y16664D01*
X28251D01*
Y16669D01*
X28256D01*
Y16674D01*
X28262D01*
Y16680D01*
X28268D01*
Y16686D01*
X28273D01*
Y16691D01*
X28279D01*
Y16696D01*
X28284D01*
Y16702D01*
X28289D01*
Y16708D01*
X28295D01*
Y16713D01*
X28300D01*
Y16718D01*
X28306D01*
Y16724D01*
X28312D01*
Y16730D01*
X28317D01*
Y16735D01*
X28328D01*
Y16746D01*
X28339D01*
Y16757D01*
X28345D01*
Y16762D01*
X28350D01*
Y16768D01*
X28356D01*
Y16774D01*
X28366D01*
Y16784D01*
X28372D01*
Y16790D01*
X28377D01*
Y16796D01*
X28383D01*
Y16801D01*
X28389D01*
Y16806D01*
X28394D01*
Y16812D01*
X28400D01*
Y16818D01*
X28405D01*
Y16823D01*
X28410D01*
Y16829D01*
X28416D01*
Y16834D01*
X28421D01*
Y16839D01*
X28427D01*
Y16845D01*
X28433D01*
Y16851D01*
X28438D01*
Y16856D01*
X28444D01*
Y16861D01*
X28449D01*
Y16867D01*
X28454D01*
Y16873D01*
X28460D01*
Y16878D01*
X28465D01*
Y16883D01*
X28471D01*
Y16889D01*
X28477D01*
Y16895D01*
X28482D01*
Y16900D01*
X28488D01*
Y16905D01*
X28493D01*
Y16911D01*
X28498D01*
Y16917D01*
X28504D01*
Y16922D01*
X28510D01*
Y16927D01*
X28515D01*
Y16933D01*
X28521D01*
Y16939D01*
X28526D01*
Y16944D01*
X28531D01*
Y16955D01*
X28537D01*
Y16961D01*
X28542D01*
Y16966D01*
X28548D01*
Y16971D01*
X28554D01*
Y16977D01*
X28559D01*
Y16983D01*
X28565D01*
Y16988D01*
X28570D01*
Y16993D01*
X28575D01*
Y16999D01*
X28581D01*
Y17004D01*
X28586D01*
Y17010D01*
X28592D01*
Y17016D01*
X28598D01*
Y17021D01*
X28603D01*
Y17026D01*
X28609D01*
Y17032D01*
X28614D01*
Y17038D01*
X28619D01*
Y17043D01*
X28625D01*
Y17048D01*
X28630D01*
Y17054D01*
X28636D01*
Y17060D01*
X28642D01*
Y17065D01*
X28647D01*
Y17070D01*
X28653D01*
Y17076D01*
X28663D01*
Y17082D01*
X28669D01*
Y17087D01*
X28674D01*
Y17092D01*
X28680D01*
Y17098D01*
X28686D01*
Y17104D01*
X28691D01*
Y17109D01*
X28696D01*
Y17114D01*
X28707D01*
Y17120D01*
X28713D01*
Y17126D01*
X28719D01*
Y17131D01*
X28724D01*
Y17136D01*
X28730D01*
Y17142D01*
X28740D01*
Y17148D01*
X28746D01*
Y17153D01*
X28751D01*
Y17158D01*
X28757D01*
Y17164D01*
X28768D01*
Y17170D01*
X28774D01*
Y17175D01*
X28784D01*
Y17181D01*
X28790D01*
Y17186D01*
X28795D01*
Y17191D01*
X28807D01*
Y17197D01*
X28818D01*
Y17203D01*
X28823D01*
Y17208D01*
X28839D01*
Y17213D01*
X28845D01*
Y17219D01*
X28856D01*
Y17225D01*
X28867D01*
Y17230D01*
X28878D01*
Y17235D01*
X28889D01*
Y17241D01*
X28900D01*
Y17247D01*
X28916D01*
Y17252D01*
X28928D01*
Y17257D01*
X28944D01*
Y17263D01*
X28955D01*
Y17269D01*
X28972D01*
Y17274D01*
X28988D01*
Y17279D01*
X28999D01*
Y17285D01*
X29027D01*
Y17291D01*
X29037D01*
Y17296D01*
X29060D01*
Y17301D01*
X29081D01*
Y17307D01*
X29104D01*
Y17313D01*
X31639D01*
Y17307D01*
X31661D01*
Y17301D01*
X31688D01*
Y17296D01*
X31711D01*
Y17291D01*
X31727D01*
Y17285D01*
X31749D01*
Y17279D01*
X31760D01*
Y17274D01*
X31782D01*
Y17269D01*
X31793D01*
Y17263D01*
X31809D01*
Y17257D01*
X31820D01*
Y17252D01*
X31832D01*
Y17247D01*
X31848D01*
Y17241D01*
X31853D01*
Y17235D01*
X31865D01*
Y17230D01*
X31876D01*
Y17225D01*
X31886D01*
Y17219D01*
X31897D01*
Y17213D01*
X31909D01*
Y17208D01*
X31920D01*
Y17203D01*
X31925D01*
Y17197D01*
X31936D01*
Y17191D01*
X31947D01*
Y17186D01*
X31953D01*
Y17181D01*
X31964D01*
Y17175D01*
X31969D01*
Y17170D01*
X31980D01*
Y17164D01*
X31985D01*
Y17158D01*
X31991D01*
Y17153D01*
X32002D01*
Y17148D01*
X32008D01*
Y17142D01*
X32018D01*
Y17136D01*
X32024D01*
Y17131D01*
X32030D01*
Y17126D01*
X32035D01*
Y17120D01*
X32041D01*
Y17114D01*
X32051D01*
Y17104D01*
X32062D01*
Y17098D01*
X32068D01*
Y17092D01*
X32074D01*
Y17087D01*
X32079D01*
Y17082D01*
X32085D01*
Y17076D01*
X32090D01*
Y17070D01*
X32095D01*
Y17065D01*
X32101D01*
Y17060D01*
X32106D01*
Y17054D01*
X32112D01*
Y17048D01*
X32118D01*
Y17043D01*
X32123D01*
Y17038D01*
X32129D01*
Y17032D01*
X32134D01*
Y17026D01*
X32139D01*
Y17021D01*
X32145D01*
Y17016D01*
X32150D01*
Y17010D01*
X32156D01*
Y17004D01*
X32162D01*
Y16999D01*
X32167D01*
Y16993D01*
X32173D01*
Y16988D01*
X32178D01*
Y16983D01*
X32183D01*
Y16977D01*
X32189D01*
Y16971D01*
X32194D01*
Y16966D01*
X32200D01*
Y16961D01*
X32206D01*
Y16955D01*
X32211D01*
Y16949D01*
X32216D01*
Y16944D01*
X32222D01*
Y16939D01*
X32227D01*
Y16933D01*
X32233D01*
Y16927D01*
X32239D01*
Y16922D01*
X32244D01*
Y16917D01*
X32250D01*
Y16911D01*
X32255D01*
Y16905D01*
X32260D01*
Y16900D01*
X32266D01*
Y16895D01*
X32271D01*
Y16889D01*
X32277D01*
Y16883D01*
X32283D01*
Y16878D01*
X32288D01*
Y16873D01*
X32294D01*
Y16867D01*
X32299D01*
Y16861D01*
X32304D01*
Y16856D01*
X32310D01*
Y16851D01*
X32315D01*
Y16845D01*
X32321D01*
Y16839D01*
X32327D01*
Y16834D01*
X32332D01*
Y16829D01*
X32338D01*
Y16823D01*
X32343D01*
Y16812D01*
X32354D01*
Y16801D01*
X32365D01*
Y16796D01*
X32371D01*
Y16784D01*
X32381D01*
Y16774D01*
X32387D01*
Y16768D01*
X32392D01*
Y16762D01*
X32398D01*
Y16757D01*
X32404D01*
Y16752D01*
X32409D01*
Y16746D01*
X32415D01*
Y16740D01*
X32420D01*
Y16735D01*
X32425D01*
Y16730D01*
X32431D01*
Y16724D01*
X32436D01*
Y16718D01*
X32442D01*
Y16713D01*
X32448D01*
Y16708D01*
X32453D01*
Y16702D01*
X32459D01*
Y16696D01*
X32464D01*
Y16691D01*
X32469D01*
Y16686D01*
X32475D01*
Y16680D01*
X32480D01*
Y16674D01*
X32486D01*
Y16669D01*
X32497D01*
Y16664D01*
X32503D01*
Y16652D01*
X32513D01*
Y16641D01*
X32524D01*
Y16636D01*
X32530D01*
Y16631D01*
X32536D01*
Y16625D01*
X32541D01*
Y16619D01*
X32547D01*
Y16614D01*
X32552D01*
Y16609D01*
X32557D01*
Y16603D01*
X32563D01*
Y16597D01*
X32569D01*
Y16592D01*
X32574D01*
Y16587D01*
X32580D01*
Y16581D01*
X32585D01*
Y16575D01*
X32590D01*
Y16570D01*
X32596D01*
Y16565D01*
X32607D01*
Y16559D01*
X32613D01*
Y16553D01*
X32618D01*
Y16548D01*
X32624D01*
Y16543D01*
X32629D01*
Y16537D01*
X32634D01*
Y16531D01*
X32640D01*
Y16526D01*
X32645D01*
Y16521D01*
X32651D01*
Y16515D01*
X32657D01*
Y16509D01*
X32662D01*
Y16504D01*
X32673D01*
Y16499D01*
X32678D01*
Y16493D01*
X32684D01*
Y16487D01*
X32689D01*
Y16482D01*
X32695D01*
Y16477D01*
X32701D01*
Y16471D01*
X32706D01*
Y16466D01*
X32712D01*
Y16460D01*
X32717D01*
Y16454D01*
X32722D01*
Y16449D01*
X32728D01*
Y16444D01*
X32734D01*
Y16438D01*
X32739D01*
Y16432D01*
X32750D01*
Y16427D01*
X32755D01*
Y16422D01*
X32761D01*
Y16416D01*
X32766D01*
Y16410D01*
X32772D01*
Y16405D01*
X32783D01*
Y16400D01*
X32789D01*
Y16394D01*
X32794D01*
Y16388D01*
X32799D01*
Y16383D01*
X32805D01*
Y16378D01*
X32810D01*
Y16372D01*
X32816D01*
Y16366D01*
X32827D01*
Y16361D01*
X32833D01*
Y16356D01*
X32838D01*
Y16350D01*
X32849D01*
Y16344D01*
X32854D01*
Y16339D01*
X32860D01*
Y16334D01*
X32866D01*
Y16328D01*
X32877D01*
Y16322D01*
X32882D01*
Y16317D01*
X32887D01*
Y16312D01*
X32898D01*
Y16306D01*
X32910D01*
Y16300D01*
X32915D01*
Y16295D01*
X32926D01*
Y16289D01*
X32931D01*
Y16284D01*
X32948D01*
Y16279D01*
X32954D01*
Y16273D01*
X32970D01*
Y16267D01*
X32987D01*
Y16262D01*
X33003D01*
Y16257D01*
X33080D01*
Y16262D01*
X33096D01*
Y16267D01*
X33119D01*
Y16273D01*
X33135D01*
Y16279D01*
X33146D01*
Y16284D01*
X33163D01*
Y16289D01*
X33173D01*
Y16295D01*
X33184D01*
Y16300D01*
X33190D01*
Y16306D01*
X33201D01*
Y16312D01*
X33212D01*
Y16317D01*
X33217D01*
Y16322D01*
X33228D01*
Y16328D01*
X33234D01*
Y16334D01*
X33245D01*
Y16339D01*
X33251D01*
Y16344D01*
X33256D01*
Y16350D01*
X33267D01*
Y16356D01*
X33273D01*
Y16361D01*
X33278D01*
Y16366D01*
X33284D01*
Y16372D01*
X33289D01*
Y16378D01*
X33294D01*
Y16383D01*
X33300D01*
Y16388D01*
X33305D01*
Y16394D01*
X33311D01*
Y16400D01*
X33317D01*
Y16405D01*
X33322D01*
Y16410D01*
X33328D01*
Y16416D01*
X33333D01*
Y16422D01*
X33338D01*
Y16427D01*
X33344D01*
Y16432D01*
X33349D01*
Y16438D01*
X33355D01*
Y16444D01*
X33361D01*
Y16449D01*
X33366D01*
Y16454D01*
X33372D01*
Y16466D01*
X33377D01*
Y16471D01*
X33382D01*
Y16477D01*
X33388D01*
Y16482D01*
X33393D01*
Y16493D01*
X33399D01*
Y16499D01*
X33405D01*
Y16504D01*
X33410D01*
Y16515D01*
X33416D01*
Y16521D01*
X33421D01*
Y16531D01*
X33426D01*
Y16537D01*
X33432D01*
Y16548D01*
X33438D01*
Y16559D01*
X33443D01*
Y16565D01*
X33449D01*
Y16575D01*
X33454D01*
Y16581D01*
X33459D01*
Y16592D01*
X33465D01*
Y16603D01*
X33470D01*
Y16614D01*
X33476D01*
Y16625D01*
X33482D01*
Y16636D01*
X33487D01*
Y16652D01*
X33493D01*
Y16664D01*
X33498D01*
Y16674D01*
X33503D01*
Y16691D01*
X33509D01*
Y16702D01*
X33514D01*
Y16718D01*
X33520D01*
Y16735D01*
X33526D01*
Y16752D01*
X33531D01*
Y16774D01*
X33537D01*
Y16784D01*
X33542D01*
Y16818D01*
X33547D01*
Y16834D01*
X33553D01*
Y16867D01*
X33558D01*
Y16900D01*
X33564D01*
Y16939D01*
X33570D01*
Y17070D01*
X33575D01*
Y17285D01*
X33570D01*
Y17400D01*
X33564D01*
Y17450D01*
X33558D01*
Y17505D01*
X33553D01*
Y17555D01*
X33547D01*
Y17587D01*
X33542D01*
Y17643D01*
X33537D01*
Y17670D01*
X33531D01*
Y17708D01*
X33526D01*
Y17742D01*
X33520D01*
Y17769D01*
X33514D01*
Y17808D01*
X33509D01*
Y17824D01*
X33503D01*
Y17862D01*
X33498D01*
Y17890D01*
X33493D01*
Y17912D01*
X33487D01*
Y17945D01*
X33482D01*
Y17961D01*
X33476D01*
Y17995D01*
X33470D01*
Y18017D01*
X33465D01*
Y18044D01*
X33459D01*
Y18072D01*
X33454D01*
Y18088D01*
X33449D01*
Y18121D01*
X33443D01*
Y18138D01*
X33438D01*
Y18165D01*
X33432D01*
Y18182D01*
X33426D01*
Y18204D01*
X33421D01*
Y18231D01*
X33416D01*
Y18247D01*
X33410D01*
Y18275D01*
X33405D01*
Y18291D01*
X33399D01*
Y18313D01*
X33393D01*
Y18330D01*
X33388D01*
Y18347D01*
X33382D01*
Y18374D01*
X33377D01*
Y18385D01*
X33372D01*
Y18412D01*
X33366D01*
Y18429D01*
X33361D01*
Y18446D01*
X33355D01*
Y18468D01*
X33349D01*
Y18484D01*
X33344D01*
Y18512D01*
X33338D01*
Y18522D01*
X33333D01*
Y18544D01*
X33328D01*
Y18561D01*
X33322D01*
Y18578D01*
X33317D01*
Y18605D01*
X33311D01*
Y18616D01*
X33305D01*
Y18638D01*
X33300D01*
Y18655D01*
X33294D01*
Y18671D01*
X33289D01*
Y18693D01*
X33284D01*
Y18704D01*
X33278D01*
Y18726D01*
X33273D01*
Y18737D01*
X33267D01*
Y18759D01*
X33261D01*
Y18776D01*
X33256D01*
Y18786D01*
X33251D01*
Y18808D01*
X33245D01*
Y18820D01*
X33240D01*
Y18842D01*
X33234D01*
Y18858D01*
X33228D01*
Y18874D01*
X33223D01*
Y18896D01*
X33217D01*
Y18908D01*
X33212D01*
Y18930D01*
X33207D01*
Y18941D01*
X33201D01*
Y18957D01*
X33196D01*
Y18973D01*
X33190D01*
Y18985D01*
X33184D01*
Y19007D01*
X33179D01*
Y19017D01*
X33173D01*
Y19039D01*
X33168D01*
Y19051D01*
X33163D01*
Y19067D01*
X33157D01*
Y19083D01*
X33152D01*
Y19095D01*
X33146D01*
Y19116D01*
X33140D01*
Y19128D01*
X33135D01*
Y19144D01*
X33129D01*
Y19160D01*
X33124D01*
Y19172D01*
X33119D01*
Y19188D01*
X33113D01*
Y19199D01*
X33108D01*
Y19221D01*
X33102D01*
Y19232D01*
X33096D01*
Y19243D01*
X33091D01*
Y19265D01*
X33085D01*
Y19270D01*
X33080D01*
Y19293D01*
X33075D01*
Y19303D01*
X33069D01*
Y19320D01*
X33063D01*
Y19337D01*
X33058D01*
Y19347D01*
X33052D01*
Y19364D01*
X33047D01*
Y19375D01*
X33042D01*
Y19391D01*
X33036D01*
Y19403D01*
X33031D01*
Y19419D01*
X33025D01*
Y19435D01*
X33019D01*
Y19441D01*
X33014D01*
Y19463D01*
X33008D01*
Y19468D01*
X33003D01*
Y19485D01*
X32998D01*
Y19502D01*
X32992D01*
Y19512D01*
X32987D01*
Y19529D01*
X32981D01*
Y19534D01*
X32975D01*
Y19551D01*
X32970D01*
Y19568D01*
X32964D01*
Y19578D01*
X32959D01*
Y19595D01*
X32954D01*
Y19600D01*
X32948D01*
Y19617D01*
X32943D01*
Y19628D01*
X32937D01*
Y19645D01*
X32931D01*
Y19655D01*
X32926D01*
Y19667D01*
X32920D01*
Y19683D01*
X32915D01*
Y19694D01*
X32910D01*
Y19711D01*
X32904D01*
Y19721D01*
X32898D01*
Y19733D01*
X32893D01*
Y19749D01*
X32887D01*
Y19755D01*
X32882D01*
Y19771D01*
X32877D01*
Y19782D01*
X32871D01*
Y19799D01*
X32866D01*
Y19809D01*
X32860D01*
Y19820D01*
X32854D01*
Y19832D01*
X32849D01*
Y19842D01*
X32843D01*
Y19859D01*
X32838D01*
Y19870D01*
X32833D01*
Y19881D01*
X32827D01*
Y19892D01*
X32822D01*
Y19898D01*
X32816D01*
Y19908D01*
X32805D01*
Y19914D01*
X32794D01*
Y19920D01*
X32789D01*
Y19925D01*
X32778D01*
Y19930D01*
X32772D01*
Y19936D01*
X32755D01*
Y19942D01*
X32750D01*
Y19947D01*
X32739D01*
Y19952D01*
X32728D01*
Y19958D01*
X32722D01*
Y19964D01*
X32706D01*
Y19969D01*
X32701D01*
Y19974D01*
X32684D01*
Y19980D01*
X32673D01*
Y19986D01*
X32668D01*
Y19991D01*
X32651D01*
Y19997D01*
X32645D01*
Y20002D01*
X32629D01*
Y20008D01*
X32618D01*
Y20013D01*
X32607D01*
Y20018D01*
X32590D01*
Y20024D01*
X32585D01*
Y20029D01*
X32569D01*
Y20035D01*
X32557D01*
Y20041D01*
X32541D01*
Y20046D01*
X32530D01*
Y20052D01*
X32519D01*
Y20057D01*
X32503D01*
Y20062D01*
X32492D01*
Y20068D01*
X32469D01*
Y20073D01*
X32464D01*
Y20079D01*
X32448D01*
Y20085D01*
X32431D01*
Y20090D01*
X32420D01*
Y20096D01*
X32398D01*
Y20101D01*
X32381D01*
Y20106D01*
X32365D01*
Y20112D01*
X32348D01*
Y20117D01*
X32332D01*
Y20123D01*
X32310D01*
Y20129D01*
X32294D01*
Y20134D01*
X32271D01*
Y20140D01*
X32255D01*
Y20145D01*
X32227D01*
Y20150D01*
X32206D01*
Y20156D01*
X32183D01*
Y20161D01*
X32145D01*
Y20167D01*
X32118D01*
Y20173D01*
X32074D01*
Y20178D01*
X32035D01*
Y20183D01*
X31997D01*
Y20189D01*
X31941D01*
Y20194D01*
X31892D01*
Y20200D01*
D02*
G37*
%LPD*%
G36*
X30473Y20282D02*
X30501D01*
Y20277D01*
X30522D01*
Y20271D01*
X30533D01*
Y20266D01*
X30550D01*
Y20261D01*
X30561D01*
Y20255D01*
X30572D01*
Y20250D01*
X30583D01*
Y20244D01*
X30589D01*
Y20238D01*
X30600D01*
Y20233D01*
X30605D01*
Y20227D01*
X30616D01*
Y20222D01*
X30622D01*
Y20217D01*
X30627D01*
Y20211D01*
X30638D01*
Y20200D01*
X30649D01*
Y20189D01*
X30654D01*
Y20183D01*
X30660D01*
Y20178D01*
X30666D01*
Y20173D01*
X30671D01*
Y20167D01*
X30677D01*
Y20156D01*
X30682D01*
Y20150D01*
X30687D01*
Y20145D01*
X30693D01*
Y20134D01*
X30698D01*
Y20129D01*
X30704D01*
Y20112D01*
X30710D01*
Y20101D01*
X30715D01*
Y20090D01*
X30721D01*
Y20073D01*
X30726D01*
Y20057D01*
X30731D01*
Y20024D01*
X30737D01*
Y19930D01*
X30731D01*
Y19898D01*
X30726D01*
Y19881D01*
X30721D01*
Y19864D01*
X30715D01*
Y19854D01*
X30710D01*
Y19842D01*
X30704D01*
Y19826D01*
X30698D01*
Y19820D01*
X30693D01*
Y19809D01*
X30687D01*
Y19804D01*
X30682D01*
Y19793D01*
X30677D01*
Y19787D01*
X30671D01*
Y19782D01*
X30666D01*
Y19771D01*
X30660D01*
Y19765D01*
X30654D01*
Y19760D01*
X30649D01*
Y19755D01*
X30643D01*
Y19749D01*
X30638D01*
Y19743D01*
X30633D01*
Y19738D01*
X30627D01*
Y19733D01*
X30622D01*
Y19727D01*
X30610D01*
Y19721D01*
X30605D01*
Y19716D01*
X30594D01*
Y19711D01*
X30583D01*
Y19705D01*
X30577D01*
Y19699D01*
X30566D01*
Y19694D01*
X30556D01*
Y19689D01*
X30545D01*
Y19683D01*
X30528D01*
Y19677D01*
X30512D01*
Y19672D01*
X30478D01*
Y19667D01*
X30451D01*
Y19661D01*
X30401D01*
Y19667D01*
X30374D01*
Y19672D01*
X30341D01*
Y19677D01*
X30330D01*
Y19683D01*
X30313D01*
Y19689D01*
X30297D01*
Y19694D01*
X30286D01*
Y19699D01*
X30275D01*
Y19705D01*
X30269D01*
Y19711D01*
X30259D01*
Y19716D01*
X30247D01*
Y19721D01*
X30242D01*
Y19727D01*
X30231D01*
Y19733D01*
X30226D01*
Y19738D01*
X30220D01*
Y19743D01*
X30215D01*
Y19749D01*
X30209D01*
Y19755D01*
X30203D01*
Y19760D01*
X30198D01*
Y19765D01*
X30192D01*
Y19771D01*
X30187D01*
Y19777D01*
X30182D01*
Y19782D01*
X30176D01*
Y19793D01*
X30171D01*
Y19799D01*
X30165D01*
Y19809D01*
X30159D01*
Y19820D01*
X30154D01*
Y19826D01*
X30148D01*
Y19837D01*
X30143D01*
Y19848D01*
X30138D01*
Y19864D01*
X30132D01*
Y19881D01*
X30127D01*
Y19898D01*
X30121D01*
Y19925D01*
X30115D01*
Y19964D01*
X30110D01*
Y19986D01*
X30115D01*
Y20029D01*
X30121D01*
Y20057D01*
X30127D01*
Y20073D01*
X30132D01*
Y20090D01*
X30138D01*
Y20106D01*
X30143D01*
Y20112D01*
X30148D01*
Y20129D01*
X30154D01*
Y20134D01*
X30159D01*
Y20145D01*
X30165D01*
Y20150D01*
X30171D01*
Y20161D01*
X30176D01*
Y20167D01*
X30182D01*
Y20173D01*
X30187D01*
Y20178D01*
X30192D01*
Y20189D01*
X30198D01*
Y20194D01*
X30203D01*
Y20200D01*
X30215D01*
Y20211D01*
X30226D01*
Y20217D01*
X30231D01*
Y20222D01*
X30236D01*
Y20227D01*
X30247D01*
Y20233D01*
X30253D01*
Y20238D01*
X30264D01*
Y20244D01*
X30269D01*
Y20250D01*
X30280D01*
Y20255D01*
X30292D01*
Y20261D01*
X30303D01*
Y20266D01*
X30319D01*
Y20271D01*
X30336D01*
Y20277D01*
X30352D01*
Y20282D01*
X30385D01*
Y20288D01*
X30473D01*
Y20282D01*
D02*
G37*
%LPC*%
G36*
Y20189D02*
X30380D01*
Y20183D01*
X30357D01*
Y20178D01*
X30347D01*
Y20173D01*
X30330D01*
Y20167D01*
X30324D01*
Y20161D01*
X30313D01*
Y20156D01*
X30303D01*
Y20150D01*
X30297D01*
Y20145D01*
X30292D01*
Y20140D01*
X30280D01*
Y20134D01*
X30275D01*
Y20129D01*
X30269D01*
Y20123D01*
X30264D01*
Y20117D01*
X30259D01*
Y20106D01*
X30253D01*
Y20101D01*
X30247D01*
Y20096D01*
X30242D01*
Y20085D01*
X30236D01*
Y20073D01*
X30231D01*
Y20062D01*
X30226D01*
Y20052D01*
X30220D01*
Y20041D01*
X30215D01*
Y20008D01*
X30209D01*
Y19942D01*
X30215D01*
Y19908D01*
X30220D01*
Y19898D01*
X30226D01*
Y19881D01*
X30231D01*
Y19870D01*
X30236D01*
Y19864D01*
X30242D01*
Y19854D01*
X30247D01*
Y19848D01*
X30253D01*
Y19837D01*
X30259D01*
Y19832D01*
X30264D01*
Y19826D01*
X30269D01*
Y19820D01*
X30275D01*
Y19815D01*
X30280D01*
Y19809D01*
X30286D01*
Y19804D01*
X30292D01*
Y19799D01*
X30297D01*
Y19793D01*
X30308D01*
Y19787D01*
X30319D01*
Y19782D01*
X30330D01*
Y19777D01*
X30341D01*
Y19771D01*
X30352D01*
Y19765D01*
X30380D01*
Y19760D01*
X30401D01*
Y19755D01*
X30451D01*
Y19760D01*
X30473D01*
Y19765D01*
X30501D01*
Y19771D01*
X30512D01*
Y19777D01*
X30522D01*
Y19782D01*
X30533D01*
Y19787D01*
X30539D01*
Y19793D01*
X30550D01*
Y19799D01*
X30556D01*
Y19804D01*
X30566D01*
Y19809D01*
X30572D01*
Y19815D01*
X30577D01*
Y19820D01*
X30583D01*
Y19826D01*
X30589D01*
Y19832D01*
X30594D01*
Y19837D01*
X30600D01*
Y19848D01*
X30605D01*
Y19854D01*
X30610D01*
Y19864D01*
X30616D01*
Y19876D01*
X30622D01*
Y19886D01*
X30627D01*
Y19898D01*
X30633D01*
Y19908D01*
X30638D01*
Y19947D01*
X30643D01*
Y20002D01*
X30638D01*
Y20035D01*
X30633D01*
Y20052D01*
X30627D01*
Y20062D01*
X30622D01*
Y20073D01*
X30616D01*
Y20085D01*
X30610D01*
Y20096D01*
X30605D01*
Y20101D01*
X30600D01*
Y20106D01*
X30594D01*
Y20117D01*
X30589D01*
Y20123D01*
X30583D01*
Y20129D01*
X30577D01*
Y20134D01*
X30572D01*
Y20140D01*
X30561D01*
Y20145D01*
X30556D01*
Y20150D01*
X30550D01*
Y20156D01*
X30539D01*
Y20161D01*
X30528D01*
Y20167D01*
X30522D01*
Y20173D01*
X30506D01*
Y20178D01*
X30489D01*
Y20183D01*
X30473D01*
Y20189D01*
D02*
G37*
%LPD*%
G36*
X28779Y19920D02*
X28801D01*
Y19914D01*
X28823D01*
Y19908D01*
X28845D01*
Y19903D01*
X28856D01*
Y19898D01*
X28872D01*
Y19892D01*
X28878D01*
Y19886D01*
X28889D01*
Y19881D01*
X28900D01*
Y19876D01*
X28905D01*
Y19870D01*
X28916D01*
Y19864D01*
X28922D01*
Y19859D01*
X28928D01*
Y19854D01*
X28933D01*
Y19848D01*
X28939D01*
Y19842D01*
X28944D01*
Y19837D01*
X28949D01*
Y19832D01*
X28955D01*
Y19826D01*
X28960D01*
Y19815D01*
X28966D01*
Y19809D01*
X28972D01*
Y19804D01*
X28977D01*
Y19793D01*
X28983D01*
Y19787D01*
X28988D01*
Y19777D01*
X28993D01*
Y19765D01*
X28999D01*
Y19749D01*
X29004D01*
Y19738D01*
X29010D01*
Y19721D01*
X29016D01*
Y19683D01*
X29021D01*
Y19628D01*
X29016D01*
Y19595D01*
Y19590D01*
Y19584D01*
X29010D01*
Y19573D01*
X29004D01*
Y19556D01*
X28999D01*
Y19540D01*
X28993D01*
Y19529D01*
X28988D01*
Y19518D01*
X28983D01*
Y19512D01*
X28977D01*
Y19502D01*
X28972D01*
Y19496D01*
X28966D01*
Y19485D01*
X28960D01*
Y19480D01*
X28955D01*
Y19474D01*
X28949D01*
Y19468D01*
X28944D01*
Y19463D01*
X28939D01*
Y19457D01*
X28933D01*
Y19452D01*
X28928D01*
Y19447D01*
X28922D01*
Y19441D01*
X28916D01*
Y19435D01*
X28905D01*
Y19430D01*
X28900D01*
Y19425D01*
X28889D01*
Y19419D01*
X28878D01*
Y19413D01*
X28872D01*
Y19408D01*
X28856D01*
Y19403D01*
X28845D01*
Y19397D01*
X28823D01*
Y19391D01*
X28807D01*
Y19386D01*
X28779D01*
Y19381D01*
X28719D01*
Y19386D01*
X28691D01*
Y19391D01*
X28674D01*
Y19397D01*
X28653D01*
Y19403D01*
X28642D01*
Y19408D01*
X28630D01*
Y19413D01*
X28619D01*
Y19419D01*
X28609D01*
Y19425D01*
X28603D01*
Y19430D01*
X28592D01*
Y19435D01*
X28586D01*
Y19441D01*
X28581D01*
Y19447D01*
X28570D01*
Y19452D01*
X28565D01*
Y19457D01*
X28559D01*
Y19463D01*
X28554D01*
Y19468D01*
X28548D01*
Y19474D01*
X28542D01*
Y19485D01*
X28537D01*
Y19490D01*
X28531D01*
Y19496D01*
X28526D01*
Y19507D01*
X28521D01*
Y19518D01*
X28515D01*
Y19524D01*
X28510D01*
Y19534D01*
X28504D01*
Y19546D01*
X28498D01*
Y19568D01*
X28493D01*
Y19578D01*
X28488D01*
Y19606D01*
X28482D01*
Y19699D01*
X28488D01*
Y19727D01*
X28493D01*
Y19738D01*
X28498D01*
Y19760D01*
X28504D01*
Y19771D01*
X28510D01*
Y19782D01*
X28515D01*
Y19787D01*
X28521D01*
Y19799D01*
X28526D01*
Y19804D01*
X28531D01*
Y19815D01*
X28537D01*
Y19820D01*
X28542D01*
Y19826D01*
X28548D01*
Y19832D01*
X28554D01*
Y19842D01*
X28565D01*
Y19848D01*
X28570D01*
Y19854D01*
X28575D01*
Y19859D01*
X28581D01*
Y19864D01*
X28586D01*
Y19870D01*
X28598D01*
Y19876D01*
X28603D01*
Y19881D01*
X28614D01*
Y19886D01*
X28625D01*
Y19892D01*
X28630D01*
Y19898D01*
X28647D01*
Y19903D01*
X28653D01*
Y19908D01*
X28674D01*
Y19914D01*
X28696D01*
Y19920D01*
X28719D01*
Y19925D01*
X28779D01*
Y19920D01*
D02*
G37*
G36*
X30935Y19391D02*
X30951D01*
Y19386D01*
X30968D01*
Y19381D01*
X30984D01*
Y19375D01*
X30996D01*
Y19369D01*
X31007D01*
Y19364D01*
X31012D01*
Y19359D01*
X31017D01*
Y19353D01*
X31023D01*
Y19347D01*
X31034D01*
Y19342D01*
X31040D01*
Y19331D01*
X31045D01*
Y19325D01*
X31051D01*
Y19320D01*
X31056D01*
Y19315D01*
X31061D01*
Y19303D01*
X31067D01*
Y19298D01*
X31072D01*
Y19282D01*
X31078D01*
Y19270D01*
X31084D01*
Y19248D01*
X31089D01*
Y19166D01*
X31084D01*
Y19144D01*
X31078D01*
Y19133D01*
X31072D01*
Y19116D01*
X31067D01*
Y19111D01*
X31061D01*
Y19100D01*
X31056D01*
Y19095D01*
X31051D01*
Y19089D01*
X31045D01*
Y19078D01*
X31034D01*
Y19067D01*
X31023D01*
Y19061D01*
X31017D01*
Y19056D01*
X31012D01*
Y19051D01*
X31001D01*
Y19045D01*
X30996D01*
Y19039D01*
X30984D01*
Y19034D01*
X30973D01*
Y19029D01*
X30957D01*
Y19023D01*
X30935D01*
Y19017D01*
X30863D01*
Y19023D01*
X30842D01*
Y19029D01*
X30825D01*
Y19034D01*
X30814D01*
Y19039D01*
X30803D01*
Y19045D01*
X30798D01*
Y19051D01*
X30786D01*
Y19056D01*
X30781D01*
Y19061D01*
X30775D01*
Y19067D01*
X30770D01*
Y19073D01*
X30765D01*
Y19078D01*
X30759D01*
Y19083D01*
X30754D01*
Y19089D01*
X30748D01*
Y19095D01*
X30742D01*
Y19105D01*
X30737D01*
Y19111D01*
X30731D01*
Y19128D01*
X30726D01*
Y19138D01*
X30721D01*
Y19150D01*
X30715D01*
Y19182D01*
X30710D01*
Y19238D01*
X30715D01*
Y19265D01*
X30721D01*
Y19276D01*
X30726D01*
Y19287D01*
X30731D01*
Y19303D01*
X30737D01*
Y19309D01*
X30742D01*
Y19320D01*
X30748D01*
Y19325D01*
X30754D01*
Y19331D01*
X30759D01*
Y19337D01*
X30765D01*
Y19342D01*
X30770D01*
Y19347D01*
X30775D01*
Y19353D01*
X30781D01*
Y19359D01*
X30786D01*
Y19364D01*
X30798D01*
Y19369D01*
X30808D01*
Y19375D01*
X30814D01*
Y19381D01*
X30825D01*
Y19386D01*
X30842D01*
Y19391D01*
X30858D01*
Y19397D01*
X30935D01*
Y19391D01*
D02*
G37*
G36*
X30011D02*
X30022D01*
Y19386D01*
X30038D01*
Y19381D01*
X30050D01*
Y19375D01*
X30061D01*
Y19369D01*
X30071D01*
Y19364D01*
X30077D01*
Y19359D01*
X30082D01*
Y19353D01*
X30088D01*
Y19347D01*
X30094D01*
Y19342D01*
X30099D01*
Y19337D01*
X30104D01*
Y19331D01*
X30110D01*
Y19325D01*
X30115D01*
Y19315D01*
X30121D01*
Y19309D01*
X30127D01*
Y19298D01*
X30132D01*
Y19287D01*
X30138D01*
Y19270D01*
X30143D01*
Y19260D01*
X30148D01*
Y19160D01*
X30143D01*
Y19150D01*
X30138D01*
Y19128D01*
X30132D01*
Y19122D01*
X30127D01*
Y19111D01*
X30121D01*
Y19100D01*
X30115D01*
Y19095D01*
X30110D01*
Y19083D01*
X30104D01*
Y19078D01*
X30099D01*
Y19073D01*
X30094D01*
Y19067D01*
X30082D01*
Y19061D01*
X30077D01*
Y19056D01*
X30071D01*
Y19051D01*
X30061D01*
Y19045D01*
X30055D01*
Y19039D01*
X30038D01*
Y19034D01*
X30027D01*
Y19029D01*
X30006D01*
Y19023D01*
X29978D01*
Y19017D01*
X29945D01*
Y19023D01*
X29912D01*
Y19029D01*
X29890D01*
Y19034D01*
X29885D01*
Y19039D01*
X29868D01*
Y19045D01*
X29862D01*
Y19051D01*
X29852D01*
Y19056D01*
X29846D01*
Y19061D01*
X29835D01*
Y19067D01*
X29829D01*
Y19073D01*
X29824D01*
Y19078D01*
X29818D01*
Y19083D01*
X29813D01*
Y19095D01*
X29808D01*
Y19100D01*
X29802D01*
Y19105D01*
X29797D01*
Y19116D01*
X29791D01*
Y19133D01*
X29785D01*
Y19138D01*
X29780D01*
Y19166D01*
X29774D01*
Y19188D01*
X29769D01*
Y19232D01*
X29774D01*
Y19254D01*
X29780D01*
Y19276D01*
X29785D01*
Y19287D01*
X29791D01*
Y19298D01*
X29797D01*
Y19309D01*
X29802D01*
Y19315D01*
X29808D01*
Y19325D01*
X29813D01*
Y19331D01*
X29818D01*
Y19337D01*
X29824D01*
Y19342D01*
X29829D01*
Y19347D01*
X29835D01*
Y19353D01*
X29841D01*
Y19359D01*
X29846D01*
Y19364D01*
X29852D01*
Y19369D01*
X29862D01*
Y19375D01*
X29873D01*
Y19381D01*
X29885D01*
Y19386D01*
X29901D01*
Y19391D01*
X29912D01*
Y19397D01*
X30011D01*
Y19391D01*
D02*
G37*
G36*
X29258Y19468D02*
X29274D01*
Y19463D01*
X29296D01*
Y19457D01*
X29307D01*
Y19452D01*
X29318D01*
Y19447D01*
X29329D01*
Y19441D01*
X29334D01*
Y19435D01*
X29346D01*
Y19430D01*
X29351D01*
Y19425D01*
X29362D01*
Y19419D01*
X29367D01*
Y19413D01*
X29373D01*
Y19408D01*
X29378D01*
Y19403D01*
X29384D01*
Y19397D01*
X29390D01*
Y19391D01*
X29395D01*
Y19386D01*
X29400D01*
Y19381D01*
X29406D01*
Y19375D01*
X29411D01*
Y19369D01*
X29417D01*
Y19364D01*
X29423D01*
Y19353D01*
X29428D01*
Y19342D01*
X29434D01*
Y19337D01*
X29439D01*
Y19325D01*
X29444D01*
Y19315D01*
X29450D01*
Y19298D01*
X29455D01*
Y19282D01*
X29461D01*
Y19260D01*
X29467D01*
Y19155D01*
X29461D01*
Y19133D01*
X29455D01*
Y19116D01*
X29450D01*
Y19100D01*
X29444D01*
Y19095D01*
X29439D01*
Y19078D01*
X29434D01*
Y19073D01*
X29428D01*
Y19061D01*
X29423D01*
Y19051D01*
X29417D01*
Y19045D01*
X29411D01*
Y19039D01*
X29406D01*
Y19034D01*
X29400D01*
Y19029D01*
X29395D01*
Y19017D01*
X29390D01*
Y19012D01*
X29384D01*
Y19007D01*
X29378D01*
Y19001D01*
X29367D01*
Y18995D01*
X29362D01*
Y18990D01*
X29357D01*
Y18985D01*
X29346D01*
Y18979D01*
X29340D01*
Y18973D01*
X29329D01*
Y18968D01*
X29318D01*
Y18963D01*
X29307D01*
Y18957D01*
X29290D01*
Y18951D01*
X29279D01*
Y18946D01*
X29252D01*
Y18941D01*
X29230D01*
Y18935D01*
X29164D01*
Y18941D01*
X29142D01*
Y18946D01*
X29114D01*
Y18951D01*
X29104D01*
Y18957D01*
X29093D01*
Y18963D01*
X29076D01*
Y18968D01*
X29070D01*
Y18973D01*
X29060D01*
Y18979D01*
X29049D01*
Y18985D01*
X29043D01*
Y18990D01*
X29032D01*
Y18995D01*
X29027D01*
Y19001D01*
X29021D01*
Y19007D01*
X29016D01*
Y19012D01*
X29010D01*
Y19017D01*
X29004D01*
Y19023D01*
X28999D01*
Y19029D01*
X28993D01*
Y19034D01*
X28988D01*
Y19045D01*
X28983D01*
Y19051D01*
X28977D01*
Y19056D01*
X28972D01*
Y19067D01*
X28966D01*
Y19073D01*
X28960D01*
Y19089D01*
X28955D01*
Y19095D01*
X28949D01*
Y19111D01*
X28944D01*
Y19122D01*
X28939D01*
Y19138D01*
X28933D01*
Y19177D01*
X28928D01*
Y19238D01*
X28933D01*
Y19276D01*
X28939D01*
Y19287D01*
X28944D01*
Y19303D01*
X28949D01*
Y19320D01*
X28955D01*
Y19325D01*
X28960D01*
Y19342D01*
X28966D01*
Y19347D01*
X28972D01*
Y19359D01*
X28977D01*
Y19364D01*
X28983D01*
Y19369D01*
X28988D01*
Y19381D01*
X28993D01*
Y19386D01*
X28999D01*
Y19391D01*
X29004D01*
Y19397D01*
X29010D01*
Y19403D01*
X29016D01*
Y19408D01*
X29021D01*
Y19413D01*
X29027D01*
Y19419D01*
X29037D01*
Y19425D01*
X29043D01*
Y19430D01*
X29049D01*
Y19435D01*
X29060D01*
Y19441D01*
X29070D01*
Y19447D01*
X29081D01*
Y19452D01*
X29093D01*
Y19457D01*
X29104D01*
Y19463D01*
X29125D01*
Y19468D01*
X29137D01*
Y19474D01*
X29258D01*
Y19468D01*
D02*
G37*
G36*
X28356D02*
X28372D01*
Y19463D01*
X28394D01*
Y19457D01*
X28405D01*
Y19452D01*
X28416D01*
Y19447D01*
X28427D01*
Y19441D01*
X28433D01*
Y19435D01*
X28444D01*
Y19430D01*
X28449D01*
Y19425D01*
X28460D01*
Y19419D01*
X28465D01*
Y19413D01*
X28471D01*
Y19408D01*
X28482D01*
Y19403D01*
X28488D01*
Y19397D01*
X28493D01*
Y19391D01*
X28498D01*
Y19381D01*
X28504D01*
Y19375D01*
X28510D01*
Y19369D01*
X28515D01*
Y19364D01*
X28521D01*
Y19353D01*
X28526D01*
Y19342D01*
X28531D01*
Y19337D01*
X28537D01*
Y19325D01*
X28542D01*
Y19315D01*
X28548D01*
Y19303D01*
X28554D01*
Y19282D01*
X28559D01*
Y19265D01*
X28565D01*
Y19150D01*
X28559D01*
Y19133D01*
X28554D01*
Y19111D01*
X28548D01*
Y19100D01*
X28542D01*
Y19089D01*
X28537D01*
Y19078D01*
X28531D01*
Y19067D01*
X28526D01*
Y19056D01*
X28521D01*
Y19051D01*
X28515D01*
Y19045D01*
X28510D01*
Y19039D01*
X28504D01*
Y19034D01*
X28498D01*
Y19023D01*
X28493D01*
Y19017D01*
X28488D01*
Y19012D01*
X28477D01*
Y19007D01*
X28471D01*
Y19001D01*
X28465D01*
Y18995D01*
X28460D01*
Y18990D01*
X28454D01*
Y18985D01*
X28444D01*
Y18979D01*
X28438D01*
Y18973D01*
X28427D01*
Y18968D01*
X28416D01*
Y18963D01*
X28405D01*
Y18957D01*
X28389D01*
Y18951D01*
X28377D01*
Y18946D01*
X28350D01*
Y18941D01*
X28323D01*
Y18935D01*
X28268D01*
Y18941D01*
X28240D01*
Y18946D01*
X28212D01*
Y18951D01*
X28201D01*
Y18957D01*
X28191D01*
Y18963D01*
X28174D01*
Y18968D01*
X28168D01*
Y18973D01*
X28157D01*
Y18979D01*
X28147D01*
Y18985D01*
X28141D01*
Y18990D01*
X28130D01*
Y18995D01*
X28124D01*
Y19001D01*
X28119D01*
Y19007D01*
X28114D01*
Y19012D01*
X28108D01*
Y19017D01*
X28103D01*
Y19023D01*
X28097D01*
Y19029D01*
X28091D01*
Y19034D01*
X28086D01*
Y19039D01*
X28080D01*
Y19051D01*
X28075D01*
Y19056D01*
X28070D01*
Y19067D01*
X28064D01*
Y19078D01*
X28059D01*
Y19083D01*
X28053D01*
Y19100D01*
X28047D01*
Y19111D01*
X28042D01*
Y19128D01*
X28036D01*
Y19155D01*
X28031D01*
Y19177D01*
X28026D01*
Y19238D01*
X28031D01*
Y19260D01*
X28036D01*
Y19287D01*
X28042D01*
Y19303D01*
X28047D01*
Y19315D01*
X28053D01*
Y19325D01*
X28059D01*
Y19337D01*
X28064D01*
Y19347D01*
X28070D01*
Y19353D01*
X28075D01*
Y19364D01*
X28080D01*
Y19369D01*
X28086D01*
Y19381D01*
X28091D01*
Y19386D01*
X28097D01*
Y19391D01*
X28103D01*
Y19397D01*
X28108D01*
Y19403D01*
X28114D01*
Y19408D01*
X28119D01*
Y19413D01*
X28124D01*
Y19419D01*
X28135D01*
Y19425D01*
X28141D01*
Y19430D01*
X28147D01*
Y19435D01*
X28157D01*
Y19441D01*
X28168D01*
Y19447D01*
X28180D01*
Y19452D01*
X28191D01*
Y19457D01*
X28201D01*
Y19463D01*
X28224D01*
Y19468D01*
X28235D01*
Y19474D01*
X28356D01*
Y19468D01*
D02*
G37*
G36*
X32106Y19804D02*
X32189D01*
Y19799D01*
X32211D01*
Y19793D01*
X32244D01*
Y19787D01*
X32260D01*
Y19782D01*
X32277D01*
Y19777D01*
X32299D01*
Y19771D01*
X32304D01*
Y19765D01*
X32327D01*
Y19760D01*
X32332D01*
Y19755D01*
X32348D01*
Y19749D01*
X32359D01*
Y19743D01*
X32371D01*
Y19738D01*
X32381D01*
Y19733D01*
X32387D01*
Y19727D01*
X32398D01*
Y19721D01*
X32409D01*
Y19716D01*
X32415D01*
Y19711D01*
X32425D01*
Y19705D01*
X32431D01*
Y19699D01*
X32442D01*
Y19694D01*
X32448D01*
Y19689D01*
X32453D01*
Y19683D01*
X32464D01*
Y19677D01*
X32469D01*
Y19672D01*
X32475D01*
Y19667D01*
X32480D01*
Y19661D01*
X32492D01*
Y19655D01*
X32497D01*
Y19650D01*
X32503D01*
Y19645D01*
X32508D01*
Y19639D01*
X32513D01*
Y19634D01*
X32519D01*
Y19628D01*
X32524D01*
Y19617D01*
X32530D01*
Y19612D01*
X32536D01*
Y19606D01*
X32541D01*
Y19600D01*
X32547D01*
Y19595D01*
X32552D01*
Y19584D01*
X32557D01*
Y19578D01*
X32563D01*
Y19573D01*
X32569D01*
Y19568D01*
X32574D01*
Y19556D01*
X32580D01*
Y19551D01*
X32585D01*
Y19540D01*
X32590D01*
Y19534D01*
X32596D01*
Y19524D01*
X32601D01*
Y19512D01*
X32607D01*
Y19502D01*
X32613D01*
Y19496D01*
X32618D01*
Y19480D01*
X32624D01*
Y19474D01*
X32629D01*
Y19457D01*
X32634D01*
Y19447D01*
X32640D01*
Y19435D01*
X32645D01*
Y19419D01*
X32651D01*
Y19403D01*
X32657D01*
Y19381D01*
X32662D01*
Y19364D01*
X32668D01*
Y19342D01*
X32673D01*
Y19303D01*
X32678D01*
Y19265D01*
X32684D01*
Y19188D01*
X32678D01*
Y19144D01*
X32673D01*
Y19105D01*
X32668D01*
Y19089D01*
X32662D01*
Y19073D01*
X32657D01*
Y19045D01*
X32651D01*
Y19034D01*
X32645D01*
Y19017D01*
X32640D01*
Y19007D01*
X32634D01*
Y18990D01*
X32629D01*
Y18979D01*
X32624D01*
Y18968D01*
X32618D01*
Y18957D01*
X32613D01*
Y18946D01*
X32607D01*
Y18935D01*
X32601D01*
Y18930D01*
X32596D01*
Y18918D01*
X32590D01*
Y18908D01*
X32585D01*
Y18902D01*
X32580D01*
Y18891D01*
X32574D01*
Y18886D01*
X32569D01*
Y18880D01*
X32563D01*
Y18869D01*
X32557D01*
Y18864D01*
X32552D01*
Y18858D01*
X32547D01*
Y18852D01*
X32541D01*
Y18842D01*
X32536D01*
Y18836D01*
X32530D01*
Y18830D01*
X32524D01*
Y18825D01*
X32519D01*
Y18820D01*
X32513D01*
Y18814D01*
X32508D01*
Y18808D01*
X32503D01*
Y18803D01*
X32497D01*
Y18798D01*
X32492D01*
Y18792D01*
X32486D01*
Y18786D01*
X32475D01*
Y18781D01*
X32469D01*
Y18776D01*
X32464D01*
Y18770D01*
X32459D01*
Y18764D01*
X32448D01*
Y18759D01*
X32442D01*
Y18753D01*
X32436D01*
Y18748D01*
X32425D01*
Y18743D01*
X32420D01*
Y18737D01*
X32409D01*
Y18731D01*
X32404D01*
Y18726D01*
X32392D01*
Y18721D01*
X32381D01*
Y18715D01*
X32376D01*
Y18709D01*
X32359D01*
Y18704D01*
X32354D01*
Y18699D01*
X32338D01*
Y18693D01*
X32327D01*
Y18687D01*
X32315D01*
Y18682D01*
X32299D01*
Y18677D01*
X32288D01*
Y18671D01*
X32260D01*
Y18665D01*
X32250D01*
Y18660D01*
X32222D01*
Y18655D01*
X32194D01*
Y18649D01*
X32162D01*
Y18643D01*
X32041D01*
Y18649D01*
X32008D01*
Y18655D01*
X31980D01*
Y18660D01*
X31953D01*
Y18665D01*
X31941D01*
Y18671D01*
X31920D01*
Y18677D01*
X31909D01*
Y18682D01*
X31886D01*
Y18687D01*
X31876D01*
Y18693D01*
X31865D01*
Y18699D01*
X31848D01*
Y18704D01*
X31843D01*
Y18709D01*
X31832D01*
Y18715D01*
X31820D01*
Y18721D01*
X31809D01*
Y18726D01*
X31799D01*
Y18731D01*
X31793D01*
Y18737D01*
X31782D01*
Y18743D01*
X31776D01*
Y18748D01*
X31765D01*
Y18753D01*
X31760D01*
Y18759D01*
X31755D01*
Y18764D01*
X31744D01*
Y18770D01*
X31738D01*
Y18776D01*
X31732D01*
Y18781D01*
X31727D01*
Y18786D01*
X31716D01*
Y18792D01*
X31711D01*
Y18798D01*
X31705D01*
Y18803D01*
X31700D01*
Y18808D01*
X31694D01*
Y18814D01*
X31688D01*
Y18820D01*
X31683D01*
Y18825D01*
X31677D01*
Y18830D01*
X31672D01*
Y18836D01*
X31667D01*
Y18842D01*
X31661D01*
Y18852D01*
X31655D01*
Y18858D01*
X31650D01*
Y18864D01*
X31644D01*
Y18869D01*
X31639D01*
Y18880D01*
X31634D01*
Y18886D01*
X31628D01*
Y18891D01*
X31623D01*
Y18902D01*
X31617D01*
Y18908D01*
X31611D01*
Y18918D01*
X31606D01*
Y18924D01*
X31600D01*
Y18935D01*
X31595D01*
Y18946D01*
X31590D01*
Y18957D01*
X31584D01*
Y18968D01*
X31579D01*
Y18979D01*
X31573D01*
Y18990D01*
X31567D01*
Y19001D01*
X31562D01*
Y19017D01*
X31556D01*
Y19029D01*
X31551D01*
Y19051D01*
X31546D01*
Y19067D01*
X31540D01*
Y19083D01*
X31535D01*
Y19111D01*
X31529D01*
Y19133D01*
X31523D01*
Y19194D01*
X31518D01*
Y19265D01*
X31523D01*
Y19325D01*
X31529D01*
Y19347D01*
X31535D01*
Y19375D01*
X31540D01*
Y19391D01*
X31546D01*
Y19408D01*
X31551D01*
Y19430D01*
X31556D01*
Y19441D01*
X31562D01*
Y19457D01*
X31567D01*
Y19468D01*
X31573D01*
Y19480D01*
X31579D01*
Y19490D01*
X31584D01*
Y19502D01*
X31590D01*
Y19512D01*
X31595D01*
Y19524D01*
X31600D01*
Y19534D01*
X31606D01*
Y19540D01*
X31611D01*
Y19551D01*
X31617D01*
Y19556D01*
X31623D01*
Y19562D01*
X31628D01*
Y19573D01*
X31634D01*
Y19578D01*
X31639D01*
Y19590D01*
X31644D01*
Y19595D01*
X31650D01*
Y19600D01*
X31655D01*
Y19606D01*
X31661D01*
Y19612D01*
X31667D01*
Y19617D01*
X31672D01*
Y19622D01*
X31677D01*
Y19634D01*
X31683D01*
Y19639D01*
X31688D01*
Y19645D01*
X31700D01*
Y19650D01*
X31705D01*
Y19655D01*
X31711D01*
Y19661D01*
X31716D01*
Y19667D01*
X31721D01*
Y19672D01*
X31727D01*
Y19677D01*
X31732D01*
Y19683D01*
X31744D01*
Y19689D01*
X31749D01*
Y19694D01*
X31755D01*
Y19699D01*
X31765D01*
Y19705D01*
X31771D01*
Y19711D01*
X31782D01*
Y19716D01*
X31788D01*
Y19721D01*
X31799D01*
Y19727D01*
X31809D01*
Y19733D01*
X31815D01*
Y19738D01*
X31826D01*
Y19743D01*
X31837D01*
Y19749D01*
X31848D01*
Y19755D01*
X31865D01*
Y19760D01*
X31870D01*
Y19765D01*
X31892D01*
Y19771D01*
X31903D01*
Y19777D01*
X31920D01*
Y19782D01*
X31936D01*
Y19787D01*
X31953D01*
Y19793D01*
X31985D01*
Y19799D01*
X32002D01*
Y19804D01*
X32085D01*
Y19809D01*
X32106D01*
Y19804D01*
D02*
G37*
G36*
X28807Y19023D02*
X28828D01*
Y19017D01*
X28839D01*
Y19012D01*
X28856D01*
Y19007D01*
X28867D01*
Y19001D01*
X28878D01*
Y18995D01*
X28889D01*
Y18990D01*
X28895D01*
Y18985D01*
X28905D01*
Y18979D01*
X28911D01*
Y18973D01*
X28922D01*
Y18968D01*
X28928D01*
Y18963D01*
X28933D01*
Y18957D01*
X28939D01*
Y18951D01*
X28944D01*
Y18946D01*
X28949D01*
Y18941D01*
X28955D01*
Y18935D01*
X28960D01*
Y18924D01*
X28966D01*
Y18918D01*
X28972D01*
Y18913D01*
X28977D01*
Y18902D01*
X28983D01*
Y18896D01*
X28988D01*
Y18880D01*
X28993D01*
Y18874D01*
X28999D01*
Y18858D01*
X29004D01*
Y18842D01*
X29010D01*
Y18830D01*
X29016D01*
Y18792D01*
X29021D01*
Y18731D01*
X29016D01*
Y18693D01*
X29010D01*
Y18677D01*
X29004D01*
Y18660D01*
X28999D01*
Y18649D01*
X28993D01*
Y18638D01*
X28988D01*
Y18627D01*
X28983D01*
Y18621D01*
X28977D01*
Y18611D01*
X28972D01*
Y18605D01*
X28966D01*
Y18594D01*
X28960D01*
Y18589D01*
X28955D01*
Y18583D01*
X28949D01*
Y18578D01*
X28944D01*
Y18572D01*
X28939D01*
Y18566D01*
X28933D01*
Y18561D01*
X28928D01*
Y18556D01*
X28922D01*
Y18550D01*
X28911D01*
Y18544D01*
X28905D01*
Y18539D01*
X28895D01*
Y18534D01*
X28889D01*
Y18528D01*
X28878D01*
Y18522D01*
X28867D01*
Y18517D01*
X28856D01*
Y18512D01*
X28839D01*
Y18506D01*
X28828D01*
Y18500D01*
X28801D01*
Y18495D01*
X28774D01*
Y18490D01*
X28730D01*
Y18495D01*
X28696D01*
Y18500D01*
X28669D01*
Y18506D01*
X28658D01*
Y18512D01*
X28642D01*
Y18517D01*
X28630D01*
Y18522D01*
X28619D01*
Y18528D01*
X28609D01*
Y18534D01*
X28603D01*
Y18539D01*
X28592D01*
Y18544D01*
X28586D01*
Y18550D01*
X28581D01*
Y18556D01*
X28570D01*
Y18561D01*
X28565D01*
Y18566D01*
X28559D01*
Y18572D01*
X28554D01*
Y18578D01*
X28548D01*
Y18589D01*
X28542D01*
Y18594D01*
X28537D01*
Y18599D01*
X28531D01*
Y18605D01*
X28526D01*
Y18616D01*
X28521D01*
Y18621D01*
X28515D01*
Y18633D01*
X28510D01*
Y18643D01*
X28504D01*
Y18655D01*
X28498D01*
Y18671D01*
X28493D01*
Y18687D01*
X28488D01*
Y18715D01*
X28482D01*
Y18808D01*
X28488D01*
Y18836D01*
X28493D01*
Y18847D01*
X28498D01*
Y18869D01*
X28504D01*
Y18874D01*
X28510D01*
Y18886D01*
X28515D01*
Y18896D01*
X28521D01*
Y18908D01*
X28526D01*
Y18918D01*
X28531D01*
Y18924D01*
X28537D01*
Y18930D01*
X28542D01*
Y18935D01*
X28548D01*
Y18941D01*
X28554D01*
Y18946D01*
X28559D01*
Y18951D01*
X28565D01*
Y18957D01*
X28570D01*
Y18963D01*
X28575D01*
Y18968D01*
X28581D01*
Y18973D01*
X28586D01*
Y18979D01*
X28592D01*
Y18985D01*
X28603D01*
Y18990D01*
X28614D01*
Y18995D01*
X28619D01*
Y19001D01*
X28636D01*
Y19007D01*
X28642D01*
Y19012D01*
X28658D01*
Y19017D01*
X28674D01*
Y19023D01*
X28691D01*
Y19029D01*
X28807D01*
Y19023D01*
D02*
G37*
G36*
X29576Y18803D02*
X29659D01*
Y18798D01*
X29681D01*
Y18792D01*
X29708D01*
Y18786D01*
X29731D01*
Y18781D01*
X29747D01*
Y18776D01*
X29769D01*
Y18770D01*
X29780D01*
Y18764D01*
X29797D01*
Y18759D01*
X29808D01*
Y18753D01*
X29818D01*
Y18748D01*
X29829D01*
Y18743D01*
X29841D01*
Y18737D01*
X29852D01*
Y18731D01*
X29862D01*
Y18726D01*
X29873D01*
Y18721D01*
X29879D01*
Y18715D01*
X29890D01*
Y18709D01*
X29896D01*
Y18704D01*
X29901D01*
Y18699D01*
X29912D01*
Y18693D01*
X29918D01*
Y18687D01*
X29929D01*
Y18682D01*
X29934D01*
Y18677D01*
X29939D01*
Y18671D01*
X29950D01*
Y18660D01*
X29962D01*
Y18655D01*
X29967D01*
Y18649D01*
X29973D01*
Y18643D01*
X29978D01*
Y18638D01*
X29983D01*
Y18633D01*
X29989D01*
Y18627D01*
X29994D01*
Y18621D01*
X30000D01*
Y18616D01*
X30006D01*
Y18605D01*
X30011D01*
Y18599D01*
X30017D01*
Y18594D01*
X30022D01*
Y18589D01*
X30027D01*
Y18583D01*
X30033D01*
Y18572D01*
X30038D01*
Y18566D01*
X30044D01*
Y18556D01*
X30050D01*
Y18550D01*
X30055D01*
Y18539D01*
X30061D01*
Y18534D01*
X30066D01*
Y18522D01*
X30071D01*
Y18512D01*
X30077D01*
Y18506D01*
X30082D01*
Y18490D01*
X30088D01*
Y18484D01*
X30094D01*
Y18473D01*
X30099D01*
Y18456D01*
X30104D01*
Y18446D01*
X30110D01*
Y18429D01*
X30115D01*
Y18418D01*
X30121D01*
Y18396D01*
X30127D01*
Y18379D01*
X30132D01*
Y18363D01*
X30138D01*
Y18325D01*
X30143D01*
Y18297D01*
X30148D01*
Y18160D01*
X30143D01*
Y18132D01*
X30138D01*
Y18094D01*
X30132D01*
Y18077D01*
X30127D01*
Y18060D01*
X30121D01*
Y18039D01*
X30115D01*
Y18027D01*
X30110D01*
Y18005D01*
X30104D01*
Y18000D01*
X30099D01*
Y17983D01*
X30094D01*
Y17973D01*
X30088D01*
Y17961D01*
X30082D01*
Y17951D01*
X30077D01*
Y17945D01*
X30071D01*
Y17929D01*
X30066D01*
Y17923D01*
X30061D01*
Y17912D01*
X30055D01*
Y17907D01*
X30050D01*
Y17901D01*
X30044D01*
Y17890D01*
X30038D01*
Y17885D01*
X30033D01*
Y17874D01*
X30027D01*
Y17868D01*
X30022D01*
Y17862D01*
X30017D01*
Y17852D01*
X30011D01*
Y17846D01*
X30006D01*
Y17840D01*
X30000D01*
Y17835D01*
X29994D01*
Y17830D01*
X29989D01*
Y17824D01*
X29983D01*
Y17818D01*
X29978D01*
Y17813D01*
X29973D01*
Y17808D01*
X29967D01*
Y17802D01*
X29962D01*
Y17796D01*
X29956D01*
Y17791D01*
X29950D01*
Y17786D01*
X29945D01*
Y17780D01*
X29939D01*
Y17774D01*
X29929D01*
Y17769D01*
X29923D01*
Y17764D01*
X29918D01*
Y17758D01*
X29906D01*
Y17752D01*
X29901D01*
Y17747D01*
X29890D01*
Y17742D01*
X29885D01*
Y17736D01*
X29873D01*
Y17730D01*
X29868D01*
Y17725D01*
X29857D01*
Y17720D01*
X29846D01*
Y17714D01*
X29841D01*
Y17708D01*
X29824D01*
Y17703D01*
X29813D01*
Y17697D01*
X29802D01*
Y17692D01*
X29791D01*
Y17687D01*
X29780D01*
Y17681D01*
X29758D01*
Y17675D01*
X29747D01*
Y17670D01*
X29725D01*
Y17665D01*
X29708D01*
Y17659D01*
X29687D01*
Y17653D01*
X29643D01*
Y17648D01*
X29599D01*
Y17643D01*
X29527D01*
Y17648D01*
X29488D01*
Y17653D01*
X29450D01*
Y17659D01*
X29428D01*
Y17665D01*
X29406D01*
Y17670D01*
X29390D01*
Y17675D01*
X29378D01*
Y17681D01*
X29357D01*
Y17687D01*
X29346D01*
Y17692D01*
X29329D01*
Y17697D01*
X29323D01*
Y17703D01*
X29313D01*
Y17708D01*
X29296D01*
Y17714D01*
X29290D01*
Y17720D01*
X29279D01*
Y17725D01*
X29269D01*
Y17730D01*
X29263D01*
Y17736D01*
X29252D01*
Y17742D01*
X29246D01*
Y17747D01*
X29235D01*
Y17752D01*
X29230D01*
Y17758D01*
X29219D01*
Y17764D01*
X29214D01*
Y17769D01*
X29208D01*
Y17774D01*
X29202D01*
Y17780D01*
X29197D01*
Y17786D01*
X29186D01*
Y17791D01*
X29181D01*
Y17796D01*
X29175D01*
Y17802D01*
X29169D01*
Y17808D01*
X29164D01*
Y17813D01*
X29158D01*
Y17818D01*
X29153D01*
Y17824D01*
X29148D01*
Y17830D01*
X29142D01*
Y17835D01*
X29137D01*
Y17840D01*
X29131D01*
Y17846D01*
X29125D01*
Y17852D01*
X29120D01*
Y17862D01*
X29114D01*
Y17868D01*
X29109D01*
Y17874D01*
X29104D01*
Y17879D01*
X29098D01*
Y17890D01*
X29093D01*
Y17895D01*
X29087D01*
Y17907D01*
X29081D01*
Y17912D01*
X29076D01*
Y17923D01*
X29070D01*
Y17929D01*
X29065D01*
Y17939D01*
X29060D01*
Y17945D01*
Y17951D01*
X29054D01*
Y17961D01*
X29049D01*
Y17973D01*
X29043D01*
Y17983D01*
X29037D01*
Y17995D01*
X29032D01*
Y18005D01*
X29027D01*
Y18027D01*
X29021D01*
Y18039D01*
X29016D01*
Y18055D01*
X29010D01*
Y18072D01*
X29004D01*
Y18094D01*
X28999D01*
Y18126D01*
X28993D01*
Y18148D01*
X28988D01*
Y18303D01*
X28993D01*
Y18325D01*
X28999D01*
Y18357D01*
X29004D01*
Y18379D01*
X29010D01*
Y18391D01*
X29016D01*
Y18412D01*
X29021D01*
Y18424D01*
X29027D01*
Y18446D01*
X29032D01*
Y18456D01*
X29037D01*
Y18468D01*
X29043D01*
Y18478D01*
X29049D01*
Y18490D01*
X29054D01*
Y18500D01*
X29060D01*
Y18512D01*
X29065D01*
Y18522D01*
X29070D01*
Y18528D01*
X29076D01*
Y18539D01*
X29081D01*
Y18550D01*
X29087D01*
Y18556D01*
X29093D01*
Y18561D01*
X29098D01*
Y18572D01*
X29104D01*
Y18578D01*
X29109D01*
Y18583D01*
X29114D01*
Y18589D01*
X29120D01*
Y18599D01*
X29125D01*
Y18605D01*
X29131D01*
Y18611D01*
X29137D01*
Y18616D01*
X29142D01*
Y18621D01*
X29148D01*
Y18627D01*
X29153D01*
Y18633D01*
X29158D01*
Y18638D01*
X29164D01*
Y18643D01*
X29169D01*
Y18649D01*
X29175D01*
Y18655D01*
X29181D01*
Y18660D01*
X29186D01*
Y18665D01*
X29192D01*
Y18671D01*
X29202D01*
Y18677D01*
X29208D01*
Y18682D01*
X29214D01*
Y18687D01*
X29225D01*
Y18693D01*
X29230D01*
Y18699D01*
X29235D01*
Y18704D01*
X29246D01*
Y18709D01*
X29252D01*
Y18715D01*
X29263D01*
Y18721D01*
X29269D01*
Y18726D01*
X29279D01*
Y18731D01*
X29290D01*
Y18737D01*
X29302D01*
Y18743D01*
X29307D01*
Y18748D01*
X29323D01*
Y18753D01*
X29334D01*
Y18759D01*
X29346D01*
Y18764D01*
X29362D01*
Y18770D01*
X29373D01*
Y18776D01*
X29395D01*
Y18781D01*
X29406D01*
Y18786D01*
X29428D01*
Y18792D01*
X29455D01*
Y18798D01*
X29478D01*
Y18803D01*
X29560D01*
Y18808D01*
X29576D01*
Y18803D01*
D02*
G37*
G36*
X31397Y18687D02*
X31414D01*
Y18682D01*
X31430D01*
Y18677D01*
X31435D01*
Y18671D01*
X31446D01*
Y18665D01*
X31452D01*
Y18660D01*
X31458D01*
Y18655D01*
X31469D01*
Y18643D01*
X31474D01*
Y18638D01*
X31479D01*
Y18633D01*
X31485D01*
Y18616D01*
X31490D01*
Y18611D01*
X31496D01*
Y18583D01*
X31502D01*
Y18369D01*
X31716D01*
Y18363D01*
X31738D01*
Y18357D01*
X31749D01*
Y18352D01*
X31765D01*
Y18347D01*
X31771D01*
Y18341D01*
X31782D01*
Y18335D01*
X31788D01*
Y18330D01*
X31793D01*
Y18325D01*
X31799D01*
Y18313D01*
X31804D01*
Y18308D01*
X31809D01*
Y18297D01*
X31815D01*
Y18286D01*
X31820D01*
Y18275D01*
X31826D01*
Y18022D01*
X31820D01*
Y18011D01*
X31815D01*
Y18000D01*
X31809D01*
Y17989D01*
X31804D01*
Y17983D01*
X31799D01*
Y17978D01*
X31793D01*
Y17973D01*
X31788D01*
Y17967D01*
X31782D01*
Y17961D01*
X31776D01*
Y17956D01*
X31765D01*
Y17951D01*
X31760D01*
Y17945D01*
X31744D01*
Y17939D01*
X31732D01*
Y17934D01*
X31507D01*
Y17929D01*
X31502D01*
Y17720D01*
X31496D01*
Y17687D01*
X31490D01*
Y17681D01*
X31485D01*
Y17670D01*
X31479D01*
Y17659D01*
X31474D01*
Y17653D01*
X31469D01*
Y17648D01*
X31463D01*
Y17643D01*
X31458D01*
Y17637D01*
X31452D01*
Y17631D01*
X31446D01*
Y17626D01*
X31435D01*
Y17621D01*
X31430D01*
Y17615D01*
X31408D01*
Y17609D01*
X31391D01*
Y17604D01*
X31177D01*
Y17609D01*
X31155D01*
Y17615D01*
X31139D01*
Y17621D01*
X31133D01*
Y17626D01*
X31122D01*
Y17631D01*
X31116D01*
Y17637D01*
X31111D01*
Y17643D01*
X31100D01*
Y17653D01*
X31095D01*
Y17659D01*
X31089D01*
Y17665D01*
X31084D01*
Y17675D01*
X31078D01*
Y17687D01*
X31072D01*
Y17708D01*
X31067D01*
Y17923D01*
X31061D01*
Y17929D01*
X31056D01*
Y17934D01*
X30896D01*
Y17929D01*
X30863D01*
Y17934D01*
X30825D01*
Y17939D01*
X30814D01*
Y17945D01*
X30803D01*
Y17951D01*
X30798D01*
Y17956D01*
X30786D01*
Y17961D01*
X30781D01*
Y17967D01*
X30775D01*
Y17973D01*
X30770D01*
Y17978D01*
X30765D01*
Y17983D01*
X30759D01*
Y17995D01*
X30754D01*
Y18005D01*
X30748D01*
Y18017D01*
X30742D01*
Y18039D01*
X30737D01*
Y18253D01*
X30742D01*
Y18281D01*
X30748D01*
Y18291D01*
X30754D01*
Y18303D01*
X30759D01*
Y18313D01*
X30765D01*
Y18319D01*
X30770D01*
Y18325D01*
X30775D01*
Y18330D01*
X30781D01*
Y18335D01*
X30786D01*
Y18341D01*
X30798D01*
Y18347D01*
X30803D01*
Y18352D01*
X30814D01*
Y18357D01*
X30831D01*
Y18363D01*
X30852D01*
Y18369D01*
X31061D01*
Y18374D01*
X31067D01*
Y18594D01*
X31072D01*
Y18616D01*
X31078D01*
Y18621D01*
X31084D01*
Y18633D01*
X31089D01*
Y18643D01*
X31095D01*
Y18649D01*
X31100D01*
Y18655D01*
X31105D01*
Y18660D01*
X31111D01*
Y18665D01*
X31116D01*
Y18671D01*
X31128D01*
Y18677D01*
X31133D01*
Y18682D01*
X31149D01*
Y18687D01*
X31166D01*
Y18693D01*
X31397D01*
Y18687D01*
D02*
G37*
%LPC*%
G36*
X28763Y19832D02*
X28740D01*
Y19826D01*
X28713D01*
Y19820D01*
X28691D01*
Y19815D01*
X28674D01*
Y19809D01*
X28669D01*
Y19804D01*
X28658D01*
Y19799D01*
X28647D01*
Y19793D01*
X28642D01*
Y19787D01*
X28636D01*
Y19782D01*
X28630D01*
Y19777D01*
X28625D01*
Y19771D01*
X28619D01*
Y19765D01*
X28614D01*
Y19760D01*
X28609D01*
Y19755D01*
X28603D01*
Y19743D01*
X28598D01*
Y19738D01*
X28592D01*
Y19721D01*
X28586D01*
Y19711D01*
X28581D01*
Y19689D01*
X28575D01*
Y19622D01*
X28581D01*
Y19595D01*
X28586D01*
Y19584D01*
X28592D01*
Y19573D01*
X28598D01*
Y19562D01*
X28603D01*
Y19556D01*
X28609D01*
Y19551D01*
Y19546D01*
X28614D01*
Y19540D01*
X28619D01*
Y19534D01*
X28625D01*
Y19529D01*
X28630D01*
Y19524D01*
X28636D01*
Y19518D01*
X28642D01*
Y19512D01*
X28653D01*
Y19507D01*
X28658D01*
Y19502D01*
X28669D01*
Y19496D01*
X28674D01*
Y19490D01*
X28691D01*
Y19485D01*
X28707D01*
Y19480D01*
X28746D01*
Y19474D01*
X28757D01*
Y19480D01*
X28790D01*
Y19485D01*
X28812D01*
Y19490D01*
X28823D01*
Y19496D01*
X28834D01*
Y19502D01*
X28845D01*
Y19507D01*
X28851D01*
Y19512D01*
X28861D01*
Y19518D01*
X28867D01*
Y19524D01*
X28872D01*
Y19529D01*
X28878D01*
Y19534D01*
X28884D01*
Y19540D01*
X28889D01*
Y19546D01*
X28895D01*
Y19556D01*
X28900D01*
Y19568D01*
X28905D01*
Y19578D01*
X28911D01*
Y19590D01*
X28916D01*
Y19600D01*
X28922D01*
Y19699D01*
X28916D01*
Y19716D01*
X28911D01*
Y19727D01*
X28905D01*
Y19738D01*
X28900D01*
Y19749D01*
X28895D01*
Y19755D01*
X28889D01*
Y19760D01*
X28884D01*
Y19771D01*
X28878D01*
Y19777D01*
X28872D01*
Y19782D01*
X28867D01*
Y19787D01*
X28856D01*
Y19793D01*
X28851D01*
Y19799D01*
X28845D01*
Y19804D01*
X28834D01*
Y19809D01*
X28823D01*
Y19815D01*
X28807D01*
Y19820D01*
X28790D01*
Y19826D01*
X28763D01*
Y19832D01*
D02*
G37*
G36*
X30930Y19303D02*
X30869D01*
Y19298D01*
X30858D01*
Y19293D01*
X30847D01*
Y19287D01*
X30842D01*
Y19282D01*
X30836D01*
Y19276D01*
X30825D01*
Y19265D01*
X30819D01*
Y19260D01*
X30814D01*
Y19248D01*
X30808D01*
Y19221D01*
X30803D01*
Y19194D01*
X30808D01*
Y19172D01*
X30814D01*
Y19160D01*
X30819D01*
Y19155D01*
X30825D01*
Y19144D01*
X30831D01*
Y19138D01*
X30836D01*
Y19133D01*
X30847D01*
Y19128D01*
X30852D01*
Y19122D01*
X30863D01*
Y19116D01*
X30930D01*
Y19122D01*
X30946D01*
Y19128D01*
X30951D01*
Y19133D01*
X30963D01*
Y19138D01*
X30968D01*
Y19144D01*
X30973D01*
Y19150D01*
X30979D01*
Y19160D01*
X30984D01*
Y19172D01*
X30990D01*
Y19182D01*
X30996D01*
Y19232D01*
X30990D01*
Y19248D01*
X30984D01*
Y19260D01*
X30979D01*
Y19265D01*
X30973D01*
Y19270D01*
X30968D01*
Y19276D01*
X30963D01*
Y19282D01*
X30957D01*
Y19287D01*
X30951D01*
Y19293D01*
X30940D01*
Y19298D01*
X30930D01*
Y19303D01*
D02*
G37*
G36*
X29983D02*
X29939D01*
Y19298D01*
X29929D01*
Y19293D01*
X29912D01*
Y19287D01*
X29906D01*
Y19282D01*
X29901D01*
Y19276D01*
X29890D01*
Y19270D01*
X29885D01*
Y19260D01*
X29879D01*
Y19254D01*
X29873D01*
Y19238D01*
X29868D01*
Y19177D01*
X29873D01*
Y19160D01*
X29879D01*
Y19155D01*
X29885D01*
Y19144D01*
X29890D01*
Y19138D01*
X29896D01*
Y19133D01*
X29906D01*
Y19128D01*
X29912D01*
Y19122D01*
X29923D01*
Y19116D01*
X29945D01*
Y19111D01*
X29978D01*
Y19116D01*
X30000D01*
Y19122D01*
X30011D01*
Y19128D01*
X30017D01*
Y19133D01*
X30027D01*
Y19144D01*
X30033D01*
Y19150D01*
X30038D01*
Y19155D01*
X30044D01*
Y19166D01*
X30050D01*
Y19177D01*
X30055D01*
Y19238D01*
X30050D01*
Y19248D01*
X30044D01*
Y19260D01*
X30038D01*
Y19265D01*
X30033D01*
Y19270D01*
X30027D01*
Y19276D01*
X30022D01*
Y19282D01*
X30017D01*
Y19287D01*
X30011D01*
Y19293D01*
X29994D01*
Y19298D01*
X29983D01*
Y19303D01*
D02*
G37*
G36*
X29235Y19381D02*
X29158D01*
Y19375D01*
X29142D01*
Y19369D01*
X29125D01*
Y19364D01*
X29114D01*
Y19359D01*
X29104D01*
Y19353D01*
X29098D01*
Y19347D01*
X29087D01*
Y19342D01*
X29081D01*
Y19337D01*
X29076D01*
Y19331D01*
X29070D01*
Y19325D01*
X29065D01*
Y19320D01*
X29060D01*
Y19309D01*
X29054D01*
Y19303D01*
X29049D01*
Y19293D01*
X29043D01*
Y19282D01*
X29037D01*
Y19270D01*
X29032D01*
Y19254D01*
X29027D01*
Y19160D01*
X29032D01*
Y19144D01*
X29037D01*
Y19133D01*
X29043D01*
Y19122D01*
X29049D01*
Y19111D01*
X29054D01*
Y19105D01*
X29060D01*
Y19100D01*
X29065D01*
Y19089D01*
X29070D01*
Y19083D01*
X29076D01*
Y19078D01*
X29081D01*
Y19073D01*
X29093D01*
Y19067D01*
X29098D01*
Y19061D01*
X29104D01*
Y19056D01*
X29114D01*
Y19051D01*
X29125D01*
Y19045D01*
X29137D01*
Y19039D01*
X29164D01*
Y19034D01*
X29192D01*
Y19029D01*
X29208D01*
Y19034D01*
X29235D01*
Y19039D01*
X29258D01*
Y19045D01*
X29269D01*
Y19051D01*
X29279D01*
Y19056D01*
X29290D01*
Y19061D01*
X29296D01*
Y19067D01*
X29307D01*
Y19073D01*
X29313D01*
Y19078D01*
X29318D01*
Y19083D01*
X29323D01*
Y19089D01*
X29329D01*
Y19095D01*
X29334D01*
Y19100D01*
X29340D01*
Y19105D01*
X29346D01*
Y19116D01*
X29351D01*
Y19122D01*
X29357D01*
Y19138D01*
X29362D01*
Y19150D01*
X29367D01*
Y19172D01*
X29373D01*
Y19243D01*
X29367D01*
Y19265D01*
X29362D01*
Y19276D01*
X29357D01*
Y19287D01*
X29351D01*
Y19298D01*
X29346D01*
Y19303D01*
X29340D01*
Y19315D01*
X29334D01*
Y19320D01*
X29329D01*
Y19325D01*
X29323D01*
Y19331D01*
X29318D01*
Y19337D01*
X29313D01*
Y19342D01*
X29307D01*
Y19347D01*
X29302D01*
Y19353D01*
X29290D01*
Y19359D01*
X29279D01*
Y19364D01*
X29274D01*
Y19369D01*
X29252D01*
Y19375D01*
X29235D01*
Y19381D01*
D02*
G37*
G36*
X28339D02*
X28256D01*
Y19375D01*
X28240D01*
Y19369D01*
X28224D01*
Y19364D01*
X28212D01*
Y19359D01*
X28201D01*
Y19353D01*
X28196D01*
Y19347D01*
X28191D01*
Y19342D01*
X28180D01*
Y19337D01*
X28174D01*
Y19331D01*
X28168D01*
Y19325D01*
X28163D01*
Y19315D01*
X28157D01*
Y19309D01*
X28152D01*
Y19303D01*
X28147D01*
Y19293D01*
X28141D01*
Y19282D01*
X28135D01*
Y19270D01*
X28130D01*
Y19248D01*
X28124D01*
Y19221D01*
X28119D01*
Y19194D01*
X28124D01*
Y19166D01*
X28130D01*
Y19144D01*
X28135D01*
Y19133D01*
X28141D01*
Y19122D01*
X28147D01*
Y19111D01*
X28152D01*
Y19105D01*
X28157D01*
Y19095D01*
X28163D01*
Y19089D01*
X28168D01*
Y19083D01*
X28174D01*
Y19078D01*
X28180D01*
Y19073D01*
X28185D01*
Y19067D01*
X28196D01*
Y19061D01*
X28201D01*
Y19056D01*
X28212D01*
Y19051D01*
X28224D01*
Y19045D01*
X28235D01*
Y19039D01*
X28262D01*
Y19034D01*
X28284D01*
Y19029D01*
X28312D01*
Y19034D01*
X28339D01*
Y19039D01*
X28361D01*
Y19045D01*
X28372D01*
Y19051D01*
X28383D01*
Y19056D01*
X28394D01*
Y19061D01*
X28400D01*
Y19067D01*
X28405D01*
Y19073D01*
X28410D01*
Y19078D01*
X28416D01*
Y19083D01*
X28421D01*
Y19089D01*
X28427D01*
Y19095D01*
X28433D01*
Y19100D01*
X28438D01*
Y19105D01*
X28444D01*
Y19116D01*
X28449D01*
Y19128D01*
X28454D01*
Y19133D01*
X28460D01*
Y19155D01*
X28465D01*
Y19166D01*
X28471D01*
Y19248D01*
X28465D01*
Y19260D01*
X28460D01*
Y19282D01*
X28454D01*
Y19287D01*
X28449D01*
Y19298D01*
X28444D01*
Y19309D01*
X28438D01*
Y19315D01*
X28433D01*
Y19320D01*
X28427D01*
Y19325D01*
X28421D01*
Y19331D01*
X28416D01*
Y19337D01*
X28410D01*
Y19342D01*
X28405D01*
Y19347D01*
X28400D01*
Y19353D01*
X28389D01*
Y19359D01*
X28377D01*
Y19364D01*
X28372D01*
Y19369D01*
X28356D01*
Y19375D01*
X28339D01*
Y19381D01*
D02*
G37*
G36*
X32129Y19716D02*
X32068D01*
Y19711D01*
X32008D01*
Y19705D01*
X31991D01*
Y19699D01*
X31964D01*
Y19694D01*
X31947D01*
Y19689D01*
X31930D01*
Y19683D01*
X31914D01*
Y19677D01*
X31903D01*
Y19672D01*
X31892D01*
Y19667D01*
X31881D01*
Y19661D01*
X31870D01*
Y19655D01*
X31859D01*
Y19650D01*
X31848D01*
Y19645D01*
X31843D01*
Y19639D01*
X31832D01*
Y19634D01*
X31826D01*
Y19628D01*
X31815D01*
Y19622D01*
X31809D01*
Y19617D01*
X31804D01*
Y19612D01*
X31799D01*
Y19606D01*
X31788D01*
Y19600D01*
X31782D01*
Y19595D01*
X31776D01*
Y19590D01*
X31771D01*
Y19584D01*
X31765D01*
Y19578D01*
X31760D01*
Y19573D01*
X31755D01*
Y19568D01*
X31749D01*
Y19562D01*
X31744D01*
Y19556D01*
X31738D01*
Y19551D01*
X31732D01*
Y19546D01*
X31727D01*
Y19540D01*
X31721D01*
Y19529D01*
X31716D01*
Y19524D01*
X31711D01*
Y19518D01*
X31705D01*
Y19507D01*
X31700D01*
Y19502D01*
X31694D01*
Y19490D01*
X31688D01*
Y19485D01*
X31683D01*
Y19474D01*
X31677D01*
Y19468D01*
X31672D01*
Y19457D01*
X31667D01*
Y19447D01*
X31661D01*
Y19435D01*
X31655D01*
Y19419D01*
X31650D01*
Y19408D01*
X31644D01*
Y19391D01*
X31639D01*
Y19375D01*
X31634D01*
Y19359D01*
X31628D01*
Y19331D01*
X31623D01*
Y19309D01*
X31617D01*
Y19150D01*
X31623D01*
Y19128D01*
X31628D01*
Y19095D01*
X31634D01*
Y19083D01*
X31639D01*
Y19061D01*
X31644D01*
Y19051D01*
X31650D01*
Y19039D01*
X31655D01*
Y19023D01*
X31661D01*
Y19012D01*
X31667D01*
Y19001D01*
X31672D01*
Y18990D01*
X31677D01*
Y18985D01*
X31683D01*
Y18973D01*
X31688D01*
Y18963D01*
X31694D01*
Y18957D01*
X31700D01*
Y18946D01*
X31705D01*
Y18941D01*
X31711D01*
Y18935D01*
X31716D01*
Y18930D01*
X31721D01*
Y18918D01*
X31727D01*
Y18913D01*
X31732D01*
Y18908D01*
X31738D01*
Y18902D01*
X31744D01*
Y18896D01*
X31749D01*
Y18886D01*
X31755D01*
Y18880D01*
X31760D01*
Y18874D01*
X31765D01*
Y18869D01*
X31776D01*
Y18864D01*
X31782D01*
Y18858D01*
X31788D01*
Y18852D01*
X31793D01*
Y18847D01*
X31799D01*
Y18842D01*
X31809D01*
Y18836D01*
X31815D01*
Y18830D01*
X31820D01*
Y18825D01*
X31832D01*
Y18820D01*
X31837D01*
Y18814D01*
X31848D01*
Y18808D01*
X31853D01*
Y18803D01*
X31870D01*
Y18798D01*
X31876D01*
Y18792D01*
X31886D01*
Y18786D01*
X31897D01*
Y18781D01*
X31909D01*
Y18776D01*
X31930D01*
Y18770D01*
X31941D01*
Y18764D01*
X31964D01*
Y18759D01*
X31980D01*
Y18753D01*
X32002D01*
Y18748D01*
X32041D01*
Y18743D01*
X32156D01*
Y18748D01*
X32194D01*
Y18753D01*
X32222D01*
Y18759D01*
X32239D01*
Y18764D01*
X32260D01*
Y18770D01*
X32271D01*
Y18776D01*
X32288D01*
Y18781D01*
X32299D01*
Y18786D01*
X32310D01*
Y18792D01*
X32321D01*
Y18798D01*
X32332D01*
Y18803D01*
X32343D01*
Y18808D01*
X32354D01*
Y18814D01*
X32359D01*
Y18820D01*
X32371D01*
Y18825D01*
X32376D01*
Y18830D01*
X32387D01*
Y18836D01*
X32392D01*
Y18842D01*
X32398D01*
Y18847D01*
X32404D01*
Y18852D01*
X32415D01*
Y18858D01*
X32420D01*
Y18864D01*
X32425D01*
Y18869D01*
X32431D01*
Y18874D01*
X32436D01*
Y18880D01*
X32442D01*
Y18886D01*
X32448D01*
Y18891D01*
X32453D01*
Y18896D01*
X32459D01*
Y18902D01*
X32464D01*
Y18908D01*
X32469D01*
Y18913D01*
X32475D01*
Y18924D01*
X32480D01*
Y18930D01*
X32486D01*
Y18935D01*
X32492D01*
Y18941D01*
X32497D01*
Y18951D01*
X32503D01*
Y18957D01*
X32508D01*
Y18968D01*
X32513D01*
Y18973D01*
X32519D01*
Y18985D01*
X32524D01*
Y18995D01*
X32530D01*
Y19007D01*
X32536D01*
Y19017D01*
X32541D01*
Y19029D01*
X32547D01*
Y19039D01*
X32552D01*
Y19056D01*
X32557D01*
Y19067D01*
X32563D01*
Y19089D01*
X32569D01*
Y19105D01*
X32574D01*
Y19128D01*
X32580D01*
Y19172D01*
X32585D01*
Y19287D01*
X32580D01*
Y19331D01*
X32574D01*
Y19347D01*
X32569D01*
Y19369D01*
X32563D01*
Y19391D01*
X32557D01*
Y19403D01*
X32552D01*
Y19419D01*
X32547D01*
Y19430D01*
X32541D01*
Y19441D01*
X32536D01*
Y19452D01*
X32530D01*
Y19463D01*
X32524D01*
Y19474D01*
X32519D01*
Y19480D01*
X32513D01*
Y19490D01*
X32508D01*
Y19496D01*
X32503D01*
Y19507D01*
X32497D01*
Y19512D01*
X32492D01*
Y19518D01*
X32486D01*
Y19529D01*
X32480D01*
Y19534D01*
X32475D01*
Y19540D01*
X32469D01*
Y19551D01*
X32464D01*
Y19556D01*
X32459D01*
Y19562D01*
X32453D01*
Y19568D01*
X32448D01*
Y19573D01*
X32442D01*
Y19578D01*
X32436D01*
Y19584D01*
X32431D01*
Y19590D01*
X32425D01*
Y19595D01*
X32415D01*
Y19600D01*
X32409D01*
Y19606D01*
X32404D01*
Y19612D01*
X32398D01*
Y19617D01*
X32387D01*
Y19622D01*
X32381D01*
Y19628D01*
X32376D01*
Y19634D01*
X32365D01*
Y19639D01*
X32359D01*
Y19645D01*
X32348D01*
Y19650D01*
X32338D01*
Y19655D01*
X32332D01*
Y19661D01*
X32315D01*
Y19667D01*
X32310D01*
Y19672D01*
X32294D01*
Y19677D01*
X32283D01*
Y19683D01*
X32271D01*
Y19689D01*
X32250D01*
Y19694D01*
X32239D01*
Y19699D01*
X32206D01*
Y19705D01*
X32189D01*
Y19711D01*
X32129D01*
Y19716D01*
D02*
G37*
%LPD*%
G36*
Y19556D02*
X32173D01*
Y19551D01*
X32189D01*
Y19546D01*
X32206D01*
Y19540D01*
X32227D01*
Y19534D01*
X32233D01*
Y19529D01*
X32250D01*
Y19524D01*
X32260D01*
Y19518D01*
X32266D01*
Y19512D01*
X32277D01*
Y19507D01*
X32283D01*
Y19502D01*
X32294D01*
Y19496D01*
X32299D01*
Y19490D01*
X32310D01*
Y19485D01*
X32315D01*
Y19480D01*
X32321D01*
Y19474D01*
X32327D01*
Y19468D01*
X32332D01*
Y19463D01*
X32338D01*
Y19457D01*
X32343D01*
Y19452D01*
X32348D01*
Y19447D01*
X32354D01*
Y19441D01*
X32359D01*
Y19435D01*
X32365D01*
Y19425D01*
X32371D01*
Y19419D01*
X32376D01*
Y19408D01*
X32381D01*
Y19397D01*
X32387D01*
Y19391D01*
X32392D01*
Y19381D01*
X32398D01*
Y19369D01*
X32404D01*
Y19359D01*
X32409D01*
Y19342D01*
X32415D01*
Y19331D01*
X32420D01*
Y19303D01*
X32425D01*
Y19282D01*
X32431D01*
Y19172D01*
X32425D01*
Y19155D01*
X32420D01*
Y19128D01*
X32415D01*
Y19116D01*
X32409D01*
Y19095D01*
X32404D01*
Y19083D01*
X32398D01*
Y19078D01*
X32392D01*
Y19061D01*
X32387D01*
Y19056D01*
X32381D01*
Y19045D01*
X32376D01*
Y19039D01*
X32371D01*
Y19034D01*
X32365D01*
Y19023D01*
X32359D01*
Y19017D01*
X32354D01*
Y19012D01*
X32348D01*
Y19007D01*
X32343D01*
Y19001D01*
X32338D01*
Y18990D01*
X32327D01*
Y18985D01*
X32321D01*
Y18979D01*
X32315D01*
Y18973D01*
X32310D01*
Y18968D01*
X32304D01*
Y18963D01*
X32294D01*
Y18957D01*
X32288D01*
Y18951D01*
X32283D01*
Y18946D01*
X32271D01*
Y18941D01*
X32266D01*
Y18935D01*
X32250D01*
Y18930D01*
X32244D01*
Y18924D01*
X32227D01*
Y18918D01*
X32211D01*
Y18913D01*
X32200D01*
Y18908D01*
X32173D01*
Y18902D01*
X32156D01*
Y18896D01*
X32046D01*
Y18902D01*
X32024D01*
Y18908D01*
X31997D01*
Y18913D01*
X31985D01*
Y18918D01*
X31969D01*
Y18924D01*
X31958D01*
Y18930D01*
X31947D01*
Y18935D01*
X31936D01*
Y18941D01*
X31925D01*
Y18946D01*
X31920D01*
Y18951D01*
X31909D01*
Y18957D01*
X31903D01*
Y18963D01*
X31892D01*
Y18968D01*
X31886D01*
Y18973D01*
X31881D01*
Y18979D01*
X31876D01*
Y18985D01*
X31870D01*
Y18990D01*
X31865D01*
Y18995D01*
X31859D01*
Y19001D01*
X31853D01*
Y19007D01*
X31848D01*
Y19012D01*
X31843D01*
Y19017D01*
X31837D01*
Y19029D01*
X31832D01*
Y19034D01*
X31826D01*
Y19039D01*
X31820D01*
Y19051D01*
X31815D01*
Y19056D01*
X31809D01*
Y19067D01*
X31804D01*
Y19078D01*
X31799D01*
Y19089D01*
X31793D01*
Y19100D01*
X31788D01*
Y19122D01*
X31782D01*
Y19133D01*
X31776D01*
Y19155D01*
X31771D01*
Y19194D01*
X31765D01*
Y19265D01*
X31771D01*
Y19303D01*
X31776D01*
Y19320D01*
X31782D01*
Y19337D01*
X31788D01*
Y19353D01*
X31793D01*
Y19364D01*
X31799D01*
Y19381D01*
X31804D01*
Y19386D01*
X31809D01*
Y19397D01*
X31815D01*
Y19408D01*
X31820D01*
Y19413D01*
X31826D01*
Y19425D01*
X31832D01*
Y19430D01*
X31837D01*
Y19435D01*
X31843D01*
Y19447D01*
X31848D01*
Y19452D01*
X31853D01*
Y19457D01*
X31859D01*
Y19463D01*
X31865D01*
Y19468D01*
X31870D01*
Y19474D01*
X31876D01*
Y19480D01*
X31881D01*
Y19485D01*
X31892D01*
Y19490D01*
X31897D01*
Y19496D01*
X31903D01*
Y19502D01*
X31914D01*
Y19507D01*
X31920D01*
Y19512D01*
X31930D01*
Y19518D01*
X31941D01*
Y19524D01*
X31947D01*
Y19529D01*
X31964D01*
Y19534D01*
X31974D01*
Y19540D01*
X31991D01*
Y19546D01*
X32008D01*
Y19551D01*
X32030D01*
Y19556D01*
X32074D01*
Y19562D01*
X32129D01*
Y19556D01*
D02*
G37*
%LPC*%
G36*
X32150Y19463D02*
X32051D01*
Y19457D01*
X32030D01*
Y19452D01*
X32013D01*
Y19447D01*
X32002D01*
Y19441D01*
X31991D01*
Y19435D01*
X31980D01*
Y19430D01*
X31969D01*
Y19425D01*
X31964D01*
Y19419D01*
X31958D01*
Y19413D01*
X31953D01*
Y19408D01*
X31941D01*
Y19403D01*
X31936D01*
Y19397D01*
X31930D01*
Y19391D01*
X31925D01*
Y19386D01*
X31920D01*
Y19381D01*
X31914D01*
Y19369D01*
X31909D01*
Y19364D01*
X31903D01*
Y19359D01*
X31897D01*
Y19353D01*
X31892D01*
Y19337D01*
X31886D01*
Y19331D01*
X31881D01*
Y19315D01*
X31876D01*
Y19303D01*
X31870D01*
Y19287D01*
X31865D01*
Y19248D01*
X31859D01*
Y19204D01*
X31865D01*
Y19166D01*
X31870D01*
Y19150D01*
X31876D01*
Y19133D01*
X31881D01*
Y19122D01*
X31886D01*
Y19116D01*
X31892D01*
Y19100D01*
X31897D01*
Y19095D01*
X31903D01*
Y19089D01*
X31909D01*
Y19078D01*
X31914D01*
Y19073D01*
X31920D01*
Y19067D01*
X31925D01*
Y19061D01*
X31930D01*
Y19056D01*
X31936D01*
Y19051D01*
X31941D01*
Y19045D01*
X31947D01*
Y19039D01*
X31953D01*
Y19034D01*
X31958D01*
Y19029D01*
X31969D01*
Y19023D01*
X31980D01*
Y19017D01*
X31985D01*
Y19012D01*
X32002D01*
Y19007D01*
X32008D01*
Y19001D01*
X32030D01*
Y18995D01*
X32046D01*
Y18990D01*
X32079D01*
Y18985D01*
X32118D01*
Y18990D01*
X32156D01*
Y18995D01*
X32167D01*
Y19001D01*
X32189D01*
Y19007D01*
X32200D01*
Y19012D01*
X32211D01*
Y19017D01*
X32222D01*
Y19023D01*
X32227D01*
Y19029D01*
X32239D01*
Y19034D01*
X32244D01*
Y19039D01*
X32250D01*
Y19045D01*
X32255D01*
Y19051D01*
X32260D01*
Y19056D01*
X32271D01*
Y19067D01*
X32277D01*
Y19073D01*
X32283D01*
Y19078D01*
X32288D01*
Y19083D01*
X32294D01*
Y19095D01*
X32299D01*
Y19100D01*
X32304D01*
Y19111D01*
X32310D01*
Y19116D01*
X32315D01*
Y19133D01*
X32321D01*
Y19144D01*
X32327D01*
Y19166D01*
X32332D01*
Y19188D01*
X32338D01*
Y19265D01*
X32332D01*
Y19287D01*
X32327D01*
Y19309D01*
X32321D01*
Y19320D01*
X32315D01*
Y19337D01*
X32310D01*
Y19342D01*
X32304D01*
Y19347D01*
Y19353D01*
X32299D01*
Y19359D01*
X32294D01*
Y19369D01*
X32288D01*
Y19375D01*
X32283D01*
Y19381D01*
X32277D01*
Y19386D01*
X32271D01*
Y19391D01*
X32266D01*
Y19397D01*
X32260D01*
Y19403D01*
X32255D01*
Y19408D01*
X32250D01*
Y19413D01*
X32244D01*
Y19419D01*
X32233D01*
Y19425D01*
X32227D01*
Y19430D01*
X32216D01*
Y19435D01*
X32206D01*
Y19441D01*
X32200D01*
Y19447D01*
X32183D01*
Y19452D01*
X32167D01*
Y19457D01*
X32150D01*
Y19463D01*
D02*
G37*
G36*
X28795Y18935D02*
X28707D01*
Y18930D01*
X28691D01*
Y18924D01*
X28680D01*
Y18918D01*
X28669D01*
Y18913D01*
X28658D01*
Y18908D01*
X28647D01*
Y18902D01*
X28642D01*
Y18896D01*
X28636D01*
Y18891D01*
X28630D01*
Y18886D01*
X28625D01*
Y18880D01*
X28619D01*
Y18874D01*
X28614D01*
Y18869D01*
X28609D01*
Y18858D01*
X28603D01*
Y18852D01*
X28598D01*
Y18842D01*
X28592D01*
Y18830D01*
X28586D01*
Y18820D01*
X28581D01*
Y18798D01*
X28575D01*
Y18731D01*
X28581D01*
Y18704D01*
X28586D01*
Y18693D01*
X28592D01*
Y18677D01*
X28598D01*
Y18671D01*
X28603D01*
Y18660D01*
X28609D01*
Y18655D01*
X28614D01*
Y18649D01*
X28619D01*
Y18643D01*
X28625D01*
Y18638D01*
X28630D01*
Y18633D01*
X28636D01*
Y18627D01*
X28642D01*
Y18621D01*
X28647D01*
Y18616D01*
X28658D01*
Y18611D01*
X28663D01*
Y18605D01*
X28680D01*
Y18599D01*
X28691D01*
Y18594D01*
X28707D01*
Y18589D01*
X28790D01*
Y18594D01*
X28812D01*
Y18599D01*
X28818D01*
Y18605D01*
X28834D01*
Y18611D01*
X28839D01*
Y18616D01*
X28851D01*
Y18621D01*
X28856D01*
Y18627D01*
X28867D01*
Y18633D01*
X28872D01*
Y18638D01*
X28878D01*
Y18643D01*
X28884D01*
Y18655D01*
X28889D01*
Y18660D01*
X28895D01*
Y18671D01*
X28900D01*
Y18677D01*
X28905D01*
Y18687D01*
X28911D01*
Y18699D01*
X28916D01*
Y18715D01*
X28922D01*
Y18808D01*
X28916D01*
Y18825D01*
X28911D01*
Y18836D01*
X28905D01*
Y18847D01*
X28900D01*
Y18858D01*
X28895D01*
Y18864D01*
X28889D01*
Y18869D01*
X28884D01*
Y18880D01*
X28878D01*
Y18886D01*
X28872D01*
Y18891D01*
X28867D01*
Y18896D01*
X28856D01*
Y18902D01*
X28851D01*
Y18908D01*
X28839D01*
Y18913D01*
X28834D01*
Y18918D01*
X28823D01*
Y18924D01*
X28807D01*
Y18930D01*
X28795D01*
Y18935D01*
D02*
G37*
G36*
X29604Y18715D02*
X29543D01*
Y18709D01*
X29483D01*
Y18704D01*
X29461D01*
Y18699D01*
X29439D01*
Y18693D01*
X29417D01*
Y18687D01*
X29406D01*
Y18682D01*
X29384D01*
Y18677D01*
X29378D01*
Y18671D01*
X29362D01*
Y18665D01*
X29351D01*
Y18660D01*
X29340D01*
Y18655D01*
X29329D01*
Y18649D01*
X29323D01*
Y18643D01*
X29313D01*
Y18638D01*
X29302D01*
Y18633D01*
X29296D01*
Y18627D01*
X29285D01*
Y18621D01*
X29279D01*
Y18616D01*
X29269D01*
Y18611D01*
X29263D01*
Y18605D01*
X29258D01*
Y18599D01*
X29252D01*
Y18594D01*
X29246D01*
Y18589D01*
X29241D01*
Y18583D01*
X29235D01*
Y18578D01*
X29230D01*
Y18572D01*
X29225D01*
Y18566D01*
X29219D01*
Y18561D01*
X29214D01*
Y18556D01*
X29208D01*
Y18550D01*
X29202D01*
Y18544D01*
X29197D01*
Y18539D01*
X29192D01*
Y18534D01*
X29186D01*
Y18522D01*
X29181D01*
Y18517D01*
X29175D01*
Y18512D01*
X29169D01*
Y18500D01*
X29164D01*
Y18495D01*
X29158D01*
Y18484D01*
X29153D01*
Y18478D01*
X29148D01*
Y18462D01*
X29142D01*
Y18456D01*
X29137D01*
Y18446D01*
X29131D01*
Y18434D01*
X29125D01*
Y18424D01*
X29120D01*
Y18407D01*
X29114D01*
Y18396D01*
X29109D01*
Y18379D01*
X29104D01*
Y18363D01*
X29098D01*
Y18347D01*
X29093D01*
Y18313D01*
X29087D01*
Y18286D01*
X29081D01*
Y18165D01*
X29087D01*
Y18143D01*
X29093D01*
Y18110D01*
X29098D01*
Y18094D01*
X29104D01*
Y18077D01*
X29109D01*
Y18055D01*
X29114D01*
Y18049D01*
X29120D01*
Y18027D01*
X29125D01*
Y18022D01*
X29131D01*
Y18011D01*
X29137D01*
Y18000D01*
X29142D01*
Y17989D01*
X29148D01*
Y17978D01*
X29153D01*
Y17973D01*
X29158D01*
Y17961D01*
X29164D01*
Y17951D01*
X29169D01*
Y17945D01*
X29175D01*
Y17934D01*
X29181D01*
Y17929D01*
X29186D01*
Y17923D01*
X29192D01*
Y17917D01*
X29197D01*
Y17912D01*
X29202D01*
Y17907D01*
X29208D01*
Y17895D01*
X29214D01*
Y17890D01*
X29219D01*
Y17885D01*
X29225D01*
Y17879D01*
X29230D01*
Y17874D01*
X29235D01*
Y17868D01*
X29246D01*
Y17862D01*
X29252D01*
Y17857D01*
X29258D01*
Y17852D01*
X29263D01*
Y17846D01*
X29269D01*
Y17840D01*
X29279D01*
Y17835D01*
X29285D01*
Y17830D01*
X29290D01*
Y17824D01*
X29302D01*
Y17818D01*
X29307D01*
Y17813D01*
X29318D01*
Y17808D01*
X29323D01*
Y17802D01*
X29334D01*
Y17796D01*
X29346D01*
Y17791D01*
X29357D01*
Y17786D01*
X29373D01*
Y17780D01*
X29378D01*
Y17774D01*
X29400D01*
Y17769D01*
X29411D01*
Y17764D01*
X29428D01*
Y17758D01*
X29450D01*
Y17752D01*
X29467D01*
Y17747D01*
X29511D01*
Y17742D01*
X29632D01*
Y17747D01*
X29676D01*
Y17752D01*
X29692D01*
Y17758D01*
X29714D01*
Y17764D01*
X29731D01*
Y17769D01*
X29741D01*
Y17774D01*
X29758D01*
Y17780D01*
X29769D01*
Y17786D01*
X29780D01*
Y17791D01*
X29791D01*
Y17796D01*
X29802D01*
Y17802D01*
X29813D01*
Y17808D01*
X29818D01*
Y17813D01*
X29829D01*
Y17818D01*
X29835D01*
Y17824D01*
X29846D01*
Y17830D01*
X29857D01*
Y17835D01*
X29862D01*
Y17840D01*
X29868D01*
Y17846D01*
X29873D01*
Y17852D01*
X29885D01*
Y17857D01*
X29890D01*
Y17862D01*
X29896D01*
Y17868D01*
X29901D01*
Y17874D01*
X29906D01*
Y17879D01*
X29912D01*
Y17885D01*
X29918D01*
Y17890D01*
X29923D01*
Y17895D01*
X29929D01*
Y17901D01*
X29934D01*
Y17907D01*
X29939D01*
Y17917D01*
X29945D01*
Y17923D01*
X29950D01*
Y17929D01*
X29956D01*
Y17934D01*
X29962D01*
Y17945D01*
X29967D01*
Y17951D01*
X29973D01*
Y17956D01*
X29978D01*
Y17967D01*
X29983D01*
Y17978D01*
X29989D01*
Y17989D01*
X29994D01*
Y17995D01*
X30000D01*
Y18005D01*
X30006D01*
Y18022D01*
X30011D01*
Y18027D01*
X30017D01*
Y18044D01*
X30022D01*
Y18060D01*
X30027D01*
Y18077D01*
X30033D01*
Y18094D01*
X30038D01*
Y18110D01*
X30044D01*
Y18148D01*
X30050D01*
Y18176D01*
X30055D01*
Y18281D01*
X30050D01*
Y18308D01*
X30044D01*
Y18347D01*
X30038D01*
Y18363D01*
X30033D01*
Y18379D01*
X30027D01*
Y18396D01*
X30022D01*
Y18407D01*
X30017D01*
Y18429D01*
X30011D01*
Y18434D01*
X30006D01*
Y18451D01*
X30000D01*
Y18462D01*
X29994D01*
Y18473D01*
X29989D01*
Y18478D01*
X29983D01*
Y18490D01*
X29978D01*
Y18500D01*
X29973D01*
Y18506D01*
X29967D01*
Y18512D01*
X29962D01*
Y18522D01*
X29956D01*
Y18528D01*
X29950D01*
Y18534D01*
X29945D01*
Y18539D01*
X29939D01*
Y18550D01*
X29934D01*
Y18556D01*
X29929D01*
Y18561D01*
X29923D01*
Y18566D01*
X29918D01*
Y18572D01*
X29912D01*
Y18578D01*
X29906D01*
Y18583D01*
X29901D01*
Y18589D01*
X29896D01*
Y18594D01*
X29885D01*
Y18599D01*
X29879D01*
Y18605D01*
X29873D01*
Y18611D01*
X29868D01*
Y18616D01*
X29857D01*
Y18621D01*
X29852D01*
Y18627D01*
X29846D01*
Y18633D01*
X29835D01*
Y18638D01*
X29829D01*
Y18643D01*
X29818D01*
Y18649D01*
X29813D01*
Y18655D01*
X29802D01*
Y18660D01*
X29791D01*
Y18665D01*
X29780D01*
Y18671D01*
X29764D01*
Y18677D01*
X29753D01*
Y18682D01*
X29736D01*
Y18687D01*
X29720D01*
Y18693D01*
X29703D01*
Y18699D01*
X29681D01*
Y18704D01*
X29659D01*
Y18709D01*
X29604D01*
Y18715D01*
D02*
G37*
%LPD*%
G36*
Y18556D02*
X29637D01*
Y18550D01*
X29664D01*
Y18544D01*
X29676D01*
Y18539D01*
X29697D01*
Y18534D01*
X29703D01*
Y18528D01*
X29720D01*
Y18522D01*
X29731D01*
Y18517D01*
X29736D01*
Y18512D01*
X29747D01*
Y18506D01*
X29753D01*
Y18500D01*
X29764D01*
Y18495D01*
X29769D01*
Y18490D01*
X29774D01*
Y18484D01*
X29785D01*
Y18478D01*
X29791D01*
Y18473D01*
X29797D01*
Y18468D01*
X29802D01*
Y18462D01*
X29808D01*
Y18456D01*
X29813D01*
Y18451D01*
X29818D01*
Y18446D01*
X29824D01*
Y18440D01*
X29829D01*
Y18429D01*
X29835D01*
Y18424D01*
X29841D01*
Y18418D01*
X29846D01*
Y18407D01*
X29852D01*
Y18401D01*
X29857D01*
Y18391D01*
X29862D01*
Y18379D01*
X29868D01*
Y18369D01*
X29873D01*
Y18352D01*
X29879D01*
Y18347D01*
X29885D01*
Y18325D01*
X29890D01*
Y18308D01*
X29896D01*
Y18286D01*
X29901D01*
Y18165D01*
X29896D01*
Y18143D01*
X29890D01*
Y18126D01*
X29885D01*
Y18110D01*
X29879D01*
Y18099D01*
X29873D01*
Y18082D01*
X29868D01*
Y18072D01*
X29862D01*
Y18060D01*
X29857D01*
Y18055D01*
X29852D01*
Y18049D01*
X29846D01*
Y18039D01*
X29841D01*
Y18027D01*
X29835D01*
Y18022D01*
X29829D01*
Y18017D01*
X29824D01*
Y18011D01*
X29818D01*
Y18000D01*
X29813D01*
Y17995D01*
X29808D01*
Y17989D01*
X29802D01*
Y17983D01*
X29791D01*
Y17973D01*
X29780D01*
Y17967D01*
X29774D01*
Y17961D01*
X29769D01*
Y17956D01*
X29758D01*
Y17951D01*
X29753D01*
Y17945D01*
X29741D01*
Y17939D01*
X29736D01*
Y17934D01*
X29725D01*
Y17929D01*
X29714D01*
Y17923D01*
X29703D01*
Y17917D01*
X29687D01*
Y17912D01*
X29676D01*
Y17907D01*
X29648D01*
Y17901D01*
X29626D01*
Y17895D01*
X29516D01*
Y17901D01*
X29494D01*
Y17907D01*
X29467D01*
Y17912D01*
X29455D01*
Y17917D01*
X29439D01*
Y17923D01*
X29428D01*
Y17929D01*
X29417D01*
Y17934D01*
X29406D01*
Y17939D01*
X29395D01*
Y17945D01*
X29390D01*
Y17951D01*
X29378D01*
Y17956D01*
X29373D01*
Y17961D01*
X29362D01*
Y17967D01*
X29357D01*
Y17973D01*
X29351D01*
Y17978D01*
X29346D01*
Y17983D01*
X29340D01*
Y17989D01*
X29334D01*
Y17995D01*
X29329D01*
Y18000D01*
X29323D01*
Y18005D01*
X29318D01*
Y18011D01*
X29313D01*
Y18017D01*
X29307D01*
Y18022D01*
X29302D01*
Y18033D01*
X29296D01*
Y18039D01*
X29290D01*
Y18049D01*
X29285D01*
Y18055D01*
X29279D01*
Y18066D01*
X29274D01*
Y18077D01*
X29269D01*
Y18088D01*
X29263D01*
Y18104D01*
X29258D01*
Y18116D01*
X29252D01*
Y18138D01*
X29246D01*
Y18154D01*
X29241D01*
Y18192D01*
X29235D01*
Y18264D01*
X29241D01*
Y18303D01*
X29246D01*
Y18319D01*
X29252D01*
Y18341D01*
X29258D01*
Y18352D01*
X29263D01*
Y18369D01*
X29269D01*
Y18374D01*
X29274D01*
Y18385D01*
X29279D01*
Y18396D01*
X29285D01*
Y18407D01*
X29290D01*
Y18412D01*
X29296D01*
Y18424D01*
X29302D01*
Y18429D01*
X29307D01*
Y18434D01*
X29313D01*
Y18440D01*
X29318D01*
Y18446D01*
X29323D01*
Y18451D01*
X29329D01*
Y18462D01*
X29334D01*
Y18468D01*
X29340D01*
Y18473D01*
X29351D01*
Y18478D01*
X29357D01*
Y18484D01*
X29362D01*
Y18490D01*
X29367D01*
Y18495D01*
X29373D01*
Y18500D01*
X29384D01*
Y18506D01*
X29390D01*
Y18512D01*
X29400D01*
Y18517D01*
X29411D01*
Y18522D01*
X29423D01*
Y18528D01*
X29434D01*
Y18534D01*
X29444D01*
Y18539D01*
X29467D01*
Y18544D01*
X29478D01*
Y18550D01*
X29505D01*
Y18556D01*
X29538D01*
Y18561D01*
X29604D01*
Y18556D01*
D02*
G37*
%LPC*%
G36*
X29609Y18462D02*
X29522D01*
Y18456D01*
X29499D01*
Y18451D01*
X29488D01*
Y18446D01*
X29472D01*
Y18440D01*
X29461D01*
Y18434D01*
X29450D01*
Y18429D01*
X29444D01*
Y18424D01*
X29434D01*
Y18418D01*
X29428D01*
Y18412D01*
X29423D01*
Y18407D01*
X29411D01*
Y18401D01*
X29406D01*
Y18396D01*
X29400D01*
Y18391D01*
X29395D01*
Y18385D01*
X29390D01*
Y18379D01*
X29384D01*
Y18369D01*
X29378D01*
Y18363D01*
X29373D01*
Y18357D01*
X29367D01*
Y18347D01*
X29362D01*
Y18341D01*
X29357D01*
Y18325D01*
X29351D01*
Y18319D01*
X29346D01*
Y18297D01*
X29340D01*
Y18281D01*
X29334D01*
Y18247D01*
X29329D01*
Y18198D01*
X29334D01*
Y18170D01*
X29340D01*
Y18154D01*
X29346D01*
Y18132D01*
X29351D01*
Y18126D01*
X29357D01*
Y18110D01*
X29362D01*
Y18104D01*
X29367D01*
Y18094D01*
X29373D01*
Y18082D01*
X29378D01*
Y18077D01*
X29384D01*
Y18072D01*
X29390D01*
Y18066D01*
X29395D01*
Y18060D01*
X29400D01*
Y18055D01*
X29406D01*
Y18049D01*
X29411D01*
Y18044D01*
X29417D01*
Y18039D01*
X29423D01*
Y18033D01*
X29428D01*
Y18027D01*
X29439D01*
Y18022D01*
X29450D01*
Y18017D01*
X29455D01*
Y18011D01*
X29472D01*
Y18005D01*
X29478D01*
Y18000D01*
X29499D01*
Y17995D01*
X29516D01*
Y17989D01*
X29543D01*
Y17983D01*
X29588D01*
Y17989D01*
X29620D01*
Y17995D01*
X29637D01*
Y18000D01*
X29659D01*
Y18005D01*
X29670D01*
Y18011D01*
X29681D01*
Y18017D01*
X29692D01*
Y18022D01*
X29697D01*
Y18027D01*
X29708D01*
Y18033D01*
X29714D01*
Y18039D01*
X29720D01*
Y18044D01*
X29725D01*
Y18049D01*
X29736D01*
Y18055D01*
X29741D01*
Y18060D01*
X29747D01*
Y18066D01*
X29753D01*
Y18077D01*
X29758D01*
Y18082D01*
X29764D01*
Y18088D01*
X29769D01*
Y18099D01*
X29774D01*
Y18104D01*
X29780D01*
Y18121D01*
X29785D01*
Y18126D01*
X29791D01*
Y18143D01*
X29797D01*
Y18160D01*
X29802D01*
Y18182D01*
X29808D01*
Y18269D01*
X29802D01*
Y18286D01*
X29797D01*
Y18303D01*
X29791D01*
Y18319D01*
X29785D01*
Y18330D01*
X29780D01*
Y18341D01*
X29774D01*
Y18347D01*
X29769D01*
Y18357D01*
X29764D01*
Y18369D01*
X29758D01*
Y18374D01*
X29753D01*
Y18379D01*
X29747D01*
Y18385D01*
X29741D01*
Y18391D01*
X29736D01*
Y18396D01*
X29731D01*
Y18401D01*
X29725D01*
Y18407D01*
X29720D01*
Y18412D01*
X29714D01*
Y18418D01*
X29703D01*
Y18424D01*
X29697D01*
Y18429D01*
X29687D01*
Y18434D01*
X29676D01*
Y18440D01*
X29664D01*
Y18446D01*
X29648D01*
Y18451D01*
X29637D01*
Y18456D01*
X29609D01*
Y18462D01*
D02*
G37*
G36*
X31331Y18599D02*
X31199D01*
Y18594D01*
X31177D01*
Y18589D01*
X31172D01*
Y18583D01*
X31166D01*
Y18572D01*
X31161D01*
Y18352D01*
X31155D01*
Y18330D01*
X31149D01*
Y18319D01*
X31144D01*
Y18313D01*
X31139D01*
Y18303D01*
X31133D01*
Y18297D01*
X31128D01*
Y18291D01*
X31116D01*
Y18286D01*
X31111D01*
Y18281D01*
X31100D01*
Y18275D01*
X31078D01*
Y18269D01*
X30858D01*
Y18264D01*
X30847D01*
Y18259D01*
X30842D01*
Y18253D01*
X30836D01*
Y18237D01*
X30831D01*
Y18148D01*
Y18143D01*
Y18060D01*
X30836D01*
Y18044D01*
X30842D01*
Y18039D01*
X30847D01*
Y18033D01*
X30858D01*
Y18027D01*
X31078D01*
Y18022D01*
X31100D01*
Y18017D01*
X31105D01*
Y18011D01*
X31116D01*
Y18005D01*
X31122D01*
Y18000D01*
X31128D01*
Y17995D01*
X31133D01*
Y17989D01*
X31139D01*
Y17983D01*
X31144D01*
Y17973D01*
X31149D01*
Y17967D01*
X31155D01*
Y17945D01*
X31161D01*
Y17725D01*
X31166D01*
Y17714D01*
X31172D01*
Y17708D01*
X31177D01*
Y17703D01*
X31188D01*
Y17697D01*
X31375D01*
Y17703D01*
X31386D01*
Y17708D01*
X31397D01*
Y17714D01*
X31402D01*
Y17945D01*
X31408D01*
Y17956D01*
X31414D01*
Y17973D01*
X31419D01*
Y17978D01*
X31425D01*
Y17989D01*
X31430D01*
Y17995D01*
X31435D01*
Y18000D01*
X31446D01*
Y18005D01*
X31452D01*
Y18011D01*
X31463D01*
Y18017D01*
X31474D01*
Y18022D01*
X31507D01*
Y18027D01*
X31716D01*
Y18033D01*
X31721D01*
Y18039D01*
X31727D01*
Y18044D01*
X31732D01*
Y18247D01*
X31727D01*
Y18253D01*
X31721D01*
Y18259D01*
X31716D01*
Y18264D01*
X31705D01*
Y18269D01*
X31485D01*
Y18275D01*
X31463D01*
Y18281D01*
X31458D01*
Y18286D01*
X31446D01*
Y18291D01*
X31441D01*
Y18297D01*
X31435D01*
Y18303D01*
X31430D01*
Y18308D01*
X31425D01*
Y18313D01*
X31419D01*
Y18325D01*
X31414D01*
Y18335D01*
X31408D01*
Y18352D01*
X31402D01*
Y18578D01*
X31397D01*
Y18589D01*
X31386D01*
Y18594D01*
X31331D01*
Y18599D01*
D02*
G37*
G36*
X39450Y25299D02*
X39003D01*
Y25285D01*
X38895D01*
Y25272D01*
X38854D01*
Y25258D01*
X38746D01*
Y25245D01*
X38692D01*
Y25231D01*
X38624D01*
Y25218D01*
X38597D01*
Y25204D01*
X38583D01*
Y24906D01*
X38597D01*
Y24866D01*
X38610D01*
Y24811D01*
X38624D01*
Y24784D01*
X38637D01*
Y24757D01*
X38651D01*
Y24717D01*
X38665D01*
Y24703D01*
X38678D01*
Y24676D01*
X38692D01*
Y24662D01*
X38705D01*
Y24649D01*
X38719D01*
Y24622D01*
X38732D01*
Y24608D01*
X38746D01*
Y24595D01*
X38759D01*
Y24581D01*
X38773D01*
Y24568D01*
X38786D01*
Y24554D01*
X38814D01*
Y24541D01*
X38827D01*
Y24527D01*
X38841D01*
Y24514D01*
X38868D01*
Y24500D01*
X38895D01*
Y24486D01*
X38908D01*
Y24473D01*
X38935D01*
Y24459D01*
X38963D01*
Y24446D01*
X39003D01*
Y24432D01*
X39030D01*
Y24419D01*
X39084D01*
Y24405D01*
X39125D01*
Y24392D01*
X39193D01*
Y24378D01*
X39477D01*
Y24392D01*
X39545D01*
Y24405D01*
X39572D01*
Y24419D01*
X39626D01*
Y24432D01*
X39640D01*
Y24446D01*
X39680D01*
Y24459D01*
X39707D01*
Y24473D01*
X39721D01*
Y24486D01*
X39748D01*
Y24500D01*
X39761D01*
Y24514D01*
X39775D01*
Y24527D01*
X39789D01*
Y24541D01*
X39802D01*
Y24554D01*
X39816D01*
Y24568D01*
X39829D01*
Y24581D01*
X39843D01*
Y24595D01*
X39856D01*
Y24622D01*
X39870D01*
Y24635D01*
X39883D01*
Y24676D01*
X39897D01*
Y24703D01*
X39910D01*
Y24771D01*
X39924D01*
Y24906D01*
X39910D01*
Y24974D01*
X39897D01*
Y25001D01*
X39883D01*
Y25042D01*
X39870D01*
Y25055D01*
X39856D01*
Y25082D01*
X39843D01*
Y25096D01*
X39829D01*
Y25109D01*
X39816D01*
Y25123D01*
X39802D01*
Y25136D01*
X39789D01*
Y25150D01*
X39775D01*
Y25164D01*
X39761D01*
Y25177D01*
X39748D01*
Y25191D01*
X39721D01*
Y25204D01*
X39694D01*
Y25218D01*
X39667D01*
Y25231D01*
X39626D01*
Y25245D01*
X39599D01*
Y25258D01*
X39558D01*
Y25272D01*
X39504D01*
Y25285D01*
X39450D01*
Y25299D01*
D02*
G37*
G36*
X31975Y26071D02*
X31813D01*
Y26057D01*
X31758D01*
Y26044D01*
X31691D01*
Y26030D01*
X31650D01*
Y26017D01*
X31623D01*
Y26003D01*
X31582D01*
Y25990D01*
X31569D01*
Y25976D01*
X31542D01*
Y25963D01*
X31528D01*
Y25949D01*
X31501D01*
Y25935D01*
X31488D01*
Y25922D01*
X31474D01*
Y25908D01*
X31447D01*
Y25895D01*
X31433D01*
Y25881D01*
X31420D01*
Y25868D01*
X31406D01*
Y25841D01*
X31393D01*
Y25827D01*
X31379D01*
Y25814D01*
X31366D01*
Y25786D01*
X31352D01*
Y25773D01*
X31339D01*
Y25746D01*
X31325D01*
Y25732D01*
X31311D01*
Y25705D01*
X31298D01*
Y25678D01*
X31284D01*
Y25651D01*
X31271D01*
Y25610D01*
X31257D01*
Y25583D01*
X31244D01*
Y25529D01*
X31230D01*
Y25475D01*
X31217D01*
Y25421D01*
X31203D01*
Y25312D01*
X32598D01*
Y25326D01*
X32611D01*
Y25367D01*
X32598D01*
Y25461D01*
X32584D01*
Y25489D01*
X32571D01*
Y25556D01*
X32557D01*
Y25583D01*
X32544D01*
Y25624D01*
X32530D01*
Y25651D01*
X32517D01*
Y25665D01*
X32503D01*
Y25705D01*
X32490D01*
Y25719D01*
X32476D01*
Y25746D01*
X32462D01*
Y25759D01*
X32449D01*
Y25786D01*
X32435D01*
Y25800D01*
X32422D01*
Y25814D01*
X32408D01*
Y25841D01*
X32381D01*
Y25854D01*
X32368D01*
Y25881D01*
X32341D01*
Y25908D01*
X32314D01*
Y25922D01*
X32300D01*
Y25935D01*
X32286D01*
Y25949D01*
X32259D01*
Y25963D01*
X32246D01*
Y25976D01*
X32205D01*
Y25990D01*
X32192D01*
Y26003D01*
X32165D01*
Y26017D01*
X32124D01*
Y26030D01*
X32097D01*
Y26044D01*
X32029D01*
Y26057D01*
X31975D01*
Y26071D01*
D02*
G37*
G36*
X41847Y26802D02*
X41143D01*
Y26789D01*
X40980D01*
Y26775D01*
X40940D01*
Y26761D01*
X40885D01*
Y26748D01*
X40845D01*
Y26734D01*
X40804D01*
Y26721D01*
X40764D01*
Y26707D01*
X40750D01*
Y26694D01*
X40709D01*
Y26680D01*
X40696D01*
Y26667D01*
X40669D01*
Y26653D01*
X40655D01*
Y26640D01*
X40642D01*
Y26626D01*
X40615D01*
Y26613D01*
X40601D01*
Y26599D01*
X40588D01*
Y26585D01*
X40574D01*
Y26572D01*
X40560D01*
Y26558D01*
X40547D01*
Y26545D01*
X40533D01*
Y26518D01*
X40520D01*
Y26504D01*
X40506D01*
Y26491D01*
X40493D01*
Y26464D01*
X40479D01*
Y26450D01*
X40466D01*
Y26409D01*
X40452D01*
Y26382D01*
X40439D01*
Y26328D01*
X40425D01*
Y26274D01*
X40411D01*
Y26193D01*
X40398D01*
Y26084D01*
X40411D01*
Y26003D01*
X40425D01*
Y25990D01*
Y25976D01*
Y25949D01*
X40439D01*
Y25895D01*
X40452D01*
Y25881D01*
X40466D01*
Y25841D01*
X40479D01*
Y25827D01*
X40493D01*
Y25800D01*
X40506D01*
Y25773D01*
X40520D01*
Y25759D01*
X40533D01*
Y25746D01*
X40547D01*
Y25719D01*
X40560D01*
Y25705D01*
X40574D01*
Y25692D01*
X40588D01*
Y25678D01*
X40601D01*
Y25665D01*
X40615D01*
Y25651D01*
X40642D01*
Y25638D01*
X40655D01*
Y25624D01*
X40682D01*
Y25610D01*
X40696D01*
Y25597D01*
X40709D01*
Y25583D01*
X40750D01*
Y25570D01*
X40764D01*
Y25556D01*
X40791D01*
Y25543D01*
X40818D01*
Y25529D01*
X40858D01*
Y25516D01*
X40899D01*
Y25502D01*
X40940D01*
Y25489D01*
X41007D01*
Y25475D01*
X41075D01*
Y25461D01*
X41860D01*
Y26789D01*
X41847D01*
Y26802D01*
D02*
G37*
%LPD*%
D10*
X24449Y13000D02*
X54500D01*
X24449Y15000D02*
X54500D01*
Y13000D02*
Y15000D01*
X24449Y13000D02*
Y15000D01*
X26000Y36500D02*
X28000D01*
X26000Y30500D02*
Y36500D01*
Y30500D02*
X28000D01*
Y36500D01*
X47000Y24500D02*
Y36500D01*
X45000Y24500D02*
Y36500D01*
X47000D01*
X45000Y24500D02*
X47000D01*
D12*
X23900Y13200D02*
Y13800D01*
X23600D01*
X23500Y13700D01*
Y13500D01*
X23600Y13400D01*
X23900D01*
X23300Y13200D02*
X23100D01*
X23200D01*
Y13800D01*
X23300Y13700D01*
X27940Y36900D02*
Y37500D01*
X27640D01*
X27540Y37400D01*
Y37200D01*
X27640Y37100D01*
X27940D01*
X26940Y36900D02*
X27340D01*
X26940Y37300D01*
Y37400D01*
X27040Y37500D01*
X27240D01*
X27340Y37400D01*
X46940Y36900D02*
Y37500D01*
X46640D01*
X46540Y37400D01*
Y37200D01*
X46640Y37100D01*
X46940D01*
X46340Y37400D02*
X46240Y37500D01*
X46040D01*
X45940Y37400D01*
Y37300D01*
X46040Y37200D01*
X46140D01*
X46040D01*
X45940Y37100D01*
Y37000D01*
X46040Y36900D01*
X46240D01*
X46340Y37000D01*
D13*
X60244Y41160D02*
Y41909D01*
X59994Y41659D01*
X59745Y41909D01*
Y41160D01*
X59370Y41659D02*
X59120D01*
X58995Y41534D01*
Y41160D01*
X59370D01*
X59495Y41285D01*
X59370Y41409D01*
X58995D01*
X58245Y41909D02*
Y41160D01*
X58620D01*
X58745Y41285D01*
Y41534D01*
X58620Y41659D01*
X58245D01*
X57620Y41160D02*
X57870D01*
X57995Y41285D01*
Y41534D01*
X57870Y41659D01*
X57620D01*
X57495Y41534D01*
Y41409D01*
X57995D01*
X56496Y41659D02*
Y41285D01*
X56371Y41160D01*
X56246Y41285D01*
X56121Y41160D01*
X55996Y41285D01*
Y41659D01*
X55746Y41160D02*
X55496D01*
X55621D01*
Y41659D01*
X55746D01*
X54996Y41784D02*
Y41659D01*
X55121D01*
X54871D01*
X54996D01*
Y41285D01*
X54871Y41160D01*
X54496Y41909D02*
Y41160D01*
Y41534D01*
X54371Y41659D01*
X54121D01*
X53996Y41534D01*
Y41160D01*
X52997D02*
X52747D01*
X52872D01*
Y41909D01*
X52997D01*
X52247Y41160D02*
X51997D01*
X51872Y41285D01*
Y41534D01*
X51997Y41659D01*
X52247D01*
X52372Y41534D01*
Y41285D01*
X52247Y41160D01*
X51622Y41659D02*
X51372Y41160D01*
X51122Y41659D01*
X50498Y41160D02*
X50747D01*
X50872Y41285D01*
Y41534D01*
X50747Y41659D01*
X50498D01*
X50373Y41534D01*
Y41409D01*
X50872D01*
X49373Y41160D02*
X49123D01*
X49248D01*
Y41659D01*
X49373D01*
X48748Y41160D02*
Y41659D01*
X48373D01*
X48248Y41534D01*
Y41160D01*
X46874Y41909D02*
X47124D01*
X47249Y41784D01*
Y41285D01*
X47124Y41160D01*
X46874D01*
X46749Y41285D01*
Y41784D01*
X46874Y41909D01*
X45999Y41659D02*
X46374D01*
X46499Y41534D01*
Y41285D01*
X46374Y41160D01*
X45999D01*
X45624Y41784D02*
Y41659D01*
X45749D01*
X45499D01*
X45624D01*
Y41285D01*
X45499Y41160D01*
X44999D02*
X44749D01*
X44624Y41285D01*
Y41534D01*
X44749Y41659D01*
X44999D01*
X45124Y41534D01*
Y41285D01*
X44999Y41160D01*
X44375Y41909D02*
Y41160D01*
X44000D01*
X43875Y41285D01*
Y41409D01*
Y41534D01*
X44000Y41659D01*
X44375D01*
X43250Y41160D02*
X43500D01*
X43625Y41285D01*
Y41534D01*
X43500Y41659D01*
X43250D01*
X43125Y41534D01*
Y41409D01*
X43625D01*
X42875Y41659D02*
Y41160D01*
Y41409D01*
X42750Y41534D01*
X42625Y41659D01*
X42500D01*
X40876Y41160D02*
X41375D01*
X40876Y41659D01*
Y41784D01*
X41001Y41909D01*
X41251D01*
X41375Y41784D01*
X40626D02*
X40501Y41909D01*
X40251D01*
X40126Y41784D01*
Y41285D01*
X40251Y41160D01*
X40501D01*
X40626Y41285D01*
Y41784D01*
X39376Y41160D02*
X39876D01*
X39376Y41659D01*
Y41784D01*
X39501Y41909D01*
X39751D01*
X39876Y41784D01*
X38626Y41160D02*
X39126D01*
X38626Y41659D01*
Y41784D01*
X38751Y41909D01*
X39001D01*
X39126Y41784D01*
X37627Y41909D02*
Y41160D01*
X37252D01*
X37127Y41285D01*
Y41409D01*
Y41534D01*
X37252Y41659D01*
X37627D01*
X36877D02*
Y41285D01*
X36752Y41160D01*
X36377D01*
Y41035D01*
X36502Y40910D01*
X36627D01*
X36377Y41160D02*
Y41659D01*
X35252Y41784D02*
Y41659D01*
X35377D01*
X35127D01*
X35252D01*
Y41285D01*
X35127Y41160D01*
X34753Y41909D02*
Y41160D01*
Y41534D01*
X34628Y41659D01*
X34378D01*
X34253Y41534D01*
Y41160D01*
X33628D02*
X33878D01*
X34003Y41285D01*
Y41534D01*
X33878Y41659D01*
X33628D01*
X33503Y41534D01*
Y41409D01*
X34003D01*
X32503Y41909D02*
Y41160D01*
X32253Y41409D01*
X32004Y41160D01*
Y41909D01*
X31629Y41659D02*
X31379D01*
X31254Y41534D01*
Y41160D01*
X31629D01*
X31754Y41285D01*
X31629Y41409D01*
X31254D01*
X30879Y41784D02*
Y41659D01*
X31004D01*
X30754D01*
X30879D01*
Y41285D01*
X30754Y41160D01*
X30004D02*
X30254D01*
X30379Y41285D01*
Y41534D01*
X30254Y41659D01*
X30004D01*
X29879Y41534D01*
Y41409D01*
X30379D01*
X29629Y41659D02*
Y41160D01*
Y41409D01*
X29504Y41534D01*
X29379Y41659D01*
X29254D01*
X28880Y41160D02*
Y41909D01*
X28380Y41160D01*
Y41909D01*
X27755Y41160D02*
X28005D01*
X28130Y41285D01*
Y41534D01*
X28005Y41659D01*
X27755D01*
X27630Y41534D01*
Y41409D01*
X28130D01*
X27255Y41784D02*
Y41659D01*
X27380D01*
X27130D01*
X27255D01*
Y41285D01*
X27130Y41160D01*
X26255D02*
X26755D01*
X26255Y41659D01*
Y41784D01*
X26380Y41909D01*
X26630D01*
X26755Y41784D01*
X26005D02*
X25880Y41909D01*
X25631D01*
X25506Y41784D01*
Y41659D01*
X25631Y41534D01*
X25756D01*
X25631D01*
X25506Y41409D01*
Y41285D01*
X25631Y41160D01*
X25880D01*
X26005Y41285D01*
X49935Y40275D02*
X50060Y40400D01*
X50310D01*
X50435Y40275D01*
Y40150D01*
X50310Y40025D01*
X50060D01*
X49935Y39900D01*
Y39775D01*
X50060Y39650D01*
X50310D01*
X50435Y39775D01*
X49310Y39650D02*
X49560D01*
X49685Y39775D01*
Y40025D01*
X49560Y40150D01*
X49310D01*
X49185Y40025D01*
Y39900D01*
X49685D01*
X48936Y39650D02*
Y40150D01*
X48561D01*
X48436Y40025D01*
Y39650D01*
X48186D02*
X47936D01*
X48061D01*
Y40150D01*
X48186D01*
X47436Y39650D02*
X47186D01*
X47061Y39775D01*
Y40025D01*
X47186Y40150D01*
X47436D01*
X47561Y40025D01*
Y39775D01*
X47436Y39650D01*
X46811Y40150D02*
Y39650D01*
Y39900D01*
X46686Y40025D01*
X46561Y40150D01*
X46436D01*
X45312Y40400D02*
Y39650D01*
X44937D01*
X44812Y39775D01*
Y40275D01*
X44937Y40400D01*
X45312D01*
X44187Y39650D02*
X44437D01*
X44562Y39775D01*
Y40025D01*
X44437Y40150D01*
X44187D01*
X44062Y40025D01*
Y39900D01*
X44562D01*
X43812Y39650D02*
X43437D01*
X43312Y39775D01*
X43437Y39900D01*
X43687D01*
X43812Y40025D01*
X43687Y40150D01*
X43312D01*
X43062Y39650D02*
X42813D01*
X42937D01*
Y40150D01*
X43062D01*
X42188Y39400D02*
X42063D01*
X41938Y39525D01*
Y40150D01*
X42313D01*
X42438Y40025D01*
Y39775D01*
X42313Y39650D01*
X41938D01*
X41688D02*
Y40150D01*
X41313D01*
X41188Y40025D01*
Y39650D01*
X40063Y40275D02*
Y40150D01*
X40188D01*
X39938D01*
X40063D01*
Y39775D01*
X39938Y39650D01*
X39189D02*
X39439D01*
X39564Y39775D01*
Y40025D01*
X39439Y40150D01*
X39189D01*
X39064Y40025D01*
Y39900D01*
X39564D01*
X38689Y40150D02*
X38439D01*
X38314Y40025D01*
Y39650D01*
X38689D01*
X38814Y39775D01*
X38689Y39900D01*
X38314D01*
X38064Y39650D02*
Y40150D01*
X37939D01*
X37814Y40025D01*
Y39650D01*
Y40025D01*
X37689Y40150D01*
X37564Y40025D01*
Y39650D01*
X36190D02*
X36565Y40025D01*
X36190Y40400D01*
X35815Y40275D02*
X35690Y40400D01*
X35440D01*
X35315Y40275D01*
Y40150D01*
X35440Y40025D01*
X35565D01*
X35440D01*
X35315Y39900D01*
Y39775D01*
X35440Y39650D01*
X35690D01*
X35815Y39775D01*
M02*
