G04*
G04 #@! TF.GenerationSoftware,Altium Limited,Altium Designer,22.9.1 (49)*
G04*
G04 Layer_Color=8388736*
%FSLAX24Y24*%
%MOIN*%
G70*
G04*
G04 #@! TF.SameCoordinates,D869CEA3-EDD9-45C0-ACDC-C570693A3B7D*
G04*
G04*
G04 #@! TF.FilePolarity,Negative*
G04*
G01*
G75*
%ADD16R,0.0552X0.0797*%
%ADD17C,0.3230*%
%ADD18R,0.0674X0.0674*%
%ADD19C,0.0674*%
%ADD20C,0.0671*%
%ADD21R,0.0671X0.0671*%
%ADD22R,0.0671X0.0671*%
%ADD23C,0.0780*%
%ADD24C,0.0980*%
%ADD25C,0.0551*%
%ADD26R,0.0551X0.0551*%
%ADD27C,0.0820*%
%ADD28C,0.0237*%
%ADD29C,0.0580*%
D16*
X37075Y18000D02*
D03*
X35925D02*
D03*
Y17000D02*
D03*
X37075D02*
D03*
X19575Y30500D02*
D03*
X18425D02*
D03*
X37150Y34000D02*
D03*
X36000D02*
D03*
X58425Y13500D02*
D03*
X59575D02*
D03*
X65425Y20500D02*
D03*
X66575D02*
D03*
X58425D02*
D03*
X59575D02*
D03*
X51425D02*
D03*
X52575D02*
D03*
X18425Y31500D02*
D03*
X19575D02*
D03*
X58425Y27500D02*
D03*
X59575D02*
D03*
Y14500D02*
D03*
X58425D02*
D03*
X66575Y21500D02*
D03*
X65425D02*
D03*
X59575D02*
D03*
X58425D02*
D03*
X52575D02*
D03*
X51425D02*
D03*
X59575Y28500D02*
D03*
X58425D02*
D03*
D17*
X19500Y43000D02*
D03*
X65500Y12000D02*
D03*
X19500D02*
D03*
D18*
X35614Y19720D02*
D03*
X58114Y16220D02*
D03*
X65114Y23220D02*
D03*
X58114D02*
D03*
X51114D02*
D03*
X58114Y30220D02*
D03*
D19*
X35614Y22280D02*
D03*
X37386Y19720D02*
D03*
Y22280D02*
D03*
X58114Y18780D02*
D03*
X59886Y16220D02*
D03*
Y18780D02*
D03*
X65114Y25780D02*
D03*
X66886Y23220D02*
D03*
Y25780D02*
D03*
X58114D02*
D03*
X59886Y23220D02*
D03*
Y25780D02*
D03*
X51114D02*
D03*
X52886Y23220D02*
D03*
Y25780D02*
D03*
X58114Y32780D02*
D03*
X59886Y30220D02*
D03*
Y32780D02*
D03*
D20*
X30000Y14500D02*
D03*
Y13500D02*
D03*
X31000Y14500D02*
D03*
Y13500D02*
D03*
X32000Y14500D02*
D03*
Y13500D02*
D03*
X33000Y14500D02*
D03*
Y13500D02*
D03*
X34000Y14500D02*
D03*
Y13500D02*
D03*
X35000Y14500D02*
D03*
Y13500D02*
D03*
X36000Y14500D02*
D03*
Y13500D02*
D03*
X37000Y14500D02*
D03*
Y13500D02*
D03*
X38000Y14500D02*
D03*
Y13500D02*
D03*
X39000Y14500D02*
D03*
Y13500D02*
D03*
X40000Y14500D02*
D03*
Y13500D02*
D03*
X41000Y14500D02*
D03*
Y13500D02*
D03*
X42000Y14500D02*
D03*
Y13500D02*
D03*
X43000Y14500D02*
D03*
Y13500D02*
D03*
X44000Y14500D02*
D03*
Y13500D02*
D03*
X45000Y14500D02*
D03*
Y13500D02*
D03*
X46000Y14500D02*
D03*
Y13500D02*
D03*
X47000Y14500D02*
D03*
Y13500D02*
D03*
X48000Y14500D02*
D03*
Y13500D02*
D03*
X49000Y14500D02*
D03*
Y13500D02*
D03*
X50000Y14500D02*
D03*
Y13500D02*
D03*
X51000Y14500D02*
D03*
Y13500D02*
D03*
X52000Y14500D02*
D03*
Y13500D02*
D03*
X53000Y14500D02*
D03*
Y13500D02*
D03*
X54000Y14500D02*
D03*
X25000D02*
D03*
Y13500D02*
D03*
X26000Y14500D02*
D03*
Y13500D02*
D03*
X27000Y14500D02*
D03*
Y13500D02*
D03*
X28000Y14500D02*
D03*
Y13500D02*
D03*
X29000Y14500D02*
D03*
Y13500D02*
D03*
X26500Y36000D02*
D03*
X27500Y35000D02*
D03*
X26500D02*
D03*
X27500Y34000D02*
D03*
X26500D02*
D03*
X27500Y33000D02*
D03*
X26500D02*
D03*
X27500Y32000D02*
D03*
X26500D02*
D03*
X27500Y31000D02*
D03*
X26500D02*
D03*
X45500Y25000D02*
D03*
X46500D02*
D03*
X45500Y26000D02*
D03*
X46500D02*
D03*
X45500Y27000D02*
D03*
X46500D02*
D03*
X45500Y28000D02*
D03*
X46500D02*
D03*
X45500Y29000D02*
D03*
X46500D02*
D03*
X45500Y30000D02*
D03*
X46500D02*
D03*
X45500Y31000D02*
D03*
X46500D02*
D03*
X45500Y32000D02*
D03*
X46500D02*
D03*
X45500Y33000D02*
D03*
X46500D02*
D03*
X45500Y34000D02*
D03*
X46500D02*
D03*
X45500Y35000D02*
D03*
X46500D02*
D03*
X45500Y36000D02*
D03*
D21*
X54000Y13500D02*
D03*
D22*
X27500Y36000D02*
D03*
X46500D02*
D03*
D23*
X18500Y23250D02*
D03*
Y25750D02*
D03*
X20500Y23250D02*
D03*
Y25750D02*
D03*
X27500Y23500D02*
D03*
Y24500D02*
D03*
Y25500D02*
D03*
X22500Y20500D02*
D03*
X23500D02*
D03*
X24500D02*
D03*
D24*
X20875Y21500D02*
D03*
X26125D02*
D03*
Y27500D02*
D03*
X20875D02*
D03*
D25*
X33055Y43831D02*
D03*
X33843D02*
D03*
X34630D02*
D03*
X35417D02*
D03*
X36205D02*
D03*
X36992D02*
D03*
X37780D02*
D03*
X38567D02*
D03*
X39354D02*
D03*
X40142D02*
D03*
Y35169D02*
D03*
X39354D02*
D03*
X38567D02*
D03*
X37780D02*
D03*
X36992D02*
D03*
X36205D02*
D03*
X35417D02*
D03*
X34630D02*
D03*
X33843D02*
D03*
D26*
X33055D02*
D03*
D27*
X54500Y44000D02*
D03*
X53500D02*
D03*
X56500D02*
D03*
X55500D02*
D03*
X64500D02*
D03*
X63500D02*
D03*
X62500D02*
D03*
X61500D02*
D03*
X60500D02*
D03*
X59500D02*
D03*
X58500D02*
D03*
X57500D02*
D03*
X50500Y36000D02*
D03*
X49500D02*
D03*
X52500D02*
D03*
X51500D02*
D03*
X54500D02*
D03*
X53500D02*
D03*
X56500D02*
D03*
X55500D02*
D03*
X64500D02*
D03*
X63500D02*
D03*
X62500D02*
D03*
X61500D02*
D03*
X60500D02*
D03*
X59500D02*
D03*
X58500D02*
D03*
X57500D02*
D03*
D28*
X67000Y42000D02*
D03*
Y38000D02*
D03*
Y34000D02*
D03*
X66000Y32000D02*
D03*
X67000Y30000D02*
D03*
X66000Y28000D02*
D03*
X67000Y14000D02*
D03*
X64000Y40000D02*
D03*
X65000Y38000D02*
D03*
Y34000D02*
D03*
X64000Y32000D02*
D03*
X65000Y30000D02*
D03*
X64000Y28000D02*
D03*
Y24000D02*
D03*
Y20000D02*
D03*
X65000Y18000D02*
D03*
X64000Y16000D02*
D03*
X65000Y14000D02*
D03*
X63000Y42000D02*
D03*
X62000Y40000D02*
D03*
X63000Y38000D02*
D03*
X62000Y32000D02*
D03*
Y28000D02*
D03*
X63000Y26000D02*
D03*
X62000Y24000D02*
D03*
X63000Y22000D02*
D03*
X62000Y20000D02*
D03*
X63000Y18000D02*
D03*
X62000Y16000D02*
D03*
X63000Y14000D02*
D03*
X61000Y42000D02*
D03*
X60000Y40000D02*
D03*
X61000Y38000D02*
D03*
Y30000D02*
D03*
Y26000D02*
D03*
Y18000D02*
D03*
Y14000D02*
D03*
X59000Y42000D02*
D03*
X58000Y40000D02*
D03*
X59000Y38000D02*
D03*
X57000Y42000D02*
D03*
X56000Y40000D02*
D03*
X57000Y38000D02*
D03*
X56000Y24000D02*
D03*
Y20000D02*
D03*
Y16000D02*
D03*
X55000Y42000D02*
D03*
X54000Y40000D02*
D03*
X55000Y38000D02*
D03*
Y34000D02*
D03*
X54000Y32000D02*
D03*
Y28000D02*
D03*
X55000Y26000D02*
D03*
X54000Y24000D02*
D03*
X55000Y22000D02*
D03*
X54000Y20000D02*
D03*
Y16000D02*
D03*
X53000Y42000D02*
D03*
X52000Y40000D02*
D03*
X53000Y38000D02*
D03*
Y34000D02*
D03*
Y18000D02*
D03*
X52000Y16000D02*
D03*
X51000Y42000D02*
D03*
X50000Y40000D02*
D03*
X51000Y38000D02*
D03*
X50000Y32000D02*
D03*
X51000Y30000D02*
D03*
X50000Y28000D02*
D03*
Y24000D02*
D03*
Y16000D02*
D03*
X49000Y42000D02*
D03*
X48000Y40000D02*
D03*
Y36000D02*
D03*
X49000Y34000D02*
D03*
X48000Y32000D02*
D03*
X49000Y30000D02*
D03*
Y22000D02*
D03*
Y18000D02*
D03*
X47000Y42000D02*
D03*
X46000Y40000D02*
D03*
Y24000D02*
D03*
Y20000D02*
D03*
Y16000D02*
D03*
X45000Y42000D02*
D03*
X44000Y40000D02*
D03*
Y32000D02*
D03*
Y28000D02*
D03*
Y24000D02*
D03*
X45000Y22000D02*
D03*
Y18000D02*
D03*
X43000Y42000D02*
D03*
X42000Y40000D02*
D03*
X43000Y38000D02*
D03*
X42000Y36000D02*
D03*
X43000Y34000D02*
D03*
Y30000D02*
D03*
X42000Y28000D02*
D03*
X43000Y26000D02*
D03*
X42000Y24000D02*
D03*
Y20000D02*
D03*
Y16000D02*
D03*
X41000Y42000D02*
D03*
X40000Y40000D02*
D03*
X41000Y38000D02*
D03*
X40000Y36000D02*
D03*
X41000Y30000D02*
D03*
X40000Y28000D02*
D03*
X41000Y26000D02*
D03*
X40000Y20000D02*
D03*
X41000Y18000D02*
D03*
X40000Y16000D02*
D03*
X39000Y42000D02*
D03*
X38000Y40000D02*
D03*
X39000Y38000D02*
D03*
X38000Y36000D02*
D03*
X39000Y34000D02*
D03*
Y30000D02*
D03*
X38000Y28000D02*
D03*
X39000Y22000D02*
D03*
Y18000D02*
D03*
X37000Y42000D02*
D03*
X36000Y40000D02*
D03*
X37000Y38000D02*
D03*
Y30000D02*
D03*
Y26000D02*
D03*
X36000Y24000D02*
D03*
Y16000D02*
D03*
X35000Y42000D02*
D03*
X34000Y40000D02*
D03*
X35000Y38000D02*
D03*
X34000Y28000D02*
D03*
X35000Y26000D02*
D03*
X34000Y20000D02*
D03*
Y16000D02*
D03*
X33000Y42000D02*
D03*
X32000Y40000D02*
D03*
X33000Y38000D02*
D03*
Y26000D02*
D03*
Y22000D02*
D03*
X32000Y16000D02*
D03*
X31000Y42000D02*
D03*
X30000Y40000D02*
D03*
X31000Y38000D02*
D03*
X30000Y36000D02*
D03*
X31000Y34000D02*
D03*
Y30000D02*
D03*
X30000Y28000D02*
D03*
X31000Y26000D02*
D03*
Y22000D02*
D03*
X30000Y16000D02*
D03*
Y12000D02*
D03*
X29000Y42000D02*
D03*
X28000Y40000D02*
D03*
X29000Y38000D02*
D03*
Y34000D02*
D03*
Y30000D02*
D03*
X28000Y28000D02*
D03*
X29000Y26000D02*
D03*
Y22000D02*
D03*
X28000Y12000D02*
D03*
X27000Y42000D02*
D03*
X26000Y40000D02*
D03*
X27000Y38000D02*
D03*
Y30000D02*
D03*
X26000Y20000D02*
D03*
Y16000D02*
D03*
X25000Y42000D02*
D03*
X24000Y40000D02*
D03*
X25000Y38000D02*
D03*
X24000Y36000D02*
D03*
X25000Y34000D02*
D03*
X24000Y32000D02*
D03*
X25000Y30000D02*
D03*
X24000Y28000D02*
D03*
X25000Y26000D02*
D03*
Y22000D02*
D03*
Y18000D02*
D03*
X24000Y16000D02*
D03*
Y12000D02*
D03*
X23000Y42000D02*
D03*
X22000Y40000D02*
D03*
X23000Y38000D02*
D03*
X22000Y36000D02*
D03*
X23000Y34000D02*
D03*
X22000Y32000D02*
D03*
X23000Y30000D02*
D03*
X22000Y28000D02*
D03*
X23000Y26000D02*
D03*
X22000Y24000D02*
D03*
Y16000D02*
D03*
X23000Y14000D02*
D03*
X22000Y12000D02*
D03*
X20000Y40000D02*
D03*
X21000Y38000D02*
D03*
X20000Y36000D02*
D03*
X21000Y34000D02*
D03*
Y30000D02*
D03*
Y18000D02*
D03*
X20000Y16000D02*
D03*
X21000Y14000D02*
D03*
X18000Y40000D02*
D03*
X19000Y38000D02*
D03*
X18000Y36000D02*
D03*
X19000Y34000D02*
D03*
X18000Y20000D02*
D03*
X19000Y18000D02*
D03*
X18000Y16000D02*
D03*
X19000Y14000D02*
D03*
X58750Y19750D02*
D03*
X58250D02*
D03*
X57750D02*
D03*
Y20250D02*
D03*
X56000Y27000D02*
D03*
X56500D02*
D03*
X57500Y27500D02*
D03*
Y27000D02*
D03*
X56500Y27500D02*
D03*
Y26500D02*
D03*
D29*
X52500Y31000D02*
D03*
X59500Y11500D02*
D03*
M02*
