G04*
G04 #@! TF.GenerationSoftware,Altium Limited,Altium Designer,22.9.1 (49)*
G04*
G04 Layer_Color=65535*
%FSLAX24Y24*%
%MOIN*%
G70*
G04*
G04 #@! TF.SameCoordinates,D869CEA3-EDD9-45C0-ACDC-C570693A3B7D*
G04*
G04*
G04 #@! TF.FilePolarity,Positive*
G04*
G01*
G75*
%ADD10C,0.0079*%
%ADD11C,0.0098*%
%ADD12C,0.0100*%
%ADD13C,0.0150*%
%ADD14C,0.0050*%
D10*
X35663Y19170D02*
G03*
X35663Y19170I-39J0D01*
G01*
X18283Y22118D02*
G03*
X18283Y22118I-39J0D01*
G01*
X58163Y15670D02*
G03*
X58163Y15670I-39J0D01*
G01*
X65163Y22670D02*
G03*
X65163Y22670I-39J0D01*
G01*
X58163D02*
G03*
X58163Y22670I-39J0D01*
G01*
X51163D02*
G03*
X51163Y22670I-39J0D01*
G01*
X58163Y29670D02*
G03*
X58163Y29670I-39J0D01*
G01*
X42984Y38250D02*
Y44299D01*
X32587Y34701D02*
X40701D01*
X30016Y37689D02*
Y41311D01*
Y37689D02*
X32587Y34701D01*
X30016Y41311D02*
X32587Y44299D01*
X42984D01*
D11*
X33104Y34484D02*
G03*
X33104Y34484I-49J0D01*
G01*
D12*
X48000Y44500D02*
G03*
X47000Y43500I0J-1000D01*
G01*
X66000Y35500D02*
G03*
X67000Y36500I0J1000D01*
G01*
Y43500D02*
G03*
X66000Y44500I-1000J0D01*
G01*
X54000Y11750D02*
X54500Y12250D01*
X53750D02*
X54500D01*
X54000D02*
Y12750D01*
X53500Y12250D02*
X54000Y11750D01*
X53500Y12250D02*
X53750D01*
X53000Y11750D02*
X53500Y12250D01*
X52750D02*
X53500D01*
X53000D02*
Y12750D01*
X52500Y12250D02*
X53000Y11750D01*
X52500Y12250D02*
X52750D01*
X52000Y11750D02*
X52500Y12250D01*
X51750D02*
X52500D01*
X52000D02*
Y12750D01*
X51500Y12250D02*
X52000Y11750D01*
X51500Y12250D02*
X51750D01*
X51000Y11750D02*
X51500Y12250D01*
X50750D02*
X51500D01*
X51000D02*
Y12750D01*
X50500Y12250D02*
X51000Y11750D01*
X50500Y12250D02*
X50750D01*
X50000Y11750D02*
X50500Y12250D01*
X49750D02*
X50500D01*
X50000D02*
Y12750D01*
X49500Y12250D02*
X50000Y11750D01*
X49500Y12250D02*
X49750D01*
X43000Y11750D02*
X43500Y12250D01*
X42750D02*
X43500D01*
X43000D02*
Y12750D01*
X42500Y12250D02*
X43000Y11750D01*
X42500Y12250D02*
X42750D01*
X38000Y11750D02*
X38500Y12250D01*
X37750D02*
X38500D01*
X38000D02*
Y12750D01*
X37500Y12250D02*
X38000Y11750D01*
X37500Y12250D02*
X37750D01*
X25000Y11750D02*
X25500Y12250D01*
X24750D02*
X25500D01*
X25000D02*
Y12750D01*
X24500Y12250D02*
X25000Y11750D01*
X24500Y12250D02*
X24750D01*
X43250Y36750D02*
X45750D01*
X47000Y37000D02*
Y43500D01*
X34250Y15750D02*
X34500D01*
X34000Y16250D02*
X34500Y15750D01*
X34000Y15250D02*
Y15750D01*
X33500D02*
X34250D01*
X33500D02*
X34000Y16250D01*
X25750Y36750D02*
X28250D01*
X67000Y36500D02*
Y43500D01*
X48000Y44500D02*
X66000D01*
X48000Y35500D02*
X66000D01*
X38400Y20200D02*
X38300Y20300D01*
X38100D01*
X38000Y20200D01*
Y20100D01*
X38100Y20000D01*
X38300D01*
X38400Y19900D01*
Y19800D01*
X38300Y19700D01*
X38100D01*
X38000Y19800D01*
X39000Y20300D02*
X38800Y20200D01*
X38600Y20000D01*
Y19800D01*
X38700Y19700D01*
X38900D01*
X39000Y19800D01*
Y19900D01*
X38900Y20000D01*
X38600D01*
X38400Y18200D02*
X38300Y18300D01*
X38100D01*
X38000Y18200D01*
Y17800D01*
X38100Y17700D01*
X38300D01*
X38400Y17800D01*
X38600Y18200D02*
X38700Y18300D01*
X38900D01*
X39000Y18200D01*
Y18100D01*
X38900Y18000D01*
X39000Y17900D01*
Y17800D01*
X38900Y17700D01*
X38700D01*
X38600Y17800D01*
Y17900D01*
X38700Y18000D01*
X38600Y18100D01*
Y18200D01*
X38700Y18000D02*
X38900D01*
X38000Y16700D02*
Y17300D01*
X38300D01*
X38400Y17200D01*
Y17000D01*
X38300Y16900D01*
X38000D01*
X38200D02*
X38400Y16700D01*
X38600Y17300D02*
X39000D01*
Y17200D01*
X38600Y16800D01*
Y16700D01*
X43434Y37533D02*
X43300D01*
X43367D01*
Y37200D01*
X43300Y37133D01*
X43234D01*
X43167Y37200D01*
X43567Y37400D02*
Y37200D01*
X43634Y37133D01*
X43834D01*
Y37400D01*
X43967Y37133D02*
Y37400D01*
X44033D01*
X44100Y37333D01*
Y37133D01*
Y37333D01*
X44167Y37400D01*
X44233Y37333D01*
Y37133D01*
X44367Y37000D02*
Y37400D01*
X44567D01*
X44633Y37333D01*
Y37200D01*
X44567Y37133D01*
X44367D01*
X44967D02*
X44833D01*
X44767Y37200D01*
Y37333D01*
X44833Y37400D01*
X44967D01*
X45033Y37333D01*
Y37267D01*
X44767D01*
X45166Y37400D02*
Y37133D01*
Y37267D01*
X45233Y37333D01*
X45300Y37400D01*
X45366D01*
X45566Y37133D02*
X45766D01*
X45833Y37200D01*
X45766Y37267D01*
X45633D01*
X45566Y37333D01*
X45633Y37400D01*
X45833D01*
X28750Y15550D02*
Y15417D01*
X28817Y15350D01*
X29083D01*
X29150Y15417D01*
Y15550D01*
X29083Y15617D01*
X28817D01*
X28750Y15550D01*
Y15750D02*
X29150D01*
Y16016D01*
X28750Y16416D02*
Y16150D01*
X29150D01*
Y16416D01*
X28950Y16150D02*
Y16283D01*
X28750Y16550D02*
X29150D01*
Y16750D01*
X29083Y16816D01*
X28817D01*
X28750Y16750D01*
Y16550D01*
X28950Y16949D02*
Y17216D01*
X28817Y17083D02*
X29083D01*
X28750Y17349D02*
X29150Y17616D01*
X28750D02*
X29150Y17349D01*
X28750Y17749D02*
X29150D01*
Y17949D01*
X29083Y18016D01*
X29017D01*
X28950Y17949D01*
Y17749D01*
Y17949D01*
X28883Y18016D01*
X28817D01*
X28750Y17949D01*
Y17749D01*
X29150Y18349D02*
Y18216D01*
X29083Y18149D01*
X28950D01*
X28883Y18216D01*
Y18349D01*
X28950Y18416D01*
X29017D01*
Y18149D01*
X29150Y18749D02*
Y18616D01*
X29083Y18549D01*
X28950D01*
X28883Y18616D01*
Y18749D01*
X28950Y18816D01*
X29017D01*
Y18549D01*
X29150Y19349D02*
X28750D01*
Y19549D01*
X28817Y19615D01*
X28950D01*
X29017Y19549D01*
Y19349D01*
Y19482D02*
X29150Y19615D01*
Y19749D02*
Y19949D01*
X29083Y20015D01*
X29017Y19949D01*
Y19815D01*
X28950Y19749D01*
X28883Y19815D01*
Y20015D01*
X28817Y20215D02*
X28883D01*
Y20148D01*
Y20282D01*
Y20215D01*
X29083D01*
X29150Y20282D01*
X43850Y25183D02*
X43784Y25250D01*
X43650D01*
X43584Y25183D01*
Y24917D01*
X43650Y24850D01*
X43784D01*
X43850Y24917D01*
Y25050D01*
X43717D01*
X43984Y24850D02*
Y25250D01*
X44250Y24850D01*
Y25250D01*
X44383D02*
Y24850D01*
X44583D01*
X44650Y24917D01*
Y25183D01*
X44583Y25250D01*
X44383D01*
X42384Y25917D02*
Y26317D01*
X42584D01*
X42651Y26250D01*
Y26117D01*
X42584Y26050D01*
X42384D01*
X42784Y25917D02*
Y26317D01*
X42917Y26183D01*
X43051Y26317D01*
Y25917D01*
X43184Y25850D02*
X43450D01*
X43850Y26250D02*
X43784Y26317D01*
X43650D01*
X43584Y26250D01*
Y26183D01*
X43650Y26117D01*
X43784D01*
X43850Y26050D01*
Y25983D01*
X43784Y25917D01*
X43650D01*
X43584Y25983D01*
X44250Y26250D02*
X44183Y26317D01*
X44050D01*
X43984Y26250D01*
Y25983D01*
X44050Y25917D01*
X44183D01*
X44250Y25983D01*
X44383Y26317D02*
Y25917D01*
X44650D01*
X42384Y26917D02*
Y27317D01*
X42584D01*
X42651Y27250D01*
Y27117D01*
X42584Y27050D01*
X42384D01*
X42784Y26917D02*
Y27317D01*
X42917Y27183D01*
X43051Y27317D01*
Y26917D01*
X43184Y26850D02*
X43450D01*
X43850Y27250D02*
X43784Y27317D01*
X43650D01*
X43584Y27250D01*
Y27183D01*
X43650Y27117D01*
X43784D01*
X43850Y27050D01*
Y26983D01*
X43784Y26917D01*
X43650D01*
X43584Y26983D01*
X43984Y27317D02*
Y26917D01*
X44183D01*
X44250Y26983D01*
Y27250D01*
X44183Y27317D01*
X43984D01*
X44383Y26917D02*
Y27183D01*
X44517Y27317D01*
X44650Y27183D01*
Y26917D01*
Y27117D01*
X44383D01*
X42451Y27917D02*
Y28317D01*
X42651D01*
X42717Y28250D01*
Y28117D01*
X42651Y28050D01*
X42451D01*
X42851Y27917D02*
Y28317D01*
X42984Y28183D01*
X43117Y28317D01*
Y27917D01*
X43250Y27850D02*
X43517D01*
X43650Y28317D02*
X43784D01*
X43717D01*
Y27917D01*
X43650D01*
X43784D01*
X43984D02*
Y28317D01*
X44250Y27917D01*
Y28317D01*
X44383D02*
X44650D01*
X44517D01*
Y27917D01*
X42317Y29317D02*
X42051D01*
Y28917D01*
X42317D01*
X42051Y29117D02*
X42184D01*
X42451Y29317D02*
X42717D01*
X42584D01*
Y28917D01*
X42851Y29317D02*
Y28917D01*
Y29117D01*
X43117D01*
Y29317D01*
Y28917D01*
X43250Y28850D02*
X43517D01*
X43650Y29317D02*
X43784D01*
X43717D01*
Y28917D01*
X43650D01*
X43784D01*
X43984D02*
Y29317D01*
X44250Y28917D01*
Y29317D01*
X44383D02*
X44650D01*
X44517D01*
Y28917D01*
X41984Y30317D02*
X41718D01*
Y29917D01*
X41984D01*
X41718Y30117D02*
X41851D01*
X42117Y30317D02*
X42384D01*
X42251D01*
Y29917D01*
X42517Y30317D02*
Y29917D01*
Y30117D01*
X42784D01*
Y30317D01*
Y29917D01*
X42917Y29850D02*
X43184D01*
X43317Y29917D02*
Y30317D01*
X43450Y30183D01*
X43584Y30317D01*
Y29917D01*
X43917Y30317D02*
X43784D01*
X43717Y30250D01*
Y29983D01*
X43784Y29917D01*
X43917D01*
X43984Y29983D01*
Y30250D01*
X43917Y30317D01*
X44383Y30250D02*
X44317Y30317D01*
X44183D01*
X44117Y30250D01*
Y30183D01*
X44183Y30117D01*
X44317D01*
X44383Y30050D01*
Y29983D01*
X44317Y29917D01*
X44183D01*
X44117Y29983D01*
X44517Y30317D02*
X44650D01*
X44583D01*
Y29917D01*
X44517D01*
X44650D01*
X41918Y31317D02*
X41651D01*
Y30917D01*
X41918D01*
X41651Y31117D02*
X41784D01*
X42051Y31317D02*
X42317D01*
X42184D01*
Y30917D01*
X42451Y31317D02*
Y30917D01*
Y31117D01*
X42717D01*
Y31317D01*
Y30917D01*
X42851Y30850D02*
X43117D01*
X43250Y30917D02*
Y31317D01*
X43384Y31183D01*
X43517Y31317D01*
Y30917D01*
X43650Y31317D02*
X43784D01*
X43717D01*
Y30917D01*
X43650D01*
X43784D01*
X44250Y31250D02*
X44183Y31317D01*
X44050D01*
X43984Y31250D01*
Y31183D01*
X44050Y31117D01*
X44183D01*
X44250Y31050D01*
Y30983D01*
X44183Y30917D01*
X44050D01*
X43984Y30983D01*
X44583Y31317D02*
X44450D01*
X44383Y31250D01*
Y30983D01*
X44450Y30917D01*
X44583D01*
X44650Y30983D01*
Y31250D01*
X44583Y31317D01*
X42251Y32317D02*
X41984D01*
Y31917D01*
X42251D01*
X41984Y32117D02*
X42117D01*
X42384Y32317D02*
X42651D01*
X42517D01*
Y31917D01*
X42784Y32317D02*
Y31917D01*
Y32117D01*
X43051D01*
Y32317D01*
Y31917D01*
X43184Y31850D02*
X43450D01*
X43850Y32250D02*
X43784Y32317D01*
X43650D01*
X43584Y32250D01*
Y32183D01*
X43650Y32117D01*
X43784D01*
X43850Y32050D01*
Y31983D01*
X43784Y31917D01*
X43650D01*
X43584Y31983D01*
X44250Y32250D02*
X44183Y32317D01*
X44050D01*
X43984Y32250D01*
Y31983D01*
X44050Y31917D01*
X44183D01*
X44250Y31983D01*
X44383Y32317D02*
Y31917D01*
Y32050D01*
X44650Y32317D01*
X44450Y32117D01*
X44650Y31917D01*
X42651Y33317D02*
X42384D01*
Y32917D01*
X42651D01*
X42384Y33117D02*
X42517D01*
X42784Y33317D02*
X43051D01*
X42917D01*
Y32917D01*
X43184Y33317D02*
Y32917D01*
Y33117D01*
X43450D01*
Y33317D01*
Y32917D01*
X43584Y32850D02*
X43850D01*
X44250Y33250D02*
X44183Y33317D01*
X44050D01*
X43984Y33250D01*
Y32983D01*
X44050Y32917D01*
X44183D01*
X44250Y32983D01*
X44650Y33250D02*
X44583Y33317D01*
X44450D01*
X44383Y33250D01*
Y33183D01*
X44450Y33117D01*
X44583D01*
X44650Y33050D01*
Y32983D01*
X44583Y32917D01*
X44450D01*
X44383Y32983D01*
X43184Y34250D02*
Y33983D01*
X43317Y33850D01*
X43450Y33983D01*
Y34250D01*
X43584D02*
Y33850D01*
X43784D01*
X43850Y33917D01*
Y33983D01*
X43784Y34050D01*
X43584D01*
X43784D01*
X43850Y34117D01*
Y34183D01*
X43784Y34250D01*
X43584D01*
X43984D02*
Y33917D01*
X44050Y33850D01*
X44183D01*
X44250Y33917D01*
Y34250D01*
X44650Y34183D02*
X44583Y34250D01*
X44450D01*
X44383Y34183D01*
Y34117D01*
X44450Y34050D01*
X44583D01*
X44650Y33983D01*
Y33917D01*
X44583Y33850D01*
X44450D01*
X44383Y33917D01*
X42784Y35317D02*
Y34983D01*
X42851Y34917D01*
X42984D01*
X43051Y34983D01*
Y35317D01*
X43450Y35250D02*
X43384Y35317D01*
X43250D01*
X43184Y35250D01*
Y35183D01*
X43250Y35117D01*
X43384D01*
X43450Y35050D01*
Y34983D01*
X43384Y34917D01*
X43250D01*
X43184Y34983D01*
X43584Y35317D02*
Y34917D01*
X43784D01*
X43850Y34983D01*
Y35050D01*
X43784Y35117D01*
X43584D01*
X43784D01*
X43850Y35183D01*
Y35250D01*
X43784Y35317D01*
X43584D01*
X43984Y34850D02*
X44250D01*
X44383Y34917D02*
Y35317D01*
X44583D01*
X44650Y35250D01*
Y35117D01*
X44583Y35050D01*
X44383D01*
X42784Y36317D02*
Y35983D01*
X42851Y35917D01*
X42984D01*
X43051Y35983D01*
Y36317D01*
X43450Y36250D02*
X43384Y36317D01*
X43250D01*
X43184Y36250D01*
Y36183D01*
X43250Y36117D01*
X43384D01*
X43450Y36050D01*
Y35983D01*
X43384Y35917D01*
X43250D01*
X43184Y35983D01*
X43584Y36317D02*
Y35917D01*
X43784D01*
X43850Y35983D01*
Y36050D01*
X43784Y36117D01*
X43584D01*
X43784D01*
X43850Y36183D01*
Y36250D01*
X43784Y36317D01*
X43584D01*
X43984Y35850D02*
X44250D01*
X44383Y35917D02*
Y36317D01*
X44650Y35917D01*
Y36317D01*
X25934Y37533D02*
X25800D01*
X25867D01*
Y37200D01*
X25800Y37133D01*
X25734D01*
X25667Y37200D01*
X26067Y37400D02*
Y37200D01*
X26134Y37133D01*
X26334D01*
Y37400D01*
X26467Y37133D02*
Y37400D01*
X26533D01*
X26600Y37333D01*
Y37133D01*
Y37333D01*
X26667Y37400D01*
X26733Y37333D01*
Y37133D01*
X26867Y37000D02*
Y37400D01*
X27067D01*
X27133Y37333D01*
Y37200D01*
X27067Y37133D01*
X26867D01*
X27467D02*
X27333D01*
X27267Y37200D01*
Y37333D01*
X27333Y37400D01*
X27467D01*
X27533Y37333D01*
Y37267D01*
X27267D01*
X27666Y37400D02*
Y37133D01*
Y37267D01*
X27733Y37333D01*
X27800Y37400D01*
X27866D01*
X28066Y37133D02*
X28266D01*
X28333Y37200D01*
X28266Y37267D01*
X28133D01*
X28066Y37333D01*
X28133Y37400D01*
X28333D01*
X22984Y31317D02*
Y30983D01*
X23051Y30917D01*
X23184D01*
X23251Y30983D01*
Y31317D01*
X23651Y31250D02*
X23584Y31317D01*
X23451D01*
X23384Y31250D01*
Y31183D01*
X23451Y31117D01*
X23584D01*
X23651Y31050D01*
Y30983D01*
X23584Y30917D01*
X23451D01*
X23384Y30983D01*
X24051Y31317D02*
X23784D01*
Y30917D01*
X24051D01*
X23784Y31117D02*
X23917D01*
X24184Y30917D02*
Y31317D01*
X24384D01*
X24450Y31250D01*
Y31117D01*
X24384Y31050D01*
X24184D01*
X24317D02*
X24450Y30917D01*
X24584Y30850D02*
X24850D01*
X24984Y31317D02*
Y30917D01*
X25183D01*
X25250Y30983D01*
Y31250D01*
X25183Y31317D01*
X24984D01*
X25383D02*
X25650D01*
Y31250D01*
X25383Y30983D01*
Y30917D01*
X23651Y32250D02*
X23584Y32317D01*
X23451D01*
X23384Y32250D01*
Y32183D01*
X23451Y32117D01*
X23584D01*
X23651Y32050D01*
Y31983D01*
X23584Y31917D01*
X23451D01*
X23384Y31983D01*
X23784Y32317D02*
Y31917D01*
X23984D01*
X24051Y31983D01*
Y32250D01*
X23984Y32317D01*
X23784D01*
X24184Y31850D02*
X24450D01*
X24584Y32317D02*
Y31917D01*
X24784D01*
X24850Y31983D01*
Y32250D01*
X24784Y32317D01*
X24584D01*
X25250D02*
X24984D01*
Y31917D01*
X25250D01*
X24984Y32117D02*
X25117D01*
X25383Y32317D02*
X25650D01*
X25517D01*
Y31917D01*
X24051Y33250D02*
X23984Y33317D01*
X23851D01*
X23784Y33250D01*
Y33183D01*
X23851Y33117D01*
X23984D01*
X24051Y33050D01*
Y32983D01*
X23984Y32917D01*
X23851D01*
X23784Y32983D01*
X24184Y33317D02*
Y32917D01*
X24384D01*
X24450Y32983D01*
Y33250D01*
X24384Y33317D01*
X24184D01*
X24584Y32850D02*
X24850D01*
X25250Y33250D02*
X25183Y33317D01*
X25050D01*
X24984Y33250D01*
Y32983D01*
X25050Y32917D01*
X25183D01*
X25250Y32983D01*
X25650Y33250D02*
X25583Y33317D01*
X25450D01*
X25383Y33250D01*
Y33183D01*
X25450Y33117D01*
X25583D01*
X25650Y33050D01*
Y32983D01*
X25583Y32917D01*
X25450D01*
X25383Y32983D01*
X23384Y34250D02*
X23317Y34317D01*
X23184D01*
X23117Y34250D01*
Y34183D01*
X23184Y34117D01*
X23317D01*
X23384Y34050D01*
Y33983D01*
X23317Y33917D01*
X23184D01*
X23117Y33983D01*
X23517Y34317D02*
Y33917D01*
X23717D01*
X23784Y33983D01*
Y34250D01*
X23717Y34317D01*
X23517D01*
X23917Y33850D02*
X24184D01*
X24317Y33917D02*
Y34317D01*
X24450Y34183D01*
X24584Y34317D01*
Y33917D01*
X24917Y34317D02*
X24784D01*
X24717Y34250D01*
Y33983D01*
X24784Y33917D01*
X24917D01*
X24984Y33983D01*
Y34250D01*
X24917Y34317D01*
X25383Y34250D02*
X25317Y34317D01*
X25183D01*
X25117Y34250D01*
Y34183D01*
X25183Y34117D01*
X25317D01*
X25383Y34050D01*
Y33983D01*
X25317Y33917D01*
X25183D01*
X25117Y33983D01*
X25517Y34317D02*
X25650D01*
X25583D01*
Y33917D01*
X25517D01*
X25650D01*
X24051Y35250D02*
X23984Y35317D01*
X23851D01*
X23784Y35250D01*
Y35183D01*
X23851Y35117D01*
X23984D01*
X24051Y35050D01*
Y34983D01*
X23984Y34917D01*
X23851D01*
X23784Y34983D01*
X24184Y35317D02*
Y34917D01*
X24384D01*
X24450Y34983D01*
Y35250D01*
X24384Y35317D01*
X24184D01*
X24584Y34850D02*
X24850D01*
X25250Y35250D02*
X25183Y35317D01*
X25050D01*
X24984Y35250D01*
Y34983D01*
X25050Y34917D01*
X25183D01*
X25250Y34983D01*
X25383Y35317D02*
Y34917D01*
Y35050D01*
X25650Y35317D01*
X25450Y35117D01*
X25650Y34917D01*
X23317Y36250D02*
X23251Y36317D01*
X23117D01*
X23051Y36250D01*
Y36183D01*
X23117Y36117D01*
X23251D01*
X23317Y36050D01*
Y35983D01*
X23251Y35917D01*
X23117D01*
X23051Y35983D01*
X23451Y36317D02*
Y35917D01*
X23651D01*
X23717Y35983D01*
Y36250D01*
X23651Y36317D01*
X23451D01*
X23851Y35850D02*
X24117D01*
X24250Y35917D02*
Y36317D01*
X24384Y36183D01*
X24517Y36317D01*
Y35917D01*
X24650Y36317D02*
X24784D01*
X24717D01*
Y35917D01*
X24650D01*
X24784D01*
X25250Y36250D02*
X25183Y36317D01*
X25050D01*
X24984Y36250D01*
Y36183D01*
X25050Y36117D01*
X25183D01*
X25250Y36050D01*
Y35983D01*
X25183Y35917D01*
X25050D01*
X24984Y35983D01*
X25583Y36317D02*
X25450D01*
X25383Y36250D01*
Y35983D01*
X25450Y35917D01*
X25583D01*
X25650Y35983D01*
Y36250D01*
X25583Y36317D01*
X46150Y10767D02*
X45750D01*
Y10967D01*
X45817Y11034D01*
X45950D01*
X46017Y10967D01*
Y10767D01*
Y10901D02*
X46150Y11034D01*
X45817Y11234D02*
X45883D01*
Y11167D01*
Y11301D01*
Y11234D01*
X46083D01*
X46150Y11301D01*
X45750Y11900D02*
X46150D01*
Y12100D01*
X46083Y12167D01*
X46017D01*
X45950Y12100D01*
Y11900D01*
Y12100D01*
X45883Y12167D01*
X45817D01*
X45750Y12100D01*
Y11900D01*
X45817Y12367D02*
X45883D01*
Y12300D01*
Y12433D01*
Y12367D01*
X46083D01*
X46150Y12433D01*
Y12633D02*
X45883D01*
Y12833D01*
X45950Y12900D01*
X46150D01*
X44617Y11301D02*
Y11167D01*
Y11234D01*
X44950D01*
X45017Y11167D01*
Y11101D01*
X44950Y11034D01*
X45017Y11500D02*
Y11634D01*
X44950Y11700D01*
X44817D01*
X44750Y11634D01*
Y11500D01*
X44817Y11434D01*
X44950D01*
X45017Y11500D01*
X44750Y11834D02*
X44950D01*
X45017Y11900D01*
Y12100D01*
X45083D01*
X45150Y12034D01*
Y11967D01*
X45017Y12100D02*
X44750D01*
X44617Y12633D02*
X44883D01*
X45017Y12767D01*
X44883Y12900D01*
X44617D01*
X43617Y11301D02*
Y11167D01*
Y11234D01*
X43950D01*
X44017Y11167D01*
Y11101D01*
X43950Y11034D01*
X44017Y11500D02*
Y11634D01*
X43950Y11700D01*
X43817D01*
X43750Y11634D01*
Y11500D01*
X43817Y11434D01*
X43950D01*
X44017Y11500D01*
X43750Y11834D02*
X43950D01*
X44017Y11900D01*
Y12100D01*
X44083D01*
X44150Y12034D01*
Y11967D01*
X44017Y12100D02*
X43750D01*
X43617Y12633D02*
X44017D01*
X43817D01*
Y12900D01*
X43617D01*
X44017D01*
X41750Y10767D02*
X42150D01*
Y11034D01*
X41817Y11234D02*
X41883D01*
Y11167D01*
Y11301D01*
Y11234D01*
X42083D01*
X42150Y11301D01*
X41750Y11900D02*
X42150D01*
Y12100D01*
X42083Y12167D01*
X42017D01*
X41950Y12100D01*
Y11900D01*
Y12100D01*
X41883Y12167D01*
X41817D01*
X41750Y12100D01*
Y11900D01*
X41817Y12367D02*
X41883D01*
Y12300D01*
Y12433D01*
Y12367D01*
X42083D01*
X42150Y12433D01*
Y12633D02*
X41883D01*
Y12833D01*
X41950Y12900D01*
X42150D01*
X40617Y10701D02*
X40950D01*
X41017Y10767D01*
Y10901D01*
X40950Y10967D01*
X40617D01*
X41150Y11101D02*
X40750D01*
Y11301D01*
X40817Y11367D01*
X40950D01*
X41017Y11301D01*
Y11101D01*
X40617Y11900D02*
X41017D01*
Y12100D01*
X40950Y12167D01*
X40883D01*
X40817Y12100D01*
Y11900D01*
Y12100D01*
X40750Y12167D01*
X40683D01*
X40617Y12100D01*
Y11900D01*
X40683Y12367D02*
X40750D01*
Y12300D01*
Y12433D01*
Y12367D01*
X40950D01*
X41017Y12433D01*
Y12633D02*
X40750D01*
Y12833D01*
X40817Y12900D01*
X41017D01*
X50817Y15350D02*
X50750Y15417D01*
Y15550D01*
X50817Y15617D01*
X50883D01*
X50950Y15550D01*
Y15483D01*
Y15550D01*
X51017Y15617D01*
X51083D01*
X51150Y15550D01*
Y15417D01*
X51083Y15350D01*
X50750Y15750D02*
X51017D01*
X51150Y15883D01*
X51017Y16016D01*
X50750D01*
X50817Y16150D02*
X50750Y16216D01*
Y16350D01*
X50817Y16416D01*
X50883D01*
X50950Y16350D01*
Y16283D01*
Y16350D01*
X51017Y16416D01*
X51083D01*
X51150Y16350D01*
Y16216D01*
X51083Y16150D01*
X47817Y15617D02*
X47750Y15550D01*
Y15417D01*
X47817Y15350D01*
X47883D01*
X47950Y15417D01*
Y15550D01*
X48017Y15617D01*
X48083D01*
X48150Y15550D01*
Y15417D01*
X48083Y15350D01*
X47817Y16016D02*
X47750Y15950D01*
Y15817D01*
X47817Y15750D01*
X48083D01*
X48150Y15817D01*
Y15950D01*
X48083Y16016D01*
X47750Y16150D02*
X48150D01*
Y16416D01*
X46817Y15617D02*
X46750Y15550D01*
Y15417D01*
X46817Y15350D01*
X46883D01*
X46950Y15417D01*
Y15550D01*
X47017Y15617D01*
X47083D01*
X47150Y15550D01*
Y15417D01*
X47083Y15350D01*
X46750Y15750D02*
X47150D01*
Y15950D01*
X47083Y16016D01*
X46817D01*
X46750Y15950D01*
Y15750D01*
X47150Y16150D02*
X46883D01*
X46750Y16283D01*
X46883Y16416D01*
X47150D01*
X46950D01*
Y16150D01*
X43150Y15350D02*
X42750D01*
X42883Y15483D01*
X42750Y15617D01*
X43150D01*
X42817Y16016D02*
X42750Y15950D01*
Y15817D01*
X42817Y15750D01*
X43083D01*
X43150Y15817D01*
Y15950D01*
X43083Y16016D01*
X42750Y16150D02*
X43083D01*
X43150Y16216D01*
Y16350D01*
X43083Y16416D01*
X42750D01*
X43150Y16949D02*
X42750D01*
Y17149D01*
X42817Y17216D01*
X42950D01*
X43017Y17149D01*
Y16949D01*
Y17083D02*
X43150Y17216D01*
X42883Y17349D02*
X43150Y17616D01*
X43017Y17483D01*
X42883Y17616D01*
X43150Y17349D01*
Y17749D02*
X42883Y18016D01*
X42750Y18149D02*
X43150Y18416D01*
X42750D02*
X43150Y18149D01*
X42750Y18549D02*
X43150D01*
Y18749D01*
X43083Y18816D01*
X43017D01*
X42950Y18749D01*
Y18549D01*
Y18749D01*
X42883Y18816D01*
X42817D01*
X42750Y18749D01*
Y18549D01*
X43150Y19149D02*
Y19015D01*
X43083Y18949D01*
X42950D01*
X42883Y19015D01*
Y19149D01*
X42950Y19215D01*
X43017D01*
Y18949D01*
X43150Y19549D02*
Y19415D01*
X43083Y19349D01*
X42950D01*
X42883Y19415D01*
Y19549D01*
X42950Y19615D01*
X43017D01*
Y19349D01*
X42750Y20148D02*
Y20415D01*
Y20282D01*
X43150D01*
X42883Y20548D02*
X43150Y20815D01*
X43017Y20682D01*
X42883Y20815D01*
X43150Y20548D01*
X44150Y15350D02*
X43750D01*
X43883Y15483D01*
X43750Y15617D01*
X44150D01*
X43817Y16016D02*
X43750Y15950D01*
Y15817D01*
X43817Y15750D01*
X44083D01*
X44150Y15817D01*
Y15950D01*
X44083Y16016D01*
X43750Y16150D02*
X44083D01*
X44150Y16216D01*
Y16350D01*
X44083Y16416D01*
X43750D01*
Y16949D02*
Y17216D01*
Y17083D01*
X44150D01*
X43883Y17349D02*
X44150Y17616D01*
X44017Y17483D01*
X43883Y17616D01*
X44150Y17349D01*
Y17749D02*
X43883Y18016D01*
X43750Y18149D02*
X44150Y18416D01*
X43750D02*
X44150Y18149D01*
X43750Y18549D02*
X44150D01*
Y18749D01*
X44083Y18816D01*
X44017D01*
X43950Y18749D01*
Y18549D01*
Y18749D01*
X43883Y18816D01*
X43817D01*
X43750Y18749D01*
Y18549D01*
X44150Y19149D02*
Y19015D01*
X44083Y18949D01*
X43950D01*
X43883Y19015D01*
Y19149D01*
X43950Y19215D01*
X44017D01*
Y18949D01*
X44150Y19549D02*
Y19415D01*
X44083Y19349D01*
X43950D01*
X43883Y19415D01*
Y19549D01*
X43950Y19615D01*
X44017D01*
Y19349D01*
X44150Y20148D02*
X43750D01*
Y20348D01*
X43817Y20415D01*
X43950D01*
X44017Y20348D01*
Y20148D01*
Y20282D02*
X44150Y20415D01*
X43883Y20548D02*
X44150Y20815D01*
X44017Y20682D01*
X43883Y20815D01*
X44150Y20548D01*
X30817Y15617D02*
X30750Y15550D01*
Y15417D01*
X30817Y15350D01*
X31083D01*
X31150Y15417D01*
Y15550D01*
X31083Y15617D01*
X31150Y15950D02*
Y15817D01*
X31083Y15750D01*
X30950D01*
X30883Y15817D01*
Y15950D01*
X30950Y16016D01*
X31017D01*
Y15750D01*
X31150Y16150D02*
X30883D01*
Y16350D01*
X30950Y16416D01*
X31150D01*
X30817Y16616D02*
X30883D01*
Y16550D01*
Y16683D01*
Y16616D01*
X31083D01*
X31150Y16683D01*
Y17083D02*
Y16949D01*
X31083Y16883D01*
X30950D01*
X30883Y16949D01*
Y17083D01*
X30950Y17149D01*
X31017D01*
Y16883D01*
X30883Y17283D02*
X31150D01*
X31017D01*
X30950Y17349D01*
X30883Y17416D01*
Y17483D01*
X30750Y18082D02*
X31150D01*
Y18282D01*
X31083Y18349D01*
X31017D01*
X30950Y18282D01*
Y18082D01*
Y18282D01*
X30883Y18349D01*
X30817D01*
X30750Y18282D01*
Y18082D01*
X30817Y18549D02*
X30883D01*
Y18482D01*
Y18616D01*
Y18549D01*
X31083D01*
X31150Y18616D01*
Y18816D02*
X30883D01*
Y19015D01*
X30950Y19082D01*
X31150D01*
X29617Y15617D02*
Y15483D01*
Y15550D01*
X29950D01*
X30017Y15483D01*
Y15417D01*
X29950Y15350D01*
X30017Y15817D02*
Y15950D01*
X29950Y16016D01*
X29817D01*
X29750Y15950D01*
Y15817D01*
X29817Y15750D01*
X29950D01*
X30017Y15817D01*
X29750Y16150D02*
X29950D01*
X30017Y16216D01*
Y16416D01*
X30083D01*
X30150Y16350D01*
Y16283D01*
X30017Y16416D02*
X29750D01*
X30017Y16550D02*
Y16750D01*
X29950Y16816D01*
X29883Y16750D01*
Y16616D01*
X29817Y16550D01*
X29750Y16616D01*
Y16816D01*
X29683Y17016D02*
X29750D01*
Y16949D01*
Y17083D01*
Y17016D01*
X29950D01*
X30017Y17083D01*
Y17283D02*
Y17416D01*
Y17349D01*
X29750D01*
Y17283D01*
Y17883D02*
Y17683D01*
X29817Y17616D01*
X29950D01*
X30017Y17683D01*
Y17883D01*
Y18016D02*
X29617D01*
X29883D02*
X29750Y18216D01*
X29883Y18016D02*
X30017Y18216D01*
X29617Y18816D02*
X30017D01*
Y19015D01*
X29950Y19082D01*
X29883D01*
X29817Y19015D01*
Y18816D01*
Y19015D01*
X29750Y19082D01*
X29683D01*
X29617Y19015D01*
Y18816D01*
X29683Y19282D02*
X29750D01*
Y19215D01*
Y19349D01*
Y19282D01*
X29950D01*
X30017Y19349D01*
Y19549D02*
X29750D01*
Y19749D01*
X29817Y19815D01*
X30017D01*
X25750Y15350D02*
X26150D01*
Y15550D01*
X26083Y15617D01*
X25817D01*
X25750Y15550D01*
Y15350D01*
X26150Y15817D02*
Y15950D01*
X26083Y16016D01*
X25950D01*
X25883Y15950D01*
Y15817D01*
X25950Y15750D01*
X26083D01*
X26150Y15817D01*
X25883Y16150D02*
X26083D01*
X26150Y16216D01*
X26083Y16283D01*
X26150Y16350D01*
X26083Y16416D01*
X25883D01*
X26150Y16550D02*
X25883D01*
Y16750D01*
X25950Y16816D01*
X26150D01*
X25750Y17349D02*
X26150D01*
Y17549D01*
X26083Y17616D01*
X26017D01*
X25950Y17549D01*
Y17349D01*
Y17549D01*
X25883Y17616D01*
X25817D01*
X25750Y17549D01*
Y17349D01*
X25817Y17816D02*
X25883D01*
Y17749D01*
Y17883D01*
Y17816D01*
X26083D01*
X26150Y17883D01*
Y18082D02*
X25883D01*
Y18282D01*
X25950Y18349D01*
X26150D01*
X18100Y18800D02*
Y18300D01*
X18200Y18200D01*
X18400D01*
X18500Y18300D01*
Y18800D01*
X18700Y18200D02*
X18900D01*
X18800D01*
Y18800D01*
X18700Y18700D01*
X60900Y16700D02*
X60800Y16800D01*
X60600D01*
X60500Y16700D01*
Y16600D01*
X60600Y16500D01*
X60800D01*
X60900Y16400D01*
Y16300D01*
X60800Y16200D01*
X60600D01*
X60500Y16300D01*
X61500Y16800D02*
X61100D01*
Y16500D01*
X61300Y16600D01*
X61400D01*
X61500Y16500D01*
Y16300D01*
X61400Y16200D01*
X61200D01*
X61100Y16300D01*
X63900Y23700D02*
X63800Y23800D01*
X63600D01*
X63500Y23700D01*
Y23600D01*
X63600Y23500D01*
X63800D01*
X63900Y23400D01*
Y23300D01*
X63800Y23200D01*
X63600D01*
X63500Y23300D01*
X64400Y23200D02*
Y23800D01*
X64100Y23500D01*
X64500D01*
X60900Y23700D02*
X60800Y23800D01*
X60600D01*
X60500Y23700D01*
Y23600D01*
X60600Y23500D01*
X60800D01*
X60900Y23400D01*
Y23300D01*
X60800Y23200D01*
X60600D01*
X60500Y23300D01*
X61100Y23700D02*
X61200Y23800D01*
X61400D01*
X61500Y23700D01*
Y23600D01*
X61400Y23500D01*
X61300D01*
X61400D01*
X61500Y23400D01*
Y23300D01*
X61400Y23200D01*
X61200D01*
X61100Y23300D01*
X53900Y23700D02*
X53800Y23800D01*
X53600D01*
X53500Y23700D01*
Y23600D01*
X53600Y23500D01*
X53800D01*
X53900Y23400D01*
Y23300D01*
X53800Y23200D01*
X53600D01*
X53500Y23300D01*
X54500Y23200D02*
X54100D01*
X54500Y23600D01*
Y23700D01*
X54400Y23800D01*
X54200D01*
X54100Y23700D01*
X61000Y30700D02*
X60900Y30800D01*
X60700D01*
X60600Y30700D01*
Y30600D01*
X60700Y30500D01*
X60900D01*
X61000Y30400D01*
Y30300D01*
X60900Y30200D01*
X60700D01*
X60600Y30300D01*
X61200Y30200D02*
X61400D01*
X61300D01*
Y30800D01*
X61200Y30700D01*
X60500Y13200D02*
Y13800D01*
X60800D01*
X60900Y13700D01*
Y13500D01*
X60800Y13400D01*
X60500D01*
X60700D02*
X60900Y13200D01*
X61500Y13800D02*
X61300Y13700D01*
X61100Y13500D01*
Y13300D01*
X61200Y13200D01*
X61400D01*
X61500Y13300D01*
Y13400D01*
X61400Y13500D01*
X61100D01*
X63500Y20200D02*
Y20800D01*
X63800D01*
X63900Y20700D01*
Y20500D01*
X63800Y20400D01*
X63500D01*
X63700D02*
X63900Y20200D01*
X64500Y20800D02*
X64100D01*
Y20500D01*
X64300Y20600D01*
X64400D01*
X64500Y20500D01*
Y20300D01*
X64400Y20200D01*
X64200D01*
X64100Y20300D01*
X60500Y20200D02*
Y20800D01*
X60800D01*
X60900Y20700D01*
Y20500D01*
X60800Y20400D01*
X60500D01*
X60700D02*
X60900Y20200D01*
X61400D02*
Y20800D01*
X61100Y20500D01*
X61500D01*
X53500Y20200D02*
Y20800D01*
X53800D01*
X53900Y20700D01*
Y20500D01*
X53800Y20400D01*
X53500D01*
X53700D02*
X53900Y20200D01*
X54100Y20700D02*
X54200Y20800D01*
X54400D01*
X54500Y20700D01*
Y20600D01*
X54400Y20500D01*
X54300D01*
X54400D01*
X54500Y20400D01*
Y20300D01*
X54400Y20200D01*
X54200D01*
X54100Y20300D01*
X20500Y31200D02*
Y31800D01*
X20800D01*
X20900Y31700D01*
Y31500D01*
X20800Y31400D01*
X20500D01*
X20700D02*
X20900Y31200D01*
X21500D02*
X21100D01*
X21500Y31600D01*
Y31700D01*
X21400Y31800D01*
X21200D01*
X21100Y31700D01*
X60600Y27200D02*
Y27800D01*
X60900D01*
X61000Y27700D01*
Y27500D01*
X60900Y27400D01*
X60600D01*
X60800D02*
X61000Y27200D01*
X61200D02*
X61400D01*
X61300D01*
Y27800D01*
X61200Y27700D01*
X29800Y43700D02*
Y44300D01*
X30000Y44100D01*
X30200Y44300D01*
Y43700D01*
X30400Y44300D02*
Y43700D01*
X30700D01*
X30800Y43800D01*
Y44200D01*
X30700Y44300D01*
X30400D01*
X31000Y43700D02*
X31200D01*
X31100D01*
Y44300D01*
X31000Y44200D01*
X46250Y44550D02*
X46050D01*
X46150D01*
Y44050D01*
X46050Y43950D01*
X45950D01*
X45850Y44050D01*
X46450Y43950D02*
X46650D01*
X46550D01*
Y44550D01*
X46450Y44450D01*
X60900Y14700D02*
X60800Y14800D01*
X60600D01*
X60500Y14700D01*
Y14300D01*
X60600Y14200D01*
X60800D01*
X60900Y14300D01*
X61100Y14800D02*
X61500D01*
Y14700D01*
X61100Y14300D01*
Y14200D01*
X63900Y21700D02*
X63800Y21800D01*
X63600D01*
X63500Y21700D01*
Y21300D01*
X63600Y21200D01*
X63800D01*
X63900Y21300D01*
X64500Y21800D02*
X64300Y21700D01*
X64100Y21500D01*
Y21300D01*
X64200Y21200D01*
X64400D01*
X64500Y21300D01*
Y21400D01*
X64400Y21500D01*
X64100D01*
X60900Y21700D02*
X60800Y21800D01*
X60600D01*
X60500Y21700D01*
Y21300D01*
X60600Y21200D01*
X60800D01*
X60900Y21300D01*
X61500Y21800D02*
X61100D01*
Y21500D01*
X61300Y21600D01*
X61400D01*
X61500Y21500D01*
Y21300D01*
X61400Y21200D01*
X61200D01*
X61100Y21300D01*
X53900Y21700D02*
X53800Y21800D01*
X53600D01*
X53500Y21700D01*
Y21300D01*
X53600Y21200D01*
X53800D01*
X53900Y21300D01*
X54400Y21200D02*
Y21800D01*
X54100Y21500D01*
X54500D01*
X20900Y30700D02*
X20800Y30800D01*
X20600D01*
X20500Y30700D01*
Y30300D01*
X20600Y30200D01*
X20800D01*
X20900Y30300D01*
X21100Y30700D02*
X21200Y30800D01*
X21400D01*
X21500Y30700D01*
Y30600D01*
X21400Y30500D01*
X21300D01*
X21400D01*
X21500Y30400D01*
Y30300D01*
X21400Y30200D01*
X21200D01*
X21100Y30300D01*
X60900Y28700D02*
X60800Y28800D01*
X60600D01*
X60500Y28700D01*
Y28300D01*
X60600Y28200D01*
X60800D01*
X60900Y28300D01*
X61500Y28200D02*
X61100D01*
X61500Y28600D01*
Y28700D01*
X61400Y28800D01*
X61200D01*
X61100Y28700D01*
X34575Y34200D02*
X34475Y34300D01*
X34275D01*
X34175Y34200D01*
Y33800D01*
X34275Y33700D01*
X34475D01*
X34575Y33800D01*
X34775Y33700D02*
X34975D01*
X34875D01*
Y34300D01*
X34775Y34200D01*
D13*
X29250Y23750D02*
X41250D01*
X29250Y32000D02*
X41250D01*
Y23750D02*
Y32000D01*
X29250Y23750D02*
Y32000D01*
X30564Y31448D02*
X30439Y31573D01*
X30189D01*
X30064Y31448D01*
Y30948D01*
X30189Y30823D01*
X30439D01*
X30564Y30948D01*
X31189Y30823D02*
X30939D01*
X30814Y30948D01*
Y31198D01*
X30939Y31323D01*
X31189D01*
X31314Y31198D01*
Y31073D01*
X30814D01*
X31564Y30823D02*
Y31323D01*
X31939D01*
X32064Y31198D01*
Y30823D01*
X32438Y31448D02*
Y31323D01*
X32313D01*
X32563D01*
X32438D01*
Y30948D01*
X32563Y30823D01*
X32938Y31323D02*
Y30823D01*
Y31073D01*
X33063Y31198D01*
X33188Y31323D01*
X33313D01*
X33813D02*
X34063D01*
X34188Y31198D01*
Y30823D01*
X33813D01*
X33688Y30948D01*
X33813Y31073D01*
X34188D01*
X34438Y30823D02*
X34688D01*
X34563D01*
Y31573D01*
X34438D01*
X36312Y31448D02*
X36187Y31573D01*
X35937D01*
X35812Y31448D01*
Y30948D01*
X35937Y30823D01*
X36187D01*
X36312Y30948D01*
X36687Y30823D02*
X36937D01*
X37062Y30948D01*
Y31198D01*
X36937Y31323D01*
X36687D01*
X36562Y31198D01*
Y30948D01*
X36687Y30823D01*
X37312D02*
Y31323D01*
X37687D01*
X37812Y31198D01*
Y30823D01*
X38187Y31448D02*
Y31323D01*
X38062D01*
X38312D01*
X38187D01*
Y30948D01*
X38312Y30823D01*
X38686Y31323D02*
Y30823D01*
Y31073D01*
X38811Y31198D01*
X38936Y31323D01*
X39061D01*
X39561Y30823D02*
X39811D01*
X39936Y30948D01*
Y31198D01*
X39811Y31323D01*
X39561D01*
X39436Y31198D01*
Y30948D01*
X39561Y30823D01*
X40186D02*
X40436D01*
X40311D01*
Y31573D01*
X40186D01*
X30127Y30313D02*
Y29564D01*
Y29939D01*
X30626D01*
Y30313D01*
Y29564D01*
X30876Y30064D02*
Y29689D01*
X31001Y29564D01*
X31376D01*
Y30064D01*
X31626Y30313D02*
Y29564D01*
X32001D01*
X32126Y29689D01*
Y29814D01*
Y29939D01*
X32001Y30064D01*
X31626D01*
X33626D02*
X33251D01*
X33126Y29939D01*
Y29689D01*
X33251Y29564D01*
X33626D01*
X34000D02*
X34250D01*
X34375Y29689D01*
Y29939D01*
X34250Y30064D01*
X34000D01*
X33875Y29939D01*
Y29689D01*
X34000Y29564D01*
X34625D02*
Y30064D01*
X35000D01*
X35125Y29939D01*
Y29564D01*
X35500Y30189D02*
Y30064D01*
X35375D01*
X35625D01*
X35500D01*
Y29689D01*
X35625Y29564D01*
X36000Y30064D02*
Y29564D01*
Y29814D01*
X36125Y29939D01*
X36250Y30064D01*
X36375D01*
X36874Y29564D02*
X37124D01*
X37249Y29689D01*
Y29939D01*
X37124Y30064D01*
X36874D01*
X36750Y29939D01*
Y29689D01*
X36874Y29564D01*
X37499D02*
X37749D01*
X37624D01*
Y30313D01*
X37499D01*
X38124Y29564D02*
X38374D01*
X38249D01*
Y30313D01*
X38124D01*
X39124Y29564D02*
X38874D01*
X38749Y29689D01*
Y29939D01*
X38874Y30064D01*
X39124D01*
X39249Y29939D01*
Y29814D01*
X38749D01*
X39499Y30064D02*
Y29564D01*
Y29814D01*
X39624Y29939D01*
X39749Y30064D01*
X39874D01*
X40248Y29564D02*
Y29689D01*
X40373D01*
Y29564D01*
X40248D01*
X30689Y29054D02*
X31189D01*
X30939D01*
Y28304D01*
X31439Y29054D02*
Y28304D01*
Y28679D01*
X31564Y28804D01*
X31814D01*
X31939Y28679D01*
Y28304D01*
X32563D02*
X32313D01*
X32188Y28429D01*
Y28679D01*
X32313Y28804D01*
X32563D01*
X32688Y28679D01*
Y28554D01*
X32188D01*
X33688Y28804D02*
Y28429D01*
X33813Y28304D01*
X33938Y28429D01*
X34063Y28304D01*
X34188Y28429D01*
Y28804D01*
X34563D02*
X34813D01*
X34938Y28679D01*
Y28304D01*
X34563D01*
X34438Y28429D01*
X34563Y28554D01*
X34938D01*
X35312Y28929D02*
Y28804D01*
X35188D01*
X35437D01*
X35312D01*
Y28429D01*
X35437Y28304D01*
X36187D02*
X35937D01*
X35812Y28429D01*
Y28679D01*
X35937Y28804D01*
X36187D01*
X36312Y28679D01*
Y28554D01*
X35812D01*
X36562Y28804D02*
Y28304D01*
Y28554D01*
X36687Y28679D01*
X36812Y28804D01*
X36937D01*
X38062Y29054D02*
Y28304D01*
X38436D01*
X38561Y28429D01*
Y28554D01*
Y28679D01*
X38436Y28804D01*
X38062D01*
X38936Y28304D02*
X39186D01*
X39311Y28429D01*
Y28679D01*
X39186Y28804D01*
X38936D01*
X38811Y28679D01*
Y28429D01*
X38936Y28304D01*
X39686Y28929D02*
Y28804D01*
X39561D01*
X39811D01*
X39686D01*
Y28429D01*
X39811Y28304D01*
X30064Y27544D02*
X29689D01*
X29564Y27419D01*
Y27169D01*
X29689Y27044D01*
X30064D01*
X30439D02*
X30689D01*
X30814Y27169D01*
Y27419D01*
X30689Y27544D01*
X30439D01*
X30314Y27419D01*
Y27169D01*
X30439Y27044D01*
X31064D02*
Y27544D01*
X31439D01*
X31564Y27419D01*
Y27044D01*
X31939Y27669D02*
Y27544D01*
X31814D01*
X32064D01*
X31939D01*
Y27169D01*
X32064Y27044D01*
X32438Y27544D02*
Y27044D01*
Y27294D01*
X32563Y27419D01*
X32688Y27544D01*
X32813D01*
X33313Y27044D02*
X33563D01*
X33688Y27169D01*
Y27419D01*
X33563Y27544D01*
X33313D01*
X33188Y27419D01*
Y27169D01*
X33313Y27044D01*
X33938D02*
X34188D01*
X34063D01*
Y27794D01*
X33938D01*
X35312Y27544D02*
Y27169D01*
X35437Y27044D01*
X35812D01*
Y26919D01*
X35687Y26794D01*
X35562D01*
X35812Y27044D02*
Y27544D01*
X36187Y27044D02*
X36437D01*
X36562Y27169D01*
Y27419D01*
X36437Y27544D01*
X36187D01*
X36062Y27419D01*
Y27169D01*
X36187Y27044D01*
X36812Y27544D02*
Y27169D01*
X36937Y27044D01*
X37312D01*
Y27544D01*
X38312Y27044D02*
X38561D01*
X38436D01*
Y27794D01*
X38312D01*
X39061Y27044D02*
X39311D01*
X39436Y27169D01*
Y27419D01*
X39311Y27544D01*
X39061D01*
X38936Y27419D01*
Y27169D01*
X39061Y27044D01*
X39686Y27544D02*
X39936Y27044D01*
X40186Y27544D01*
X40811Y27044D02*
X40561D01*
X40436Y27169D01*
Y27419D01*
X40561Y27544D01*
X40811D01*
X40936Y27419D01*
Y27294D01*
X40436D01*
X30002Y26035D02*
Y25660D01*
X30127Y25535D01*
X30252Y25660D01*
X30377Y25535D01*
X30502Y25660D01*
Y26035D01*
X30751Y25535D02*
X31001D01*
X30876D01*
Y26035D01*
X30751D01*
X31501Y26159D02*
Y26035D01*
X31376D01*
X31626D01*
X31501D01*
Y25660D01*
X31626Y25535D01*
X32001Y26284D02*
Y25535D01*
Y25910D01*
X32126Y26035D01*
X32376D01*
X32501Y25910D01*
Y25535D01*
X32876D02*
X33126D01*
X33251Y25660D01*
Y25910D01*
X33126Y26035D01*
X32876D01*
X32751Y25910D01*
Y25660D01*
X32876Y25535D01*
X33501Y26035D02*
Y25660D01*
X33626Y25535D01*
X34000D01*
Y26035D01*
X34375Y26159D02*
Y26035D01*
X34250D01*
X34500D01*
X34375D01*
Y25660D01*
X34500Y25535D01*
X35750Y26159D02*
Y26035D01*
X35625D01*
X35875D01*
X35750D01*
Y25660D01*
X35875Y25535D01*
X36250Y26284D02*
Y25535D01*
Y25910D01*
X36375Y26035D01*
X36625D01*
X36750Y25910D01*
Y25535D01*
X37374D02*
X37124D01*
X36999Y25660D01*
Y25910D01*
X37124Y26035D01*
X37374D01*
X37499Y25910D01*
Y25785D01*
X36999D01*
X38499Y26035D02*
Y25660D01*
X38624Y25535D01*
X38749Y25660D01*
X38874Y25535D01*
X38999Y25660D01*
Y26035D01*
X39624Y25535D02*
X39374D01*
X39249Y25660D01*
Y25910D01*
X39374Y26035D01*
X39624D01*
X39749Y25910D01*
Y25785D01*
X39249D01*
X39998Y26284D02*
Y25535D01*
X40373D01*
X40498Y25660D01*
Y25785D01*
Y25910D01*
X40373Y26035D01*
X39998D01*
X32064Y24150D02*
X32313D01*
X32188D01*
Y24650D01*
X32064D01*
X32688Y24150D02*
Y24650D01*
X33063D01*
X33188Y24525D01*
Y24150D01*
X33563Y24775D02*
Y24650D01*
X33438D01*
X33688D01*
X33563D01*
Y24275D01*
X33688Y24150D01*
X34438D02*
X34188D01*
X34063Y24275D01*
Y24525D01*
X34188Y24650D01*
X34438D01*
X34563Y24525D01*
Y24400D01*
X34063D01*
X34813Y24650D02*
Y24150D01*
Y24400D01*
X34938Y24525D01*
X35063Y24650D01*
X35188D01*
X35687Y24150D02*
Y24775D01*
Y24525D01*
X35562D01*
X35812D01*
X35687D01*
Y24775D01*
X35812Y24900D01*
X36312Y24650D02*
X36562D01*
X36687Y24525D01*
Y24150D01*
X36312D01*
X36187Y24275D01*
X36312Y24400D01*
X36687D01*
X37437Y24650D02*
X37062D01*
X36937Y24525D01*
Y24275D01*
X37062Y24150D01*
X37437D01*
X38062D02*
X37812D01*
X37687Y24275D01*
Y24525D01*
X37812Y24650D01*
X38062D01*
X38187Y24525D01*
Y24400D01*
X37687D01*
X38436D02*
Y25025D01*
Y24275D02*
Y24150D01*
D14*
X35319Y20143D02*
Y21857D01*
X36037Y22181D02*
X36963D01*
X37681Y20143D02*
Y21857D01*
X36037Y19819D02*
X36963D01*
X36287Y17646D02*
X36713D01*
X36287Y18354D02*
X36713D01*
X36287Y17354D02*
X36713D01*
X36287Y16646D02*
X36713D01*
X21571Y20130D02*
Y21370D01*
X25429Y20130D02*
Y21370D01*
X18787Y30146D02*
X19213D01*
X18787Y30854D02*
X19213D01*
X36362Y33646D02*
X36787D01*
X36362Y34354D02*
X36787D01*
X20350Y22110D02*
Y22354D01*
X17870D02*
X20350D01*
X17870D02*
Y26646D01*
X20350D01*
Y26894D01*
X21886Y27630D02*
Y28240D01*
X25075D01*
Y27630D02*
Y28240D01*
Y27630D02*
X25516D01*
X26610Y26409D02*
Y26894D01*
Y26409D02*
X27870D01*
X26610Y22591D02*
X27870D01*
X26610Y22110D02*
Y22591D01*
X25429Y21370D02*
X25535D01*
X57819Y16643D02*
Y18357D01*
X58537Y18681D02*
X59463D01*
X60181Y16643D02*
Y18357D01*
X58537Y16319D02*
X59463D01*
X64819Y23643D02*
Y25357D01*
X65537Y25681D02*
X66463D01*
X67181Y23643D02*
Y25357D01*
X65537Y23319D02*
X66463D01*
X57819Y23643D02*
Y25357D01*
X58537Y25681D02*
X59463D01*
X60181Y23643D02*
Y25357D01*
X58537Y23319D02*
X59463D01*
X50819Y23643D02*
Y25357D01*
X51537Y25681D02*
X52463D01*
X53181Y23643D02*
Y25357D01*
X51537Y23319D02*
X52463D01*
X57819Y30643D02*
Y32357D01*
X58537Y32681D02*
X59463D01*
X60181Y30643D02*
Y32357D01*
X58537Y30319D02*
X59463D01*
X58787Y13854D02*
X59213D01*
X58787Y13146D02*
X59213D01*
X65787Y20854D02*
X66213D01*
X65787Y20146D02*
X66213D01*
X58787Y20854D02*
X59213D01*
X58787Y20146D02*
X59213D01*
X51787Y20854D02*
X52213D01*
X51787Y20146D02*
X52213D01*
X18787Y31854D02*
X19213D01*
X18787Y31146D02*
X19213D01*
X58787Y27854D02*
X59213D01*
X58787Y27146D02*
X59213D01*
X58787Y14146D02*
X59213D01*
X58787Y14854D02*
X59213D01*
X65787Y21146D02*
X66213D01*
X65787Y21854D02*
X66213D01*
X58787Y21146D02*
X59213D01*
X58787Y21854D02*
X59213D01*
X51787Y21146D02*
X52213D01*
X51787Y21854D02*
X52213D01*
X58787Y28146D02*
X59213D01*
X58787Y28854D02*
X59213D01*
M02*
