M48
;Layer_Color=9474304
;FILE_FORMAT=2:4
INCH,LZ
;TYPE=PLATED
T1F00S00C0.0157
T2F00S00C0.0280
T3F00S00C0.0350
T4F00S00C0.0354
T5F00S00C0.0394
T6F00S00C0.0400
T7F00S00C0.0550
T8F00S00C0.1575
%
T01
X019Y014
X021
X023
X024Y012
X022
X028
X03
X061Y014
X063
X065
X067
X064Y016
X065Y018
X063
X064Y02
X063Y022
X064Y024
X063Y026
X064Y028
X066
X067Y03
X065
X061
X062Y028
X061Y026
X062Y024
Y02
X061Y018
X062Y016
X056
X054
X052
X05
X049Y018
X053
X054Y02
X056
X05775Y01975
X05825
X05875
X05775Y02025
X055Y022
X056Y024
X054
X055Y026
X056Y027
X0565
Y0275
X0575
Y027
X0565Y0265
X054Y028
X05
X051Y03
X049
X05Y024
X049Y022
X045
X046Y024
X044
X042
X043Y026
X041
X042Y028
X044
X043Y03
X041
X039
X037
X038Y028
X04
X037Y026
X035
X033
X034Y028
X036Y024
X039Y022
X04Y02
X042
X041Y018
X039
X04Y016
X042
X046
X045Y018
X046Y02
X034
X033Y022
X034Y016
X036
X032
X03
X026
X024
X022
X02
X018
X019Y018
X021
X025
X026Y02
X025Y022
X029
X031
Y026
X029
X03Y028
X028
X029Y03
X031
X027
X025
X023
X021
X022Y028
X024
X025Y026
X023
X022Y024
X018Y02
X019Y034
X021
X023
X025
X024Y036
X022
X02
X018
X019Y038
X021
X023
X025
X027
X029
X031
X03Y04
X028
X026
X024
X022
X02
X018
X023Y042
X025
X027
X029
X031
X03Y036
X031Y034
X029
X024Y032
X022
X033Y038
X035
X037
X039
X041
X043
X044Y04
X046
X045Y042
X043
X041
X039
X037
X035
X033
X034Y04
X036
X038
X04
X042
Y036
X04
X038
X039Y034
X043
X044Y032
X032Y04
X048
X05
X052
X054
X056
X058
X06
X062
X061Y042
X059
X057
X055
X053
X051
X049
X047
X048Y036
X049Y034
X05Y032
X048
X054
X055Y034
X053
Y038
X055
X057
X059
X061
X062Y032
X051Y038
X063
X065
X067
Y042
X063
X064Y04
X065Y034
X067
X066Y032
X064
T02
X0595Y0115
X0525Y031
T03
X0225Y0205
X0235
X0245
X0275Y0235
Y0245
Y0255
T04
X025Y0135
Y0145
X026
Y0135
X027
Y0145
X028
Y0135
X029
X03
Y0145
X031
Y0135
X029Y0145
X032
Y0135
X033
Y0145
X034
Y0135
X035
Y0145
X036
Y0135
X037
Y0145
X038
Y0135
X039
Y0145
X04
Y0135
X041
Y0145
X042
Y0135
X043
Y0145
X044
Y0135
X045
Y0145
X046
Y0135
X047
Y0145
X048
Y0135
X049
Y0145
X05
Y0135
X051
Y0145
X052
Y0135
X053
Y0145
X054
Y0135
X0465Y025
X0455
Y026
X0465
Y027
X0455
Y028
X0465
Y029
X0455
Y03
X0465
Y031
X0455
X0275
X0265
X0205Y02575
X0185
Y02325
X0205
X0265Y032
Y033
Y034
Y035
Y036
X0275
Y035
Y034
Y033
Y032
X033055Y035169
X033843
X03463
X035417
X036205
X036992
X03778
X038567
X039354
X040142
X0455Y035
Y034
Y033
Y032
X0465
Y033
Y034
Y035
Y036
X0455
X040142Y043831
X039354
X038567
X03778
X036992
X036205
X035417
X03463
X033843
X033055
T05
X065114Y02322
X066886
Y02578
X065114
X059886
X058114
Y02322
X059886
Y01878
X058114
Y01622
X059886
X052886Y02322
X051114
Y02578
X052886
X058114Y03022
X059886
X037386Y02228
X035614
Y01972
X037386
X058114Y03278
X059886
T06
X0495Y036
X0505
X0515
X0525
X0535
X0545
X0555
X0565
X0575
X0585
X0595
X0605
X0615
Y044
X0605
X0595
X0585
X0575
X0565
X0555
X0545
X0535
X0625
X0635
X0645
Y036
X0635
X0625
T07
X020875Y0215
X026125
Y0275
X020875
T08
X0195Y012
X0655
X0195Y043
M30
