M48
;Layer_Color=9474304
;FILE_FORMAT=2:4
INCH,TZ
;TYPE=PLATED
T1F00S00C0.0130
T4F00S00C0.0315
T5F00S00C0.0354
T6F00S00C0.0394
T7F00S00C0.0400
T8F00S00C0.0433
T9F00S00C0.0472
T10F00S00C0.0551
T11F00S00C0.0630
T12F00S00C0.0669
T13F00S00C0.0701
T14F00S00C0.1654
T15F00S00C0.1673
;TYPE=NON_PLATED
T16F00S00C0.0256
T17F00S00C0.0433
T18F00S00C0.0630
T19F00S00C0.1181
%
T01
X8000Y4000
X10000
X12000
X14000
X15000Y6000
X13000
X11000
X9000
X10000Y8000
X12000
X14000
X15000Y10000
X13000
X11000
X9000
X7000
X5000
X6000Y8000
X8000
X4000
Y12000
X7000Y14000
X11000
X13000
X15000
X14000Y12000
X10000
X16000
X18000
X20000
X22500
Y12250
Y12500
X22750
X23000
X23250Y12000
X23500
Y11250
X23250
X24300Y10800
Y10500
X26000Y12000
Y12250
Y12500
X26250
X26500
X26750Y12000
X27000
Y11250
X26750
X27800Y10800
Y10500
X29500Y12000
Y12250
Y12500
X29750
X30000
X30250Y12000
X30500
Y11250
X30250
X31000Y14000
X26700Y14650
X26797Y15106
X27100Y15100
X25000Y15000
X23950Y14600
Y14350
X23800Y13950
X24000Y13750
X23000Y14000
X19000
X17000
Y10000
X19000
X20000Y8000
X18000
X16000
X17000Y6000
X19000
X20000Y4000
X18000
X16000
X21255Y2960
X21700Y2705
X34000Y4000
X36000
X38000
X39000Y6000
X37000
X35000
X36000Y8000
X38000
X40000
Y9750
X40500
X39800Y10600
X37000Y10000
X33150Y9900
X32750Y9500
X32250
X31850Y9900
X33450Y10850
X33450Y11256
X35000Y14000
X35982Y14745
X36755Y15500
X37250Y14000
X38050Y14700
X44000Y12250
Y12000
X44250
X44500
Y12250
X44750
Y12000
X45000
Y12250
X44250
X46000Y12000
Y8000
X48000Y4000
X50000
X51000Y6000
X55000
X57000
X59000
X61000
X62000Y8000
X60000
X60500Y10100
Y10700
Y11150
X60450Y11650
X61506Y11794
X61100Y10700
X60800Y10400
X61100Y10100
X61134Y9674
X61000Y14000
X56250Y14450
X55250Y13500
Y10750
X55500
X55000
X54750
X54500
X54000Y10250
Y10000
Y9750
Y9500
X53750
Y9750
Y10000
X51700Y10100
X51450
X54000Y4000
X58000
X60000
X62000
X64000Y8000
X65000Y10000
Y14000
X64000Y16000
X65000Y18000
X63000
X64000Y20000
X65000Y22000
X63000
X64000Y24000
X62000
Y20000
Y16000
X60000
X59000Y22000
X57000
X55000
X53000
X51000
X52000Y24000
X54000
X55000Y26000
X54000Y28000
X54200Y29495
X54550Y29150
X56250Y28500
X56750
Y28000
X57250Y28500
X57000Y30000
X59000
X47750Y28650
X47550Y28450
X47350Y28650
Y28250
X47750
X47000Y22000
X50000Y20000
X52000
X54000
X55000Y18000
X53000
X46000Y24000
X38000
X38950Y22500
X35600Y21900
X34995Y20500
X35250Y19500
X34000Y20000
X35000Y18000
X37255Y17850
Y18200
X39000Y18000
X40000Y16000
X38000
X34000
X31750
X33000Y22000
X34000Y24500
Y25000
X33500
Y25500
X34000
X34500
Y25000
X34950Y24745
X35982Y25138
X37100Y26495
X36600Y27300
X36350Y27600
X37250Y27900
X34900Y27450
X34609Y27110
X34450Y26700
X33240Y27752
X33062Y28053
X33491Y28295
X33491Y28705
X33400Y30000
X33200Y30150
X33000Y30000
Y30500
Y30900
X33400
X33200Y30700
X33400Y30500
X34500
Y31000
X35000
Y30500
X31500Y27505
X31755Y27000
X31741Y25200
X41750Y28750
X30573Y29092
X30000Y29300
Y24000
X28000
X26000
X24000
X23250Y24750
X22000Y24000
X20000
X21000Y22000
Y21000
X20000Y20000
X18000
X16000
X17000Y18000
X19000
X20000Y16000
X20950Y15850
X18000Y16000
X16000
Y24000
Y28000
X19250Y28250
X19750Y27250
X20500Y27505
X21250Y27800
X23250Y28500
X25000Y22000
X27000
X29000
X31000
X30250Y20500
X28000Y20000
X26000
X24000
X22250Y18950
X21895
X23000Y18000
X25000
X27000
Y16500
X27400Y16100
X28000Y16000
X30000
X31000Y18000
X29000
X19000Y22000
X15000
X13000
X14000Y24000
X12000
X10000
X8000
X6000
X4000
X5000Y26000
X7000
X9000
X11000
X12000Y26100
X12750Y25400
X13500Y25750
X14041Y26455
X14000Y28000
X6000Y28300
Y29500
X4000Y28000
X5000Y22000
X6000Y20000
X8000
X10000
X12000
X11000Y18000
X9000
X7000
X5000
X4000Y20000
Y16000
X8000
X12000
X14000
X15000Y18000
X9000Y22000
X10000Y32000
X12000
X14000
X15000Y34000
X13000
X11000
X12000Y36000
X14000
X15000Y38000
X13000
X11000
X9000
X7000
X5000
X6000Y36000
X4850Y34600
X4000Y32000
X3000Y40000
Y41250
X5650Y40950
X6000Y40100
X6500Y40500
Y42250
X6000Y42750
X5000Y46000
X8000Y40000
X10000
X12000
X14000
X10000Y36000
X16000
X17000Y38000
X19000
X23000
X24000Y40000
X26000
X27750Y39000
X29000Y38000
X31000
Y34000
X29000
X28000Y36000
X26750
X24000
X22000
X21000Y34000
X22000Y32000
X24000
X26000
X28000
X25000Y34000
X20000Y32000
X18000
X16000
X17000Y34000
X16000Y40000
X18000Y42750
X18500Y42250
X22000Y40000
X30500Y42250
X30000Y42750
X32000Y40000
X34750Y39000
X35000Y38000
X37000
X38000Y40000
X40000
X36000
Y36000
X33750
X32000
X33000Y34000
X35000
X37000
X34500Y31500
X45000Y38000
X42500Y42250
X42000Y42750
X47000Y38000
X49000
X51000
X52000Y36000
X51500Y34000
Y33000
X57000Y34000
X58000Y36000
X59000Y38000
X57000
X58000Y40000
X60000
X62000
X58000Y46500
X57500
X53250Y44750
X52950Y44000
X48000Y36000
X64000
X65000Y38000
X63000
X64000Y40000
X65000Y34000
X63000
X64000Y32000
X58000Y47000
Y47500
X56500Y48250
X55500
X56000Y48750
X56500Y49250
X55500
X54000Y52000
X48750Y51250
Y51000
Y50250
Y50000
X48000Y50250
X47500
X47000
X47750Y49000
X48000
X48750
Y48750
Y48000
Y47750
X48000
Y48000
X47500
Y47750
X46750Y48500
Y48750
Y49250
Y49500
X43500Y50250
X43250
X43000
Y50750
Y51250
X43250Y51000
X43500Y51250
Y50750
X43000Y49250
X43250Y48750
X43500Y48250
Y47750
X43250Y48000
X43000Y48250
Y47750
X42000Y52000
X43000Y54000
X36750Y51250
Y51000
Y50250
Y50000
X36000Y50250
X35500
X35000
X34750Y49500
Y49250
Y48750
Y48500
X35500Y48000
Y47750
X36000
Y48000
X36750
Y47750
Y48750
Y49000
X36000
X35750
X31250Y48750
X31500Y48250
Y47750
X31250Y48000
Y50250
X31500
Y50750
X31250Y51000
X31500Y51250
X31000
Y50750
Y50250
Y49250
Y48250
Y47750
X30000Y52000
X31000Y54000
X24750Y51250
Y51000
Y50250
Y50000
X24000Y50250
X23500
X23000
X22750Y49500
Y49250
Y48750
Y48500
X23500Y48000
Y47750
X24000
Y48000
X24750
Y47750
Y48750
Y49000
X24000
X23750
X19250Y48750
X19500Y48250
Y47750
X19250Y48000
X19000Y48250
Y47750
Y49250
Y50250
X19250
X19500
Y50750
X19000
Y51250
X19250Y51000
X19500Y51250
X18000Y52000
X19000Y54000
X12750Y51250
Y51000
Y50250
Y50000
Y49000
Y48750
Y48000
Y47750
X12000
Y48000
X11500
Y47750
X11750Y49000
X12000
Y50250
X11500
X11000
X10750Y49500
Y49250
Y48750
Y48500
X7500Y48250
X7000
Y47750
X7250Y48000
X7500Y47750
X7250Y48750
X7000Y49250
Y50250
X7250
X7500
Y50750
Y51250
X7250Y51000
X7000Y51250
Y50750
X5000Y50000
X4000Y48000
T04
X63000Y13250
Y14040
X19040Y35500
X18250
X18210Y39750
X19000
T05
X5555Y12669
X6343
X7130
X7917
X8705
X9492
X10280
X11067
X11854
X12642
Y21331
X11854
X11067
X10280
X9492
X8705
X7917
X7130
X6343
X5555
X54000Y31500
X55000
Y32500
X54000
Y33500
X55000
Y34500
X54000
Y35500
X55000
Y36500
X54000
Y37500
X55000
Y38500
X54000
Y39500
X55000
Y40500
X54000
Y41500
X55000
Y42500
X54000
Y43500
X55000
X61000Y37500
X62000
Y36500
X61000
Y35500
X62000
Y34500
X61000
Y33500
X62000
Y32500
X61000
T06
X41335Y3516
X45665
X51835
X56165
T07
X38000Y30500
Y31500
Y32500
Y33500
Y34500
Y35500
Y36500
Y37500
X50000
Y38500
Y36500
Y35500
Y34500
Y33500
Y32500
T08
X14000Y46000
X15000
X16000
X26000
X27000
X28000
X38000
X39000
X40000
X50000
X51000
X52000
X62000
X63000
X64000
Y53000
X63000
X62000
X52000
X51000
X50000
X40000
X39000
X38000
X28000
X27000
X26000
X16000
X15000
X14000
T09
X48500Y16000
Y17000
Y18000
Y19000
Y20000
Y21000
Y22000
Y23000
Y24000
Y25000
Y26000
Y27000
X58000
Y26000
Y25000
Y24000
Y23000
Y22000
Y21000
Y20000
Y19000
Y18000
Y17000
Y16000
T10
X40835Y19193
Y20846
Y22500
X43000
Y20846
Y19193
Y30000
X40835
Y31654
Y33307
X43000
Y31654
X58000Y53906
X46000
X34000
X22000
X10000
T11
X47014Y52892
Y54919
X56986
Y52892
X59014
Y54919
X44986
Y52892
X35014
Y54919
X32986
Y52892
X23014
Y54919
X20986
Y52892
X11014
Y54919
X8986
Y52892
T12
X42516Y7453
X44484
X53016
X54984
T13
X24400Y4500
X26900
X29400
X31900
T14
X5000Y5500
X64055
X64055Y29122
X5000Y52744
T15
X17648Y27409
T16
X4949Y27862
Y30138
T17
X33396Y31346
T18
X33396Y23472
T19
X42819Y17343
Y24350
Y28150
Y35157
M30
