G04*
G04 #@! TF.GenerationSoftware,Altium Limited,Altium Designer,22.10.1 (41)*
G04*
G04 Layer_Color=8421504*
%FSLAX25Y25*%
%MOIN*%
G70*
G04*
G04 #@! TF.SameCoordinates,F9F3A06B-563E-4FCB-9898-75D578650021*
G04*
G04*
G04 #@! TF.FilePolarity,Positive*
G04*
G01*
G75*
%ADD18R,0.05787X0.04370*%
%ADD19R,0.05000X0.02402*%
%ADD20R,0.04016X0.02402*%
%ADD21R,0.09449X0.09449*%
%ADD22R,0.03661X0.03425*%
G04:AMPARAMS|DCode=23|XSize=11.81mil|YSize=61.02mil|CornerRadius=0.89mil|HoleSize=0mil|Usage=FLASHONLY|Rotation=270.000|XOffset=0mil|YOffset=0mil|HoleType=Round|Shape=RoundedRectangle|*
%AMROUNDEDRECTD23*
21,1,0.01181,0.05925,0,0,270.0*
21,1,0.01004,0.06102,0,0,270.0*
1,1,0.00177,-0.02963,-0.00502*
1,1,0.00177,-0.02963,0.00502*
1,1,0.00177,0.02963,0.00502*
1,1,0.00177,0.02963,-0.00502*
%
%ADD23ROUNDEDRECTD23*%
G04:AMPARAMS|DCode=24|XSize=47.24mil|YSize=108.27mil|CornerRadius=3.54mil|HoleSize=0mil|Usage=FLASHONLY|Rotation=270.000|XOffset=0mil|YOffset=0mil|HoleType=Round|Shape=RoundedRectangle|*
%AMROUNDEDRECTD24*
21,1,0.04724,0.10118,0,0,270.0*
21,1,0.04016,0.10827,0,0,270.0*
1,1,0.00709,-0.05059,-0.02008*
1,1,0.00709,-0.05059,0.02008*
1,1,0.00709,0.05059,0.02008*
1,1,0.00709,0.05059,-0.02008*
%
%ADD24ROUNDEDRECTD24*%
%ADD25R,0.05512X0.01772*%
G04:AMPARAMS|DCode=26|XSize=77.56mil|YSize=23.23mil|CornerRadius=2.9mil|HoleSize=0mil|Usage=FLASHONLY|Rotation=0.000|XOffset=0mil|YOffset=0mil|HoleType=Round|Shape=RoundedRectangle|*
%AMROUNDEDRECTD26*
21,1,0.07756,0.01742,0,0,0.0*
21,1,0.07175,0.02323,0,0,0.0*
1,1,0.00581,0.03588,-0.00871*
1,1,0.00581,-0.03588,-0.00871*
1,1,0.00581,-0.03588,0.00871*
1,1,0.00581,0.03588,0.00871*
%
%ADD26ROUNDEDRECTD26*%
%ADD27R,0.02677X0.04724*%
%ADD28R,0.03937X0.05118*%
%ADD29R,0.03425X0.03661*%
G04:AMPARAMS|DCode=30|XSize=74.8mil|YSize=132.68mil|CornerRadius=2.62mil|HoleSize=0mil|Usage=FLASHONLY|Rotation=90.000|XOffset=0mil|YOffset=0mil|HoleType=Round|Shape=RoundedRectangle|*
%AMROUNDEDRECTD30*
21,1,0.07480,0.12744,0,0,90.0*
21,1,0.06957,0.13268,0,0,90.0*
1,1,0.00524,0.06372,0.03478*
1,1,0.00524,0.06372,-0.03478*
1,1,0.00524,-0.06372,-0.03478*
1,1,0.00524,-0.06372,0.03478*
%
%ADD30ROUNDEDRECTD30*%
%ADD31R,0.02362X0.03937*%
G04:AMPARAMS|DCode=32|XSize=45.28mil|YSize=15.75mil|CornerRadius=1.97mil|HoleSize=0mil|Usage=FLASHONLY|Rotation=0.000|XOffset=0mil|YOffset=0mil|HoleType=Round|Shape=RoundedRectangle|*
%AMROUNDEDRECTD32*
21,1,0.04528,0.01181,0,0,0.0*
21,1,0.04134,0.01575,0,0,0.0*
1,1,0.00394,0.02067,-0.00591*
1,1,0.00394,-0.02067,-0.00591*
1,1,0.00394,-0.02067,0.00591*
1,1,0.00394,0.02067,0.00591*
%
%ADD32ROUNDEDRECTD32*%
%ADD33R,0.22441X0.06299*%
%ADD34R,0.06102X0.02362*%
%ADD35R,0.07087X0.04724*%
%ADD36R,0.04528X0.01181*%
%ADD37R,0.04528X0.02362*%
%ADD38R,0.03543X0.03150*%
%ADD39R,0.03150X0.03150*%
%ADD40R,0.07677X0.04331*%
%ADD41R,0.03150X0.03150*%
%ADD42R,0.03150X0.03937*%
%ADD43R,0.07087X0.05276*%
%ADD44R,0.04370X0.05787*%
%ADD45C,0.06000*%
G36*
X237627Y109706D02*
X235166D01*
Y104982D01*
X232489D01*
Y109706D01*
X230029D01*
Y121714D01*
X237627D01*
Y109706D01*
D02*
G37*
G36*
X272627D02*
X270166D01*
Y104982D01*
X267489D01*
Y109706D01*
X265029D01*
Y121714D01*
X272627D01*
Y109706D01*
D02*
G37*
G36*
X307627D02*
X305166D01*
Y104982D01*
X302489D01*
Y109706D01*
X300029D01*
Y121714D01*
X307627D01*
Y109706D01*
D02*
G37*
D18*
X567500Y198543D02*
D03*
Y191457D02*
D03*
X472500Y198543D02*
D03*
Y191457D02*
D03*
D19*
X599012Y111100D02*
D03*
Y106100D02*
D03*
Y101100D02*
D03*
Y116100D02*
D03*
D20*
X577496D02*
D03*
Y111100D02*
D03*
Y106100D02*
D03*
Y101100D02*
D03*
D21*
X585783Y108600D02*
D03*
D22*
X50000Y140000D02*
D03*
Y133858D02*
D03*
X645037Y117897D02*
D03*
Y111755D02*
D03*
X639863Y111803D02*
D03*
Y117945D02*
D03*
X625163Y256803D02*
D03*
Y262945D02*
D03*
X620063Y256803D02*
D03*
Y262945D02*
D03*
X615063Y111803D02*
D03*
Y117945D02*
D03*
X614863Y256803D02*
D03*
Y262945D02*
D03*
X609863Y111803D02*
D03*
Y117945D02*
D03*
X585000Y475000D02*
D03*
Y468858D02*
D03*
X550063Y451803D02*
D03*
Y457945D02*
D03*
X530163Y256803D02*
D03*
Y262945D02*
D03*
X525063Y256803D02*
D03*
Y262945D02*
D03*
X394937Y103197D02*
D03*
Y97055D02*
D03*
X327500Y98858D02*
D03*
Y105000D02*
D03*
X322437Y104997D02*
D03*
Y98855D02*
D03*
X270000Y161142D02*
D03*
Y155000D02*
D03*
X264663Y155003D02*
D03*
Y161145D02*
D03*
X248563Y138503D02*
D03*
Y144645D02*
D03*
X243489Y144689D02*
D03*
Y138547D02*
D03*
X212563Y354303D02*
D03*
Y360445D02*
D03*
X540000Y113071D02*
D03*
Y106929D02*
D03*
X433000Y105571D02*
D03*
Y99429D02*
D03*
X60000Y278071D02*
D03*
Y271929D02*
D03*
X52500Y409429D02*
D03*
Y415571D02*
D03*
Y345571D02*
D03*
Y339429D02*
D03*
D23*
X325000Y299685D02*
D03*
Y301654D02*
D03*
Y303622D02*
D03*
Y305591D02*
D03*
Y307559D02*
D03*
Y309528D02*
D03*
X354724Y310512D02*
D03*
Y308543D02*
D03*
Y306575D02*
D03*
Y304606D02*
D03*
Y302638D02*
D03*
Y300669D02*
D03*
Y298701D02*
D03*
X325000Y297716D02*
D03*
X354724Y296732D02*
D03*
X325000Y295748D02*
D03*
X354724Y294764D02*
D03*
X325000Y293779D02*
D03*
X354724Y292795D02*
D03*
X325000Y291811D02*
D03*
X354724Y290827D02*
D03*
X325000Y289843D02*
D03*
X354724Y288858D02*
D03*
X325000Y280000D02*
D03*
X354724Y279016D02*
D03*
X325000Y278031D02*
D03*
X354724Y277047D02*
D03*
X325000Y276063D02*
D03*
X354724Y275079D02*
D03*
X325000Y274095D02*
D03*
X354724Y273110D02*
D03*
X325000Y272126D02*
D03*
X354724Y271142D02*
D03*
X325000Y270158D02*
D03*
X354724Y269173D02*
D03*
X325000Y268189D02*
D03*
X354724Y267205D02*
D03*
X325000Y266220D02*
D03*
X354724Y265236D02*
D03*
X325000Y264252D02*
D03*
X354724Y263268D02*
D03*
X325000Y262283D02*
D03*
X354724Y261299D02*
D03*
X325000Y260315D02*
D03*
X354724Y259331D02*
D03*
X325000Y258347D02*
D03*
X354724Y257362D02*
D03*
X325000Y256378D02*
D03*
X354724Y255394D02*
D03*
X325000Y254410D02*
D03*
X354724Y253425D02*
D03*
X325000Y252441D02*
D03*
X354724Y251457D02*
D03*
X325000Y250472D02*
D03*
X354724Y249488D02*
D03*
X325000Y248504D02*
D03*
X354724Y247520D02*
D03*
X325000Y246535D02*
D03*
X354724Y245551D02*
D03*
X325000Y244567D02*
D03*
X354724Y243583D02*
D03*
X325000Y242598D02*
D03*
X354724Y241614D02*
D03*
X325000Y240630D02*
D03*
X354724Y239646D02*
D03*
X325000Y238661D02*
D03*
X354724Y237677D02*
D03*
D24*
X351673Y314843D02*
D03*
Y233347D02*
D03*
D25*
X508386Y101161D02*
D03*
Y108839D02*
D03*
Y106280D02*
D03*
Y103720D02*
D03*
X531614Y108839D02*
D03*
Y106280D02*
D03*
Y103720D02*
D03*
Y101161D02*
D03*
X403386D02*
D03*
Y108839D02*
D03*
Y106280D02*
D03*
Y103720D02*
D03*
X426614Y108839D02*
D03*
Y106280D02*
D03*
Y103720D02*
D03*
Y101161D02*
D03*
D26*
X440256Y512500D02*
D03*
Y507500D02*
D03*
Y502500D02*
D03*
Y497500D02*
D03*
Y492500D02*
D03*
Y487500D02*
D03*
Y482500D02*
D03*
Y477500D02*
D03*
X459744D02*
D03*
Y482500D02*
D03*
Y487500D02*
D03*
Y492500D02*
D03*
Y497500D02*
D03*
Y502500D02*
D03*
Y507500D02*
D03*
Y512500D02*
D03*
X320256D02*
D03*
Y507500D02*
D03*
Y502500D02*
D03*
Y497500D02*
D03*
Y492500D02*
D03*
Y487500D02*
D03*
Y482500D02*
D03*
Y477500D02*
D03*
X339744D02*
D03*
Y482500D02*
D03*
Y487500D02*
D03*
Y492500D02*
D03*
Y497500D02*
D03*
Y502500D02*
D03*
Y507500D02*
D03*
Y512500D02*
D03*
X200256D02*
D03*
Y507500D02*
D03*
Y502500D02*
D03*
Y497500D02*
D03*
Y492500D02*
D03*
Y487500D02*
D03*
Y482500D02*
D03*
Y477500D02*
D03*
X219744D02*
D03*
Y482500D02*
D03*
Y487500D02*
D03*
Y492500D02*
D03*
Y497500D02*
D03*
Y502500D02*
D03*
Y507500D02*
D03*
Y512500D02*
D03*
X80256D02*
D03*
Y507500D02*
D03*
Y502500D02*
D03*
Y497500D02*
D03*
Y492500D02*
D03*
Y487500D02*
D03*
Y482500D02*
D03*
Y477500D02*
D03*
X99744D02*
D03*
Y482500D02*
D03*
Y487500D02*
D03*
Y492500D02*
D03*
Y497500D02*
D03*
Y502500D02*
D03*
Y507500D02*
D03*
Y512500D02*
D03*
D27*
X297922Y120336D02*
D03*
X309733D02*
D03*
Y107344D02*
D03*
X297922D02*
D03*
X262922Y120336D02*
D03*
X274733D02*
D03*
Y107344D02*
D03*
X262922D02*
D03*
X227922Y120336D02*
D03*
X239733D02*
D03*
Y107344D02*
D03*
X227922D02*
D03*
D28*
X323701Y366339D02*
D03*
X335512Y383661D02*
D03*
X323701D02*
D03*
X335512Y366339D02*
D03*
X253701D02*
D03*
X265512Y383661D02*
D03*
X253701D02*
D03*
X265512Y366339D02*
D03*
D29*
X619303Y269937D02*
D03*
X625445D02*
D03*
X616803Y249937D02*
D03*
X622945D02*
D03*
X598197Y285063D02*
D03*
X592055D02*
D03*
X591803Y494937D02*
D03*
X597945D02*
D03*
X591803Y484937D02*
D03*
X597945D02*
D03*
X556803Y134937D02*
D03*
X562945D02*
D03*
X562897Y140063D02*
D03*
X556755D02*
D03*
X526803Y134937D02*
D03*
X532945D02*
D03*
X521803Y249937D02*
D03*
X527945D02*
D03*
X524303Y269937D02*
D03*
X530445D02*
D03*
X500697Y107563D02*
D03*
X494555D02*
D03*
X503197Y285063D02*
D03*
X497055D02*
D03*
X478197Y485063D02*
D03*
X472055D02*
D03*
X478197Y495063D02*
D03*
X472055D02*
D03*
X378197Y180063D02*
D03*
X372055D02*
D03*
X371803Y199837D02*
D03*
X377945D02*
D03*
X371803Y204937D02*
D03*
X377945D02*
D03*
X371803Y210137D02*
D03*
X377945D02*
D03*
X358197Y485063D02*
D03*
X352055D02*
D03*
X358197Y495063D02*
D03*
X352055D02*
D03*
X343197Y390063D02*
D03*
X337055D02*
D03*
X307697Y130063D02*
D03*
X301555D02*
D03*
X273197Y390063D02*
D03*
X267055D02*
D03*
X272697Y130063D02*
D03*
X266555D02*
D03*
X238197Y485063D02*
D03*
X232055D02*
D03*
X238197Y495063D02*
D03*
X232055D02*
D03*
X237697Y130063D02*
D03*
X231555D02*
D03*
X118197Y485063D02*
D03*
X112055D02*
D03*
X118197Y495063D02*
D03*
X112055D02*
D03*
X88197Y285063D02*
D03*
X82055D02*
D03*
X88197Y291563D02*
D03*
X82055D02*
D03*
X563071Y255000D02*
D03*
X556929D02*
D03*
X468071D02*
D03*
X461929D02*
D03*
X333071Y360000D02*
D03*
X326929D02*
D03*
X296571Y130000D02*
D03*
X290429D02*
D03*
X263071Y360000D02*
D03*
X256929D02*
D03*
X261571Y130000D02*
D03*
X255429D02*
D03*
X226571D02*
D03*
X220429D02*
D03*
D30*
X550000Y120472D02*
D03*
Y99528D02*
D03*
X445000Y92028D02*
D03*
Y112972D02*
D03*
D31*
X573740Y474724D02*
D03*
X566260D02*
D03*
X570000Y465276D02*
D03*
D32*
X322500Y115118D02*
D03*
Y112559D02*
D03*
Y110000D02*
D03*
X329508D02*
D03*
Y112559D02*
D03*
Y115118D02*
D03*
X255000Y150000D02*
D03*
Y147441D02*
D03*
Y144882D02*
D03*
X262008D02*
D03*
Y147441D02*
D03*
Y150000D02*
D03*
D33*
X303999Y70748D02*
D03*
Y89252D02*
D03*
X268999Y70748D02*
D03*
Y89252D02*
D03*
X233999Y70748D02*
D03*
Y89252D02*
D03*
D34*
X45000Y401063D02*
D03*
Y405000D02*
D03*
Y408937D02*
D03*
Y412874D02*
D03*
D35*
X29744Y417992D02*
D03*
Y395945D02*
D03*
D36*
X53720Y296890D02*
D03*
Y294921D02*
D03*
Y292953D02*
D03*
Y283110D02*
D03*
Y285079D02*
D03*
Y287047D02*
D03*
Y290984D02*
D03*
Y289016D02*
D03*
D37*
Y280551D02*
D03*
Y299449D02*
D03*
Y277402D02*
D03*
Y302598D02*
D03*
D38*
X623937Y96260D02*
D03*
Y103740D02*
D03*
X616063Y100000D02*
D03*
D39*
X576850Y285000D02*
D03*
X583150D02*
D03*
X548150Y135000D02*
D03*
X541850D02*
D03*
X481850Y285000D02*
D03*
X488150D02*
D03*
D40*
X560000Y278465D02*
D03*
Y261535D02*
D03*
X465000Y278465D02*
D03*
Y261535D02*
D03*
D41*
X550000Y475000D02*
D03*
Y468701D02*
D03*
D42*
X382165Y187047D02*
D03*
X377835D02*
D03*
X382165Y192953D02*
D03*
X377835D02*
D03*
D43*
X288999Y109370D02*
D03*
Y120630D02*
D03*
X253999Y109370D02*
D03*
Y120630D02*
D03*
X218999Y109370D02*
D03*
Y120630D02*
D03*
D44*
X456457Y435000D02*
D03*
X463543D02*
D03*
X443543D02*
D03*
X436457D02*
D03*
X336457D02*
D03*
X343543D02*
D03*
X323543D02*
D03*
X316457D02*
D03*
X216457D02*
D03*
X223543D02*
D03*
X203543D02*
D03*
X196457D02*
D03*
X96457D02*
D03*
X103543D02*
D03*
X83543D02*
D03*
X76457D02*
D03*
D45*
X359500Y215000D02*
D03*
Y205000D02*
D03*
Y195000D02*
D03*
M02*
