M48
;Layer_Color=9474304
;FILE_FORMAT=2:4
INCH,TZ
;TYPE=PLATED
T2F00S00C0.0236
T3F00S00C0.0276
;TYPE=NON_PLATED
%
G90
G05
T02
G00X3343Y27299
M15
G01X3657
M16
G00X4929Y27299
M15
G01X5362
M16
G00X4929Y30701
M15
G01X5362
M16
G00X3343Y30701
M15
G01X3657
M16
T03
G00X7366Y44713
M15
G01X7484
M16
G00X8366Y44713
M15
G01X8484
M16
G00X9366Y44713
M15
G01X9484
M16
G00X10366Y44713
M15
G01X10484
M16
G00X19366Y44713
M15
G01X19484
M16
G00X20366Y44713
M15
G01X20484
M16
G00X21366Y44713
M15
G01X21484
M16
G00X22366Y44713
M15
G01X22484
M16
G00X31366Y44713
M15
G01X31484
M16
G00X32366Y44713
M15
G01X32484
M16
G00X33366Y44713
M15
G01X33484
M16
G00X34366Y44713
M15
G01X34484
M16
G00X43366Y44713
M15
G01X43484
M16
G00X44366Y44713
M15
G01X44484
M16
G00X45366Y44713
M15
G01X45484
M16
G00X46366Y44713
M15
G01X46484
M16
M17
M30
