G04*
G04 #@! TF.GenerationSoftware,Altium Limited,Altium Designer,22.10.1 (41)*
G04*
G04 Layer_Color=16711935*
%FSLAX25Y25*%
%MOIN*%
G70*
G04*
G04 #@! TF.SameCoordinates,F9F3A06B-563E-4FCB-9898-75D578650021*
G04*
G04*
G04 #@! TF.FilePolarity,Negative*
G04*
G01*
G75*
%ADD14C,0.01000*%
%ADD62R,0.04061X0.03825*%
%ADD69R,0.03825X0.04061*%
%ADD71R,0.02762X0.04337*%
%ADD83C,0.05512*%
%ADD84R,0.05512X0.05512*%
%ADD85C,0.24810*%
%ADD86C,0.04731*%
%ADD87C,0.06699*%
%ADD88O,0.08274X0.06306*%
%ADD89C,0.07800*%
%ADD90R,0.07487X0.07487*%
%ADD91C,0.07487*%
%ADD92R,0.04928X0.04928*%
%ADD93C,0.04928*%
%ADD94C,0.08274*%
%ADD95R,0.08274X0.08274*%
%ADD96C,0.06306*%
%ADD97R,0.06306X0.06306*%
%ADD98R,0.12211X0.12211*%
%ADD99C,0.12211*%
%ADD100C,0.10243*%
%ADD101C,0.10243*%
%ADD102R,0.10243X0.10243*%
%ADD103R,0.10912X0.10912*%
%ADD104C,0.10912*%
%ADD105R,0.04928X0.04928*%
%ADD106C,0.09646*%
%ADD107R,0.08465X0.08465*%
%ADD108C,0.02959*%
%ADD109O,0.08668X0.04534*%
%ADD110O,0.08274X0.04337*%
%ADD111C,0.38900*%
%ADD112C,0.02900*%
%ADD155R,0.04145X0.05171*%
%ADD156R,0.08000X0.34000*%
%ADD157R,0.07400X0.05912*%
%ADD158R,0.04337X0.02762*%
%ADD159R,0.05912X0.05518*%
%ADD160R,0.04140X0.04337*%
%ADD161R,0.06306X0.03550*%
%ADD162R,0.07200X0.05712*%
D14*
X212550Y29600D02*
X218500D01*
X212550D02*
Y159600D01*
X28300Y363522D02*
X37000Y372222D01*
Y423328D01*
X28300Y30200D02*
Y363522D01*
Y432028D02*
X37000Y423328D01*
X28300Y432028D02*
Y551522D01*
X29728Y552950D02*
X82000D01*
X210500Y31803D02*
Y157164D01*
X218106Y26300D02*
X657628D01*
X220200Y28300D02*
X656800D01*
X661500Y33000D02*
Y46271D01*
X663500Y32172D02*
Y39000D01*
X28899Y554950D02*
X82000D01*
X26300Y431200D02*
Y552351D01*
Y364351D02*
X35000Y373051D01*
Y422500D01*
X26300Y431200D02*
X35000Y422500D01*
X26300Y29372D02*
Y364351D01*
X30200Y28300D02*
X210800D01*
X29372Y26300D02*
X215894D01*
X661536Y46308D02*
Y550464D01*
X663536Y39036D02*
Y551292D01*
X598500Y555000D02*
X659828D01*
X598500Y553000D02*
X659000D01*
X237435Y211435D02*
X309500D01*
X220000Y190836D02*
Y197551D01*
X236334Y213885D02*
X309500D01*
X220000Y197551D02*
X236334Y213885D01*
X218950Y189786D02*
X220000Y190836D01*
X222713Y189787D02*
Y196713D01*
X237435Y211435D01*
D62*
X65000Y296142D02*
D03*
Y290000D02*
D03*
X65063Y283197D02*
D03*
Y277055D02*
D03*
X209937Y369303D02*
D03*
Y375445D02*
D03*
Y396803D02*
D03*
Y402945D02*
D03*
X215063Y210697D02*
D03*
Y204555D02*
D03*
Y183197D02*
D03*
Y177055D02*
D03*
D69*
X318071Y300000D02*
D03*
X311929D02*
D03*
X318071Y310000D02*
D03*
X311929D02*
D03*
D71*
X603760Y92224D02*
D03*
X611240D02*
D03*
X607500Y82776D02*
D03*
D83*
X55551Y213307D02*
D03*
X63425D02*
D03*
X71299D02*
D03*
X79173D02*
D03*
X87047D02*
D03*
X94921D02*
D03*
X102795D02*
D03*
X110669D02*
D03*
X118543D02*
D03*
X126417D02*
D03*
Y126693D02*
D03*
X118543D02*
D03*
X110669D02*
D03*
X102795D02*
D03*
X94921D02*
D03*
X87047D02*
D03*
X79173D02*
D03*
X71299D02*
D03*
X63425D02*
D03*
D84*
X55551D02*
D03*
D85*
X176476Y274095D02*
D03*
D86*
X333957Y313465D02*
D03*
D87*
Y234724D02*
D03*
D88*
X464252Y447126D02*
D03*
X454252D02*
D03*
X444252D02*
D03*
X434252D02*
D03*
X344252D02*
D03*
X334252D02*
D03*
X324252D02*
D03*
X314252D02*
D03*
X224252D02*
D03*
X214252D02*
D03*
X204252D02*
D03*
X194252D02*
D03*
X104252D02*
D03*
X94252D02*
D03*
X84252D02*
D03*
X74252D02*
D03*
D89*
X380000Y305000D02*
D03*
X500000Y385000D02*
D03*
Y375000D02*
D03*
Y365000D02*
D03*
Y355000D02*
D03*
Y345000D02*
D03*
Y335000D02*
D03*
Y325000D02*
D03*
X380000Y365000D02*
D03*
Y355000D02*
D03*
Y345000D02*
D03*
Y335000D02*
D03*
Y325000D02*
D03*
Y315000D02*
D03*
Y375000D02*
D03*
D90*
X580000Y160000D02*
D03*
X485000D02*
D03*
D91*
X580000Y170000D02*
D03*
Y180000D02*
D03*
Y190000D02*
D03*
Y200000D02*
D03*
Y210000D02*
D03*
Y220000D02*
D03*
Y230000D02*
D03*
Y240000D02*
D03*
Y250000D02*
D03*
Y260000D02*
D03*
Y270000D02*
D03*
X485000Y170000D02*
D03*
Y180000D02*
D03*
Y190000D02*
D03*
Y200000D02*
D03*
Y210000D02*
D03*
Y220000D02*
D03*
Y230000D02*
D03*
Y240000D02*
D03*
Y250000D02*
D03*
Y260000D02*
D03*
Y270000D02*
D03*
D92*
X630000Y140402D02*
D03*
D93*
Y132500D02*
D03*
X190000Y397500D02*
D03*
X190402Y355000D02*
D03*
D94*
X620000Y460000D02*
D03*
X630000D02*
D03*
X620000Y530000D02*
D03*
X630000D02*
D03*
X518347Y35157D02*
D03*
X561654D02*
D03*
X500000Y460000D02*
D03*
X510000D02*
D03*
X500000Y530000D02*
D03*
X510000D02*
D03*
X413346Y35157D02*
D03*
X456653D02*
D03*
X380000Y460000D02*
D03*
X390000D02*
D03*
X380000Y530000D02*
D03*
X390000D02*
D03*
X260000Y460000D02*
D03*
X270000D02*
D03*
X260000Y530000D02*
D03*
X270000D02*
D03*
X140000Y460000D02*
D03*
X150000D02*
D03*
X140000Y530000D02*
D03*
X150000D02*
D03*
D95*
X640000Y460000D02*
D03*
Y530000D02*
D03*
X520000Y460000D02*
D03*
Y530000D02*
D03*
X400000Y460000D02*
D03*
Y530000D02*
D03*
X280000Y460000D02*
D03*
Y530000D02*
D03*
X160000Y460000D02*
D03*
Y530000D02*
D03*
D96*
X610000Y375000D02*
D03*
X620000D02*
D03*
X610000Y365000D02*
D03*
X620000D02*
D03*
X610000Y355000D02*
D03*
X620000D02*
D03*
X610000Y345000D02*
D03*
X620000D02*
D03*
X610000Y335000D02*
D03*
X620000D02*
D03*
X610000Y325000D02*
D03*
X540000Y315000D02*
D03*
X550000Y325000D02*
D03*
X540000D02*
D03*
X550000Y335000D02*
D03*
X540000D02*
D03*
X550000Y345000D02*
D03*
X540000D02*
D03*
X550000Y355000D02*
D03*
X540000D02*
D03*
X550000Y365000D02*
D03*
X540000D02*
D03*
X550000Y375000D02*
D03*
X540000D02*
D03*
X550000Y385000D02*
D03*
X540000D02*
D03*
X550000Y395000D02*
D03*
X540000D02*
D03*
X550000Y405000D02*
D03*
X540000D02*
D03*
X550000Y415000D02*
D03*
X540000D02*
D03*
X550000Y425000D02*
D03*
X540000D02*
D03*
X550000Y435000D02*
D03*
X540000D02*
D03*
D97*
X620000Y325000D02*
D03*
X550000Y315000D02*
D03*
D98*
X549843Y74528D02*
D03*
X444842D02*
D03*
D99*
X530158D02*
D03*
X425157D02*
D03*
X428189Y243504D02*
D03*
Y173425D02*
D03*
Y351575D02*
D03*
Y281496D02*
D03*
D100*
X430000Y225000D02*
D03*
X408347D02*
D03*
X430000Y208465D02*
D03*
Y191929D02*
D03*
Y333071D02*
D03*
X408347D02*
D03*
X430000Y316535D02*
D03*
Y300000D02*
D03*
D101*
X408347Y208465D02*
D03*
Y316535D02*
D03*
D102*
Y191929D02*
D03*
Y300000D02*
D03*
D103*
X243999Y45000D02*
D03*
D104*
X268999D02*
D03*
X293999D02*
D03*
X318999D02*
D03*
D105*
X182098Y397500D02*
D03*
X182500Y355000D02*
D03*
D106*
X590138Y528917D02*
D03*
X569862D02*
D03*
X590138Y549193D02*
D03*
X569862D02*
D03*
X470138Y528917D02*
D03*
X449862D02*
D03*
X470138Y549193D02*
D03*
X449862D02*
D03*
X350138Y528917D02*
D03*
X329862D02*
D03*
X350138Y549193D02*
D03*
X329862D02*
D03*
X230138Y528917D02*
D03*
X209862D02*
D03*
X230138Y549193D02*
D03*
X209862D02*
D03*
X110138Y528917D02*
D03*
X89862D02*
D03*
X110138Y549193D02*
D03*
X89862D02*
D03*
D107*
X580000Y539055D02*
D03*
X460000D02*
D03*
X340000D02*
D03*
X220000D02*
D03*
X100000D02*
D03*
D108*
X49488Y301378D02*
D03*
Y278622D02*
D03*
D109*
X51457Y272992D02*
D03*
Y307008D02*
D03*
D110*
X35000Y272992D02*
D03*
Y307008D02*
D03*
D111*
X640551Y291220D02*
D03*
X640551Y55000D02*
D03*
X50000D02*
D03*
Y527441D02*
D03*
D112*
X240000Y200000D02*
D03*
X640000Y400000D02*
D03*
X650000Y380000D02*
D03*
X640000Y360000D02*
D03*
X650000Y340000D02*
D03*
X640000Y320000D02*
D03*
Y240000D02*
D03*
X650000Y220000D02*
D03*
X640000Y200000D02*
D03*
X650000Y180000D02*
D03*
X640000Y160000D02*
D03*
X650000Y140000D02*
D03*
Y100000D02*
D03*
X640000Y80000D02*
D03*
X620000Y400000D02*
D03*
X630000Y380000D02*
D03*
Y340000D02*
D03*
X620000Y240000D02*
D03*
X630000Y220000D02*
D03*
X620000Y200000D02*
D03*
X630000Y180000D02*
D03*
X620000Y160000D02*
D03*
Y80000D02*
D03*
Y40000D02*
D03*
X600000Y400000D02*
D03*
Y160000D02*
D03*
X610000Y140000D02*
D03*
X600000Y80000D02*
D03*
X610000Y60000D02*
D03*
X600000Y40000D02*
D03*
X580000Y400000D02*
D03*
X590000Y380000D02*
D03*
X580000Y360000D02*
D03*
X590000Y300000D02*
D03*
Y220000D02*
D03*
Y60000D02*
D03*
X580000Y40000D02*
D03*
X570000Y380000D02*
D03*
Y340000D02*
D03*
Y300000D02*
D03*
Y220000D02*
D03*
Y60000D02*
D03*
X540000Y520000D02*
D03*
Y280000D02*
D03*
X550000Y260000D02*
D03*
X540000Y240000D02*
D03*
X550000Y220000D02*
D03*
X540000Y200000D02*
D03*
X550000Y180000D02*
D03*
Y60000D02*
D03*
X540000Y40000D02*
D03*
X520000Y360000D02*
D03*
Y240000D02*
D03*
X530000Y220000D02*
D03*
X520000Y200000D02*
D03*
X530000Y180000D02*
D03*
X510000Y380000D02*
D03*
Y220000D02*
D03*
X500000Y200000D02*
D03*
X510000Y60000D02*
D03*
X500000Y40000D02*
D03*
X490000Y380000D02*
D03*
X480000Y360000D02*
D03*
Y40000D02*
D03*
X470000Y380000D02*
D03*
X460000Y240000D02*
D03*
X470000Y220000D02*
D03*
X460000Y120000D02*
D03*
Y80000D02*
D03*
X450000Y380000D02*
D03*
X430000Y540000D02*
D03*
X420000Y520000D02*
D03*
X400000Y400000D02*
D03*
Y160000D02*
D03*
Y80000D02*
D03*
X380000Y400000D02*
D03*
Y240000D02*
D03*
X390000Y180000D02*
D03*
X380000Y160000D02*
D03*
Y80000D02*
D03*
X390000Y60000D02*
D03*
X380000Y40000D02*
D03*
X360000Y400000D02*
D03*
X370000Y380000D02*
D03*
X360000Y360000D02*
D03*
X370000Y340000D02*
D03*
Y100000D02*
D03*
X360000Y80000D02*
D03*
X370000Y60000D02*
D03*
X360000Y40000D02*
D03*
X350000Y380000D02*
D03*
Y340000D02*
D03*
X340000Y200000D02*
D03*
X350000Y180000D02*
D03*
X340000Y160000D02*
D03*
X350000Y140000D02*
D03*
Y60000D02*
D03*
X340000Y40000D02*
D03*
X320000Y400000D02*
D03*
Y360000D02*
D03*
X330000Y340000D02*
D03*
Y220000D02*
D03*
X310000Y540000D02*
D03*
X300000Y520000D02*
D03*
X310000Y380000D02*
D03*
Y340000D02*
D03*
X300000Y240000D02*
D03*
X310000Y220000D02*
D03*
Y180000D02*
D03*
X300000Y160000D02*
D03*
X310000Y140000D02*
D03*
X290000Y380000D02*
D03*
X280000Y360000D02*
D03*
X290000Y340000D02*
D03*
X280000Y320000D02*
D03*
Y240000D02*
D03*
X290000Y220000D02*
D03*
X280000Y200000D02*
D03*
X290000Y180000D02*
D03*
X280000Y160000D02*
D03*
X260000Y400000D02*
D03*
Y320000D02*
D03*
Y240000D02*
D03*
X270000Y220000D02*
D03*
X260000Y200000D02*
D03*
X270000Y180000D02*
D03*
X240000Y400000D02*
D03*
Y360000D02*
D03*
X250000Y340000D02*
D03*
X240000Y320000D02*
D03*
Y240000D02*
D03*
X250000Y220000D02*
D03*
Y180000D02*
D03*
X220000Y400000D02*
D03*
X230000Y380000D02*
D03*
X220000Y360000D02*
D03*
Y320000D02*
D03*
Y240000D02*
D03*
X230000Y180000D02*
D03*
Y140000D02*
D03*
X210000Y340000D02*
D03*
X200000Y320000D02*
D03*
Y240000D02*
D03*
X210000Y220000D02*
D03*
X200000Y200000D02*
D03*
Y160000D02*
D03*
Y120000D02*
D03*
Y80000D02*
D03*
Y40000D02*
D03*
X190000Y540000D02*
D03*
X180000Y520000D02*
D03*
X190000Y380000D02*
D03*
X180000Y320000D02*
D03*
X190000Y220000D02*
D03*
X180000Y200000D02*
D03*
X190000Y180000D02*
D03*
X180000Y160000D02*
D03*
X190000Y140000D02*
D03*
X180000Y120000D02*
D03*
X190000Y100000D02*
D03*
X180000Y80000D02*
D03*
X190000Y60000D02*
D03*
X180000Y40000D02*
D03*
X160000Y400000D02*
D03*
X170000Y380000D02*
D03*
X160000Y360000D02*
D03*
X170000Y340000D02*
D03*
X160000Y320000D02*
D03*
Y280000D02*
D03*
Y240000D02*
D03*
Y200000D02*
D03*
X170000Y180000D02*
D03*
X160000Y160000D02*
D03*
X170000Y140000D02*
D03*
X160000Y120000D02*
D03*
X170000Y100000D02*
D03*
X160000Y80000D02*
D03*
X170000Y60000D02*
D03*
X160000Y40000D02*
D03*
X140000Y400000D02*
D03*
X150000Y380000D02*
D03*
X140000Y360000D02*
D03*
X150000Y340000D02*
D03*
X140000Y320000D02*
D03*
Y280000D02*
D03*
Y240000D02*
D03*
X150000Y220000D02*
D03*
Y180000D02*
D03*
X140000Y160000D02*
D03*
X150000Y140000D02*
D03*
X140000Y120000D02*
D03*
X150000Y100000D02*
D03*
X140000Y80000D02*
D03*
X150000Y60000D02*
D03*
X140000Y40000D02*
D03*
X120000Y400000D02*
D03*
X130000Y380000D02*
D03*
X120000Y360000D02*
D03*
X130000Y340000D02*
D03*
X120000Y320000D02*
D03*
Y240000D02*
D03*
X130000Y220000D02*
D03*
X120000Y200000D02*
D03*
Y160000D02*
D03*
X130000Y140000D02*
D03*
Y100000D02*
D03*
X120000Y80000D02*
D03*
X130000Y60000D02*
D03*
X120000Y40000D02*
D03*
X100000Y400000D02*
D03*
X110000Y380000D02*
D03*
X100000Y360000D02*
D03*
X110000Y340000D02*
D03*
X100000Y320000D02*
D03*
X110000Y260000D02*
D03*
X100000Y240000D02*
D03*
Y200000D02*
D03*
X110000Y180000D02*
D03*
Y140000D02*
D03*
X100000Y120000D02*
D03*
X110000Y100000D02*
D03*
X100000Y80000D02*
D03*
X110000Y60000D02*
D03*
X100000Y40000D02*
D03*
X80000Y400000D02*
D03*
X90000Y380000D02*
D03*
Y260000D02*
D03*
X80000Y240000D02*
D03*
X90000Y220000D02*
D03*
X80000Y200000D02*
D03*
X90000Y180000D02*
D03*
X80000Y160000D02*
D03*
X90000Y100000D02*
D03*
X80000Y80000D02*
D03*
X90000Y60000D02*
D03*
X80000Y40000D02*
D03*
X70000Y380000D02*
D03*
X60000Y360000D02*
D03*
X70000Y260000D02*
D03*
X60000Y240000D02*
D03*
Y200000D02*
D03*
X70000Y180000D02*
D03*
Y140000D02*
D03*
Y100000D02*
D03*
X60000Y80000D02*
D03*
X50000Y500000D02*
D03*
X40000Y480000D02*
D03*
X50000Y460000D02*
D03*
Y380000D02*
D03*
X40000Y320000D02*
D03*
Y280000D02*
D03*
X50000Y260000D02*
D03*
X40000Y240000D02*
D03*
X50000Y220000D02*
D03*
X40000Y200000D02*
D03*
X50000Y180000D02*
D03*
X40000Y160000D02*
D03*
Y120000D02*
D03*
X50000Y100000D02*
D03*
X40000Y80000D02*
D03*
D155*
X86392Y337582D02*
D03*
D156*
X43000Y344500D02*
D03*
D157*
X33737Y326228D02*
D03*
D158*
X213256Y197240D02*
D03*
Y189760D02*
D03*
X203807Y193500D02*
D03*
X212244Y382760D02*
D03*
Y390240D02*
D03*
X221693Y386500D02*
D03*
D159*
X85509Y332528D02*
D03*
Y354969D02*
D03*
D160*
X86395Y338000D02*
D03*
D161*
X42753Y329339D02*
D03*
Y333669D02*
D03*
X41965Y338000D02*
D03*
X42753Y342331D02*
D03*
X41965Y346661D02*
D03*
X42753Y350992D02*
D03*
X44328Y355323D02*
D03*
X42753Y359653D02*
D03*
D162*
X29800Y378000D02*
D03*
M02*
