G04*
G04 #@! TF.GenerationSoftware,Altium Limited,Altium Designer,22.10.1 (41)*
G04*
G04 Layer_Color=8388736*
%FSLAX25Y25*%
%MOIN*%
G70*
G04*
G04 #@! TF.SameCoordinates,F9F3A06B-563E-4FCB-9898-75D578650021*
G04*
G04*
G04 #@! TF.FilePolarity,Negative*
G04*
G01*
G75*
%ADD14C,0.01000*%
%ADD33R,0.22441X0.06299*%
%ADD39R,0.03150X0.03150*%
%ADD41R,0.03150X0.03150*%
%ADD46R,0.05400X0.07600*%
%ADD47R,0.05400X0.29300*%
%ADD48R,0.04543X0.34008*%
%ADD49R,0.00591X0.10630*%
%ADD50R,0.08268X0.01378*%
%ADD51R,0.06526X0.23249*%
%ADD52R,0.05833X0.02800*%
%ADD53R,0.06524X0.42926*%
%ADD54R,0.06520X0.21295*%
%ADD55R,0.07800X0.05600*%
%ADD56R,0.04928X0.27960*%
%ADD57R,0.07800X0.10200*%
%ADD58R,0.06187X0.04770*%
%ADD59R,0.05400X0.02802*%
%ADD60R,0.04416X0.02802*%
%ADD61R,0.15394X0.15394*%
%ADD62R,0.04061X0.03825*%
G04:AMPARAMS|DCode=63|XSize=15.81mil|YSize=65.02mil|CornerRadius=2.89mil|HoleSize=0mil|Usage=FLASHONLY|Rotation=270.000|XOffset=0mil|YOffset=0mil|HoleType=Round|Shape=RoundedRectangle|*
%AMROUNDEDRECTD63*
21,1,0.01581,0.05925,0,0,270.0*
21,1,0.01004,0.06502,0,0,270.0*
1,1,0.00577,-0.02963,-0.00502*
1,1,0.00577,-0.02963,0.00502*
1,1,0.00577,0.02963,0.00502*
1,1,0.00577,0.02963,-0.00502*
%
%ADD63ROUNDEDRECTD63*%
G04:AMPARAMS|DCode=64|XSize=51.24mil|YSize=112.27mil|CornerRadius=5.54mil|HoleSize=0mil|Usage=FLASHONLY|Rotation=270.000|XOffset=0mil|YOffset=0mil|HoleType=Round|Shape=RoundedRectangle|*
%AMROUNDEDRECTD64*
21,1,0.05124,0.10118,0,0,270.0*
21,1,0.04016,0.11227,0,0,270.0*
1,1,0.01109,-0.05059,-0.02008*
1,1,0.01109,-0.05059,0.02008*
1,1,0.01109,0.05059,0.02008*
1,1,0.01109,0.05059,-0.02008*
%
%ADD64ROUNDEDRECTD64*%
%ADD65R,0.06512X0.02772*%
G04:AMPARAMS|DCode=66|XSize=81.56mil|YSize=27.23mil|CornerRadius=4.9mil|HoleSize=0mil|Usage=FLASHONLY|Rotation=0.000|XOffset=0mil|YOffset=0mil|HoleType=Round|Shape=RoundedRectangle|*
%AMROUNDEDRECTD66*
21,1,0.08156,0.01742,0,0,0.0*
21,1,0.07175,0.02723,0,0,0.0*
1,1,0.00981,0.03588,-0.00871*
1,1,0.00981,-0.03588,-0.00871*
1,1,0.00981,-0.03588,0.00871*
1,1,0.00981,0.03588,0.00871*
%
%ADD66ROUNDEDRECTD66*%
%ADD67R,0.03077X0.05124*%
%ADD68R,0.04337X0.05518*%
%ADD69R,0.03825X0.04061*%
G04:AMPARAMS|DCode=70|XSize=78.8mil|YSize=136.68mil|CornerRadius=4.62mil|HoleSize=0mil|Usage=FLASHONLY|Rotation=90.000|XOffset=0mil|YOffset=0mil|HoleType=Round|Shape=RoundedRectangle|*
%AMROUNDEDRECTD70*
21,1,0.07880,0.12744,0,0,90.0*
21,1,0.06957,0.13668,0,0,90.0*
1,1,0.00924,0.06372,0.03478*
1,1,0.00924,0.06372,-0.03478*
1,1,0.00924,-0.06372,-0.03478*
1,1,0.00924,-0.06372,0.03478*
%
%ADD70ROUNDEDRECTD70*%
%ADD71R,0.02762X0.04337*%
G04:AMPARAMS|DCode=72|XSize=49.28mil|YSize=19.75mil|CornerRadius=3.97mil|HoleSize=0mil|Usage=FLASHONLY|Rotation=0.000|XOffset=0mil|YOffset=0mil|HoleType=Round|Shape=RoundedRectangle|*
%AMROUNDEDRECTD72*
21,1,0.04928,0.01181,0,0,0.0*
21,1,0.04134,0.01975,0,0,0.0*
1,1,0.00794,0.02067,-0.00591*
1,1,0.00794,-0.02067,-0.00591*
1,1,0.00794,-0.02067,0.00591*
1,1,0.00794,0.02067,0.00591*
%
%ADD72ROUNDEDRECTD72*%
%ADD73R,0.06502X0.02762*%
%ADD74R,0.07487X0.05124*%
%ADD75R,0.04928X0.01581*%
%ADD76R,0.04928X0.02762*%
%ADD77R,0.03943X0.03550*%
%ADD78R,0.08077X0.04731*%
%ADD79R,0.03550X0.04337*%
%ADD80R,0.07487X0.05676*%
%ADD81R,0.04770X0.06187*%
%ADD82C,0.06400*%
%ADD83C,0.05512*%
%ADD84R,0.05512X0.05512*%
%ADD85C,0.24810*%
%ADD86C,0.04731*%
%ADD87C,0.06699*%
%ADD88O,0.08274X0.06306*%
%ADD89C,0.07800*%
%ADD90R,0.07487X0.07487*%
%ADD91C,0.07487*%
%ADD92R,0.04928X0.04928*%
%ADD93C,0.04928*%
%ADD94C,0.08274*%
%ADD95R,0.08274X0.08274*%
%ADD96C,0.06306*%
%ADD97R,0.06306X0.06306*%
%ADD98R,0.12211X0.12211*%
%ADD99C,0.12211*%
%ADD100C,0.10243*%
%ADD101C,0.10243*%
%ADD102R,0.10243X0.10243*%
%ADD103R,0.10912X0.10912*%
%ADD104C,0.10912*%
%ADD105R,0.04928X0.04928*%
%ADD106C,0.09646*%
%ADD107R,0.08465X0.08465*%
%ADD108C,0.02959*%
%ADD109O,0.08668X0.04534*%
%ADD110O,0.08274X0.04337*%
%ADD111C,0.38900*%
%ADD112C,0.02900*%
G36*
X237666Y121911D02*
X237704Y121899D01*
X237739Y121881D01*
X237769Y121856D01*
X237794Y121826D01*
X237813Y121791D01*
X237824Y121753D01*
X237828Y121714D01*
Y109706D01*
X237824Y109667D01*
X237813Y109629D01*
X237794Y109594D01*
X237769Y109564D01*
X237739Y109539D01*
X237704Y109520D01*
X237666Y109509D01*
X237627Y109505D01*
X235367D01*
Y104982D01*
X235364Y104942D01*
X235352Y104905D01*
X235333Y104870D01*
X235309Y104840D01*
X235278Y104815D01*
X235243Y104796D01*
X235206Y104785D01*
X235166Y104781D01*
X232489D01*
X232450Y104785D01*
X232412Y104796D01*
X232378Y104815D01*
X232347Y104840D01*
X232322Y104870D01*
X232304Y104905D01*
X232292Y104942D01*
X232288Y104982D01*
Y109505D01*
X230029D01*
X229989Y109509D01*
X229952Y109520D01*
X229917Y109539D01*
X229887Y109564D01*
X229861Y109594D01*
X229843Y109629D01*
X229832Y109667D01*
X229828Y109706D01*
Y121714D01*
X229832Y121753D01*
X229843Y121791D01*
X229861Y121826D01*
X229887Y121856D01*
X229917Y121881D01*
X229952Y121899D01*
X229989Y121911D01*
X230029Y121915D01*
X237627D01*
X237666Y121911D01*
D02*
G37*
G36*
X272666D02*
X272704Y121899D01*
X272739Y121881D01*
X272769Y121856D01*
X272794Y121826D01*
X272813Y121791D01*
X272824Y121753D01*
X272828Y121714D01*
Y109706D01*
X272824Y109667D01*
X272813Y109629D01*
X272794Y109594D01*
X272769Y109564D01*
X272739Y109539D01*
X272704Y109520D01*
X272666Y109509D01*
X272627Y109505D01*
X270367D01*
Y104982D01*
X270363Y104942D01*
X270352Y104905D01*
X270334Y104870D01*
X270308Y104840D01*
X270278Y104815D01*
X270243Y104796D01*
X270206Y104785D01*
X270166Y104781D01*
X267489D01*
X267450Y104785D01*
X267412Y104796D01*
X267378Y104815D01*
X267347Y104840D01*
X267322Y104870D01*
X267304Y104905D01*
X267292Y104942D01*
X267288Y104982D01*
Y109505D01*
X265029D01*
X264989Y109509D01*
X264952Y109520D01*
X264917Y109539D01*
X264886Y109564D01*
X264861Y109594D01*
X264843Y109629D01*
X264831Y109667D01*
X264828Y109706D01*
Y121714D01*
X264831Y121753D01*
X264843Y121791D01*
X264861Y121826D01*
X264886Y121856D01*
X264917Y121881D01*
X264952Y121899D01*
X264989Y121911D01*
X265029Y121915D01*
X272627D01*
X272666Y121911D01*
D02*
G37*
G36*
X307666D02*
X307704Y121899D01*
X307739Y121881D01*
X307769Y121856D01*
X307794Y121826D01*
X307813Y121791D01*
X307824Y121753D01*
X307828Y121714D01*
Y109706D01*
X307824Y109667D01*
X307813Y109629D01*
X307794Y109594D01*
X307769Y109564D01*
X307739Y109539D01*
X307704Y109520D01*
X307666Y109509D01*
X307627Y109505D01*
X305367D01*
Y104982D01*
X305363Y104942D01*
X305352Y104905D01*
X305333Y104870D01*
X305309Y104840D01*
X305278Y104815D01*
X305243Y104796D01*
X305206Y104785D01*
X305166Y104781D01*
X302489D01*
X302450Y104785D01*
X302412Y104796D01*
X302378Y104815D01*
X302347Y104840D01*
X302322Y104870D01*
X302304Y104905D01*
X302292Y104942D01*
X302288Y104982D01*
Y109505D01*
X300029D01*
X299989Y109509D01*
X299952Y109520D01*
X299917Y109539D01*
X299886Y109564D01*
X299862Y109594D01*
X299843Y109629D01*
X299832Y109667D01*
X299828Y109706D01*
Y121714D01*
X299832Y121753D01*
X299843Y121791D01*
X299862Y121826D01*
X299886Y121856D01*
X299917Y121881D01*
X299952Y121899D01*
X299989Y121911D01*
X300029Y121915D01*
X307627D01*
X307666Y121911D01*
D02*
G37*
D14*
X210800Y28300D02*
X212550Y29600D01*
X28300Y363522D02*
X37000Y372222D01*
Y423328D01*
X28300Y30200D02*
Y363522D01*
Y432028D02*
X37000Y423328D01*
X28300Y432028D02*
Y551522D01*
X29728Y552950D02*
X82000D01*
X210500Y31803D02*
Y157164D01*
X218106Y26300D02*
X657628D01*
X30200Y28300D02*
X210800D01*
X220200D02*
X656800D01*
X212550Y29600D02*
X218500D01*
X29372Y26300D02*
X215894D01*
X661500Y33000D02*
Y46271D01*
X663500Y32172D02*
Y39000D01*
X28899Y554950D02*
X82000D01*
X26300Y431200D02*
Y552351D01*
Y364351D02*
X35000Y373051D01*
Y422500D01*
X26300Y431200D02*
X35000Y422500D01*
X26300Y29372D02*
Y364351D01*
X212550Y29600D02*
Y159600D01*
X661536Y46308D02*
Y550464D01*
X663536Y39036D02*
Y551292D01*
X598500Y555000D02*
X659828D01*
X598500Y553000D02*
X659000D01*
X237435Y211435D02*
X309500D01*
X220000Y190836D02*
Y197551D01*
X236334Y213885D02*
X309500D01*
X218950Y189786D02*
X220000Y190836D01*
X222713Y196713D02*
X237435Y211435D01*
X222713Y189787D02*
Y196713D01*
X220000Y197551D02*
X236334Y213885D01*
D33*
X303999Y70748D02*
D03*
Y89252D02*
D03*
X268999Y70748D02*
D03*
Y89252D02*
D03*
X233999Y70748D02*
D03*
Y89252D02*
D03*
D39*
X576850Y285000D02*
D03*
X583150D02*
D03*
X548150Y135000D02*
D03*
X541850D02*
D03*
X481850Y285000D02*
D03*
X488150D02*
D03*
D41*
X550000Y475000D02*
D03*
Y468701D02*
D03*
D46*
X322504Y112559D02*
D03*
X329504D02*
D03*
X255004Y147441D02*
D03*
X262004D02*
D03*
D47*
X53700Y289950D02*
D03*
D48*
X53728Y289996D02*
D03*
D49*
X380000Y190000D02*
D03*
D50*
D03*
D51*
X354731Y299676D02*
D03*
D52*
X354366Y235736D02*
D03*
X354384Y312400D02*
D03*
D53*
X354715Y258331D02*
D03*
X324897Y259227D02*
D03*
D54*
X325006Y299685D02*
D03*
D55*
X51900Y304200D02*
D03*
Y275800D02*
D03*
D56*
X53721Y290000D02*
D03*
D57*
X380000Y190000D02*
D03*
D58*
X567500Y198543D02*
D03*
Y191457D02*
D03*
X472500Y198543D02*
D03*
Y191457D02*
D03*
D59*
X599012Y111100D02*
D03*
Y106100D02*
D03*
Y101100D02*
D03*
Y116100D02*
D03*
D60*
X577496D02*
D03*
Y111100D02*
D03*
Y106100D02*
D03*
Y101100D02*
D03*
D61*
X585783Y108600D02*
D03*
D62*
X50000Y140000D02*
D03*
Y133858D02*
D03*
X645037Y117897D02*
D03*
Y111755D02*
D03*
X639863Y111803D02*
D03*
Y117945D02*
D03*
X625163Y256803D02*
D03*
Y262945D02*
D03*
X620063Y256803D02*
D03*
Y262945D02*
D03*
X615063Y111803D02*
D03*
Y117945D02*
D03*
X614863Y256803D02*
D03*
Y262945D02*
D03*
X609863Y111803D02*
D03*
Y117945D02*
D03*
X585000Y475000D02*
D03*
Y468858D02*
D03*
X550063Y451803D02*
D03*
Y457945D02*
D03*
X530163Y256803D02*
D03*
Y262945D02*
D03*
X525063Y256803D02*
D03*
Y262945D02*
D03*
X394937Y103197D02*
D03*
Y97055D02*
D03*
X327500Y98858D02*
D03*
Y105000D02*
D03*
X322437Y104997D02*
D03*
Y98855D02*
D03*
X270000Y161142D02*
D03*
Y155000D02*
D03*
X264663Y155003D02*
D03*
Y161145D02*
D03*
X248563Y138503D02*
D03*
Y144645D02*
D03*
X243489Y144689D02*
D03*
Y138547D02*
D03*
X212563Y354303D02*
D03*
Y360445D02*
D03*
X540000Y113071D02*
D03*
Y106929D02*
D03*
X433000Y105571D02*
D03*
Y99429D02*
D03*
X60000Y278071D02*
D03*
Y271929D02*
D03*
X52500Y409429D02*
D03*
Y415571D02*
D03*
Y345571D02*
D03*
Y339429D02*
D03*
D63*
X325000Y299685D02*
D03*
Y301654D02*
D03*
Y303622D02*
D03*
Y305591D02*
D03*
Y307559D02*
D03*
Y309528D02*
D03*
X354724Y310512D02*
D03*
Y308543D02*
D03*
Y306575D02*
D03*
Y304606D02*
D03*
Y302638D02*
D03*
Y300669D02*
D03*
Y298701D02*
D03*
X325000Y297716D02*
D03*
X354724Y296732D02*
D03*
X325000Y295748D02*
D03*
X354724Y294764D02*
D03*
X325000Y293779D02*
D03*
X354724Y292795D02*
D03*
X325000Y291811D02*
D03*
X354724Y290827D02*
D03*
X325000Y289843D02*
D03*
X354724Y288858D02*
D03*
X325000Y280000D02*
D03*
X354724Y279016D02*
D03*
X325000Y278031D02*
D03*
X354724Y277047D02*
D03*
X325000Y276063D02*
D03*
X354724Y275079D02*
D03*
X325000Y274095D02*
D03*
X354724Y273110D02*
D03*
X325000Y272126D02*
D03*
X354724Y271142D02*
D03*
X325000Y270158D02*
D03*
X354724Y269173D02*
D03*
X325000Y268189D02*
D03*
X354724Y267205D02*
D03*
X325000Y266220D02*
D03*
X354724Y265236D02*
D03*
X325000Y264252D02*
D03*
X354724Y263268D02*
D03*
X325000Y262283D02*
D03*
X354724Y261299D02*
D03*
X325000Y260315D02*
D03*
X354724Y259331D02*
D03*
X325000Y258347D02*
D03*
X354724Y257362D02*
D03*
X325000Y256378D02*
D03*
X354724Y255394D02*
D03*
X325000Y254410D02*
D03*
X354724Y253425D02*
D03*
X325000Y252441D02*
D03*
X354724Y251457D02*
D03*
X325000Y250472D02*
D03*
X354724Y249488D02*
D03*
X325000Y248504D02*
D03*
X354724Y247520D02*
D03*
X325000Y246535D02*
D03*
X354724Y245551D02*
D03*
X325000Y244567D02*
D03*
X354724Y243583D02*
D03*
X325000Y242598D02*
D03*
X354724Y241614D02*
D03*
X325000Y240630D02*
D03*
X354724Y239646D02*
D03*
X325000Y238661D02*
D03*
X354724Y237677D02*
D03*
D64*
X351673Y314843D02*
D03*
Y233347D02*
D03*
D65*
X508386Y101161D02*
D03*
Y108839D02*
D03*
Y106280D02*
D03*
Y103720D02*
D03*
X531614Y108839D02*
D03*
Y106280D02*
D03*
Y103720D02*
D03*
Y101161D02*
D03*
X403386D02*
D03*
Y108839D02*
D03*
Y106280D02*
D03*
Y103720D02*
D03*
X426614Y108839D02*
D03*
Y106280D02*
D03*
Y103720D02*
D03*
Y101161D02*
D03*
D66*
X440256Y512500D02*
D03*
Y507500D02*
D03*
Y502500D02*
D03*
Y497500D02*
D03*
Y492500D02*
D03*
Y487500D02*
D03*
Y482500D02*
D03*
Y477500D02*
D03*
X459744D02*
D03*
Y482500D02*
D03*
Y487500D02*
D03*
Y492500D02*
D03*
Y497500D02*
D03*
Y502500D02*
D03*
Y507500D02*
D03*
Y512500D02*
D03*
X320256D02*
D03*
Y507500D02*
D03*
Y502500D02*
D03*
Y497500D02*
D03*
Y492500D02*
D03*
Y487500D02*
D03*
Y482500D02*
D03*
Y477500D02*
D03*
X339744D02*
D03*
Y482500D02*
D03*
Y487500D02*
D03*
Y492500D02*
D03*
Y497500D02*
D03*
Y502500D02*
D03*
Y507500D02*
D03*
Y512500D02*
D03*
X200256D02*
D03*
Y507500D02*
D03*
Y502500D02*
D03*
Y497500D02*
D03*
Y492500D02*
D03*
Y487500D02*
D03*
Y482500D02*
D03*
Y477500D02*
D03*
X219744D02*
D03*
Y482500D02*
D03*
Y487500D02*
D03*
Y492500D02*
D03*
Y497500D02*
D03*
Y502500D02*
D03*
Y507500D02*
D03*
Y512500D02*
D03*
X80256D02*
D03*
Y507500D02*
D03*
Y502500D02*
D03*
Y497500D02*
D03*
Y492500D02*
D03*
Y487500D02*
D03*
Y482500D02*
D03*
Y477500D02*
D03*
X99744D02*
D03*
Y482500D02*
D03*
Y487500D02*
D03*
Y492500D02*
D03*
Y497500D02*
D03*
Y502500D02*
D03*
Y507500D02*
D03*
Y512500D02*
D03*
D67*
X297922Y120336D02*
D03*
X309733D02*
D03*
Y107344D02*
D03*
X297922D02*
D03*
X262922Y120336D02*
D03*
X274733D02*
D03*
Y107344D02*
D03*
X262922D02*
D03*
X227922Y120336D02*
D03*
X239733D02*
D03*
Y107344D02*
D03*
X227922D02*
D03*
D68*
X323701Y366339D02*
D03*
X335512Y383661D02*
D03*
X323701D02*
D03*
X335512Y366339D02*
D03*
X253701D02*
D03*
X265512Y383661D02*
D03*
X253701D02*
D03*
X265512Y366339D02*
D03*
D69*
X619303Y269937D02*
D03*
X625445D02*
D03*
X616803Y249937D02*
D03*
X622945D02*
D03*
X598197Y285063D02*
D03*
X592055D02*
D03*
X591803Y494937D02*
D03*
X597945D02*
D03*
X591803Y484937D02*
D03*
X597945D02*
D03*
X556803Y134937D02*
D03*
X562945D02*
D03*
X562897Y140063D02*
D03*
X556755D02*
D03*
X526803Y134937D02*
D03*
X532945D02*
D03*
X521803Y249937D02*
D03*
X527945D02*
D03*
X524303Y269937D02*
D03*
X530445D02*
D03*
X500697Y107563D02*
D03*
X494555D02*
D03*
X503197Y285063D02*
D03*
X497055D02*
D03*
X478197Y485063D02*
D03*
X472055D02*
D03*
X478197Y495063D02*
D03*
X472055D02*
D03*
X378197Y180063D02*
D03*
X372055D02*
D03*
X371803Y199837D02*
D03*
X377945D02*
D03*
X371803Y204937D02*
D03*
X377945D02*
D03*
X371803Y210137D02*
D03*
X377945D02*
D03*
X358197Y485063D02*
D03*
X352055D02*
D03*
X358197Y495063D02*
D03*
X352055D02*
D03*
X343197Y390063D02*
D03*
X337055D02*
D03*
X307697Y130063D02*
D03*
X301555D02*
D03*
X273197Y390063D02*
D03*
X267055D02*
D03*
X272697Y130063D02*
D03*
X266555D02*
D03*
X238197Y485063D02*
D03*
X232055D02*
D03*
X238197Y495063D02*
D03*
X232055D02*
D03*
X237697Y130063D02*
D03*
X231555D02*
D03*
X118197Y485063D02*
D03*
X112055D02*
D03*
X118197Y495063D02*
D03*
X112055D02*
D03*
X88197Y285063D02*
D03*
X82055D02*
D03*
X88197Y291563D02*
D03*
X82055D02*
D03*
X563071Y255000D02*
D03*
X556929D02*
D03*
X468071D02*
D03*
X461929D02*
D03*
X333071Y360000D02*
D03*
X326929D02*
D03*
X296571Y130000D02*
D03*
X290429D02*
D03*
X263071Y360000D02*
D03*
X256929D02*
D03*
X261571Y130000D02*
D03*
X255429D02*
D03*
X226571D02*
D03*
X220429D02*
D03*
D70*
X550000Y120472D02*
D03*
Y99528D02*
D03*
X445000Y92028D02*
D03*
Y112972D02*
D03*
D71*
X573740Y474724D02*
D03*
X566260D02*
D03*
X570000Y465276D02*
D03*
D72*
X322500Y115118D02*
D03*
Y112559D02*
D03*
Y110000D02*
D03*
X329508D02*
D03*
Y112559D02*
D03*
Y115118D02*
D03*
X255000Y150000D02*
D03*
Y147441D02*
D03*
Y144882D02*
D03*
X262008D02*
D03*
Y147441D02*
D03*
Y150000D02*
D03*
D73*
X45000Y401063D02*
D03*
Y405000D02*
D03*
Y408937D02*
D03*
Y412874D02*
D03*
D74*
X29744Y417992D02*
D03*
Y395945D02*
D03*
D75*
X53720Y296890D02*
D03*
Y294921D02*
D03*
Y292953D02*
D03*
Y283110D02*
D03*
Y285079D02*
D03*
Y287047D02*
D03*
Y290984D02*
D03*
Y289016D02*
D03*
D76*
Y280551D02*
D03*
Y299449D02*
D03*
Y277402D02*
D03*
Y302598D02*
D03*
D77*
X623937Y96260D02*
D03*
Y103740D02*
D03*
X616063Y100000D02*
D03*
D78*
X560000Y278465D02*
D03*
Y261535D02*
D03*
X465000Y278465D02*
D03*
Y261535D02*
D03*
D79*
X382165Y187047D02*
D03*
X377835D02*
D03*
X382165Y192953D02*
D03*
X377835D02*
D03*
D80*
X288999Y109370D02*
D03*
Y120630D02*
D03*
X253999Y109370D02*
D03*
Y120630D02*
D03*
X218999Y109370D02*
D03*
Y120630D02*
D03*
D81*
X456457Y435000D02*
D03*
X463543D02*
D03*
X443543D02*
D03*
X436457D02*
D03*
X336457D02*
D03*
X343543D02*
D03*
X323543D02*
D03*
X316457D02*
D03*
X216457D02*
D03*
X223543D02*
D03*
X203543D02*
D03*
X196457D02*
D03*
X96457D02*
D03*
X103543D02*
D03*
X83543D02*
D03*
X76457D02*
D03*
D82*
X359500Y215000D02*
D03*
Y205000D02*
D03*
Y195000D02*
D03*
D83*
X55551Y213307D02*
D03*
X63425D02*
D03*
X71299D02*
D03*
X79173D02*
D03*
X87047D02*
D03*
X94921D02*
D03*
X102795D02*
D03*
X110669D02*
D03*
X118543D02*
D03*
X126417D02*
D03*
Y126693D02*
D03*
X118543D02*
D03*
X110669D02*
D03*
X102795D02*
D03*
X94921D02*
D03*
X87047D02*
D03*
X79173D02*
D03*
X71299D02*
D03*
X63425D02*
D03*
D84*
X55551D02*
D03*
D85*
X176476Y274095D02*
D03*
D86*
X333957Y313465D02*
D03*
D87*
Y234724D02*
D03*
D88*
X464252Y447126D02*
D03*
X454252D02*
D03*
X444252D02*
D03*
X434252D02*
D03*
X344252D02*
D03*
X334252D02*
D03*
X324252D02*
D03*
X314252D02*
D03*
X224252D02*
D03*
X214252D02*
D03*
X204252D02*
D03*
X194252D02*
D03*
X104252D02*
D03*
X94252D02*
D03*
X84252D02*
D03*
X74252D02*
D03*
D89*
X380000Y305000D02*
D03*
X500000Y385000D02*
D03*
Y375000D02*
D03*
Y365000D02*
D03*
Y355000D02*
D03*
Y345000D02*
D03*
Y335000D02*
D03*
Y325000D02*
D03*
X380000Y365000D02*
D03*
Y355000D02*
D03*
Y345000D02*
D03*
Y335000D02*
D03*
Y325000D02*
D03*
Y315000D02*
D03*
Y375000D02*
D03*
D90*
X580000Y160000D02*
D03*
X485000D02*
D03*
D91*
X580000Y170000D02*
D03*
Y180000D02*
D03*
Y190000D02*
D03*
Y200000D02*
D03*
Y210000D02*
D03*
Y220000D02*
D03*
Y230000D02*
D03*
Y240000D02*
D03*
Y250000D02*
D03*
Y260000D02*
D03*
Y270000D02*
D03*
X485000Y170000D02*
D03*
Y180000D02*
D03*
Y190000D02*
D03*
Y200000D02*
D03*
Y210000D02*
D03*
Y220000D02*
D03*
Y230000D02*
D03*
Y240000D02*
D03*
Y250000D02*
D03*
Y260000D02*
D03*
Y270000D02*
D03*
D92*
X630000Y140402D02*
D03*
D93*
Y132500D02*
D03*
X190000Y397500D02*
D03*
X190402Y355000D02*
D03*
D94*
X620000Y460000D02*
D03*
X630000D02*
D03*
X620000Y530000D02*
D03*
X630000D02*
D03*
X518347Y35157D02*
D03*
X561654D02*
D03*
X500000Y460000D02*
D03*
X510000D02*
D03*
X500000Y530000D02*
D03*
X510000D02*
D03*
X413346Y35157D02*
D03*
X456653D02*
D03*
X380000Y460000D02*
D03*
X390000D02*
D03*
X380000Y530000D02*
D03*
X390000D02*
D03*
X260000Y460000D02*
D03*
X270000D02*
D03*
X260000Y530000D02*
D03*
X270000D02*
D03*
X140000Y460000D02*
D03*
X150000D02*
D03*
X140000Y530000D02*
D03*
X150000D02*
D03*
D95*
X640000Y460000D02*
D03*
Y530000D02*
D03*
X520000Y460000D02*
D03*
Y530000D02*
D03*
X400000Y460000D02*
D03*
Y530000D02*
D03*
X280000Y460000D02*
D03*
Y530000D02*
D03*
X160000Y460000D02*
D03*
Y530000D02*
D03*
D96*
X610000Y375000D02*
D03*
X620000D02*
D03*
X610000Y365000D02*
D03*
X620000D02*
D03*
X610000Y355000D02*
D03*
X620000D02*
D03*
X610000Y345000D02*
D03*
X620000D02*
D03*
X610000Y335000D02*
D03*
X620000D02*
D03*
X610000Y325000D02*
D03*
X540000Y315000D02*
D03*
X550000Y325000D02*
D03*
X540000D02*
D03*
X550000Y335000D02*
D03*
X540000D02*
D03*
X550000Y345000D02*
D03*
X540000D02*
D03*
X550000Y355000D02*
D03*
X540000D02*
D03*
X550000Y365000D02*
D03*
X540000D02*
D03*
X550000Y375000D02*
D03*
X540000D02*
D03*
X550000Y385000D02*
D03*
X540000D02*
D03*
X550000Y395000D02*
D03*
X540000D02*
D03*
X550000Y405000D02*
D03*
X540000D02*
D03*
X550000Y415000D02*
D03*
X540000D02*
D03*
X550000Y425000D02*
D03*
X540000D02*
D03*
X550000Y435000D02*
D03*
X540000D02*
D03*
D97*
X620000Y325000D02*
D03*
X550000Y315000D02*
D03*
D98*
X549843Y74528D02*
D03*
X444842D02*
D03*
D99*
X530158D02*
D03*
X425157D02*
D03*
X428189Y243504D02*
D03*
Y173425D02*
D03*
Y351575D02*
D03*
Y281496D02*
D03*
D100*
X430000Y225000D02*
D03*
X408347D02*
D03*
X430000Y208465D02*
D03*
Y191929D02*
D03*
Y333071D02*
D03*
X408347D02*
D03*
X430000Y316535D02*
D03*
Y300000D02*
D03*
D101*
X408347Y208465D02*
D03*
Y316535D02*
D03*
D102*
Y191929D02*
D03*
Y300000D02*
D03*
D103*
X243999Y45000D02*
D03*
D104*
X268999D02*
D03*
X293999D02*
D03*
X318999D02*
D03*
D105*
X182098Y397500D02*
D03*
X182500Y355000D02*
D03*
D106*
X590138Y528917D02*
D03*
X569862D02*
D03*
X590138Y549193D02*
D03*
X569862D02*
D03*
X470138Y528917D02*
D03*
X449862D02*
D03*
X470138Y549193D02*
D03*
X449862D02*
D03*
X350138Y528917D02*
D03*
X329862D02*
D03*
X350138Y549193D02*
D03*
X329862D02*
D03*
X230138Y528917D02*
D03*
X209862D02*
D03*
X230138Y549193D02*
D03*
X209862D02*
D03*
X110138Y528917D02*
D03*
X89862D02*
D03*
X110138Y549193D02*
D03*
X89862D02*
D03*
D107*
X580000Y539055D02*
D03*
X460000D02*
D03*
X340000D02*
D03*
X220000D02*
D03*
X100000D02*
D03*
D108*
X49488Y301378D02*
D03*
Y278622D02*
D03*
D109*
X51457Y272992D02*
D03*
Y307008D02*
D03*
D110*
X35000Y272992D02*
D03*
Y307008D02*
D03*
D111*
X640551Y291220D02*
D03*
X640551Y55000D02*
D03*
X50000D02*
D03*
Y527441D02*
D03*
D112*
X240000Y200000D02*
D03*
X640000Y400000D02*
D03*
X650000Y380000D02*
D03*
X640000Y360000D02*
D03*
X650000Y340000D02*
D03*
X640000Y320000D02*
D03*
Y240000D02*
D03*
X650000Y220000D02*
D03*
X640000Y200000D02*
D03*
X650000Y180000D02*
D03*
X640000Y160000D02*
D03*
X650000Y140000D02*
D03*
Y100000D02*
D03*
X640000Y80000D02*
D03*
X620000Y400000D02*
D03*
X630000Y380000D02*
D03*
Y340000D02*
D03*
X620000Y240000D02*
D03*
X630000Y220000D02*
D03*
X620000Y200000D02*
D03*
X630000Y180000D02*
D03*
X620000Y160000D02*
D03*
Y80000D02*
D03*
Y40000D02*
D03*
X600000Y400000D02*
D03*
Y160000D02*
D03*
X610000Y140000D02*
D03*
X600000Y80000D02*
D03*
X610000Y60000D02*
D03*
X600000Y40000D02*
D03*
X580000Y400000D02*
D03*
X590000Y380000D02*
D03*
X580000Y360000D02*
D03*
X590000Y300000D02*
D03*
Y220000D02*
D03*
Y60000D02*
D03*
X580000Y40000D02*
D03*
X570000Y380000D02*
D03*
Y340000D02*
D03*
Y300000D02*
D03*
Y220000D02*
D03*
Y60000D02*
D03*
X540000Y520000D02*
D03*
Y280000D02*
D03*
X550000Y260000D02*
D03*
X540000Y240000D02*
D03*
X550000Y220000D02*
D03*
X540000Y200000D02*
D03*
X550000Y180000D02*
D03*
Y60000D02*
D03*
X540000Y40000D02*
D03*
X520000Y360000D02*
D03*
Y240000D02*
D03*
X530000Y220000D02*
D03*
X520000Y200000D02*
D03*
X530000Y180000D02*
D03*
X510000Y380000D02*
D03*
Y220000D02*
D03*
X500000Y200000D02*
D03*
X510000Y60000D02*
D03*
X500000Y40000D02*
D03*
X490000Y380000D02*
D03*
X480000Y360000D02*
D03*
Y40000D02*
D03*
X470000Y380000D02*
D03*
X460000Y240000D02*
D03*
X470000Y220000D02*
D03*
X460000Y120000D02*
D03*
Y80000D02*
D03*
X450000Y380000D02*
D03*
X430000Y540000D02*
D03*
X420000Y520000D02*
D03*
X400000Y400000D02*
D03*
Y160000D02*
D03*
Y80000D02*
D03*
X380000Y400000D02*
D03*
Y240000D02*
D03*
X390000Y180000D02*
D03*
X380000Y160000D02*
D03*
Y80000D02*
D03*
X390000Y60000D02*
D03*
X380000Y40000D02*
D03*
X360000Y400000D02*
D03*
X370000Y380000D02*
D03*
X360000Y360000D02*
D03*
X370000Y340000D02*
D03*
Y100000D02*
D03*
X360000Y80000D02*
D03*
X370000Y60000D02*
D03*
X360000Y40000D02*
D03*
X350000Y380000D02*
D03*
Y340000D02*
D03*
X340000Y200000D02*
D03*
X350000Y180000D02*
D03*
X340000Y160000D02*
D03*
X350000Y140000D02*
D03*
Y60000D02*
D03*
X340000Y40000D02*
D03*
X320000Y400000D02*
D03*
Y360000D02*
D03*
X330000Y340000D02*
D03*
Y220000D02*
D03*
X310000Y540000D02*
D03*
X300000Y520000D02*
D03*
X310000Y380000D02*
D03*
Y340000D02*
D03*
X300000Y240000D02*
D03*
X310000Y220000D02*
D03*
Y180000D02*
D03*
X300000Y160000D02*
D03*
X310000Y140000D02*
D03*
X290000Y380000D02*
D03*
X280000Y360000D02*
D03*
X290000Y340000D02*
D03*
X280000Y320000D02*
D03*
Y240000D02*
D03*
X290000Y220000D02*
D03*
X280000Y200000D02*
D03*
X290000Y180000D02*
D03*
X280000Y160000D02*
D03*
X260000Y400000D02*
D03*
Y320000D02*
D03*
Y240000D02*
D03*
X270000Y220000D02*
D03*
X260000Y200000D02*
D03*
X270000Y180000D02*
D03*
X240000Y400000D02*
D03*
Y360000D02*
D03*
X250000Y340000D02*
D03*
X240000Y320000D02*
D03*
Y240000D02*
D03*
X250000Y220000D02*
D03*
Y180000D02*
D03*
X220000Y400000D02*
D03*
X230000Y380000D02*
D03*
X220000Y360000D02*
D03*
Y320000D02*
D03*
Y240000D02*
D03*
X230000Y180000D02*
D03*
Y140000D02*
D03*
X210000Y340000D02*
D03*
X200000Y320000D02*
D03*
Y240000D02*
D03*
X210000Y220000D02*
D03*
X200000Y200000D02*
D03*
Y160000D02*
D03*
Y120000D02*
D03*
Y80000D02*
D03*
Y40000D02*
D03*
X190000Y540000D02*
D03*
X180000Y520000D02*
D03*
X190000Y380000D02*
D03*
X180000Y320000D02*
D03*
X190000Y220000D02*
D03*
X180000Y200000D02*
D03*
X190000Y180000D02*
D03*
X180000Y160000D02*
D03*
X190000Y140000D02*
D03*
X180000Y120000D02*
D03*
X190000Y100000D02*
D03*
X180000Y80000D02*
D03*
X190000Y60000D02*
D03*
X180000Y40000D02*
D03*
X160000Y400000D02*
D03*
X170000Y380000D02*
D03*
X160000Y360000D02*
D03*
X170000Y340000D02*
D03*
X160000Y320000D02*
D03*
Y280000D02*
D03*
Y240000D02*
D03*
Y200000D02*
D03*
X170000Y180000D02*
D03*
X160000Y160000D02*
D03*
X170000Y140000D02*
D03*
X160000Y120000D02*
D03*
X170000Y100000D02*
D03*
X160000Y80000D02*
D03*
X170000Y60000D02*
D03*
X160000Y40000D02*
D03*
X140000Y400000D02*
D03*
X150000Y380000D02*
D03*
X140000Y360000D02*
D03*
X150000Y340000D02*
D03*
X140000Y320000D02*
D03*
Y280000D02*
D03*
Y240000D02*
D03*
X150000Y220000D02*
D03*
Y180000D02*
D03*
X140000Y160000D02*
D03*
X150000Y140000D02*
D03*
X140000Y120000D02*
D03*
X150000Y100000D02*
D03*
X140000Y80000D02*
D03*
X150000Y60000D02*
D03*
X140000Y40000D02*
D03*
X120000Y400000D02*
D03*
X130000Y380000D02*
D03*
X120000Y360000D02*
D03*
X130000Y340000D02*
D03*
X120000Y320000D02*
D03*
Y240000D02*
D03*
X130000Y220000D02*
D03*
X120000Y200000D02*
D03*
Y160000D02*
D03*
X130000Y140000D02*
D03*
Y100000D02*
D03*
X120000Y80000D02*
D03*
X130000Y60000D02*
D03*
X120000Y40000D02*
D03*
X100000Y400000D02*
D03*
X110000Y380000D02*
D03*
X100000Y360000D02*
D03*
X110000Y340000D02*
D03*
X100000Y320000D02*
D03*
X110000Y260000D02*
D03*
X100000Y240000D02*
D03*
Y200000D02*
D03*
X110000Y180000D02*
D03*
Y140000D02*
D03*
X100000Y120000D02*
D03*
X110000Y100000D02*
D03*
X100000Y80000D02*
D03*
X110000Y60000D02*
D03*
X100000Y40000D02*
D03*
X80000Y400000D02*
D03*
X90000Y380000D02*
D03*
Y260000D02*
D03*
X80000Y240000D02*
D03*
X90000Y220000D02*
D03*
X80000Y200000D02*
D03*
X90000Y180000D02*
D03*
X80000Y160000D02*
D03*
X90000Y100000D02*
D03*
X80000Y80000D02*
D03*
X90000Y60000D02*
D03*
X80000Y40000D02*
D03*
X70000Y380000D02*
D03*
X60000Y360000D02*
D03*
X70000Y260000D02*
D03*
X60000Y240000D02*
D03*
Y200000D02*
D03*
X70000Y180000D02*
D03*
Y140000D02*
D03*
Y100000D02*
D03*
X60000Y80000D02*
D03*
X50000Y500000D02*
D03*
X40000Y480000D02*
D03*
X50000Y460000D02*
D03*
Y380000D02*
D03*
X40000Y320000D02*
D03*
Y280000D02*
D03*
X50000Y260000D02*
D03*
X40000Y240000D02*
D03*
X50000Y220000D02*
D03*
X40000Y200000D02*
D03*
X50000Y180000D02*
D03*
X40000Y160000D02*
D03*
Y120000D02*
D03*
X50000Y100000D02*
D03*
X40000Y80000D02*
D03*
M02*
