G04*
G04 #@! TF.GenerationSoftware,Altium Limited,Altium Designer,22.10.1 (41)*
G04*
G04 Layer_Color=65535*
%FSLAX25Y25*%
%MOIN*%
G70*
G04*
G04 #@! TF.SameCoordinates,F9F3A06B-563E-4FCB-9898-75D578650021*
G04*
G04*
G04 #@! TF.FilePolarity,Positive*
G04*
G01*
G75*
%ADD10C,0.00787*%
%ADD11C,0.00984*%
%ADD12C,0.02362*%
%ADD13C,0.02000*%
%ADD14C,0.01000*%
%ADD15C,0.01500*%
%ADD16C,0.00600*%
%ADD17C,0.00500*%
G36*
X29903Y389006D02*
X29997D01*
Y388983D01*
X30044D01*
Y388960D01*
X30091D01*
Y388936D01*
X30138D01*
Y388913D01*
X30185D01*
Y388889D01*
X30209D01*
Y388865D01*
X30232D01*
Y388842D01*
X30255D01*
Y388819D01*
X30279D01*
Y388795D01*
X30303D01*
Y388772D01*
X30326D01*
Y388748D01*
X30349D01*
Y388701D01*
X30373D01*
Y388678D01*
X30397D01*
Y388631D01*
X30420D01*
Y388583D01*
X30444D01*
Y388513D01*
X30467D01*
Y388442D01*
X30490D01*
Y388325D01*
X30514D01*
Y387949D01*
X30490D01*
Y387831D01*
X30467D01*
Y387761D01*
X30444D01*
Y387690D01*
X30420D01*
Y387644D01*
X30397D01*
Y387597D01*
X30373D01*
Y387549D01*
X30349D01*
Y387526D01*
X30326D01*
Y387503D01*
X30303D01*
Y387479D01*
X30279D01*
Y387432D01*
X30255D01*
Y387408D01*
X30209D01*
Y387385D01*
X30185D01*
Y387362D01*
X30161D01*
Y387338D01*
X30114D01*
Y387315D01*
X30068D01*
Y387291D01*
X30020D01*
Y387267D01*
X29950D01*
Y387244D01*
X29809D01*
Y387221D01*
X29668D01*
Y387244D01*
X29527D01*
Y387267D01*
X29456D01*
Y387291D01*
X29410D01*
Y387315D01*
X29362D01*
Y387338D01*
X29316D01*
Y387362D01*
X29292D01*
Y387385D01*
X29269D01*
Y387408D01*
X29245D01*
Y387432D01*
X29198D01*
Y387479D01*
X29175D01*
Y387503D01*
X29151D01*
Y387526D01*
X29127D01*
Y387549D01*
X29104D01*
Y387597D01*
X29081D01*
Y387644D01*
X29057D01*
Y387690D01*
X29033D01*
Y387737D01*
X29010D01*
Y387831D01*
X28986D01*
Y387926D01*
X28963D01*
Y388325D01*
X28986D01*
Y388442D01*
X29010D01*
Y388513D01*
X29033D01*
Y388583D01*
X29057D01*
Y388631D01*
X29081D01*
Y388678D01*
X29104D01*
Y388701D01*
X29127D01*
Y388748D01*
X29151D01*
Y388772D01*
X29175D01*
Y388795D01*
X29198D01*
Y388819D01*
X29221D01*
Y388842D01*
X29245D01*
Y388865D01*
X29269D01*
Y388889D01*
X29292D01*
Y388913D01*
X29339D01*
Y388936D01*
X29386D01*
Y388960D01*
X29433D01*
Y388983D01*
X29480D01*
Y389006D01*
X29574D01*
Y389030D01*
X29903D01*
Y389006D01*
D02*
G37*
G36*
X45719Y386233D02*
X45812D01*
Y386210D01*
X45860D01*
Y386187D01*
X45906D01*
Y386163D01*
X45954D01*
Y386139D01*
X45977D01*
Y386116D01*
X46000D01*
Y386092D01*
X46024D01*
Y386069D01*
X46047D01*
Y386046D01*
X46071D01*
Y386022D01*
X46095D01*
Y385999D01*
X46118D01*
Y385951D01*
X46141D01*
Y385905D01*
X46165D01*
Y385858D01*
X46189D01*
Y385740D01*
X46212D01*
Y385576D01*
X46189D01*
Y385482D01*
X46165D01*
Y385411D01*
X46141D01*
Y385364D01*
X46118D01*
Y385340D01*
X46095D01*
Y385294D01*
X46071D01*
Y385270D01*
X46047D01*
Y385246D01*
X46024D01*
Y385223D01*
X46000D01*
Y385199D01*
X45977D01*
Y385176D01*
X45954D01*
Y385153D01*
X45906D01*
Y385129D01*
X45860D01*
Y385105D01*
X45812D01*
Y385082D01*
X45695D01*
Y385058D01*
X45507D01*
Y385082D01*
X45413D01*
Y385105D01*
X45366D01*
Y385129D01*
X45319D01*
Y385153D01*
X45272D01*
Y385176D01*
X45248D01*
Y385199D01*
X45225D01*
Y385223D01*
X45202D01*
Y385246D01*
X45178D01*
Y385270D01*
X45155D01*
Y385294D01*
X45131D01*
Y385317D01*
X45107D01*
Y385364D01*
X45084D01*
Y385411D01*
X45061D01*
Y385482D01*
X45037D01*
Y385576D01*
X45013D01*
Y385740D01*
X45037D01*
Y385834D01*
X45061D01*
Y385905D01*
X45084D01*
Y385951D01*
X45107D01*
Y385999D01*
X45131D01*
Y386022D01*
X45155D01*
Y386046D01*
X45178D01*
Y386069D01*
X45202D01*
Y386092D01*
X45225D01*
Y386116D01*
X45248D01*
Y386139D01*
X45272D01*
Y386163D01*
X45319D01*
Y386187D01*
X45366D01*
Y386210D01*
X45413D01*
Y386233D01*
X45507D01*
Y386257D01*
X45719D01*
Y386233D01*
D02*
G37*
G36*
X42969Y391286D02*
X43134D01*
Y391263D01*
X43251D01*
Y391239D01*
X43369D01*
Y391215D01*
X43439D01*
Y391192D01*
X43533D01*
Y391168D01*
X43604D01*
Y391145D01*
X43674D01*
Y391122D01*
X43745D01*
Y391098D01*
X43791D01*
Y391074D01*
X43862D01*
Y391051D01*
X43909D01*
Y391027D01*
X43956D01*
Y391004D01*
X44003D01*
Y390981D01*
X44050D01*
Y390957D01*
X44097D01*
Y390933D01*
X44144D01*
Y390910D01*
X44191D01*
Y390886D01*
X44214D01*
Y390863D01*
X44262D01*
Y390840D01*
X44285D01*
Y390816D01*
X44332D01*
Y390792D01*
X44379D01*
Y390769D01*
X44403D01*
Y390745D01*
X44426D01*
Y390722D01*
X44473D01*
Y390699D01*
X44497D01*
Y390675D01*
X44520D01*
Y390651D01*
X44567D01*
Y390628D01*
X44590D01*
Y390604D01*
X44614D01*
Y390581D01*
X44638D01*
Y390558D01*
X44661D01*
Y390534D01*
X44708D01*
Y390511D01*
X44732D01*
Y390487D01*
X44755D01*
Y390463D01*
X44778D01*
Y390440D01*
X44802D01*
Y390417D01*
X44826D01*
Y390393D01*
X44849D01*
Y390370D01*
X44872D01*
Y390346D01*
X44896D01*
Y390322D01*
X44919D01*
Y390299D01*
X44943D01*
Y390276D01*
X44967D01*
Y390229D01*
X44990D01*
Y390205D01*
X45013D01*
Y390181D01*
X45037D01*
Y390158D01*
X45061D01*
Y390135D01*
X45084D01*
Y390088D01*
X45107D01*
Y390064D01*
X45131D01*
Y390040D01*
X45155D01*
Y389994D01*
X45178D01*
Y389970D01*
X45202D01*
Y389923D01*
X45225D01*
Y389899D01*
X45248D01*
Y389852D01*
X45272D01*
Y389829D01*
X45296D01*
Y389782D01*
X45319D01*
Y389735D01*
X45342D01*
Y389711D01*
X45366D01*
Y389665D01*
X45390D01*
Y389617D01*
X45413D01*
Y389570D01*
X45436D01*
Y389524D01*
X45460D01*
Y389476D01*
X45483D01*
Y389429D01*
X45507D01*
Y389359D01*
X45531D01*
Y389312D01*
X45554D01*
Y389242D01*
X45577D01*
Y389171D01*
X45601D01*
Y389101D01*
X45625D01*
Y389006D01*
X45648D01*
Y388936D01*
X45671D01*
Y388819D01*
X45695D01*
Y388701D01*
X45719D01*
Y388513D01*
X45742D01*
Y387831D01*
X45719D01*
Y387667D01*
X45695D01*
Y387549D01*
X45671D01*
Y387432D01*
X45648D01*
Y387338D01*
X45625D01*
Y387267D01*
X45601D01*
Y387197D01*
X45577D01*
Y387126D01*
X45554D01*
Y387056D01*
X45531D01*
Y387009D01*
X45507D01*
Y386939D01*
X45483D01*
Y386892D01*
X45460D01*
Y386844D01*
X45436D01*
Y386797D01*
X45413D01*
Y386751D01*
X45390D01*
Y386703D01*
X45366D01*
Y386656D01*
X45342D01*
Y386610D01*
X45319D01*
Y386586D01*
X45296D01*
Y386539D01*
X45272D01*
Y386492D01*
X45248D01*
Y386469D01*
X45225D01*
Y386421D01*
X45202D01*
Y386398D01*
X45178D01*
Y386351D01*
X45155D01*
Y386328D01*
X45131D01*
Y386304D01*
X45107D01*
Y386257D01*
X45084D01*
Y386233D01*
X45061D01*
Y386210D01*
X45037D01*
Y386187D01*
X45013D01*
Y386139D01*
X44990D01*
Y386116D01*
X44967D01*
Y386092D01*
X44943D01*
Y386069D01*
X44919D01*
Y386046D01*
X44896D01*
Y386022D01*
X44872D01*
Y385999D01*
X44849D01*
Y385975D01*
X44826D01*
Y385951D01*
X44802D01*
Y385928D01*
X44778D01*
Y385905D01*
X44755D01*
Y385881D01*
X44732D01*
Y385858D01*
X44708D01*
Y385834D01*
X44684D01*
Y385810D01*
X44661D01*
Y385787D01*
X44614D01*
Y385764D01*
X44590D01*
Y385740D01*
X44567D01*
Y385717D01*
X44543D01*
Y385693D01*
X44497D01*
Y385669D01*
X44473D01*
Y385646D01*
X44449D01*
Y385623D01*
X44403D01*
Y385599D01*
X44379D01*
Y385576D01*
X44332D01*
Y385552D01*
X44309D01*
Y385528D01*
X44262D01*
Y385505D01*
X44238D01*
Y385482D01*
X44191D01*
Y385458D01*
X44144D01*
Y385435D01*
X44097D01*
Y385411D01*
X44074D01*
Y385387D01*
X44026D01*
Y385364D01*
X43979D01*
Y385340D01*
X43909D01*
Y385317D01*
X43862D01*
Y385294D01*
X43815D01*
Y385270D01*
X43745D01*
Y385246D01*
X43698D01*
Y385223D01*
X43627D01*
Y385199D01*
X43556D01*
Y385176D01*
X43486D01*
Y385153D01*
X43392D01*
Y385129D01*
X43298D01*
Y385105D01*
X43181D01*
Y385082D01*
X43016D01*
Y385058D01*
X42711D01*
Y385035D01*
X31712D01*
Y389947D01*
X30514D01*
Y389500D01*
X30490D01*
Y389524D01*
X30467D01*
Y389547D01*
X30444D01*
Y389570D01*
X30420D01*
Y389594D01*
X30397D01*
Y389617D01*
X30373D01*
Y389641D01*
X30349D01*
Y389665D01*
X30326D01*
Y389688D01*
X30303D01*
Y389711D01*
X30279D01*
Y389735D01*
X30232D01*
Y389758D01*
X30209D01*
Y389782D01*
X30161D01*
Y389806D01*
X30138D01*
Y389829D01*
X30091D01*
Y389852D01*
X30044D01*
Y389876D01*
X29997D01*
Y389899D01*
X29926D01*
Y389923D01*
X29856D01*
Y389947D01*
X29762D01*
Y389970D01*
X29645D01*
Y389994D01*
X29175D01*
Y389970D01*
X29033D01*
Y389947D01*
X28940D01*
Y389923D01*
X28869D01*
Y389899D01*
X28798D01*
Y389876D01*
X28752D01*
Y389852D01*
X28681D01*
Y389829D01*
X28634D01*
Y389806D01*
X28587D01*
Y389782D01*
X28563D01*
Y389758D01*
X28517D01*
Y389735D01*
X28493D01*
Y389711D01*
X28446D01*
Y389688D01*
X28422D01*
Y389665D01*
X28399D01*
Y389641D01*
X28352D01*
Y389617D01*
X28328D01*
Y389594D01*
X28305D01*
Y389570D01*
X28282D01*
Y389547D01*
X28258D01*
Y389524D01*
X28234D01*
Y389500D01*
X28211D01*
Y389476D01*
X28188D01*
Y389453D01*
X28164D01*
Y389406D01*
X28141D01*
Y389383D01*
X28117D01*
Y389359D01*
X28093D01*
Y389312D01*
X28070D01*
Y389288D01*
X28047D01*
Y389242D01*
X28023D01*
Y389194D01*
X27999D01*
Y389171D01*
X27976D01*
Y389124D01*
X27953D01*
Y389054D01*
X27929D01*
Y389006D01*
X27905D01*
Y388936D01*
X27882D01*
Y388865D01*
X27858D01*
Y388795D01*
X27835D01*
Y388701D01*
X27812D01*
Y388583D01*
X27788D01*
Y388419D01*
X27764D01*
Y387902D01*
X27788D01*
Y387737D01*
X27812D01*
Y387620D01*
X27835D01*
Y387526D01*
X27858D01*
Y387456D01*
X27882D01*
Y387385D01*
X27905D01*
Y387315D01*
X27929D01*
Y387267D01*
X27953D01*
Y387197D01*
X27976D01*
Y387150D01*
X27999D01*
Y387103D01*
X28023D01*
Y387080D01*
X28047D01*
Y387033D01*
X28070D01*
Y386985D01*
X28093D01*
Y386962D01*
X28117D01*
Y386939D01*
X28141D01*
Y386892D01*
X28164D01*
Y386868D01*
X28188D01*
Y386844D01*
X28211D01*
Y386821D01*
X28234D01*
Y386797D01*
X28258D01*
Y386751D01*
X28305D01*
Y386727D01*
X28328D01*
Y386703D01*
X28352D01*
Y386680D01*
X28376D01*
Y386656D01*
X28399D01*
Y386633D01*
X28422D01*
Y386610D01*
X28469D01*
Y386586D01*
X28493D01*
Y386562D01*
X28517D01*
Y386539D01*
X28563D01*
Y386515D01*
X28611D01*
Y386492D01*
X28657D01*
Y386469D01*
X28705D01*
Y386445D01*
X28752D01*
Y386421D01*
X28798D01*
Y386398D01*
X28869D01*
Y386374D01*
X28940D01*
Y386351D01*
X29033D01*
Y386328D01*
X29151D01*
Y386304D01*
X29715D01*
Y386328D01*
X29809D01*
Y386351D01*
X29903D01*
Y386374D01*
X29974D01*
Y386398D01*
X30020D01*
Y386421D01*
X30068D01*
Y386445D01*
X30114D01*
Y386469D01*
X30161D01*
Y386492D01*
X30185D01*
Y386515D01*
X30232D01*
Y386539D01*
X30255D01*
Y386562D01*
X30303D01*
Y386586D01*
X30326D01*
Y386610D01*
X30349D01*
Y386633D01*
X30373D01*
Y386656D01*
X30397D01*
Y386680D01*
X30420D01*
Y386703D01*
X30444D01*
Y386727D01*
X30467D01*
Y386751D01*
X30490D01*
Y386797D01*
X30514D01*
Y385035D01*
X29433D01*
Y385058D01*
X29151D01*
Y385082D01*
X28986D01*
Y385105D01*
X28869D01*
Y385129D01*
X28775D01*
Y385153D01*
X28681D01*
Y385176D01*
X28611D01*
Y385199D01*
X28540D01*
Y385223D01*
X28469D01*
Y385246D01*
X28399D01*
Y385270D01*
X28352D01*
Y385294D01*
X28305D01*
Y385317D01*
X28234D01*
Y385340D01*
X28188D01*
Y385364D01*
X28141D01*
Y385387D01*
X28093D01*
Y385411D01*
X28047D01*
Y385435D01*
X28023D01*
Y385458D01*
X27976D01*
Y385482D01*
X27929D01*
Y385505D01*
X27882D01*
Y385528D01*
X27858D01*
Y385552D01*
X27812D01*
Y385576D01*
X27788D01*
Y385599D01*
X27741D01*
Y385623D01*
X27718D01*
Y385646D01*
X27694D01*
Y385669D01*
X27647D01*
Y385693D01*
X27624D01*
Y385717D01*
X27600D01*
Y385740D01*
X27553D01*
Y385764D01*
X27529D01*
Y385787D01*
X27506D01*
Y385810D01*
X27483D01*
Y385834D01*
X27459D01*
Y385858D01*
X27435D01*
Y385881D01*
X27412D01*
Y385905D01*
X27389D01*
Y385928D01*
X27365D01*
Y385951D01*
X27341D01*
Y385975D01*
X27318D01*
Y385999D01*
X27294D01*
Y386022D01*
X27271D01*
Y386046D01*
X27248D01*
Y386069D01*
X27224D01*
Y386092D01*
X27200D01*
Y386116D01*
X27177D01*
Y386139D01*
X27154D01*
Y386163D01*
X27130D01*
Y386187D01*
X27106D01*
Y386233D01*
X27083D01*
Y386257D01*
X27060D01*
Y386280D01*
X27036D01*
Y386328D01*
X27013D01*
Y386351D01*
X26989D01*
Y386374D01*
X26965D01*
Y386421D01*
X26942D01*
Y386445D01*
X26919D01*
Y386492D01*
X26895D01*
Y386515D01*
X26871D01*
Y386562D01*
X26848D01*
Y386610D01*
X26825D01*
Y386656D01*
X26801D01*
Y386680D01*
X26777D01*
Y386727D01*
X26754D01*
Y386774D01*
X26730D01*
Y386821D01*
X26707D01*
Y386868D01*
X26684D01*
Y386939D01*
X26660D01*
Y386985D01*
X26636D01*
Y387033D01*
X26613D01*
Y387103D01*
X26590D01*
Y387174D01*
X26566D01*
Y387244D01*
X26542D01*
Y387315D01*
X26519D01*
Y387408D01*
X26496D01*
Y387503D01*
X26472D01*
Y387620D01*
X26449D01*
Y387785D01*
X26425D01*
Y388113D01*
X26401D01*
Y388254D01*
X26425D01*
Y388583D01*
X26449D01*
Y388724D01*
X26472D01*
Y388842D01*
X26496D01*
Y388960D01*
X26519D01*
Y389030D01*
X26542D01*
Y389124D01*
X26566D01*
Y389194D01*
X26590D01*
Y389265D01*
X26613D01*
Y389312D01*
X26636D01*
Y389383D01*
X26660D01*
Y389429D01*
X26684D01*
Y389476D01*
X26707D01*
Y389524D01*
X26730D01*
Y389594D01*
X26754D01*
Y389617D01*
X26777D01*
Y389665D01*
X26801D01*
Y389711D01*
X26825D01*
Y389758D01*
X26848D01*
Y389806D01*
X26871D01*
Y389829D01*
X26895D01*
Y389876D01*
X26919D01*
Y389899D01*
X26942D01*
Y389947D01*
X26965D01*
Y389970D01*
X26989D01*
Y390017D01*
X27013D01*
Y390040D01*
X27036D01*
Y390064D01*
X27060D01*
Y390111D01*
X27083D01*
Y390135D01*
X27106D01*
Y390158D01*
X27130D01*
Y390181D01*
X27154D01*
Y390229D01*
X27177D01*
Y390252D01*
X27200D01*
Y390276D01*
X27224D01*
Y390299D01*
X27248D01*
Y390322D01*
X27271D01*
Y390346D01*
X27294D01*
Y390370D01*
X27318D01*
Y390393D01*
X27341D01*
Y390417D01*
X27365D01*
Y390440D01*
X27389D01*
Y390463D01*
X27412D01*
Y390487D01*
X27435D01*
Y390511D01*
X27459D01*
Y390534D01*
X27483D01*
Y390558D01*
X27506D01*
Y390581D01*
X27553D01*
Y390604D01*
X27577D01*
Y390628D01*
X27600D01*
Y390651D01*
X27624D01*
Y390675D01*
X27670D01*
Y390699D01*
X27694D01*
Y390722D01*
X27718D01*
Y390745D01*
X27764D01*
Y390769D01*
X27788D01*
Y390792D01*
X27835D01*
Y390816D01*
X27858D01*
Y390840D01*
X27905D01*
Y390863D01*
X27953D01*
Y390886D01*
X27976D01*
Y390910D01*
X28023D01*
Y390933D01*
X28070D01*
Y390957D01*
X28117D01*
Y390981D01*
X28164D01*
Y391004D01*
X28211D01*
Y391027D01*
X28258D01*
Y391051D01*
X28305D01*
Y391074D01*
X28376D01*
Y391098D01*
X28422D01*
Y391122D01*
X28493D01*
Y391145D01*
X28563D01*
Y391168D01*
X28634D01*
Y391192D01*
X28705D01*
Y391215D01*
X28798D01*
Y391239D01*
X28916D01*
Y391263D01*
X29033D01*
Y391286D01*
X29198D01*
Y391309D01*
X42969D01*
Y391286D01*
D02*
G37*
G36*
X72090Y178798D02*
X72672D01*
Y178652D01*
X72817D01*
Y178361D01*
X72962D01*
Y178071D01*
X73108D01*
Y177635D01*
X73253D01*
Y177344D01*
X73108D01*
Y176908D01*
X72962D01*
Y176617D01*
X72817D01*
Y176326D01*
X72672D01*
Y176181D01*
X72381D01*
Y176035D01*
X72090D01*
Y175890D01*
X71654D01*
Y175745D01*
X71072D01*
Y175309D01*
X70927D01*
Y175163D01*
X70781D01*
Y174727D01*
X70636D01*
Y174582D01*
X70491D01*
Y174000D01*
X70345D01*
Y173855D01*
X70200D01*
Y173709D01*
Y173564D01*
Y173418D01*
X70055D01*
Y173128D01*
X69909D01*
Y172837D01*
X69764D01*
Y172546D01*
X69618D01*
Y172255D01*
X69473D01*
Y171965D01*
X69328D01*
Y171528D01*
X69182D01*
Y171383D01*
X69037D01*
Y170947D01*
X68892D01*
Y170511D01*
X68746D01*
Y170365D01*
X68601D01*
Y169929D01*
X68455D01*
Y169784D01*
X68310D01*
Y169348D01*
X68165D01*
Y169057D01*
X68019D01*
Y168912D01*
X67729D01*
Y169057D01*
X67583D01*
Y169202D01*
X67438D01*
Y169639D01*
X67583D01*
Y169929D01*
X67729D01*
Y170365D01*
X67874D01*
Y170656D01*
X68019D01*
Y170947D01*
X68165D01*
Y171092D01*
X68310D01*
Y171674D01*
X68455D01*
Y171819D01*
X68601D01*
Y172255D01*
X68746D01*
Y172546D01*
X68892D01*
Y172837D01*
X69037D01*
Y173418D01*
X69182D01*
Y173709D01*
X69328D01*
Y174000D01*
X69473D01*
Y174145D01*
X69618D01*
Y174727D01*
X69764D01*
Y174872D01*
X69909D01*
Y175309D01*
X70055D01*
Y175599D01*
X70200D01*
Y175890D01*
X70345D01*
Y176326D01*
X69909D01*
Y177344D01*
X69764D01*
Y177925D01*
X69909D01*
Y178361D01*
X70200D01*
Y178652D01*
X70491D01*
Y178798D01*
X71072D01*
Y178943D01*
X71799D01*
Y178798D01*
X71945D01*
Y178943D01*
X72090D01*
Y178798D01*
D02*
G37*
G36*
X55080D02*
X55371D01*
Y178652D01*
X55516D01*
Y178507D01*
X55661D01*
Y178216D01*
X55807D01*
Y177635D01*
X55952D01*
Y177489D01*
X55807D01*
Y177199D01*
X55952D01*
Y177053D01*
X55807D01*
Y176326D01*
X55371D01*
Y175890D01*
X55516D01*
Y175454D01*
X55661D01*
Y175309D01*
X55807D01*
Y174727D01*
X55952D01*
Y174436D01*
X56098D01*
Y174145D01*
X56243D01*
Y173855D01*
X56388D01*
Y173564D01*
X56534D01*
Y173418D01*
X56679D01*
Y172982D01*
X56825D01*
Y172692D01*
X56970D01*
Y172255D01*
X57115D01*
Y172110D01*
X57261D01*
Y171819D01*
X57406D01*
Y171674D01*
X57551D01*
Y171092D01*
X57697D01*
Y170947D01*
X57842D01*
Y170656D01*
X57988D01*
Y170365D01*
X58133D01*
Y170075D01*
X58279D01*
Y169348D01*
X58133D01*
Y169202D01*
X57988D01*
Y169057D01*
X57842D01*
Y169202D01*
X57406D01*
Y169639D01*
X57261D01*
Y170075D01*
X57115D01*
Y170365D01*
X56970D01*
Y170656D01*
X56825D01*
Y170947D01*
X56679D01*
Y171383D01*
X56534D01*
Y171528D01*
X56388D01*
Y171965D01*
X56243D01*
Y172255D01*
X56098D01*
Y172692D01*
X55952D01*
Y172837D01*
X55807D01*
Y173418D01*
X55661D01*
Y173564D01*
X55516D01*
Y174000D01*
X55371D01*
Y174291D01*
X55225D01*
Y174582D01*
X55080D01*
Y175018D01*
X54935D01*
Y175163D01*
X54789D01*
Y175599D01*
X54644D01*
Y175890D01*
X54353D01*
Y175745D01*
X54208D01*
Y175890D01*
X53626D01*
Y176035D01*
X53481D01*
Y176181D01*
X53045D01*
Y176617D01*
X52899D01*
Y177053D01*
X52754D01*
Y177925D01*
X52899D01*
Y178361D01*
X53045D01*
Y178798D01*
X54062D01*
Y178943D01*
X55080D01*
Y178798D01*
D02*
G37*
G36*
X63512Y168039D02*
X64239D01*
Y167894D01*
X65693D01*
Y167748D01*
X66129D01*
Y167603D01*
X66420D01*
Y167458D01*
X66711D01*
Y167312D01*
X67147D01*
Y167167D01*
X67292D01*
Y167022D01*
X67729D01*
Y166876D01*
X67874D01*
Y166731D01*
X68310D01*
Y166585D01*
X68455D01*
Y166440D01*
X68892D01*
Y166149D01*
X69182D01*
Y166004D01*
X69473D01*
Y165858D01*
X69618D01*
Y165713D01*
X69909D01*
Y165422D01*
X70200D01*
Y165277D01*
X70345D01*
Y165131D01*
X70636D01*
Y164986D01*
X70781D01*
Y164695D01*
X70927D01*
Y164550D01*
X71072D01*
Y164259D01*
X71363D01*
Y163969D01*
X71509D01*
Y163823D01*
X71654D01*
Y163532D01*
X71799D01*
Y163242D01*
X72090D01*
Y162951D01*
X72235D01*
Y162805D01*
X72381D01*
Y162515D01*
X72526D01*
Y162369D01*
X72672D01*
Y161933D01*
X72817D01*
Y161642D01*
X72962D01*
Y161206D01*
X73108D01*
Y160915D01*
X73253D01*
Y160479D01*
X73399D01*
Y159752D01*
X73544D01*
Y158589D01*
X73689D01*
Y155972D01*
X73544D01*
Y154955D01*
X73399D01*
Y154228D01*
X73253D01*
Y153646D01*
X73108D01*
Y153065D01*
X72962D01*
Y152774D01*
X72817D01*
Y152483D01*
X72672D01*
Y152047D01*
X72526D01*
Y151901D01*
X72381D01*
Y151611D01*
X72235D01*
Y151465D01*
X72090D01*
Y151320D01*
X71945D01*
Y151175D01*
X71799D01*
Y150884D01*
X71654D01*
Y150593D01*
X71363D01*
Y150302D01*
X71218D01*
Y150157D01*
X71072D01*
Y150012D01*
X70927D01*
Y149721D01*
X70781D01*
Y149575D01*
X70636D01*
Y149430D01*
X70345D01*
Y149139D01*
X70200D01*
Y148994D01*
X70055D01*
Y148848D01*
X69909D01*
Y148703D01*
X69618D01*
Y148558D01*
X69473D01*
Y148412D01*
X69182D01*
Y148267D01*
X69037D01*
Y148122D01*
X68601D01*
Y147976D01*
X68310D01*
Y147831D01*
X68019D01*
Y147540D01*
X67583D01*
Y147395D01*
X67438D01*
Y147249D01*
X67001D01*
Y147104D01*
X66711D01*
Y146958D01*
X66129D01*
Y146813D01*
X65402D01*
Y146668D01*
X64094D01*
Y146522D01*
X63658D01*
Y146377D01*
X62059D01*
Y146522D01*
X61477D01*
Y146668D01*
X60314D01*
Y146813D01*
X59587D01*
Y146958D01*
X59151D01*
Y147104D01*
X58860D01*
Y147249D01*
X58424D01*
Y147395D01*
X58279D01*
Y147540D01*
X57842D01*
Y147685D01*
X57697D01*
Y147831D01*
X57261D01*
Y147976D01*
X57115D01*
Y148122D01*
X56679D01*
Y148267D01*
X56534D01*
Y148412D01*
X56388D01*
Y148558D01*
X56098D01*
Y148703D01*
X55952D01*
Y148848D01*
X55807D01*
Y148994D01*
X55661D01*
Y149139D01*
X55516D01*
Y149285D01*
X55371D01*
Y149430D01*
X55225D01*
Y149575D01*
X55080D01*
Y149721D01*
X54935D01*
Y149866D01*
X54789D01*
Y150012D01*
X54644D01*
Y150157D01*
X54498D01*
Y150302D01*
X54353D01*
Y150448D01*
X54208D01*
Y150739D01*
X54062D01*
Y150884D01*
X53917D01*
Y151175D01*
X53772D01*
Y151320D01*
X53626D01*
Y151611D01*
X53481D01*
Y151901D01*
X53335D01*
Y152192D01*
X53190D01*
Y152483D01*
X53045D01*
Y152774D01*
X52899D01*
Y153355D01*
X52754D01*
Y153646D01*
X52609D01*
Y154228D01*
X52463D01*
Y154373D01*
X52318D01*
Y155245D01*
X52172D01*
Y155536D01*
X52027D01*
Y158735D01*
X52172D01*
Y159461D01*
X52318D01*
Y160188D01*
X52463D01*
Y160479D01*
X52609D01*
Y161061D01*
X52754D01*
Y161206D01*
X52899D01*
Y161642D01*
X53045D01*
Y162078D01*
X53335D01*
Y162515D01*
X53481D01*
Y162660D01*
X53626D01*
Y162951D01*
X53772D01*
Y163242D01*
X53917D01*
Y163532D01*
X54208D01*
Y163823D01*
X54353D01*
Y163969D01*
X54498D01*
Y164259D01*
X54644D01*
Y164405D01*
X54789D01*
Y164550D01*
X54935D01*
Y164841D01*
X55080D01*
Y164986D01*
X55225D01*
Y165131D01*
X55516D01*
Y165422D01*
X55807D01*
Y165568D01*
X55952D01*
Y165713D01*
X56098D01*
Y165858D01*
X56388D01*
Y166004D01*
X56534D01*
Y166149D01*
X56825D01*
Y166295D01*
X56970D01*
Y166440D01*
X57261D01*
Y166585D01*
X57551D01*
Y166731D01*
X57842D01*
Y166876D01*
X58133D01*
Y167022D01*
X58279D01*
Y167167D01*
X58569D01*
Y167312D01*
X59151D01*
Y167458D01*
X59442D01*
Y167603D01*
X59587D01*
Y167458D01*
X59732D01*
Y167603D01*
X60023D01*
Y167748D01*
X60459D01*
Y167894D01*
X61768D01*
Y168039D01*
X62495D01*
Y168185D01*
X63512D01*
Y168039D01*
D02*
G37*
G36*
X88664Y205985D02*
X89536D01*
Y205839D01*
X89827D01*
Y205694D01*
X90118D01*
Y205549D01*
X90845D01*
Y205403D01*
X91135D01*
Y205258D01*
X91426D01*
Y205112D01*
X91717D01*
Y204967D01*
X92008D01*
Y204821D01*
X92299D01*
Y204676D01*
X92735D01*
Y204531D01*
X92880D01*
Y204385D01*
X93171D01*
Y204095D01*
X93462D01*
Y203949D01*
X93607D01*
Y203804D01*
X93898D01*
Y203513D01*
X94334D01*
Y203368D01*
X95061D01*
Y203513D01*
X95206D01*
Y203659D01*
X95351D01*
Y203804D01*
X95642D01*
Y204095D01*
X95933D01*
Y204240D01*
X96078D01*
Y204385D01*
X96369D01*
Y204531D01*
X96660D01*
Y204676D01*
X97096D01*
Y204821D01*
X97387D01*
Y204967D01*
X97969D01*
Y205112D01*
X98114D01*
Y205258D01*
X98550D01*
Y205403D01*
X98986D01*
Y205549D01*
X100295D01*
Y205694D01*
X103493D01*
Y205549D01*
X104365D01*
Y205403D01*
X104656D01*
Y205258D01*
X105238D01*
Y205112D01*
X105528D01*
Y204967D01*
X106110D01*
Y204821D01*
X106401D01*
Y204676D01*
X107128D01*
Y204531D01*
X107419D01*
Y204385D01*
X107855D01*
Y204240D01*
X108000D01*
Y204095D01*
X108291D01*
Y203949D01*
X108581D01*
Y203804D01*
X108872D01*
Y203659D01*
X109163D01*
Y203513D01*
X109454D01*
Y203368D01*
X109890D01*
Y203222D01*
X110035D01*
Y203077D01*
X110471D01*
Y202931D01*
X110617D01*
Y202786D01*
X111053D01*
Y202495D01*
X111344D01*
Y202350D01*
X111489D01*
Y202205D01*
X111780D01*
Y202059D01*
X111925D01*
Y201914D01*
X112216D01*
Y201768D01*
X112362D01*
Y201623D01*
X112507D01*
Y201478D01*
X112652D01*
Y201332D01*
X112943D01*
Y201187D01*
X113089D01*
Y201042D01*
X113234D01*
Y200896D01*
X113525D01*
Y200751D01*
X113670D01*
Y200605D01*
X113815D01*
Y200460D01*
X113961D01*
Y200315D01*
X114106D01*
Y200169D01*
X114251D01*
Y200024D01*
X114397D01*
Y199733D01*
X114688D01*
Y199442D01*
X114979D01*
Y199152D01*
X115124D01*
Y199006D01*
X115269D01*
Y198861D01*
X115415D01*
Y198570D01*
X115705D01*
Y198134D01*
X115996D01*
Y197988D01*
X116141D01*
Y197843D01*
X116287D01*
Y197552D01*
X116432D01*
Y197407D01*
X116578D01*
Y197116D01*
X116723D01*
Y196825D01*
X116868D01*
Y196389D01*
X117014D01*
Y196098D01*
X117159D01*
Y195662D01*
X117305D01*
Y195517D01*
X117450D01*
Y194790D01*
X117595D01*
Y194499D01*
X117741D01*
Y193627D01*
X117886D01*
Y192609D01*
X118032D01*
Y192028D01*
X118177D01*
Y189701D01*
X118032D01*
Y188248D01*
X117886D01*
Y187230D01*
X117741D01*
Y186067D01*
X117595D01*
Y185776D01*
X117450D01*
Y185195D01*
X117305D01*
Y185049D01*
X117159D01*
Y184322D01*
X117014D01*
Y184177D01*
X116868D01*
Y183595D01*
X116723D01*
Y183305D01*
X116578D01*
Y182869D01*
X116432D01*
Y182432D01*
X116287D01*
Y182141D01*
X116141D01*
Y181851D01*
X115996D01*
Y181415D01*
X115851D01*
Y181124D01*
X115705D01*
Y180688D01*
X115560D01*
Y180542D01*
X115415D01*
Y180252D01*
X115269D01*
Y179961D01*
X115124D01*
Y179670D01*
X114979D01*
Y179379D01*
X114833D01*
Y179088D01*
X114688D01*
Y178798D01*
X114542D01*
Y178652D01*
X114397D01*
Y178361D01*
X114251D01*
Y178216D01*
X114106D01*
Y177925D01*
X113961D01*
Y177780D01*
X113815D01*
Y177489D01*
X113525D01*
Y177199D01*
X113379D01*
Y176908D01*
X113234D01*
Y176762D01*
X113089D01*
Y176617D01*
X112943D01*
Y176326D01*
X112798D01*
Y176181D01*
X112652D01*
Y175890D01*
X112362D01*
Y175599D01*
X112216D01*
Y175309D01*
X112071D01*
Y175163D01*
X111925D01*
Y175018D01*
X111780D01*
Y174872D01*
X111635D01*
Y174582D01*
X111489D01*
Y174436D01*
X111344D01*
Y174291D01*
X111198D01*
Y174145D01*
X111053D01*
Y173855D01*
X110762D01*
Y173564D01*
X110471D01*
Y173418D01*
X110181D01*
Y173128D01*
X109890D01*
Y172837D01*
X109599D01*
Y172546D01*
X109454D01*
Y172401D01*
X109309D01*
Y172255D01*
X109163D01*
Y172110D01*
X109018D01*
Y171965D01*
X108872D01*
Y171674D01*
X108581D01*
Y171383D01*
X108291D01*
Y171092D01*
X108000D01*
Y170947D01*
X107855D01*
Y170801D01*
X107709D01*
Y170656D01*
X107419D01*
Y170365D01*
X107128D01*
Y170220D01*
X106982D01*
Y170075D01*
X106837D01*
Y169929D01*
X106692D01*
Y169784D01*
X106401D01*
Y169639D01*
X106255D01*
Y169493D01*
X105965D01*
Y169348D01*
X105819D01*
Y169057D01*
X106110D01*
Y168912D01*
X106401D01*
Y168766D01*
X106692D01*
Y168621D01*
X106837D01*
Y168475D01*
X107128D01*
Y168330D01*
X107273D01*
Y168185D01*
X107419D01*
Y168039D01*
X107564D01*
Y167894D01*
X107855D01*
Y167748D01*
X108000D01*
Y167603D01*
X108291D01*
Y167312D01*
X108581D01*
Y167022D01*
X108872D01*
Y166876D01*
X109018D01*
Y166731D01*
X109163D01*
Y166585D01*
X109309D01*
Y166440D01*
X109454D01*
Y166295D01*
X109599D01*
Y166149D01*
X109745D01*
Y166004D01*
X109890D01*
Y165858D01*
X110035D01*
Y165713D01*
X110181D01*
Y165422D01*
X110471D01*
Y165131D01*
X110617D01*
Y164986D01*
X110762D01*
Y164550D01*
X111053D01*
Y164114D01*
X111198D01*
Y163969D01*
X111344D01*
Y163678D01*
X111489D01*
Y163532D01*
X111635D01*
Y163242D01*
X111780D01*
Y162951D01*
X111925D01*
Y162660D01*
X112071D01*
Y162369D01*
X112216D01*
Y161933D01*
X112362D01*
Y161352D01*
X112507D01*
Y161061D01*
X112652D01*
Y160770D01*
X112798D01*
Y160188D01*
X112943D01*
Y159607D01*
X113089D01*
Y158735D01*
X113234D01*
Y158444D01*
X113379D01*
Y158299D01*
X113961D01*
Y158153D01*
X114106D01*
Y158008D01*
X114688D01*
Y157862D01*
X114979D01*
Y157717D01*
X115560D01*
Y157571D01*
X115705D01*
Y157426D01*
X116287D01*
Y157281D01*
X116578D01*
Y157135D01*
X117159D01*
Y156990D01*
X117450D01*
Y156845D01*
X117886D01*
Y156699D01*
X118177D01*
Y156554D01*
X118758D01*
Y156409D01*
X119049D01*
Y156263D01*
X119485D01*
Y156118D01*
X120212D01*
Y155972D01*
X120358D01*
Y155827D01*
X120503D01*
Y155536D01*
X119922D01*
Y155391D01*
X119631D01*
Y155245D01*
X119340D01*
Y155100D01*
X119049D01*
Y154955D01*
X118468D01*
Y154809D01*
X118322D01*
Y154664D01*
X117886D01*
Y154518D01*
X117741D01*
Y154373D01*
X117159D01*
Y154228D01*
X117014D01*
Y154082D01*
X116578D01*
Y153937D01*
X116287D01*
Y153791D01*
X115851D01*
Y153646D01*
X115415D01*
Y153501D01*
X115124D01*
Y153355D01*
X114833D01*
Y153210D01*
X114542D01*
Y153065D01*
X114106D01*
Y152919D01*
X113815D01*
Y152774D01*
X113379D01*
Y152629D01*
X113234D01*
Y152483D01*
X112798D01*
Y152192D01*
X112652D01*
Y151320D01*
X112507D01*
Y151175D01*
X112362D01*
Y150593D01*
X112216D01*
Y150302D01*
X111925D01*
Y150012D01*
X111780D01*
Y149721D01*
X111635D01*
Y149430D01*
X111489D01*
Y148994D01*
X111344D01*
Y148703D01*
X111198D01*
Y148558D01*
X111053D01*
Y148412D01*
X110908D01*
Y148122D01*
X110762D01*
Y147831D01*
X110471D01*
Y147540D01*
X110326D01*
Y147395D01*
X110181D01*
Y147249D01*
X110035D01*
Y146958D01*
X109890D01*
Y146813D01*
X109745D01*
Y146668D01*
X109599D01*
Y146522D01*
X109454D01*
Y146377D01*
X109309D01*
Y146231D01*
X109163D01*
Y146086D01*
X109018D01*
Y145941D01*
X108872D01*
Y145795D01*
X108727D01*
Y145650D01*
X108581D01*
Y145505D01*
X108436D01*
Y145359D01*
X108291D01*
Y145214D01*
X108145D01*
Y145069D01*
X108000D01*
Y144923D01*
X107855D01*
Y144778D01*
X107564D01*
Y144632D01*
X107419D01*
Y144487D01*
X107128D01*
Y144342D01*
X106982D01*
Y144196D01*
X106692D01*
Y144051D01*
X106546D01*
Y143905D01*
X106110D01*
Y143760D01*
X105819D01*
Y143615D01*
X105528D01*
Y143469D01*
X105238D01*
Y143324D01*
X105092D01*
Y143178D01*
X104656D01*
Y143033D01*
X104511D01*
Y142888D01*
X104220D01*
Y142742D01*
X103929D01*
Y142597D01*
X103493D01*
Y142452D01*
X103202D01*
Y142306D01*
X102185D01*
Y142161D01*
X101749D01*
Y142015D01*
X101022D01*
Y141870D01*
X100585D01*
Y141725D01*
X79941D01*
Y141870D01*
X79650D01*
Y142015D01*
X79068D01*
Y142161D01*
X78778D01*
Y142306D01*
X78196D01*
Y142452D01*
X77905D01*
Y142597D01*
X77469D01*
Y142742D01*
X77324D01*
Y142888D01*
X76888D01*
Y143033D01*
X76742D01*
Y143178D01*
X76451D01*
Y143324D01*
X76306D01*
Y143469D01*
X76015D01*
Y143615D01*
X75870D01*
Y143760D01*
X75725D01*
Y143905D01*
X75434D01*
Y144051D01*
X75288D01*
Y144196D01*
X75143D01*
Y144342D01*
X74998D01*
Y144487D01*
X74852D01*
Y144632D01*
X74562D01*
Y144778D01*
X74416D01*
Y144923D01*
X74271D01*
Y145069D01*
X74125D01*
Y145214D01*
X73835D01*
Y145359D01*
X73689D01*
Y145505D01*
X73544D01*
Y145795D01*
X73399D01*
Y145941D01*
X73253D01*
Y146231D01*
X72962D01*
Y146522D01*
X72817D01*
Y146668D01*
X72672D01*
Y146813D01*
X72526D01*
Y146958D01*
X72381D01*
Y147249D01*
X72235D01*
Y147395D01*
X72090D01*
Y147540D01*
X71945D01*
Y147831D01*
X71799D01*
Y148122D01*
X71654D01*
Y148703D01*
X71799D01*
Y148848D01*
X72090D01*
Y149139D01*
X72235D01*
Y149285D01*
X72381D01*
Y149430D01*
X72526D01*
Y149575D01*
X72672D01*
Y149866D01*
X72817D01*
Y150012D01*
X72962D01*
Y150302D01*
X73108D01*
Y150593D01*
X73253D01*
Y150884D01*
X73399D01*
Y151029D01*
X73544D01*
Y151320D01*
X73689D01*
Y151611D01*
X73835D01*
Y151901D01*
X73980D01*
Y152192D01*
X74125D01*
Y152483D01*
X74271D01*
Y153065D01*
X74416D01*
Y153646D01*
X74562D01*
Y154228D01*
X74707D01*
Y154373D01*
X74852D01*
Y159316D01*
X74707D01*
Y160043D01*
X74562D01*
Y160625D01*
X74416D01*
Y161206D01*
X74271D01*
Y161497D01*
X74125D01*
Y161788D01*
X73980D01*
Y162078D01*
X73835D01*
Y162369D01*
X73689D01*
Y162660D01*
X73544D01*
Y162951D01*
X73399D01*
Y163242D01*
X73253D01*
Y163532D01*
X73108D01*
Y163678D01*
X72962D01*
Y163969D01*
X72817D01*
Y164114D01*
X72672D01*
Y164405D01*
X72526D01*
Y164550D01*
X72381D01*
Y164695D01*
X72235D01*
Y164841D01*
X72090D01*
Y165422D01*
X72235D01*
Y165568D01*
X72381D01*
Y165713D01*
X72526D01*
Y166004D01*
X72672D01*
Y166149D01*
X72817D01*
Y166295D01*
X72962D01*
Y166585D01*
X73108D01*
Y166731D01*
X73253D01*
Y166876D01*
X73399D01*
Y167022D01*
X73544D01*
Y167167D01*
X73689D01*
Y167312D01*
X73835D01*
Y167458D01*
X73980D01*
Y167603D01*
X74125D01*
Y167748D01*
X74271D01*
Y167894D01*
X74416D01*
Y168039D01*
X74562D01*
Y168185D01*
X74852D01*
Y168330D01*
X74998D01*
Y168475D01*
X75143D01*
Y168621D01*
X75434D01*
Y168912D01*
X75725D01*
Y169057D01*
X75870D01*
Y169202D01*
X76161D01*
Y169348D01*
X76306D01*
Y169493D01*
X76597D01*
Y169639D01*
X76742D01*
Y169784D01*
X77179D01*
Y169929D01*
X77324D01*
Y170075D01*
X77905D01*
Y170220D01*
X78196D01*
Y170365D01*
X78778D01*
Y170511D01*
X79068D01*
Y170656D01*
X79650D01*
Y170801D01*
X80086D01*
Y170947D01*
X81104D01*
Y171092D01*
X80813D01*
Y171238D01*
X80668D01*
Y171383D01*
X80377D01*
Y171674D01*
X80086D01*
Y171965D01*
X79941D01*
Y172255D01*
X79650D01*
Y172546D01*
X79359D01*
Y172837D01*
X79068D01*
Y173128D01*
X78778D01*
Y173418D01*
X78487D01*
Y173564D01*
X78342D01*
Y173709D01*
X78196D01*
Y173855D01*
X78051D01*
Y174000D01*
X77905D01*
Y174145D01*
X77760D01*
Y174291D01*
X77615D01*
Y174436D01*
X77469D01*
Y174727D01*
X77324D01*
Y174872D01*
X77179D01*
Y175018D01*
X77033D01*
Y175309D01*
X76888D01*
Y175454D01*
X76742D01*
Y175599D01*
X76597D01*
Y175890D01*
X76306D01*
Y176181D01*
X76161D01*
Y176326D01*
X76015D01*
Y176617D01*
X75870D01*
Y176762D01*
X75725D01*
Y176908D01*
X75579D01*
Y177053D01*
X75434D01*
Y177344D01*
X75288D01*
Y177489D01*
X75143D01*
Y177780D01*
X74998D01*
Y177925D01*
X74852D01*
Y178071D01*
X74707D01*
Y178361D01*
X74562D01*
Y178652D01*
X74416D01*
Y178798D01*
X74271D01*
Y178943D01*
X74125D01*
Y179234D01*
X73980D01*
Y179379D01*
X73835D01*
Y179815D01*
X73689D01*
Y179961D01*
X73544D01*
Y180397D01*
X73399D01*
Y180542D01*
X73253D01*
Y180979D01*
X73108D01*
Y181269D01*
X72962D01*
Y181705D01*
X72817D01*
Y181851D01*
X72672D01*
Y182287D01*
X72526D01*
Y182432D01*
X72381D01*
Y183014D01*
X72235D01*
Y183159D01*
X72090D01*
Y183595D01*
X71945D01*
Y183741D01*
X71799D01*
Y184322D01*
X71654D01*
Y184758D01*
X71509D01*
Y184904D01*
X71363D01*
Y185776D01*
X71218D01*
Y186067D01*
X71072D01*
Y186794D01*
X70927D01*
Y187375D01*
X70781D01*
Y188539D01*
X70636D01*
Y189120D01*
X70491D01*
Y193482D01*
X70636D01*
Y193918D01*
X70781D01*
Y194499D01*
X70927D01*
Y194790D01*
X71072D01*
Y195371D01*
X71218D01*
Y195662D01*
X71363D01*
Y196098D01*
X71509D01*
Y196244D01*
X71654D01*
Y196680D01*
X71799D01*
Y197262D01*
X71945D01*
Y197407D01*
X72090D01*
Y197843D01*
X72235D01*
Y197988D01*
X72381D01*
Y198134D01*
X72526D01*
Y198425D01*
X72672D01*
Y198570D01*
X72817D01*
Y198715D01*
X72962D01*
Y199006D01*
X73108D01*
Y199152D01*
X73253D01*
Y199442D01*
X73399D01*
Y199588D01*
X73544D01*
Y199733D01*
X73689D01*
Y199879D01*
X73835D01*
Y200024D01*
X73980D01*
Y200169D01*
X74125D01*
Y200315D01*
X74271D01*
Y200460D01*
X74416D01*
Y200605D01*
X74562D01*
Y200896D01*
X74852D01*
Y201042D01*
X74998D01*
Y201187D01*
X75143D01*
Y201332D01*
X75288D01*
Y201478D01*
X75434D01*
Y201623D01*
X75725D01*
Y201914D01*
X76015D01*
Y202059D01*
X76161D01*
Y202205D01*
X76306D01*
Y202350D01*
X76597D01*
Y202495D01*
X76742D01*
Y202641D01*
X76888D01*
Y202786D01*
X77179D01*
Y203077D01*
X77469D01*
Y203222D01*
X77615D01*
Y203368D01*
X78051D01*
Y203513D01*
X78487D01*
Y203659D01*
X78632D01*
Y203804D01*
X79068D01*
Y203949D01*
X79214D01*
Y204095D01*
X79650D01*
Y204240D01*
X79795D01*
Y204385D01*
X80086D01*
Y204531D01*
X80377D01*
Y204676D01*
X80958D01*
Y204821D01*
X81249D01*
Y204967D01*
X81685D01*
Y205112D01*
X81831D01*
Y205258D01*
X82412D01*
Y205403D01*
X82558D01*
Y205549D01*
X83285D01*
Y205694D01*
X83721D01*
Y205839D01*
X84884D01*
Y205985D01*
X85901D01*
Y206130D01*
X88664D01*
Y205985D01*
D02*
G37*
%LPC*%
G36*
X45742Y386116D02*
X45483D01*
Y386092D01*
X45413D01*
Y386069D01*
X45366D01*
Y386046D01*
X45342D01*
Y386022D01*
X45319D01*
Y385999D01*
X45272D01*
Y385951D01*
X45248D01*
Y385928D01*
X45225D01*
Y385905D01*
X45202D01*
Y385858D01*
X45178D01*
Y385787D01*
X45155D01*
Y385528D01*
X45178D01*
Y385458D01*
X45202D01*
Y385411D01*
X45225D01*
Y385387D01*
X45248D01*
Y385340D01*
X45272D01*
Y385317D01*
X45296D01*
Y385294D01*
X45342D01*
Y385270D01*
X45366D01*
Y385246D01*
X45413D01*
Y385223D01*
X45483D01*
Y385199D01*
X45742D01*
Y385223D01*
X45812D01*
Y385246D01*
X45860D01*
Y385270D01*
X45883D01*
Y385294D01*
X45906D01*
Y385317D01*
X45930D01*
Y385340D01*
X45954D01*
Y385364D01*
X45977D01*
Y385387D01*
X46000D01*
Y385411D01*
X46024D01*
Y385458D01*
X46047D01*
Y385528D01*
X46071D01*
Y385787D01*
X46047D01*
Y385858D01*
X46024D01*
Y385905D01*
X46000D01*
Y385928D01*
X45977D01*
Y385975D01*
X45954D01*
Y385999D01*
X45930D01*
Y386022D01*
X45883D01*
Y386046D01*
X45860D01*
Y386069D01*
X45812D01*
Y386092D01*
X45742D01*
Y386116D01*
D02*
G37*
%LPD*%
G36*
X45766Y385928D02*
X45789D01*
Y385905D01*
X45812D01*
Y385881D01*
X45836D01*
Y385858D01*
X45860D01*
Y385669D01*
X45836D01*
Y385646D01*
X45812D01*
Y385599D01*
X45766D01*
Y385552D01*
X45789D01*
Y385505D01*
X45812D01*
Y385482D01*
X45836D01*
Y385435D01*
X45860D01*
Y385387D01*
X45742D01*
Y385411D01*
X45719D01*
Y385435D01*
X45695D01*
Y385482D01*
X45671D01*
Y385528D01*
X45648D01*
Y385552D01*
X45507D01*
Y385411D01*
Y385387D01*
X45390D01*
Y385951D01*
X45766D01*
Y385928D01*
D02*
G37*
%LPC*%
G36*
X45695Y385858D02*
X45507D01*
Y385810D01*
Y385787D01*
Y385669D01*
X45695D01*
Y385693D01*
X45719D01*
Y385717D01*
X45742D01*
Y385810D01*
X45719D01*
Y385834D01*
X45695D01*
Y385858D01*
D02*
G37*
G36*
X38269Y389947D02*
X37094D01*
Y389876D01*
X37071D01*
Y389806D01*
X37047D01*
Y389735D01*
X37023D01*
Y389641D01*
X37000D01*
Y389570D01*
X36977D01*
Y389500D01*
X36953D01*
Y389406D01*
X36930D01*
Y389335D01*
X36906D01*
Y389242D01*
X36882D01*
Y389171D01*
X36859D01*
Y389101D01*
X36836D01*
Y389006D01*
X36812D01*
Y388936D01*
X36788D01*
Y388842D01*
X36765D01*
Y388772D01*
X36742D01*
Y388701D01*
X36718D01*
Y388607D01*
X36694D01*
Y388537D01*
X36671D01*
Y388442D01*
X36647D01*
Y388372D01*
X36624D01*
Y388301D01*
X36601D01*
Y388208D01*
X36577D01*
Y388137D01*
X36553D01*
Y388043D01*
X36530D01*
Y387972D01*
X36507D01*
Y387902D01*
X36483D01*
Y387808D01*
X36459D01*
Y387737D01*
X36436D01*
Y387667D01*
X36413D01*
Y387573D01*
X36389D01*
Y387526D01*
X36366D01*
Y387597D01*
X36342D01*
Y387690D01*
X36318D01*
Y387761D01*
X36295D01*
Y387855D01*
X36272D01*
Y387926D01*
X36248D01*
Y387996D01*
X36224D01*
Y388090D01*
X36201D01*
Y388160D01*
X36178D01*
Y388254D01*
X36154D01*
Y388325D01*
X36130D01*
Y388396D01*
X36107D01*
Y388490D01*
X36083D01*
Y388560D01*
X36060D01*
Y388654D01*
X36037D01*
Y388724D01*
X36013D01*
Y388819D01*
X35989D01*
Y388889D01*
X35966D01*
Y388960D01*
X35943D01*
Y389054D01*
X35919D01*
Y389124D01*
X35895D01*
Y389218D01*
X35872D01*
Y389288D01*
X35849D01*
Y389383D01*
X35825D01*
Y389453D01*
X35802D01*
Y389524D01*
X35778D01*
Y389617D01*
X35754D01*
Y389688D01*
X35731D01*
Y389782D01*
X35708D01*
Y389852D01*
X35684D01*
Y389947D01*
X34532D01*
Y389923D01*
X34509D01*
Y389829D01*
X34486D01*
Y389758D01*
X34462D01*
Y389688D01*
X34438D01*
Y389594D01*
X34415D01*
Y389524D01*
X34391D01*
Y389429D01*
X34368D01*
Y389359D01*
X34345D01*
Y389265D01*
X34321D01*
Y389194D01*
X34297D01*
Y389101D01*
X34274D01*
Y389030D01*
X34251D01*
Y388936D01*
X34227D01*
Y388865D01*
X34203D01*
Y388795D01*
X34180D01*
Y388701D01*
X34157D01*
Y388631D01*
X34133D01*
Y388537D01*
X34110D01*
Y388466D01*
X34086D01*
Y388372D01*
X34062D01*
Y388301D01*
X34039D01*
Y388208D01*
X34016D01*
Y388137D01*
X33992D01*
Y388043D01*
X33968D01*
Y387972D01*
X33945D01*
Y387902D01*
X33922D01*
Y387808D01*
X33898D01*
Y387737D01*
X33874D01*
Y387644D01*
X33851D01*
Y387573D01*
X33827D01*
Y387526D01*
X33804D01*
Y387620D01*
X33781D01*
Y387690D01*
X33757D01*
Y387761D01*
X33733D01*
Y387855D01*
X33710D01*
Y387926D01*
X33687D01*
Y388019D01*
X33663D01*
Y388090D01*
X33639D01*
Y388160D01*
X33616D01*
Y388254D01*
X33593D01*
Y388325D01*
X33569D01*
Y388419D01*
X33546D01*
Y388490D01*
X33522D01*
Y388560D01*
X33498D01*
Y388654D01*
X33475D01*
Y388724D01*
X33452D01*
Y388819D01*
X33428D01*
Y388889D01*
X33404D01*
Y388960D01*
X33381D01*
Y389054D01*
X33358D01*
Y389124D01*
X33334D01*
Y389194D01*
X33310D01*
Y389288D01*
X33287D01*
Y389359D01*
X33263D01*
Y389453D01*
X33240D01*
Y389524D01*
X33217D01*
Y389594D01*
X33193D01*
Y389688D01*
X33169D01*
Y389758D01*
X33146D01*
Y389852D01*
X33123D01*
Y389923D01*
X33099D01*
Y389947D01*
X31901D01*
Y389899D01*
X31924D01*
Y389829D01*
X31947D01*
Y389782D01*
X31971D01*
Y389711D01*
X31995D01*
Y389641D01*
X32018D01*
Y389570D01*
X32041D01*
Y389524D01*
X32065D01*
Y389453D01*
X32089D01*
Y389383D01*
X32112D01*
Y389312D01*
X32135D01*
Y389265D01*
X32159D01*
Y389194D01*
X32182D01*
Y389124D01*
X32206D01*
Y389054D01*
X32230D01*
Y389006D01*
X32253D01*
Y388983D01*
Y388960D01*
Y388936D01*
X32276D01*
Y388865D01*
X32300D01*
Y388795D01*
X32324D01*
Y388748D01*
X32347D01*
Y388678D01*
X32370D01*
Y388607D01*
X32394D01*
Y388537D01*
X32418D01*
Y388490D01*
X32441D01*
Y388419D01*
X32465D01*
Y388349D01*
X32488D01*
Y388278D01*
X32511D01*
Y388231D01*
X32535D01*
Y388160D01*
X32559D01*
Y388090D01*
X32582D01*
Y388019D01*
X32605D01*
Y387972D01*
X32629D01*
Y387902D01*
X32653D01*
Y387831D01*
X32676D01*
Y387761D01*
X32699D01*
Y387714D01*
X32723D01*
Y387644D01*
X32746D01*
Y387573D01*
X32770D01*
Y387503D01*
X32794D01*
Y387456D01*
X32817D01*
Y387385D01*
X32840D01*
Y387315D01*
X32864D01*
Y387244D01*
X32888D01*
Y387197D01*
X32911D01*
Y387126D01*
X32934D01*
Y387056D01*
X32958D01*
Y387009D01*
X32982D01*
Y386939D01*
X33005D01*
Y386868D01*
X33029D01*
Y386797D01*
X33052D01*
Y386751D01*
X33075D01*
Y386680D01*
X33099D01*
Y386610D01*
X33123D01*
Y386539D01*
X33146D01*
Y386492D01*
X33169D01*
Y386421D01*
X33193D01*
Y386351D01*
X34391D01*
Y386398D01*
X34415D01*
Y386492D01*
X34438D01*
Y386562D01*
X34462D01*
Y386633D01*
X34486D01*
Y386703D01*
X34509D01*
Y386774D01*
X34532D01*
Y386868D01*
X34556D01*
Y386939D01*
X34580D01*
Y387009D01*
X34603D01*
Y387080D01*
X34626D01*
Y387150D01*
X34650D01*
Y387244D01*
X34674D01*
Y387315D01*
X34697D01*
Y387385D01*
X34721D01*
Y387456D01*
X34744D01*
Y387549D01*
X34767D01*
Y387620D01*
X34791D01*
Y387690D01*
X34815D01*
Y387761D01*
X34838D01*
Y387831D01*
X34861D01*
Y387926D01*
X34885D01*
Y387996D01*
X34909D01*
Y388067D01*
X34932D01*
Y388137D01*
X34955D01*
Y388208D01*
X34979D01*
Y388301D01*
X35002D01*
Y388372D01*
X35026D01*
Y388442D01*
X35050D01*
Y388513D01*
X35073D01*
Y388560D01*
X35096D01*
Y388466D01*
X35120D01*
Y388396D01*
X35144D01*
Y388325D01*
X35167D01*
Y388254D01*
X35190D01*
Y388184D01*
X35214D01*
Y388090D01*
X35238D01*
Y388019D01*
X35261D01*
Y387949D01*
X35285D01*
Y387878D01*
X35308D01*
Y387785D01*
X35331D01*
Y387714D01*
X35355D01*
Y387644D01*
X35379D01*
Y387573D01*
X35402D01*
Y387479D01*
X35425D01*
Y387408D01*
X35449D01*
Y387338D01*
X35473D01*
Y387267D01*
X35496D01*
Y387174D01*
X35519D01*
Y387103D01*
X35543D01*
Y387033D01*
X35566D01*
Y386962D01*
X35590D01*
Y386868D01*
X35614D01*
Y386797D01*
X35637D01*
Y386727D01*
X35660D01*
Y386656D01*
X35684D01*
Y386562D01*
X35708D01*
Y386492D01*
X35731D01*
Y386421D01*
X35754D01*
Y386351D01*
X36953D01*
Y386398D01*
X36977D01*
Y386469D01*
X37000D01*
Y386539D01*
X37023D01*
Y386586D01*
X37047D01*
Y386656D01*
X37071D01*
Y386727D01*
X37094D01*
Y386797D01*
X37117D01*
Y386844D01*
X37141D01*
Y386915D01*
X37165D01*
Y386985D01*
X37188D01*
Y387056D01*
X37211D01*
Y387103D01*
X37235D01*
Y387174D01*
X37258D01*
Y387244D01*
X37282D01*
Y387315D01*
X37306D01*
Y387362D01*
X37329D01*
Y387432D01*
X37352D01*
Y387503D01*
X37376D01*
Y387549D01*
X37400D01*
Y387620D01*
X37423D01*
Y387690D01*
X37446D01*
Y387761D01*
X37470D01*
Y387808D01*
X37494D01*
Y387878D01*
X37517D01*
Y387949D01*
X37541D01*
Y388019D01*
X37564D01*
Y388067D01*
X37587D01*
Y388137D01*
X37611D01*
Y388208D01*
X37635D01*
Y388278D01*
X37658D01*
Y388325D01*
X37681D01*
Y388396D01*
X37705D01*
Y388466D01*
X37729D01*
Y388513D01*
X37752D01*
Y388583D01*
X37775D01*
Y388654D01*
X37799D01*
Y388724D01*
X37822D01*
Y388772D01*
X37846D01*
Y388842D01*
X37870D01*
Y388913D01*
X37893D01*
Y388983D01*
X37916D01*
Y389030D01*
X37940D01*
Y389101D01*
X37964D01*
Y389171D01*
X37987D01*
Y389242D01*
X38010D01*
Y389288D01*
X38034D01*
Y389359D01*
X38058D01*
Y389429D01*
X38081D01*
Y389476D01*
X38105D01*
Y389547D01*
X38128D01*
Y389617D01*
X38151D01*
Y389688D01*
X38175D01*
Y389735D01*
X38199D01*
Y389806D01*
X38222D01*
Y389876D01*
X38245D01*
Y389923D01*
X38269D01*
Y389947D01*
D02*
G37*
G36*
X40995D02*
X39820D01*
Y387315D01*
Y387291D01*
Y386351D01*
X40995D01*
Y389947D01*
D02*
G37*
G36*
X39585D02*
X38386D01*
Y389923D01*
X38410D01*
Y387549D01*
Y387526D01*
Y386374D01*
X38386D01*
Y386351D01*
X39585D01*
Y389947D01*
D02*
G37*
G36*
X43321Y389994D02*
X42828D01*
Y389970D01*
X42663D01*
Y389947D01*
X42546D01*
Y389923D01*
X42476D01*
Y389899D01*
X42382D01*
Y389876D01*
X42334D01*
Y389852D01*
X42264D01*
Y389829D01*
X42217D01*
Y389806D01*
X42170D01*
Y389782D01*
X42123D01*
Y389758D01*
X42076D01*
Y389735D01*
X42029D01*
Y389711D01*
X42006D01*
Y389688D01*
X41958D01*
Y389665D01*
X41935D01*
Y389641D01*
X41888D01*
Y389617D01*
X41864D01*
Y389594D01*
X41841D01*
Y389570D01*
X41818D01*
Y389547D01*
X41794D01*
Y389524D01*
X41770D01*
Y389500D01*
X41723D01*
Y389476D01*
X41700D01*
Y389429D01*
X41677D01*
Y389406D01*
X41653D01*
Y389383D01*
X41629D01*
Y389359D01*
X41606D01*
Y389335D01*
X41583D01*
Y389288D01*
X41559D01*
Y389265D01*
X41535D01*
Y389242D01*
X41512D01*
Y389194D01*
X41489D01*
Y389147D01*
X41465D01*
Y389124D01*
X41442D01*
Y389077D01*
X41418D01*
Y389030D01*
X41394D01*
Y388983D01*
X41371D01*
Y388913D01*
X41348D01*
Y388865D01*
X41324D01*
Y388795D01*
X41300D01*
Y388701D01*
X41277D01*
Y388607D01*
X41254D01*
Y388466D01*
X41230D01*
Y388208D01*
X41206D01*
Y388067D01*
X41230D01*
Y387785D01*
X41254D01*
Y387667D01*
X41277D01*
Y387573D01*
X41300D01*
Y387479D01*
X41324D01*
Y387432D01*
X41348D01*
Y387362D01*
X41371D01*
Y387315D01*
X41394D01*
Y387244D01*
X41418D01*
Y387197D01*
X41442D01*
Y387174D01*
X41465D01*
Y387126D01*
X41489D01*
Y387080D01*
X41512D01*
Y387056D01*
X41535D01*
Y387009D01*
X41559D01*
Y386985D01*
X41583D01*
Y386962D01*
X41606D01*
Y386915D01*
X41629D01*
Y386892D01*
X41653D01*
Y386868D01*
X41677D01*
Y386844D01*
X41700D01*
Y386821D01*
X41723D01*
Y386797D01*
X41747D01*
Y386774D01*
X41770D01*
Y386751D01*
X41794D01*
Y386727D01*
X41818D01*
Y386703D01*
X41864D01*
Y386680D01*
X41888D01*
Y386656D01*
X41912D01*
Y386633D01*
X41958D01*
Y386610D01*
X41982D01*
Y386586D01*
X42029D01*
Y386562D01*
X42053D01*
Y386539D01*
X42099D01*
Y386515D01*
X42147D01*
Y386492D01*
X42193D01*
Y386469D01*
X42264D01*
Y386445D01*
X42311D01*
Y386421D01*
X42382D01*
Y386398D01*
X42452D01*
Y386374D01*
X42546D01*
Y386351D01*
X42640D01*
Y386328D01*
X42805D01*
Y386304D01*
X43321D01*
Y386351D01*
Y386374D01*
Y387267D01*
X42992D01*
Y387291D01*
X42898D01*
Y387315D01*
X42851D01*
Y387338D01*
X42805D01*
Y387362D01*
X42757D01*
Y387385D01*
X42734D01*
Y387408D01*
X42687D01*
Y387432D01*
X42663D01*
Y387456D01*
X42640D01*
Y387479D01*
X42617D01*
Y387503D01*
X42593D01*
Y387549D01*
X42570D01*
Y387573D01*
X42546D01*
Y387620D01*
X42522D01*
Y387667D01*
X42499D01*
Y387714D01*
X42476D01*
Y387785D01*
X42452D01*
Y387878D01*
X42428D01*
Y388019D01*
X42405D01*
Y388254D01*
X42428D01*
Y388396D01*
X42452D01*
Y388490D01*
X42476D01*
Y388560D01*
X42499D01*
Y388607D01*
X42522D01*
Y388654D01*
X42546D01*
Y388701D01*
X42570D01*
Y388724D01*
X42593D01*
Y388772D01*
X42617D01*
Y388795D01*
X42640D01*
Y388819D01*
X42663D01*
Y388842D01*
X42687D01*
Y388865D01*
X42711D01*
Y388889D01*
X42757D01*
Y388913D01*
X42781D01*
Y388936D01*
X42828D01*
Y388960D01*
X42898D01*
Y388983D01*
X42969D01*
Y389006D01*
X43321D01*
Y389994D01*
D02*
G37*
G36*
X63803Y167022D02*
X62059D01*
Y166876D01*
X60750D01*
Y166731D01*
X59878D01*
Y166585D01*
X59442D01*
Y166440D01*
X58860D01*
Y166295D01*
X58569D01*
Y166149D01*
X58279D01*
Y166004D01*
X57988D01*
Y165858D01*
X57842D01*
Y165713D01*
X57406D01*
Y165568D01*
X57261D01*
Y165422D01*
X57115D01*
Y165277D01*
X56970D01*
Y165131D01*
X56679D01*
Y164841D01*
X56534D01*
Y164695D01*
X56388D01*
Y164550D01*
X56243D01*
Y164405D01*
X56098D01*
Y164259D01*
X55952D01*
Y164114D01*
X55807D01*
Y163969D01*
X55661D01*
Y163823D01*
X55516D01*
Y163532D01*
X55225D01*
Y163242D01*
X55080D01*
Y163096D01*
X54935D01*
Y162951D01*
X54789D01*
Y162805D01*
X54644D01*
Y162660D01*
X54498D01*
Y162369D01*
X54353D01*
Y162078D01*
X54208D01*
Y161642D01*
X54062D01*
Y161352D01*
X53917D01*
Y160915D01*
X53772D01*
Y160770D01*
X53626D01*
Y160334D01*
X53481D01*
Y160043D01*
X53335D01*
Y159025D01*
X53190D01*
Y158735D01*
X53045D01*
Y155536D01*
X53190D01*
Y155245D01*
X53335D01*
Y154228D01*
X53481D01*
Y154082D01*
X53626D01*
Y153791D01*
X53772D01*
Y153646D01*
X53917D01*
Y153065D01*
X54062D01*
Y152774D01*
X54208D01*
Y152338D01*
X54353D01*
Y152192D01*
X54498D01*
Y151901D01*
X54644D01*
Y151756D01*
X54789D01*
Y151465D01*
X54935D01*
Y151320D01*
X55080D01*
Y151175D01*
X55225D01*
Y151029D01*
X55371D01*
Y150884D01*
X55516D01*
Y150593D01*
X55807D01*
Y150302D01*
X56098D01*
Y150012D01*
X56388D01*
Y149721D01*
X56679D01*
Y149430D01*
X56970D01*
Y149285D01*
X57261D01*
Y149139D01*
X57406D01*
Y148994D01*
X57551D01*
Y148848D01*
X57842D01*
Y148703D01*
X58133D01*
Y148558D01*
X58279D01*
Y148412D01*
X58715D01*
Y148267D01*
X58860D01*
Y148122D01*
X59587D01*
Y147976D01*
X60023D01*
Y147831D01*
X60605D01*
Y147685D01*
X60750D01*
Y147540D01*
X61622D01*
Y147395D01*
X63367D01*
Y147540D01*
X65112D01*
Y147685D01*
X65402D01*
Y147831D01*
X66129D01*
Y147976D01*
X66565D01*
Y148122D01*
X66856D01*
Y148267D01*
X67147D01*
Y148412D01*
X67438D01*
Y148558D01*
X67583D01*
Y148703D01*
X67874D01*
Y148848D01*
X68310D01*
Y148994D01*
X68455D01*
Y149139D01*
X68601D01*
Y149285D01*
X68892D01*
Y149430D01*
X69037D01*
Y149721D01*
X69328D01*
Y149866D01*
X69473D01*
Y150012D01*
X69764D01*
Y150157D01*
X69909D01*
Y150302D01*
X70055D01*
Y150593D01*
X70200D01*
Y150739D01*
X70345D01*
Y150884D01*
X70491D01*
Y151175D01*
X70636D01*
Y151320D01*
X70781D01*
Y151465D01*
X70927D01*
Y151611D01*
X71072D01*
Y151901D01*
X71218D01*
Y152192D01*
X71363D01*
Y152483D01*
X71509D01*
Y152774D01*
X71654D01*
Y153065D01*
X71799D01*
Y153501D01*
X71945D01*
Y153646D01*
X72090D01*
Y154373D01*
X72235D01*
Y154664D01*
X72381D01*
Y155245D01*
X72526D01*
Y156118D01*
X72672D01*
Y159316D01*
X72526D01*
Y159461D01*
X72381D01*
Y160043D01*
X72235D01*
Y160188D01*
X72090D01*
Y161061D01*
X71945D01*
Y161206D01*
X71799D01*
Y161497D01*
X71654D01*
Y161788D01*
X71509D01*
Y162078D01*
X71363D01*
Y162369D01*
X71218D01*
Y162515D01*
X71072D01*
Y162951D01*
X70781D01*
Y163242D01*
X70636D01*
Y163387D01*
X70491D01*
Y163532D01*
X70345D01*
Y163678D01*
X70200D01*
Y163969D01*
X70055D01*
Y164114D01*
X69909D01*
Y164259D01*
X69764D01*
Y164405D01*
X69618D01*
Y164550D01*
X69328D01*
Y164695D01*
X69182D01*
Y164841D01*
X69037D01*
Y164986D01*
X68892D01*
Y165131D01*
X68601D01*
Y165422D01*
X68310D01*
Y165713D01*
X68019D01*
Y165858D01*
X67729D01*
Y166004D01*
X67438D01*
Y166149D01*
X67147D01*
Y166295D01*
X66856D01*
Y166440D01*
X66420D01*
Y166585D01*
X66275D01*
Y166440D01*
X66129D01*
Y166585D01*
X65984D01*
Y166731D01*
X64966D01*
Y166876D01*
X63803D01*
Y167022D01*
D02*
G37*
%LPD*%
G36*
X65984Y161061D02*
X66129D01*
Y160770D01*
X66275D01*
Y160625D01*
X66420D01*
Y159316D01*
X66275D01*
Y159025D01*
X66129D01*
Y158880D01*
X65984D01*
Y158735D01*
X65548D01*
Y158880D01*
X65257D01*
Y159025D01*
X65112D01*
Y159316D01*
X64966D01*
Y160915D01*
X65112D01*
Y161061D01*
X65402D01*
Y161206D01*
X65984D01*
Y161061D01*
D02*
G37*
G36*
X60314D02*
X60605D01*
Y160770D01*
X60750D01*
Y159316D01*
X60605D01*
Y159025D01*
X60459D01*
Y158735D01*
X59878D01*
Y158880D01*
X59732D01*
Y159025D01*
X59442D01*
Y159607D01*
X59296D01*
Y160479D01*
X59442D01*
Y160770D01*
X59587D01*
Y161061D01*
X59732D01*
Y161206D01*
X60314D01*
Y161061D01*
D02*
G37*
G36*
X69909Y158880D02*
X70200D01*
Y158589D01*
X70345D01*
Y158008D01*
X70200D01*
Y156845D01*
X70055D01*
Y156409D01*
X69909D01*
Y155682D01*
X69764D01*
Y155391D01*
X69618D01*
Y155100D01*
X69473D01*
Y154955D01*
X69328D01*
Y154518D01*
X69182D01*
Y154373D01*
X69037D01*
Y154082D01*
X68892D01*
Y153791D01*
X68746D01*
Y153646D01*
X68601D01*
Y153355D01*
X68310D01*
Y153065D01*
X68165D01*
Y152919D01*
X68019D01*
Y152774D01*
X67729D01*
Y152483D01*
X67438D01*
Y152338D01*
X67292D01*
Y152192D01*
X67147D01*
Y152047D01*
X67001D01*
Y151901D01*
X66711D01*
Y151756D01*
X66565D01*
Y151611D01*
X66275D01*
Y151465D01*
X66129D01*
Y151320D01*
X65838D01*
Y151175D01*
X65112D01*
Y151029D01*
X64821D01*
Y150884D01*
X63658D01*
Y150739D01*
X62059D01*
Y150884D01*
X60895D01*
Y151029D01*
X60605D01*
Y151175D01*
X59878D01*
Y151320D01*
X59442D01*
Y151465D01*
X59296D01*
Y151611D01*
X58860D01*
Y151756D01*
X58569D01*
Y151901D01*
X58279D01*
Y152192D01*
X57988D01*
Y152338D01*
X57842D01*
Y152483D01*
X57551D01*
Y152774D01*
X57261D01*
Y153065D01*
X57115D01*
Y153210D01*
X56970D01*
Y153355D01*
X56825D01*
Y153501D01*
X56679D01*
Y153791D01*
X56388D01*
Y154082D01*
X56243D01*
Y154373D01*
X56098D01*
Y154664D01*
X55952D01*
Y154809D01*
X55807D01*
Y155245D01*
X55661D01*
Y155391D01*
X55516D01*
Y155827D01*
X55371D01*
Y156263D01*
X55225D01*
Y156554D01*
X55080D01*
Y158444D01*
X55371D01*
Y158589D01*
X55661D01*
Y158444D01*
X55952D01*
Y158299D01*
X56098D01*
Y156699D01*
X56243D01*
Y156263D01*
X56388D01*
Y155827D01*
X56534D01*
Y155536D01*
X56679D01*
Y155245D01*
X56825D01*
Y155100D01*
X56970D01*
Y154809D01*
X57115D01*
Y154664D01*
X57261D01*
Y154373D01*
X57551D01*
Y154082D01*
X57842D01*
Y153791D01*
X57988D01*
Y153646D01*
X58133D01*
Y153501D01*
X58279D01*
Y153355D01*
X58569D01*
Y153065D01*
X58860D01*
Y152774D01*
X59151D01*
Y152629D01*
X59296D01*
Y152483D01*
X59732D01*
Y152192D01*
X60168D01*
Y152047D01*
X60459D01*
Y151901D01*
X61331D01*
Y151756D01*
X63658D01*
Y151901D01*
X64675D01*
Y152047D01*
X64966D01*
Y152192D01*
X65548D01*
Y152338D01*
X65693D01*
Y152483D01*
X65984D01*
Y152629D01*
X66129D01*
Y152774D01*
X66275D01*
Y152919D01*
X66565D01*
Y153065D01*
X66856D01*
Y153355D01*
X67147D01*
Y153646D01*
X67438D01*
Y153791D01*
X67583D01*
Y153937D01*
X67729D01*
Y154082D01*
X67874D01*
Y154373D01*
X68019D01*
Y154664D01*
X68310D01*
Y155100D01*
X68455D01*
Y155245D01*
X68601D01*
Y155682D01*
X68746D01*
Y155827D01*
X68892D01*
Y156554D01*
X69037D01*
Y157135D01*
X69182D01*
Y158299D01*
X69328D01*
Y158880D01*
X69618D01*
Y159025D01*
X69909D01*
Y158880D01*
D02*
G37*
%LPC*%
G36*
X87792Y205112D02*
X85901D01*
Y204967D01*
X84884D01*
Y204821D01*
X84302D01*
Y204676D01*
X83575D01*
Y204531D01*
X83139D01*
Y204385D01*
X82558D01*
Y204240D01*
X82412D01*
Y204095D01*
X81831D01*
Y203949D01*
X81540D01*
Y203804D01*
X80813D01*
Y203659D01*
X80522D01*
Y203513D01*
X80231D01*
Y203368D01*
X79795D01*
Y203222D01*
X79650D01*
Y203077D01*
X79214D01*
Y202931D01*
X79068D01*
Y202786D01*
X78778D01*
Y202641D01*
X78632D01*
Y202495D01*
X78342D01*
Y202350D01*
X78196D01*
Y202205D01*
X77905D01*
Y202059D01*
X77760D01*
Y201914D01*
X77469D01*
Y201768D01*
X77324D01*
Y201623D01*
X77033D01*
Y201478D01*
X76888D01*
Y201332D01*
X76597D01*
Y201042D01*
X76306D01*
Y200896D01*
X76161D01*
Y200751D01*
X76015D01*
Y200605D01*
X75725D01*
Y200315D01*
X75434D01*
Y200024D01*
X75143D01*
Y199733D01*
X74852D01*
Y199442D01*
X74562D01*
Y199152D01*
X74416D01*
Y198861D01*
X74125D01*
Y198570D01*
X73980D01*
Y198425D01*
X73835D01*
Y198279D01*
X73689D01*
Y198134D01*
X73544D01*
Y197843D01*
X73399D01*
Y197552D01*
X73253D01*
Y197262D01*
X73108D01*
Y197116D01*
X72962D01*
Y196825D01*
X72817D01*
Y196680D01*
X72672D01*
Y196244D01*
X72526D01*
Y196098D01*
X72381D01*
Y195662D01*
X72235D01*
Y195371D01*
X72090D01*
Y194935D01*
X71945D01*
Y194645D01*
X71799D01*
Y193918D01*
X71654D01*
Y192609D01*
X71509D01*
Y188684D01*
X71654D01*
Y187666D01*
X71799D01*
Y186794D01*
X71945D01*
Y186503D01*
X72090D01*
Y186067D01*
X72235D01*
Y185776D01*
X72381D01*
Y185340D01*
X72526D01*
Y185195D01*
X72672D01*
Y184613D01*
X72817D01*
Y184322D01*
X72962D01*
Y183741D01*
X73108D01*
Y183595D01*
X73253D01*
Y183014D01*
X73399D01*
Y182869D01*
X73544D01*
Y182432D01*
X73689D01*
Y182141D01*
X73835D01*
Y181851D01*
X73980D01*
Y181560D01*
X74125D01*
Y181269D01*
X74271D01*
Y181124D01*
X74416D01*
Y180542D01*
X74562D01*
Y180252D01*
X74707D01*
Y179961D01*
X74852D01*
Y179670D01*
X75143D01*
Y179379D01*
X75288D01*
Y179234D01*
X75434D01*
Y178943D01*
X75579D01*
Y178798D01*
X75725D01*
Y178652D01*
X75870D01*
Y178361D01*
X76015D01*
Y178071D01*
X76306D01*
Y177780D01*
X76451D01*
Y177635D01*
X76597D01*
Y177344D01*
X76742D01*
Y177199D01*
X76888D01*
Y176908D01*
X77033D01*
Y176762D01*
X77179D01*
Y176617D01*
X77324D01*
Y176326D01*
X77469D01*
Y176181D01*
X77615D01*
Y176035D01*
X77760D01*
Y175890D01*
X77905D01*
Y175745D01*
X78051D01*
Y175599D01*
X78196D01*
Y175309D01*
X78487D01*
Y175018D01*
X78778D01*
Y174727D01*
X79068D01*
Y174436D01*
X79214D01*
Y174291D01*
X79359D01*
Y174145D01*
X79505D01*
Y174000D01*
X79650D01*
Y173855D01*
X79795D01*
Y173709D01*
X79941D01*
Y173564D01*
X80086D01*
Y173418D01*
X80231D01*
Y173273D01*
X80377D01*
Y173128D01*
X80668D01*
Y172837D01*
X80958D01*
Y172546D01*
X81249D01*
Y172255D01*
X81540D01*
Y172110D01*
X81685D01*
Y171965D01*
X81831D01*
Y171819D01*
X81976D01*
Y171674D01*
X82121D01*
Y171528D01*
X82412D01*
Y171383D01*
X82558D01*
Y171092D01*
X86483D01*
Y173128D01*
X86338D01*
Y173855D01*
X86192D01*
Y182723D01*
X86338D01*
Y184322D01*
X86483D01*
Y185922D01*
X86629D01*
Y186358D01*
X86774D01*
Y187085D01*
X86919D01*
Y187666D01*
X87065D01*
Y188539D01*
X87210D01*
Y188829D01*
X87355D01*
Y189847D01*
X87501D01*
Y190138D01*
X87646D01*
Y190865D01*
X87792D01*
Y191301D01*
X87937D01*
Y191882D01*
X88082D01*
Y192318D01*
X88228D01*
Y192755D01*
X88373D01*
Y193191D01*
X88519D01*
Y193627D01*
X88664D01*
Y194063D01*
X88809D01*
Y194354D01*
X88955D01*
Y194935D01*
X89100D01*
Y195081D01*
X89245D01*
Y195517D01*
X89391D01*
Y195662D01*
X89536D01*
Y196098D01*
X89682D01*
Y196244D01*
X89827D01*
Y196680D01*
X89972D01*
Y196825D01*
X90118D01*
Y197262D01*
X90263D01*
Y197407D01*
X90408D01*
Y197843D01*
X90554D01*
Y197988D01*
X90699D01*
Y198279D01*
X90845D01*
Y198715D01*
X90990D01*
Y198861D01*
X91135D01*
Y199297D01*
X91281D01*
Y199442D01*
X91426D01*
Y199733D01*
X91717D01*
Y200024D01*
X91862D01*
Y200169D01*
X92008D01*
Y200315D01*
X92153D01*
Y200605D01*
X92299D01*
Y200751D01*
X92444D01*
Y200896D01*
X92589D01*
Y201042D01*
X92735D01*
Y201187D01*
X92880D01*
Y201332D01*
X93025D01*
Y201478D01*
X93171D01*
Y201623D01*
X93316D01*
Y201914D01*
X93462D01*
Y202059D01*
X93607D01*
Y202205D01*
X93752D01*
Y202641D01*
X93607D01*
Y202786D01*
X93316D01*
Y203077D01*
X93025D01*
Y203222D01*
X92880D01*
Y203368D01*
X92589D01*
Y203513D01*
X92299D01*
Y203659D01*
X92153D01*
Y203804D01*
X91862D01*
Y203949D01*
X91717D01*
Y204095D01*
X91135D01*
Y204240D01*
X90845D01*
Y204385D01*
X90408D01*
Y204531D01*
X90263D01*
Y204676D01*
X89827D01*
Y204821D01*
X89536D01*
Y204967D01*
X87792D01*
Y205112D01*
D02*
G37*
G36*
X102475Y204676D02*
X100295D01*
Y204531D01*
X100004D01*
Y204385D01*
X98841D01*
Y204240D01*
X98695D01*
Y204095D01*
X98405D01*
Y203949D01*
X98114D01*
Y203804D01*
X97532D01*
Y203659D01*
X97387D01*
Y203513D01*
X96951D01*
Y203368D01*
X96369D01*
Y203222D01*
X96078D01*
Y203077D01*
X95933D01*
Y202931D01*
X95788D01*
Y202786D01*
X95642D01*
Y202641D01*
X95497D01*
Y202495D01*
X95351D01*
Y202350D01*
X95206D01*
Y202205D01*
X94915D01*
Y202059D01*
X94770D01*
Y201914D01*
X94625D01*
Y201768D01*
X94479D01*
Y201478D01*
X94334D01*
Y201332D01*
X94188D01*
Y201042D01*
X93898D01*
Y200896D01*
X93752D01*
Y200605D01*
X93607D01*
Y200460D01*
X93462D01*
Y200315D01*
X93316D01*
Y200024D01*
X93171D01*
Y199879D01*
X93025D01*
Y199733D01*
X92880D01*
Y199442D01*
X92735D01*
Y199297D01*
X92589D01*
Y199152D01*
X92444D01*
Y199006D01*
X92299D01*
Y198715D01*
X92153D01*
Y198570D01*
X92008D01*
Y198279D01*
X91862D01*
Y198134D01*
X91717D01*
Y197698D01*
X91571D01*
Y197552D01*
X91426D01*
Y197262D01*
X91281D01*
Y196971D01*
X91135D01*
Y196680D01*
X90990D01*
Y196389D01*
X90845D01*
Y196098D01*
X90699D01*
Y195953D01*
X90554D01*
Y195662D01*
X90408D01*
Y195371D01*
X90263D01*
Y195081D01*
X90118D01*
Y194790D01*
X89972D01*
Y194499D01*
X89827D01*
Y193918D01*
X89682D01*
Y193627D01*
X89536D01*
Y193045D01*
X89391D01*
Y192755D01*
X89245D01*
Y192173D01*
X89100D01*
Y191882D01*
X88955D01*
Y191155D01*
X88809D01*
Y190865D01*
X88664D01*
Y190138D01*
X88519D01*
Y189992D01*
X88373D01*
Y189847D01*
X88519D01*
Y189556D01*
X88373D01*
Y188684D01*
X88228D01*
Y188248D01*
X88082D01*
Y187085D01*
X87937D01*
Y186212D01*
X87792D01*
Y185485D01*
X87646D01*
Y184031D01*
X87501D01*
Y183014D01*
X87355D01*
Y180542D01*
X87210D01*
Y175599D01*
X87355D01*
Y173564D01*
X87501D01*
Y172546D01*
X87646D01*
Y171238D01*
X87792D01*
Y170656D01*
X87937D01*
Y169784D01*
X88082D01*
Y168912D01*
X88228D01*
Y168475D01*
X88373D01*
Y167603D01*
X88519D01*
Y167458D01*
X100440D01*
Y167603D01*
X100876D01*
Y167748D01*
X101167D01*
Y167894D01*
X101458D01*
Y168039D01*
X101603D01*
Y168185D01*
X102039D01*
Y168330D01*
X102185D01*
Y168475D01*
X102766D01*
Y168621D01*
X103057D01*
Y168766D01*
X103348D01*
Y168912D01*
X103639D01*
Y169057D01*
X103784D01*
Y169202D01*
X104220D01*
Y169493D01*
X104656D01*
Y169784D01*
X104947D01*
Y169929D01*
X105092D01*
Y170075D01*
X105383D01*
Y170220D01*
X105528D01*
Y170365D01*
X105819D01*
Y170656D01*
X106110D01*
Y170801D01*
X106255D01*
Y170947D01*
X106401D01*
Y171092D01*
X106692D01*
Y171383D01*
X106982D01*
Y171528D01*
X107128D01*
Y171674D01*
X107273D01*
Y171819D01*
X107419D01*
Y171965D01*
X107564D01*
Y172110D01*
X107709D01*
Y172255D01*
X107855D01*
Y172401D01*
X108000D01*
Y172546D01*
X108145D01*
Y172692D01*
X108291D01*
Y172837D01*
X108581D01*
Y173128D01*
X108872D01*
Y173418D01*
X109163D01*
Y173564D01*
X109309D01*
Y173709D01*
X109454D01*
Y173855D01*
X109599D01*
Y174145D01*
X109745D01*
Y174291D01*
X109890D01*
Y174436D01*
X110035D01*
Y174582D01*
X110181D01*
Y174727D01*
X110326D01*
Y175018D01*
X110471D01*
Y175163D01*
X110617D01*
Y175309D01*
X110762D01*
Y175599D01*
X111053D01*
Y175890D01*
X111198D01*
Y176035D01*
X111344D01*
Y176181D01*
X111489D01*
Y176326D01*
X111635D01*
Y176617D01*
X111780D01*
Y176762D01*
X111925D01*
Y176908D01*
X112071D01*
Y177053D01*
X112216D01*
Y177344D01*
X112362D01*
Y177635D01*
X112507D01*
Y177780D01*
X112652D01*
Y178071D01*
X112943D01*
Y178361D01*
X113089D01*
Y178507D01*
X113234D01*
Y178798D01*
X113379D01*
Y178943D01*
X113525D01*
Y179088D01*
X113670D01*
Y179379D01*
X113815D01*
Y179815D01*
X113961D01*
Y179961D01*
X114106D01*
Y180397D01*
X114251D01*
Y180542D01*
X114397D01*
Y180979D01*
X114542D01*
Y181124D01*
X114688D01*
Y181560D01*
X114833D01*
Y181705D01*
X114979D01*
Y182141D01*
X115124D01*
Y182432D01*
X115269D01*
Y182723D01*
X115415D01*
Y183014D01*
X115560D01*
Y183305D01*
X115705D01*
Y183741D01*
X115851D01*
Y184031D01*
X115996D01*
Y184468D01*
X116141D01*
Y184613D01*
X116287D01*
Y185195D01*
X116432D01*
Y185485D01*
X116578D01*
Y186067D01*
X116723D01*
Y186212D01*
X116868D01*
Y187375D01*
X117014D01*
Y187957D01*
X117159D01*
Y192464D01*
X117014D01*
Y192900D01*
X116868D01*
Y193627D01*
X116723D01*
Y194209D01*
X116578D01*
Y194790D01*
X116432D01*
Y194935D01*
X116287D01*
Y195517D01*
X116141D01*
Y195662D01*
X115996D01*
Y196098D01*
X115851D01*
Y196244D01*
X115705D01*
Y196535D01*
X115560D01*
Y196680D01*
X115415D01*
Y196971D01*
X115269D01*
Y197116D01*
X115124D01*
Y197552D01*
X114979D01*
Y197843D01*
X114688D01*
Y198134D01*
X114542D01*
Y198279D01*
X114397D01*
Y198425D01*
X114251D01*
Y198570D01*
X114106D01*
Y198861D01*
X113815D01*
Y199152D01*
X113670D01*
Y199297D01*
X113525D01*
Y199442D01*
X113379D01*
Y199588D01*
X113234D01*
Y199733D01*
X113089D01*
Y199879D01*
X112943D01*
Y200024D01*
X112798D01*
Y200169D01*
X112652D01*
Y200315D01*
X112362D01*
Y200605D01*
X112216D01*
Y200751D01*
X112071D01*
Y200896D01*
X111780D01*
Y201042D01*
X111489D01*
Y201187D01*
X111344D01*
Y201332D01*
X111053D01*
Y201478D01*
X110908D01*
Y201623D01*
X110617D01*
Y201768D01*
X110471D01*
Y201914D01*
X110181D01*
Y202059D01*
X110035D01*
Y202205D01*
X109745D01*
Y202350D01*
X109599D01*
Y202495D01*
X109309D01*
Y202641D01*
X109018D01*
Y202786D01*
X108727D01*
Y202931D01*
X108581D01*
Y203077D01*
X108145D01*
Y203222D01*
X108000D01*
Y203368D01*
X107564D01*
Y203513D01*
X107128D01*
Y203659D01*
X106692D01*
Y203804D01*
X105819D01*
Y203949D01*
X105528D01*
Y204095D01*
X104801D01*
Y204240D01*
X104365D01*
Y204385D01*
X103057D01*
Y204531D01*
X102475D01*
Y204676D01*
D02*
G37*
G36*
X79650Y169493D02*
X79068D01*
Y169348D01*
X78778D01*
Y169202D01*
X78342D01*
Y169057D01*
X78196D01*
Y168912D01*
X77760D01*
Y168766D01*
X77615D01*
Y168621D01*
X77324D01*
Y168475D01*
X77033D01*
Y168330D01*
X76888D01*
Y168185D01*
X76597D01*
Y168039D01*
X76451D01*
Y167894D01*
X76306D01*
Y167748D01*
X76015D01*
Y167603D01*
X75870D01*
Y167458D01*
X75725D01*
Y167312D01*
X75434D01*
Y167022D01*
X75143D01*
Y166731D01*
X74998D01*
Y166585D01*
X74852D01*
Y166440D01*
X74707D01*
Y166295D01*
X74562D01*
Y166149D01*
X74416D01*
Y166004D01*
X74271D01*
Y165858D01*
X74125D01*
Y165568D01*
X73980D01*
Y165422D01*
X73835D01*
Y164695D01*
X73980D01*
Y164550D01*
X74125D01*
Y164114D01*
X74271D01*
Y163969D01*
X74416D01*
Y163678D01*
X74562D01*
Y163532D01*
X74852D01*
Y162951D01*
X74998D01*
Y162660D01*
X75143D01*
Y162369D01*
X75288D01*
Y161788D01*
X75434D01*
Y161206D01*
X75579D01*
Y160915D01*
X75725D01*
Y160479D01*
X75870D01*
Y160188D01*
X76015D01*
Y159316D01*
X76161D01*
Y158008D01*
X76306D01*
Y155827D01*
X76161D01*
Y155391D01*
X76015D01*
Y153646D01*
X75870D01*
Y153355D01*
X75725D01*
Y152919D01*
X75579D01*
Y152774D01*
X75434D01*
Y152192D01*
X75288D01*
Y152047D01*
X75143D01*
Y151611D01*
X74998D01*
Y151320D01*
X74852D01*
Y151029D01*
X74707D01*
Y150884D01*
X74562D01*
Y150302D01*
X74416D01*
Y150012D01*
X74271D01*
Y149866D01*
X74125D01*
Y149575D01*
X73980D01*
Y149430D01*
X73835D01*
Y149139D01*
X73689D01*
Y148994D01*
X73544D01*
Y148703D01*
X73253D01*
Y148412D01*
X73108D01*
Y148122D01*
X73253D01*
Y147831D01*
X73399D01*
Y147685D01*
X73544D01*
Y147395D01*
X73689D01*
Y147249D01*
X73835D01*
Y146958D01*
X74125D01*
Y146668D01*
X74416D01*
Y146377D01*
X74562D01*
Y146231D01*
X74852D01*
Y145941D01*
X75143D01*
Y145650D01*
X75434D01*
Y145359D01*
X75725D01*
Y145069D01*
X76015D01*
Y144923D01*
X76161D01*
Y144778D01*
X76451D01*
Y144632D01*
X76597D01*
Y144487D01*
X76888D01*
Y144342D01*
X77179D01*
Y144196D01*
X77469D01*
Y144051D01*
X77615D01*
Y144487D01*
X77760D01*
Y144632D01*
X77905D01*
Y144923D01*
X78051D01*
Y145069D01*
X78196D01*
Y145359D01*
X78342D01*
Y145650D01*
X78487D01*
Y145795D01*
X78632D01*
Y146086D01*
X78778D01*
Y146377D01*
X79068D01*
Y146813D01*
X79214D01*
Y146958D01*
X79359D01*
Y147540D01*
X79505D01*
Y147831D01*
X79650D01*
Y148412D01*
X79795D01*
Y148703D01*
X79941D01*
Y149139D01*
X80086D01*
Y149721D01*
X80231D01*
Y150012D01*
X80377D01*
Y150593D01*
X80522D01*
Y151029D01*
X80668D01*
Y151320D01*
X80522D01*
Y151465D01*
X80668D01*
Y151901D01*
X80813D01*
Y152047D01*
X80668D01*
Y152192D01*
X80813D01*
Y152629D01*
X80958D01*
Y153501D01*
X81104D01*
Y153791D01*
X81249D01*
Y155972D01*
X81395D01*
Y156845D01*
X81540D01*
Y159171D01*
Y159316D01*
Y161206D01*
X81395D01*
Y162078D01*
X81249D01*
Y163969D01*
X81104D01*
Y164259D01*
X80958D01*
Y165131D01*
X80813D01*
Y166004D01*
X80668D01*
Y166876D01*
X80522D01*
Y167167D01*
X80377D01*
Y167603D01*
X80231D01*
Y167894D01*
X80086D01*
Y168330D01*
X79941D01*
Y168766D01*
X79795D01*
Y168912D01*
X79650D01*
Y169493D01*
D02*
G37*
G36*
X104947Y168475D02*
X104365D01*
Y168330D01*
X104220D01*
Y168185D01*
X104075D01*
Y168039D01*
X103929D01*
Y167894D01*
X103784D01*
Y167748D01*
X103639D01*
Y167312D01*
X103784D01*
Y167022D01*
X103929D01*
Y166876D01*
X103784D01*
Y166731D01*
X103929D01*
Y166440D01*
X104075D01*
Y166149D01*
X104220D01*
Y165131D01*
X104365D01*
Y164114D01*
X104511D01*
Y163678D01*
X104656D01*
Y162951D01*
X104801D01*
Y161352D01*
X104947D01*
Y152919D01*
X104801D01*
Y152338D01*
X104656D01*
Y151320D01*
X104511D01*
Y150739D01*
X104365D01*
Y149721D01*
X104220D01*
Y148994D01*
X104075D01*
Y148558D01*
X103929D01*
Y147395D01*
X103784D01*
Y146813D01*
X103639D01*
Y146377D01*
X103493D01*
Y146231D01*
Y146086D01*
X103348D01*
Y145650D01*
X103202D01*
Y145359D01*
X103057D01*
Y144778D01*
X102911D01*
Y144487D01*
X102766D01*
Y144051D01*
X102621D01*
Y143615D01*
X102766D01*
Y143760D01*
X103202D01*
Y143905D01*
X103639D01*
Y144051D01*
X103929D01*
Y144196D01*
X104365D01*
Y144342D01*
X104511D01*
Y144487D01*
X104947D01*
Y144632D01*
X105092D01*
Y144778D01*
X105528D01*
Y144923D01*
X105674D01*
Y145069D01*
X106110D01*
Y145214D01*
X106255D01*
Y145359D01*
X106546D01*
Y145505D01*
X106692D01*
Y145650D01*
X106837D01*
Y145795D01*
X106982D01*
Y145941D01*
X107128D01*
Y146086D01*
X107273D01*
Y146231D01*
X107419D01*
Y146377D01*
X107709D01*
Y146522D01*
X107855D01*
Y146668D01*
X108000D01*
Y146813D01*
X108145D01*
Y146958D01*
X108291D01*
Y147104D01*
X108436D01*
Y147249D01*
X108581D01*
Y147395D01*
X108727D01*
Y147540D01*
X108872D01*
Y147685D01*
X109018D01*
Y147831D01*
X109163D01*
Y147976D01*
X109309D01*
Y148122D01*
X109454D01*
Y148267D01*
X109599D01*
Y148703D01*
X109745D01*
Y148848D01*
X109890D01*
Y149139D01*
X110035D01*
Y149285D01*
X110181D01*
Y149721D01*
X110326D01*
Y149866D01*
X110471D01*
Y150157D01*
X110617D01*
Y150448D01*
X110762D01*
Y150884D01*
X110908D01*
Y151175D01*
X111053D01*
Y151611D01*
X111198D01*
Y151901D01*
X111344D01*
Y152483D01*
X111489D01*
Y152774D01*
X111635D01*
Y153355D01*
X111780D01*
Y153646D01*
X111925D01*
Y154082D01*
X112071D01*
Y155827D01*
X112216D01*
Y156845D01*
X112071D01*
Y157717D01*
X111925D01*
Y159025D01*
X111780D01*
Y159316D01*
X111635D01*
Y160479D01*
X111489D01*
Y160625D01*
X111344D01*
Y161061D01*
X111198D01*
Y161206D01*
X111053D01*
Y161788D01*
X110908D01*
Y162078D01*
X110762D01*
Y162515D01*
X110617D01*
Y162951D01*
X110471D01*
Y163242D01*
X110181D01*
Y163532D01*
X110035D01*
Y163678D01*
X109890D01*
Y163969D01*
X109745D01*
Y164114D01*
X109599D01*
Y164405D01*
X109454D01*
Y164550D01*
X109309D01*
Y164841D01*
X109163D01*
Y164986D01*
X109018D01*
Y165131D01*
X108872D01*
Y165422D01*
X108581D01*
Y165713D01*
X108436D01*
Y165858D01*
X108291D01*
Y166004D01*
X108145D01*
Y166149D01*
X108000D01*
Y166295D01*
X107855D01*
Y166440D01*
X107709D01*
Y166585D01*
X107419D01*
Y166731D01*
X107128D01*
Y167022D01*
X106837D01*
Y167167D01*
X106692D01*
Y167312D01*
X106401D01*
Y167603D01*
X106110D01*
Y167748D01*
X105965D01*
Y167894D01*
X105674D01*
Y168039D01*
X105528D01*
Y168185D01*
X105092D01*
Y168330D01*
X104947D01*
Y168475D01*
D02*
G37*
G36*
X96369Y166295D02*
X88082D01*
Y165713D01*
X88228D01*
Y165422D01*
X88373D01*
Y164550D01*
X88519D01*
Y164259D01*
X88664D01*
Y163532D01*
X88809D01*
Y162951D01*
X88955D01*
Y161206D01*
X89100D01*
Y160334D01*
X89245D01*
Y155536D01*
X89100D01*
Y155245D01*
X89245D01*
Y155100D01*
X89100D01*
Y154955D01*
X89245D01*
Y154809D01*
X89100D01*
Y154664D01*
X89245D01*
Y154518D01*
X89100D01*
Y154373D01*
X89245D01*
Y154228D01*
X89100D01*
Y154082D01*
X89245D01*
Y153937D01*
X89100D01*
Y152919D01*
X88955D01*
Y152047D01*
X88809D01*
Y151320D01*
X88664D01*
Y150448D01*
X88519D01*
Y149721D01*
X88373D01*
Y148994D01*
X88228D01*
Y148558D01*
X88082D01*
Y147831D01*
X87937D01*
Y146958D01*
X87792D01*
Y146377D01*
X87646D01*
Y145941D01*
X87501D01*
Y145650D01*
X87355D01*
Y145214D01*
X87210D01*
Y144923D01*
X87065D01*
Y144487D01*
X86919D01*
Y144196D01*
X86774D01*
Y143760D01*
X86629D01*
Y143615D01*
X86483D01*
Y142888D01*
X94770D01*
Y143469D01*
X94915D01*
Y143760D01*
X95061D01*
Y144196D01*
X95206D01*
Y144487D01*
X95351D01*
Y144923D01*
X95497D01*
Y145214D01*
X95642D01*
Y145650D01*
X95788D01*
Y145941D01*
X95933D01*
Y146522D01*
X96078D01*
Y147249D01*
X96224D01*
Y147685D01*
X96369D01*
Y148412D01*
X96515D01*
Y148703D01*
X96660D01*
Y149430D01*
X96805D01*
Y149575D01*
X96951D01*
Y151320D01*
X97096D01*
Y152192D01*
X97241D01*
Y153355D01*
X97387D01*
Y156118D01*
X97532D01*
Y158008D01*
X97387D01*
Y160479D01*
X97241D01*
Y161642D01*
X97096D01*
Y162369D01*
X96951D01*
Y163969D01*
X96805D01*
Y164259D01*
X96660D01*
Y165131D01*
X96515D01*
Y165713D01*
X96369D01*
Y166295D01*
D02*
G37*
%LPD*%
D10*
X599100Y96645D02*
X598312D01*
X599100D01*
X317894Y115342D02*
X317106D01*
X317894D01*
X250394Y150224D02*
X249606D01*
X250394D01*
X580394Y148071D02*
X579606D01*
X580394D01*
X485394D02*
X484606D01*
X485394D01*
X630394Y150835D02*
X629606D01*
X630394D01*
X172059Y397500D02*
X171272D01*
X172059D01*
X172461Y355000D02*
X171673D01*
X172461D01*
X374394Y185500D02*
X373606D01*
X374394D01*
X288999Y104370D02*
X288212D01*
X288999D01*
X253999D02*
X253212D01*
X253999D01*
X218999D02*
X218212D01*
X218999D01*
X31275Y195221D02*
X50866Y217992D01*
X31325Y144721D02*
X50866Y122008D01*
Y122008D02*
X154842D01*
X50866Y217992D02*
X154842D01*
Y122008D02*
Y217992D01*
X512716Y111102D02*
X527283D01*
X512716Y98898D02*
X527283D01*
X512716D02*
Y111102D01*
X527283Y98898D02*
Y111102D01*
X407717D02*
X422284D01*
X407717Y98898D02*
X422284D01*
X407717D02*
Y111102D01*
X422284Y98898D02*
Y111102D01*
X575906Y467244D02*
Y471181D01*
X572756Y467244D02*
X575906D01*
X564094D02*
Y471181D01*
Y467244D02*
X567244D01*
X625000Y320000D02*
Y380000D01*
X605000D02*
X625000D01*
X605000Y320000D02*
Y380000D01*
Y320000D02*
X625000D01*
X535000Y440000D02*
X555000D01*
X535000Y310000D02*
X555000D01*
X535000D02*
Y440000D01*
X555000Y310000D02*
Y440000D01*
X291794Y75374D02*
Y84626D01*
X316204Y75374D02*
Y84626D01*
X256794Y75374D02*
Y84626D01*
X281204Y75374D02*
Y84626D01*
X221794Y75374D02*
Y84626D01*
X246204Y75374D02*
Y84626D01*
X565433Y535217D02*
Y542894D01*
X576161Y524685D02*
X583839D01*
X594567Y535217D02*
Y542894D01*
X445433Y535217D02*
Y542894D01*
X456161Y524685D02*
X463839D01*
X474567Y535217D02*
Y542894D01*
X325433Y535217D02*
Y542894D01*
X336161Y524685D02*
X343839D01*
X354567Y535217D02*
Y542894D01*
X205433Y535217D02*
Y542894D01*
X216161Y524685D02*
X223839D01*
X234567Y535217D02*
Y542894D01*
X85433Y535217D02*
Y542894D01*
X96161Y524685D02*
X103839D01*
X114567Y535217D02*
Y542894D01*
X40512Y271142D02*
X45433D01*
X40512Y308858D02*
X45433D01*
X617441Y94252D02*
X620650D01*
X617441D02*
Y96850D01*
Y105748D02*
X620650D01*
X617441Y103150D02*
Y105748D01*
D11*
X56043Y119843D02*
X55305Y120269D01*
Y119416D01*
X56043Y119843D01*
X563563Y539055D02*
X562825Y539481D01*
Y538629D01*
X563563Y539055D01*
X443563D02*
X442825Y539481D01*
Y538629D01*
X443563Y539055D01*
X323563D02*
X322825Y539481D01*
Y538629D01*
X323563Y539055D01*
X203563D02*
X202825Y539481D01*
Y538629D01*
X203563Y539055D01*
X83563D02*
X82825Y539481D01*
Y538629D01*
X83563Y539055D01*
X624429Y92520D02*
X623691Y92946D01*
Y92093D01*
X624429Y92520D01*
X587677Y285000D02*
X586939Y285426D01*
Y284574D01*
X587677Y285000D01*
X550492Y464665D02*
X549754Y465092D01*
Y464239D01*
X550492Y464665D01*
X538307Y135000D02*
X537569Y135426D01*
Y134574D01*
X538307Y135000D01*
X492677Y285000D02*
X491939Y285426D01*
Y284574D01*
X492677Y285000D01*
D12*
X524528Y102835D02*
X524083Y103758D01*
X523084Y103986D01*
X522282Y103347D01*
Y102322D01*
X523084Y101683D01*
X524083Y101911D01*
X524528Y102835D01*
X419527D02*
X419083Y103758D01*
X418084Y103986D01*
X417282Y103347D01*
Y102322D01*
X418084Y101683D01*
X419083Y101911D01*
X419527Y102835D01*
D13*
X440000Y518500D02*
X439500Y519366D01*
X438500D01*
X438000Y518500D01*
X438500Y517634D01*
X439500D01*
X440000Y518500D01*
X320000D02*
X319500Y519366D01*
X318500D01*
X318000Y518500D01*
X318500Y517634D01*
X319500D01*
X320000Y518500D01*
X200000D02*
X199500Y519366D01*
X198500D01*
X198000Y518500D01*
X198500Y517634D01*
X199500D01*
X200000Y518500D01*
X80000D02*
X79500Y519366D01*
X78500D01*
X78000Y518500D01*
X78500Y517634D01*
X79500D01*
X80000Y518500D01*
D14*
X334331Y375000D02*
X334214Y375999D01*
X333870Y376944D01*
X333317Y377784D01*
X332586Y378474D01*
X331715Y378976D01*
X330752Y379265D01*
X329748Y379323D01*
X328758Y379149D01*
X327835Y378750D01*
X327028Y378150D01*
X326382Y377380D01*
X325931Y376481D01*
X325699Y375503D01*
Y374497D01*
X325931Y373519D01*
X326382Y372620D01*
X327028Y371850D01*
X327835Y371250D01*
X328758Y370851D01*
X329748Y370677D01*
X330752Y370735D01*
X331715Y371024D01*
X332586Y371526D01*
X333317Y372216D01*
X333870Y373056D01*
X334214Y374001D01*
X334331Y375000D01*
X264331D02*
X264214Y375999D01*
X263870Y376944D01*
X263317Y377784D01*
X262586Y378474D01*
X261715Y378976D01*
X260752Y379265D01*
X259748Y379323D01*
X258758Y379149D01*
X257835Y378750D01*
X257028Y378150D01*
X256382Y377380D01*
X255930Y376481D01*
X255699Y375503D01*
Y374497D01*
X255930Y373519D01*
X256382Y372620D01*
X257028Y371850D01*
X257835Y371250D01*
X258758Y370851D01*
X259748Y370677D01*
X260752Y370735D01*
X261715Y371024D01*
X262586Y371526D01*
X263317Y372216D01*
X263870Y373056D01*
X264214Y374001D01*
X264331Y375000D01*
X150000Y72500D02*
Y87500D01*
X135000Y72500D02*
Y87500D01*
X150000D01*
X135000Y72500D02*
X150000D01*
Y92500D02*
Y107500D01*
X135000Y92500D02*
Y107500D01*
X150000D01*
X135000Y92500D02*
X150000D01*
X362500Y454500D02*
X417500D01*
X362500Y535500D02*
X417500D01*
Y454500D02*
Y535500D01*
X362500Y454500D02*
Y535500D01*
X602500Y454500D02*
X657500D01*
X602500Y535500D02*
X657500D01*
Y454500D02*
Y535500D01*
X602500Y454500D02*
Y535500D01*
X482500Y454500D02*
X537500D01*
X482500Y535500D02*
X537500D01*
Y454500D02*
Y535500D01*
X482500Y454500D02*
Y535500D01*
X155000Y47500D02*
Y112500D01*
X110000Y47500D02*
Y112500D01*
X155000D01*
X110000Y47500D02*
X155000D01*
X242500Y454500D02*
X297500D01*
X242500Y535500D02*
X297500D01*
Y454500D02*
Y535500D01*
X242500Y454500D02*
Y535500D01*
X130000Y52500D02*
Y67500D01*
X115000Y52500D02*
Y67500D01*
X130000D01*
X115000Y52500D02*
X130000D01*
X122500Y454500D02*
X177500D01*
X122500Y535500D02*
X177500D01*
Y454500D02*
Y535500D01*
X122500Y454500D02*
Y535500D01*
X176476Y333150D02*
X322146D01*
X176476Y215039D02*
X322146D01*
X176476Y294961D02*
Y333150D01*
Y215039D02*
Y253228D01*
X426378Y442402D02*
Y466811D01*
X473622Y442402D02*
Y466811D01*
X426378D02*
X473622D01*
X426378Y442402D02*
X473622D01*
X306378D02*
Y466811D01*
X353622Y442402D02*
Y466811D01*
X306378D02*
X353622D01*
X306378Y442402D02*
X353622D01*
X186378D02*
Y466811D01*
X233622Y442402D02*
Y466811D01*
X186378D02*
X233622D01*
X186378Y442402D02*
X233622D01*
X66378D02*
Y466811D01*
X113622Y442402D02*
Y466811D01*
X66378D02*
X113622D01*
X66378Y442402D02*
X113622D01*
X320158Y365945D02*
Y384055D01*
X339055Y365945D02*
Y384055D01*
X250157Y365945D02*
Y384055D01*
X269055Y365945D02*
Y384055D01*
X520315Y41063D02*
Y62717D01*
X553780Y62717D02*
X553796Y65866D01*
X526221Y62717D02*
Y65866D01*
X534094Y62717D02*
Y65866D01*
X545905Y62717D02*
Y65866D01*
X520315Y62717D02*
X559685D01*
X559685Y41063D02*
Y62717D01*
X415315Y41063D02*
Y62717D01*
X448779Y62717D02*
X448796Y65866D01*
X421220Y62717D02*
Y65866D01*
X429095Y62717D02*
Y65866D01*
X440906Y62717D02*
Y65866D01*
X415315Y62717D02*
X454685D01*
X454685Y41063D02*
Y62717D01*
X553110Y278858D02*
Y282795D01*
X566890D01*
Y278858D02*
Y282795D01*
X458110Y278858D02*
Y282795D01*
X471890D01*
Y278858D02*
Y282795D01*
X150000Y52500D02*
Y67500D01*
X140000D02*
X150000D01*
X135000Y62500D02*
X140000Y67500D01*
X135000Y57500D02*
Y62500D01*
Y57500D02*
X140000Y52500D01*
X150000D01*
X130000Y72500D02*
Y87500D01*
X120000D02*
X130000D01*
X115000Y82500D02*
X120000Y87500D01*
X115000Y77500D02*
Y82500D01*
Y77500D02*
X120000Y72500D01*
X130000D01*
X120000Y92500D02*
X130000D01*
X115000Y97500D02*
X120000Y92500D01*
X115000Y97500D02*
Y102500D01*
X120000Y107500D01*
X130000D01*
Y92500D02*
Y107500D01*
X572750Y312750D02*
X573500D01*
X567500Y307500D02*
X572750Y312750D01*
X500000Y427500D02*
Y442500D01*
Y427500D02*
X507500Y420000D01*
Y317500D02*
Y420000D01*
Y317500D02*
X517500Y307500D01*
X567500D01*
X575000Y312750D02*
X650000D01*
X650000D02*
X650000Y442500D01*
X500000D02*
X650000D01*
X68501Y291001D02*
Y296999D01*
X71500D01*
X72500Y295999D01*
Y294000D01*
X71500Y293000D01*
X68501D01*
X70501D02*
X72500Y291001D01*
X74499D02*
X76499D01*
X75499D01*
Y296999D01*
X74499Y295999D01*
X586500Y90501D02*
Y94499D01*
X585501Y95499D01*
X583501D01*
X582502Y94499D01*
Y90501D01*
X583501Y89501D01*
X585501D01*
X584501Y91500D02*
X586500Y89501D01*
X585501D02*
X586500Y90501D01*
X591499Y89501D02*
Y95499D01*
X588500Y92500D01*
X592498D01*
X40853Y146766D02*
X40952Y148177D01*
X39640Y149685D01*
X38230Y149784D01*
X35212Y147161D01*
X35113Y145750D01*
X36425Y144241D01*
X37835Y144143D01*
X41016Y138960D02*
X38392Y141978D01*
X44034Y141584D01*
X44788Y142239D01*
X44887Y143650D01*
X43575Y145159D01*
X42165Y145257D01*
X364001Y212001D02*
Y217999D01*
X367000D01*
X367999Y216999D01*
Y215000D01*
X367000Y214000D01*
X364001D01*
X366000D02*
X367999Y212001D01*
Y206999D02*
X367000Y207999D01*
X365000D01*
X364001Y206999D01*
Y203001D01*
X365000Y202001D01*
X367000D01*
X367999Y203001D01*
Y205000D01*
X366000D01*
X364001Y197999D02*
Y192001D01*
X367000D01*
X367999Y193001D01*
Y194000D01*
X367000Y195000D01*
X364001D01*
X367000D01*
X367999Y196000D01*
Y196999D01*
X367000Y197999D01*
X364001D01*
X521503Y427999D02*
Y422001D01*
X524502D01*
X525502Y423001D01*
Y426999D01*
X524502Y427999D01*
X521503D01*
X527501Y426999D02*
X528501Y427999D01*
X530500D01*
X531500Y426999D01*
Y426000D01*
X530500Y425000D01*
X529501D01*
X530500D01*
X531500Y424000D01*
Y423001D01*
X530500Y422001D01*
X528501D01*
X527501Y423001D01*
X521503Y417999D02*
Y412001D01*
X524502D01*
X525502Y413001D01*
Y416999D01*
X524502Y417999D01*
X521503D01*
X531500Y412001D02*
X527501D01*
X531500Y416000D01*
Y416999D01*
X530500Y417999D01*
X528501D01*
X527501Y416999D01*
X525502Y406999D02*
X524502Y407999D01*
X522503D01*
X521503Y406999D01*
Y403001D01*
X522503Y402001D01*
X524502D01*
X525502Y403001D01*
X531500Y406999D02*
X530500Y407999D01*
X528501D01*
X527501Y406999D01*
Y406000D01*
X528501Y405000D01*
X530500D01*
X531500Y404000D01*
Y403001D01*
X530500Y402001D01*
X528501D01*
X527501Y403001D01*
X558500Y422001D02*
Y426000D01*
X560499Y427999D01*
X562499Y426000D01*
Y422001D01*
Y425000D01*
X558500D01*
X564498Y426999D02*
X565498Y427999D01*
X567497D01*
X568497Y426999D01*
Y423001D01*
X567497Y422001D01*
X565498D01*
X564498Y423001D01*
Y426999D01*
X558500Y312001D02*
Y317999D01*
X561499D01*
X562499Y316999D01*
Y315000D01*
X561499Y314000D01*
X558500D01*
X564498Y316999D02*
X565498Y317999D01*
X567497D01*
X568497Y316999D01*
Y316000D01*
X567497Y315000D01*
X566497D01*
X567497D01*
X568497Y314000D01*
Y313001D01*
X567497Y312001D01*
X565498D01*
X564498Y313001D01*
X558500Y322001D02*
Y327999D01*
X561499D01*
X562499Y326999D01*
Y325000D01*
X561499Y324000D01*
X558500D01*
X568497Y322001D02*
X564498D01*
X568497Y326000D01*
Y326999D01*
X567497Y327999D01*
X565498D01*
X564498Y326999D01*
X558500Y342001D02*
Y347999D01*
X561499D01*
X562499Y346999D01*
Y345000D01*
X561499Y344000D01*
X558500D01*
X564498Y347999D02*
Y342001D01*
X566497Y344000D01*
X568497Y342001D01*
Y347999D01*
X570496Y342001D02*
Y347999D01*
X572496Y346000D01*
X574495Y347999D01*
Y342001D01*
X576494Y346999D02*
X577494Y347999D01*
X579493D01*
X580493Y346999D01*
Y343001D01*
X579493Y342001D01*
X577494D01*
X576494Y343001D01*
Y346999D01*
X558500Y332001D02*
Y337999D01*
X561499D01*
X562499Y336999D01*
Y335000D01*
X561499Y334000D01*
X558500D01*
X564498Y332001D02*
X566497D01*
X565498D01*
Y337999D01*
X564498Y336999D01*
X558500Y412001D02*
Y416000D01*
X560499Y417999D01*
X562499Y416000D01*
Y412001D01*
Y415000D01*
X558500D01*
X564498Y417999D02*
X568497D01*
Y416999D01*
X564498Y413001D01*
Y412001D01*
X558500Y382001D02*
Y386000D01*
X560499Y387999D01*
X562499Y386000D01*
Y382001D01*
Y385000D01*
X558500D01*
X567497Y382001D02*
Y387999D01*
X564498Y385000D01*
X568497D01*
X558500Y392001D02*
Y396000D01*
X560499Y397999D01*
X562499Y396000D01*
Y392001D01*
Y395000D01*
X558500D01*
X568497Y397999D02*
X564498D01*
Y395000D01*
X566497Y396000D01*
X567497D01*
X568497Y395000D01*
Y393001D01*
X567497Y392001D01*
X565498D01*
X564498Y393001D01*
X558500Y402001D02*
Y406000D01*
X560499Y407999D01*
X562499Y406000D01*
Y402001D01*
Y405000D01*
X558500D01*
X568497Y407999D02*
X566497Y406999D01*
X564498Y405000D01*
Y403001D01*
X565498Y402001D01*
X567497D01*
X568497Y403001D01*
Y404000D01*
X567497Y405000D01*
X564498D01*
X558500Y372001D02*
Y376000D01*
X560499Y377999D01*
X562499Y376000D01*
Y372001D01*
Y375000D01*
X558500D01*
X564498Y376999D02*
X565498Y377999D01*
X567497D01*
X568497Y376999D01*
Y376000D01*
X567497Y375000D01*
X566497D01*
X567497D01*
X568497Y374000D01*
Y373001D01*
X567497Y372001D01*
X565498D01*
X564498Y373001D01*
X558500Y362001D02*
Y366000D01*
X560499Y367999D01*
X562499Y366000D01*
Y362001D01*
Y365000D01*
X558500D01*
X568497Y362001D02*
X564498D01*
X568497Y366000D01*
Y366999D01*
X567497Y367999D01*
X565498D01*
X564498Y366999D01*
X558500Y352001D02*
Y356000D01*
X560499Y357999D01*
X562499Y356000D01*
Y352001D01*
Y355000D01*
X558500D01*
X564498Y352001D02*
X566497D01*
X565498D01*
Y357999D01*
X564498Y356999D01*
X585505Y366999D02*
X586505Y367999D01*
X588504D01*
X589504Y366999D01*
Y366000D01*
X588504Y365000D01*
X587504D01*
X588504D01*
X589504Y364000D01*
Y363001D01*
X588504Y362001D01*
X586505D01*
X585505Y363001D01*
X591503Y367999D02*
Y364000D01*
X593503Y362001D01*
X595502Y364000D01*
Y367999D01*
X597501Y366999D02*
X598501Y367999D01*
X600500D01*
X601500Y366999D01*
Y366000D01*
X600500Y365000D01*
X599501D01*
X600500D01*
X601500Y364000D01*
Y363001D01*
X600500Y362001D01*
X598501D01*
X597501Y363001D01*
X585505Y376999D02*
X586505Y377999D01*
X588504D01*
X589504Y376999D01*
Y376000D01*
X588504Y375000D01*
X587504D01*
X588504D01*
X589504Y374000D01*
Y373001D01*
X588504Y372001D01*
X586505D01*
X585505Y373001D01*
X591503Y377999D02*
Y374000D01*
X593503Y372001D01*
X595502Y374000D01*
Y377999D01*
X597501Y376999D02*
X598501Y377999D01*
X600500D01*
X601500Y376999D01*
Y376000D01*
X600500Y375000D01*
X599501D01*
X600500D01*
X601500Y374000D01*
Y373001D01*
X600500Y372001D01*
X598501D01*
X597501Y373001D01*
X579507Y337999D02*
Y334000D01*
X581506Y332001D01*
X583506Y334000D01*
Y337999D01*
X585505D02*
Y332001D01*
X588504D01*
X589504Y333001D01*
Y334000D01*
X588504Y335000D01*
X585505D01*
X588504D01*
X589504Y336000D01*
Y336999D01*
X588504Y337999D01*
X585505D01*
X591503Y332001D02*
Y336000D01*
X593503Y337999D01*
X595502Y336000D01*
Y332001D01*
Y335000D01*
X591503D01*
X597501Y337999D02*
X601500D01*
X599501D01*
Y332001D01*
X585505Y346999D02*
X586505Y347999D01*
X588504D01*
X589504Y346999D01*
Y346000D01*
X588504Y345000D01*
X587504D01*
X588504D01*
X589504Y344000D01*
Y343001D01*
X588504Y342001D01*
X586505D01*
X585505Y343001D01*
X591503Y347999D02*
Y344000D01*
X593503Y342001D01*
X595502Y344000D01*
Y347999D01*
X597501Y343001D02*
X598501Y342001D01*
X600500D01*
X601500Y343001D01*
Y346999D01*
X600500Y347999D01*
X598501D01*
X597501Y346999D01*
Y346000D01*
X598501Y345000D01*
X601500D01*
X579507Y327999D02*
Y324000D01*
X581506Y322001D01*
X583506Y324000D01*
Y327999D01*
X585505D02*
Y322001D01*
X588504D01*
X589504Y323001D01*
Y324000D01*
X588504Y325000D01*
X585505D01*
X588504D01*
X589504Y326000D01*
Y326999D01*
X588504Y327999D01*
X585505D01*
X591503Y322001D02*
Y326000D01*
X593503Y327999D01*
X595502Y326000D01*
Y322001D01*
Y325000D01*
X591503D01*
X597501Y327999D02*
X601500D01*
X599501D01*
Y322001D01*
X585505Y356999D02*
X586505Y357999D01*
X588504D01*
X589504Y356999D01*
Y356000D01*
X588504Y355000D01*
X587504D01*
X588504D01*
X589504Y354000D01*
Y353001D01*
X588504Y352001D01*
X586505D01*
X585505Y353001D01*
X591503Y357999D02*
Y354000D01*
X593503Y352001D01*
X595502Y354000D01*
Y357999D01*
X597501Y353001D02*
X598501Y352001D01*
X600500D01*
X601500Y353001D01*
Y356999D01*
X600500Y357999D01*
X598501D01*
X597501Y356999D01*
Y356000D01*
X598501Y355000D01*
X601500D01*
X632499Y336999D02*
X631499Y337999D01*
X629500D01*
X628500Y336999D01*
Y333001D01*
X629500Y332001D01*
X631499D01*
X632499Y333001D01*
Y335000D01*
X630499D01*
X634498Y332001D02*
Y337999D01*
X638497Y332001D01*
Y337999D01*
X640496D02*
Y332001D01*
X643495D01*
X644495Y333001D01*
Y336999D01*
X643495Y337999D01*
X640496D01*
X632499Y366999D02*
X631499Y367999D01*
X629500D01*
X628500Y366999D01*
Y363001D01*
X629500Y362001D01*
X631499D01*
X632499Y363001D01*
Y365000D01*
X630499D01*
X634498Y362001D02*
Y367999D01*
X638497Y362001D01*
Y367999D01*
X640496D02*
Y362001D01*
X643495D01*
X644495Y363001D01*
Y366999D01*
X643495Y367999D01*
X640496D01*
X632499Y376999D02*
X631499Y377999D01*
X629500D01*
X628500Y376999D01*
Y373001D01*
X629500Y372001D01*
X631499D01*
X632499Y373001D01*
Y375000D01*
X630499D01*
X634498Y372001D02*
Y377999D01*
X638497Y372001D01*
Y377999D01*
X640496D02*
Y372001D01*
X643495D01*
X644495Y373001D01*
Y376999D01*
X643495Y377999D01*
X640496D01*
X632499Y356999D02*
X631499Y357999D01*
X629500D01*
X628500Y356999D01*
Y353001D01*
X629500Y352001D01*
X631499D01*
X632499Y353001D01*
Y355000D01*
X630499D01*
X634498Y352001D02*
Y357999D01*
X638497Y352001D01*
Y357999D01*
X640496D02*
Y352001D01*
X643495D01*
X644495Y353001D01*
Y356999D01*
X643495Y357999D01*
X640496D01*
X632499Y346999D02*
X631499Y347999D01*
X629500D01*
X628500Y346999D01*
Y343001D01*
X629500Y342001D01*
X631499D01*
X632499Y343001D01*
Y345000D01*
X630499D01*
X634498Y342001D02*
Y347999D01*
X638497Y342001D01*
Y347999D01*
X640496D02*
Y342001D01*
X643495D01*
X644495Y343001D01*
Y346999D01*
X643495Y347999D01*
X640496D01*
X632499Y326999D02*
X631499Y327999D01*
X629500D01*
X628500Y326999D01*
Y323001D01*
X629500Y322001D01*
X631499D01*
X632499Y323001D01*
Y325000D01*
X630499D01*
X634498Y322001D02*
Y327999D01*
X638497Y322001D01*
Y327999D01*
X640496D02*
Y322001D01*
X643495D01*
X644495Y323001D01*
Y326999D01*
X643495Y327999D01*
X640496D01*
X519504Y326999D02*
X518504Y327999D01*
X516505D01*
X515505Y326999D01*
Y326000D01*
X516505Y325000D01*
X518504D01*
X519504Y324000D01*
Y323001D01*
X518504Y322001D01*
X516505D01*
X515505Y323001D01*
X525502Y326999D02*
X524502Y327999D01*
X522503D01*
X521503Y326999D01*
Y323001D01*
X522503Y322001D01*
X524502D01*
X525502Y323001D01*
X527501Y327999D02*
Y322001D01*
X531500D01*
X519504Y316999D02*
X518504Y317999D01*
X516505D01*
X515505Y316999D01*
Y316000D01*
X516505Y315000D01*
X518504D01*
X519504Y314000D01*
Y313001D01*
X518504Y312001D01*
X516505D01*
X515505Y313001D01*
X521503Y317999D02*
Y312001D01*
X524502D01*
X525502Y313001D01*
Y316999D01*
X524502Y317999D01*
X521503D01*
X527501Y312001D02*
Y316000D01*
X529501Y317999D01*
X531500Y316000D01*
Y312001D01*
Y315000D01*
X527501D01*
X521000Y337999D02*
X524999D01*
X522999D01*
Y332001D01*
X526998Y337999D02*
X530997Y332001D01*
Y337999D02*
X526998Y332001D01*
X521000Y342001D02*
Y347999D01*
X523999D01*
X524999Y346999D01*
Y345000D01*
X523999Y344000D01*
X521000D01*
X522999D02*
X524999Y342001D01*
X526998Y347999D02*
X530997Y342001D01*
Y347999D02*
X526998Y342001D01*
X519504Y376999D02*
X518504Y377999D01*
X516505D01*
X515505Y376999D01*
Y376000D01*
X516505Y375000D01*
X518504D01*
X519504Y374000D01*
Y373001D01*
X518504Y372001D01*
X516505D01*
X515505Y373001D01*
X525502Y376999D02*
X524502Y377999D01*
X522503D01*
X521503Y376999D01*
Y373001D01*
X522503Y372001D01*
X524502D01*
X525502Y373001D01*
X527501Y377999D02*
Y372001D01*
Y374000D01*
X531500Y377999D01*
X528501Y375000D01*
X531500Y372001D01*
X511507Y382001D02*
Y387999D01*
X513506Y386000D01*
X515505Y387999D01*
Y382001D01*
X520504Y387999D02*
X518504D01*
X517505Y386999D01*
Y383001D01*
X518504Y382001D01*
X520504D01*
X521503Y383001D01*
Y386999D01*
X520504Y387999D01*
X527501Y386999D02*
X526502Y387999D01*
X524502D01*
X523503Y386999D01*
Y386000D01*
X524502Y385000D01*
X526502D01*
X527501Y384000D01*
Y383001D01*
X526502Y382001D01*
X524502D01*
X523503Y383001D01*
X529501Y387999D02*
X531500D01*
X530500D01*
Y382001D01*
X529501D01*
X531500D01*
X510507Y392001D02*
Y397999D01*
X512506Y396000D01*
X514505Y397999D01*
Y392001D01*
X516505Y397999D02*
X518504D01*
X517505D01*
Y392001D01*
X516505D01*
X518504D01*
X525502Y396999D02*
X524502Y397999D01*
X522503D01*
X521503Y396999D01*
Y396000D01*
X522503Y395000D01*
X524502D01*
X525502Y394000D01*
Y393001D01*
X524502Y392001D01*
X522503D01*
X521503Y393001D01*
X530500Y397999D02*
X528501D01*
X527501Y396999D01*
Y393001D01*
X528501Y392001D01*
X530500D01*
X531500Y393001D01*
Y396999D01*
X530500Y397999D01*
X515505Y367999D02*
Y362001D01*
X518504D01*
X519504Y363001D01*
Y366999D01*
X518504Y367999D01*
X515505D01*
X525502Y362001D02*
X521503D01*
X525502Y366000D01*
Y366999D01*
X524502Y367999D01*
X522503D01*
X521503Y366999D01*
X531500Y362001D02*
X527501D01*
X531500Y366000D01*
Y366999D01*
X530500Y367999D01*
X528501D01*
X527501Y366999D01*
X515505Y357999D02*
Y352001D01*
X518504D01*
X519504Y353001D01*
Y356999D01*
X518504Y357999D01*
X515505D01*
X525502Y352001D02*
X521503D01*
X525502Y356000D01*
Y356999D01*
X524502Y357999D01*
X522503D01*
X521503Y356999D01*
X527501D02*
X528501Y357999D01*
X530500D01*
X531500Y356999D01*
Y356000D01*
X530500Y355000D01*
X529501D01*
X530500D01*
X531500Y354000D01*
Y353001D01*
X530500Y352001D01*
X528501D01*
X527501Y353001D01*
X503006Y432001D02*
Y437999D01*
X506005D01*
X507004Y436999D01*
Y435000D01*
X506005Y434000D01*
X503006D01*
X505005D02*
X507004Y432001D01*
X513003Y437999D02*
X509004D01*
Y432001D01*
X513003D01*
X509004Y435000D02*
X511003D01*
X519001Y436999D02*
X518001Y437999D01*
X516002D01*
X515002Y436999D01*
Y436000D01*
X516002Y435000D01*
X518001D01*
X519001Y434000D01*
Y433001D01*
X518001Y432001D01*
X516002D01*
X515002Y433001D01*
X524999Y437999D02*
X521000D01*
Y432001D01*
X524999D01*
X521000Y435000D02*
X522999D01*
X526998Y437999D02*
X530997D01*
X528997D01*
Y432001D01*
X558500D02*
Y437999D01*
X560499Y436000D01*
X562499Y437999D01*
Y432001D01*
X567497Y437999D02*
X565498D01*
X564498Y436999D01*
Y433001D01*
X565498Y432001D01*
X567497D01*
X568497Y433001D01*
Y436999D01*
X567497Y437999D01*
X570496D02*
Y432001D01*
X573495D01*
X574495Y433001D01*
Y436999D01*
X573495Y437999D01*
X570496D01*
X580493D02*
X576494D01*
Y432001D01*
X580493D01*
X576494Y435000D02*
X578493D01*
X495002Y537501D02*
Y543499D01*
X498001D01*
X499001Y542499D01*
Y540500D01*
X498001Y539500D01*
X495002D01*
X501000Y537501D02*
X503000D01*
X502000D01*
Y543499D01*
X501000Y542499D01*
X505999D02*
X506998Y543499D01*
X508998D01*
X509998Y542499D01*
Y541500D01*
X508998Y540500D01*
X507998D01*
X508998D01*
X509998Y539500D01*
Y538501D01*
X508998Y537501D01*
X506998D01*
X505999Y538501D01*
X607224Y284034D02*
X611466Y288276D01*
X613586Y286155D01*
Y284741D01*
X612173Y283328D01*
X610759D01*
X608638Y285448D01*
X610052Y284034D02*
Y281207D01*
X618534D02*
X615707Y284034D01*
X613586Y281914D01*
X615707Y281207D01*
X616414Y280500D01*
Y279086D01*
X615000Y277673D01*
X613586D01*
X612173Y279086D01*
Y280500D01*
X619241Y279086D02*
X620655D01*
X622069Y277673D01*
Y276259D01*
X621362Y275552D01*
X619948D01*
Y274138D01*
X619241Y273431D01*
X617828D01*
X616414Y274845D01*
Y276259D01*
X617121Y276966D01*
X618534D01*
Y278379D01*
X619241Y279086D01*
X618534Y276966D02*
X619948Y275552D01*
X520502Y274501D02*
Y280499D01*
X523501D01*
X524501Y279499D01*
Y277500D01*
X523501Y276500D01*
X520502D01*
X522502D02*
X524501Y274501D01*
X526500Y279499D02*
X527500Y280499D01*
X529499D01*
X530499Y279499D01*
Y278500D01*
X529499Y277500D01*
X528500D01*
X529499D01*
X530499Y276500D01*
Y275501D01*
X529499Y274501D01*
X527500D01*
X526500Y275501D01*
X532498Y274501D02*
X534498D01*
X533498D01*
Y280499D01*
X532498Y279499D01*
X282502Y100499D02*
Y94501D01*
X285501D01*
X286500Y95501D01*
Y99499D01*
X285501Y100499D01*
X282502D01*
X288500Y99499D02*
X289499Y100499D01*
X291499D01*
X292498Y99499D01*
Y98500D01*
X291499Y97500D01*
X290499D01*
X291499D01*
X292498Y96500D01*
Y95501D01*
X291499Y94501D01*
X289499D01*
X288500Y95501D01*
X607502Y382501D02*
Y388499D01*
X610501D01*
X611501Y387499D01*
Y385500D01*
X610501Y384500D01*
X607502D01*
X613500Y382501D02*
X615500D01*
X614500D01*
Y388499D01*
X613500Y387499D01*
X618499D02*
X619498Y388499D01*
X621498D01*
X622498Y387499D01*
Y386500D01*
X621498Y385500D01*
X622498Y384500D01*
Y383501D01*
X621498Y382501D01*
X619498D01*
X618499Y383501D01*
Y384500D01*
X619498Y385500D01*
X618499Y386500D01*
Y387499D01*
X619498Y385500D02*
X621498D01*
X512502Y444501D02*
Y450499D01*
X515501D01*
X516501Y449499D01*
Y447500D01*
X515501Y446500D01*
X512502D01*
X518501Y444501D02*
X520500D01*
X519500D01*
Y450499D01*
X518501Y449499D01*
X523499Y450499D02*
X527498D01*
Y449499D01*
X523499Y445501D01*
Y444501D01*
X60500Y416999D02*
X59501Y417999D01*
X57501D01*
X56502Y416999D01*
Y413001D01*
X57501Y412001D01*
X59501D01*
X60500Y413001D01*
X62500Y416999D02*
X63499Y417999D01*
X65499D01*
X66498Y416999D01*
Y416000D01*
X65499Y415000D01*
X64499D01*
X65499D01*
X66498Y414000D01*
Y413001D01*
X65499Y412001D01*
X63499D01*
X62500Y413001D01*
X571500Y454501D02*
Y458499D01*
X570501Y459499D01*
X568501D01*
X567502Y458499D01*
Y454501D01*
X568501Y453501D01*
X570501D01*
X569501Y455500D02*
X571500Y453501D01*
X570501D02*
X571500Y454501D01*
X573500Y458499D02*
X574499Y459499D01*
X576499D01*
X577498Y458499D01*
Y457500D01*
X576499Y456500D01*
X575499D01*
X576499D01*
X577498Y455500D01*
Y454501D01*
X576499Y453501D01*
X574499D01*
X573500Y454501D01*
X55501Y448999D02*
Y444001D01*
X56501Y443001D01*
X58500D01*
X59500Y444001D01*
Y448999D01*
X61499Y443001D02*
X63499D01*
X62499D01*
Y448999D01*
X61499Y447999D01*
X84502Y522499D02*
Y517501D01*
X85501Y516501D01*
X87501D01*
X88500Y517501D01*
Y522499D01*
X94498Y516501D02*
X90500D01*
X94498Y520500D01*
Y521499D01*
X93499Y522499D01*
X91499D01*
X90500Y521499D01*
X174502Y449499D02*
Y444501D01*
X175501Y443501D01*
X177501D01*
X178500Y444501D01*
Y449499D01*
X183499Y443501D02*
Y449499D01*
X180500Y446500D01*
X184498D01*
X204502Y522499D02*
Y517501D01*
X205501Y516501D01*
X207501D01*
X208500Y517501D01*
Y522499D01*
X214498D02*
X210500D01*
Y519500D01*
X212499Y520500D01*
X213499D01*
X214498Y519500D01*
Y517501D01*
X213499Y516501D01*
X211499D01*
X210500Y517501D01*
X294002Y448999D02*
Y444001D01*
X295001Y443001D01*
X297001D01*
X298000Y444001D01*
Y448999D01*
X300000Y444001D02*
X300999Y443001D01*
X302999D01*
X303998Y444001D01*
Y447999D01*
X302999Y448999D01*
X300999D01*
X300000Y447999D01*
Y447000D01*
X300999Y446000D01*
X303998D01*
X323002Y522499D02*
Y517501D01*
X324002Y516501D01*
X326002D01*
X327001Y517501D01*
Y522499D01*
X329000Y516501D02*
X331000D01*
X330000D01*
Y522499D01*
X329000Y521499D01*
X333999D02*
X334998Y522499D01*
X336998D01*
X337998Y521499D01*
Y517501D01*
X336998Y516501D01*
X334998D01*
X333999Y517501D01*
Y521499D01*
X409002Y448999D02*
Y444001D01*
X410002Y443001D01*
X412002D01*
X413001Y444001D01*
Y448999D01*
X415000Y443001D02*
X417000D01*
X416000D01*
Y448999D01*
X415000Y447999D01*
X423998Y443001D02*
X419999D01*
X423998Y447000D01*
Y447999D01*
X422998Y448999D01*
X420998D01*
X419999Y447999D01*
X443502Y522499D02*
Y517501D01*
X444502Y516501D01*
X446501D01*
X447501Y517501D01*
Y522499D01*
X449501Y516501D02*
X451500D01*
X450500D01*
Y522499D01*
X449501Y521499D01*
X454499D02*
X455499Y522499D01*
X457498D01*
X458498Y521499D01*
Y520500D01*
X457498Y519500D01*
X456498D01*
X457498D01*
X458498Y518500D01*
Y517501D01*
X457498Y516501D01*
X455499D01*
X454499Y517501D01*
X300002Y100499D02*
Y95501D01*
X301001Y94501D01*
X303001D01*
X304000Y95501D01*
Y100499D01*
X306000Y99499D02*
X306999Y100499D01*
X308999D01*
X309998Y99499D01*
Y98500D01*
X308999Y97500D01*
X309998Y96500D01*
Y95501D01*
X308999Y94501D01*
X306999D01*
X306000Y95501D01*
Y96500D01*
X306999Y97500D01*
X306000Y98500D01*
Y99499D01*
X306999Y97500D02*
X308999D01*
X265002Y100499D02*
Y95501D01*
X266001Y94501D01*
X268001D01*
X269000Y95501D01*
Y100499D01*
X271000D02*
X274998D01*
Y99499D01*
X271000Y95501D01*
Y94501D01*
X230002Y100499D02*
Y95501D01*
X231001Y94501D01*
X233001D01*
X234000Y95501D01*
Y100499D01*
X239998D02*
X237999Y99499D01*
X236000Y97500D01*
Y95501D01*
X236999Y94501D01*
X238999D01*
X239998Y95501D01*
Y96500D01*
X238999Y97500D01*
X236000D01*
X408502Y120499D02*
Y115501D01*
X409502Y114501D01*
X411501D01*
X412501Y115501D01*
Y120499D01*
X414500Y114501D02*
X416500D01*
X415500D01*
Y120499D01*
X414500Y119499D01*
X419498Y114501D02*
X421498D01*
X420498D01*
Y120499D01*
X419498Y119499D01*
X512502Y120499D02*
Y115501D01*
X513502Y114501D01*
X515501D01*
X516501Y115501D01*
Y120499D01*
X518501Y114501D02*
X520500D01*
X519500D01*
Y120499D01*
X518501Y119499D01*
X526498Y114501D02*
Y120499D01*
X523499Y117500D01*
X527498D01*
X345002Y327999D02*
Y323001D01*
X346001Y322001D01*
X348001D01*
X349000Y323001D01*
Y327999D01*
X351000Y326999D02*
X351999Y327999D01*
X353999D01*
X354998Y326999D01*
Y326000D01*
X353999Y325000D01*
X352999D01*
X353999D01*
X354998Y324000D01*
Y323001D01*
X353999Y322001D01*
X351999D01*
X351000Y323001D01*
X346500Y369499D02*
X345501Y370499D01*
X343501D01*
X342502Y369499D01*
Y368500D01*
X343501Y367500D01*
X345501D01*
X346500Y366500D01*
Y365501D01*
X345501Y364501D01*
X343501D01*
X342502Y365501D01*
X352498Y364501D02*
X348500D01*
X352498Y368500D01*
Y369499D01*
X351499Y370499D01*
X349499D01*
X348500Y369499D01*
X276500D02*
X275500Y370499D01*
X273501D01*
X272501Y369499D01*
Y368500D01*
X273501Y367500D01*
X275500D01*
X276500Y366500D01*
Y365501D01*
X275500Y364501D01*
X273501D01*
X272501Y365501D01*
X278499Y364501D02*
X280499D01*
X279499D01*
Y370499D01*
X278499Y369499D01*
X222999Y352502D02*
X217001D01*
Y355501D01*
X218001Y356500D01*
X220000D01*
X221000Y355501D01*
Y352502D01*
Y354501D02*
X222999Y356500D01*
X217001Y362498D02*
Y358500D01*
X220000D01*
X219000Y360499D01*
Y361499D01*
X220000Y362498D01*
X221999D01*
X222999Y361499D01*
Y359499D01*
X221999Y358500D01*
X339436Y92499D02*
X333438D01*
Y95498D01*
X334438Y96498D01*
X336437D01*
X337437Y95498D01*
Y92499D01*
Y94499D02*
X339436Y96498D01*
Y98497D02*
Y100497D01*
Y99497D01*
X333438D01*
X334438Y98497D01*
X333438Y107494D02*
X334438Y105495D01*
X336437Y103496D01*
X338436D01*
X339436Y104495D01*
Y106495D01*
X338436Y107494D01*
X337437D01*
X336437Y106495D01*
Y103496D01*
X267662Y166005D02*
X261664D01*
Y169004D01*
X262664Y170004D01*
X264663D01*
X265663Y169004D01*
Y166005D01*
Y168005D02*
X267662Y170004D01*
Y172003D02*
Y174003D01*
Y173003D01*
X261664D01*
X262664Y172003D01*
X267662Y177002D02*
Y179001D01*
Y178001D01*
X261664D01*
X262664Y177002D01*
X250558Y152502D02*
X244560D01*
Y155501D01*
X245560Y156500D01*
X247559D01*
X248559Y155501D01*
Y152502D01*
Y154501D02*
X250558Y156500D01*
Y158500D02*
Y160499D01*
Y159499D01*
X244560D01*
X245560Y158500D01*
Y163498D02*
X244560Y164498D01*
Y166497D01*
X245560Y167497D01*
X249558D01*
X250558Y166497D01*
Y164498D01*
X249558Y163498D01*
X245560D01*
X561499Y447003D02*
X555501D01*
Y450002D01*
X556501Y451001D01*
X558500D01*
X559500Y450002D01*
Y447003D01*
Y449002D02*
X561499Y451001D01*
X556501Y453001D02*
X555501Y454000D01*
Y456000D01*
X556501Y456999D01*
X557500D01*
X558500Y456000D01*
Y455000D01*
Y456000D01*
X559500Y456999D01*
X560499D01*
X561499Y456000D01*
Y454000D01*
X560499Y453001D01*
X555501Y458999D02*
Y462997D01*
X556501D01*
X560499Y458999D01*
X561499D01*
X597999Y462003D02*
X592001D01*
Y465002D01*
X593001Y466001D01*
X595000D01*
X596000Y465002D01*
Y462003D01*
Y464002D02*
X597999Y466001D01*
Y471000D02*
X592001D01*
X595000Y468001D01*
Y471999D01*
X593001Y473999D02*
X592001Y474998D01*
Y476998D01*
X593001Y477997D01*
X596999D01*
X597999Y476998D01*
Y474998D01*
X596999Y473999D01*
X593001D01*
X497003Y289501D02*
Y295499D01*
X500002D01*
X501001Y294499D01*
Y292500D01*
X500002Y291500D01*
X497003D01*
X499002D02*
X501001Y289501D01*
X506999D02*
X503001D01*
X506999Y293500D01*
Y294499D01*
X506000Y295499D01*
X504000D01*
X503001Y294499D01*
X508999Y290501D02*
X509998Y289501D01*
X511998D01*
X512997Y290501D01*
Y294499D01*
X511998Y295499D01*
X509998D01*
X508999Y294499D01*
Y293500D01*
X509998Y292500D01*
X512997D01*
X367003Y167001D02*
Y172999D01*
X370002D01*
X371001Y171999D01*
Y170000D01*
X370002Y169000D01*
X367003D01*
X369002D02*
X371001Y167001D01*
X376999D02*
X373001D01*
X376999Y171000D01*
Y171999D01*
X376000Y172999D01*
X374000D01*
X373001Y171999D01*
X381998Y167001D02*
Y172999D01*
X378999Y170000D01*
X382997D01*
X385503Y192001D02*
Y197999D01*
X388502D01*
X389501Y196999D01*
Y195000D01*
X388502Y194000D01*
X385503D01*
X387502D02*
X389501Y192001D01*
X395499D02*
X391501D01*
X395499Y196000D01*
Y196999D01*
X394500Y197999D01*
X392500D01*
X391501Y196999D01*
X397499D02*
X398498Y197999D01*
X400498D01*
X401497Y196999D01*
Y196000D01*
X400498Y195000D01*
X399498D01*
X400498D01*
X401497Y194000D01*
Y193001D01*
X400498Y192001D01*
X398498D01*
X397499Y193001D01*
X385503Y200001D02*
Y205999D01*
X388502D01*
X389501Y204999D01*
Y203000D01*
X388502Y202000D01*
X385503D01*
X387502D02*
X389501Y200001D01*
X395499D02*
X391501D01*
X395499Y204000D01*
Y204999D01*
X394500Y205999D01*
X392500D01*
X391501Y204999D01*
X401497Y200001D02*
X397499D01*
X401497Y204000D01*
Y204999D01*
X400498Y205999D01*
X398498D01*
X397499Y204999D01*
X385502Y208001D02*
Y213999D01*
X388501D01*
X389501Y212999D01*
Y211000D01*
X388501Y210000D01*
X385502D01*
X387502D02*
X389501Y208001D01*
X395499D02*
X391500D01*
X395499Y212000D01*
Y212999D01*
X394499Y213999D01*
X392500D01*
X391500Y212999D01*
X397498Y208001D02*
X399498D01*
X398498D01*
Y213999D01*
X397498Y212999D01*
X349499Y92502D02*
X343501D01*
Y95502D01*
X344501Y96501D01*
X346500D01*
X347500Y95502D01*
Y92502D01*
Y94502D02*
X349499Y96501D01*
Y98501D02*
Y100500D01*
Y99500D01*
X343501D01*
X344501Y98501D01*
X343501Y103499D02*
Y107498D01*
X344501D01*
X348499Y103499D01*
X349499D01*
X277999Y165002D02*
X272001D01*
Y168001D01*
X273001Y169001D01*
X275000D01*
X276000Y168001D01*
Y165002D01*
Y167002D02*
X277999Y169001D01*
Y171001D02*
Y173000D01*
Y172000D01*
X272001D01*
X273001Y171001D01*
X277999Y178998D02*
X272001D01*
X275000Y175999D01*
Y179998D01*
X240484Y152545D02*
X234486D01*
Y155544D01*
X235486Y156544D01*
X237485D01*
X238485Y155544D01*
Y152545D01*
Y154544D02*
X240484Y156544D01*
X239484Y158543D02*
X240484Y159543D01*
Y161542D01*
X239484Y162542D01*
X235486D01*
X234486Y161542D01*
Y159543D01*
X235486Y158543D01*
X236485D01*
X237485Y159543D01*
Y162542D01*
X67502Y279501D02*
Y285499D01*
X70501D01*
X71500Y284499D01*
Y282500D01*
X70501Y281500D01*
X67502D01*
X69501D02*
X71500Y279501D01*
X77498D02*
X73500D01*
X77498Y283500D01*
Y284499D01*
X76499Y285499D01*
X74499D01*
X73500Y284499D01*
X573002Y482001D02*
Y487999D01*
X576001D01*
X577001Y486999D01*
Y485000D01*
X576001Y484000D01*
X573002D01*
X575002D02*
X577001Y482001D01*
X581999D02*
Y487999D01*
X579000Y485000D01*
X582999D01*
X584998Y482001D02*
X586998D01*
X585998D01*
Y487999D01*
X584998Y486999D01*
X572003Y492001D02*
Y497999D01*
X575002D01*
X576001Y496999D01*
Y495000D01*
X575002Y494000D01*
X572003D01*
X574002D02*
X576001Y492001D01*
X581000D02*
Y497999D01*
X578001Y495000D01*
X581999D01*
X587997Y492001D02*
X583999D01*
X587997Y496000D01*
Y496999D01*
X586998Y497999D01*
X584998D01*
X583999Y496999D01*
X110002Y469501D02*
Y475499D01*
X113001D01*
X114000Y474499D01*
Y472500D01*
X113001Y471500D01*
X110002D01*
X112001D02*
X114000Y469501D01*
X118999D02*
Y475499D01*
X116000Y472500D01*
X119998D01*
X118999Y500502D02*
X113001D01*
Y503501D01*
X114001Y504500D01*
X116000D01*
X117000Y503501D01*
Y500502D01*
Y502501D02*
X118999Y504500D01*
X114001Y506500D02*
X113001Y507499D01*
Y509499D01*
X114001Y510498D01*
X115000D01*
X116000Y509499D01*
Y508499D01*
Y509499D01*
X117000Y510498D01*
X117999D01*
X118999Y509499D01*
Y507499D01*
X117999Y506500D01*
X230002Y469501D02*
Y475499D01*
X233001D01*
X234000Y474499D01*
Y472500D01*
X233001Y471500D01*
X230002D01*
X232001D02*
X234000Y469501D01*
X236000Y474499D02*
X236999Y475499D01*
X238999D01*
X239998Y474499D01*
Y473500D01*
X238999Y472500D01*
X239998Y471500D01*
Y470501D01*
X238999Y469501D01*
X236999D01*
X236000Y470501D01*
Y471500D01*
X236999Y472500D01*
X236000Y473500D01*
Y474499D01*
X236999Y472500D02*
X238999D01*
X238999Y500502D02*
X233001D01*
Y503501D01*
X234001Y504500D01*
X236000D01*
X237000Y503501D01*
Y500502D01*
Y502501D02*
X238999Y504500D01*
X233001Y506500D02*
Y510498D01*
X234001D01*
X237999Y506500D01*
X238999D01*
X592003Y289501D02*
Y295499D01*
X595002D01*
X596001Y294499D01*
Y292500D01*
X595002Y291500D01*
X592003D01*
X594002D02*
X596001Y289501D01*
X601000D02*
Y295499D01*
X598001Y292500D01*
X601999D01*
X603999Y294499D02*
X604998Y295499D01*
X606998D01*
X607997Y294499D01*
Y293500D01*
X606998Y292500D01*
X605998D01*
X606998D01*
X607997Y291500D01*
Y290501D01*
X606998Y289501D01*
X604998D01*
X603999Y290501D01*
X522999Y127003D02*
X517001D01*
Y130002D01*
X518001Y131001D01*
X520000D01*
X521000Y130002D01*
Y127003D01*
Y129002D02*
X522999Y131001D01*
X518001Y133001D02*
X517001Y134000D01*
Y136000D01*
X518001Y136999D01*
X519000D01*
X520000Y136000D01*
Y135000D01*
Y136000D01*
X521000Y136999D01*
X521999D01*
X522999Y136000D01*
Y134000D01*
X521999Y133001D01*
X522999Y141998D02*
X517001D01*
X520000Y138999D01*
Y142997D01*
X344503Y469001D02*
Y474999D01*
X347502D01*
X348501Y473999D01*
Y472000D01*
X347502Y471000D01*
X344503D01*
X346502D02*
X348501Y469001D01*
X354499D02*
X350501D01*
X354499Y473000D01*
Y473999D01*
X353500Y474999D01*
X351500D01*
X350501Y473999D01*
X356499D02*
X357498Y474999D01*
X359498D01*
X360497Y473999D01*
Y470001D01*
X359498Y469001D01*
X357498D01*
X356499Y470001D01*
Y473999D01*
X358999Y500502D02*
X353001D01*
Y503502D01*
X354001Y504501D01*
X356000D01*
X357000Y503502D01*
Y500502D01*
Y502502D02*
X358999Y504501D01*
Y506500D02*
Y508500D01*
Y507500D01*
X353001D01*
X354001Y506500D01*
X357999Y511499D02*
X358999Y512499D01*
Y514498D01*
X357999Y515498D01*
X354001D01*
X353001Y514498D01*
Y512499D01*
X354001Y511499D01*
X355000D01*
X356000Y512499D01*
Y515498D01*
X464803Y468801D02*
Y474799D01*
X467802D01*
X468801Y473799D01*
Y471800D01*
X467802Y470800D01*
X464803D01*
X466802D02*
X468801Y468801D01*
X474799D02*
X470801D01*
X474799Y472800D01*
Y473799D01*
X473800Y474799D01*
X471800D01*
X470801Y473799D01*
X476799D02*
X477798Y474799D01*
X479798D01*
X480797Y473799D01*
Y472800D01*
X479798Y471800D01*
X480797Y470800D01*
Y469801D01*
X479798Y468801D01*
X477798D01*
X476799Y469801D01*
Y470800D01*
X477798Y471800D01*
X476799Y472800D01*
Y473799D01*
X477798Y471800D02*
X479798D01*
X478999Y500503D02*
X473001D01*
Y503502D01*
X474001Y504501D01*
X476000D01*
X477000Y503502D01*
Y500503D01*
Y502502D02*
X478999Y504501D01*
Y510499D02*
Y506501D01*
X475000Y510499D01*
X474001D01*
X473001Y509500D01*
Y507500D01*
X474001Y506501D01*
X473001Y512499D02*
Y516497D01*
X474001D01*
X477999Y512499D01*
X478999D01*
X312320Y132578D02*
X308079Y136819D01*
X310199Y138940D01*
X311613D01*
X313027Y137526D01*
Y136112D01*
X310906Y133992D01*
X312320Y135405D02*
X315147D01*
X316561Y136819D02*
X317975Y138233D01*
X317268Y137526D01*
X313027Y141767D01*
Y140353D01*
X318682Y147422D02*
X315854Y144595D01*
X317975Y142474D01*
X318682Y144595D01*
X319389Y145302D01*
X320803D01*
X322216Y143888D01*
Y142474D01*
X320803Y141060D01*
X319389D01*
X277320Y132578D02*
X273079Y136819D01*
X275199Y138940D01*
X276613D01*
X278027Y137526D01*
Y136112D01*
X275906Y133992D01*
X277320Y135405D02*
X280148D01*
X281561Y136819D02*
X282975Y138233D01*
X282268Y137526D01*
X278027Y141767D01*
Y140353D01*
X287923Y143181D02*
X285096Y140353D01*
Y146009D01*
X284389Y146715D01*
X282975D01*
X281561Y145302D01*
Y143888D01*
X236999Y135002D02*
X231001D01*
Y138001D01*
X232001Y139000D01*
X234000D01*
X235000Y138001D01*
Y135002D01*
Y137001D02*
X236999Y139000D01*
X231001Y144998D02*
X232001Y142999D01*
X234000Y141000D01*
X235999D01*
X236999Y141999D01*
Y143999D01*
X235999Y144998D01*
X235000D01*
X234000Y143999D01*
Y141000D01*
X551499Y252003D02*
X545501D01*
Y255002D01*
X546501Y256001D01*
X548500D01*
X549500Y255002D01*
Y252003D01*
Y254002D02*
X551499Y256001D01*
X546501Y258001D02*
X545501Y259000D01*
Y261000D01*
X546501Y261999D01*
X547500D01*
X548500Y261000D01*
Y260000D01*
Y261000D01*
X549500Y261999D01*
X550499D01*
X551499Y261000D01*
Y259000D01*
X550499Y258001D01*
X545501Y267997D02*
Y263999D01*
X548500D01*
X547500Y265998D01*
Y266998D01*
X548500Y267997D01*
X550499D01*
X551499Y266998D01*
Y264998D01*
X550499Y263999D01*
X540499Y252003D02*
X534501D01*
Y255002D01*
X535501Y256001D01*
X537500D01*
X538500Y255002D01*
Y252003D01*
Y254002D02*
X540499Y256001D01*
X535501Y258001D02*
X534501Y259000D01*
Y261000D01*
X535501Y261999D01*
X536500D01*
X537500Y261000D01*
Y260000D01*
Y261000D01*
X538500Y261999D01*
X539499D01*
X540499Y261000D01*
Y259000D01*
X539499Y258001D01*
X535501Y263999D02*
X534501Y264998D01*
Y266998D01*
X535501Y267997D01*
X536500D01*
X537500Y266998D01*
Y265998D01*
Y266998D01*
X538500Y267997D01*
X539499D01*
X540499Y266998D01*
Y264998D01*
X539499Y263999D01*
X390499Y92003D02*
X384501D01*
Y95002D01*
X385501Y96001D01*
X387500D01*
X388500Y95002D01*
Y92003D01*
Y94002D02*
X390499Y96001D01*
Y101999D02*
Y98001D01*
X386500Y101999D01*
X385501D01*
X384501Y101000D01*
Y99000D01*
X385501Y98001D01*
X384501Y107997D02*
Y103999D01*
X387500D01*
X386500Y105998D01*
Y106998D01*
X387500Y107997D01*
X389499D01*
X390499Y106998D01*
Y104998D01*
X389499Y103999D01*
X517003Y239501D02*
Y245499D01*
X520002D01*
X521001Y244499D01*
Y242500D01*
X520002Y241500D01*
X517003D01*
X519002D02*
X521001Y239501D01*
X523001Y244499D02*
X524000Y245499D01*
X526000D01*
X526999Y244499D01*
Y243500D01*
X526000Y242500D01*
X525000D01*
X526000D01*
X526999Y241500D01*
Y240501D01*
X526000Y239501D01*
X524000D01*
X523001Y240501D01*
X532997Y239501D02*
X528999D01*
X532997Y243500D01*
Y244499D01*
X531998Y245499D01*
X529998D01*
X528999Y244499D01*
X460499Y94503D02*
X454501D01*
Y97502D01*
X455501Y98501D01*
X457500D01*
X458500Y97502D01*
Y94503D01*
Y96502D02*
X460499Y98501D01*
Y104499D02*
Y100501D01*
X456500Y104499D01*
X455501D01*
X454501Y103500D01*
Y101500D01*
X455501Y100501D01*
X454501Y110497D02*
X455501Y108498D01*
X457500Y106499D01*
X459499D01*
X460499Y107498D01*
Y109498D01*
X459499Y110497D01*
X458500D01*
X457500Y109498D01*
Y106499D01*
X567003Y139501D02*
Y145499D01*
X570002D01*
X571001Y144499D01*
Y142500D01*
X570002Y141500D01*
X567003D01*
X569002D02*
X571001Y139501D01*
X573001Y144499D02*
X574000Y145499D01*
X576000D01*
X576999Y144499D01*
Y143500D01*
X576000Y142500D01*
X575000D01*
X576000D01*
X576999Y141500D01*
Y140501D01*
X576000Y139501D01*
X574000D01*
X573001Y140501D01*
X578999Y144499D02*
X579998Y145499D01*
X581998D01*
X582997Y144499D01*
Y143500D01*
X581998Y142500D01*
X582997Y141500D01*
Y140501D01*
X581998Y139501D01*
X579998D01*
X578999Y140501D01*
Y141500D01*
X579998Y142500D01*
X578999Y143500D01*
Y144499D01*
X579998Y142500D02*
X581998D01*
X655599Y252003D02*
X649601D01*
Y255002D01*
X650601Y256001D01*
X652600D01*
X653600Y255002D01*
Y252003D01*
Y254002D02*
X655599Y256001D01*
Y261000D02*
X649601D01*
X652600Y258001D01*
Y261999D01*
X654599Y263999D02*
X655599Y264998D01*
Y266998D01*
X654599Y267997D01*
X650601D01*
X649601Y266998D01*
Y264998D01*
X650601Y263999D01*
X651600D01*
X652600Y264998D01*
Y267997D01*
X567003Y129501D02*
Y135499D01*
X570002D01*
X571001Y134499D01*
Y132500D01*
X570002Y131500D01*
X567003D01*
X569002D02*
X571001Y129501D01*
X573001Y134499D02*
X574000Y135499D01*
X576000D01*
X576999Y134499D01*
Y133500D01*
X576000Y132500D01*
X575000D01*
X576000D01*
X576999Y131500D01*
Y130501D01*
X576000Y129501D01*
X574000D01*
X573001Y130501D01*
X578999D02*
X579998Y129501D01*
X581998D01*
X582997Y130501D01*
Y134499D01*
X581998Y135499D01*
X579998D01*
X578999Y134499D01*
Y133500D01*
X579998Y132500D01*
X582997D01*
X616999Y122003D02*
X611001D01*
Y125002D01*
X612001Y126001D01*
X614000D01*
X615000Y125002D01*
Y122003D01*
Y124002D02*
X616999Y126001D01*
Y131000D02*
X611001D01*
X614000Y128001D01*
Y131999D01*
X611001Y137997D02*
X612001Y135998D01*
X614000Y133999D01*
X615999D01*
X616999Y134998D01*
Y136998D01*
X615999Y137997D01*
X615000D01*
X614000Y136998D01*
Y133999D01*
X489503Y112001D02*
Y117999D01*
X492502D01*
X493501Y116999D01*
Y115000D01*
X492502Y114000D01*
X489503D01*
X491502D02*
X493501Y112001D01*
X495501Y116999D02*
X496500Y117999D01*
X498500D01*
X499499Y116999D01*
Y116000D01*
X498500Y115000D01*
X497500D01*
X498500D01*
X499499Y114000D01*
Y113001D01*
X498500Y112001D01*
X496500D01*
X495501Y113001D01*
X501499Y116999D02*
X502498Y117999D01*
X504498D01*
X505497Y116999D01*
Y113001D01*
X504498Y112001D01*
X502498D01*
X501499Y113001D01*
Y116999D01*
X655599Y107952D02*
X649601D01*
Y110951D01*
X650601Y111951D01*
X652600D01*
X653600Y110951D01*
Y107952D01*
Y109952D02*
X655599Y111951D01*
X649601Y117949D02*
Y113950D01*
X652600D01*
X651600Y115950D01*
Y116949D01*
X652600Y117949D01*
X654599D01*
X655599Y116949D01*
Y114950D01*
X654599Y113950D01*
X655599Y119948D02*
Y121948D01*
Y120948D01*
X649601D01*
X650601Y119948D01*
X645499Y252003D02*
X639501D01*
Y255002D01*
X640501Y256001D01*
X642500D01*
X643500Y255002D01*
Y252003D01*
Y254002D02*
X645499Y256001D01*
Y261000D02*
X639501D01*
X642500Y258001D01*
Y261999D01*
X640501Y263999D02*
X639501Y264998D01*
Y266998D01*
X640501Y267997D01*
X641500D01*
X642500Y266998D01*
X643500Y267997D01*
X644499D01*
X645499Y266998D01*
Y264998D01*
X644499Y263999D01*
X643500D01*
X642500Y264998D01*
X641500Y263999D01*
X640501D01*
X642500Y264998D02*
Y266998D01*
X635299Y107003D02*
X629301D01*
Y110002D01*
X630301Y111001D01*
X632300D01*
X633300Y110002D01*
Y107003D01*
Y109002D02*
X635299Y111001D01*
X629301Y116999D02*
Y113001D01*
X632300D01*
X631300Y115000D01*
Y116000D01*
X632300Y116999D01*
X634299D01*
X635299Y116000D01*
Y114000D01*
X634299Y113001D01*
X630301Y118999D02*
X629301Y119998D01*
Y121998D01*
X630301Y122997D01*
X634299D01*
X635299Y121998D01*
Y119998D01*
X634299Y118999D01*
X630301D01*
X565499Y102003D02*
X559501D01*
Y105002D01*
X560501Y106001D01*
X562500D01*
X563500Y105002D01*
Y102003D01*
Y104002D02*
X565499Y106001D01*
X560501Y108001D02*
X559501Y109000D01*
Y111000D01*
X560501Y111999D01*
X561500D01*
X562500Y111000D01*
Y110000D01*
Y111000D01*
X563500Y111999D01*
X564499D01*
X565499Y111000D01*
Y109000D01*
X564499Y108001D01*
X559501Y117997D02*
X560501Y115998D01*
X562500Y113999D01*
X564499D01*
X565499Y114998D01*
Y116998D01*
X564499Y117997D01*
X563500D01*
X562500Y116998D01*
Y113999D01*
X612003Y239501D02*
Y245499D01*
X615002D01*
X616001Y244499D01*
Y242500D01*
X615002Y241500D01*
X612003D01*
X614002D02*
X616001Y239501D01*
X621000D02*
Y245499D01*
X618001Y242500D01*
X621999D01*
X623999Y245499D02*
X627997D01*
Y244499D01*
X623999Y240501D01*
Y239501D01*
X635299Y252003D02*
X629301D01*
Y255002D01*
X630301Y256001D01*
X632300D01*
X633300Y255002D01*
Y252003D01*
Y254002D02*
X635299Y256001D01*
Y261000D02*
X629301D01*
X632300Y258001D01*
Y261999D01*
X629301Y267997D02*
Y263999D01*
X632300D01*
X631300Y265998D01*
Y266998D01*
X632300Y267997D01*
X634299D01*
X635299Y266998D01*
Y264998D01*
X634299Y263999D01*
X607799Y122003D02*
X601801D01*
Y125002D01*
X602801Y126001D01*
X604800D01*
X605800Y125002D01*
Y122003D01*
Y124002D02*
X607799Y126001D01*
Y131000D02*
X601801D01*
X604800Y128001D01*
Y131999D01*
X607799Y136998D02*
X601801D01*
X604800Y133999D01*
Y137997D01*
X342502Y379501D02*
Y385499D01*
X345501D01*
X346501Y384499D01*
Y382500D01*
X345501Y381500D01*
X342502D01*
X344502D02*
X346501Y379501D01*
X348500D02*
X350500D01*
X349500D01*
Y385499D01*
X348500Y384499D01*
X353499D02*
X354499Y385499D01*
X356498D01*
X357498Y384499D01*
Y383500D01*
X356498Y382500D01*
X357498Y381500D01*
Y380501D01*
X356498Y379501D01*
X354499D01*
X353499Y380501D01*
Y381500D01*
X354499Y382500D01*
X353499Y383500D01*
Y384499D01*
X354499Y382500D02*
X356498D01*
X272502Y379501D02*
Y385499D01*
X275501D01*
X276501Y384499D01*
Y382500D01*
X275501Y381500D01*
X272502D01*
X274502D02*
X276501Y379501D01*
X278501D02*
X280500D01*
X279500D01*
Y385499D01*
X278501Y384499D01*
X283499D02*
X284499Y385499D01*
X286498D01*
X287498Y384499D01*
Y383500D01*
X286498Y382500D01*
X285498D01*
X286498D01*
X287498Y381500D01*
Y380501D01*
X286498Y379501D01*
X284499D01*
X283499Y380501D01*
X321699Y121600D02*
Y125598D01*
X320699Y126598D01*
X318700D01*
X317700Y125598D01*
Y121600D01*
X318700Y120600D01*
X320699D01*
X319699Y122599D02*
X321699Y120600D01*
X320699D02*
X321699Y121600D01*
X327697Y120600D02*
X323698D01*
X327697Y124599D01*
Y125598D01*
X326697Y126598D01*
X324698D01*
X323698Y125598D01*
X255000Y170501D02*
Y174499D01*
X254000Y175499D01*
X252001D01*
X251001Y174499D01*
Y170501D01*
X252001Y169501D01*
X254000D01*
X253001Y171500D02*
X255000Y169501D01*
X254000D02*
X255000Y170501D01*
X256999Y169501D02*
X258999D01*
X257999D01*
Y175499D01*
X256999Y174499D01*
X515502Y152001D02*
Y157999D01*
X518501D01*
X519501Y156999D01*
Y155000D01*
X518501Y154000D01*
X515502D01*
X525499Y156999D02*
X524499Y157999D01*
X522500D01*
X521500Y156999D01*
Y156000D01*
X522500Y155000D01*
X524499D01*
X525499Y154000D01*
Y153001D01*
X524499Y152001D01*
X522500D01*
X521500Y153001D01*
X527498Y152001D02*
X529498D01*
X528498D01*
Y157999D01*
X527498Y156999D01*
X612003Y152001D02*
Y157999D01*
X615002D01*
X616001Y156999D01*
Y155000D01*
X615002Y154000D01*
X612003D01*
X621999Y156999D02*
X621000Y157999D01*
X619000D01*
X618001Y156999D01*
Y156000D01*
X619000Y155000D01*
X621000D01*
X621999Y154000D01*
Y153001D01*
X621000Y152001D01*
X619000D01*
X618001Y153001D01*
X627997Y152001D02*
X623999D01*
X627997Y156000D01*
Y156999D01*
X626998Y157999D01*
X624998D01*
X623999Y156999D01*
X205999Y353501D02*
X200001D01*
Y356500D01*
X201001Y357500D01*
X203000D01*
X204000Y356500D01*
Y353501D01*
X205999Y359499D02*
Y361499D01*
Y360499D01*
X200001D01*
X201001Y359499D01*
X205499Y392502D02*
X199501D01*
Y395501D01*
X200501Y396500D01*
X202500D01*
X203500Y395501D01*
Y392502D01*
X205499Y402498D02*
Y398500D01*
X201500Y402498D01*
X200501D01*
X199501Y401499D01*
Y399499D01*
X200501Y398500D01*
X135002Y467001D02*
Y472999D01*
X138001D01*
X139000Y471999D01*
Y470000D01*
X138001Y469000D01*
X135002D01*
X143999Y467001D02*
Y472999D01*
X141000Y470000D01*
X144998D01*
X135002Y537501D02*
Y543499D01*
X138001D01*
X139000Y542499D01*
Y540500D01*
X138001Y539500D01*
X135002D01*
X141000Y542499D02*
X141999Y543499D01*
X143999D01*
X144998Y542499D01*
Y541500D01*
X143999Y540500D01*
X142999D01*
X143999D01*
X144998Y539500D01*
Y538501D01*
X143999Y537501D01*
X141999D01*
X141000Y538501D01*
X255002Y467001D02*
Y472999D01*
X258001D01*
X259000Y471999D01*
Y470000D01*
X258001Y469000D01*
X255002D01*
X261000Y472999D02*
X264998D01*
Y471999D01*
X261000Y468001D01*
Y467001D01*
X255002Y537501D02*
Y543499D01*
X258001D01*
X259000Y542499D01*
Y540500D01*
X258001Y539500D01*
X255002D01*
X264998Y543499D02*
X262999Y542499D01*
X261000Y540500D01*
Y538501D01*
X261999Y537501D01*
X263999D01*
X264998Y538501D01*
Y539500D01*
X263999Y540500D01*
X261000D01*
X375002Y467001D02*
Y472999D01*
X378001D01*
X379000Y471999D01*
Y470000D01*
X378001Y469000D01*
X375002D01*
X381000Y468001D02*
X381999Y467001D01*
X383999D01*
X384998Y468001D01*
Y471999D01*
X383999Y472999D01*
X381999D01*
X381000Y471999D01*
Y471000D01*
X381999Y470000D01*
X384998D01*
X375002Y537501D02*
Y543499D01*
X378001D01*
X379000Y542499D01*
Y540500D01*
X378001Y539500D01*
X375002D01*
X381000Y542499D02*
X381999Y543499D01*
X383999D01*
X384998Y542499D01*
Y541500D01*
X383999Y540500D01*
X384998Y539500D01*
Y538501D01*
X383999Y537501D01*
X381999D01*
X381000Y538501D01*
Y539500D01*
X381999Y540500D01*
X381000Y541500D01*
Y542499D01*
X381999Y540500D02*
X383999D01*
X615002Y537501D02*
Y543499D01*
X618002D01*
X619001Y542499D01*
Y540500D01*
X618002Y539500D01*
X615002D01*
X621000Y537501D02*
X623000D01*
X622000D01*
Y543499D01*
X621000Y542499D01*
X629998Y543499D02*
X627998Y542499D01*
X625999Y540500D01*
Y538501D01*
X626999Y537501D01*
X628998D01*
X629998Y538501D01*
Y539500D01*
X628998Y540500D01*
X625999D01*
X495002Y467001D02*
Y472999D01*
X498001D01*
X499001Y471999D01*
Y470000D01*
X498001Y469000D01*
X495002D01*
X501000Y467001D02*
X503000D01*
X502000D01*
Y472999D01*
X501000Y471999D01*
X508998Y467001D02*
Y472999D01*
X505999Y470000D01*
X509998D01*
X615002Y467001D02*
Y472999D01*
X618002D01*
X619001Y471999D01*
Y470000D01*
X618002Y469000D01*
X615002D01*
X621000Y467001D02*
X623000D01*
X622000D01*
Y472999D01*
X621000Y471999D01*
X625999Y468001D02*
X626999Y467001D01*
X628998D01*
X629998Y468001D01*
Y471999D01*
X628998Y472999D01*
X626999D01*
X625999Y471999D01*
Y471000D01*
X626999Y470000D01*
X629998D01*
X342999Y50002D02*
X337001D01*
Y53001D01*
X338001Y54000D01*
X340000D01*
X341000Y53001D01*
Y50002D01*
X337001Y59998D02*
Y56000D01*
X340000D01*
X339000Y57999D01*
Y58999D01*
X340000Y59998D01*
X341999D01*
X342999Y58999D01*
Y56999D01*
X341999Y56000D01*
X399900Y253900D02*
Y259898D01*
X402899D01*
X403899Y258898D01*
Y256899D01*
X402899Y255899D01*
X399900D01*
X405898Y253900D02*
X407897D01*
X406898D01*
Y259898D01*
X405898Y258898D01*
X410896Y253900D02*
X412896D01*
X411896D01*
Y259898D01*
X410896Y258898D01*
X399900Y362000D02*
Y367998D01*
X402899D01*
X403899Y366998D01*
Y364999D01*
X402899Y363999D01*
X399900D01*
X405898Y362000D02*
X407897D01*
X406898D01*
Y367998D01*
X405898Y366998D01*
X410896D02*
X411896Y367998D01*
X413896D01*
X414895Y366998D01*
Y363000D01*
X413896Y362000D01*
X411896D01*
X410896Y363000D01*
Y366998D01*
X412999Y47502D02*
X407001D01*
Y50502D01*
X408001Y51501D01*
X410000D01*
X411000Y50502D01*
Y47502D01*
X412999Y53500D02*
Y55500D01*
Y54500D01*
X407001D01*
X408001Y53500D01*
X412999Y62498D02*
Y58499D01*
X409000Y62498D01*
X408001D01*
X407001Y61498D01*
Y59499D01*
X408001Y58499D01*
X645499Y127003D02*
X639501D01*
Y130002D01*
X640501Y131001D01*
X642500D01*
X643500Y130002D01*
Y127003D01*
X645499Y136999D02*
Y133001D01*
X641500Y136999D01*
X640501D01*
X639501Y136000D01*
Y134000D01*
X640501Y133001D01*
Y138999D02*
X639501Y139998D01*
Y141998D01*
X640501Y142997D01*
X644499D01*
X645499Y141998D01*
Y139998D01*
X644499Y138999D01*
X640501D01*
X517999Y47502D02*
X512001D01*
Y50501D01*
X513001Y51501D01*
X515000D01*
X516000Y50501D01*
Y47502D01*
X517999Y53500D02*
Y55500D01*
Y54500D01*
X512001D01*
X513001Y53500D01*
X512001Y62498D02*
Y58499D01*
X515000D01*
X514000Y60498D01*
Y61498D01*
X515000Y62498D01*
X516999D01*
X517999Y61498D01*
Y59499D01*
X516999Y58499D01*
X138002Y222001D02*
Y227999D01*
X140002Y226000D01*
X142001Y227999D01*
Y222001D01*
X144000Y227999D02*
Y222001D01*
X146999D01*
X147999Y223001D01*
Y226999D01*
X146999Y227999D01*
X144000D01*
X149998Y222001D02*
X151998D01*
X150998D01*
Y227999D01*
X149998Y226999D01*
X339501Y67502D02*
X345499D01*
Y71500D01*
X340501Y73500D02*
X339501Y74499D01*
Y76499D01*
X340501Y77498D01*
X341500D01*
X342500Y76499D01*
Y75499D01*
Y76499D01*
X343500Y77498D01*
X344499D01*
X345499Y76499D01*
Y74499D01*
X344499Y73500D01*
X329501Y67502D02*
X335499D01*
Y71500D01*
Y77498D02*
Y73500D01*
X331500Y77498D01*
X330501D01*
X329501Y76499D01*
Y74499D01*
X330501Y73500D01*
X319501Y68501D02*
X325499D01*
Y72500D01*
Y74499D02*
Y76499D01*
Y75499D01*
X319501D01*
X320501Y74499D01*
X39000Y426936D02*
X37001D01*
X38001D01*
Y421938D01*
X37001Y420938D01*
X36001D01*
X35002Y421938D01*
X44998Y420938D02*
X41000D01*
X44998Y424937D01*
Y425936D01*
X43999Y426936D01*
X41999D01*
X41000Y425936D01*
X124000Y552999D02*
X122001D01*
X123001D01*
Y548001D01*
X122001Y547001D01*
X121001D01*
X120002Y548001D01*
X126000Y551999D02*
X126999Y552999D01*
X128999D01*
X129998Y551999D01*
Y551000D01*
X128999Y550000D01*
X127999D01*
X128999D01*
X129998Y549000D01*
Y548001D01*
X128999Y547001D01*
X126999D01*
X126000Y548001D01*
X244000Y552999D02*
X242001D01*
X243001D01*
Y548001D01*
X242001Y547001D01*
X241001D01*
X240002Y548001D01*
X248999Y547001D02*
Y552999D01*
X246000Y550000D01*
X249998D01*
X364000Y552999D02*
X362001D01*
X363001D01*
Y548001D01*
X362001Y547001D01*
X361001D01*
X360002Y548001D01*
X369998Y552999D02*
X366000D01*
Y550000D01*
X367999Y551000D01*
X368999D01*
X369998Y550000D01*
Y548001D01*
X368999Y547001D01*
X366999D01*
X366000Y548001D01*
X604000Y552999D02*
X602001D01*
X603001D01*
Y548001D01*
X602001Y547001D01*
X601001D01*
X600002Y548001D01*
X606000Y552999D02*
X609998D01*
Y551999D01*
X606000Y548001D01*
Y547001D01*
X484000Y552999D02*
X482001D01*
X483001D01*
Y548001D01*
X482001Y547001D01*
X481001D01*
X480002Y548001D01*
X489998Y552999D02*
X487999Y551999D01*
X486000Y550000D01*
Y548001D01*
X486999Y547001D01*
X488999D01*
X489998Y548001D01*
Y549000D01*
X488999Y550000D01*
X486000D01*
X40000Y317999D02*
X38001D01*
X39000D01*
Y313001D01*
X38001Y312001D01*
X37001D01*
X36001Y313001D01*
X41999Y312001D02*
X43999D01*
X42999D01*
Y317999D01*
X41999Y316999D01*
X555001Y467502D02*
X560999D01*
Y470501D01*
X559999Y471500D01*
X556001D01*
X555001Y470501D01*
Y467502D01*
X556001Y473500D02*
X555001Y474499D01*
Y476499D01*
X556001Y477498D01*
X557000D01*
X558000Y476499D01*
X559000Y477498D01*
X559999D01*
X560999Y476499D01*
Y474499D01*
X559999Y473500D01*
X559000D01*
X558000Y474499D01*
X557000Y473500D01*
X556001D01*
X558000Y474499D02*
Y476499D01*
X480002Y295499D02*
Y289501D01*
X483001D01*
X484000Y290501D01*
Y294499D01*
X483001Y295499D01*
X480002D01*
X489998D02*
X487999Y294499D01*
X486000Y292500D01*
Y290501D01*
X486999Y289501D01*
X488999D01*
X489998Y290501D01*
Y291500D01*
X488999Y292500D01*
X486000D01*
X570002Y295499D02*
Y289501D01*
X573001D01*
X574001Y290501D01*
Y294499D01*
X573001Y295499D01*
X570002D01*
X576000Y289501D02*
X578000D01*
X577000D01*
Y295499D01*
X576000Y294499D01*
X580999D02*
X581998Y295499D01*
X583998D01*
X584998Y294499D01*
Y290501D01*
X583998Y289501D01*
X581998D01*
X580999Y290501D01*
Y294499D01*
X540002Y147999D02*
Y142001D01*
X543001D01*
X544000Y143001D01*
Y146999D01*
X543001Y147999D01*
X540002D01*
X546000D02*
X549998D01*
Y146999D01*
X546000Y143001D01*
Y142001D01*
X460002Y290499D02*
Y284501D01*
X463001D01*
X464000Y285501D01*
Y289499D01*
X463001Y290499D01*
X460002D01*
X469998D02*
X466000D01*
Y287500D01*
X467999Y288500D01*
X468999D01*
X469998Y287500D01*
Y285501D01*
X468999Y284501D01*
X466999D01*
X466000Y285501D01*
X544501Y272502D02*
X550499D01*
Y275501D01*
X549499Y276500D01*
X545501D01*
X544501Y275501D01*
Y272502D01*
X549499Y278500D02*
X550499Y279499D01*
Y281499D01*
X549499Y282498D01*
X545501D01*
X544501Y281499D01*
Y279499D01*
X545501Y278500D01*
X546500D01*
X547500Y279499D01*
Y282498D01*
X382502Y182499D02*
Y176501D01*
X385501D01*
X386500Y177501D01*
Y181499D01*
X385501Y182499D01*
X382502D01*
X391499Y176501D02*
Y182499D01*
X388500Y179500D01*
X392498D01*
X247502Y100499D02*
Y94501D01*
X250501D01*
X251500Y95501D01*
Y99499D01*
X250501Y100499D01*
X247502D01*
X257498Y94501D02*
X253500D01*
X257498Y98500D01*
Y99499D01*
X256499Y100499D01*
X254499D01*
X253500Y99499D01*
X213501Y100499D02*
Y94501D01*
X216500D01*
X217500Y95501D01*
Y99499D01*
X216500Y100499D01*
X213501D01*
X219499Y94501D02*
X221499D01*
X220499D01*
Y100499D01*
X219499Y99499D01*
X616002Y90499D02*
Y84501D01*
X619001D01*
X620001Y85501D01*
Y89499D01*
X619001Y90499D01*
X616002D01*
X622000Y84501D02*
X624000D01*
X623000D01*
Y90499D01*
X622000Y89499D01*
X626999Y84501D02*
X628998D01*
X627998D01*
Y90499D01*
X626999Y89499D01*
X99000Y426999D02*
X98001Y427999D01*
X96001D01*
X95002Y426999D01*
Y423001D01*
X96001Y422001D01*
X98001D01*
X99000Y423001D01*
X104998Y427999D02*
X102999Y426999D01*
X101000Y425000D01*
Y423001D01*
X101999Y422001D01*
X103999D01*
X104998Y423001D01*
Y424000D01*
X103999Y425000D01*
X101000D01*
X79000Y426999D02*
X78001Y427999D01*
X76001D01*
X75002Y426999D01*
Y423001D01*
X76001Y422001D01*
X78001D01*
X79000Y423001D01*
X84998Y427999D02*
X81000D01*
Y425000D01*
X82999Y426000D01*
X83999D01*
X84998Y425000D01*
Y423001D01*
X83999Y422001D01*
X81999D01*
X81000Y423001D01*
X219000Y426999D02*
X218001Y427999D01*
X216001D01*
X215002Y426999D01*
Y423001D01*
X216001Y422001D01*
X218001D01*
X219000Y423001D01*
X221000Y426999D02*
X221999Y427999D01*
X223999D01*
X224998Y426999D01*
Y426000D01*
X223999Y425000D01*
X224998Y424000D01*
Y423001D01*
X223999Y422001D01*
X221999D01*
X221000Y423001D01*
Y424000D01*
X221999Y425000D01*
X221000Y426000D01*
Y426999D01*
X221999Y425000D02*
X223999D01*
X199000Y426999D02*
X198001Y427999D01*
X196001D01*
X195002Y426999D01*
Y423001D01*
X196001Y422001D01*
X198001D01*
X199000Y423001D01*
X201000Y427999D02*
X204998D01*
Y426999D01*
X201000Y423001D01*
Y422001D01*
X336501Y426999D02*
X335502Y427999D01*
X333502D01*
X332502Y426999D01*
Y423001D01*
X333502Y422001D01*
X335502D01*
X336501Y423001D01*
X338500Y422001D02*
X340500D01*
X339500D01*
Y427999D01*
X338500Y426999D01*
X347498Y427999D02*
X343499D01*
Y425000D01*
X345498Y426000D01*
X346498D01*
X347498Y425000D01*
Y423001D01*
X346498Y422001D01*
X344498D01*
X343499Y423001D01*
X316501Y426999D02*
X315501Y427999D01*
X313502D01*
X312502Y426999D01*
Y423001D01*
X313502Y422001D01*
X315501D01*
X316501Y423001D01*
X318500Y422001D02*
X320500D01*
X319500D01*
Y427999D01*
X318500Y426999D01*
X323499D02*
X324499Y427999D01*
X326498D01*
X327498Y426999D01*
Y426000D01*
X326498Y425000D01*
X325498D01*
X326498D01*
X327498Y424000D01*
Y423001D01*
X326498Y422001D01*
X324499D01*
X323499Y423001D01*
X456501Y426999D02*
X455502Y427999D01*
X453502D01*
X452502Y426999D01*
Y423001D01*
X453502Y422001D01*
X455502D01*
X456501Y423001D01*
X458500Y422001D02*
X460500D01*
X459500D01*
Y427999D01*
X458500Y426999D01*
X463499D02*
X464499Y427999D01*
X466498D01*
X467498Y426999D01*
Y426000D01*
X466498Y425000D01*
X467498Y424000D01*
Y423001D01*
X466498Y422001D01*
X464499D01*
X463499Y423001D01*
Y424000D01*
X464499Y425000D01*
X463499Y426000D01*
Y426999D01*
X464499Y425000D02*
X466498D01*
X435044Y426999D02*
X434045Y427999D01*
X432045D01*
X431046Y426999D01*
Y423001D01*
X432045Y422001D01*
X434045D01*
X435044Y423001D01*
X437044Y422001D02*
X439043D01*
X438043D01*
Y427999D01*
X437044Y426999D01*
X442042Y427999D02*
X446041D01*
Y426999D01*
X442042Y423001D01*
Y422001D01*
X298113Y138940D02*
X296699D01*
X295286Y137526D01*
Y136112D01*
X298113Y133285D01*
X299527D01*
X300941Y134698D01*
Y136112D01*
X303061Y136819D02*
X304475Y138233D01*
X303768Y137526D01*
X299527Y141767D01*
Y140353D01*
X309423Y143181D02*
X306596Y140353D01*
Y146009D01*
X305889Y146715D01*
X304475D01*
X303061Y145302D01*
Y143888D01*
X263113Y138940D02*
X261699D01*
X260286Y137526D01*
Y136112D01*
X263113Y133285D01*
X264527D01*
X265941Y134698D01*
Y136112D01*
X268061Y136819D02*
X269475Y138233D01*
X268768Y137526D01*
X264527Y141767D01*
Y140353D01*
X268061Y143888D02*
Y145302D01*
X269475Y146715D01*
X270889D01*
X273716Y143888D01*
Y142474D01*
X272303Y141060D01*
X270889D01*
X268061Y143888D01*
X222502Y139000D02*
X221502Y138001D01*
Y136001D01*
X222502Y135002D01*
X226500D01*
X227500Y136001D01*
Y138001D01*
X226500Y139000D01*
Y141000D02*
X227500Y141999D01*
Y143999D01*
X226500Y144998D01*
X222502D01*
X221502Y143999D01*
Y141999D01*
X222502Y141000D01*
X223501D01*
X224501Y141999D01*
Y144998D01*
X431001Y116501D02*
X430001Y115501D01*
Y113502D01*
X431001Y112502D01*
X434999D01*
X435999Y113502D01*
Y115501D01*
X434999Y116501D01*
X435999Y118500D02*
Y120500D01*
Y119500D01*
X430001D01*
X431001Y118500D01*
X430001Y127498D02*
X431001Y125498D01*
X433000Y123499D01*
X434999D01*
X435999Y124499D01*
Y126498D01*
X434999Y127498D01*
X434000D01*
X433000Y126498D01*
Y123499D01*
X533001Y119501D02*
X532001Y118501D01*
Y116502D01*
X533001Y115502D01*
X536999D01*
X537999Y116502D01*
Y118501D01*
X536999Y119501D01*
X537999Y125499D02*
Y121500D01*
X534000Y125499D01*
X533001D01*
X532001Y124499D01*
Y122500D01*
X533001Y121500D01*
X537999Y127498D02*
Y129498D01*
Y128498D01*
X532001D01*
X533001Y127498D01*
X461501Y249499D02*
X460501Y250499D01*
X458502D01*
X457502Y249499D01*
Y245501D01*
X458502Y244501D01*
X460501D01*
X461501Y245501D01*
X463500Y244501D02*
X465500D01*
X464500D01*
Y250499D01*
X463500Y249499D01*
X468499Y245501D02*
X469498Y244501D01*
X471498D01*
X472498Y245501D01*
Y249499D01*
X471498Y250499D01*
X469498D01*
X468499Y249499D01*
Y248500D01*
X469498Y247500D01*
X472498D01*
X463001Y191001D02*
X462001Y190002D01*
Y188002D01*
X463001Y187003D01*
X466999D01*
X467999Y188002D01*
Y190002D01*
X466999Y191001D01*
X467999Y196999D02*
Y193001D01*
X464000Y196999D01*
X463001D01*
X462001Y196000D01*
Y194000D01*
X463001Y193001D01*
Y198999D02*
X462001Y199998D01*
Y201998D01*
X463001Y202997D01*
X466999D01*
X467999Y201998D01*
Y199998D01*
X466999Y198999D01*
X463001D01*
X556001Y249499D02*
X555002Y250499D01*
X553002D01*
X552003Y249499D01*
Y245501D01*
X553002Y244501D01*
X555002D01*
X556001Y245501D01*
X561999Y244501D02*
X558001D01*
X561999Y248500D01*
Y249499D01*
X561000Y250499D01*
X559000D01*
X558001Y249499D01*
X567997Y244501D02*
X563999D01*
X567997Y248500D01*
Y249499D01*
X566998Y250499D01*
X564998D01*
X563999Y249499D01*
X558001Y191001D02*
X557001Y190002D01*
Y188002D01*
X558001Y187003D01*
X561999D01*
X562999Y188002D01*
Y190002D01*
X561999Y191001D01*
X562999Y196999D02*
Y193001D01*
X559000Y196999D01*
X558001D01*
X557001Y196000D01*
Y194000D01*
X558001Y193001D01*
Y198999D02*
X557001Y199998D01*
Y201998D01*
X558001Y202997D01*
X559000D01*
X560000Y201998D01*
Y200998D01*
Y201998D01*
X561000Y202997D01*
X561999D01*
X562999Y201998D01*
Y199998D01*
X561999Y198999D01*
X62500Y341428D02*
X61500Y342428D01*
X59501D01*
X58501Y341428D01*
Y337430D01*
X59501Y336430D01*
X61500D01*
X62500Y337430D01*
X64499Y336430D02*
X66499D01*
X65499D01*
Y342428D01*
X64499Y341428D01*
X59000Y266999D02*
X58001Y267999D01*
X56001D01*
X55002Y266999D01*
Y263001D01*
X56001Y262001D01*
X58001D01*
X59000Y263001D01*
X63999Y262001D02*
Y267999D01*
X61000Y265000D01*
X64998D01*
X326501Y354499D02*
X325501Y355499D01*
X323502D01*
X322502Y354499D01*
Y350501D01*
X323502Y349501D01*
X325501D01*
X326501Y350501D01*
X328501Y349501D02*
X330500D01*
X329500D01*
Y355499D01*
X328501Y354499D01*
X336498Y349501D02*
Y355499D01*
X333499Y352500D01*
X337498D01*
X257501Y354499D02*
X256501Y355499D01*
X254502D01*
X253502Y354499D01*
Y350501D01*
X254502Y349501D01*
X256501D01*
X257501Y350501D01*
X259500Y349501D02*
X261500D01*
X260500D01*
Y355499D01*
X259500Y354499D01*
X264498Y349501D02*
X266498D01*
X265498D01*
Y355499D01*
X264498Y354499D01*
D15*
X511500Y312500D02*
X512500Y311500D01*
X511500Y297500D02*
X512500Y298500D01*
X477500Y311500D02*
X478500Y312500D01*
X477500Y298500D02*
X478500Y297500D01*
X511500D01*
X478500Y312500D02*
X511500D01*
X512500Y298500D02*
Y311500D01*
X477500Y298500D02*
Y311500D01*
X606500Y312500D02*
X607500Y311500D01*
X606500Y297500D02*
X607500Y298500D01*
X572500Y311500D02*
X573500Y312500D01*
X572500Y298500D02*
X573500Y297500D01*
X606500D01*
X573500Y312500D02*
X606500D01*
X607500Y298500D02*
Y311500D01*
X572500Y298500D02*
Y311500D01*
X256879Y511346D02*
X259378D01*
X258129D01*
Y503848D01*
X256879D01*
X259378D01*
X263127D02*
X266876D01*
X268126Y505098D01*
X266876Y506348D01*
X264377D01*
X263127Y507597D01*
X264377Y508847D01*
X268126D01*
X271874Y503848D02*
X274374D01*
X275623Y505098D01*
Y507597D01*
X274374Y508847D01*
X271874D01*
X270625Y507597D01*
Y505098D01*
X271874Y503848D01*
X278122Y507597D02*
X283121D01*
X253755Y491251D02*
X256254D01*
X255005D01*
Y498749D01*
X253755D01*
X261253Y496250D02*
X263752D01*
X265002Y495000D01*
Y491251D01*
X261253D01*
X260003Y492501D01*
X261253Y493750D01*
X265002D01*
X268750Y497499D02*
Y496250D01*
X267501D01*
X270000D01*
X268750D01*
Y492501D01*
X270000Y491251D01*
X277498D02*
X274998D01*
X273749Y492501D01*
Y495000D01*
X274998Y496250D01*
X277498D01*
X278747Y495000D01*
Y493750D01*
X273749D01*
X286245Y498749D02*
Y491251D01*
X282496D01*
X281246Y492501D01*
Y495000D01*
X282496Y496250D01*
X286245D01*
X265002Y484902D02*
X263752Y486152D01*
X261253D01*
X260003Y484902D01*
Y483652D01*
X261253Y482403D01*
X263752D01*
X265002Y481153D01*
Y479904D01*
X263752Y478654D01*
X261253D01*
X260003Y479904D01*
X268750Y478654D02*
Y486152D01*
X271250D02*
Y478654D01*
X267501Y483652D02*
X271250D01*
X272499D01*
X267501Y481153D02*
X272499D01*
X274998Y484902D02*
X276248Y486152D01*
X278747D01*
X279997Y484902D01*
Y483652D01*
X278747Y482403D01*
X277498D01*
X278747D01*
X279997Y481153D01*
Y479904D01*
X278747Y478654D01*
X276248D01*
X274998Y479904D01*
X121882Y415096D02*
Y407598D01*
X125630D01*
X126880Y408848D01*
Y410097D01*
X125630Y411347D01*
X121882D01*
X125630D01*
X126880Y412596D01*
Y413846D01*
X125630Y415096D01*
X121882D01*
X130629Y412596D02*
X133128D01*
X134378Y411347D01*
Y407598D01*
X130629D01*
X129379Y408848D01*
X130629Y410097D01*
X134378D01*
X138126Y413846D02*
Y412596D01*
X136877D01*
X139376D01*
X138126D01*
Y408848D01*
X139376Y407598D01*
X144374Y413846D02*
Y412596D01*
X143125D01*
X145624D01*
X144374D01*
Y408848D01*
X145624Y407598D01*
X153122D02*
X150622D01*
X149373Y408848D01*
Y411347D01*
X150622Y412596D01*
X153122D01*
X154371Y411347D01*
Y410097D01*
X149373D01*
X156870Y412596D02*
Y407598D01*
Y410097D01*
X158120Y411347D01*
X159370Y412596D01*
X160619D01*
X164368D02*
Y408848D01*
X165618Y407598D01*
X169366D01*
Y406348D01*
X168117Y405099D01*
X166867D01*
X169366Y407598D02*
Y412596D01*
X136877Y399999D02*
Y392502D01*
X139376Y395001D01*
X141875Y392502D01*
Y399999D01*
X145624Y397500D02*
X148123D01*
X149373Y396250D01*
Y392502D01*
X145624D01*
X144374Y393751D01*
X145624Y395001D01*
X149373D01*
X153122Y398750D02*
Y397500D01*
X151872D01*
X154371D01*
X153122D01*
Y393751D01*
X154371Y392502D01*
X161869D02*
X159370D01*
X158120Y393751D01*
Y396250D01*
X159370Y397500D01*
X161869D01*
X163118Y396250D01*
Y395001D01*
X158120D01*
X165618Y397500D02*
Y392502D01*
Y395001D01*
X166867Y396250D01*
X168117Y397500D01*
X169366D01*
X130629Y387402D02*
Y379905D01*
X134378D01*
X135627Y381154D01*
Y386153D01*
X134378Y387402D01*
X130629D01*
X141875Y379905D02*
X139376D01*
X138126Y381154D01*
Y383653D01*
X139376Y384903D01*
X141875D01*
X143125Y383653D01*
Y382404D01*
X138126D01*
X146874Y386153D02*
Y384903D01*
X145624D01*
X148123D01*
X146874D01*
Y381154D01*
X148123Y379905D01*
X155621D02*
X153122D01*
X151872Y381154D01*
Y383653D01*
X153122Y384903D01*
X155621D01*
X156870Y383653D01*
Y382404D01*
X151872D01*
X164368Y384903D02*
X160619D01*
X159370Y383653D01*
Y381154D01*
X160619Y379905D01*
X164368D01*
X168117Y386153D02*
Y384903D01*
X166867D01*
X169366D01*
X168117D01*
Y381154D01*
X169366Y379905D01*
X123515Y366297D02*
Y358799D01*
X127264D01*
X128514Y360049D01*
Y361298D01*
X127264Y362548D01*
X123515D01*
X127264D01*
X128514Y363798D01*
Y365047D01*
X127264Y366297D01*
X123515D01*
X132263Y363798D02*
X134762D01*
X136011Y362548D01*
Y358799D01*
X132263D01*
X131013Y360049D01*
X132263Y361298D01*
X136011D01*
X139760Y365047D02*
Y363798D01*
X138511D01*
X141010D01*
X139760D01*
Y360049D01*
X141010Y358799D01*
X146008Y365047D02*
Y363798D01*
X144758D01*
X147258D01*
X146008D01*
Y360049D01*
X147258Y358799D01*
X154755D02*
X152256D01*
X151006Y360049D01*
Y362548D01*
X152256Y363798D01*
X154755D01*
X156005Y362548D01*
Y361298D01*
X151006D01*
X158504Y363798D02*
Y358799D01*
Y361298D01*
X159754Y362548D01*
X161003Y363798D01*
X162253D01*
X166002D02*
Y360049D01*
X167251Y358799D01*
X171000D01*
Y357550D01*
X169750Y356300D01*
X168501D01*
X171000Y358799D02*
Y363798D01*
X102272Y351201D02*
X107271D01*
X104771D01*
Y343703D01*
X109770Y351201D02*
Y343703D01*
Y347452D01*
X111019Y348702D01*
X113519D01*
X114768Y347452D01*
Y343703D01*
X121016D02*
X118517D01*
X117267Y344953D01*
Y347452D01*
X118517Y348702D01*
X121016D01*
X122266Y347452D01*
Y346202D01*
X117267D01*
X124765Y348702D02*
Y343703D01*
Y346202D01*
X126014Y347452D01*
X127264Y348702D01*
X128514D01*
X132263Y343703D02*
Y348702D01*
X133512D01*
X134762Y347452D01*
Y343703D01*
Y347452D01*
X136011Y348702D01*
X137261Y347452D01*
Y343703D01*
X139760D02*
X142259D01*
X141010D01*
Y348702D01*
X139760D01*
X146008Y343703D02*
X149757D01*
X151006Y344953D01*
X149757Y346202D01*
X147258D01*
X146008Y347452D01*
X147258Y348702D01*
X151006D01*
X154755Y349951D02*
Y348702D01*
X153506D01*
X156005D01*
X154755D01*
Y344953D01*
X156005Y343703D01*
X161003D02*
X163502D01*
X164752Y344953D01*
Y347452D01*
X163502Y348702D01*
X161003D01*
X159754Y347452D01*
Y344953D01*
X161003Y343703D01*
X167251Y348702D02*
Y343703D01*
Y346202D01*
X168501Y347452D01*
X169750Y348702D01*
X171000D01*
X377988Y510326D02*
X380487D01*
X379238D01*
Y502828D01*
X377988D01*
X380487D01*
X384236D02*
X387985D01*
X389235Y504078D01*
X387985Y505328D01*
X385486D01*
X384236Y506577D01*
X385486Y507827D01*
X389235D01*
X392983Y502828D02*
X395482D01*
X396732Y504078D01*
Y506577D01*
X395482Y507827D01*
X392983D01*
X391734Y506577D01*
Y504078D01*
X392983Y502828D01*
X399231Y506577D02*
X404230D01*
X374864Y490231D02*
X377363D01*
X376114D01*
Y497729D01*
X374864D01*
X382362Y495230D02*
X384861D01*
X386111Y493980D01*
Y490231D01*
X382362D01*
X381112Y491481D01*
X382362Y492730D01*
X386111D01*
X389859Y496479D02*
Y495230D01*
X388610D01*
X391109D01*
X389859D01*
Y491481D01*
X391109Y490231D01*
X398606D02*
X396107D01*
X394858Y491481D01*
Y493980D01*
X396107Y495230D01*
X398606D01*
X399856Y493980D01*
Y492730D01*
X394858D01*
X407354Y497729D02*
Y490231D01*
X403605D01*
X402355Y491481D01*
Y493980D01*
X403605Y495230D01*
X407354D01*
X386111Y483882D02*
X384861Y485132D01*
X382362D01*
X381112Y483882D01*
Y482632D01*
X382362Y481383D01*
X384861D01*
X386111Y480133D01*
Y478884D01*
X384861Y477634D01*
X382362D01*
X381112Y478884D01*
X389859Y477634D02*
Y485132D01*
X392359D02*
Y477634D01*
X388610Y482632D02*
X392359D01*
X393608D01*
X388610Y480133D02*
X393608D01*
X401106Y477634D02*
X396107D01*
X401106Y482632D01*
Y483882D01*
X399856Y485132D01*
X397357D01*
X396107Y483882D01*
X57006Y325797D02*
Y318299D01*
X60754D01*
X62004Y319549D01*
Y324547D01*
X60754Y325797D01*
X57006D01*
X68252Y318299D02*
X65753D01*
X64503Y319549D01*
Y322048D01*
X65753Y323298D01*
X68252D01*
X69502Y322048D01*
Y320798D01*
X64503D01*
X72001Y325797D02*
Y318299D01*
X75750D01*
X76999Y319549D01*
Y320798D01*
Y322048D01*
X75750Y323298D01*
X72001D01*
X79498D02*
Y319549D01*
X80748Y318299D01*
X84497D01*
Y323298D01*
X89495Y315800D02*
X90745D01*
X91994Y317050D01*
Y323298D01*
X88246D01*
X86996Y322048D01*
Y319549D01*
X88246Y318299D01*
X91994D01*
X64503Y310701D02*
Y304453D01*
X65753Y303203D01*
X68252D01*
X69502Y304453D01*
Y310701D01*
X76999Y309451D02*
X75750Y310701D01*
X73250D01*
X72001Y309451D01*
Y308202D01*
X73250Y306952D01*
X75750D01*
X76999Y305702D01*
Y304453D01*
X75750Y303203D01*
X73250D01*
X72001Y304453D01*
X79498Y310701D02*
Y303203D01*
X83247D01*
X84497Y304453D01*
Y305702D01*
X83247Y306952D01*
X79498D01*
X83247D01*
X84497Y308202D01*
Y309451D01*
X83247Y310701D01*
X79498D01*
X94950Y63755D02*
X87453D01*
X89952Y66254D01*
X87453Y68754D01*
X94950D01*
Y72502D02*
Y75002D01*
X93701Y76251D01*
X91201D01*
X89952Y75002D01*
Y72502D01*
X91201Y71253D01*
X93701D01*
X94950Y72502D01*
X88702Y80000D02*
X89952D01*
Y78750D01*
Y81250D01*
Y80000D01*
X93701D01*
X94950Y81250D01*
Y86248D02*
Y88747D01*
X93701Y89997D01*
X91201D01*
X89952Y88747D01*
Y86248D01*
X91201Y84998D01*
X93701D01*
X94950Y86248D01*
X89952Y92496D02*
X94950D01*
X92451D01*
X91201Y93746D01*
X89952Y94995D01*
Y96245D01*
X107547Y48135D02*
X100050D01*
Y51884D01*
X101299Y53134D01*
X103798D01*
X105048Y51884D01*
Y48135D01*
Y50634D02*
X107547Y53134D01*
Y59382D02*
Y56883D01*
X106298Y55633D01*
X103798D01*
X102549Y56883D01*
Y59382D01*
X103798Y60631D01*
X105048D01*
Y55633D01*
X107547Y64380D02*
X101299D01*
X103798D01*
Y63130D01*
Y65630D01*
Y64380D01*
X101299D01*
X100050Y65630D01*
X107547Y73127D02*
Y70628D01*
X106298Y69378D01*
X103798D01*
X102549Y70628D01*
Y73127D01*
X103798Y74377D01*
X105048D01*
Y69378D01*
X102549Y76876D02*
X107547D01*
X105048D01*
X103798Y78126D01*
X102549Y79375D01*
Y80625D01*
X107547Y88122D02*
Y85623D01*
X106298Y84374D01*
X103798D01*
X102549Y85623D01*
Y88122D01*
X103798Y89372D01*
X105048D01*
Y84374D01*
X107547Y91871D02*
X102549D01*
Y95620D01*
X103798Y96870D01*
X107547D01*
X102549Y104367D02*
Y100618D01*
X103798Y99369D01*
X106298D01*
X107547Y100618D01*
Y104367D01*
Y110615D02*
Y108116D01*
X106298Y106866D01*
X103798D01*
X102549Y108116D01*
Y110615D01*
X103798Y111865D01*
X105048D01*
Y106866D01*
X597506Y433797D02*
Y426299D01*
X601254D01*
X602504Y427549D01*
Y432547D01*
X601254Y433797D01*
X597506D01*
X608752Y426299D02*
X606253D01*
X605003Y427549D01*
Y430048D01*
X606253Y431298D01*
X608752D01*
X610002Y430048D01*
Y428798D01*
X605003D01*
X612501Y433797D02*
Y426299D01*
X616250D01*
X617499Y427549D01*
Y428798D01*
Y430048D01*
X616250Y431298D01*
X612501D01*
X619998D02*
Y427549D01*
X621248Y426299D01*
X624997D01*
Y431298D01*
X629995Y423800D02*
X631245D01*
X632494Y425050D01*
Y431298D01*
X628746D01*
X627496Y430048D01*
Y427549D01*
X628746Y426299D01*
X632494D01*
X590008Y418701D02*
Y411203D01*
Y414952D01*
X595007D01*
Y418701D01*
Y411203D01*
X601254D02*
X598755D01*
X597506Y412453D01*
Y414952D01*
X598755Y416201D01*
X601254D01*
X602504Y414952D01*
Y413702D01*
X597506D01*
X606253Y416201D02*
X608752D01*
X610002Y414952D01*
Y411203D01*
X606253D01*
X605003Y412453D01*
X606253Y413702D01*
X610002D01*
X617499Y418701D02*
Y411203D01*
X613750D01*
X612501Y412453D01*
Y414952D01*
X613750Y416201D01*
X617499D01*
X623747Y411203D02*
X621248D01*
X619998Y412453D01*
Y414952D01*
X621248Y416201D01*
X623747D01*
X624997Y414952D01*
Y413702D01*
X619998D01*
X627496Y416201D02*
Y411203D01*
Y413702D01*
X628746Y414952D01*
X629995Y416201D01*
X631245D01*
X634994Y411203D02*
X638742D01*
X639992Y412453D01*
X638742Y413702D01*
X636243D01*
X634994Y414952D01*
X636243Y416201D01*
X639992D01*
X616254Y506297D02*
X621253D01*
X618754D01*
Y498799D01*
X627501D02*
X625002D01*
X623752Y500049D01*
Y502548D01*
X625002Y503798D01*
X627501D01*
X628750Y502548D01*
Y501299D01*
X623752D01*
X631250Y498799D02*
Y503798D01*
X632499D01*
X633749Y502548D01*
Y498799D01*
Y502548D01*
X634998Y503798D01*
X636248Y502548D01*
Y498799D01*
X638747Y496300D02*
Y503798D01*
X642496D01*
X643746Y502548D01*
Y500049D01*
X642496Y498799D01*
X638747D01*
X614380Y489951D02*
X613131Y491201D01*
X610631D01*
X609382Y489951D01*
Y488701D01*
X610631Y487452D01*
X613131D01*
X614380Y486202D01*
Y484953D01*
X613131Y483703D01*
X610631D01*
X609382Y484953D01*
X620628Y483703D02*
X618129D01*
X616879Y484953D01*
Y487452D01*
X618129Y488701D01*
X620628D01*
X621878Y487452D01*
Y486202D01*
X616879D01*
X624377Y483703D02*
Y488701D01*
X628126D01*
X629375Y487452D01*
Y483703D01*
X631874D02*
X635623D01*
X636873Y484953D01*
X635623Y486202D01*
X633124D01*
X631874Y487452D01*
X633124Y488701D01*
X636873D01*
X640622Y483703D02*
X643121D01*
X644370Y484953D01*
Y487452D01*
X643121Y488701D01*
X640622D01*
X639372Y487452D01*
Y484953D01*
X640622Y483703D01*
X646870Y488701D02*
Y483703D01*
Y486202D01*
X648119Y487452D01*
X649369Y488701D01*
X650618D01*
X136879Y511346D02*
X139378D01*
X138129D01*
Y503848D01*
X136879D01*
X139378D01*
X143127D02*
X146876D01*
X148126Y505098D01*
X146876Y506348D01*
X144377D01*
X143127Y507597D01*
X144377Y508847D01*
X148126D01*
X151874Y503848D02*
X154374D01*
X155623Y505098D01*
Y507597D01*
X154374Y508847D01*
X151874D01*
X150625Y507597D01*
Y505098D01*
X151874Y503848D01*
X158122Y507597D02*
X163121D01*
X133755Y491251D02*
X136254D01*
X135005D01*
Y498749D01*
X133755D01*
X141253Y496250D02*
X143752D01*
X145002Y495000D01*
Y491251D01*
X141253D01*
X140003Y492501D01*
X141253Y493750D01*
X145002D01*
X148750Y497499D02*
Y496250D01*
X147501D01*
X150000D01*
X148750D01*
Y492501D01*
X150000Y491251D01*
X157498D02*
X154998D01*
X153749Y492501D01*
Y495000D01*
X154998Y496250D01*
X157498D01*
X158747Y495000D01*
Y493750D01*
X153749D01*
X166245Y498749D02*
Y491251D01*
X162496D01*
X161246Y492501D01*
Y495000D01*
X162496Y496250D01*
X166245D01*
X145002Y484902D02*
X143752Y486152D01*
X141253D01*
X140003Y484902D01*
Y483652D01*
X141253Y482403D01*
X143752D01*
X145002Y481153D01*
Y479904D01*
X143752Y478654D01*
X141253D01*
X140003Y479904D01*
X148750Y478654D02*
Y486152D01*
X151250D02*
Y478654D01*
X147501Y483652D02*
X151250D01*
X152499D01*
X147501Y481153D02*
X152499D01*
X158747Y478654D02*
Y486152D01*
X154998Y482403D01*
X159997D01*
X568758Y52547D02*
Y45049D01*
X572507D01*
X573756Y46299D01*
Y47548D01*
X572507Y48798D01*
X568758D01*
X572507D01*
X573756Y50047D01*
Y51297D01*
X572507Y52547D01*
X568758D01*
X577505Y50047D02*
X580004D01*
X581254Y48798D01*
Y45049D01*
X577505D01*
X576255Y46299D01*
X577505Y47548D01*
X581254D01*
X585002Y51297D02*
Y50047D01*
X583753D01*
X586252D01*
X585002D01*
Y46299D01*
X586252Y45049D01*
X591250Y51297D02*
Y50047D01*
X590001D01*
X592500D01*
X591250D01*
Y46299D01*
X592500Y45049D01*
X599998D02*
X597498D01*
X596249Y46299D01*
Y48798D01*
X597498Y50047D01*
X599998D01*
X601247Y48798D01*
Y47548D01*
X596249D01*
X603746Y50047D02*
Y45049D01*
Y47548D01*
X604996Y48798D01*
X606246Y50047D01*
X607495D01*
X611244D02*
Y46299D01*
X612494Y45049D01*
X616242D01*
Y43799D01*
X614993Y42550D01*
X613743D01*
X616242Y45049D02*
Y50047D01*
X576880Y37450D02*
X579379D01*
X578130D01*
Y29953D01*
X576880D01*
X579379D01*
X583128D02*
Y34951D01*
X586877D01*
X588126Y33701D01*
Y29953D01*
X590626Y27454D02*
Y34951D01*
X594374D01*
X595624Y33701D01*
Y31202D01*
X594374Y29953D01*
X590626D01*
X598123Y34951D02*
Y31202D01*
X599373Y29953D01*
X603122D01*
Y34951D01*
X606870Y36201D02*
Y34951D01*
X605621D01*
X608120D01*
X606870D01*
Y31202D01*
X608120Y29953D01*
X496879Y511346D02*
X499378D01*
X498129D01*
Y503848D01*
X496879D01*
X499378D01*
X503127D02*
X506876D01*
X508126Y505098D01*
X506876Y506348D01*
X504377D01*
X503127Y507597D01*
X504377Y508847D01*
X508126D01*
X511874Y503848D02*
X514374D01*
X515623Y505098D01*
Y507597D01*
X514374Y508847D01*
X511874D01*
X510625Y507597D01*
Y505098D01*
X511874Y503848D01*
X518122Y507597D02*
X523121D01*
X493755Y491251D02*
X496254D01*
X495005D01*
Y498749D01*
X493755D01*
X501253Y496250D02*
X503752D01*
X505002Y495000D01*
Y491251D01*
X501253D01*
X500003Y492501D01*
X501253Y493750D01*
X505002D01*
X508750Y497499D02*
Y496250D01*
X507501D01*
X510000D01*
X508750D01*
Y492501D01*
X510000Y491251D01*
X517498D02*
X514998D01*
X513749Y492501D01*
Y495000D01*
X514998Y496250D01*
X517498D01*
X518747Y495000D01*
Y493750D01*
X513749D01*
X526245Y498749D02*
Y491251D01*
X522496D01*
X521246Y492501D01*
Y495000D01*
X522496Y496250D01*
X526245D01*
X506251Y484902D02*
X505002Y486152D01*
X502502D01*
X501253Y484902D01*
Y483652D01*
X502502Y482403D01*
X505002D01*
X506251Y481153D01*
Y479904D01*
X505002Y478654D01*
X502502D01*
X501253Y479904D01*
X510000Y478654D02*
Y486152D01*
X512499D02*
Y478654D01*
X508750Y483652D02*
X512499D01*
X513749D01*
X508750Y481153D02*
X513749D01*
X516248Y478654D02*
X518747D01*
X517498D01*
Y486152D01*
X516248Y484902D01*
X466254Y43799D02*
Y51297D01*
X468754Y48798D01*
X471253Y51297D01*
Y43799D01*
X473752D02*
Y51297D01*
X477501D01*
X478750Y50047D01*
Y47548D01*
X477501Y46299D01*
X473752D01*
X481250Y43799D02*
Y51297D01*
X484998D01*
X486248Y50047D01*
Y47548D01*
X484998Y46299D01*
X481250D01*
X488747Y51297D02*
X493746D01*
X491246D01*
Y43799D01*
X464380Y38700D02*
X466879D01*
X465630D01*
Y31202D01*
X464380D01*
X466879D01*
X470628D02*
Y36201D01*
X474377D01*
X475626Y34951D01*
Y31202D01*
X478126Y28703D02*
Y36201D01*
X481874D01*
X483124Y34951D01*
Y32452D01*
X481874Y31202D01*
X478126D01*
X485623Y36201D02*
Y32452D01*
X486873Y31202D01*
X490622D01*
Y36201D01*
X494370Y37450D02*
Y36201D01*
X493121D01*
X495620D01*
X494370D01*
Y32452D01*
X495620Y31202D01*
X166016Y31251D02*
Y38749D01*
X169765D01*
X171014Y37499D01*
Y35000D01*
X169765Y33750D01*
X166016D01*
X168515D02*
X171014Y31251D01*
X173514D02*
X178512Y36250D01*
X186010Y37499D02*
X184760Y38749D01*
X182261D01*
X181011Y37499D01*
Y32501D01*
X182261Y31251D01*
X184760D01*
X186010Y32501D01*
Y35000D01*
X183510D01*
X188509Y31251D02*
X193507Y36250D01*
X196007Y38749D02*
Y31251D01*
X199755D01*
X201005Y32501D01*
Y33750D01*
X199755Y35000D01*
X196007D01*
X199755D01*
X201005Y36250D01*
Y37499D01*
X199755Y38749D01*
X196007D01*
X203504Y31251D02*
X208502Y36250D01*
X211002Y31251D02*
Y36250D01*
X213501Y38749D01*
X216000Y36250D01*
Y31251D01*
Y35000D01*
X211002D01*
X330431Y390130D02*
X325130Y395431D01*
X328664Y395431D01*
X328664Y398966D01*
X333966Y393664D01*
X336616Y396315D02*
X338384Y398082D01*
Y399849D01*
X336616Y401616D01*
X334849D01*
X333082Y399849D01*
X333082Y398082D01*
X334849Y396315D01*
X336616D01*
X339267Y409569D02*
X344569Y404267D01*
X341918Y401616D01*
X340151D01*
X338384Y403384D01*
X338384Y405151D01*
X341034Y407802D01*
X348987Y408685D02*
X347220Y406918D01*
X345452D01*
X343685Y408685D01*
X343685Y410452D01*
X345452Y412220D01*
X347220D01*
X348103Y411336D01*
X344569Y407802D01*
X258664Y389362D02*
X253362Y394664D01*
X256013Y397315D01*
X257780D01*
X259548Y395548D01*
X259548Y393780D01*
X256897Y391130D01*
X258664Y392897D02*
X262198D01*
X266616Y397315D02*
X264849Y395548D01*
X263082D01*
X261315Y397315D01*
X261315Y399082D01*
X263082Y400849D01*
X264849D01*
X265733Y399966D01*
X262198Y396431D01*
X269267Y399966D02*
X271918Y402616D01*
Y404384D01*
X270151D01*
X268384Y402616D01*
X266616D01*
X266616Y404384D01*
X269267Y407034D01*
X277220Y407918D02*
X275452Y406151D01*
X273685D01*
X271918Y407918D01*
X271918Y409685D01*
X273685Y411452D01*
X275452D01*
X276336Y410569D01*
X272802Y407034D01*
X276336Y415870D02*
X277220Y414987D01*
X276336Y414103D01*
X278103Y415870D01*
X277220Y414987D01*
X279870Y412336D01*
X281638Y412336D01*
X453749Y186882D02*
X446251D01*
X448750Y189382D01*
X446251Y191881D01*
X453749D01*
Y195630D02*
Y198129D01*
X452499Y199378D01*
X450000D01*
X448750Y198129D01*
Y195630D01*
X450000Y194380D01*
X452499D01*
X453749Y195630D01*
X447501Y203127D02*
X448750D01*
Y201878D01*
Y204377D01*
Y203127D01*
X452499D01*
X453749Y204377D01*
Y209375D02*
Y211874D01*
X452499Y213124D01*
X450000D01*
X448750Y211874D01*
Y209375D01*
X450000Y208126D01*
X452499D01*
X453749Y209375D01*
X448750Y215623D02*
X453749D01*
X451250D01*
X450000Y216873D01*
X448750Y218122D01*
Y219372D01*
X453749Y230618D02*
Y233118D01*
Y231868D01*
X446251D01*
X447501Y230618D01*
X453749Y290633D02*
X446251D01*
X448750Y293132D01*
X446251Y295631D01*
X453749D01*
Y299380D02*
Y301879D01*
X452499Y303129D01*
X450000D01*
X448750Y301879D01*
Y299380D01*
X450000Y298130D01*
X452499D01*
X453749Y299380D01*
X447501Y306878D02*
X448750D01*
Y305628D01*
Y308127D01*
Y306878D01*
X452499D01*
X453749Y308127D01*
Y313126D02*
Y315625D01*
X452499Y316874D01*
X450000D01*
X448750Y315625D01*
Y313126D01*
X450000Y311876D01*
X452499D01*
X453749Y313126D01*
X448750Y319374D02*
X453749D01*
X451250D01*
X450000Y320623D01*
X448750Y321873D01*
Y323122D01*
X453749Y339367D02*
Y334369D01*
X448750Y339367D01*
X447501D01*
X446251Y338118D01*
Y335618D01*
X447501Y334369D01*
X481879Y307499D02*
X483129Y308749D01*
X485628D01*
X486878Y307499D01*
Y306250D01*
X485628Y305000D01*
X484378D01*
X485628D01*
X486878Y303750D01*
Y302501D01*
X485628Y301251D01*
X483129D01*
X481879Y302501D01*
X489377Y301251D02*
Y302501D01*
X490626D01*
Y301251D01*
X489377D01*
X495625Y302501D02*
X496874Y301251D01*
X499374D01*
X500623Y302501D01*
Y307499D01*
X499374Y308749D01*
X496874D01*
X495625Y307499D01*
Y306250D01*
X496874Y305000D01*
X500623D01*
X503122Y308749D02*
Y303750D01*
X505622Y301251D01*
X508121Y303750D01*
Y308749D01*
X576879Y307499D02*
X578129Y308749D01*
X580628D01*
X581878Y307499D01*
Y306250D01*
X580628Y305000D01*
X579378D01*
X580628D01*
X581878Y303750D01*
Y302501D01*
X580628Y301251D01*
X578129D01*
X576879Y302501D01*
X584377Y301251D02*
Y302501D01*
X585626D01*
Y301251D01*
X584377D01*
X590625Y307499D02*
X591874Y308749D01*
X594374D01*
X595623Y307499D01*
Y306250D01*
X594374Y305000D01*
X593124D01*
X594374D01*
X595623Y303750D01*
Y302501D01*
X594374Y301251D01*
X591874D01*
X590625Y302501D01*
X598122Y308749D02*
Y303750D01*
X600622Y301251D01*
X603121Y303750D01*
Y308749D01*
D16*
X564700Y195000D02*
X570300D01*
X469700D02*
X475300D01*
X48250Y136929D02*
X51750D01*
X545000Y133500D02*
Y136500D01*
X548500Y472000D02*
X551500D01*
X485000Y283500D02*
Y286500D01*
X580000Y283500D02*
Y286500D01*
X622374Y268200D02*
Y271700D01*
X643300Y114826D02*
X646800D01*
X638100Y114874D02*
X641600D01*
X623400Y259874D02*
X626900D01*
X618300D02*
X621800D01*
X619874Y248200D02*
Y251700D01*
X613300Y114874D02*
X616800D01*
X613100Y259874D02*
X616600D01*
X608100Y114874D02*
X611600D01*
X595126Y283300D02*
Y286800D01*
X594874Y493200D02*
Y496700D01*
Y483200D02*
Y486700D01*
X583263Y471929D02*
X586763D01*
X559874Y133200D02*
Y136700D01*
X559826Y138300D02*
Y141800D01*
X548300Y454874D02*
X551800D01*
X556500Y106000D02*
Y114000D01*
X543500Y106000D02*
Y114000D01*
X528400Y259874D02*
X531900D01*
X529874Y133200D02*
Y136700D01*
X523300Y259874D02*
X526800D01*
X524874Y248200D02*
Y251700D01*
X527374Y268200D02*
Y271700D01*
X497626Y105800D02*
Y109300D01*
X500126Y283300D02*
Y286800D01*
X475126Y483300D02*
Y486800D01*
Y493300D02*
Y496800D01*
X438500Y98500D02*
Y106500D01*
X451500Y98500D02*
Y106500D01*
X393200Y100126D02*
X396700D01*
X375126Y178300D02*
Y181800D01*
X374874Y198100D02*
Y201600D01*
Y203200D02*
Y206700D01*
Y208400D02*
Y211900D01*
X355126Y483300D02*
Y486800D01*
Y493300D02*
Y496800D01*
X340126Y388300D02*
Y391800D01*
X325737Y101929D02*
X329237D01*
X320700Y101926D02*
X324200D01*
X304626Y128300D02*
Y131800D01*
X268263Y158071D02*
X271763D01*
X270126Y388300D02*
Y391800D01*
X269626Y128300D02*
Y131800D01*
X262900Y158074D02*
X266400D01*
X246800Y141574D02*
X250300D01*
X241752Y141618D02*
X245252D01*
X235126Y483300D02*
Y486800D01*
Y493300D02*
Y496800D01*
X234626Y128300D02*
Y131800D01*
X210800Y357374D02*
X214300D01*
X115126Y483300D02*
Y486800D01*
Y493300D02*
Y496800D01*
X85126Y283300D02*
Y286800D01*
Y289800D02*
Y293300D01*
X560000Y253250D02*
Y256750D01*
X538250Y110000D02*
X541750D01*
X465000Y253250D02*
Y256750D01*
X460000Y432200D02*
Y437800D01*
X440000Y432200D02*
Y437800D01*
X431250Y102500D02*
X434750D01*
X340000Y432200D02*
Y437800D01*
X330000Y358250D02*
Y361750D01*
X320000Y432200D02*
Y437800D01*
X293500Y128250D02*
Y131750D01*
X260000Y358250D02*
Y361750D01*
X258500Y128250D02*
Y131750D01*
X223500Y128250D02*
Y131750D01*
X220000Y432200D02*
Y437800D01*
X200000Y432200D02*
Y437800D01*
X100000Y432200D02*
Y437800D01*
X80000Y432200D02*
Y437800D01*
X58250Y275000D02*
X61750D01*
X50750Y412500D02*
X54250D01*
X50750Y342500D02*
X54250D01*
X593001Y158268D02*
Y159268D01*
Y158768D01*
X596000D01*
Y158268D01*
Y159268D01*
Y161267D02*
X593501D01*
X594500D01*
Y160768D01*
Y161767D01*
Y161267D01*
X593501D01*
X593001Y161767D01*
X594000Y166266D02*
X595500D01*
X596000Y166766D01*
Y168265D01*
X596499D01*
X596999Y167765D01*
Y167265D01*
X596000Y168265D02*
X594000D01*
X596000Y169765D02*
Y170764D01*
X595500Y171264D01*
X594500D01*
X594000Y170764D01*
Y169765D01*
X594500Y169265D01*
X595500D01*
X596000Y169765D01*
X594000Y172264D02*
X595500D01*
X596000Y172764D01*
Y174263D01*
X594000D01*
Y180261D02*
Y178762D01*
X594500Y178262D01*
X595500D01*
X596000Y178762D01*
Y180261D01*
X594000Y181761D02*
Y182760D01*
X594500Y183260D01*
X596000D01*
Y181761D01*
X595500Y181261D01*
X595000Y181761D01*
Y183260D01*
X596000Y184260D02*
X594000D01*
Y185759D01*
X594500Y186259D01*
X596000D01*
X594000Y190258D02*
X596000D01*
X595000D01*
X594500Y190758D01*
X594000Y191258D01*
Y191758D01*
X596000Y194757D02*
Y193757D01*
X595500Y193257D01*
X594500D01*
X594000Y193757D01*
Y194757D01*
X594500Y195256D01*
X595000D01*
Y193257D01*
X594000Y196756D02*
Y197756D01*
X594500Y198255D01*
X596000D01*
Y196756D01*
X595500Y196256D01*
X595000Y196756D01*
Y198255D01*
X593001Y201254D02*
X596000D01*
Y199755D01*
X595500Y199255D01*
X594500D01*
X594000Y199755D01*
Y201254D01*
X593501Y205753D02*
X594000D01*
Y205253D01*
Y206253D01*
Y205753D01*
X595500D01*
X596000Y206253D01*
X593001Y207752D02*
X596000D01*
X594500D01*
X594000Y208252D01*
Y209252D01*
X594500Y209752D01*
X596000D01*
Y210751D02*
Y211751D01*
Y211251D01*
X594000D01*
Y210751D01*
X596000Y213251D02*
Y214750D01*
X595500Y215250D01*
X595000Y214750D01*
Y213750D01*
X594500Y213251D01*
X594000Y213750D01*
Y215250D01*
Y219249D02*
X595500D01*
X596000Y219748D01*
Y221248D01*
X596499D01*
X596999Y220748D01*
Y220248D01*
X596000Y221248D02*
X594000D01*
X596000Y222747D02*
Y223747D01*
X595500Y224247D01*
X594500D01*
X594000Y223747D01*
Y222747D01*
X594500Y222248D01*
X595500D01*
X596000Y222747D01*
X594000Y225247D02*
X595500D01*
X596000Y225746D01*
Y227246D01*
X594000D01*
X596000Y231245D02*
X594000D01*
Y231745D01*
X594500Y232244D01*
X596000D01*
X594500D01*
X594000Y232744D01*
X594500Y233244D01*
X596000D01*
X594000Y234744D02*
Y235743D01*
X594500Y236243D01*
X596000D01*
Y234744D01*
X595500Y234244D01*
X595000Y234744D01*
Y236243D01*
X593001Y239242D02*
X596000D01*
Y237743D01*
X595500Y237243D01*
X594500D01*
X594000Y237743D01*
Y239242D01*
X596000Y241741D02*
Y240742D01*
X595500Y240242D01*
X594500D01*
X594000Y240742D01*
Y241741D01*
X594500Y242241D01*
X595000D01*
Y240242D01*
X594000Y246740D02*
Y247739D01*
X594500Y248239D01*
X596000D01*
Y246740D01*
X595500Y246240D01*
X595000Y246740D01*
Y248239D01*
X596000Y249239D02*
X594000D01*
Y250739D01*
X594500Y251238D01*
X596000D01*
Y255737D02*
Y256736D01*
X595500Y257236D01*
X594500D01*
X594000Y256736D01*
Y255737D01*
X594500Y255237D01*
X595500D01*
X596000Y255737D01*
Y258736D02*
Y259735D01*
X595500Y260235D01*
X594500D01*
X594000Y259735D01*
Y258736D01*
X594500Y258236D01*
X595500D01*
X596000Y258736D01*
X596999Y261235D02*
X594000D01*
Y262735D01*
X594500Y263234D01*
X595500D01*
X596000Y262735D01*
Y261235D01*
Y264234D02*
Y265734D01*
X595500Y266233D01*
X595000Y265734D01*
Y264734D01*
X594500Y264234D01*
X594000Y264734D01*
Y266233D01*
X596000Y267233D02*
Y268233D01*
Y267733D01*
X594000D01*
Y267233D01*
X596000Y271232D02*
Y270232D01*
X595500Y269732D01*
X594500D01*
X594000Y270232D01*
Y271232D01*
X594500Y271732D01*
X595000D01*
Y269732D01*
X93006Y285166D02*
Y281167D01*
X95005D01*
X95671Y281834D01*
Y284499D01*
X95005Y285166D01*
X93006D01*
X97004Y283166D02*
X99670D01*
X98337Y284499D02*
Y281834D01*
X107667Y285166D02*
X106334D01*
X107001D01*
Y281834D01*
X106334Y281167D01*
X105668D01*
X105002Y281834D01*
X109000Y283833D02*
Y281834D01*
X109667Y281167D01*
X111666D01*
Y283833D01*
X112999Y281167D02*
Y283833D01*
X113665D01*
X114332Y283166D01*
Y281167D01*
Y283166D01*
X114998Y283833D01*
X115665Y283166D01*
Y281167D01*
X116998Y279834D02*
Y283833D01*
X118997D01*
X119664Y283166D01*
Y281834D01*
X118997Y281167D01*
X116998D01*
X122996D02*
X121663D01*
X120996Y281834D01*
Y283166D01*
X121663Y283833D01*
X122996D01*
X123662Y283166D01*
Y282500D01*
X120996D01*
X124995Y283833D02*
Y281167D01*
Y282500D01*
X125662Y283166D01*
X126328Y283833D01*
X126995D01*
X93006Y295166D02*
Y291167D01*
X95005D01*
X95671Y291834D01*
Y294499D01*
X95005Y295166D01*
X93006D01*
X97004Y293166D02*
X99670D01*
X107667Y295166D02*
X106334D01*
X107001D01*
Y291834D01*
X106334Y291167D01*
X105668D01*
X105002Y291834D01*
X109000Y293833D02*
Y291834D01*
X109667Y291167D01*
X111666D01*
Y293833D01*
X112999Y291167D02*
Y293833D01*
X113665D01*
X114332Y293166D01*
Y291167D01*
Y293166D01*
X114998Y293833D01*
X115665Y293166D01*
Y291167D01*
X116998Y289834D02*
Y293833D01*
X118997D01*
X119664Y293166D01*
Y291834D01*
X118997Y291167D01*
X116998D01*
X122996D02*
X121663D01*
X120996Y291834D01*
Y293166D01*
X121663Y293833D01*
X122996D01*
X123662Y293166D01*
Y292500D01*
X120996D01*
X124995Y293833D02*
Y291167D01*
Y292500D01*
X125662Y293166D01*
X126328Y293833D01*
X126995D01*
X141500Y98001D02*
X141000Y97501D01*
Y96501D01*
X141500Y96001D01*
X143500D01*
X144000Y96501D01*
Y97501D01*
X143500Y98001D01*
X142500D01*
Y97001D01*
X144000Y99000D02*
X141000D01*
X144000Y101000D01*
X141000D01*
Y101999D02*
X144000D01*
Y103499D01*
X143500Y103999D01*
X141500D01*
X141000Y103499D01*
Y101999D01*
X121500Y98001D02*
X121001Y97501D01*
Y96501D01*
X121500Y96001D01*
X123500D01*
X124000Y96501D01*
Y97501D01*
X123500Y98001D01*
X122500D01*
Y97001D01*
X124000Y99000D02*
X121001D01*
X124000Y101000D01*
X121001D01*
Y101999D02*
X124000D01*
Y103499D01*
X123500Y103999D01*
X121500D01*
X121001Y103499D01*
Y101999D01*
X141500Y78001D02*
X141000Y77501D01*
Y76501D01*
X141500Y76001D01*
X143500D01*
X144000Y76501D01*
Y77501D01*
X143500Y78001D01*
X142500D01*
Y77001D01*
X144000Y79000D02*
X141000D01*
X144000Y81000D01*
X141000D01*
Y81999D02*
X144000D01*
Y83499D01*
X143500Y83999D01*
X141500D01*
X141000Y83499D01*
Y81999D01*
X124000Y76001D02*
X121001D01*
Y77501D01*
X121500Y78001D01*
X122500D01*
X123000Y77501D01*
Y76001D01*
X121001Y79000D02*
X124000D01*
X123000Y80000D01*
X124000Y81000D01*
X121001D01*
X124000Y81999D02*
X121001D01*
X122000Y82999D01*
X121001Y83999D01*
X124000D01*
X141000Y54502D02*
X143000D01*
X144000Y55502D01*
X143000Y56501D01*
X141000D01*
Y57501D02*
X144000D01*
Y59000D01*
X143500Y59500D01*
X143000D01*
X142500Y59000D01*
Y57501D01*
Y59000D01*
X142000Y59500D01*
X141500D01*
X141000Y59000D01*
Y57501D01*
X144000Y60500D02*
X142000D01*
X141000Y61500D01*
X142000Y62499D01*
X144000D01*
X142500D01*
Y60500D01*
X141000Y63499D02*
Y65498D01*
Y64499D01*
X144000D01*
X121001Y54502D02*
X123000D01*
X124000Y55502D01*
X123000Y56501D01*
X121001D01*
Y57501D02*
X124000D01*
Y59000D01*
X123500Y59500D01*
X123000D01*
X122500Y59000D01*
Y57501D01*
Y59000D01*
X122000Y59500D01*
X121500D01*
X121001Y59000D01*
Y57501D01*
X124000Y60500D02*
X122000D01*
X121001Y61500D01*
X122000Y62499D01*
X124000D01*
X122500D01*
Y60500D01*
X121001Y63499D02*
Y65498D01*
Y64499D01*
X124000D01*
D17*
X580626Y98462D02*
X596394D01*
X580626Y118738D02*
X596374D01*
X600606Y98462D02*
Y98639D01*
Y118561D02*
Y118738D01*
X576394Y98462D02*
Y98639D01*
Y118561D02*
Y118738D01*
Y98462D02*
X600606D01*
X576394Y118738D02*
X600606D01*
X324114Y311890D02*
Y317205D01*
Y230984D02*
Y236299D01*
X338681Y230787D02*
X344587D01*
X324114Y230984D02*
X330413D01*
X324114Y317205D02*
X343996D01*
X438000Y515000D02*
X458000D01*
X442126Y475079D02*
X457874D01*
X318000Y515000D02*
X338000D01*
X322126Y475079D02*
X337874D01*
X312308Y118958D02*
X312883D01*
Y108722D02*
Y118958D01*
X312308Y108722D02*
X312883D01*
X294773D02*
X295347D01*
X294773D02*
Y118958D01*
X295347D01*
X277308D02*
X277883D01*
Y108722D02*
Y118958D01*
X277308Y108722D02*
X277883D01*
X259773D02*
X260348D01*
X259773D02*
Y118958D01*
X260348D01*
X242308D02*
X242883D01*
Y108722D02*
Y118958D01*
X242308Y108722D02*
X242883D01*
X224773D02*
X225347D01*
X224773D02*
Y118958D01*
X225347D01*
X198000Y515000D02*
X218000D01*
X202126Y475079D02*
X217874D01*
X78000Y515000D02*
X98000D01*
X82126Y475079D02*
X97874D01*
X323543Y117165D02*
X328465D01*
X323543Y107953D02*
X328465D01*
X256043Y152047D02*
X260965D01*
X256043Y142835D02*
X260965D01*
X572205Y151713D02*
Y278287D01*
X607835D01*
Y151713D02*
Y278287D01*
X572205Y151713D02*
X607835D01*
X477205D02*
Y278287D01*
X512835D01*
Y151713D02*
Y278287D01*
X477205Y151713D02*
X512835D01*
X618386Y148276D02*
X636890D01*
X618386Y124626D02*
X636890D01*
Y148276D01*
X618386Y124626D02*
Y148276D01*
X435539Y249409D02*
X438366D01*
X435539Y167520D02*
X438366D01*
Y249409D01*
X435539Y357480D02*
X438366D01*
X435539Y275590D02*
X438366D01*
Y357480D01*
X228999Y30000D02*
X333999D01*
X228999D02*
Y60000D01*
X333999D01*
Y30000D02*
Y60000D01*
X174224Y385886D02*
Y404390D01*
X197874Y385886D02*
Y404390D01*
X174224D02*
X197874D01*
X174224Y385886D02*
X197874D01*
X174626Y343386D02*
Y361890D01*
X198276Y343386D02*
Y361890D01*
X174626D02*
X198276D01*
X174626Y343386D02*
X198276D01*
X26988Y399882D02*
Y414055D01*
X35500Y395158D02*
X43720D01*
Y397748D01*
Y416189D02*
Y418780D01*
X35500D02*
X43720D01*
X285603Y113268D02*
Y116732D01*
X292395Y113268D02*
Y116732D01*
X250603Y113268D02*
Y116732D01*
X257395Y113268D02*
Y116732D01*
X215603Y113268D02*
Y116732D01*
X222395Y113268D02*
Y116732D01*
M02*
