G04*
G04 #@! TF.GenerationSoftware,Altium Limited,Altium Designer,22.10.1 (41)*
G04*
G04 Layer_Physical_Order=2*
G04 Layer_Color=36540*
%FSLAX25Y25*%
%MOIN*%
G70*
G04*
G04 #@! TF.SameCoordinates,F9F3A06B-563E-4FCB-9898-75D578650021*
G04*
G04*
G04 #@! TF.FilePolarity,Positive*
G04*
G01*
G75*
%ADD83C,0.05512*%
%ADD84R,0.05512X0.05512*%
%ADD106C,0.09646*%
%ADD107R,0.08465X0.08465*%
%ADD111C,0.38900*%
%ADD125C,0.24410*%
%ADD126C,0.04331*%
%ADD127C,0.06299*%
%ADD128O,0.07874X0.05906*%
%ADD129C,0.07400*%
%ADD130R,0.07087X0.07087*%
%ADD131C,0.07087*%
%ADD132R,0.04528X0.04528*%
%ADD133C,0.04528*%
%ADD134C,0.07874*%
%ADD135R,0.07874X0.07874*%
%ADD136C,0.05906*%
%ADD137R,0.05906X0.05906*%
%ADD138R,0.11811X0.11811*%
%ADD139C,0.11811*%
%ADD140C,0.09843*%
%ADD141C,0.09843*%
%ADD142R,0.09843X0.09843*%
%ADD143R,0.10512X0.10512*%
%ADD144C,0.10512*%
%ADD145R,0.04528X0.04528*%
%ADD146C,0.02559*%
%ADD147O,0.08268X0.04134*%
%ADD148O,0.07874X0.03937*%
%ADD149C,0.02500*%
G36*
X644855Y552645D02*
X648124Y549376D01*
X648124Y525263D01*
X643124Y520263D01*
X559737D01*
X555624Y524376D01*
Y550624D01*
X560680Y555680D01*
X641820D01*
X644855Y552645D01*
D02*
G37*
G36*
X524855D02*
X528124Y549376D01*
X528124Y525263D01*
X523124Y520263D01*
X439737D01*
X435624Y524376D01*
Y550624D01*
X440680Y555680D01*
X521820D01*
X524855Y552645D01*
D02*
G37*
G36*
X404855D02*
X408124Y549376D01*
X408124Y525263D01*
X403124Y520263D01*
X319737D01*
X315624Y524376D01*
Y550624D01*
X318692Y553692D01*
X320680Y555680D01*
X401820D01*
X404855Y552645D01*
D02*
G37*
G36*
X288124Y549376D02*
X288124Y525263D01*
X283124Y520263D01*
X199737D01*
X195624Y524376D01*
Y550624D01*
X198692Y553692D01*
X200680Y555680D01*
X281820D01*
X288124Y549376D01*
D02*
G37*
G36*
X168124D02*
X168124Y525263D01*
X163124Y520263D01*
X79737D01*
X75624Y524376D01*
Y550624D01*
X76363Y551363D01*
X80680Y555680D01*
X161820D01*
X168124Y549376D01*
D02*
G37*
G36*
X527500Y517500D02*
X535000Y510000D01*
X535000Y450000D01*
X533950Y448950D01*
X533661Y449238D01*
X532908Y449550D01*
X532092D01*
X531339Y449238D01*
X530762Y448661D01*
X530450Y447908D01*
Y447092D01*
X530762Y446339D01*
X531050Y446050D01*
X520000Y435000D01*
X450000D01*
Y444442D01*
X450473Y444603D01*
X450591Y444450D01*
X451375Y443848D01*
X452288Y443470D01*
X453268Y443341D01*
X455236D01*
X456216Y443470D01*
X457129Y443848D01*
X457313Y443989D01*
X454706Y446596D01*
X455236Y447126D01*
X454706Y447656D01*
X457313Y450263D01*
X457129Y450404D01*
X456216Y450782D01*
X455236Y450911D01*
X453268D01*
X452288Y450782D01*
X451375Y450404D01*
X450591Y449802D01*
X450473Y449649D01*
X450000Y449810D01*
Y467500D01*
Y507500D01*
X460000Y517500D01*
X527500Y517500D01*
D02*
G37*
G36*
X664106Y25816D02*
X219374D01*
X219096Y26231D01*
X219250Y26602D01*
Y27498D01*
X218907Y28324D01*
X218274Y28958D01*
X217448Y29300D01*
X216552D01*
X215725Y28958D01*
X215092Y28324D01*
X214750Y27498D01*
Y26602D01*
X214904Y26231D01*
X214626Y25816D01*
X25816D01*
Y430000D01*
X58849D01*
X58949Y429500D01*
X58726Y429408D01*
X58092Y428774D01*
X57750Y427948D01*
Y427052D01*
X58092Y426226D01*
X58726Y425593D01*
X59552Y425250D01*
X60448D01*
X61274Y425593D01*
X61908Y426226D01*
X62250Y427052D01*
Y427948D01*
X61908Y428774D01*
X61274Y429408D01*
X61051Y429500D01*
D01*
X60448Y429750D01*
X60403D01*
X60212Y430212D01*
X65000Y435000D01*
Y513520D01*
X65408Y513928D01*
X67040Y516055D01*
X67874Y517500D01*
X82500D01*
X85000Y515000D01*
Y475000D01*
X80000Y470000D01*
Y449361D01*
X79815Y449119D01*
X79417Y448158D01*
X79403Y448056D01*
X78899D01*
X78892Y448106D01*
X78514Y449018D01*
X78373Y449202D01*
X76297Y447126D01*
X78373Y445050D01*
X78514Y445233D01*
X78892Y446146D01*
X78899Y446196D01*
X79403D01*
X79417Y446094D01*
X79815Y445132D01*
X80000Y444891D01*
Y430000D01*
X178849D01*
X178949Y429500D01*
X178726Y429408D01*
X178093Y428774D01*
X177750Y427948D01*
Y427052D01*
X178093Y426226D01*
X178726Y425593D01*
X179552Y425250D01*
X180448D01*
X181051Y425500D01*
D01*
X181274Y425593D01*
X181907Y426226D01*
X182250Y427052D01*
Y427948D01*
X181907Y428774D01*
X181274Y429408D01*
X180448Y429750D01*
X180403D01*
X180212Y430212D01*
X185000Y435000D01*
Y517500D01*
X202500D01*
X205000Y515000D01*
Y475000D01*
X200000Y470000D01*
Y449361D01*
X199815Y449119D01*
X199417Y448158D01*
X199403Y448056D01*
X198899D01*
X198892Y448106D01*
X198514Y449018D01*
X198373Y449202D01*
X196297Y447126D01*
X198373Y445050D01*
X198514Y445233D01*
X198892Y446146D01*
X198899Y446196D01*
X199403D01*
X199417Y446094D01*
X199815Y445132D01*
X200000Y444891D01*
Y430000D01*
X298849D01*
X298949Y429500D01*
X298726Y429408D01*
X298093Y428774D01*
X297750Y427948D01*
Y427052D01*
X298093Y426226D01*
X298726Y425593D01*
X299552Y425250D01*
X300448D01*
X301051Y425500D01*
D01*
X301274Y425593D01*
X301907Y426226D01*
X302250Y427052D01*
Y427948D01*
X301907Y428774D01*
X301274Y429408D01*
X300448Y429750D01*
X300403D01*
X300212Y430212D01*
X305000Y435000D01*
Y517500D01*
X322500D01*
X325000Y515000D01*
Y475000D01*
X320000Y470000D01*
Y449361D01*
X319815Y449119D01*
X319417Y448158D01*
X319403Y448056D01*
X318899D01*
X318892Y448106D01*
X318514Y449018D01*
X318373Y449202D01*
X316297Y447126D01*
X318373Y445050D01*
X318514Y445233D01*
X318892Y446146D01*
X318899Y446196D01*
X319403D01*
X319417Y446094D01*
X319815Y445132D01*
X320000Y444891D01*
Y430000D01*
X418849D01*
X418949Y429500D01*
X418725Y429408D01*
X418092Y428774D01*
X417750Y427948D01*
Y427052D01*
X418092Y426226D01*
X418725Y425593D01*
X419553Y425250D01*
X420447D01*
X421275Y425593D01*
X421908Y426226D01*
X422250Y427052D01*
Y427948D01*
X421908Y428774D01*
X421275Y429408D01*
X420447Y429750D01*
X420403D01*
X420212Y430212D01*
X425000Y435000D01*
Y517500D01*
X442500D01*
X445000Y515000D01*
Y475000D01*
X440000Y470000D01*
Y449361D01*
X439815Y449119D01*
X439417Y448158D01*
X439403Y448056D01*
X438899D01*
X438892Y448106D01*
X438514Y449018D01*
X438373Y449202D01*
X436297Y447126D01*
X438373Y445050D01*
X438514Y445233D01*
X438892Y446146D01*
X438899Y446196D01*
X439403D01*
X439417Y446094D01*
X439815Y445132D01*
X440000Y444891D01*
Y430000D01*
X525000D01*
X542500Y447500D01*
Y517500D01*
X664106D01*
Y25816D01*
D02*
G37*
G36*
X407500Y517500D02*
X415000Y510000D01*
X415000Y450000D01*
X400000Y435000D01*
X330000D01*
Y444442D01*
X330473Y444603D01*
X330591Y444450D01*
X331375Y443848D01*
X332288Y443470D01*
X333268Y443341D01*
X335236D01*
X336216Y443470D01*
X337129Y443848D01*
X337313Y443989D01*
X334706Y446596D01*
X335236Y447126D01*
X334706Y447656D01*
X337313Y450263D01*
X337129Y450404D01*
X336216Y450782D01*
X335236Y450911D01*
X333268D01*
X332288Y450782D01*
X331375Y450404D01*
X330591Y449802D01*
X330473Y449649D01*
X330000Y449810D01*
Y467500D01*
Y507500D01*
X340000Y517500D01*
X407500Y517500D01*
D02*
G37*
G36*
X287500D02*
X295000Y510000D01*
X295000Y450000D01*
X280000Y435000D01*
X210000D01*
Y444442D01*
X210473Y444603D01*
X210591Y444450D01*
X211375Y443848D01*
X212288Y443470D01*
X213268Y443341D01*
X215236D01*
X216216Y443470D01*
X217129Y443848D01*
X217313Y443989D01*
X214706Y446596D01*
X215236Y447126D01*
X214706Y447656D01*
X217313Y450263D01*
X217129Y450404D01*
X216216Y450782D01*
X215236Y450911D01*
X213268D01*
X212288Y450782D01*
X211375Y450404D01*
X210591Y449802D01*
X210473Y449649D01*
X210000Y449810D01*
Y467500D01*
Y507500D01*
X220000Y517500D01*
X287500Y517500D01*
D02*
G37*
G36*
X167500D02*
X175000Y510000D01*
X175000Y450000D01*
X160000Y435000D01*
X90000D01*
Y444442D01*
X90474Y444603D01*
X90591Y444450D01*
X91375Y443848D01*
X92288Y443470D01*
X93268Y443341D01*
X95236D01*
X96216Y443470D01*
X97129Y443848D01*
X97313Y443989D01*
X94706Y446596D01*
X95236Y447126D01*
X94706Y447656D01*
X97313Y450263D01*
X97129Y450404D01*
X96216Y450782D01*
X95236Y450911D01*
X93268D01*
X92288Y450782D01*
X91375Y450404D01*
X90591Y449802D01*
X90474Y449649D01*
X90000Y449810D01*
Y467500D01*
Y507500D01*
X100000Y517500D01*
X167500Y517500D01*
D02*
G37*
%LPC*%
G36*
X590878Y554816D02*
X589397D01*
X587967Y554432D01*
X586694Y553697D01*
X590138Y550254D01*
X593582Y553697D01*
X592308Y554432D01*
X590878Y554816D01*
D02*
G37*
G36*
X570603D02*
X569122D01*
X567692Y554432D01*
X566418Y553697D01*
X569862Y550254D01*
X573306Y553697D01*
X572032Y554432D01*
X570603Y554816D01*
D02*
G37*
G36*
X594642Y552637D02*
X591198Y549193D01*
X594642Y545749D01*
X595377Y547023D01*
X595761Y548453D01*
Y549933D01*
X595377Y551363D01*
X594642Y552637D01*
D02*
G37*
G36*
X574367D02*
X570923Y549193D01*
X574367Y545749D01*
X575102Y547023D01*
X575485Y548453D01*
Y549933D01*
X575102Y551363D01*
X574367Y552637D01*
D02*
G37*
G36*
X585633Y552637D02*
X584898Y551363D01*
X584515Y549933D01*
Y548453D01*
X584898Y547023D01*
X585633Y545749D01*
X589077Y549193D01*
X585633Y552637D01*
D02*
G37*
G36*
X565358D02*
X564623Y551363D01*
X564239Y549933D01*
Y548453D01*
X564623Y547023D01*
X565358Y545749D01*
X568801Y549193D01*
X565358Y552637D01*
D02*
G37*
G36*
X590138Y548132D02*
X586694Y544689D01*
X587967Y543953D01*
X589397Y543570D01*
X590878D01*
X592308Y543953D01*
X593582Y544689D01*
X590138Y548132D01*
D02*
G37*
G36*
X569862D02*
X566418Y544689D01*
X567692Y543953D01*
X569122Y543570D01*
X570603D01*
X572032Y543953D01*
X573306Y544689D01*
X569862Y548132D01*
D02*
G37*
G36*
X585032Y544087D02*
X574968D01*
Y534023D01*
X585032D01*
Y544087D01*
D02*
G37*
G36*
X620624Y534737D02*
X619376D01*
X618172Y534414D01*
X617205Y533856D01*
X620000Y531061D01*
X622795Y533856D01*
X621828Y534414D01*
X620624Y534737D01*
D02*
G37*
G36*
X590878Y534540D02*
X589397D01*
X587967Y534157D01*
X586694Y533422D01*
X590138Y529978D01*
X593582Y533422D01*
X592308Y534157D01*
X590878Y534540D01*
D02*
G37*
G36*
X570603D02*
X569122D01*
X567692Y534157D01*
X566418Y533422D01*
X569862Y529978D01*
X573306Y533422D01*
X572032Y534157D01*
X570603Y534540D01*
D02*
G37*
G36*
X616144Y532795D02*
X615586Y531828D01*
X615263Y530624D01*
Y529376D01*
X615586Y528172D01*
X616144Y527205D01*
X618939Y530000D01*
X616144Y532795D01*
D02*
G37*
G36*
X623856D02*
X621061Y530000D01*
X623856Y527205D01*
X624414Y528172D01*
X624737Y529376D01*
Y530624D01*
X624414Y531828D01*
X623856Y532795D01*
D02*
G37*
G36*
X594642Y532361D02*
X591198Y528917D01*
X594642Y525474D01*
X595377Y526747D01*
X595761Y528177D01*
Y529658D01*
X595377Y531088D01*
X594642Y532361D01*
D02*
G37*
G36*
X574367D02*
X570923Y528917D01*
X574367Y525474D01*
X575102Y526747D01*
X575485Y528177D01*
Y529658D01*
X575102Y531088D01*
X574367Y532361D01*
D02*
G37*
G36*
X585633Y532361D02*
X584898Y531088D01*
X584515Y529658D01*
Y528177D01*
X584898Y526747D01*
X585633Y525474D01*
X589077Y528917D01*
X585633Y532361D01*
D02*
G37*
G36*
X565358D02*
X564623Y531088D01*
X564239Y529658D01*
Y528177D01*
X564623Y526747D01*
X565358Y525474D01*
X568801Y528917D01*
X565358Y532361D01*
D02*
G37*
G36*
X644737Y534737D02*
X635263D01*
Y525263D01*
X644737D01*
Y534737D01*
D02*
G37*
G36*
X630624D02*
X629376D01*
X628172Y534414D01*
X627091Y533790D01*
X626209Y532909D01*
X625586Y531828D01*
X625263Y530624D01*
Y529376D01*
X625586Y528172D01*
X626209Y527091D01*
X627091Y526209D01*
X628172Y525586D01*
X629376Y525263D01*
X630624D01*
X631828Y525586D01*
X632909Y526209D01*
X633790Y527091D01*
X634414Y528172D01*
X634737Y529376D01*
Y530624D01*
X634414Y531828D01*
X633790Y532909D01*
X632909Y533790D01*
X631828Y534414D01*
X630624Y534737D01*
D02*
G37*
G36*
X620000Y528939D02*
X617205Y526144D01*
X618172Y525586D01*
X619376Y525263D01*
X620624D01*
X621828Y525586D01*
X622795Y526144D01*
X620000Y528939D01*
D02*
G37*
G36*
X590138Y527857D02*
X586694Y524413D01*
X587967Y523678D01*
X589397Y523294D01*
X590878D01*
X592308Y523678D01*
X593582Y524413D01*
X590138Y527857D01*
D02*
G37*
G36*
X569862D02*
X566418Y524413D01*
X567692Y523678D01*
X569122Y523294D01*
X570603D01*
X572032Y523678D01*
X573306Y524413D01*
X569862Y527857D01*
D02*
G37*
G36*
X470878Y554816D02*
X469397D01*
X467968Y554432D01*
X466694Y553697D01*
X470138Y550254D01*
X473582Y553697D01*
X472308Y554432D01*
X470878Y554816D01*
D02*
G37*
G36*
X450602D02*
X449122D01*
X447692Y554432D01*
X446418Y553697D01*
X449862Y550254D01*
X453306Y553697D01*
X452033Y554432D01*
X450602Y554816D01*
D02*
G37*
G36*
X474642Y552637D02*
X471199Y549193D01*
X474642Y545749D01*
X475377Y547023D01*
X475761Y548453D01*
Y549933D01*
X475377Y551363D01*
X474642Y552637D01*
D02*
G37*
G36*
X454367D02*
X450923Y549193D01*
X454367Y545749D01*
X455102Y547023D01*
X455485Y548453D01*
Y549933D01*
X455102Y551363D01*
X454367Y552637D01*
D02*
G37*
G36*
X465633Y552637D02*
X464898Y551363D01*
X464515Y549933D01*
Y548453D01*
X464898Y547023D01*
X465633Y545749D01*
X469077Y549193D01*
X465633Y552637D01*
D02*
G37*
G36*
X445358D02*
X444623Y551363D01*
X444239Y549933D01*
Y548453D01*
X444623Y547023D01*
X445358Y545749D01*
X448802Y549193D01*
X445358Y552637D01*
D02*
G37*
G36*
X470138Y548132D02*
X466694Y544689D01*
X467968Y543953D01*
X469397Y543570D01*
X470878D01*
X472308Y543953D01*
X473582Y544689D01*
X470138Y548132D01*
D02*
G37*
G36*
X449862D02*
X446418Y544689D01*
X447692Y543953D01*
X449122Y543570D01*
X450602D01*
X452033Y543953D01*
X453306Y544689D01*
X449862Y548132D01*
D02*
G37*
G36*
X465032Y544087D02*
X454968D01*
Y534023D01*
X465032D01*
Y544087D01*
D02*
G37*
G36*
X500624Y534737D02*
X499376D01*
X498172Y534414D01*
X497205Y533856D01*
X500000Y531061D01*
X502795Y533856D01*
X501828Y534414D01*
X500624Y534737D01*
D02*
G37*
G36*
X470878Y534540D02*
X469397D01*
X467968Y534157D01*
X466694Y533422D01*
X470138Y529978D01*
X473582Y533422D01*
X472308Y534157D01*
X470878Y534540D01*
D02*
G37*
G36*
X450602D02*
X449122D01*
X447692Y534157D01*
X446418Y533422D01*
X449862Y529978D01*
X453306Y533422D01*
X452033Y534157D01*
X450602Y534540D01*
D02*
G37*
G36*
X496144Y532795D02*
X495586Y531828D01*
X495263Y530624D01*
Y529376D01*
X495586Y528172D01*
X496144Y527205D01*
X498939Y530000D01*
X496144Y532795D01*
D02*
G37*
G36*
X503856D02*
X501061Y530000D01*
X503856Y527205D01*
X504414Y528172D01*
X504737Y529376D01*
Y530624D01*
X504414Y531828D01*
X503856Y532795D01*
D02*
G37*
G36*
X474642Y532361D02*
X471199Y528917D01*
X474642Y525474D01*
X475377Y526747D01*
X475761Y528177D01*
Y529658D01*
X475377Y531088D01*
X474642Y532361D01*
D02*
G37*
G36*
X454367D02*
X450923Y528917D01*
X454367Y525474D01*
X455102Y526747D01*
X455485Y528177D01*
Y529658D01*
X455102Y531088D01*
X454367Y532361D01*
D02*
G37*
G36*
X465633Y532361D02*
X464898Y531088D01*
X464515Y529658D01*
Y528177D01*
X464898Y526747D01*
X465633Y525474D01*
X469077Y528917D01*
X465633Y532361D01*
D02*
G37*
G36*
X445358D02*
X444623Y531088D01*
X444239Y529658D01*
Y528177D01*
X444623Y526747D01*
X445358Y525474D01*
X448802Y528917D01*
X445358Y532361D01*
D02*
G37*
G36*
X524737Y534737D02*
X515263D01*
Y525263D01*
X524737D01*
Y534737D01*
D02*
G37*
G36*
X510624D02*
X509376D01*
X508172Y534414D01*
X507091Y533790D01*
X506210Y532909D01*
X505586Y531828D01*
X505263Y530624D01*
Y529376D01*
X505586Y528172D01*
X506210Y527091D01*
X507091Y526209D01*
X508172Y525586D01*
X509376Y525263D01*
X510624D01*
X511828Y525586D01*
X512909Y526209D01*
X513791Y527091D01*
X514414Y528172D01*
X514737Y529376D01*
Y530624D01*
X514414Y531828D01*
X513791Y532909D01*
X512909Y533790D01*
X511828Y534414D01*
X510624Y534737D01*
D02*
G37*
G36*
X500000Y528939D02*
X497205Y526144D01*
X498172Y525586D01*
X499376Y525263D01*
X500624D01*
X501828Y525586D01*
X502795Y526144D01*
X500000Y528939D01*
D02*
G37*
G36*
X470138Y527857D02*
X466694Y524413D01*
X467968Y523678D01*
X469397Y523294D01*
X470878D01*
X472308Y523678D01*
X473582Y524413D01*
X470138Y527857D01*
D02*
G37*
G36*
X449862D02*
X446418Y524413D01*
X447692Y523678D01*
X449122Y523294D01*
X450602D01*
X452033Y523678D01*
X453306Y524413D01*
X449862Y527857D01*
D02*
G37*
G36*
X330603Y554816D02*
X329122D01*
X327692Y554432D01*
X326418Y553697D01*
X329862Y550254D01*
X333306Y553697D01*
X332032Y554432D01*
X330603Y554816D01*
D02*
G37*
G36*
X350878D02*
X349397D01*
X347968Y554432D01*
X346694Y553697D01*
X350138Y550254D01*
X353582Y553697D01*
X352308Y554432D01*
X350878Y554816D01*
D02*
G37*
G36*
X354642Y552637D02*
X351199Y549193D01*
X354642Y545749D01*
X355377Y547023D01*
X355761Y548453D01*
Y549933D01*
X355377Y551363D01*
X354642Y552637D01*
D02*
G37*
G36*
X334367D02*
X330923Y549193D01*
X334367Y545749D01*
X335102Y547023D01*
X335485Y548453D01*
Y549933D01*
X335102Y551363D01*
X334367Y552637D01*
D02*
G37*
G36*
X345633Y552637D02*
X344898Y551363D01*
X344515Y549933D01*
Y548453D01*
X344898Y547023D01*
X345633Y545749D01*
X349077Y549193D01*
X345633Y552637D01*
D02*
G37*
G36*
X325358D02*
X324623Y551363D01*
X324239Y549933D01*
Y548453D01*
X324623Y547023D01*
X325358Y545749D01*
X328801Y549193D01*
X325358Y552637D01*
D02*
G37*
G36*
X350138Y548132D02*
X346694Y544689D01*
X347968Y543953D01*
X349397Y543570D01*
X350878D01*
X352308Y543953D01*
X353582Y544689D01*
X350138Y548132D01*
D02*
G37*
G36*
X329862D02*
X326418Y544689D01*
X327692Y543953D01*
X329122Y543570D01*
X330603D01*
X332032Y543953D01*
X333306Y544689D01*
X329862Y548132D01*
D02*
G37*
G36*
X345032Y544087D02*
X334968D01*
Y534023D01*
X345032D01*
Y544087D01*
D02*
G37*
G36*
X380624Y534737D02*
X379376D01*
X378172Y534414D01*
X377205Y533856D01*
X380000Y531061D01*
X382795Y533856D01*
X381828Y534414D01*
X380624Y534737D01*
D02*
G37*
G36*
X330603Y534540D02*
X329122D01*
X327692Y534157D01*
X326418Y533422D01*
X329862Y529978D01*
X333306Y533422D01*
X332032Y534157D01*
X330603Y534540D01*
D02*
G37*
G36*
X350878D02*
X349397D01*
X347968Y534157D01*
X346694Y533422D01*
X350138Y529978D01*
X353582Y533422D01*
X352308Y534157D01*
X350878Y534540D01*
D02*
G37*
G36*
X376144Y532795D02*
X375586Y531828D01*
X375263Y530624D01*
Y529376D01*
X375586Y528172D01*
X376144Y527205D01*
X378939Y530000D01*
X376144Y532795D01*
D02*
G37*
G36*
X383856D02*
X381061Y530000D01*
X383856Y527205D01*
X384414Y528172D01*
X384737Y529376D01*
Y530624D01*
X384414Y531828D01*
X383856Y532795D01*
D02*
G37*
G36*
X354642Y532361D02*
X351199Y528917D01*
X354642Y525474D01*
X355377Y526747D01*
X355761Y528177D01*
Y529658D01*
X355377Y531088D01*
X354642Y532361D01*
D02*
G37*
G36*
X334367D02*
X330923Y528917D01*
X334367Y525474D01*
X335102Y526747D01*
X335485Y528177D01*
Y529658D01*
X335102Y531088D01*
X334367Y532361D01*
D02*
G37*
G36*
X345633Y532361D02*
X344898Y531088D01*
X344515Y529658D01*
Y528177D01*
X344898Y526747D01*
X345633Y525474D01*
X349077Y528917D01*
X345633Y532361D01*
D02*
G37*
G36*
X325358D02*
X324623Y531088D01*
X324239Y529658D01*
Y528177D01*
X324623Y526747D01*
X325358Y525474D01*
X328801Y528917D01*
X325358Y532361D01*
D02*
G37*
G36*
X404737Y534737D02*
X395263D01*
Y525263D01*
X404737D01*
Y534737D01*
D02*
G37*
G36*
X390624D02*
X389376D01*
X388172Y534414D01*
X387091Y533790D01*
X386210Y532909D01*
X385586Y531828D01*
X385263Y530624D01*
Y529376D01*
X385586Y528172D01*
X386210Y527091D01*
X387091Y526209D01*
X388172Y525586D01*
X389376Y525263D01*
X390624D01*
X391828Y525586D01*
X392909Y526209D01*
X393791Y527091D01*
X394414Y528172D01*
X394737Y529376D01*
Y530624D01*
X394414Y531828D01*
X393791Y532909D01*
X392909Y533790D01*
X391828Y534414D01*
X390624Y534737D01*
D02*
G37*
G36*
X380000Y528939D02*
X377205Y526144D01*
X378172Y525586D01*
X379376Y525263D01*
X380624D01*
X381828Y525586D01*
X382795Y526144D01*
X380000Y528939D01*
D02*
G37*
G36*
X350138Y527857D02*
X346694Y524413D01*
X347968Y523678D01*
X349397Y523294D01*
X350878D01*
X352308Y523678D01*
X353582Y524413D01*
X350138Y527857D01*
D02*
G37*
G36*
X329862D02*
X326418Y524413D01*
X327692Y523678D01*
X329122Y523294D01*
X330603D01*
X332032Y523678D01*
X333306Y524413D01*
X329862Y527857D01*
D02*
G37*
G36*
X230878Y554816D02*
X229398D01*
X227968Y554432D01*
X226694Y553697D01*
X230138Y550254D01*
X233582Y553697D01*
X232308Y554432D01*
X230878Y554816D01*
D02*
G37*
G36*
X210602D02*
X209122D01*
X207692Y554432D01*
X206418Y553697D01*
X209862Y550254D01*
X213306Y553697D01*
X212033Y554432D01*
X210602Y554816D01*
D02*
G37*
G36*
X234642Y552637D02*
X231199Y549193D01*
X234642Y545749D01*
X235377Y547023D01*
X235761Y548453D01*
Y549933D01*
X235377Y551363D01*
X234642Y552637D01*
D02*
G37*
G36*
X214367D02*
X210923Y549193D01*
X214367Y545749D01*
X215102Y547023D01*
X215485Y548453D01*
Y549933D01*
X215102Y551363D01*
X214367Y552637D01*
D02*
G37*
G36*
X225633Y552637D02*
X224898Y551363D01*
X224515Y549933D01*
Y548453D01*
X224898Y547023D01*
X225633Y545749D01*
X229077Y549193D01*
X225633Y552637D01*
D02*
G37*
G36*
X205358D02*
X204623Y551363D01*
X204239Y549933D01*
Y548453D01*
X204623Y547023D01*
X205358Y545749D01*
X208802Y549193D01*
X205358Y552637D01*
D02*
G37*
G36*
X230138Y548132D02*
X226694Y544689D01*
X227968Y543953D01*
X229398Y543570D01*
X230878D01*
X232308Y543953D01*
X233582Y544689D01*
X230138Y548132D01*
D02*
G37*
G36*
X209862D02*
X206418Y544689D01*
X207692Y543953D01*
X209122Y543570D01*
X210602D01*
X212033Y543953D01*
X213306Y544689D01*
X209862Y548132D01*
D02*
G37*
G36*
X225032Y544087D02*
X214968D01*
Y534023D01*
X225032D01*
Y544087D01*
D02*
G37*
G36*
X260624Y534737D02*
X259376D01*
X258172Y534414D01*
X257205Y533856D01*
X260000Y531061D01*
X262795Y533856D01*
X261828Y534414D01*
X260624Y534737D01*
D02*
G37*
G36*
X210602Y534540D02*
X209122D01*
X207692Y534157D01*
X206418Y533422D01*
X209862Y529978D01*
X213306Y533422D01*
X212033Y534157D01*
X210602Y534540D01*
D02*
G37*
G36*
X230878D02*
X229398D01*
X227968Y534157D01*
X226694Y533422D01*
X230138Y529978D01*
X233582Y533422D01*
X232308Y534157D01*
X230878Y534540D01*
D02*
G37*
G36*
X256144Y532795D02*
X255586Y531828D01*
X255263Y530624D01*
Y529376D01*
X255586Y528172D01*
X256144Y527205D01*
X258939Y530000D01*
X256144Y532795D01*
D02*
G37*
G36*
X263856D02*
X261061Y530000D01*
X263856Y527205D01*
X264414Y528172D01*
X264737Y529376D01*
Y530624D01*
X264414Y531828D01*
X263856Y532795D01*
D02*
G37*
G36*
X234642Y532361D02*
X231199Y528917D01*
X234642Y525474D01*
X235377Y526747D01*
X235761Y528177D01*
Y529658D01*
X235377Y531088D01*
X234642Y532361D01*
D02*
G37*
G36*
X214367D02*
X210923Y528917D01*
X214367Y525474D01*
X215102Y526747D01*
X215485Y528177D01*
Y529658D01*
X215102Y531088D01*
X214367Y532361D01*
D02*
G37*
G36*
X225633Y532361D02*
X224898Y531088D01*
X224515Y529658D01*
Y528177D01*
X224898Y526747D01*
X225633Y525474D01*
X229077Y528917D01*
X225633Y532361D01*
D02*
G37*
G36*
X205358D02*
X204623Y531088D01*
X204239Y529658D01*
Y528177D01*
X204623Y526747D01*
X205358Y525474D01*
X208802Y528917D01*
X205358Y532361D01*
D02*
G37*
G36*
X284737Y534737D02*
X275263D01*
Y525263D01*
X284737D01*
Y534737D01*
D02*
G37*
G36*
X270624D02*
X269376D01*
X268172Y534414D01*
X267091Y533790D01*
X266210Y532909D01*
X265586Y531828D01*
X265263Y530624D01*
Y529376D01*
X265586Y528172D01*
X266210Y527091D01*
X267091Y526209D01*
X268172Y525586D01*
X269376Y525263D01*
X270624D01*
X271828Y525586D01*
X272909Y526209D01*
X273791Y527091D01*
X274414Y528172D01*
X274737Y529376D01*
Y530624D01*
X274414Y531828D01*
X273791Y532909D01*
X272909Y533790D01*
X271828Y534414D01*
X270624Y534737D01*
D02*
G37*
G36*
X260000Y528939D02*
X257205Y526144D01*
X258172Y525586D01*
X259376Y525263D01*
X260624D01*
X261828Y525586D01*
X262795Y526144D01*
X260000Y528939D01*
D02*
G37*
G36*
X230138Y527857D02*
X226694Y524413D01*
X227968Y523678D01*
X229398Y523294D01*
X230878D01*
X232308Y523678D01*
X233582Y524413D01*
X230138Y527857D01*
D02*
G37*
G36*
X209862D02*
X206418Y524413D01*
X207692Y523678D01*
X209122Y523294D01*
X210602D01*
X212033Y523678D01*
X213306Y524413D01*
X209862Y527857D01*
D02*
G37*
G36*
X110878Y554816D02*
X109397D01*
X107967Y554432D01*
X106694Y553697D01*
X110138Y550254D01*
X113582Y553697D01*
X112308Y554432D01*
X110878Y554816D01*
D02*
G37*
G36*
X90602D02*
X89122D01*
X87692Y554432D01*
X86418Y553697D01*
X89862Y550254D01*
X93306Y553697D01*
X92032Y554432D01*
X90602Y554816D01*
D02*
G37*
G36*
X114642Y552637D02*
X111198Y549193D01*
X114642Y545749D01*
X115377Y547023D01*
X115761Y548453D01*
Y549933D01*
X115377Y551363D01*
X114642Y552637D01*
D02*
G37*
G36*
X94367D02*
X90923Y549193D01*
X94367Y545749D01*
X95102Y547023D01*
X95485Y548453D01*
Y549933D01*
X95102Y551363D01*
X94367Y552637D01*
D02*
G37*
G36*
X105633Y552637D02*
X104898Y551363D01*
X104515Y549933D01*
Y548453D01*
X104898Y547023D01*
X105633Y545749D01*
X109077Y549193D01*
X105633Y552637D01*
D02*
G37*
G36*
X85358D02*
X84623Y551363D01*
X84239Y549933D01*
Y548453D01*
X84623Y547023D01*
X85358Y545749D01*
X88801Y549193D01*
X85358Y552637D01*
D02*
G37*
G36*
X110138Y548132D02*
X106694Y544689D01*
X107967Y543953D01*
X109397Y543570D01*
X110878D01*
X112308Y543953D01*
X113582Y544689D01*
X110138Y548132D01*
D02*
G37*
G36*
X89862D02*
X86418Y544689D01*
X87692Y543953D01*
X89122Y543570D01*
X90602D01*
X92032Y543953D01*
X93306Y544689D01*
X89862Y548132D01*
D02*
G37*
G36*
X105032Y544087D02*
X94968D01*
Y534023D01*
X105032D01*
Y544087D01*
D02*
G37*
G36*
X140624Y534737D02*
X139376D01*
X138172Y534414D01*
X137205Y533856D01*
X140000Y531061D01*
X142795Y533856D01*
X141828Y534414D01*
X140624Y534737D01*
D02*
G37*
G36*
X110878Y534540D02*
X109397D01*
X107967Y534157D01*
X106694Y533422D01*
X110138Y529978D01*
X113582Y533422D01*
X112308Y534157D01*
X110878Y534540D01*
D02*
G37*
G36*
X90602D02*
X89122D01*
X87692Y534157D01*
X86418Y533422D01*
X89862Y529978D01*
X93306Y533422D01*
X92032Y534157D01*
X90602Y534540D01*
D02*
G37*
G36*
X136144Y532795D02*
X135586Y531828D01*
X135263Y530624D01*
Y529376D01*
X135586Y528172D01*
X136144Y527205D01*
X138939Y530000D01*
X136144Y532795D01*
D02*
G37*
G36*
X143856D02*
X141061Y530000D01*
X143856Y527205D01*
X144414Y528172D01*
X144737Y529376D01*
Y530624D01*
X144414Y531828D01*
X143856Y532795D01*
D02*
G37*
G36*
X114642Y532361D02*
X111198Y528917D01*
X114642Y525474D01*
X115377Y526747D01*
X115761Y528177D01*
Y529658D01*
X115377Y531088D01*
X114642Y532361D01*
D02*
G37*
G36*
X94367D02*
X90923Y528917D01*
X94367Y525474D01*
X95102Y526747D01*
X95485Y528177D01*
Y529658D01*
X95102Y531088D01*
X94367Y532361D01*
D02*
G37*
G36*
X105633Y532361D02*
X104898Y531088D01*
X104515Y529658D01*
Y528177D01*
X104898Y526747D01*
X105633Y525474D01*
X109077Y528917D01*
X105633Y532361D01*
D02*
G37*
G36*
X85358D02*
X84623Y531088D01*
X84239Y529658D01*
Y528177D01*
X84623Y526747D01*
X85358Y525474D01*
X88801Y528917D01*
X85358Y532361D01*
D02*
G37*
G36*
X164737Y534737D02*
X155263D01*
Y525263D01*
X164737D01*
Y534737D01*
D02*
G37*
G36*
X150624D02*
X149376D01*
X148172Y534414D01*
X147091Y533790D01*
X146209Y532909D01*
X145586Y531828D01*
X145263Y530624D01*
Y529376D01*
X145586Y528172D01*
X146209Y527091D01*
X147091Y526209D01*
X148172Y525586D01*
X149376Y525263D01*
X150624D01*
X151828Y525586D01*
X152909Y526209D01*
X153791Y527091D01*
X154414Y528172D01*
X154737Y529376D01*
Y530624D01*
X154414Y531828D01*
X153791Y532909D01*
X152909Y533790D01*
X151828Y534414D01*
X150624Y534737D01*
D02*
G37*
G36*
X140000Y528939D02*
X137205Y526144D01*
X138172Y525586D01*
X139376Y525263D01*
X140624D01*
X141828Y525586D01*
X142795Y526144D01*
X140000Y528939D01*
D02*
G37*
G36*
X110138Y527857D02*
X106694Y524413D01*
X107967Y523678D01*
X109397Y523294D01*
X110878D01*
X112308Y523678D01*
X113582Y524413D01*
X110138Y527857D01*
D02*
G37*
G36*
X89862D02*
X86418Y524413D01*
X87692Y523678D01*
X89122Y523294D01*
X90602D01*
X92032Y523678D01*
X93306Y524413D01*
X89862Y527857D01*
D02*
G37*
G36*
X480408Y504550D02*
X479592D01*
X478839Y504238D01*
X478262Y503661D01*
X477950Y502908D01*
Y502092D01*
X478262Y501339D01*
X478839Y500762D01*
X479592Y500450D01*
X480408D01*
X481161Y500762D01*
X481738Y501339D01*
X482050Y502092D01*
Y502908D01*
X481738Y503661D01*
X481161Y504238D01*
X480408Y504550D01*
D02*
G37*
G36*
X475408D02*
X474592D01*
X473839Y504238D01*
X473262Y503661D01*
X472950Y502908D01*
Y502092D01*
X473262Y501339D01*
X473839Y500762D01*
X474592Y500450D01*
X475408D01*
X476161Y500762D01*
X476738Y501339D01*
X477050Y502092D01*
Y502908D01*
X476738Y503661D01*
X476161Y504238D01*
X475408Y504550D01*
D02*
G37*
G36*
X470408D02*
X469592D01*
X468839Y504238D01*
X468262Y503661D01*
X467950Y502908D01*
Y502092D01*
X468262Y501339D01*
X468839Y500762D01*
X469592Y500450D01*
X470408D01*
X471161Y500762D01*
X471738Y501339D01*
X472050Y502092D01*
Y502908D01*
X471738Y503661D01*
X471161Y504238D01*
X470408Y504550D01*
D02*
G37*
G36*
X480408Y492050D02*
X479592D01*
X478839Y491738D01*
X478750Y491649D01*
X478661Y491738D01*
X477908Y492050D01*
X477092D01*
X476339Y491738D01*
X475762Y491161D01*
X475450Y490408D01*
Y489592D01*
X475762Y488839D01*
X476339Y488262D01*
X477092Y487950D01*
X477908D01*
X478661Y488262D01*
X478750Y488351D01*
X478839Y488262D01*
X479592Y487950D01*
X480408D01*
X481161Y488262D01*
X481738Y488839D01*
X482050Y489592D01*
Y490408D01*
X481738Y491161D01*
X481161Y491738D01*
X480408Y492050D01*
D02*
G37*
G36*
X467908Y497050D02*
X467092D01*
X466339Y496738D01*
X465762Y496161D01*
X465450Y495408D01*
Y494592D01*
X465762Y493839D01*
X465851Y493750D01*
X465762Y493661D01*
X465450Y492908D01*
Y492092D01*
X465762Y491339D01*
X466339Y490762D01*
X467092Y490450D01*
X467908D01*
X468661Y490762D01*
X469238Y491339D01*
X469550Y492092D01*
Y492908D01*
X469238Y493661D01*
X469149Y493750D01*
X469238Y493839D01*
X469550Y494592D01*
Y495408D01*
X469238Y496161D01*
X468661Y496738D01*
X467908Y497050D01*
D02*
G37*
G36*
Y489550D02*
X467092D01*
X466339Y489238D01*
X465762Y488661D01*
X465450Y487908D01*
Y487092D01*
X465762Y486339D01*
X465851Y486250D01*
X465762Y486161D01*
X465450Y485408D01*
Y484592D01*
X465762Y483839D01*
X466339Y483262D01*
X467092Y482950D01*
X467908D01*
X468661Y483262D01*
X469238Y483839D01*
X469550Y484592D01*
Y485408D01*
X469238Y486161D01*
X469149Y486250D01*
X469238Y486339D01*
X469550Y487092D01*
Y487908D01*
X469238Y488661D01*
X468661Y489238D01*
X467908Y489550D01*
D02*
G37*
G36*
X523676Y464737D02*
X516324D01*
X520000Y461061D01*
X523676Y464737D01*
D02*
G37*
G36*
X515263Y463676D02*
Y456324D01*
X518939Y460000D01*
X515263Y463676D01*
D02*
G37*
G36*
X524737Y463676D02*
X521061Y460000D01*
X524737Y456324D01*
Y463676D01*
D02*
G37*
G36*
X520000Y458939D02*
X516324Y455263D01*
X523676D01*
X520000Y458939D01*
D02*
G37*
G36*
X510624Y464737D02*
X509376D01*
X508172Y464414D01*
X507091Y463791D01*
X506210Y462909D01*
X505586Y461828D01*
X505263Y460624D01*
Y459376D01*
X505586Y458172D01*
X506210Y457091D01*
X507091Y456210D01*
X508172Y455586D01*
X509376Y455263D01*
X510624D01*
X511828Y455586D01*
X512909Y456210D01*
X513791Y457091D01*
X514414Y458172D01*
X514737Y459376D01*
Y460624D01*
X514414Y461828D01*
X513791Y462909D01*
X512909Y463791D01*
X511828Y464414D01*
X510624Y464737D01*
D02*
G37*
G36*
X500624D02*
X499376D01*
X498172Y464414D01*
X497091Y463791D01*
X496209Y462909D01*
X495586Y461828D01*
X495263Y460624D01*
Y459376D01*
X495586Y458172D01*
X496209Y457091D01*
X497091Y456210D01*
X498172Y455586D01*
X499376Y455263D01*
X500624D01*
X501828Y455586D01*
X502909Y456210D01*
X503791Y457091D01*
X504414Y458172D01*
X504737Y459376D01*
Y460624D01*
X504414Y461828D01*
X503791Y462909D01*
X502909Y463791D01*
X501828Y464414D01*
X500624Y464737D01*
D02*
G37*
G36*
X465236Y450911D02*
X463268D01*
X462288Y450782D01*
X461375Y450404D01*
X460591Y449802D01*
X459990Y449018D01*
X459612Y448106D01*
X459526Y447453D01*
X459504Y447290D01*
X459000D01*
X458978Y447453D01*
X458892Y448106D01*
X458514Y449018D01*
X458373Y449202D01*
X456297Y447126D01*
X458373Y445050D01*
X458514Y445233D01*
X458892Y446146D01*
X458978Y446799D01*
X459000Y446962D01*
X459504D01*
X459526Y446799D01*
X459612Y446146D01*
X459990Y445233D01*
X460591Y444450D01*
X461375Y443848D01*
X462288Y443470D01*
X463268Y443341D01*
X465236D01*
X466216Y443470D01*
X467129Y443848D01*
X467913Y444450D01*
X468514Y445233D01*
X468892Y446146D01*
X469021Y447126D01*
X468892Y448106D01*
X468514Y449018D01*
X467913Y449802D01*
X467129Y450404D01*
X466216Y450782D01*
X465236Y450911D01*
D02*
G37*
G36*
X435448Y504750D02*
X434552D01*
X433750Y504418D01*
X432947Y504750D01*
X432053D01*
X431250Y504418D01*
X430447Y504750D01*
X429553D01*
X428725Y504408D01*
X428092Y503774D01*
X427750Y502948D01*
Y502052D01*
X428092Y501226D01*
X428725Y500593D01*
X429553Y500250D01*
X430447D01*
X431250Y500582D01*
X432053Y500250D01*
X432947D01*
X433750Y500582D01*
X434552Y500250D01*
X435448D01*
X436274Y500593D01*
X436907Y501226D01*
X437250Y502052D01*
Y502948D01*
X436907Y503774D01*
X436274Y504408D01*
X435448Y504750D01*
D02*
G37*
G36*
X315448D02*
X314552D01*
X313750Y504418D01*
X312948Y504750D01*
X312052D01*
X311250Y504418D01*
X310448Y504750D01*
X309552D01*
X308726Y504408D01*
X308092Y503774D01*
X307750Y502948D01*
Y502052D01*
X308092Y501226D01*
X308726Y500593D01*
X309552Y500250D01*
X310448D01*
X311250Y500582D01*
X312052Y500250D01*
X312948D01*
X313750Y500582D01*
X314552Y500250D01*
X315448D01*
X316274Y500593D01*
X316908Y501226D01*
X317250Y502052D01*
Y502948D01*
X316908Y503774D01*
X316274Y504408D01*
X315448Y504750D01*
D02*
G37*
G36*
X195448D02*
X194552D01*
X193750Y504418D01*
X192948Y504750D01*
X192052D01*
X191250Y504418D01*
X190448Y504750D01*
X189552D01*
X188725Y504408D01*
X188093Y503774D01*
X187750Y502948D01*
Y502052D01*
X188093Y501226D01*
X188725Y500593D01*
X189552Y500250D01*
X190448D01*
X191250Y500582D01*
X192052Y500250D01*
X192948D01*
X193750Y500582D01*
X194552Y500250D01*
X195448D01*
X196274Y500593D01*
X196907Y501226D01*
X197250Y502052D01*
Y502948D01*
X196907Y503774D01*
X196274Y504408D01*
X195448Y504750D01*
D02*
G37*
G36*
X75448D02*
X74552D01*
X73750Y504418D01*
X72948Y504750D01*
X72052D01*
X71250Y504418D01*
X70448Y504750D01*
X69552D01*
X68726Y504408D01*
X68093Y503774D01*
X67750Y502948D01*
Y502052D01*
X68093Y501226D01*
X68726Y500593D01*
X69552Y500250D01*
X70448D01*
X71250Y500582D01*
X72052Y500250D01*
X72948D01*
X73750Y500582D01*
X74552Y500250D01*
X75448D01*
X76275Y500593D01*
X76907Y501226D01*
X77250Y502052D01*
Y502948D01*
X76907Y503774D01*
X76275Y504408D01*
X75448Y504750D01*
D02*
G37*
G36*
X565448Y494750D02*
X564552D01*
X563726Y494408D01*
X563093Y493775D01*
X562750Y492947D01*
Y492053D01*
X563093Y491225D01*
X563726Y490592D01*
X564552Y490250D01*
X565448D01*
X566274Y490592D01*
X566908Y491225D01*
X567250Y492053D01*
Y492947D01*
X566908Y493775D01*
X566274Y494408D01*
X565448Y494750D01*
D02*
G37*
G36*
X555447D02*
X554553D01*
X553725Y494408D01*
X553092Y493775D01*
X552750Y492947D01*
Y492053D01*
X553092Y491225D01*
X553725Y490592D01*
X554553Y490250D01*
X555447D01*
X556275Y490592D01*
X556908Y491225D01*
X557250Y492053D01*
Y492947D01*
X556908Y493775D01*
X556275Y494408D01*
X555447Y494750D01*
D02*
G37*
G36*
X430447D02*
X429553D01*
X428725Y494408D01*
X428092Y493775D01*
X427750Y492947D01*
Y492053D01*
X428092Y491225D01*
X428725Y490592D01*
X429553Y490250D01*
X430447D01*
X431275Y490592D01*
X431908Y491225D01*
X432250Y492053D01*
Y492947D01*
X431908Y493775D01*
X431275Y494408D01*
X430447Y494750D01*
D02*
G37*
G36*
X310448D02*
X309552D01*
X308726Y494408D01*
X308092Y493775D01*
X307750Y492947D01*
Y492053D01*
X308092Y491225D01*
X308726Y490592D01*
X309552Y490250D01*
X310448D01*
X311275Y490592D01*
X311908Y491225D01*
X312250Y492053D01*
Y492947D01*
X311908Y493775D01*
X311275Y494408D01*
X310448Y494750D01*
D02*
G37*
G36*
X190448D02*
X189552D01*
X188725Y494408D01*
X188093Y493775D01*
X187750Y492947D01*
Y492053D01*
X188093Y491225D01*
X188725Y490592D01*
X189552Y490250D01*
X190448D01*
X191274Y490592D01*
X191908Y491225D01*
X192250Y492053D01*
Y492947D01*
X191908Y493775D01*
X191274Y494408D01*
X190448Y494750D01*
D02*
G37*
G36*
X70448D02*
X69552D01*
X68726Y494408D01*
X68093Y493775D01*
X67750Y492947D01*
Y492053D01*
X68093Y491225D01*
X68726Y490592D01*
X69552Y490250D01*
X70448D01*
X71275Y490592D01*
X71908Y491225D01*
X72250Y492053D01*
Y492947D01*
X71908Y493775D01*
X71275Y494408D01*
X70448Y494750D01*
D02*
G37*
G36*
X560448Y489750D02*
X559552D01*
X558726Y489407D01*
X558092Y488774D01*
X557750Y487948D01*
Y487052D01*
X558092Y486226D01*
X558726Y485593D01*
X559552Y485250D01*
X560448D01*
X561274Y485593D01*
X561907Y486226D01*
X562250Y487052D01*
Y487948D01*
X561907Y488774D01*
X561274Y489407D01*
X560448Y489750D01*
D02*
G37*
G36*
X432947D02*
X432053D01*
X431225Y489407D01*
X430592Y488774D01*
X430250Y487948D01*
Y487052D01*
X430592Y486226D01*
X431225Y485593D01*
X432053Y485250D01*
X432947D01*
X433775Y485593D01*
X434408Y486226D01*
X434750Y487052D01*
Y487948D01*
X434408Y488774D01*
X433775Y489407D01*
X432947Y489750D01*
D02*
G37*
G36*
X312948D02*
X312052D01*
X311226Y489407D01*
X310593Y488774D01*
X310250Y487948D01*
Y487052D01*
X310593Y486226D01*
X311226Y485593D01*
X312052Y485250D01*
X312948D01*
X313774Y485593D01*
X314407Y486226D01*
X314750Y487052D01*
Y487948D01*
X314407Y488774D01*
X313774Y489407D01*
X312948Y489750D01*
D02*
G37*
G36*
X192948D02*
X192052D01*
X191226Y489407D01*
X190593Y488774D01*
X190250Y487948D01*
Y487052D01*
X190593Y486226D01*
X191226Y485593D01*
X192052Y485250D01*
X192948D01*
X193774Y485593D01*
X194407Y486226D01*
X194750Y487052D01*
Y487948D01*
X194407Y488774D01*
X193774Y489407D01*
X192948Y489750D01*
D02*
G37*
G36*
X72948D02*
X72052D01*
X71226Y489407D01*
X70592Y488774D01*
X70250Y487948D01*
Y487052D01*
X70592Y486226D01*
X71226Y485593D01*
X72052Y485250D01*
X72948D01*
X73774Y485593D01*
X74408Y486226D01*
X74750Y487052D01*
Y487948D01*
X74408Y488774D01*
X73774Y489407D01*
X72948Y489750D01*
D02*
G37*
G36*
X565448Y484750D02*
X564552D01*
X563726Y484408D01*
X563093Y483775D01*
X562750Y482947D01*
Y482053D01*
X563093Y481225D01*
X563726Y480592D01*
X564552Y480250D01*
X565448D01*
X566274Y480592D01*
X566908Y481225D01*
X567250Y482053D01*
Y482947D01*
X566908Y483775D01*
X566274Y484408D01*
X565448Y484750D01*
D02*
G37*
G36*
X555447D02*
X554553D01*
X553725Y484408D01*
X553092Y483775D01*
X552750Y482947D01*
Y482053D01*
X553092Y481225D01*
X553725Y480592D01*
X554553Y480250D01*
X555447D01*
X556275Y480592D01*
X556908Y481225D01*
X557250Y482053D01*
Y482947D01*
X556908Y483775D01*
X556275Y484408D01*
X555447Y484750D01*
D02*
G37*
G36*
X580447Y477250D02*
X579553D01*
X578725Y476907D01*
X578092Y476274D01*
X577750Y475448D01*
Y474552D01*
X578092Y473726D01*
X578725Y473093D01*
X579553Y472750D01*
X580447D01*
X581275Y473093D01*
X581908Y473726D01*
X582250Y474552D01*
Y475448D01*
X581908Y476274D01*
X581275Y476907D01*
X580447Y477250D01*
D02*
G37*
G36*
Y472250D02*
X579553D01*
X578725Y471908D01*
X578092Y471275D01*
X577750Y470447D01*
Y469553D01*
X578092Y468725D01*
X578725Y468092D01*
X579553Y467750D01*
X580447D01*
X581275Y468092D01*
X581908Y468725D01*
X582250Y469553D01*
Y470447D01*
X581908Y471275D01*
X581275Y471908D01*
X580447Y472250D01*
D02*
G37*
G36*
Y467250D02*
X579553D01*
X578725Y466908D01*
X578092Y466274D01*
X577750Y465448D01*
Y464552D01*
X578092Y463726D01*
X578725Y463093D01*
X579553Y462750D01*
X580447D01*
X581275Y463093D01*
X581908Y463726D01*
X582250Y464552D01*
Y465448D01*
X581908Y466274D01*
X581275Y466908D01*
X580447Y467250D01*
D02*
G37*
G36*
X575448D02*
X574552D01*
X573726Y466908D01*
X573093Y466274D01*
X572750Y465448D01*
Y464552D01*
X573093Y463726D01*
X573726Y463093D01*
X574552Y462750D01*
X575448D01*
X576274Y463093D01*
X576907Y463726D01*
X577250Y464552D01*
Y465448D01*
X576907Y466274D01*
X576274Y466908D01*
X575448Y467250D01*
D02*
G37*
G36*
X630650Y464937D02*
X629350D01*
X628094Y464601D01*
X626969Y463951D01*
X626049Y463031D01*
X625399Y461906D01*
X625259Y461381D01*
X624741D01*
X624601Y461906D01*
X623951Y463031D01*
X623031Y463951D01*
X621906Y464601D01*
X620650Y464937D01*
X619350D01*
X618094Y464601D01*
X616969Y463951D01*
X616049Y463031D01*
X615399Y461906D01*
X615063Y460650D01*
Y459350D01*
X615399Y458094D01*
X616049Y456969D01*
X616969Y456049D01*
X618094Y455399D01*
X619350Y455063D01*
X620650D01*
X621906Y455399D01*
X623031Y456049D01*
X623951Y456969D01*
X624601Y458094D01*
X624741Y458619D01*
X625259D01*
X625399Y458094D01*
X626049Y456969D01*
X626969Y456049D01*
X628094Y455399D01*
X629350Y455063D01*
X630650D01*
X631906Y455399D01*
X633031Y456049D01*
X633951Y456969D01*
X634601Y458094D01*
X634763Y458701D01*
X635263Y458635D01*
Y456324D01*
X638939Y460000D01*
X635263Y463676D01*
Y461365D01*
X634763Y461299D01*
X634601Y461906D01*
X633951Y463031D01*
X633031Y463951D01*
X631906Y464601D01*
X630650Y464937D01*
D02*
G37*
G36*
X643676Y464737D02*
X636324D01*
X640000Y461061D01*
X643676Y464737D01*
D02*
G37*
G36*
X644737Y463676D02*
X641061Y460000D01*
X644737Y456324D01*
Y463676D01*
D02*
G37*
G36*
X640000Y458939D02*
X636324Y455263D01*
X643676D01*
X640000Y458939D01*
D02*
G37*
G36*
X430131Y449202D02*
X429990Y449018D01*
X429612Y448106D01*
X429483Y447126D01*
X429612Y446146D01*
X429990Y445233D01*
X430131Y445050D01*
X432207Y447126D01*
X430131Y449202D01*
D02*
G37*
G36*
X310131D02*
X309990Y449018D01*
X309612Y448106D01*
X309483Y447126D01*
X309612Y446146D01*
X309990Y445233D01*
X310131Y445050D01*
X312207Y447126D01*
X310131Y449202D01*
D02*
G37*
G36*
X190131D02*
X189990Y449018D01*
X189612Y448106D01*
X189483Y447126D01*
X189612Y446146D01*
X189990Y445233D01*
X190131Y445050D01*
X192207Y447126D01*
X190131Y449202D01*
D02*
G37*
G36*
X70131D02*
X69990Y449018D01*
X69612Y448106D01*
X69483Y447126D01*
X69612Y446146D01*
X69990Y445233D01*
X70131Y445050D01*
X72207Y447126D01*
X70131Y449202D01*
D02*
G37*
G36*
X435236Y450911D02*
X433268D01*
X432288Y450782D01*
X431375Y450404D01*
X431191Y450263D01*
X433798Y447656D01*
X433268Y447126D01*
X433798Y446596D01*
X431191Y443989D01*
X431375Y443848D01*
X432288Y443470D01*
X433268Y443341D01*
X435236D01*
X436216Y443470D01*
X437129Y443848D01*
X437313Y443989D01*
X434706Y446596D01*
X435236Y447126D01*
X434706Y447656D01*
X437313Y450263D01*
X437129Y450404D01*
X436216Y450782D01*
X435236Y450911D01*
D02*
G37*
G36*
X315236D02*
X313268D01*
X312288Y450782D01*
X311375Y450404D01*
X311191Y450263D01*
X313798Y447656D01*
X313268Y447126D01*
X313798Y446596D01*
X311191Y443989D01*
X311375Y443848D01*
X312288Y443470D01*
X313268Y443341D01*
X315236D01*
X316216Y443470D01*
X317129Y443848D01*
X317313Y443989D01*
X314706Y446596D01*
X315236Y447126D01*
X314706Y447656D01*
X317313Y450263D01*
X317129Y450404D01*
X316216Y450782D01*
X315236Y450911D01*
D02*
G37*
G36*
X195236D02*
X193268D01*
X192288Y450782D01*
X191375Y450404D01*
X191191Y450263D01*
X193798Y447656D01*
X193268Y447126D01*
X193798Y446596D01*
X191191Y443989D01*
X191375Y443848D01*
X192288Y443470D01*
X193268Y443341D01*
X195236D01*
X196216Y443470D01*
X197129Y443848D01*
X197313Y443989D01*
X194706Y446596D01*
X195236Y447126D01*
X194706Y447656D01*
X197313Y450263D01*
X197129Y450404D01*
X196216Y450782D01*
X195236Y450911D01*
D02*
G37*
G36*
X75236D02*
X73268D01*
X72288Y450782D01*
X71375Y450404D01*
X71191Y450263D01*
X73798Y447656D01*
X73268Y447126D01*
X73798Y446596D01*
X71191Y443989D01*
X71375Y443848D01*
X72288Y443470D01*
X73268Y443341D01*
X75236D01*
X76216Y443470D01*
X77129Y443848D01*
X77313Y443989D01*
X74706Y446596D01*
X75236Y447126D01*
X74706Y447656D01*
X77313Y450263D01*
X77129Y450404D01*
X76216Y450782D01*
X75236Y450911D01*
D02*
G37*
G36*
X550520Y438953D02*
X549480D01*
X548474Y438683D01*
X547573Y438163D01*
X546837Y437427D01*
X546317Y436526D01*
X546047Y435520D01*
Y434480D01*
X546317Y433474D01*
X546837Y432573D01*
X547573Y431837D01*
X548474Y431317D01*
X549480Y431047D01*
X550520D01*
X551526Y431317D01*
X552427Y431837D01*
X553163Y432573D01*
X553683Y433474D01*
X553953Y434480D01*
Y435520D01*
X553683Y436526D01*
X553163Y437427D01*
X552427Y438163D01*
X551526Y438683D01*
X550520Y438953D01*
D02*
G37*
G36*
X540520D02*
X539480D01*
X538474Y438683D01*
X537573Y438163D01*
X536837Y437427D01*
X536317Y436526D01*
X536047Y435520D01*
Y434480D01*
X536317Y433474D01*
X536837Y432573D01*
X537573Y431837D01*
X538474Y431317D01*
X539480Y431047D01*
X540520D01*
X541526Y431317D01*
X542427Y431837D01*
X543163Y432573D01*
X543683Y433474D01*
X543953Y434480D01*
Y435520D01*
X543683Y436526D01*
X543163Y437427D01*
X542427Y438163D01*
X541526Y438683D01*
X540520Y438953D01*
D02*
G37*
G36*
X550520Y428953D02*
X549480D01*
X548474Y428683D01*
X547573Y428163D01*
X546837Y427427D01*
X546317Y426526D01*
X546047Y425520D01*
Y424480D01*
X546317Y423474D01*
X546837Y422573D01*
X547573Y421837D01*
X548474Y421317D01*
X549480Y421047D01*
X550520D01*
X551526Y421317D01*
X552427Y421837D01*
X553163Y422573D01*
X553683Y423474D01*
X553953Y424480D01*
Y425520D01*
X553683Y426526D01*
X553163Y427427D01*
X552427Y428163D01*
X551526Y428683D01*
X550520Y428953D01*
D02*
G37*
G36*
X540520D02*
X539480D01*
X538474Y428683D01*
X537573Y428163D01*
X536837Y427427D01*
X536317Y426526D01*
X536047Y425520D01*
Y424480D01*
X536317Y423474D01*
X536837Y422573D01*
X537573Y421837D01*
X538474Y421317D01*
X539480Y421047D01*
X540520D01*
X541526Y421317D01*
X542427Y421837D01*
X543163Y422573D01*
X543683Y423474D01*
X543953Y424480D01*
Y425520D01*
X543683Y426526D01*
X543163Y427427D01*
X542427Y428163D01*
X541526Y428683D01*
X540520Y428953D01*
D02*
G37*
G36*
X425448Y424750D02*
X424552D01*
X423726Y424407D01*
X423093Y423774D01*
X422750Y422948D01*
Y422052D01*
X423093Y421226D01*
X423726Y420592D01*
X424552Y420250D01*
X425448D01*
X426274Y420592D01*
X426907Y421226D01*
X427250Y422052D01*
Y422948D01*
X426907Y423774D01*
X426274Y424407D01*
X425448Y424750D01*
D02*
G37*
G36*
X305448D02*
X304552D01*
X303726Y424407D01*
X303093Y423774D01*
X302750Y422948D01*
Y422052D01*
X303093Y421226D01*
X303726Y420592D01*
X304552Y420250D01*
X305448D01*
X306275Y420592D01*
X306908Y421226D01*
X307250Y422052D01*
Y422948D01*
X306908Y423774D01*
X306275Y424407D01*
X305448Y424750D01*
D02*
G37*
G36*
X185448D02*
X184552D01*
X183726Y424407D01*
X183092Y423774D01*
X182750Y422948D01*
Y422052D01*
X183092Y421226D01*
X183726Y420592D01*
X184552Y420250D01*
X185448D01*
X186275Y420592D01*
X186907Y421226D01*
X187250Y422052D01*
Y422948D01*
X186907Y423774D01*
X186275Y424407D01*
X185448Y424750D01*
D02*
G37*
G36*
X65448D02*
X64552D01*
X63726Y424407D01*
X63092Y423774D01*
X62750Y422948D01*
Y422052D01*
X63092Y421226D01*
X63726Y420592D01*
X64552Y420250D01*
X65448D01*
X66274Y420592D01*
X66908Y421226D01*
X67250Y422052D01*
Y422948D01*
X66908Y423774D01*
X66274Y424407D01*
X65448Y424750D01*
D02*
G37*
G36*
X550520Y418953D02*
X549480D01*
X548474Y418683D01*
X547573Y418163D01*
X546837Y417427D01*
X546317Y416526D01*
X546047Y415520D01*
Y414480D01*
X546317Y413474D01*
X546837Y412573D01*
X547573Y411837D01*
X548474Y411317D01*
X549480Y411047D01*
X550520D01*
X551526Y411317D01*
X552427Y411837D01*
X553163Y412573D01*
X553683Y413474D01*
X553953Y414480D01*
Y415520D01*
X553683Y416526D01*
X553163Y417427D01*
X552427Y418163D01*
X551526Y418683D01*
X550520Y418953D01*
D02*
G37*
G36*
X540520D02*
X539480D01*
X538474Y418683D01*
X537573Y418163D01*
X536837Y417427D01*
X536317Y416526D01*
X536047Y415520D01*
Y414480D01*
X536317Y413474D01*
X536837Y412573D01*
X537573Y411837D01*
X538474Y411317D01*
X539480Y411047D01*
X540520D01*
X541526Y411317D01*
X542427Y411837D01*
X543163Y412573D01*
X543683Y413474D01*
X543953Y414480D01*
Y415520D01*
X543683Y416526D01*
X543163Y417427D01*
X542427Y418163D01*
X541526Y418683D01*
X540520Y418953D01*
D02*
G37*
G36*
X56948Y411750D02*
X56052D01*
X55225Y411408D01*
X54593Y410775D01*
X54250Y409947D01*
Y409052D01*
X54593Y408225D01*
X55225Y407592D01*
X56052Y407250D01*
X56948D01*
X57775Y407592D01*
X58407Y408225D01*
X58750Y409052D01*
Y409947D01*
X58407Y410775D01*
X57775Y411408D01*
X56948Y411750D01*
D02*
G37*
G36*
X65448Y407250D02*
X64552D01*
X63726Y406908D01*
X63092Y406275D01*
X62750Y405448D01*
Y404552D01*
X63092Y403725D01*
X63726Y403092D01*
X64552Y402750D01*
X65448D01*
X66274Y403092D01*
X66908Y403725D01*
X67250Y404552D01*
Y405448D01*
X66908Y406275D01*
X66274Y406908D01*
X65448Y407250D01*
D02*
G37*
G36*
X550520Y408953D02*
X549480D01*
X548474Y408683D01*
X547573Y408163D01*
X546837Y407427D01*
X546317Y406526D01*
X546047Y405520D01*
Y404480D01*
X546317Y403474D01*
X546837Y402573D01*
X547573Y401837D01*
X548474Y401317D01*
X549480Y401047D01*
X550520D01*
X551526Y401317D01*
X552427Y401837D01*
X553163Y402573D01*
X553683Y403474D01*
X553953Y404480D01*
Y405520D01*
X553683Y406526D01*
X553163Y407427D01*
X552427Y408163D01*
X551526Y408683D01*
X550520Y408953D01*
D02*
G37*
G36*
X540520D02*
X539480D01*
X538474Y408683D01*
X537573Y408163D01*
X536837Y407427D01*
X536317Y406526D01*
X536047Y405520D01*
Y404480D01*
X536317Y403474D01*
X536837Y402573D01*
X537573Y401837D01*
X538474Y401317D01*
X539480Y401047D01*
X540520D01*
X541526Y401317D01*
X542427Y401837D01*
X543163Y402573D01*
X543683Y403474D01*
X543953Y404480D01*
Y405520D01*
X543683Y406526D01*
X543163Y407427D01*
X542427Y408163D01*
X541526Y408683D01*
X540520Y408953D01*
D02*
G37*
G36*
X60448Y403250D02*
X59552D01*
X58726Y402908D01*
X58092Y402275D01*
X57750Y401448D01*
Y400552D01*
X58092Y399726D01*
X58726Y399093D01*
X59552Y398750D01*
X60448D01*
X61274Y399093D01*
X61908Y399726D01*
X62250Y400552D01*
Y401448D01*
X61908Y402275D01*
X61274Y402908D01*
X60448Y403250D01*
D02*
G37*
G36*
X190430Y400764D02*
X189570D01*
X188740Y400541D01*
X187996Y400112D01*
X187388Y399504D01*
X186959Y398760D01*
X186736Y397930D01*
Y397070D01*
X186959Y396240D01*
X187388Y395496D01*
X187996Y394888D01*
X188740Y394459D01*
X189570Y394236D01*
X190430D01*
X191260Y394459D01*
X192004Y394888D01*
X192612Y395496D01*
X193041Y396240D01*
X193264Y397070D01*
Y397930D01*
X193041Y398760D01*
X192612Y399504D01*
X192004Y400112D01*
X191260Y400541D01*
X190430Y400764D01*
D02*
G37*
G36*
X185362D02*
X178835D01*
Y394236D01*
X185362D01*
Y400764D01*
D02*
G37*
G36*
X550520Y398953D02*
X549480D01*
X548474Y398683D01*
X547573Y398163D01*
X546837Y397427D01*
X546317Y396526D01*
X546047Y395520D01*
Y394480D01*
X546317Y393474D01*
X546837Y392573D01*
X547573Y391837D01*
X548474Y391317D01*
X549480Y391047D01*
X550520D01*
X551526Y391317D01*
X552427Y391837D01*
X553163Y392573D01*
X553683Y393474D01*
X553953Y394480D01*
Y395520D01*
X553683Y396526D01*
X553163Y397427D01*
X552427Y398163D01*
X551526Y398683D01*
X550520Y398953D01*
D02*
G37*
G36*
X540520D02*
X539480D01*
X538474Y398683D01*
X537573Y398163D01*
X536837Y397427D01*
X536317Y396526D01*
X536047Y395520D01*
Y394480D01*
X536317Y393474D01*
X536837Y392573D01*
X537573Y391837D01*
X538474Y391317D01*
X539480Y391047D01*
X540520D01*
X541526Y391317D01*
X542427Y391837D01*
X543163Y392573D01*
X543683Y393474D01*
X543953Y394480D01*
Y395520D01*
X543683Y396526D01*
X543163Y397427D01*
X542427Y398163D01*
X541526Y398683D01*
X540520Y398953D01*
D02*
G37*
G36*
X347948Y392250D02*
X347052D01*
X346226Y391908D01*
X345592Y391274D01*
X345250Y390448D01*
Y389552D01*
X345592Y388725D01*
X346226Y388092D01*
X347052Y387750D01*
X347948D01*
X348775Y388092D01*
X349408Y388725D01*
X349750Y389552D01*
Y390448D01*
X349408Y391274D01*
X348775Y391908D01*
X347948Y392250D01*
D02*
G37*
G36*
X277948D02*
X277052D01*
X276225Y391908D01*
X275592Y391274D01*
X275250Y390448D01*
Y389552D01*
X275592Y388725D01*
X276225Y388092D01*
X277052Y387750D01*
X277948D01*
X278774Y388092D01*
X279408Y388725D01*
X279750Y389552D01*
Y390448D01*
X279408Y391274D01*
X278774Y391908D01*
X277948Y392250D01*
D02*
G37*
G36*
X550520Y388953D02*
X549480D01*
X548474Y388683D01*
X547573Y388163D01*
X546837Y387427D01*
X546317Y386526D01*
X546047Y385520D01*
Y384480D01*
X546317Y383474D01*
X546837Y382573D01*
X547573Y381837D01*
X548474Y381317D01*
X549480Y381047D01*
X550520D01*
X551526Y381317D01*
X552427Y381837D01*
X553163Y382573D01*
X553683Y383474D01*
X553953Y384480D01*
Y385520D01*
X553683Y386526D01*
X553163Y387427D01*
X552427Y388163D01*
X551526Y388683D01*
X550520Y388953D01*
D02*
G37*
G36*
X540520D02*
X539480D01*
X538474Y388683D01*
X537573Y388163D01*
X536837Y387427D01*
X536317Y386526D01*
X536047Y385520D01*
Y384480D01*
X536317Y383474D01*
X536837Y382573D01*
X537573Y381837D01*
X538474Y381317D01*
X539480Y381047D01*
X540520D01*
X541526Y381317D01*
X542427Y381837D01*
X543163Y382573D01*
X543683Y383474D01*
X543953Y384480D01*
Y385520D01*
X543683Y386526D01*
X543163Y387427D01*
X542427Y388163D01*
X541526Y388683D01*
X540520Y388953D01*
D02*
G37*
G36*
X500619Y389700D02*
X499381D01*
X498186Y389380D01*
X497114Y388761D01*
X496239Y387886D01*
X495620Y386814D01*
X495300Y385619D01*
Y384381D01*
X495620Y383186D01*
X496239Y382114D01*
X497114Y381239D01*
X498186Y380620D01*
X499381Y380300D01*
X500619D01*
X501814Y380620D01*
X502886Y381239D01*
X503761Y382114D01*
X504380Y383186D01*
X504700Y384381D01*
Y385619D01*
X504380Y386814D01*
X503761Y387886D01*
X502886Y388761D01*
X501814Y389380D01*
X500619Y389700D01*
D02*
G37*
G36*
X620494Y378753D02*
X619506D01*
X618551Y378497D01*
X617925Y378135D01*
X620000Y376061D01*
X622075Y378135D01*
X621449Y378497D01*
X620494Y378753D01*
D02*
G37*
G36*
X616865Y377075D02*
X616503Y376448D01*
X616247Y375494D01*
Y374506D01*
X616503Y373552D01*
X616865Y372925D01*
X618939Y375000D01*
X616865Y377075D01*
D02*
G37*
G36*
X623135Y377075D02*
X621061Y375000D01*
X623135Y372925D01*
X623497Y373552D01*
X623753Y374506D01*
Y375494D01*
X623497Y376448D01*
X623135Y377075D01*
D02*
G37*
G36*
X620000Y373939D02*
X617925Y371865D01*
X618551Y371503D01*
X619506Y371247D01*
X620494D01*
X621449Y371503D01*
X622075Y371865D01*
X620000Y373939D01*
D02*
G37*
G36*
X610520Y378953D02*
X609480D01*
X608474Y378683D01*
X607573Y378163D01*
X606837Y377427D01*
X606317Y376526D01*
X606047Y375520D01*
Y374480D01*
X606317Y373474D01*
X606837Y372573D01*
X607573Y371837D01*
X608474Y371317D01*
X609480Y371047D01*
X610520D01*
X611526Y371317D01*
X612427Y371837D01*
X613163Y372573D01*
X613683Y373474D01*
X613953Y374480D01*
Y375520D01*
X613683Y376526D01*
X613163Y377427D01*
X612427Y378163D01*
X611526Y378683D01*
X610520Y378953D01*
D02*
G37*
G36*
X550520D02*
X549480D01*
X548474Y378683D01*
X547573Y378163D01*
X546837Y377427D01*
X546317Y376526D01*
X546047Y375520D01*
Y374480D01*
X546317Y373474D01*
X546837Y372573D01*
X547573Y371837D01*
X548474Y371317D01*
X549480Y371047D01*
X550520D01*
X551526Y371317D01*
X552427Y371837D01*
X553163Y372573D01*
X553683Y373474D01*
X553953Y374480D01*
Y375520D01*
X553683Y376526D01*
X553163Y377427D01*
X552427Y378163D01*
X551526Y378683D01*
X550520Y378953D01*
D02*
G37*
G36*
X540520D02*
X539480D01*
X538474Y378683D01*
X537573Y378163D01*
X536837Y377427D01*
X536317Y376526D01*
X536047Y375520D01*
Y374480D01*
X536317Y373474D01*
X536837Y372573D01*
X537573Y371837D01*
X538474Y371317D01*
X539480Y371047D01*
X540520D01*
X541526Y371317D01*
X542427Y371837D01*
X543163Y372573D01*
X543683Y373474D01*
X543953Y374480D01*
Y375520D01*
X543683Y376526D01*
X543163Y377427D01*
X542427Y378163D01*
X541526Y378683D01*
X540520Y378953D01*
D02*
G37*
G36*
X500619Y379700D02*
X499381D01*
X498186Y379380D01*
X497114Y378761D01*
X496239Y377886D01*
X495620Y376814D01*
X495300Y375619D01*
Y374381D01*
X495620Y373186D01*
X496239Y372114D01*
X497114Y371239D01*
X498186Y370620D01*
X499381Y370300D01*
X500619D01*
X501814Y370620D01*
X502886Y371239D01*
X503761Y372114D01*
X504380Y373186D01*
X504700Y374381D01*
Y375619D01*
X504380Y376814D01*
X503761Y377886D01*
X502886Y378761D01*
X501814Y379380D01*
X500619Y379700D01*
D02*
G37*
G36*
X380619D02*
X379381D01*
X378186Y379380D01*
X377114Y378761D01*
X376239Y377886D01*
X375620Y376814D01*
X375300Y375619D01*
Y374381D01*
X375620Y373186D01*
X376239Y372114D01*
X377114Y371239D01*
X378186Y370620D01*
X379381Y370300D01*
X380619D01*
X381814Y370620D01*
X382886Y371239D01*
X383761Y372114D01*
X384380Y373186D01*
X384700Y374381D01*
Y375619D01*
X384380Y376814D01*
X383761Y377886D01*
X382886Y378761D01*
X381814Y379380D01*
X380619Y379700D01*
D02*
G37*
G36*
X620494Y368753D02*
X619506D01*
X618551Y368497D01*
X617925Y368135D01*
X620000Y366061D01*
X622075Y368135D01*
X621449Y368497D01*
X620494Y368753D01*
D02*
G37*
G36*
X616865Y367075D02*
X616503Y366448D01*
X616247Y365494D01*
Y364506D01*
X616503Y363551D01*
X616865Y362925D01*
X618939Y365000D01*
X616865Y367075D01*
D02*
G37*
G36*
X623135Y367075D02*
X621061Y365000D01*
X623135Y362925D01*
X623497Y363551D01*
X623753Y364506D01*
Y365494D01*
X623497Y366448D01*
X623135Y367075D01*
D02*
G37*
G36*
X620000Y363939D02*
X617925Y361865D01*
X618551Y361503D01*
X619506Y361247D01*
X620494D01*
X621449Y361503D01*
X622075Y361865D01*
X620000Y363939D01*
D02*
G37*
G36*
X610520Y368953D02*
X609480D01*
X608474Y368683D01*
X607573Y368163D01*
X606837Y367427D01*
X606317Y366526D01*
X606047Y365520D01*
Y364480D01*
X606317Y363474D01*
X606837Y362573D01*
X607573Y361837D01*
X608474Y361317D01*
X609480Y361047D01*
X610520D01*
X611526Y361317D01*
X612427Y361837D01*
X613163Y362573D01*
X613683Y363474D01*
X613953Y364480D01*
Y365520D01*
X613683Y366526D01*
X613163Y367427D01*
X612427Y368163D01*
X611526Y368683D01*
X610520Y368953D01*
D02*
G37*
G36*
X550520D02*
X549480D01*
X548474Y368683D01*
X547573Y368163D01*
X546837Y367427D01*
X546317Y366526D01*
X546047Y365520D01*
Y364480D01*
X546317Y363474D01*
X546837Y362573D01*
X547573Y361837D01*
X548474Y361317D01*
X549480Y361047D01*
X550520D01*
X551526Y361317D01*
X552427Y361837D01*
X553163Y362573D01*
X553683Y363474D01*
X553953Y364480D01*
Y365520D01*
X553683Y366526D01*
X553163Y367427D01*
X552427Y368163D01*
X551526Y368683D01*
X550520Y368953D01*
D02*
G37*
G36*
X540520D02*
X539480D01*
X538474Y368683D01*
X537573Y368163D01*
X536837Y367427D01*
X536317Y366526D01*
X536047Y365520D01*
Y364480D01*
X536317Y363474D01*
X536837Y362573D01*
X537573Y361837D01*
X538474Y361317D01*
X539480Y361047D01*
X540520D01*
X541526Y361317D01*
X542427Y361837D01*
X543163Y362573D01*
X543683Y363474D01*
X543953Y364480D01*
Y365520D01*
X543683Y366526D01*
X543163Y367427D01*
X542427Y368163D01*
X541526Y368683D01*
X540520Y368953D01*
D02*
G37*
G36*
X500619Y369700D02*
X499381D01*
X498186Y369380D01*
X497114Y368761D01*
X496239Y367886D01*
X495620Y366814D01*
X495300Y365619D01*
Y364381D01*
X495620Y363186D01*
X496239Y362114D01*
X497114Y361239D01*
X498186Y360620D01*
X499381Y360300D01*
X500619D01*
X501814Y360620D01*
X502886Y361239D01*
X503761Y362114D01*
X504380Y363186D01*
X504700Y364381D01*
Y365619D01*
X504380Y366814D01*
X503761Y367886D01*
X502886Y368761D01*
X501814Y369380D01*
X500619Y369700D01*
D02*
G37*
G36*
X380619D02*
X379381D01*
X378186Y369380D01*
X377114Y368761D01*
X376239Y367886D01*
X375620Y366814D01*
X375300Y365619D01*
Y364381D01*
X375620Y363186D01*
X376239Y362114D01*
X377114Y361239D01*
X378186Y360620D01*
X379381Y360300D01*
X380619D01*
X381814Y360620D01*
X382886Y361239D01*
X383761Y362114D01*
X384380Y363186D01*
X384700Y364381D01*
Y365619D01*
X384380Y366814D01*
X383761Y367886D01*
X382886Y368761D01*
X381814Y369380D01*
X380619Y369700D01*
D02*
G37*
G36*
X337948Y362250D02*
X337052D01*
X336226Y361908D01*
X335593Y361275D01*
X335250Y360448D01*
Y359552D01*
X335593Y358726D01*
X336226Y358092D01*
X337052Y357750D01*
X337948D01*
X338774Y358092D01*
X339407Y358726D01*
X339750Y359552D01*
Y360448D01*
X339407Y361275D01*
X338774Y361908D01*
X337948Y362250D01*
D02*
G37*
G36*
X267948D02*
X267052D01*
X266226Y361908D01*
X265593Y361275D01*
X265250Y360448D01*
Y359552D01*
X265593Y358726D01*
X266226Y358092D01*
X267052Y357750D01*
X267948D01*
X268775Y358092D01*
X269408Y358726D01*
X269750Y359552D01*
Y360448D01*
X269408Y361275D01*
X268775Y361908D01*
X267948Y362250D01*
D02*
G37*
G36*
X620494Y358753D02*
X619506D01*
X618551Y358497D01*
X617925Y358135D01*
X620000Y356061D01*
X622075Y358135D01*
X621449Y358497D01*
X620494Y358753D01*
D02*
G37*
G36*
X616865Y357075D02*
X616503Y356449D01*
X616247Y355494D01*
Y354506D01*
X616503Y353552D01*
X616865Y352925D01*
X618939Y355000D01*
X616865Y357075D01*
D02*
G37*
G36*
X623135Y357075D02*
X621061Y355000D01*
X623135Y352925D01*
X623497Y353552D01*
X623753Y354506D01*
Y355494D01*
X623497Y356449D01*
X623135Y357075D01*
D02*
G37*
G36*
X190831Y358264D02*
X189972D01*
X189142Y358041D01*
X188398Y357612D01*
X187790Y357004D01*
X187360Y356260D01*
X187138Y355430D01*
Y354570D01*
X187360Y353740D01*
X187790Y352996D01*
X188398Y352388D01*
X189142Y351959D01*
X189972Y351736D01*
X190831D01*
X191661Y351959D01*
X192406Y352388D01*
X193013Y352996D01*
X193443Y353740D01*
X193665Y354570D01*
Y355430D01*
X193443Y356260D01*
X193013Y357004D01*
X192406Y357612D01*
X191661Y358041D01*
X190831Y358264D01*
D02*
G37*
G36*
X185764D02*
X179236D01*
Y351736D01*
X185764D01*
Y358264D01*
D02*
G37*
G36*
X620000Y353939D02*
X617925Y351865D01*
X618551Y351503D01*
X619506Y351247D01*
X620494D01*
X621449Y351503D01*
X622075Y351865D01*
X620000Y353939D01*
D02*
G37*
G36*
X610520Y358953D02*
X609480D01*
X608474Y358683D01*
X607573Y358163D01*
X606837Y357427D01*
X606317Y356526D01*
X606047Y355520D01*
Y354480D01*
X606317Y353474D01*
X606837Y352573D01*
X607573Y351837D01*
X608474Y351317D01*
X609480Y351047D01*
X610520D01*
X611526Y351317D01*
X612427Y351837D01*
X613163Y352573D01*
X613683Y353474D01*
X613953Y354480D01*
Y355520D01*
X613683Y356526D01*
X613163Y357427D01*
X612427Y358163D01*
X611526Y358683D01*
X610520Y358953D01*
D02*
G37*
G36*
X550520D02*
X549480D01*
X548474Y358683D01*
X547573Y358163D01*
X546837Y357427D01*
X546317Y356526D01*
X546047Y355520D01*
Y354480D01*
X546317Y353474D01*
X546837Y352573D01*
X547573Y351837D01*
X548474Y351317D01*
X549480Y351047D01*
X550520D01*
X551526Y351317D01*
X552427Y351837D01*
X553163Y352573D01*
X553683Y353474D01*
X553953Y354480D01*
Y355520D01*
X553683Y356526D01*
X553163Y357427D01*
X552427Y358163D01*
X551526Y358683D01*
X550520Y358953D01*
D02*
G37*
G36*
X540520D02*
X539480D01*
X538474Y358683D01*
X537573Y358163D01*
X536837Y357427D01*
X536317Y356526D01*
X536047Y355520D01*
Y354480D01*
X536317Y353474D01*
X536837Y352573D01*
X537573Y351837D01*
X538474Y351317D01*
X539480Y351047D01*
X540520D01*
X541526Y351317D01*
X542427Y351837D01*
X543163Y352573D01*
X543683Y353474D01*
X543953Y354480D01*
Y355520D01*
X543683Y356526D01*
X543163Y357427D01*
X542427Y358163D01*
X541526Y358683D01*
X540520Y358953D01*
D02*
G37*
G36*
X500619Y359700D02*
X499381D01*
X498186Y359380D01*
X497114Y358761D01*
X496239Y357886D01*
X495620Y356814D01*
X495300Y355619D01*
Y354381D01*
X495620Y353186D01*
X496239Y352114D01*
X497114Y351239D01*
X498186Y350620D01*
X499381Y350300D01*
X500619D01*
X501814Y350620D01*
X502886Y351239D01*
X503761Y352114D01*
X504380Y353186D01*
X504700Y354381D01*
Y355619D01*
X504380Y356814D01*
X503761Y357886D01*
X502886Y358761D01*
X501814Y359380D01*
X500619Y359700D01*
D02*
G37*
G36*
X380619D02*
X379381D01*
X378186Y359380D01*
X377114Y358761D01*
X376239Y357886D01*
X375620Y356814D01*
X375300Y355619D01*
Y354381D01*
X375620Y353186D01*
X376239Y352114D01*
X377114Y351239D01*
X378186Y350620D01*
X379381Y350300D01*
X380619D01*
X381814Y350620D01*
X382886Y351239D01*
X383761Y352114D01*
X384380Y353186D01*
X384700Y354381D01*
Y355619D01*
X384380Y356814D01*
X383761Y357886D01*
X382886Y358761D01*
X381814Y359380D01*
X380619Y359700D01*
D02*
G37*
G36*
X620494Y348753D02*
X619506D01*
X618551Y348497D01*
X617925Y348135D01*
X620000Y346061D01*
X622075Y348135D01*
X621449Y348497D01*
X620494Y348753D01*
D02*
G37*
G36*
X380592Y349500D02*
X379408D01*
X378263Y349193D01*
X377378Y348682D01*
X380000Y346061D01*
X382622Y348682D01*
X381737Y349193D01*
X380592Y349500D01*
D02*
G37*
G36*
X428869Y358480D02*
X427509D01*
X426175Y358215D01*
X424918Y357694D01*
X423787Y356939D01*
X422825Y355977D01*
X422069Y354846D01*
X421549Y353589D01*
X421283Y352255D01*
Y350895D01*
X421549Y349560D01*
X422069Y348304D01*
X422825Y347173D01*
X423787Y346211D01*
X424918Y345455D01*
X426175Y344935D01*
X427509Y344669D01*
X428869D01*
X430203Y344935D01*
X431460Y345455D01*
X432591Y346211D01*
X433553Y347173D01*
X434309Y348304D01*
X434829Y349560D01*
X435094Y350895D01*
Y352255D01*
X434829Y353589D01*
X434309Y354846D01*
X433553Y355977D01*
X432591Y356939D01*
X431460Y357694D01*
X430203Y358215D01*
X428869Y358480D01*
D02*
G37*
G36*
X48948Y348250D02*
X48052D01*
X47225Y347907D01*
X46593Y347274D01*
X46250Y346448D01*
Y345552D01*
X46593Y344725D01*
X47225Y344092D01*
X48052Y343750D01*
X48948D01*
X49775Y344092D01*
X50407Y344725D01*
X50750Y345552D01*
Y346448D01*
X50407Y347274D01*
X49775Y347907D01*
X48948Y348250D01*
D02*
G37*
G36*
X616865Y347075D02*
X616503Y346448D01*
X616247Y345494D01*
Y344506D01*
X616503Y343551D01*
X616865Y342925D01*
X618939Y345000D01*
X616865Y347075D01*
D02*
G37*
G36*
X623135Y347075D02*
X621061Y345000D01*
X623135Y342925D01*
X623497Y343551D01*
X623753Y344506D01*
Y345494D01*
X623497Y346448D01*
X623135Y347075D01*
D02*
G37*
G36*
X376318Y347622D02*
X375807Y346737D01*
X375500Y345592D01*
Y344408D01*
X375807Y343263D01*
X376318Y342378D01*
X378939Y345000D01*
X376318Y347622D01*
D02*
G37*
G36*
X383682D02*
X381061Y345000D01*
X383682Y342378D01*
X384193Y343263D01*
X384500Y344408D01*
Y345592D01*
X384193Y346737D01*
X383682Y347622D01*
D02*
G37*
G36*
X620000Y343939D02*
X617925Y341865D01*
X618551Y341503D01*
X619506Y341247D01*
X620494D01*
X621449Y341503D01*
X622075Y341865D01*
X620000Y343939D01*
D02*
G37*
G36*
X610520Y348953D02*
X609480D01*
X608474Y348683D01*
X607573Y348163D01*
X606837Y347427D01*
X606317Y346526D01*
X606047Y345520D01*
Y344480D01*
X606317Y343474D01*
X606837Y342573D01*
X607573Y341837D01*
X608474Y341317D01*
X609480Y341047D01*
X610520D01*
X611526Y341317D01*
X612427Y341837D01*
X613163Y342573D01*
X613683Y343474D01*
X613953Y344480D01*
Y345520D01*
X613683Y346526D01*
X613163Y347427D01*
X612427Y348163D01*
X611526Y348683D01*
X610520Y348953D01*
D02*
G37*
G36*
X550520D02*
X549480D01*
X548474Y348683D01*
X547573Y348163D01*
X546837Y347427D01*
X546317Y346526D01*
X546047Y345520D01*
Y344480D01*
X546317Y343474D01*
X546837Y342573D01*
X547573Y341837D01*
X548474Y341317D01*
X549480Y341047D01*
X550520D01*
X551526Y341317D01*
X552427Y341837D01*
X553163Y342573D01*
X553683Y343474D01*
X553953Y344480D01*
Y345520D01*
X553683Y346526D01*
X553163Y347427D01*
X552427Y348163D01*
X551526Y348683D01*
X550520Y348953D01*
D02*
G37*
G36*
X540520D02*
X539480D01*
X538474Y348683D01*
X537573Y348163D01*
X536837Y347427D01*
X536317Y346526D01*
X536047Y345520D01*
Y344480D01*
X536317Y343474D01*
X536837Y342573D01*
X537573Y341837D01*
X538474Y341317D01*
X539480Y341047D01*
X540520D01*
X541526Y341317D01*
X542427Y341837D01*
X543163Y342573D01*
X543683Y343474D01*
X543953Y344480D01*
Y345520D01*
X543683Y346526D01*
X543163Y347427D01*
X542427Y348163D01*
X541526Y348683D01*
X540520Y348953D01*
D02*
G37*
G36*
X380000Y343939D02*
X377378Y341318D01*
X378263Y340807D01*
X379408Y340500D01*
X380592D01*
X381737Y340807D01*
X382622Y341318D01*
X380000Y343939D01*
D02*
G37*
G36*
X500619Y349700D02*
X499381D01*
X498186Y349380D01*
X497114Y348761D01*
X496239Y347886D01*
X495620Y346814D01*
X495300Y345619D01*
Y344381D01*
X495620Y343186D01*
X496239Y342114D01*
X497114Y341239D01*
X498186Y340620D01*
X499381Y340300D01*
X500619D01*
X501814Y340620D01*
X502886Y341239D01*
X503761Y342114D01*
X504380Y343186D01*
X504700Y344381D01*
Y345619D01*
X504380Y346814D01*
X503761Y347886D01*
X502886Y348761D01*
X501814Y349380D01*
X500619Y349700D01*
D02*
G37*
G36*
X515448Y342250D02*
X514552D01*
X513726Y341908D01*
X513093Y341274D01*
X512750Y340448D01*
Y339552D01*
X513093Y338725D01*
X513726Y338092D01*
X514552Y337750D01*
X515448D01*
X516274Y338092D01*
X516908Y338725D01*
X517250Y339552D01*
Y340448D01*
X516908Y341274D01*
X516274Y341908D01*
X515448Y342250D01*
D02*
G37*
G36*
X620494Y338753D02*
X619506D01*
X618551Y338497D01*
X617925Y338135D01*
X620000Y336061D01*
X622075Y338135D01*
X621449Y338497D01*
X620494Y338753D01*
D02*
G37*
G36*
X616865Y337075D02*
X616503Y336449D01*
X616247Y335494D01*
Y334506D01*
X616503Y333552D01*
X616865Y332925D01*
X618939Y335000D01*
X616865Y337075D01*
D02*
G37*
G36*
X623135Y337075D02*
X621061Y335000D01*
X623135Y332925D01*
X623497Y333552D01*
X623753Y334506D01*
Y335494D01*
X623497Y336449D01*
X623135Y337075D01*
D02*
G37*
G36*
X620000Y333939D02*
X617925Y331865D01*
X618551Y331503D01*
X619506Y331247D01*
X620494D01*
X621449Y331503D01*
X622075Y331865D01*
X620000Y333939D01*
D02*
G37*
G36*
X610520Y338953D02*
X609480D01*
X608474Y338683D01*
X607573Y338163D01*
X606837Y337427D01*
X606317Y336526D01*
X606047Y335520D01*
Y334480D01*
X606317Y333474D01*
X606837Y332573D01*
X607573Y331837D01*
X608474Y331317D01*
X609480Y331047D01*
X610520D01*
X611526Y331317D01*
X612427Y331837D01*
X613163Y332573D01*
X613683Y333474D01*
X613953Y334480D01*
Y335520D01*
X613683Y336526D01*
X613163Y337427D01*
X612427Y338163D01*
X611526Y338683D01*
X610520Y338953D01*
D02*
G37*
G36*
X550520D02*
X549480D01*
X548474Y338683D01*
X547573Y338163D01*
X546837Y337427D01*
X546317Y336526D01*
X546047Y335520D01*
Y334480D01*
X546317Y333474D01*
X546837Y332573D01*
X547573Y331837D01*
X548474Y331317D01*
X549480Y331047D01*
X550520D01*
X551526Y331317D01*
X552427Y331837D01*
X553163Y332573D01*
X553683Y333474D01*
X553953Y334480D01*
Y335520D01*
X553683Y336526D01*
X553163Y337427D01*
X552427Y338163D01*
X551526Y338683D01*
X550520Y338953D01*
D02*
G37*
G36*
X540520D02*
X539480D01*
X538474Y338683D01*
X537573Y338163D01*
X536837Y337427D01*
X536317Y336526D01*
X536047Y335520D01*
Y334480D01*
X536317Y333474D01*
X536837Y332573D01*
X537573Y331837D01*
X538474Y331317D01*
X539480Y331047D01*
X540520D01*
X541526Y331317D01*
X542427Y331837D01*
X543163Y332573D01*
X543683Y333474D01*
X543953Y334480D01*
Y335520D01*
X543683Y336526D01*
X543163Y337427D01*
X542427Y338163D01*
X541526Y338683D01*
X540520Y338953D01*
D02*
G37*
G36*
X500619Y339700D02*
X499381D01*
X498186Y339380D01*
X497114Y338761D01*
X496239Y337886D01*
X495620Y336814D01*
X495300Y335619D01*
Y334381D01*
X495620Y333186D01*
X496239Y332114D01*
X497114Y331239D01*
X498186Y330620D01*
X499381Y330300D01*
X500619D01*
X501814Y330620D01*
X502886Y331239D01*
X503761Y332114D01*
X504380Y333186D01*
X504700Y334381D01*
Y335619D01*
X504380Y336814D01*
X503761Y337886D01*
X502886Y338761D01*
X501814Y339380D01*
X500619Y339700D01*
D02*
G37*
G36*
X380619D02*
X379381D01*
X378186Y339380D01*
X377114Y338761D01*
X376239Y337886D01*
X375620Y336814D01*
X375300Y335619D01*
Y334381D01*
X375620Y333186D01*
X376239Y332114D01*
X377114Y331239D01*
X378186Y330620D01*
X379381Y330300D01*
X380619D01*
X381814Y330620D01*
X382886Y331239D01*
X383761Y332114D01*
X384380Y333186D01*
X384700Y334381D01*
Y335619D01*
X384380Y336814D01*
X383761Y337886D01*
X382886Y338761D01*
X381814Y339380D01*
X380619Y339700D01*
D02*
G37*
G36*
X515448Y332250D02*
X514552D01*
X513726Y331908D01*
X513093Y331275D01*
X512750Y330448D01*
Y329552D01*
X513093Y328726D01*
X513726Y328093D01*
X514552Y327750D01*
X515448D01*
X516274Y328093D01*
X516908Y328726D01*
X517250Y329552D01*
Y330448D01*
X516908Y331275D01*
X516274Y331908D01*
X515448Y332250D01*
D02*
G37*
G36*
X500592Y329500D02*
X499408D01*
X498263Y329193D01*
X497378Y328682D01*
X500000Y326061D01*
X502622Y328682D01*
X501737Y329193D01*
X500592Y329500D01*
D02*
G37*
G36*
X622692Y328753D02*
X617308D01*
X620000Y326061D01*
X622692Y328753D01*
D02*
G37*
G36*
X496317Y327622D02*
X495807Y326737D01*
X495500Y325592D01*
Y324408D01*
X495807Y323263D01*
X496317Y322378D01*
X498939Y325000D01*
X496317Y327622D01*
D02*
G37*
G36*
X503682D02*
X501061Y325000D01*
X503683Y322378D01*
X504193Y323263D01*
X504500Y324408D01*
Y325592D01*
X504193Y326737D01*
X503682Y327622D01*
D02*
G37*
G36*
X616247Y327692D02*
Y322308D01*
X618939Y325000D01*
X616247Y327692D01*
D02*
G37*
G36*
X623753Y327692D02*
X621061Y325000D01*
X623753Y322308D01*
Y327692D01*
D02*
G37*
G36*
X620000Y323939D02*
X617308Y321247D01*
X622692D01*
X620000Y323939D01*
D02*
G37*
G36*
X610520Y328953D02*
X609480D01*
X608474Y328683D01*
X607573Y328163D01*
X606837Y327427D01*
X606317Y326526D01*
X606047Y325520D01*
Y324480D01*
X606317Y323474D01*
X606837Y322573D01*
X607573Y321837D01*
X608474Y321317D01*
X609480Y321047D01*
X610520D01*
X611526Y321317D01*
X612427Y321837D01*
X613163Y322573D01*
X613683Y323474D01*
X613953Y324480D01*
Y325520D01*
X613683Y326526D01*
X613163Y327427D01*
X612427Y328163D01*
X611526Y328683D01*
X610520Y328953D01*
D02*
G37*
G36*
X550520D02*
X549480D01*
X548474Y328683D01*
X547573Y328163D01*
X546837Y327427D01*
X546317Y326526D01*
X546047Y325520D01*
Y324480D01*
X546317Y323474D01*
X546837Y322573D01*
X547573Y321837D01*
X548474Y321317D01*
X549480Y321047D01*
X550520D01*
X551526Y321317D01*
X552427Y321837D01*
X553163Y322573D01*
X553683Y323474D01*
X553953Y324480D01*
Y325520D01*
X553683Y326526D01*
X553163Y327427D01*
X552427Y328163D01*
X551526Y328683D01*
X550520Y328953D01*
D02*
G37*
G36*
X540520D02*
X539480D01*
X538474Y328683D01*
X537573Y328163D01*
X536837Y327427D01*
X536317Y326526D01*
X536047Y325520D01*
Y324480D01*
X536317Y323474D01*
X536837Y322573D01*
X537573Y321837D01*
X538474Y321317D01*
X539480Y321047D01*
X540520D01*
X541526Y321317D01*
X542427Y321837D01*
X543163Y322573D01*
X543683Y323474D01*
X543953Y324480D01*
Y325520D01*
X543683Y326526D01*
X543163Y327427D01*
X542427Y328163D01*
X541526Y328683D01*
X540520Y328953D01*
D02*
G37*
G36*
X500000Y323939D02*
X497378Y321318D01*
X498263Y320807D01*
X499408Y320500D01*
X500592D01*
X501737Y320807D01*
X502622Y321318D01*
X500000Y323939D01*
D02*
G37*
G36*
X380619Y329700D02*
X379381D01*
X378186Y329380D01*
X377114Y328761D01*
X376239Y327886D01*
X375620Y326814D01*
X375300Y325619D01*
Y324381D01*
X375620Y323186D01*
X376239Y322114D01*
X377114Y321239D01*
X378186Y320620D01*
X379381Y320300D01*
X380619D01*
X381814Y320620D01*
X382886Y321239D01*
X383761Y322114D01*
X384380Y323186D01*
X384700Y324381D01*
Y325619D01*
X384380Y326814D01*
X383761Y327886D01*
X382886Y328761D01*
X381814Y329380D01*
X380619Y329700D01*
D02*
G37*
G36*
X553953Y318953D02*
X546047D01*
Y311047D01*
X553953D01*
Y318953D01*
D02*
G37*
G36*
X540520D02*
X539480D01*
X538474Y318683D01*
X537573Y318163D01*
X536837Y317427D01*
X536317Y316526D01*
X536047Y315520D01*
Y314480D01*
X536317Y313474D01*
X536837Y312573D01*
X537573Y311837D01*
X538474Y311317D01*
X539480Y311047D01*
X540520D01*
X541526Y311317D01*
X542427Y311837D01*
X543163Y312573D01*
X543683Y313474D01*
X543953Y314480D01*
Y315520D01*
X543683Y316526D01*
X543163Y317427D01*
X542427Y318163D01*
X541526Y318683D01*
X540520Y318953D01*
D02*
G37*
G36*
X408930Y322457D02*
X407763D01*
X406619Y322229D01*
X405542Y321783D01*
X404572Y321135D01*
X403747Y320310D01*
X403099Y319340D01*
X402653Y318263D01*
X402425Y317119D01*
Y315952D01*
X402653Y314808D01*
X403099Y313731D01*
X403747Y312761D01*
X404572Y311936D01*
X405542Y311288D01*
X406619Y310842D01*
X407763Y310614D01*
X408930D01*
X410074Y310842D01*
X411151Y311288D01*
X412121Y311936D01*
X412946Y312761D01*
X413594Y313731D01*
X414040Y314808D01*
X414268Y315952D01*
Y317119D01*
X414040Y318263D01*
X413594Y319340D01*
X412946Y320310D01*
X412121Y321135D01*
X411151Y321783D01*
X410074Y322229D01*
X408930Y322457D01*
D02*
G37*
G36*
X334373Y316630D02*
X333540D01*
X332735Y316414D01*
X332013Y315998D01*
X331424Y315408D01*
X331007Y314686D01*
X330791Y313881D01*
Y313048D01*
X331007Y312243D01*
X331424Y311521D01*
X331764Y311181D01*
X331731Y310551D01*
X331727Y310546D01*
X331683Y310515D01*
X331666Y310515D01*
X331275Y310908D01*
X330448Y311250D01*
X329552D01*
X328726Y310908D01*
X328093Y310275D01*
X327750Y309448D01*
Y308552D01*
X328093Y307726D01*
X328491Y307327D01*
X328674Y307000D01*
X328491Y306673D01*
X328093Y306275D01*
X327750Y305448D01*
Y304552D01*
X328093Y303726D01*
X328726Y303093D01*
X329296Y302856D01*
X329460Y302292D01*
X329460Y302292D01*
X329406Y302189D01*
X328726Y301907D01*
X328093Y301274D01*
X327750Y300448D01*
Y299552D01*
X328093Y298726D01*
X328726Y298093D01*
X329552Y297750D01*
X330448D01*
X331275Y298093D01*
X331673Y298491D01*
X332000Y298674D01*
X332327Y298491D01*
X332726Y298093D01*
X333552Y297750D01*
X334448D01*
X335275Y298093D01*
X335908Y298726D01*
X336250Y299552D01*
Y300448D01*
X335908Y301274D01*
X335275Y301907D01*
X334594Y302189D01*
X334541Y302292D01*
X334540Y302292D01*
X334704Y302856D01*
X335275Y303093D01*
X335908Y303726D01*
X336250Y304552D01*
Y305448D01*
X335908Y306275D01*
X335509Y306673D01*
X335326Y307000D01*
X335509Y307327D01*
X335908Y307726D01*
X336250Y308552D01*
Y309448D01*
X335908Y310275D01*
X335779Y310403D01*
X335844Y310899D01*
X335900Y310932D01*
X336490Y311521D01*
X336906Y312243D01*
X337122Y313048D01*
Y313881D01*
X336906Y314686D01*
X336490Y315408D01*
X335900Y315998D01*
X335178Y316414D01*
X334373Y316630D01*
D02*
G37*
G36*
X380619Y319700D02*
X379381D01*
X378186Y319380D01*
X377114Y318761D01*
X376239Y317886D01*
X375620Y316814D01*
X375300Y315619D01*
Y314381D01*
X375620Y313186D01*
X376239Y312114D01*
X377114Y311239D01*
X378186Y310620D01*
X379381Y310300D01*
X380619D01*
X381814Y310620D01*
X382886Y311239D01*
X383761Y312114D01*
X384380Y313186D01*
X384700Y314381D01*
Y315619D01*
X384380Y316814D01*
X383761Y317886D01*
X382886Y318761D01*
X381814Y319380D01*
X380619Y319700D01*
D02*
G37*
G36*
X39398Y308377D02*
X38029Y307008D01*
X39398Y305639D01*
X39666Y306285D01*
X39761Y307008D01*
X39666Y307731D01*
X39398Y308377D01*
D02*
G37*
G36*
X30602D02*
X30334Y307731D01*
X30239Y307008D01*
X30334Y306285D01*
X30602Y305639D01*
X31971Y307008D01*
X30602Y308377D01*
D02*
G37*
G36*
X56028Y308452D02*
X54584Y307008D01*
X56028Y305564D01*
X56317Y306259D01*
X56415Y307008D01*
X56317Y307756D01*
X56028Y308452D01*
D02*
G37*
G36*
X46885Y308452D02*
X46597Y307756D01*
X46498Y307008D01*
X46597Y306259D01*
X46885Y305564D01*
X48329Y307008D01*
X46885Y308452D01*
D02*
G37*
G36*
X36968Y309800D02*
X33031D01*
X32309Y309705D01*
X31663Y309437D01*
X33562Y307538D01*
X33031Y307008D01*
X33562Y306477D01*
X31663Y304578D01*
X32309Y304311D01*
X33031Y304216D01*
X36968D01*
X37691Y304311D01*
X38337Y304578D01*
X36438Y306477D01*
X36968Y307008D01*
X36438Y307538D01*
X38337Y309437D01*
X37691Y309705D01*
X36968Y309800D01*
D02*
G37*
G36*
X380619Y309700D02*
X379381D01*
X378186Y309380D01*
X377114Y308761D01*
X376239Y307886D01*
X375620Y306814D01*
X375300Y305619D01*
Y304381D01*
X375620Y303186D01*
X376239Y302114D01*
X377114Y301239D01*
X378186Y300620D01*
X379381Y300300D01*
X380619D01*
X381814Y300620D01*
X382886Y301239D01*
X383761Y302114D01*
X384380Y303186D01*
X384700Y304381D01*
Y305619D01*
X384380Y306814D01*
X383761Y307886D01*
X382886Y308761D01*
X381814Y309380D01*
X380619Y309700D01*
D02*
G37*
G36*
X53524Y309899D02*
X49390D01*
X48641Y309801D01*
X47945Y309513D01*
X49920Y307538D01*
X49390Y307008D01*
X49920Y306477D01*
X47945Y304503D01*
X48641Y304215D01*
X49076Y304157D01*
X49043Y303658D01*
X49035D01*
X48197Y303310D01*
X47556Y302669D01*
X47209Y301831D01*
Y300924D01*
X47556Y300087D01*
X48197Y299446D01*
X49035Y299098D01*
X49942D01*
X50779Y299446D01*
X51421Y300087D01*
X51768Y300924D01*
Y301831D01*
X51421Y302669D01*
X50779Y303310D01*
X50041Y303616D01*
X50141Y304116D01*
X53524D01*
X54272Y304215D01*
X54968Y304503D01*
X52993Y306477D01*
X53524Y307008D01*
X52993Y307538D01*
X54968Y309513D01*
X54272Y309801D01*
X53524Y309899D01*
D02*
G37*
G36*
X430583Y305921D02*
X429417D01*
X428273Y305694D01*
X427195Y305247D01*
X426225Y304599D01*
X425401Y303775D01*
X424753Y302805D01*
X424306Y301727D01*
X424079Y300583D01*
Y299417D01*
X424306Y298273D01*
X424753Y297195D01*
X425401Y296225D01*
X426225Y295401D01*
X427195Y294753D01*
X428273Y294306D01*
X429417Y294079D01*
X430583D01*
X431727Y294306D01*
X432805Y294753D01*
X433775Y295401D01*
X434599Y296225D01*
X435247Y297195D01*
X435694Y298273D01*
X435921Y299417D01*
Y300583D01*
X435694Y301727D01*
X435247Y302805D01*
X434599Y303775D01*
X433775Y304599D01*
X432805Y305247D01*
X431727Y305694D01*
X430583Y305921D01*
D02*
G37*
G36*
X414268Y305921D02*
X402425D01*
Y294079D01*
X414268D01*
Y305921D01*
D02*
G37*
G36*
X60448Y297250D02*
X59552D01*
X58726Y296907D01*
X58092Y296274D01*
X57750Y295448D01*
Y294552D01*
X58092Y293725D01*
X58726Y293092D01*
X59552Y292750D01*
X60448D01*
X61274Y293092D01*
X61908Y293725D01*
X62250Y294552D01*
Y295448D01*
X61908Y296274D01*
X61274Y296907D01*
X60448Y297250D01*
D02*
G37*
G36*
X300448Y295250D02*
X299552D01*
X298726Y294907D01*
X298093Y294274D01*
X297750Y293448D01*
Y292552D01*
X298093Y291725D01*
X298726Y291092D01*
X299552Y290750D01*
X300448D01*
X301274Y291092D01*
X301907Y291725D01*
X302250Y292552D01*
Y293448D01*
X301907Y294274D01*
X301274Y294907D01*
X300448Y295250D01*
D02*
G37*
G36*
X542448Y297200D02*
X541552D01*
X540726Y296858D01*
X540093Y296224D01*
X539750Y295398D01*
Y294502D01*
X540093Y293675D01*
X540726Y293042D01*
X541552Y292700D01*
X542448D01*
X543160Y292995D01*
X543528Y292675D01*
X543542Y292653D01*
X543250Y291948D01*
Y291052D01*
X543593Y290226D01*
X544226Y289593D01*
X545052Y289250D01*
X545948D01*
X546774Y289593D01*
X547407Y290226D01*
X547750Y291052D01*
Y291948D01*
X547407Y292775D01*
X546774Y293408D01*
X545948Y293750D01*
X545052D01*
X544340Y293455D01*
X543972Y293775D01*
X543958Y293796D01*
X544250Y294502D01*
Y295398D01*
X543907Y296224D01*
X543274Y296858D01*
X542448Y297200D01*
D02*
G37*
G36*
X306182Y293170D02*
X305287D01*
X304460Y292828D01*
X303827Y292195D01*
X303485Y291368D01*
Y290473D01*
X303827Y289646D01*
X304460Y289013D01*
X305287Y288670D01*
X306182D01*
X307009Y289013D01*
X307642Y289646D01*
X307984Y290473D01*
Y291368D01*
X307642Y292195D01*
X307009Y292828D01*
X306182Y293170D01*
D02*
G37*
G36*
X477948Y288750D02*
X477052D01*
X476226Y288407D01*
X475827Y288009D01*
X475500Y287826D01*
X475173Y288009D01*
X474775Y288407D01*
X473947Y288750D01*
X473053D01*
X472226Y288407D01*
X471593Y287774D01*
X471250Y286948D01*
Y286052D01*
X471593Y285226D01*
X471991Y284827D01*
X472174Y284500D01*
X471991Y284173D01*
X471593Y283774D01*
X471250Y282948D01*
Y282052D01*
X471593Y281225D01*
X472226Y280592D01*
X473053Y280250D01*
X473947D01*
X474775Y280592D01*
X475173Y280991D01*
X475500Y281174D01*
X475827Y280991D01*
X476226Y280592D01*
X477052Y280250D01*
X477948D01*
X478774Y280592D01*
X479408Y281225D01*
X479750Y282052D01*
Y282948D01*
X479408Y283774D01*
X479009Y284173D01*
X478826Y284500D01*
X479009Y284827D01*
X479408Y285226D01*
X479750Y286052D01*
Y286948D01*
X479408Y287774D01*
X478774Y288407D01*
X477948Y288750D01*
D02*
G37*
G36*
X417947Y289750D02*
X417053D01*
X416225Y289407D01*
X415592Y288774D01*
X415250Y287948D01*
Y287052D01*
X415592Y286226D01*
X416225Y285593D01*
X417053Y285250D01*
X417947D01*
X418775Y285593D01*
X419408Y286226D01*
X419750Y287052D01*
Y287948D01*
X419408Y288774D01*
X418775Y289407D01*
X417947Y289750D01*
D02*
G37*
G36*
X572948Y287250D02*
X572052D01*
X571226Y286908D01*
X570592Y286275D01*
X570250Y285448D01*
Y284552D01*
X570592Y283726D01*
X571226Y283092D01*
X572052Y282750D01*
X572948D01*
X573774Y283092D01*
X574407Y283726D01*
X574750Y284552D01*
Y285448D01*
X574407Y286275D01*
X573774Y286908D01*
X572948Y287250D01*
D02*
G37*
G36*
X567947D02*
X567053D01*
X566225Y286908D01*
X565592Y286275D01*
X565250Y285448D01*
Y284552D01*
X565592Y283726D01*
X566225Y283092D01*
X567053Y282750D01*
X567947D01*
X568775Y283092D01*
X569408Y283726D01*
X569750Y284552D01*
Y285448D01*
X569408Y286275D01*
X568775Y286908D01*
X567947Y287250D01*
D02*
G37*
G36*
X562948D02*
X562052D01*
X561226Y286908D01*
X560593Y286275D01*
X560250Y285448D01*
Y284552D01*
X560593Y283726D01*
X561226Y283092D01*
X562052Y282750D01*
X562948D01*
X563774Y283092D01*
X564407Y283726D01*
X564750Y284552D01*
Y285448D01*
X564407Y286275D01*
X563774Y286908D01*
X562948Y287250D01*
D02*
G37*
G36*
X232948D02*
X232052D01*
X231225Y286908D01*
X230592Y286275D01*
X230250Y285448D01*
Y284552D01*
X230592Y283726D01*
X231225Y283092D01*
X232052Y282750D01*
X232948D01*
X233774Y283092D01*
X234407Y283726D01*
X234750Y284552D01*
Y285448D01*
X234407Y286275D01*
X233774Y286908D01*
X232948Y287250D01*
D02*
G37*
G36*
X335355Y289300D02*
X334460D01*
X333633Y288958D01*
X333000Y288324D01*
X332658Y287498D01*
Y286602D01*
X333000Y285775D01*
X333452Y285324D01*
X333578Y285000D01*
X333452Y284676D01*
X333000Y284225D01*
X332658Y283398D01*
Y282502D01*
X332745Y282291D01*
X332321Y282008D01*
X331890Y282439D01*
X331063Y282782D01*
X330168D01*
X329341Y282439D01*
X328708Y281806D01*
X328366Y280979D01*
Y280084D01*
X328708Y279257D01*
X329341Y278624D01*
X330168Y278281D01*
X330235Y278182D01*
X330146Y277965D01*
Y277070D01*
X330488Y276243D01*
X331121Y275610D01*
X331948Y275268D01*
X332843D01*
X333670Y275610D01*
X334303Y276243D01*
X334646Y277070D01*
Y277965D01*
X334303Y278792D01*
X333670Y279425D01*
X332843Y279768D01*
X332776Y279868D01*
X332866Y280084D01*
Y280979D01*
X332778Y281190D01*
X333202Y281473D01*
X333633Y281043D01*
X334460Y280700D01*
X335355D01*
X336182Y281043D01*
X336815Y281676D01*
X337158Y282502D01*
Y283398D01*
X336815Y284225D01*
X336363Y284676D01*
X336238Y285000D01*
X336363Y285324D01*
X336815Y285775D01*
X337158Y286602D01*
Y287498D01*
X336815Y288324D01*
X336182Y288958D01*
X335355Y289300D01*
D02*
G37*
G36*
X60448Y285250D02*
X59552D01*
X58726Y284908D01*
X58092Y284275D01*
X57750Y283448D01*
Y282552D01*
X58092Y281726D01*
X58726Y281093D01*
X59552Y280750D01*
X60448D01*
X61274Y281093D01*
X61908Y281726D01*
X62250Y282552D01*
Y283448D01*
X61908Y284275D01*
X61274Y284908D01*
X60448Y285250D01*
D02*
G37*
G36*
X192948Y284750D02*
X192052D01*
X191226Y284407D01*
X190593Y283774D01*
X190250Y282948D01*
Y282052D01*
X190593Y281225D01*
X191226Y280592D01*
X192052Y280250D01*
X192948D01*
X193774Y280592D01*
X194407Y281225D01*
X194750Y282052D01*
Y282948D01*
X194407Y283774D01*
X193774Y284407D01*
X192948Y284750D01*
D02*
G37*
G36*
X567947Y282250D02*
X567053D01*
X566225Y281908D01*
X565592Y281275D01*
X565250Y280448D01*
Y279552D01*
X565592Y278726D01*
X566225Y278093D01*
X567053Y277750D01*
X567947D01*
X568775Y278093D01*
X569408Y278726D01*
X569750Y279552D01*
Y280448D01*
X569408Y281275D01*
X568775Y281908D01*
X567947Y282250D01*
D02*
G37*
G36*
X372948Y281250D02*
X372052D01*
X371226Y280908D01*
X370592Y280275D01*
X370250Y279448D01*
Y278552D01*
X370592Y277726D01*
X371226Y277093D01*
X372052Y276750D01*
X372948D01*
X373775Y277093D01*
X374408Y277726D01*
X374750Y278552D01*
Y279448D01*
X374408Y280275D01*
X373775Y280908D01*
X372948Y281250D01*
D02*
G37*
G36*
X212948Y280250D02*
X212052D01*
X211226Y279907D01*
X210593Y279275D01*
X210250Y278448D01*
Y277552D01*
X210593Y276726D01*
X211226Y276093D01*
X212052Y275750D01*
X212948D01*
X213774Y276093D01*
X214407Y276726D01*
X214750Y277552D01*
Y278448D01*
X214407Y279275D01*
X213774Y279907D01*
X212948Y280250D01*
D02*
G37*
G36*
X428869Y288402D02*
X427509D01*
X426175Y288136D01*
X424918Y287616D01*
X423787Y286860D01*
X422825Y285898D01*
X422069Y284767D01*
X421549Y283510D01*
X421283Y282176D01*
Y280816D01*
X421549Y279482D01*
X422069Y278225D01*
X422825Y277094D01*
X423787Y276132D01*
X424918Y275377D01*
X426175Y274856D01*
X427509Y274590D01*
X428869D01*
X430203Y274856D01*
X431460Y275377D01*
X432591Y276132D01*
X433553Y277094D01*
X434309Y278225D01*
X434829Y279482D01*
X435094Y280816D01*
Y282176D01*
X434829Y283510D01*
X434309Y284767D01*
X433553Y285898D01*
X432591Y286860D01*
X431460Y287616D01*
X430203Y288136D01*
X428869Y288402D01*
D02*
G37*
G36*
X315448Y277300D02*
X314552D01*
X313725Y276958D01*
X313092Y276325D01*
X312750Y275498D01*
Y274602D01*
X313092Y273776D01*
X313725Y273143D01*
X314552Y272800D01*
X315448D01*
X316274Y273143D01*
X316908Y273776D01*
X317250Y274602D01*
Y275498D01*
X316908Y276325D01*
X316274Y276958D01*
X315448Y277300D01*
D02*
G37*
G36*
X205448D02*
X204552D01*
X203726Y276958D01*
X203093Y276325D01*
X202750Y275498D01*
Y274602D01*
X203093Y273776D01*
X203726Y273143D01*
X204552Y272800D01*
X205448D01*
X206275Y273143D01*
X206908Y273776D01*
X207250Y274602D01*
Y275498D01*
X206908Y276325D01*
X206275Y276958D01*
X205448Y277300D01*
D02*
G37*
G36*
X39398Y274361D02*
X38029Y272992D01*
X39398Y271623D01*
X39666Y272269D01*
X39761Y272992D01*
X39666Y273715D01*
X39398Y274361D01*
D02*
G37*
G36*
X30602D02*
X30334Y273715D01*
X30239Y272992D01*
X30334Y272269D01*
X30602Y271623D01*
X31971Y272992D01*
X30602Y274361D01*
D02*
G37*
G36*
X56028Y274436D02*
X54584Y272992D01*
X56028Y271548D01*
X56317Y272244D01*
X56415Y272992D01*
X56317Y273741D01*
X56028Y274436D01*
D02*
G37*
G36*
X46885Y274436D02*
X46597Y273741D01*
X46498Y272992D01*
X46597Y272244D01*
X46885Y271548D01*
X48329Y272992D01*
X46885Y274436D01*
D02*
G37*
G36*
X641892Y311670D02*
X639211D01*
X636553Y311320D01*
X633964Y310626D01*
X631487Y309600D01*
X629165Y308260D01*
X627039Y306628D01*
X625143Y304732D01*
X623511Y302606D01*
X622171Y300284D01*
X621145Y297808D01*
X620451Y295218D01*
X620101Y292560D01*
Y289880D01*
X620451Y287222D01*
X621145Y284632D01*
X622171Y282156D01*
X623511Y279834D01*
X625143Y277708D01*
X627039Y275812D01*
X629165Y274180D01*
X631487Y272840D01*
X633964Y271814D01*
X636553Y271120D01*
X639211Y270770D01*
X641892D01*
X644549Y271120D01*
X647139Y271814D01*
X649615Y272840D01*
X651937Y274180D01*
X654064Y275812D01*
X655959Y277708D01*
X657591Y279834D01*
X658932Y282156D01*
X659958Y284632D01*
X660651Y287222D01*
X661001Y289880D01*
Y292560D01*
X660651Y295218D01*
X659958Y297808D01*
X658932Y300284D01*
X657591Y302606D01*
X655959Y304732D01*
X654064Y306628D01*
X651937Y308260D01*
X649615Y309600D01*
X647139Y310626D01*
X644549Y311320D01*
X641892Y311670D01*
D02*
G37*
G36*
X363948Y278250D02*
X363052D01*
X362226Y277907D01*
X361593Y277274D01*
X361250Y276448D01*
Y275552D01*
X361593Y274726D01*
X362226Y274093D01*
X363052Y273750D01*
X363548D01*
X363750Y273447D01*
Y272552D01*
X364092Y271726D01*
X364725Y271093D01*
X365552Y270750D01*
X366448D01*
X367274Y271093D01*
X367908Y271726D01*
X368250Y272552D01*
Y273448D01*
X367908Y274274D01*
X367274Y274907D01*
X366448Y275250D01*
X365952D01*
X365750Y275553D01*
Y276448D01*
X365407Y277274D01*
X364774Y277907D01*
X363948Y278250D01*
D02*
G37*
G36*
X197948Y274750D02*
X197052D01*
X196226Y274408D01*
X195592Y273775D01*
X195250Y272948D01*
Y272052D01*
X195592Y271226D01*
X196226Y270592D01*
X197052Y270250D01*
X197948D01*
X198775Y270592D01*
X199407Y271226D01*
X199750Y272052D01*
Y272948D01*
X199407Y273775D01*
X198775Y274408D01*
X197948Y274750D01*
D02*
G37*
G36*
X36968Y275784D02*
X33031D01*
X32309Y275689D01*
X31663Y275422D01*
X33562Y273522D01*
X33031Y272992D01*
X33562Y272462D01*
X31663Y270563D01*
X32309Y270295D01*
X33031Y270200D01*
X36968D01*
X37691Y270295D01*
X38337Y270563D01*
X36438Y272462D01*
X36968Y272992D01*
X36438Y273522D01*
X38337Y275422D01*
X37691Y275689D01*
X36968Y275784D01*
D02*
G37*
G36*
X49942Y280902D02*
X49035D01*
X48197Y280555D01*
X47556Y279913D01*
X47209Y279076D01*
Y278169D01*
X47556Y277331D01*
X48197Y276690D01*
X49035Y276343D01*
X49043D01*
X49076Y275842D01*
X48641Y275785D01*
X47945Y275497D01*
X49920Y273522D01*
X49390Y272992D01*
X49920Y272462D01*
X47945Y270487D01*
X48641Y270199D01*
X49390Y270100D01*
X53524D01*
X54272Y270199D01*
X54968Y270487D01*
X52993Y272462D01*
X53524Y272992D01*
X52993Y273522D01*
X54968Y275497D01*
X54272Y275785D01*
X53524Y275884D01*
X50141D01*
X50041Y276384D01*
X50779Y276690D01*
X51421Y277331D01*
X51768Y278169D01*
Y279076D01*
X51421Y279913D01*
X50779Y280555D01*
X49942Y280902D01*
D02*
G37*
G36*
X317998Y272250D02*
X317102D01*
X316276Y271907D01*
X315642Y271274D01*
X315300Y270448D01*
Y269552D01*
X315642Y268725D01*
X316276Y268092D01*
X317102Y267750D01*
X317998D01*
X318825Y268092D01*
X319458Y268725D01*
X319800Y269552D01*
Y270448D01*
X319458Y271274D01*
X318825Y271907D01*
X317998Y272250D01*
D02*
G37*
G36*
X580598Y274543D02*
X579402D01*
X578246Y274234D01*
X577210Y273636D01*
X576365Y272790D01*
X575766Y271754D01*
X575457Y270598D01*
Y269402D01*
X575766Y268246D01*
X576365Y267210D01*
X577210Y266365D01*
X578246Y265766D01*
X579402Y265457D01*
X580598D01*
X581754Y265766D01*
X582790Y266365D01*
X583636Y267210D01*
X584234Y268246D01*
X584543Y269402D01*
Y270598D01*
X584234Y271754D01*
X583636Y272790D01*
X582790Y273636D01*
X581754Y274234D01*
X580598Y274543D01*
D02*
G37*
G36*
X485598D02*
X484402D01*
X483246Y274234D01*
X482210Y273636D01*
X481364Y272790D01*
X480766Y271754D01*
X480457Y270598D01*
Y269402D01*
X480766Y268246D01*
X481364Y267210D01*
X482210Y266365D01*
X483246Y265766D01*
X484402Y265457D01*
X485598D01*
X486754Y265766D01*
X487790Y266365D01*
X488635Y267210D01*
X489234Y268246D01*
X489543Y269402D01*
Y270598D01*
X489234Y271754D01*
X488635Y272790D01*
X487790Y273636D01*
X486754Y274234D01*
X485598Y274543D01*
D02*
G37*
G36*
X346538Y273346D02*
X345643D01*
X344816Y273004D01*
X344183Y272371D01*
X343840Y271544D01*
Y270649D01*
X344183Y269822D01*
X344293Y269712D01*
X344102Y269250D01*
X344052D01*
X343226Y268907D01*
X342593Y268274D01*
X342250Y267448D01*
Y266552D01*
X342593Y265725D01*
X343226Y265092D01*
X344052Y264750D01*
X344948D01*
X345775Y265092D01*
X346408Y265725D01*
X346750Y266552D01*
Y267448D01*
X346408Y268274D01*
X346297Y268385D01*
X346489Y268847D01*
X346538D01*
X347365Y269189D01*
X347998Y269822D01*
X348340Y270649D01*
Y271544D01*
X347998Y272371D01*
X347365Y273004D01*
X346538Y273346D01*
D02*
G37*
G36*
X371448Y267200D02*
X370552D01*
X369725Y266858D01*
X369092Y266225D01*
X368750Y265398D01*
Y264502D01*
X369092Y263675D01*
X369725Y263042D01*
X370552Y262700D01*
X371448D01*
X372274Y263042D01*
X372907Y263675D01*
X373250Y264502D01*
Y265398D01*
X372907Y266225D01*
X372274Y266858D01*
X371448Y267200D01*
D02*
G37*
G36*
X140855Y266800D02*
X139960D01*
X139133Y266458D01*
X138500Y265825D01*
X138158Y264998D01*
Y264102D01*
X138500Y263276D01*
X139133Y262643D01*
X139960Y262300D01*
X140855D01*
X141682Y262643D01*
X142315Y263276D01*
X142658Y264102D01*
Y264998D01*
X142315Y265825D01*
X141682Y266458D01*
X140855Y266800D01*
D02*
G37*
G36*
X177516Y287299D02*
X175437D01*
X173384Y286974D01*
X171407Y286332D01*
X169556Y285388D01*
X167874Y284167D01*
X166404Y282697D01*
X165183Y281015D01*
X164239Y279163D01*
X163597Y277187D01*
X163272Y275134D01*
Y273055D01*
X163597Y271002D01*
X164239Y269026D01*
X165183Y267174D01*
X166404Y265492D01*
X167874Y264022D01*
X169556Y262801D01*
X171407Y261857D01*
X173384Y261215D01*
X175437Y260890D01*
X177516D01*
X179569Y261215D01*
X181545Y261857D01*
X183397Y262801D01*
X185079Y264022D01*
X186548Y265492D01*
X187770Y267174D01*
X188714Y269026D01*
X189356Y271002D01*
X189681Y273055D01*
Y275134D01*
X189356Y277187D01*
X188714Y279163D01*
X187770Y281015D01*
X186548Y282697D01*
X185079Y284167D01*
X183397Y285388D01*
X181545Y286332D01*
X179569Y286974D01*
X177516Y287299D01*
D02*
G37*
G36*
X120448Y263250D02*
X119552D01*
X118726Y262908D01*
X118093Y262275D01*
X117750Y261448D01*
Y260552D01*
X118093Y259725D01*
X118726Y259092D01*
X119552Y258750D01*
X120448D01*
X121274Y259092D01*
X121907Y259725D01*
X122250Y260552D01*
Y261448D01*
X121907Y262275D01*
X121274Y262908D01*
X120448Y263250D01*
D02*
G37*
G36*
X580598Y264543D02*
X579402D01*
X578246Y264234D01*
X577210Y263635D01*
X576365Y262790D01*
X575766Y261754D01*
X575457Y260598D01*
Y259402D01*
X575766Y258246D01*
X576365Y257210D01*
X577210Y256364D01*
X578246Y255766D01*
X579402Y255457D01*
X580598D01*
X581754Y255766D01*
X582790Y256364D01*
X583636Y257210D01*
X584234Y258246D01*
X584543Y259402D01*
Y260598D01*
X584234Y261754D01*
X583636Y262790D01*
X582790Y263635D01*
X581754Y264234D01*
X580598Y264543D01*
D02*
G37*
G36*
X485598D02*
X484402D01*
X483246Y264234D01*
X482210Y263635D01*
X481364Y262790D01*
X480766Y261754D01*
X480457Y260598D01*
Y259402D01*
X480766Y258246D01*
X481364Y257210D01*
X482210Y256364D01*
X483246Y255766D01*
X484402Y255457D01*
X485598D01*
X486754Y255766D01*
X487790Y256364D01*
X488635Y257210D01*
X489234Y258246D01*
X489543Y259402D01*
Y260598D01*
X489234Y261754D01*
X488635Y262790D01*
X487790Y263635D01*
X486754Y264234D01*
X485598Y264543D01*
D02*
G37*
G36*
X135448Y259750D02*
X134552D01*
X133726Y259407D01*
X133092Y258774D01*
X132750Y257948D01*
Y257052D01*
X133092Y256225D01*
X133726Y255592D01*
X134552Y255250D01*
X135448D01*
X136275Y255592D01*
X136907Y256225D01*
X137250Y257052D01*
Y257948D01*
X136907Y258774D01*
X136275Y259407D01*
X135448Y259750D01*
D02*
G37*
G36*
X127948Y256250D02*
X127052D01*
X126225Y255908D01*
X125593Y255275D01*
X125250Y254448D01*
Y253552D01*
X125593Y252726D01*
X126225Y252093D01*
X127052Y251750D01*
X127948D01*
X128774Y252093D01*
X129408Y252726D01*
X129750Y253552D01*
Y254448D01*
X129408Y255275D01*
X128774Y255908D01*
X127948Y256250D01*
D02*
G37*
G36*
X317853Y254250D02*
X316958D01*
X316131Y253907D01*
X315498Y253274D01*
X315156Y252448D01*
Y251552D01*
X315498Y250726D01*
X316131Y250093D01*
X316958Y249750D01*
X317853D01*
X318680Y250093D01*
X319313Y250726D01*
X319656Y251552D01*
Y252448D01*
X319313Y253274D01*
X318680Y253907D01*
X317853Y254250D01*
D02*
G37*
G36*
X360272Y253629D02*
X359377D01*
X358549Y253286D01*
X357917Y252653D01*
X357574Y251826D01*
Y250931D01*
X357917Y250104D01*
X358549Y249471D01*
X359377Y249129D01*
X360272D01*
X361099Y249471D01*
X361732Y250104D01*
X362074Y250931D01*
Y251826D01*
X361732Y252653D01*
X361099Y253286D01*
X360272Y253629D01*
D02*
G37*
G36*
X345448Y252250D02*
X344552D01*
X343725Y251907D01*
X343092Y251274D01*
X342750Y250448D01*
Y249552D01*
X343092Y248726D01*
X343725Y248093D01*
X344552Y247750D01*
X345448D01*
X346274Y248093D01*
X346907Y248726D01*
X347250Y249552D01*
Y250448D01*
X346907Y251274D01*
X346274Y251907D01*
X345448Y252250D01*
D02*
G37*
G36*
X580598Y254543D02*
X579402D01*
X578246Y254234D01*
X577210Y253636D01*
X576365Y252790D01*
X575766Y251754D01*
X575457Y250598D01*
Y249402D01*
X575766Y248246D01*
X576365Y247210D01*
X577210Y246364D01*
X578246Y245766D01*
X579402Y245457D01*
X580598D01*
X581754Y245766D01*
X582790Y246364D01*
X583636Y247210D01*
X584234Y248246D01*
X584543Y249402D01*
Y250598D01*
X584234Y251754D01*
X583636Y252790D01*
X582790Y253636D01*
X581754Y254234D01*
X580598Y254543D01*
D02*
G37*
G36*
X485598D02*
X484402D01*
X483246Y254234D01*
X482210Y253636D01*
X481364Y252790D01*
X480766Y251754D01*
X480457Y250598D01*
Y249402D01*
X480766Y248246D01*
X481364Y247210D01*
X482210Y246364D01*
X483246Y245766D01*
X484402Y245457D01*
X485598D01*
X486754Y245766D01*
X487790Y246364D01*
X488635Y247210D01*
X489234Y248246D01*
X489543Y249402D01*
Y250598D01*
X489234Y251754D01*
X488635Y252790D01*
X487790Y253636D01*
X486754Y254234D01*
X485598Y254543D01*
D02*
G37*
G36*
X232948Y249750D02*
X232052D01*
X231225Y249408D01*
X230592Y248775D01*
X230250Y247948D01*
Y247052D01*
X230592Y246226D01*
X231225Y245592D01*
X232052Y245250D01*
X232948D01*
X233774Y245592D01*
X234407Y246226D01*
X234750Y247052D01*
Y247948D01*
X234407Y248775D01*
X233774Y249408D01*
X232948Y249750D01*
D02*
G37*
G36*
X349948Y249700D02*
X349052D01*
X348225Y249358D01*
X347592Y248725D01*
X347250Y247898D01*
Y247002D01*
X347592Y246176D01*
X348225Y245543D01*
X349052Y245200D01*
X349948D01*
X350775Y245543D01*
X351408Y246176D01*
X351750Y247002D01*
Y247898D01*
X351408Y248725D01*
X350775Y249358D01*
X349948Y249700D01*
D02*
G37*
G36*
X428869Y250409D02*
X427509D01*
X426175Y250144D01*
X424918Y249623D01*
X423787Y248868D01*
X422825Y247906D01*
X422069Y246775D01*
X421549Y245518D01*
X421283Y244184D01*
Y242824D01*
X421549Y241490D01*
X422069Y240233D01*
X422825Y239102D01*
X423787Y238140D01*
X424918Y237384D01*
X426175Y236864D01*
X427509Y236598D01*
X428869D01*
X430203Y236864D01*
X431460Y237384D01*
X432591Y238140D01*
X433553Y239102D01*
X434309Y240233D01*
X434829Y241490D01*
X435094Y242824D01*
Y244184D01*
X434829Y245518D01*
X434309Y246775D01*
X433553Y247906D01*
X432591Y248868D01*
X431460Y249623D01*
X430203Y250144D01*
X428869Y250409D01*
D02*
G37*
G36*
X580598Y244543D02*
X579402D01*
X578246Y244234D01*
X577210Y243636D01*
X576365Y242790D01*
X575766Y241754D01*
X575457Y240598D01*
Y239402D01*
X575766Y238246D01*
X576365Y237210D01*
X577210Y236365D01*
X578246Y235766D01*
X579402Y235457D01*
X580598D01*
X581754Y235766D01*
X582790Y236365D01*
X583636Y237210D01*
X584234Y238246D01*
X584543Y239402D01*
Y240598D01*
X584234Y241754D01*
X583636Y242790D01*
X582790Y243636D01*
X581754Y244234D01*
X580598Y244543D01*
D02*
G37*
G36*
X485598D02*
X484402D01*
X483246Y244234D01*
X482210Y243636D01*
X481364Y242790D01*
X480766Y241754D01*
X480457Y240598D01*
Y239402D01*
X480766Y238246D01*
X481364Y237210D01*
X482210Y236365D01*
X483246Y235766D01*
X484402Y235457D01*
X485598D01*
X486754Y235766D01*
X487790Y236365D01*
X488635Y237210D01*
X489234Y238246D01*
X489543Y239402D01*
Y240598D01*
X489234Y241754D01*
X488635Y242790D01*
X487790Y243636D01*
X486754Y244234D01*
X485598Y244543D01*
D02*
G37*
G36*
X580572Y234343D02*
X579428D01*
X578324Y234047D01*
X577493Y233568D01*
X580000Y231061D01*
X582507Y233568D01*
X581676Y234047D01*
X580572Y234343D01*
D02*
G37*
G36*
X485572D02*
X484428D01*
X483323Y234047D01*
X482493Y233568D01*
X485000Y231061D01*
X487507Y233568D01*
X486677Y234047D01*
X485572Y234343D01*
D02*
G37*
G36*
X334503Y238874D02*
X333410D01*
X332355Y238591D01*
X331409Y238045D01*
X330636Y237272D01*
X330090Y236326D01*
X329807Y235271D01*
Y234178D01*
X330090Y233123D01*
X330636Y232176D01*
X331409Y231404D01*
X332355Y230858D01*
X333410Y230575D01*
X334503D01*
X335558Y230858D01*
X336505Y231404D01*
X337277Y232176D01*
X337824Y233123D01*
X338106Y234178D01*
Y235271D01*
X337824Y236326D01*
X337277Y237272D01*
X336505Y238045D01*
X335558Y238591D01*
X334503Y238874D01*
D02*
G37*
G36*
X481432Y232507D02*
X480953Y231677D01*
X480657Y230572D01*
Y229428D01*
X480953Y228324D01*
X481432Y227493D01*
X483939Y230000D01*
X481432Y232507D01*
D02*
G37*
G36*
X576432D02*
X575953Y231677D01*
X575657Y230572D01*
Y229428D01*
X575953Y228324D01*
X576432Y227493D01*
X578939Y230000D01*
X576432Y232507D01*
D02*
G37*
G36*
X583568D02*
X581061Y230000D01*
X583568Y227493D01*
X584047Y228324D01*
X584343Y229428D01*
Y230572D01*
X584047Y231677D01*
X583568Y232507D01*
D02*
G37*
G36*
X488568D02*
X486061Y230000D01*
X488568Y227493D01*
X489047Y228324D01*
X489343Y229428D01*
Y230572D01*
X489047Y231677D01*
X488568Y232507D01*
D02*
G37*
G36*
X580000Y228939D02*
X577493Y226432D01*
X578324Y225953D01*
X579428Y225657D01*
X580572D01*
X581676Y225953D01*
X582507Y226432D01*
X580000Y228939D01*
D02*
G37*
G36*
X485000D02*
X482493Y226432D01*
X483323Y225953D01*
X484428Y225657D01*
X485572D01*
X486677Y225953D01*
X487507Y226432D01*
X485000Y228939D01*
D02*
G37*
G36*
X389948Y227250D02*
X389052D01*
X388226Y226907D01*
X387593Y226274D01*
X387250Y225448D01*
Y224552D01*
X387593Y223726D01*
X388226Y223093D01*
X389052Y222750D01*
X389948D01*
X390774Y223093D01*
X391407Y223726D01*
X391750Y224552D01*
Y225448D01*
X391407Y226274D01*
X390774Y226907D01*
X389948Y227250D01*
D02*
G37*
G36*
X580572Y224343D02*
X579428D01*
X578324Y224047D01*
X577493Y223568D01*
X580000Y221061D01*
X582507Y223568D01*
X581676Y224047D01*
X580572Y224343D01*
D02*
G37*
G36*
X485572D02*
X484428D01*
X483323Y224047D01*
X482493Y223568D01*
X485000Y221061D01*
X487507Y223568D01*
X486677Y224047D01*
X485572Y224343D01*
D02*
G37*
G36*
X481432Y222507D02*
X480953Y221676D01*
X480657Y220572D01*
Y219428D01*
X480953Y218323D01*
X481432Y217493D01*
X483939Y220000D01*
X481432Y222507D01*
D02*
G37*
G36*
X576432D02*
X575953Y221676D01*
X575657Y220572D01*
Y219428D01*
X575953Y218323D01*
X576432Y217493D01*
X578939Y220000D01*
X576432Y222507D01*
D02*
G37*
G36*
X583568D02*
X581061Y220000D01*
X583568Y217493D01*
X584047Y218323D01*
X584343Y219428D01*
Y220572D01*
X584047Y221676D01*
X583568Y222507D01*
D02*
G37*
G36*
X488568D02*
X486061Y220000D01*
X488568Y217493D01*
X489047Y218323D01*
X489343Y219428D01*
Y220572D01*
X489047Y221676D01*
X488568Y222507D01*
D02*
G37*
G36*
X356448Y221250D02*
X355552D01*
X354726Y220907D01*
X354093Y220274D01*
X353750Y219448D01*
Y218552D01*
X354093Y217725D01*
X354726Y217092D01*
X355552Y216750D01*
X356448D01*
X357275Y217092D01*
X357908Y217725D01*
X358250Y218552D01*
Y219448D01*
X357908Y220274D01*
X357275Y220907D01*
X356448Y221250D01*
D02*
G37*
G36*
X580000Y218939D02*
X577493Y216432D01*
X578324Y215953D01*
X579428Y215657D01*
X580572D01*
X581676Y215953D01*
X582507Y216432D01*
X580000Y218939D01*
D02*
G37*
G36*
X485000D02*
X482493Y216432D01*
X483323Y215953D01*
X484428Y215657D01*
X485572D01*
X486677Y215953D01*
X487507Y216432D01*
X485000Y218939D01*
D02*
G37*
G36*
X103263Y216863D02*
X102327D01*
X101423Y216621D01*
X100865Y216298D01*
X102795Y214368D01*
X104726Y216298D01*
X104168Y216621D01*
X103263Y216863D01*
D02*
G37*
G36*
X126912Y217063D02*
X125923D01*
X124968Y216807D01*
X124111Y216313D01*
X123412Y215613D01*
X122917Y214757D01*
X122739Y214092D01*
X122222D01*
X122043Y214757D01*
X121549Y215613D01*
X120850Y216313D01*
X119993Y216807D01*
X119038Y217063D01*
X118049D01*
X117094Y216807D01*
X116237Y216313D01*
X115538Y215613D01*
X115043Y214757D01*
X114865Y214092D01*
X114348D01*
X114169Y214757D01*
X113675Y215613D01*
X112976Y216313D01*
X112119Y216807D01*
X111164Y217063D01*
X110175D01*
X109220Y216807D01*
X108363Y216313D01*
X107664Y215613D01*
X107169Y214757D01*
X106913Y213802D01*
Y212813D01*
X107169Y211857D01*
X107664Y211001D01*
X108363Y210302D01*
X109220Y209807D01*
X110175Y209551D01*
X111164D01*
X112119Y209807D01*
X112976Y210302D01*
X113675Y211001D01*
X114169Y211857D01*
X114348Y212523D01*
X114865D01*
X115043Y211857D01*
X115538Y211001D01*
X116237Y210302D01*
X117094Y209807D01*
X118049Y209551D01*
X119038D01*
X119993Y209807D01*
X120850Y210302D01*
X121549Y211001D01*
X122043Y211857D01*
X122222Y212523D01*
X122739D01*
X122917Y211857D01*
X123412Y211001D01*
X124111Y210302D01*
X124968Y209807D01*
X125923Y209551D01*
X126912D01*
X127867Y209807D01*
X128724Y210302D01*
X129423Y211001D01*
X129917Y211857D01*
X130173Y212813D01*
Y213802D01*
X129917Y214757D01*
X129423Y215613D01*
X128724Y216313D01*
X127867Y216807D01*
X126912Y217063D01*
D02*
G37*
G36*
X95416D02*
X94427D01*
X93471Y216807D01*
X92615Y216313D01*
X91916Y215613D01*
X91421Y214757D01*
X91243Y214092D01*
X90725D01*
X90547Y214757D01*
X90053Y215613D01*
X89353Y216313D01*
X88497Y216807D01*
X87542Y217063D01*
X86553D01*
X85597Y216807D01*
X84741Y216313D01*
X84042Y215613D01*
X83547Y214757D01*
X83369Y214092D01*
X82851D01*
X82673Y214757D01*
X82179Y215613D01*
X81479Y216313D01*
X80623Y216807D01*
X79668Y217063D01*
X78679D01*
X77723Y216807D01*
X76867Y216313D01*
X76168Y215613D01*
X75673Y214757D01*
X75495Y214092D01*
X74977D01*
X74799Y214757D01*
X74305Y215613D01*
X73605Y216313D01*
X72749Y216807D01*
X71794Y217063D01*
X70805D01*
X69849Y216807D01*
X68993Y216313D01*
X68294Y215613D01*
X67799Y214757D01*
X67621Y214092D01*
X67103D01*
X66925Y214757D01*
X66431Y215613D01*
X65731Y216313D01*
X64875Y216807D01*
X63920Y217063D01*
X62931D01*
X61976Y216807D01*
X61119Y216313D01*
X60420Y215613D01*
X59925Y214757D01*
X59747Y214092D01*
X59229D01*
X59051Y214757D01*
X58557Y215613D01*
X57857Y216313D01*
X57001Y216807D01*
X56046Y217063D01*
X55057D01*
X54102Y216807D01*
X53245Y216313D01*
X52546Y215613D01*
X52051Y214757D01*
X51795Y213802D01*
Y212813D01*
X52051Y211857D01*
X52546Y211001D01*
X53245Y210302D01*
X54102Y209807D01*
X55057Y209551D01*
X56046D01*
X57001Y209807D01*
X57857Y210302D01*
X58557Y211001D01*
X59051Y211857D01*
X59229Y212523D01*
X59747D01*
X59925Y211857D01*
X60420Y211001D01*
X61119Y210302D01*
X61976Y209807D01*
X62931Y209551D01*
X63920D01*
X64875Y209807D01*
X65731Y210302D01*
X66431Y211001D01*
X66925Y211857D01*
X67103Y212523D01*
X67621D01*
X67799Y211857D01*
X68294Y211001D01*
X68993Y210302D01*
X69849Y209807D01*
X70805Y209551D01*
X71794D01*
X72749Y209807D01*
X73605Y210302D01*
X74305Y211001D01*
X74799Y211857D01*
X74977Y212523D01*
X75495D01*
X75673Y211857D01*
X76168Y211001D01*
X76867Y210302D01*
X77723Y209807D01*
X78679Y209551D01*
X79668D01*
X80623Y209807D01*
X81479Y210302D01*
X82179Y211001D01*
X82673Y211857D01*
X82851Y212523D01*
X83369D01*
X83547Y211857D01*
X84042Y211001D01*
X84741Y210302D01*
X85597Y209807D01*
X86553Y209551D01*
X87542D01*
X88497Y209807D01*
X89353Y210302D01*
X90053Y211001D01*
X90547Y211857D01*
X90725Y212523D01*
X91243D01*
X91421Y211857D01*
X91916Y211001D01*
X92615Y210302D01*
X93471Y209807D01*
X94427Y209551D01*
X95416D01*
X96371Y209807D01*
X97227Y210302D01*
X97927Y211001D01*
X98421Y211857D01*
X98677Y212813D01*
Y213802D01*
X98421Y214757D01*
X97927Y215613D01*
X97227Y216313D01*
X96371Y216807D01*
X95416Y217063D01*
D02*
G37*
G36*
X99804Y215238D02*
X99482Y214680D01*
X99239Y213775D01*
Y212839D01*
X99482Y211935D01*
X99804Y211376D01*
X101735Y213307D01*
X99804Y215238D01*
D02*
G37*
G36*
X105787Y215238D02*
X103856Y213307D01*
X105787Y211376D01*
X106109Y211935D01*
X106351Y212839D01*
Y213775D01*
X106109Y214680D01*
X105787Y215238D01*
D02*
G37*
G36*
X580572Y214343D02*
X579428D01*
X578324Y214047D01*
X577493Y213568D01*
X580000Y211061D01*
X582507Y213568D01*
X581676Y214047D01*
X580572Y214343D01*
D02*
G37*
G36*
X485572D02*
X484428D01*
X483323Y214047D01*
X482493Y213568D01*
X485000Y211061D01*
X487507Y213568D01*
X486677Y214047D01*
X485572Y214343D01*
D02*
G37*
G36*
X102795Y212246D02*
X100865Y210316D01*
X101423Y209994D01*
X102327Y209751D01*
X103263D01*
X104168Y209994D01*
X104726Y210316D01*
X102795Y212246D01*
D02*
G37*
G36*
X210448Y212250D02*
X209552D01*
X208726Y211908D01*
X208092Y211275D01*
X207750Y210448D01*
Y209552D01*
X208092Y208726D01*
X208726Y208092D01*
X209552Y207750D01*
X210448D01*
X211275Y208092D01*
X211908Y208726D01*
X212250Y209552D01*
Y210448D01*
X211908Y211275D01*
X211275Y211908D01*
X210448Y212250D01*
D02*
G37*
G36*
X481432Y212507D02*
X480953Y211677D01*
X480657Y210572D01*
Y209428D01*
X480953Y208324D01*
X481432Y207493D01*
X483939Y210000D01*
X481432Y212507D01*
D02*
G37*
G36*
X576432D02*
X575953Y211677D01*
X575657Y210572D01*
Y209428D01*
X575953Y208324D01*
X576432Y207493D01*
X578939Y210000D01*
X576432Y212507D01*
D02*
G37*
G36*
X583568D02*
X581061Y210000D01*
X583568Y207493D01*
X584047Y208324D01*
X584343Y209428D01*
Y210572D01*
X584047Y211677D01*
X583568Y212507D01*
D02*
G37*
G36*
X488568D02*
X486061Y210000D01*
X488568Y207493D01*
X489047Y208324D01*
X489343Y209428D01*
Y210572D01*
X489047Y211677D01*
X488568Y212507D01*
D02*
G37*
G36*
X580000Y208939D02*
X577493Y206432D01*
X578324Y205953D01*
X579428Y205657D01*
X580572D01*
X581676Y205953D01*
X582507Y206432D01*
X580000Y208939D01*
D02*
G37*
G36*
X485000D02*
X482493Y206432D01*
X483323Y205953D01*
X484428Y205657D01*
X485572D01*
X486677Y205953D01*
X487507Y206432D01*
X485000Y208939D01*
D02*
G37*
G36*
X350398Y207250D02*
X349502D01*
X348675Y206908D01*
X348042Y206275D01*
X347700Y205448D01*
Y204552D01*
X348042Y203726D01*
X348675Y203093D01*
X349502Y202750D01*
X350398D01*
X351224Y203093D01*
X351857Y203726D01*
X352200Y204552D01*
Y205448D01*
X351857Y206275D01*
X351224Y206908D01*
X350398Y207250D01*
D02*
G37*
G36*
X302948D02*
X302052D01*
X301225Y206908D01*
X300592Y206275D01*
X300250Y205448D01*
Y204552D01*
X300592Y203726D01*
X301225Y203093D01*
X302052Y202750D01*
X302948D01*
X303774Y203093D01*
X304408Y203726D01*
X304750Y204552D01*
Y205448D01*
X304408Y206275D01*
X303774Y206908D01*
X302948Y207250D01*
D02*
G37*
G36*
X408930Y214386D02*
X407763D01*
X406619Y214158D01*
X405542Y213712D01*
X404572Y213064D01*
X403747Y212239D01*
X403099Y211269D01*
X402653Y210192D01*
X402425Y209048D01*
Y207881D01*
X402653Y206737D01*
X403099Y205660D01*
X403747Y204690D01*
X404572Y203865D01*
X405542Y203217D01*
X406619Y202771D01*
X407763Y202543D01*
X408930D01*
X410074Y202771D01*
X411151Y203217D01*
X412121Y203865D01*
X412946Y204690D01*
X413594Y205660D01*
X414040Y206737D01*
X414268Y207881D01*
Y209048D01*
X414040Y210192D01*
X413594Y211269D01*
X412946Y212239D01*
X412121Y213064D01*
X411151Y213712D01*
X410074Y214158D01*
X408930Y214386D01*
D02*
G37*
G36*
X580572Y204343D02*
X579428D01*
X578324Y204047D01*
X577493Y203568D01*
X580000Y201061D01*
X582507Y203568D01*
X581676Y204047D01*
X580572Y204343D01*
D02*
G37*
G36*
X485572D02*
X484428D01*
X483323Y204047D01*
X482493Y203568D01*
X485000Y201061D01*
X487507Y203568D01*
X486677Y204047D01*
X485572Y204343D01*
D02*
G37*
G36*
X481432Y202507D02*
X480953Y201676D01*
X480657Y200572D01*
Y199428D01*
X480953Y198324D01*
X481432Y197493D01*
X483939Y200000D01*
X481432Y202507D01*
D02*
G37*
G36*
X576432D02*
X575953Y201676D01*
X575657Y200572D01*
Y199428D01*
X575953Y198324D01*
X576432Y197493D01*
X578939Y200000D01*
X576432Y202507D01*
D02*
G37*
G36*
X583568D02*
X581061Y200000D01*
X583568Y197493D01*
X584047Y198324D01*
X584343Y199428D01*
Y200572D01*
X584047Y201676D01*
X583568Y202507D01*
D02*
G37*
G36*
X488568D02*
X486061Y200000D01*
X488568Y197493D01*
X489047Y198324D01*
X489343Y199428D01*
Y200572D01*
X489047Y201676D01*
X488568Y202507D01*
D02*
G37*
G36*
X580000Y198939D02*
X577493Y196432D01*
X578324Y195953D01*
X579428Y195657D01*
X580572D01*
X581676Y195953D01*
X582507Y196432D01*
X580000Y198939D01*
D02*
G37*
G36*
X485000D02*
X482493Y196432D01*
X483323Y195953D01*
X484428Y195657D01*
X485572D01*
X486677Y195953D01*
X487507Y196432D01*
X485000Y198939D01*
D02*
G37*
G36*
X352948Y197250D02*
X352052D01*
X351225Y196907D01*
X350592Y196274D01*
X350250Y195448D01*
Y194552D01*
X350592Y193726D01*
X351225Y193093D01*
X352052Y192750D01*
X352948D01*
X353774Y193093D01*
X354408Y193726D01*
X354750Y194552D01*
Y195448D01*
X354408Y196274D01*
X353774Y196907D01*
X352948Y197250D01*
D02*
G37*
G36*
X222948Y191750D02*
X222052D01*
X221226Y191408D01*
X220725Y190907D01*
X220224Y191408D01*
X219398Y191750D01*
X218502D01*
X217675Y191408D01*
X217042Y190775D01*
X216700Y189948D01*
Y189052D01*
X217042Y188225D01*
X217675Y187592D01*
X218502Y187250D01*
X219398D01*
X220224Y187592D01*
X220725Y188093D01*
X221226Y187592D01*
X222052Y187250D01*
X222948D01*
X223775Y187592D01*
X224408Y188225D01*
X224750Y189052D01*
Y189948D01*
X224408Y190775D01*
X223775Y191408D01*
X222948Y191750D01*
D02*
G37*
G36*
X430583Y197850D02*
X429417D01*
X428273Y197623D01*
X427195Y197177D01*
X426225Y196528D01*
X425401Y195704D01*
X424753Y194734D01*
X424306Y193656D01*
X424079Y192512D01*
Y191346D01*
X424306Y190202D01*
X424753Y189124D01*
X425401Y188154D01*
X426225Y187330D01*
X427195Y186682D01*
X428273Y186235D01*
X429417Y186008D01*
X430583D01*
X431727Y186235D01*
X432805Y186682D01*
X433775Y187330D01*
X434599Y188154D01*
X435247Y189124D01*
X435694Y190202D01*
X435921Y191346D01*
Y192512D01*
X435694Y193656D01*
X435247Y194734D01*
X434599Y195704D01*
X433775Y196528D01*
X432805Y197177D01*
X431727Y197623D01*
X430583Y197850D01*
D02*
G37*
G36*
X414268Y197850D02*
X402425D01*
Y186008D01*
X414268D01*
Y197850D01*
D02*
G37*
G36*
X580598Y194543D02*
X579402D01*
X578246Y194234D01*
X577210Y193635D01*
X576365Y192790D01*
X575766Y191754D01*
X575457Y190598D01*
Y189402D01*
X575766Y188246D01*
X576365Y187210D01*
X577210Y186364D01*
X578246Y185766D01*
X579402Y185457D01*
X580598D01*
X581754Y185766D01*
X582790Y186364D01*
X583636Y187210D01*
X584234Y188246D01*
X584543Y189402D01*
Y190598D01*
X584234Y191754D01*
X583636Y192790D01*
X582790Y193635D01*
X581754Y194234D01*
X580598Y194543D01*
D02*
G37*
G36*
X485598D02*
X484402D01*
X483246Y194234D01*
X482210Y193635D01*
X481364Y192790D01*
X480766Y191754D01*
X480457Y190598D01*
Y189402D01*
X480766Y188246D01*
X481364Y187210D01*
X482210Y186364D01*
X483246Y185766D01*
X484402Y185457D01*
X485598D01*
X486754Y185766D01*
X487790Y186364D01*
X488635Y187210D01*
X489234Y188246D01*
X489543Y189402D01*
Y190598D01*
X489234Y191754D01*
X488635Y192790D01*
X487790Y193635D01*
X486754Y194234D01*
X485598Y194543D01*
D02*
G37*
G36*
X372998Y184250D02*
X372102D01*
X371275Y183907D01*
X370642Y183274D01*
X370300Y182448D01*
Y181552D01*
X370642Y180726D01*
X371118Y180250D01*
X370642Y179774D01*
X370300Y178948D01*
Y178052D01*
X370642Y177225D01*
X371275Y176593D01*
X372102Y176250D01*
X372998D01*
X373825Y176593D01*
X374458Y177225D01*
X374800Y178052D01*
Y178948D01*
X374458Y179774D01*
X373982Y180250D01*
X374458Y180726D01*
X374800Y181552D01*
Y182448D01*
X374458Y183274D01*
X373825Y183907D01*
X372998Y184250D01*
D02*
G37*
G36*
X580598Y184543D02*
X579402D01*
X578246Y184234D01*
X577210Y183635D01*
X576365Y182790D01*
X575766Y181754D01*
X575457Y180598D01*
Y179402D01*
X575766Y178246D01*
X576365Y177210D01*
X577210Y176365D01*
X578246Y175766D01*
X579402Y175457D01*
X580598D01*
X581754Y175766D01*
X582790Y176365D01*
X583636Y177210D01*
X584234Y178246D01*
X584543Y179402D01*
Y180598D01*
X584234Y181754D01*
X583636Y182790D01*
X582790Y183635D01*
X581754Y184234D01*
X580598Y184543D01*
D02*
G37*
G36*
X485598D02*
X484402D01*
X483246Y184234D01*
X482210Y183635D01*
X481364Y182790D01*
X480766Y181754D01*
X480457Y180598D01*
Y179402D01*
X480766Y178246D01*
X481364Y177210D01*
X482210Y176365D01*
X483246Y175766D01*
X484402Y175457D01*
X485598D01*
X486754Y175766D01*
X487790Y176365D01*
X488635Y177210D01*
X489234Y178246D01*
X489543Y179402D01*
Y180598D01*
X489234Y181754D01*
X488635Y182790D01*
X487790Y183635D01*
X486754Y184234D01*
X485598Y184543D01*
D02*
G37*
G36*
X428869Y180331D02*
X427509D01*
X426175Y180065D01*
X424918Y179545D01*
X423787Y178789D01*
X422825Y177827D01*
X422069Y176696D01*
X421549Y175440D01*
X421283Y174105D01*
Y172745D01*
X421549Y171411D01*
X422069Y170154D01*
X422825Y169023D01*
X423787Y168061D01*
X424918Y167306D01*
X426175Y166785D01*
X427509Y166520D01*
X428869D01*
X430203Y166785D01*
X431460Y167306D01*
X432591Y168061D01*
X433553Y169023D01*
X434309Y170154D01*
X434829Y171411D01*
X435094Y172745D01*
Y174105D01*
X434829Y175440D01*
X434309Y176696D01*
X433553Y177827D01*
X432591Y178789D01*
X431460Y179545D01*
X430203Y180065D01*
X428869Y180331D01*
D02*
G37*
G36*
X580598Y174543D02*
X579402D01*
X578246Y174234D01*
X577210Y173635D01*
X576365Y172790D01*
X575766Y171754D01*
X575457Y170598D01*
Y169402D01*
X575766Y168246D01*
X576365Y167210D01*
X577210Y166365D01*
X578246Y165766D01*
X579402Y165457D01*
X580598D01*
X581754Y165766D01*
X582790Y166365D01*
X583636Y167210D01*
X584234Y168246D01*
X584543Y169402D01*
Y170598D01*
X584234Y171754D01*
X583636Y172790D01*
X582790Y173635D01*
X581754Y174234D01*
X580598Y174543D01*
D02*
G37*
G36*
X485598D02*
X484402D01*
X483246Y174234D01*
X482210Y173635D01*
X481364Y172790D01*
X480766Y171754D01*
X480457Y170598D01*
Y169402D01*
X480766Y168246D01*
X481364Y167210D01*
X482210Y166365D01*
X483246Y165766D01*
X484402Y165457D01*
X485598D01*
X486754Y165766D01*
X487790Y166365D01*
X488635Y167210D01*
X489234Y168246D01*
X489543Y169402D01*
Y170598D01*
X489234Y171754D01*
X488635Y172790D01*
X487790Y173635D01*
X486754Y174234D01*
X485598Y174543D01*
D02*
G37*
G36*
X270448Y167250D02*
X269552D01*
X268725Y166908D01*
X268092Y166274D01*
X267750Y165448D01*
Y164552D01*
X268092Y163725D01*
X268725Y163093D01*
X269552Y162750D01*
X270448D01*
X271274Y163093D01*
X271907Y163725D01*
X272250Y164552D01*
Y165448D01*
X271907Y166274D01*
X271274Y166908D01*
X270448Y167250D01*
D02*
G37*
G36*
X274448Y163250D02*
X273552D01*
X272726Y162908D01*
X272093Y162275D01*
X271750Y161448D01*
Y160552D01*
X272093Y159725D01*
X272726Y159092D01*
X273552Y158750D01*
X274448D01*
X275274Y159092D01*
X275907Y159725D01*
X276250Y160552D01*
Y161448D01*
X275907Y162275D01*
X275274Y162908D01*
X274448Y163250D01*
D02*
G37*
G36*
X317948Y162250D02*
X317052D01*
X316226Y161907D01*
X315593Y161275D01*
X315250Y160448D01*
Y159552D01*
X315593Y158726D01*
X316226Y158092D01*
X317052Y157750D01*
X317948D01*
X318775Y158092D01*
X319408Y158726D01*
X319750Y159552D01*
Y160448D01*
X319408Y161275D01*
X318775Y161907D01*
X317948Y162250D01*
D02*
G37*
G36*
X209948Y160750D02*
X209052D01*
X208225Y160407D01*
X207593Y159774D01*
X207250Y158948D01*
Y158052D01*
X207593Y157226D01*
X208225Y156593D01*
X209052Y156250D01*
X209948D01*
X210774Y156593D01*
X211407Y157226D01*
X211750Y158052D01*
Y158948D01*
X211407Y159774D01*
X210774Y160407D01*
X209948Y160750D01*
D02*
G37*
G36*
X584543Y164543D02*
X575457D01*
Y155457D01*
X584543D01*
Y164543D01*
D02*
G37*
G36*
X489543D02*
X480457D01*
Y155457D01*
X489543D01*
Y164543D01*
D02*
G37*
G36*
X367998Y157250D02*
X367102D01*
X366276Y156907D01*
X365642Y156274D01*
X365300Y155448D01*
Y154552D01*
X365642Y153726D01*
X366276Y153093D01*
X367102Y152750D01*
X367998D01*
X368825Y153093D01*
X369458Y153726D01*
X369800Y154552D01*
Y155448D01*
X369458Y156274D01*
X368825Y156907D01*
X367998Y157250D01*
D02*
G37*
G36*
X268422Y153306D02*
X267527D01*
X266700Y152964D01*
X266067Y152331D01*
X265724Y151504D01*
Y150609D01*
X266067Y149782D01*
X266599Y149250D01*
X266574Y148985D01*
X266528Y148817D01*
X266477Y148719D01*
X265725Y148407D01*
X265092Y147775D01*
X264750Y146948D01*
Y146052D01*
X265092Y145226D01*
X265725Y144592D01*
X266552Y144250D01*
X267448D01*
X268274Y144592D01*
X268907Y145226D01*
X269250Y146052D01*
Y146948D01*
X268907Y147775D01*
X268376Y148306D01*
X268400Y148571D01*
X268447Y148739D01*
X268498Y148837D01*
X269249Y149149D01*
X269459Y149359D01*
X269725Y149092D01*
X270552Y148750D01*
X271448D01*
X272274Y149092D01*
X272907Y149725D01*
X273250Y150552D01*
Y151448D01*
X272907Y152275D01*
X272274Y152908D01*
X271448Y153250D01*
X270552D01*
X269725Y152908D01*
X269515Y152697D01*
X269249Y152964D01*
X268422Y153306D01*
D02*
G37*
G36*
X250448Y152250D02*
X249552D01*
X248726Y151908D01*
X248093Y151275D01*
X247750Y150448D01*
Y149552D01*
X248093Y148725D01*
X248726Y148092D01*
X249552Y147750D01*
X250448D01*
X251274Y148092D01*
X251907Y148725D01*
X252250Y149552D01*
Y150448D01*
X251907Y151275D01*
X251274Y151908D01*
X250448Y152250D01*
D02*
G37*
G36*
X360272Y149700D02*
X359377D01*
X358549Y149357D01*
X357917Y148724D01*
X357574Y147898D01*
Y147002D01*
X357917Y146176D01*
X358549Y145543D01*
X359377Y145200D01*
X360272D01*
X361099Y145543D01*
X361732Y146176D01*
X362074Y147002D01*
Y147898D01*
X361732Y148724D01*
X361099Y149357D01*
X360272Y149700D01*
D02*
G37*
G36*
X380948Y149250D02*
X380052D01*
X379225Y148907D01*
X378592Y148275D01*
X378250Y147448D01*
Y146552D01*
X378592Y145726D01*
X379225Y145092D01*
X380052Y144750D01*
X380948D01*
X381774Y145092D01*
X382407Y145726D01*
X382750Y146552D01*
Y147448D01*
X382407Y148275D01*
X381774Y148907D01*
X380948Y149250D01*
D02*
G37*
G36*
X562948Y146750D02*
X562052D01*
X561226Y146407D01*
X560593Y145774D01*
X560250Y144948D01*
Y144052D01*
X560593Y143226D01*
X561226Y142593D01*
X562052Y142250D01*
X562948D01*
X563774Y142593D01*
X564407Y143226D01*
X564750Y144052D01*
Y144948D01*
X564407Y145774D01*
X563774Y146407D01*
X562948Y146750D01*
D02*
G37*
G36*
X372948Y142250D02*
X372052D01*
X371226Y141908D01*
X370592Y141274D01*
X370250Y140448D01*
Y139552D01*
X370592Y138725D01*
X371226Y138093D01*
X372052Y137750D01*
X372948D01*
X373775Y138093D01*
X374408Y138725D01*
X374750Y139552D01*
Y140448D01*
X374408Y141274D01*
X373775Y141908D01*
X372948Y142250D01*
D02*
G37*
G36*
X633264Y143665D02*
X626736D01*
Y137138D01*
X633264D01*
Y143665D01*
D02*
G37*
G36*
X239948Y148250D02*
X239052D01*
X238226Y147907D01*
X237593Y147274D01*
X237250Y146448D01*
Y145552D01*
X237582Y144750D01*
X237250Y143948D01*
Y143052D01*
X237593Y142226D01*
X237606Y142212D01*
X237417Y141694D01*
X236725Y141408D01*
X236092Y140775D01*
X235750Y139948D01*
Y139052D01*
X236092Y138225D01*
X236725Y137592D01*
X237552Y137250D01*
X237750D01*
Y137052D01*
X238092Y136225D01*
X238725Y135592D01*
X239552Y135250D01*
X240448D01*
X241274Y135592D01*
X241908Y136225D01*
X242250Y137052D01*
Y137948D01*
X241908Y138775D01*
X241274Y139408D01*
X240448Y139750D01*
X240250D01*
Y139948D01*
X239908Y140775D01*
X239894Y140788D01*
X240083Y141306D01*
X240774Y141593D01*
X241407Y142226D01*
X241750Y143052D01*
Y143948D01*
X241418Y144750D01*
X241750Y145552D01*
Y146448D01*
X241407Y147274D01*
X240774Y147907D01*
X239948Y148250D01*
D02*
G37*
G36*
X552948Y137250D02*
X552052D01*
X551226Y136907D01*
X550593Y136275D01*
X550250Y135448D01*
Y134552D01*
X550593Y133726D01*
X551226Y133092D01*
X552052Y132750D01*
X552948D01*
X553774Y133092D01*
X554408Y133726D01*
X554750Y134552D01*
Y135448D01*
X554408Y136275D01*
X553774Y136907D01*
X552948Y137250D01*
D02*
G37*
G36*
X630430Y135764D02*
X629570D01*
X628740Y135541D01*
X627996Y135112D01*
X627388Y134504D01*
X626959Y133760D01*
X626736Y132930D01*
Y132070D01*
X626959Y131240D01*
X627388Y130496D01*
X627996Y129888D01*
X628740Y129459D01*
X629570Y129236D01*
X630430D01*
X631260Y129459D01*
X632004Y129888D01*
X632612Y130496D01*
X633041Y131240D01*
X633264Y132070D01*
Y132930D01*
X633041Y133760D01*
X632612Y134504D01*
X632004Y135112D01*
X631260Y135541D01*
X630430Y135764D01*
D02*
G37*
G36*
X126885Y130249D02*
X125949D01*
X125045Y130007D01*
X124487Y129684D01*
X126417Y127754D01*
X128348Y129684D01*
X127790Y130007D01*
X126885Y130249D01*
D02*
G37*
G36*
X119038Y130449D02*
X118049D01*
X117094Y130193D01*
X116237Y129698D01*
X115538Y128999D01*
X115043Y128143D01*
X114865Y127477D01*
X114348D01*
X114169Y128143D01*
X113675Y128999D01*
X112976Y129698D01*
X112119Y130193D01*
X111164Y130449D01*
X110175D01*
X109220Y130193D01*
X108363Y129698D01*
X107664Y128999D01*
X107169Y128143D01*
X106991Y127477D01*
X106474D01*
X106295Y128143D01*
X105801Y128999D01*
X105102Y129698D01*
X104245Y130193D01*
X103290Y130449D01*
X102301D01*
X101346Y130193D01*
X100489Y129698D01*
X99790Y128999D01*
X99295Y128143D01*
X99117Y127477D01*
X98599D01*
X98421Y128143D01*
X97927Y128999D01*
X97227Y129698D01*
X96371Y130193D01*
X95416Y130449D01*
X94427D01*
X93471Y130193D01*
X92615Y129698D01*
X91916Y128999D01*
X91421Y128143D01*
X91243Y127477D01*
X90725D01*
X90547Y128143D01*
X90053Y128999D01*
X89353Y129698D01*
X88497Y130193D01*
X87542Y130449D01*
X86553D01*
X85597Y130193D01*
X84741Y129698D01*
X84042Y128999D01*
X83547Y128143D01*
X83369Y127477D01*
X82851D01*
X82673Y128143D01*
X82179Y128999D01*
X81479Y129698D01*
X80623Y130193D01*
X79668Y130449D01*
X78679D01*
X77723Y130193D01*
X76867Y129698D01*
X76168Y128999D01*
X75673Y128143D01*
X75495Y127477D01*
X74977D01*
X74799Y128143D01*
X74305Y128999D01*
X73605Y129698D01*
X72749Y130193D01*
X71794Y130449D01*
X70805D01*
X69849Y130193D01*
X68993Y129698D01*
X68294Y128999D01*
X67799Y128143D01*
X67621Y127477D01*
X67103D01*
X66925Y128143D01*
X66431Y128999D01*
X65731Y129698D01*
X64875Y130193D01*
X63920Y130449D01*
X62931D01*
X61976Y130193D01*
X61119Y129698D01*
X60420Y128999D01*
X59925Y128143D01*
X59807Y127702D01*
X59307Y127767D01*
Y130449D01*
X51795D01*
Y122937D01*
X59307D01*
Y125618D01*
X59807Y125684D01*
X59925Y125243D01*
X60420Y124387D01*
X61119Y123687D01*
X61976Y123193D01*
X62931Y122937D01*
X63920D01*
X64875Y123193D01*
X65731Y123687D01*
X66431Y124387D01*
X66925Y125243D01*
X67103Y125908D01*
X67621D01*
X67799Y125243D01*
X68294Y124387D01*
X68993Y123687D01*
X69849Y123193D01*
X70805Y122937D01*
X71794D01*
X72749Y123193D01*
X73605Y123687D01*
X74305Y124387D01*
X74799Y125243D01*
X74977Y125908D01*
X75495D01*
X75673Y125243D01*
X76168Y124387D01*
X76867Y123687D01*
X77723Y123193D01*
X78679Y122937D01*
X79668D01*
X80623Y123193D01*
X81479Y123687D01*
X82179Y124387D01*
X82673Y125243D01*
X82851Y125908D01*
X83369D01*
X83547Y125243D01*
X84042Y124387D01*
X84741Y123687D01*
X85597Y123193D01*
X86553Y122937D01*
X87542D01*
X88497Y123193D01*
X89353Y123687D01*
X90053Y124387D01*
X90547Y125243D01*
X90725Y125908D01*
X91243D01*
X91421Y125243D01*
X91916Y124387D01*
X92615Y123687D01*
X93471Y123193D01*
X94427Y122937D01*
X95416D01*
X96371Y123193D01*
X97227Y123687D01*
X97927Y124387D01*
X98421Y125243D01*
X98599Y125908D01*
X99117D01*
X99295Y125243D01*
X99790Y124387D01*
X100489Y123687D01*
X101346Y123193D01*
X102301Y122937D01*
X103290D01*
X104245Y123193D01*
X105102Y123687D01*
X105801Y124387D01*
X106295Y125243D01*
X106474Y125908D01*
X106991D01*
X107169Y125243D01*
X107664Y124387D01*
X108363Y123687D01*
X109220Y123193D01*
X110175Y122937D01*
X111164D01*
X112119Y123193D01*
X112976Y123687D01*
X113675Y124387D01*
X114169Y125243D01*
X114348Y125908D01*
X114865D01*
X115043Y125243D01*
X115538Y124387D01*
X116237Y123687D01*
X117094Y123193D01*
X118049Y122937D01*
X119038D01*
X119993Y123193D01*
X120850Y123687D01*
X121549Y124387D01*
X122043Y125243D01*
X122299Y126198D01*
Y127187D01*
X122043Y128143D01*
X121549Y128999D01*
X120850Y129698D01*
X119993Y130193D01*
X119038Y130449D01*
D02*
G37*
G36*
X265448Y127250D02*
X264552D01*
X263750Y126918D01*
X262948Y127250D01*
X262052D01*
X261250Y126918D01*
X260448Y127250D01*
X259552D01*
X258726Y126908D01*
X258092Y126275D01*
X257750Y125448D01*
Y124552D01*
X258082Y123750D01*
X257750Y122948D01*
Y122052D01*
X258082Y121250D01*
X257750Y120448D01*
Y119552D01*
X258092Y118726D01*
X258726Y118093D01*
X259552Y117750D01*
X260448D01*
X261275Y118093D01*
X261908Y118726D01*
X262250Y119552D01*
Y120448D01*
X261918Y121250D01*
X262250Y122052D01*
Y122750D01*
X262948D01*
X263750Y123082D01*
X264552Y122750D01*
X265448D01*
X266274Y123092D01*
X266908Y123725D01*
X267250Y124552D01*
Y125448D01*
X266908Y126275D01*
X266274Y126908D01*
X265448Y127250D01*
D02*
G37*
G36*
X300448D02*
X299552D01*
X298750Y126918D01*
X297948Y127250D01*
X297052D01*
X296250Y126918D01*
X295448Y127250D01*
X294552D01*
X293725Y126908D01*
X293092Y126275D01*
X292750Y125448D01*
Y124552D01*
X293082Y123750D01*
X292750Y122948D01*
Y122052D01*
X293082Y121250D01*
X292750Y120448D01*
Y119552D01*
X293092Y118726D01*
X293725Y118093D01*
X294552Y117750D01*
X295448D01*
X296274Y118093D01*
X296907Y118726D01*
X297250Y119552D01*
Y120448D01*
X296918Y121250D01*
X297250Y122052D01*
Y122750D01*
X297948D01*
X298750Y123082D01*
X299552Y122750D01*
X300448D01*
X301274Y123092D01*
X301907Y123725D01*
X302250Y124552D01*
Y125448D01*
X301907Y126275D01*
X301274Y126908D01*
X300448Y127250D01*
D02*
G37*
G36*
X230448D02*
X229552D01*
X228750Y126918D01*
X227948Y127250D01*
X227052D01*
X226250Y126918D01*
X225448Y127250D01*
X224552D01*
X223726Y126908D01*
X223093Y126275D01*
X222750Y125448D01*
Y124552D01*
X223082Y123750D01*
X222750Y122948D01*
Y122052D01*
X223082Y121250D01*
X222750Y120448D01*
Y119552D01*
X223093Y118726D01*
X223726Y118093D01*
X224552Y117750D01*
X225448D01*
X226274Y118093D01*
X226907Y118726D01*
X227250Y119552D01*
Y120448D01*
X226918Y121250D01*
X227250Y122052D01*
Y122750D01*
X227948D01*
X228750Y123082D01*
X229552Y122750D01*
X230448D01*
X231275Y123092D01*
X231908Y123725D01*
X232250Y124552D01*
Y125448D01*
X231908Y126275D01*
X231275Y126908D01*
X230448Y127250D01*
D02*
G37*
G36*
X123426Y128624D02*
X123104Y128065D01*
X122861Y127161D01*
Y126225D01*
X123104Y125320D01*
X123426Y124762D01*
X125357Y126693D01*
X123426Y128624D01*
D02*
G37*
G36*
X129409D02*
X127478Y126693D01*
X129409Y124762D01*
X129731Y125320D01*
X129973Y126225D01*
Y127161D01*
X129731Y128065D01*
X129409Y128624D01*
D02*
G37*
G36*
X450448Y124750D02*
X449552D01*
X448750Y124418D01*
X447948Y124750D01*
X447052D01*
X446250Y124418D01*
X445447Y124750D01*
X444553D01*
X443750Y124418D01*
X442947Y124750D01*
X442053D01*
X441250Y124418D01*
X440448Y124750D01*
X439552D01*
X438726Y124407D01*
X438093Y123775D01*
X437750Y122948D01*
Y122052D01*
X438082Y121250D01*
X437750Y120448D01*
Y119552D01*
X438093Y118726D01*
X438726Y118093D01*
X439552Y117750D01*
X440448D01*
X441250Y118082D01*
X442053Y117750D01*
X442947D01*
X443750Y118082D01*
X444553Y117750D01*
X445447D01*
X446250Y118082D01*
X447052Y117750D01*
X447948D01*
X448750Y118082D01*
X449552Y117750D01*
X450448D01*
X451274Y118093D01*
X451907Y118726D01*
X452250Y119552D01*
Y120448D01*
X451918Y121250D01*
X452250Y122052D01*
Y122948D01*
X451907Y123775D01*
X451274Y124407D01*
X450448Y124750D01*
D02*
G37*
G36*
X126417Y125632D02*
X124487Y123702D01*
X125045Y123379D01*
X125949Y123137D01*
X126885D01*
X127790Y123379D01*
X128348Y123702D01*
X126417Y125632D01*
D02*
G37*
G36*
X604948Y118750D02*
X604052D01*
X603226Y118407D01*
X602593Y117774D01*
X602250Y116948D01*
Y116052D01*
X602593Y115226D01*
X603226Y114593D01*
X604052Y114250D01*
X604948D01*
X605774Y114593D01*
X606407Y115226D01*
X606750Y116052D01*
Y116948D01*
X606407Y117774D01*
X605774Y118407D01*
X604948Y118750D01*
D02*
G37*
G36*
X334948Y114809D02*
X334052D01*
X333225Y114467D01*
X332593Y113834D01*
X332250Y113007D01*
Y112112D01*
X332593Y111285D01*
X333225Y110652D01*
X334052Y110309D01*
X334948D01*
X335774Y110652D01*
X336407Y111285D01*
X336750Y112112D01*
Y113007D01*
X336407Y113834D01*
X335774Y114467D01*
X334948Y114809D01*
D02*
G37*
G36*
X555447Y109750D02*
X554553D01*
X553750Y109418D01*
X552948Y109750D01*
X552052D01*
X551250Y109418D01*
X550448Y109750D01*
X549552D01*
X548750Y109418D01*
X547948Y109750D01*
X547052D01*
X546250Y109418D01*
X545447Y109750D01*
X544553D01*
X543725Y109407D01*
X543092Y108774D01*
X542750Y107948D01*
Y107052D01*
X543092Y106226D01*
X543725Y105593D01*
X544553Y105250D01*
X545447D01*
X546250Y105582D01*
X547052Y105250D01*
X547948D01*
X548750Y105582D01*
X549552Y105250D01*
X550448D01*
X551250Y105582D01*
X552052Y105250D01*
X552948D01*
X553750Y105582D01*
X554553Y105250D01*
X555447D01*
X556275Y105593D01*
X556908Y106226D01*
X557250Y107052D01*
Y107948D01*
X556908Y108774D01*
X556275Y109407D01*
X555447Y109750D01*
D02*
G37*
G36*
X398448Y108250D02*
X397552D01*
X396726Y107907D01*
X396093Y107274D01*
X395750Y106448D01*
Y105552D01*
X396093Y104726D01*
X396726Y104093D01*
X397552Y103750D01*
X398448D01*
X399274Y104093D01*
X399907Y104726D01*
X400250Y105552D01*
Y106448D01*
X399907Y107274D01*
X399274Y107907D01*
X398448Y108250D01*
D02*
G37*
G36*
X517448Y103250D02*
X516552D01*
X515750Y102918D01*
X514948Y103250D01*
X514052D01*
X513226Y102908D01*
X512593Y102275D01*
X512250Y101448D01*
Y100552D01*
X512593Y99726D01*
X513226Y99093D01*
X514052Y98750D01*
X514948D01*
X515750Y99082D01*
X516552Y98750D01*
X517448D01*
X518274Y99093D01*
X518907Y99726D01*
X519250Y100552D01*
Y101448D01*
X518907Y102275D01*
X518274Y102908D01*
X517448Y103250D01*
D02*
G37*
G36*
X278448Y110250D02*
X277552D01*
X276726Y109907D01*
X276093Y109274D01*
X275750Y108448D01*
Y107552D01*
X276093Y106726D01*
X276318Y106500D01*
X276093Y106274D01*
X275750Y105448D01*
Y104552D01*
X276093Y103726D01*
X276726Y103093D01*
X277552Y102750D01*
X278448D01*
X279275Y103093D01*
X279907Y103726D01*
X280250Y104552D01*
Y105448D01*
X279907Y106274D01*
X279682Y106500D01*
X279907Y106726D01*
X280250Y107552D01*
Y108448D01*
X279907Y109274D01*
X279275Y109907D01*
X278448Y110250D01*
D02*
G37*
G36*
X243448D02*
X242552D01*
X241725Y109907D01*
X241092Y109274D01*
X240750Y108448D01*
Y107552D01*
X241092Y106726D01*
X241318Y106500D01*
X241092Y106274D01*
X240750Y105448D01*
Y104552D01*
X241092Y103726D01*
X241725Y103093D01*
X242552Y102750D01*
X243448D01*
X244274Y103093D01*
X244907Y103726D01*
X245250Y104552D01*
Y105448D01*
X244907Y106274D01*
X244682Y106500D01*
X244907Y106726D01*
X245250Y107552D01*
Y108448D01*
X244907Y109274D01*
X244274Y109907D01*
X243448Y110250D01*
D02*
G37*
G36*
X331948Y101250D02*
X331052D01*
X330225Y100908D01*
X329592Y100275D01*
X329250Y99448D01*
Y98552D01*
X329592Y97725D01*
X330225Y97092D01*
X331052Y96750D01*
X331948D01*
X332774Y97092D01*
X333407Y97725D01*
X333750Y98552D01*
Y99448D01*
X333407Y100275D01*
X332774Y100908D01*
X331948Y101250D01*
D02*
G37*
G36*
X405448Y99750D02*
X404552D01*
X403725Y99408D01*
X403092Y98774D01*
X402750Y97948D01*
Y97052D01*
X403092Y96226D01*
X403725Y95592D01*
X404552Y95250D01*
X405448D01*
X406275Y95592D01*
X406908Y96226D01*
X407250Y97052D01*
Y97948D01*
X406908Y98774D01*
X406275Y99408D01*
X405448Y99750D01*
D02*
G37*
G36*
X400448D02*
X399552D01*
X398726Y99408D01*
X398093Y98774D01*
X397750Y97948D01*
Y97052D01*
X398093Y96226D01*
X398726Y95592D01*
X399552Y95250D01*
X400448D01*
X401274Y95592D01*
X401907Y96226D01*
X402250Y97052D01*
Y97948D01*
X401907Y98774D01*
X401274Y99408D01*
X400448Y99750D01*
D02*
G37*
G36*
X605447Y113750D02*
X604553D01*
X603725Y113408D01*
X603092Y112775D01*
X602750Y111948D01*
Y111052D01*
X603092Y110225D01*
X603725Y109592D01*
X603949Y109500D01*
Y109000D01*
X603725Y108907D01*
X603092Y108274D01*
X602750Y107448D01*
Y106552D01*
X603092Y105726D01*
X603725Y105093D01*
X604553Y104750D01*
X605334D01*
X605575Y104575D01*
X605750Y104334D01*
Y103666D01*
X605575Y103425D01*
X605334Y103250D01*
X604553D01*
X603725Y102908D01*
X603092Y102275D01*
X602750Y101448D01*
Y100552D01*
X603092Y99726D01*
X603725Y99093D01*
X604553Y98750D01*
X605447D01*
X606275Y99093D01*
X606908Y99726D01*
X607250Y100552D01*
Y101334D01*
X607425Y101575D01*
X607666Y101750D01*
X608334D01*
X608575Y101575D01*
X608750Y101334D01*
Y100552D01*
X609093Y99726D01*
X609726Y99093D01*
X609831Y99049D01*
X609899Y98480D01*
X609431Y98012D01*
X609089Y97185D01*
Y96290D01*
X609431Y95463D01*
X610064Y94830D01*
X610891Y94488D01*
X611786D01*
X612613Y94830D01*
X613246Y95463D01*
X613589Y96290D01*
Y97185D01*
X613246Y98012D01*
X612613Y98645D01*
X612508Y98689D01*
X612440Y99258D01*
X612908Y99726D01*
X613250Y100552D01*
Y101448D01*
X612908Y102275D01*
X612275Y102908D01*
X611447Y103250D01*
X610666D01*
X610425Y103425D01*
X610250Y103666D01*
Y104334D01*
X610425Y104575D01*
X610666Y104750D01*
X611447D01*
X612275Y105093D01*
X612908Y105726D01*
X613250Y106552D01*
Y107448D01*
X612908Y108274D01*
X612275Y108907D01*
X611447Y109250D01*
X610553D01*
X609726Y108907D01*
X609093Y108274D01*
X608750Y107448D01*
Y106666D01*
X608575Y106425D01*
X608334Y106250D01*
X607666D01*
X607425Y106425D01*
X607250Y106666D01*
Y107448D01*
X606908Y108274D01*
X606275Y108907D01*
X606051Y109000D01*
Y109500D01*
X606275Y109592D01*
X606908Y110225D01*
X607250Y111052D01*
Y111948D01*
X606908Y112775D01*
X606275Y113408D01*
X605447Y113750D01*
D02*
G37*
G36*
X540448Y104750D02*
X539552D01*
X538726Y104408D01*
X538093Y103774D01*
X537750Y102948D01*
Y102250D01*
X537052D01*
X536226Y101908D01*
X535593Y101275D01*
X535250Y100448D01*
Y99552D01*
X535582Y98750D01*
X535250Y97948D01*
Y97052D01*
X535582Y96250D01*
X535250Y95448D01*
Y94552D01*
X535593Y93726D01*
X536226Y93093D01*
X537052Y92750D01*
X537948D01*
X538750Y93082D01*
X539552Y92750D01*
X540448D01*
X541274Y93093D01*
X541908Y93726D01*
X542250Y94552D01*
Y95448D01*
X541918Y96250D01*
X542250Y97052D01*
Y97948D01*
X541918Y98750D01*
X542250Y99552D01*
Y100448D01*
X541918Y101250D01*
X542250Y102052D01*
Y102948D01*
X541908Y103774D01*
X541274Y104408D01*
X540448Y104750D01*
D02*
G37*
G36*
X327948Y97250D02*
X327052D01*
X326225Y96908D01*
X325592Y96275D01*
X325250Y95448D01*
Y94552D01*
X325592Y93726D01*
X326225Y93093D01*
X327052Y92750D01*
X327948D01*
X328774Y93093D01*
X329408Y93726D01*
X329750Y94552D01*
Y95448D01*
X329408Y96275D01*
X328774Y96908D01*
X327948Y97250D01*
D02*
G37*
G36*
X530838Y81433D02*
X529477D01*
X528143Y81168D01*
X526887Y80647D01*
X525756Y79891D01*
X524794Y78930D01*
X524038Y77799D01*
X523517Y76542D01*
X523252Y75208D01*
Y73847D01*
X523517Y72513D01*
X524038Y71257D01*
X524794Y70126D01*
X525756Y69164D01*
X526887Y68408D01*
X528143Y67887D01*
X529477Y67622D01*
X530838D01*
X532172Y67887D01*
X533428Y68408D01*
X534559Y69164D01*
X535521Y70126D01*
X536277Y71257D01*
X536798Y72513D01*
X537063Y73847D01*
Y75208D01*
X536798Y76542D01*
X536277Y77799D01*
X535521Y78930D01*
X534559Y79891D01*
X533428Y80647D01*
X532172Y81168D01*
X530838Y81433D01*
D02*
G37*
G36*
X451748D02*
X437937D01*
Y67622D01*
X451748D01*
Y81433D01*
D02*
G37*
G36*
X319615Y51256D02*
X318383D01*
X317174Y51016D01*
X316036Y50544D01*
X315011Y49859D01*
X314140Y48988D01*
X313455Y47963D01*
X312983Y46825D01*
X312743Y45616D01*
Y44384D01*
X312983Y43175D01*
X313455Y42037D01*
X314140Y41012D01*
X315011Y40141D01*
X316036Y39456D01*
X317174Y38985D01*
X318383Y38744D01*
X319615D01*
X320824Y38985D01*
X321962Y39456D01*
X322987Y40141D01*
X323858Y41012D01*
X324543Y42037D01*
X325014Y43175D01*
X325255Y44384D01*
Y45616D01*
X325014Y46825D01*
X324543Y47963D01*
X323858Y48988D01*
X322987Y49859D01*
X321962Y50544D01*
X320824Y51016D01*
X319615Y51256D01*
D02*
G37*
G36*
X294615D02*
X293383D01*
X292174Y51016D01*
X291036Y50544D01*
X290011Y49859D01*
X289140Y48988D01*
X288455Y47963D01*
X287983Y46825D01*
X287743Y45616D01*
Y44384D01*
X287983Y43175D01*
X288455Y42037D01*
X289140Y41012D01*
X290011Y40141D01*
X291036Y39456D01*
X292174Y38985D01*
X293383Y38744D01*
X294615D01*
X295824Y38985D01*
X296962Y39456D01*
X297987Y40141D01*
X298858Y41012D01*
X299543Y42037D01*
X300014Y43175D01*
X300255Y44384D01*
Y45616D01*
X300014Y46825D01*
X299543Y47963D01*
X298858Y48988D01*
X297987Y49859D01*
X296962Y50544D01*
X295824Y51016D01*
X294615Y51256D01*
D02*
G37*
G36*
X269615D02*
X268383D01*
X267174Y51016D01*
X266036Y50544D01*
X265011Y49859D01*
X264140Y48988D01*
X263455Y47963D01*
X262983Y46825D01*
X262743Y45616D01*
Y44384D01*
X262983Y43175D01*
X263455Y42037D01*
X264140Y41012D01*
X265011Y40141D01*
X266036Y39456D01*
X267174Y38985D01*
X268383Y38744D01*
X269615D01*
X270824Y38985D01*
X271962Y39456D01*
X272987Y40141D01*
X273858Y41012D01*
X274543Y42037D01*
X275014Y43175D01*
X275255Y44384D01*
Y45616D01*
X275014Y46825D01*
X274543Y47963D01*
X273858Y48988D01*
X272987Y49859D01*
X271962Y50544D01*
X270824Y51016D01*
X269615Y51256D01*
D02*
G37*
G36*
X250255D02*
X237743D01*
Y38744D01*
X250255D01*
Y51256D01*
D02*
G37*
G36*
X641891Y75450D02*
X639211D01*
X636553Y75100D01*
X633964Y74406D01*
X631487Y73380D01*
X629165Y72040D01*
X627039Y70408D01*
X625143Y68512D01*
X623511Y66386D01*
X622171Y64064D01*
X621145Y61588D01*
X620451Y58998D01*
X620101Y56340D01*
Y53660D01*
X620451Y51002D01*
X621145Y48412D01*
X622171Y45936D01*
X623511Y43614D01*
X625143Y41488D01*
X627039Y39592D01*
X629165Y37960D01*
X631487Y36620D01*
X633964Y35594D01*
X636553Y34900D01*
X639211Y34550D01*
X641891D01*
X644549Y34900D01*
X647139Y35594D01*
X649615Y36620D01*
X651937Y37960D01*
X654064Y39592D01*
X655959Y41488D01*
X657591Y43614D01*
X658932Y45936D01*
X659957Y48412D01*
X660651Y51002D01*
X661001Y53660D01*
Y56340D01*
X660651Y58998D01*
X659957Y61588D01*
X658932Y64064D01*
X657591Y66386D01*
X655959Y68512D01*
X654064Y70408D01*
X651937Y72040D01*
X649615Y73380D01*
X647139Y74406D01*
X644549Y75100D01*
X641891Y75450D01*
D02*
G37*
G36*
X51340D02*
X48660D01*
X46002Y75100D01*
X43413Y74406D01*
X40936Y73380D01*
X38614Y72040D01*
X36487Y70408D01*
X34592Y68512D01*
X32960Y66386D01*
X31620Y64064D01*
X30594Y61588D01*
X29900Y58998D01*
X29550Y56340D01*
Y53660D01*
X29900Y51002D01*
X30594Y48412D01*
X31620Y45936D01*
X32960Y43614D01*
X34592Y41488D01*
X36487Y39592D01*
X38614Y37960D01*
X40936Y36620D01*
X43413Y35594D01*
X46002Y34900D01*
X48660Y34550D01*
X51340D01*
X53998Y34900D01*
X56587Y35594D01*
X59064Y36620D01*
X61386Y37960D01*
X63512Y39592D01*
X65408Y41488D01*
X67040Y43614D01*
X68380Y45936D01*
X69406Y48412D01*
X70100Y51002D01*
X70450Y53660D01*
Y56340D01*
X70100Y58998D01*
X69406Y61588D01*
X68380Y64064D01*
X67040Y66386D01*
X65408Y68512D01*
X63512Y70408D01*
X61386Y72040D01*
X59064Y73380D01*
X56587Y74406D01*
X53998Y75100D01*
X51340Y75450D01*
D02*
G37*
G36*
X562303Y40095D02*
X561004D01*
X559748Y39758D01*
X558622Y39108D01*
X557703Y38189D01*
X557053Y37063D01*
X556716Y35807D01*
Y34508D01*
X557053Y33252D01*
X557703Y32126D01*
X558622Y31207D01*
X559748Y30557D01*
X561004Y30220D01*
X562303D01*
X563559Y30557D01*
X564685Y31207D01*
X565604Y32126D01*
X566254Y33252D01*
X566591Y34508D01*
Y35807D01*
X566254Y37063D01*
X565604Y38189D01*
X564685Y39108D01*
X563559Y39758D01*
X562303Y40095D01*
D02*
G37*
G36*
X518996D02*
X517697D01*
X516441Y39758D01*
X515315Y39108D01*
X514396Y38189D01*
X513746Y37063D01*
X513410Y35807D01*
Y34508D01*
X513746Y33252D01*
X514396Y32126D01*
X515315Y31207D01*
X516441Y30557D01*
X517697Y30220D01*
X518996D01*
X520252Y30557D01*
X521378Y31207D01*
X522297Y32126D01*
X522947Y33252D01*
X523283Y34508D01*
Y35807D01*
X522947Y37063D01*
X522297Y38189D01*
X521378Y39108D01*
X520252Y39758D01*
X518996Y40095D01*
D02*
G37*
G36*
X457303D02*
X456004D01*
X454748Y39758D01*
X453622Y39108D01*
X452703Y38189D01*
X452053Y37063D01*
X451717Y35807D01*
Y34508D01*
X452053Y33252D01*
X452703Y32126D01*
X453622Y31207D01*
X454748Y30557D01*
X456004Y30220D01*
X457303D01*
X458559Y30557D01*
X459685Y31207D01*
X460604Y32126D01*
X461254Y33252D01*
X461591Y34508D01*
Y35807D01*
X461254Y37063D01*
X460604Y38189D01*
X459685Y39108D01*
X458559Y39758D01*
X457303Y40095D01*
D02*
G37*
G36*
X413996D02*
X412697D01*
X411441Y39758D01*
X410315Y39108D01*
X409396Y38189D01*
X408746Y37063D01*
X408410Y35807D01*
Y34508D01*
X408746Y33252D01*
X409396Y32126D01*
X410315Y31207D01*
X411441Y30557D01*
X412697Y30220D01*
X413996D01*
X415252Y30557D01*
X416378Y31207D01*
X417297Y32126D01*
X417947Y33252D01*
X418284Y34508D01*
Y35807D01*
X417947Y37063D01*
X417297Y38189D01*
X416378Y39108D01*
X415252Y39758D01*
X413996Y40095D01*
D02*
G37*
G36*
X212998Y31850D02*
X212102D01*
X211276Y31508D01*
X210643Y30874D01*
X210300Y30048D01*
Y29152D01*
X210643Y28326D01*
X211276Y27692D01*
X212102Y27350D01*
X212998D01*
X213825Y27692D01*
X214458Y28326D01*
X214800Y29152D01*
Y30048D01*
X214458Y30874D01*
X213825Y31508D01*
X212998Y31850D01*
D02*
G37*
G36*
X360408Y504550D02*
X359592D01*
X358839Y504238D01*
X358262Y503661D01*
X357950Y502908D01*
Y502092D01*
X358262Y501339D01*
X358839Y500762D01*
X359592Y500450D01*
X360408D01*
X361161Y500762D01*
X361738Y501339D01*
X362050Y502092D01*
Y502908D01*
X361738Y503661D01*
X361161Y504238D01*
X360408Y504550D01*
D02*
G37*
G36*
X355408D02*
X354592D01*
X353839Y504238D01*
X353262Y503661D01*
X352950Y502908D01*
Y502092D01*
X353262Y501339D01*
X353839Y500762D01*
X354592Y500450D01*
X355408D01*
X356161Y500762D01*
X356738Y501339D01*
X357050Y502092D01*
Y502908D01*
X356738Y503661D01*
X356161Y504238D01*
X355408Y504550D01*
D02*
G37*
G36*
X350408D02*
X349592D01*
X348839Y504238D01*
X348262Y503661D01*
X347950Y502908D01*
Y502092D01*
X348262Y501339D01*
X348839Y500762D01*
X349592Y500450D01*
X350408D01*
X351161Y500762D01*
X351738Y501339D01*
X352050Y502092D01*
Y502908D01*
X351738Y503661D01*
X351161Y504238D01*
X350408Y504550D01*
D02*
G37*
G36*
X360408Y492050D02*
X359592D01*
X358839Y491738D01*
X358750Y491649D01*
X358661Y491738D01*
X357908Y492050D01*
X357092D01*
X356339Y491738D01*
X355762Y491161D01*
X355450Y490408D01*
Y489592D01*
X355762Y488839D01*
X356339Y488262D01*
X357092Y487950D01*
X357908D01*
X358661Y488262D01*
X358750Y488351D01*
X358839Y488262D01*
X359592Y487950D01*
X360408D01*
X361161Y488262D01*
X361738Y488839D01*
X362050Y489592D01*
Y490408D01*
X361738Y491161D01*
X361161Y491738D01*
X360408Y492050D01*
D02*
G37*
G36*
X347908Y497050D02*
X347092D01*
X346339Y496738D01*
X345762Y496161D01*
X345450Y495408D01*
Y494592D01*
X345762Y493839D01*
X345851Y493750D01*
X345762Y493661D01*
X345450Y492908D01*
Y492092D01*
X345762Y491339D01*
X346339Y490762D01*
X347092Y490450D01*
X347908D01*
X348661Y490762D01*
X349238Y491339D01*
X349550Y492092D01*
Y492908D01*
X349238Y493661D01*
X349149Y493750D01*
X349238Y493839D01*
X349550Y494592D01*
Y495408D01*
X349238Y496161D01*
X348661Y496738D01*
X347908Y497050D01*
D02*
G37*
G36*
Y489550D02*
X347092D01*
X346339Y489238D01*
X345762Y488661D01*
X345450Y487908D01*
Y487092D01*
X345762Y486339D01*
X345851Y486250D01*
X345762Y486161D01*
X345450Y485408D01*
Y484592D01*
X345762Y483839D01*
X346339Y483262D01*
X347092Y482950D01*
X347908D01*
X348661Y483262D01*
X349238Y483839D01*
X349550Y484592D01*
Y485408D01*
X349238Y486161D01*
X349149Y486250D01*
X349238Y486339D01*
X349550Y487092D01*
Y487908D01*
X349238Y488661D01*
X348661Y489238D01*
X347908Y489550D01*
D02*
G37*
G36*
X403676Y464737D02*
X396324D01*
X400000Y461061D01*
X403676Y464737D01*
D02*
G37*
G36*
X395263Y463676D02*
Y456324D01*
X398939Y460000D01*
X395263Y463676D01*
D02*
G37*
G36*
X404737Y463676D02*
X401061Y460000D01*
X404737Y456324D01*
Y463676D01*
D02*
G37*
G36*
X400000Y458939D02*
X396324Y455263D01*
X403676D01*
X400000Y458939D01*
D02*
G37*
G36*
X390624Y464737D02*
X389376D01*
X388172Y464414D01*
X387091Y463791D01*
X386210Y462909D01*
X385586Y461828D01*
X385263Y460624D01*
Y459376D01*
X385586Y458172D01*
X386210Y457091D01*
X387091Y456210D01*
X388172Y455586D01*
X389376Y455263D01*
X390624D01*
X391828Y455586D01*
X392909Y456210D01*
X393791Y457091D01*
X394414Y458172D01*
X394737Y459376D01*
Y460624D01*
X394414Y461828D01*
X393791Y462909D01*
X392909Y463791D01*
X391828Y464414D01*
X390624Y464737D01*
D02*
G37*
G36*
X380624D02*
X379376D01*
X378172Y464414D01*
X377091Y463791D01*
X376209Y462909D01*
X375586Y461828D01*
X375263Y460624D01*
Y459376D01*
X375586Y458172D01*
X376209Y457091D01*
X377091Y456210D01*
X378172Y455586D01*
X379376Y455263D01*
X380624D01*
X381828Y455586D01*
X382909Y456210D01*
X383790Y457091D01*
X384414Y458172D01*
X384737Y459376D01*
Y460624D01*
X384414Y461828D01*
X383790Y462909D01*
X382909Y463791D01*
X381828Y464414D01*
X380624Y464737D01*
D02*
G37*
G36*
X345236Y450911D02*
X343268D01*
X342288Y450782D01*
X341375Y450404D01*
X340591Y449802D01*
X339990Y449018D01*
X339612Y448106D01*
X339526Y447453D01*
X339504Y447290D01*
X339000D01*
X338978Y447453D01*
X338892Y448106D01*
X338514Y449018D01*
X338373Y449202D01*
X336297Y447126D01*
X338373Y445050D01*
X338514Y445233D01*
X338892Y446146D01*
X338978Y446799D01*
X339000Y446962D01*
X339504D01*
X339526Y446799D01*
X339612Y446146D01*
X339990Y445233D01*
X340591Y444450D01*
X341375Y443848D01*
X342288Y443470D01*
X343268Y443341D01*
X345236D01*
X346216Y443470D01*
X347129Y443848D01*
X347913Y444450D01*
X348514Y445233D01*
X348892Y446146D01*
X349021Y447126D01*
X348892Y448106D01*
X348514Y449018D01*
X347913Y449802D01*
X347129Y450404D01*
X346216Y450782D01*
X345236Y450911D01*
D02*
G37*
G36*
X240408Y504550D02*
X239592D01*
X238839Y504238D01*
X238262Y503661D01*
X237950Y502908D01*
Y502092D01*
X238262Y501339D01*
X238839Y500762D01*
X239592Y500450D01*
X240408D01*
X241161Y500762D01*
X241738Y501339D01*
X242050Y502092D01*
Y502908D01*
X241738Y503661D01*
X241161Y504238D01*
X240408Y504550D01*
D02*
G37*
G36*
X235408D02*
X234592D01*
X233839Y504238D01*
X233262Y503661D01*
X232950Y502908D01*
Y502092D01*
X233262Y501339D01*
X233839Y500762D01*
X234592Y500450D01*
X235408D01*
X236161Y500762D01*
X236738Y501339D01*
X237050Y502092D01*
Y502908D01*
X236738Y503661D01*
X236161Y504238D01*
X235408Y504550D01*
D02*
G37*
G36*
X230408D02*
X229592D01*
X228839Y504238D01*
X228262Y503661D01*
X227950Y502908D01*
Y502092D01*
X228262Y501339D01*
X228839Y500762D01*
X229592Y500450D01*
X230408D01*
X231161Y500762D01*
X231738Y501339D01*
X232050Y502092D01*
Y502908D01*
X231738Y503661D01*
X231161Y504238D01*
X230408Y504550D01*
D02*
G37*
G36*
X240408Y492050D02*
X239592D01*
X238839Y491738D01*
X238750Y491649D01*
X238661Y491738D01*
X237908Y492050D01*
X237092D01*
X236339Y491738D01*
X235762Y491161D01*
X235450Y490408D01*
Y489592D01*
X235762Y488839D01*
X236339Y488262D01*
X237092Y487950D01*
X237908D01*
X238661Y488262D01*
X238750Y488351D01*
X238839Y488262D01*
X239592Y487950D01*
X240408D01*
X241161Y488262D01*
X241738Y488839D01*
X242050Y489592D01*
Y490408D01*
X241738Y491161D01*
X241161Y491738D01*
X240408Y492050D01*
D02*
G37*
G36*
X227908Y497050D02*
X227092D01*
X226339Y496738D01*
X225762Y496161D01*
X225450Y495408D01*
Y494592D01*
X225762Y493839D01*
X225851Y493750D01*
X225762Y493661D01*
X225450Y492908D01*
Y492092D01*
X225762Y491339D01*
X226339Y490762D01*
X227092Y490450D01*
X227908D01*
X228661Y490762D01*
X229238Y491339D01*
X229550Y492092D01*
Y492908D01*
X229238Y493661D01*
X229149Y493750D01*
X229238Y493839D01*
X229550Y494592D01*
Y495408D01*
X229238Y496161D01*
X228661Y496738D01*
X227908Y497050D01*
D02*
G37*
G36*
Y489550D02*
X227092D01*
X226339Y489238D01*
X225762Y488661D01*
X225450Y487908D01*
Y487092D01*
X225762Y486339D01*
X225851Y486250D01*
X225762Y486161D01*
X225450Y485408D01*
Y484592D01*
X225762Y483839D01*
X226339Y483262D01*
X227092Y482950D01*
X227908D01*
X228661Y483262D01*
X229238Y483839D01*
X229550Y484592D01*
Y485408D01*
X229238Y486161D01*
X229149Y486250D01*
X229238Y486339D01*
X229550Y487092D01*
Y487908D01*
X229238Y488661D01*
X228661Y489238D01*
X227908Y489550D01*
D02*
G37*
G36*
X283676Y464737D02*
X276324D01*
X280000Y461061D01*
X283676Y464737D01*
D02*
G37*
G36*
X275263Y463676D02*
Y456324D01*
X278939Y460000D01*
X275263Y463676D01*
D02*
G37*
G36*
X284737Y463676D02*
X281061Y460000D01*
X284737Y456324D01*
Y463676D01*
D02*
G37*
G36*
X280000Y458939D02*
X276324Y455263D01*
X283676D01*
X280000Y458939D01*
D02*
G37*
G36*
X270624Y464737D02*
X269376D01*
X268172Y464414D01*
X267091Y463791D01*
X266210Y462909D01*
X265586Y461828D01*
X265263Y460624D01*
Y459376D01*
X265586Y458172D01*
X266210Y457091D01*
X267091Y456210D01*
X268172Y455586D01*
X269376Y455263D01*
X270624D01*
X271828Y455586D01*
X272909Y456210D01*
X273791Y457091D01*
X274414Y458172D01*
X274737Y459376D01*
Y460624D01*
X274414Y461828D01*
X273791Y462909D01*
X272909Y463791D01*
X271828Y464414D01*
X270624Y464737D01*
D02*
G37*
G36*
X260624D02*
X259376D01*
X258172Y464414D01*
X257091Y463791D01*
X256209Y462909D01*
X255586Y461828D01*
X255263Y460624D01*
Y459376D01*
X255586Y458172D01*
X256209Y457091D01*
X257091Y456210D01*
X258172Y455586D01*
X259376Y455263D01*
X260624D01*
X261828Y455586D01*
X262909Y456210D01*
X263790Y457091D01*
X264414Y458172D01*
X264737Y459376D01*
Y460624D01*
X264414Y461828D01*
X263790Y462909D01*
X262909Y463791D01*
X261828Y464414D01*
X260624Y464737D01*
D02*
G37*
G36*
X225236Y450911D02*
X223268D01*
X222288Y450782D01*
X221375Y450404D01*
X220591Y449802D01*
X219990Y449018D01*
X219612Y448106D01*
X219526Y447453D01*
X219504Y447290D01*
X219000D01*
X218978Y447453D01*
X218892Y448106D01*
X218514Y449018D01*
X218373Y449202D01*
X216297Y447126D01*
X218373Y445050D01*
X218514Y445233D01*
X218892Y446146D01*
X218978Y446799D01*
X219000Y446962D01*
X219504D01*
X219526Y446799D01*
X219612Y446146D01*
X219990Y445233D01*
X220591Y444450D01*
X221375Y443848D01*
X222288Y443470D01*
X223268Y443341D01*
X225236D01*
X226216Y443470D01*
X227129Y443848D01*
X227913Y444450D01*
X228514Y445233D01*
X228892Y446146D01*
X229021Y447126D01*
X228892Y448106D01*
X228514Y449018D01*
X227913Y449802D01*
X227129Y450404D01*
X226216Y450782D01*
X225236Y450911D01*
D02*
G37*
G36*
X120408Y504550D02*
X119592D01*
X118839Y504238D01*
X118262Y503661D01*
X117950Y502908D01*
Y502092D01*
X118262Y501339D01*
X118839Y500762D01*
X119592Y500450D01*
X120408D01*
X121161Y500762D01*
X121738Y501339D01*
X122050Y502092D01*
Y502908D01*
X121738Y503661D01*
X121161Y504238D01*
X120408Y504550D01*
D02*
G37*
G36*
X115408D02*
X114592D01*
X113839Y504238D01*
X113262Y503661D01*
X112950Y502908D01*
Y502092D01*
X113262Y501339D01*
X113839Y500762D01*
X114592Y500450D01*
X115408D01*
X116161Y500762D01*
X116738Y501339D01*
X117050Y502092D01*
Y502908D01*
X116738Y503661D01*
X116161Y504238D01*
X115408Y504550D01*
D02*
G37*
G36*
X110408D02*
X109592D01*
X108839Y504238D01*
X108262Y503661D01*
X107950Y502908D01*
Y502092D01*
X108262Y501339D01*
X108839Y500762D01*
X109592Y500450D01*
X110408D01*
X111161Y500762D01*
X111738Y501339D01*
X112050Y502092D01*
Y502908D01*
X111738Y503661D01*
X111161Y504238D01*
X110408Y504550D01*
D02*
G37*
G36*
X120408Y492050D02*
X119592D01*
X118839Y491738D01*
X118750Y491649D01*
X118661Y491738D01*
X117908Y492050D01*
X117092D01*
X116339Y491738D01*
X115762Y491161D01*
X115450Y490408D01*
Y489592D01*
X115762Y488839D01*
X116339Y488262D01*
X117092Y487950D01*
X117908D01*
X118661Y488262D01*
X118750Y488351D01*
X118839Y488262D01*
X119592Y487950D01*
X120408D01*
X121161Y488262D01*
X121738Y488839D01*
X122050Y489592D01*
Y490408D01*
X121738Y491161D01*
X121161Y491738D01*
X120408Y492050D01*
D02*
G37*
G36*
X107908Y497050D02*
X107092D01*
X106339Y496738D01*
X105762Y496161D01*
X105450Y495408D01*
Y494592D01*
X105762Y493839D01*
X105851Y493750D01*
X105762Y493661D01*
X105450Y492908D01*
Y492092D01*
X105762Y491339D01*
X106339Y490762D01*
X107092Y490450D01*
X107908D01*
X108661Y490762D01*
X109238Y491339D01*
X109550Y492092D01*
Y492908D01*
X109238Y493661D01*
X109149Y493750D01*
X109238Y493839D01*
X109550Y494592D01*
Y495408D01*
X109238Y496161D01*
X108661Y496738D01*
X107908Y497050D01*
D02*
G37*
G36*
Y489550D02*
X107092D01*
X106339Y489238D01*
X105762Y488661D01*
X105450Y487908D01*
Y487092D01*
X105762Y486339D01*
X105851Y486250D01*
X105762Y486161D01*
X105450Y485408D01*
Y484592D01*
X105762Y483839D01*
X106339Y483262D01*
X107092Y482950D01*
X107908D01*
X108661Y483262D01*
X109238Y483839D01*
X109550Y484592D01*
Y485408D01*
X109238Y486161D01*
X109149Y486250D01*
X109238Y486339D01*
X109550Y487092D01*
Y487908D01*
X109238Y488661D01*
X108661Y489238D01*
X107908Y489550D01*
D02*
G37*
G36*
X163676Y464737D02*
X156324D01*
X160000Y461061D01*
X163676Y464737D01*
D02*
G37*
G36*
X155263Y463676D02*
Y456324D01*
X158939Y460000D01*
X155263Y463676D01*
D02*
G37*
G36*
X164737Y463676D02*
X161061Y460000D01*
X164737Y456324D01*
Y463676D01*
D02*
G37*
G36*
X160000Y458939D02*
X156324Y455263D01*
X163676D01*
X160000Y458939D01*
D02*
G37*
G36*
X150624Y464737D02*
X149376D01*
X148172Y464414D01*
X147091Y463791D01*
X146209Y462909D01*
X145586Y461828D01*
X145263Y460624D01*
Y459376D01*
X145586Y458172D01*
X146209Y457091D01*
X147091Y456210D01*
X148172Y455586D01*
X149376Y455263D01*
X150624D01*
X151828Y455586D01*
X152909Y456210D01*
X153791Y457091D01*
X154414Y458172D01*
X154737Y459376D01*
Y460624D01*
X154414Y461828D01*
X153791Y462909D01*
X152909Y463791D01*
X151828Y464414D01*
X150624Y464737D01*
D02*
G37*
G36*
X140624D02*
X139376D01*
X138172Y464414D01*
X137091Y463791D01*
X136209Y462909D01*
X135586Y461828D01*
X135263Y460624D01*
Y459376D01*
X135586Y458172D01*
X136209Y457091D01*
X137091Y456210D01*
X138172Y455586D01*
X139376Y455263D01*
X140624D01*
X141828Y455586D01*
X142909Y456210D01*
X143791Y457091D01*
X144414Y458172D01*
X144737Y459376D01*
Y460624D01*
X144414Y461828D01*
X143791Y462909D01*
X142909Y463791D01*
X141828Y464414D01*
X140624Y464737D01*
D02*
G37*
G36*
X105236Y450911D02*
X103268D01*
X102288Y450782D01*
X101375Y450404D01*
X100591Y449802D01*
X99990Y449018D01*
X99612Y448106D01*
X99526Y447453D01*
X99504Y447290D01*
X99000D01*
X98978Y447453D01*
X98892Y448106D01*
X98514Y449018D01*
X98373Y449202D01*
X96297Y447126D01*
X98373Y445050D01*
X98514Y445233D01*
X98892Y446146D01*
X98978Y446799D01*
X99000Y446962D01*
X99504D01*
X99526Y446799D01*
X99612Y446146D01*
X99990Y445233D01*
X100591Y444450D01*
X101375Y443848D01*
X102288Y443470D01*
X103268Y443341D01*
X105236D01*
X106216Y443470D01*
X107129Y443848D01*
X107913Y444450D01*
X108514Y445233D01*
X108892Y446146D01*
X109021Y447126D01*
X108892Y448106D01*
X108514Y449018D01*
X107913Y449802D01*
X107129Y450404D01*
X106216Y450782D01*
X105236Y450911D01*
D02*
G37*
%LPD*%
D83*
X55551Y213307D02*
D03*
X63425D02*
D03*
X71299D02*
D03*
X79173D02*
D03*
X87047D02*
D03*
X94921D02*
D03*
X102795D02*
D03*
X110669D02*
D03*
X118543D02*
D03*
X126417D02*
D03*
Y126693D02*
D03*
X118543D02*
D03*
X110669D02*
D03*
X102795D02*
D03*
X94921D02*
D03*
X87047D02*
D03*
X79173D02*
D03*
X71299D02*
D03*
X63425D02*
D03*
D84*
X55551D02*
D03*
D106*
X590138Y528917D02*
D03*
X569862D02*
D03*
X590138Y549193D02*
D03*
X569862D02*
D03*
X470138Y528917D02*
D03*
X449862D02*
D03*
X470138Y549193D02*
D03*
X449862D02*
D03*
X350138Y528917D02*
D03*
X329862D02*
D03*
X350138Y549193D02*
D03*
X329862D02*
D03*
X230138Y528917D02*
D03*
X209862D02*
D03*
X230138Y549193D02*
D03*
X209862D02*
D03*
X110138Y528917D02*
D03*
X89862D02*
D03*
X110138Y549193D02*
D03*
X89862D02*
D03*
D107*
X580000Y539055D02*
D03*
X460000D02*
D03*
X340000D02*
D03*
X220000D02*
D03*
X100000D02*
D03*
D111*
X640551Y291220D02*
D03*
X640551Y55000D02*
D03*
X50000D02*
D03*
Y527441D02*
D03*
D125*
X176476Y274095D02*
D03*
D126*
X333957Y313465D02*
D03*
D127*
Y234724D02*
D03*
D128*
X464252Y447126D02*
D03*
X454252D02*
D03*
X444252D02*
D03*
X434252D02*
D03*
X344252D02*
D03*
X334252D02*
D03*
X324252D02*
D03*
X314252D02*
D03*
X224252D02*
D03*
X214252D02*
D03*
X204252D02*
D03*
X194252D02*
D03*
X104252D02*
D03*
X94252D02*
D03*
X84252D02*
D03*
X74252D02*
D03*
D129*
X380000Y305000D02*
D03*
X500000Y385000D02*
D03*
Y375000D02*
D03*
Y365000D02*
D03*
Y355000D02*
D03*
Y345000D02*
D03*
Y335000D02*
D03*
Y325000D02*
D03*
X380000Y365000D02*
D03*
Y355000D02*
D03*
Y345000D02*
D03*
Y335000D02*
D03*
Y325000D02*
D03*
Y315000D02*
D03*
Y375000D02*
D03*
D130*
X580000Y160000D02*
D03*
X485000D02*
D03*
D131*
X580000Y170000D02*
D03*
Y180000D02*
D03*
Y190000D02*
D03*
Y200000D02*
D03*
Y210000D02*
D03*
Y220000D02*
D03*
Y230000D02*
D03*
Y240000D02*
D03*
Y250000D02*
D03*
Y260000D02*
D03*
Y270000D02*
D03*
X485000Y170000D02*
D03*
Y180000D02*
D03*
Y190000D02*
D03*
Y200000D02*
D03*
Y210000D02*
D03*
Y220000D02*
D03*
Y230000D02*
D03*
Y240000D02*
D03*
Y250000D02*
D03*
Y260000D02*
D03*
Y270000D02*
D03*
D132*
X630000Y140402D02*
D03*
D133*
Y132500D02*
D03*
X190000Y397500D02*
D03*
X190402Y355000D02*
D03*
D134*
X620000Y460000D02*
D03*
X630000D02*
D03*
X620000Y530000D02*
D03*
X630000D02*
D03*
X518347Y35157D02*
D03*
X561654D02*
D03*
X500000Y460000D02*
D03*
X510000D02*
D03*
X500000Y530000D02*
D03*
X510000D02*
D03*
X413346Y35157D02*
D03*
X456653D02*
D03*
X380000Y460000D02*
D03*
X390000D02*
D03*
X380000Y530000D02*
D03*
X390000D02*
D03*
X260000Y460000D02*
D03*
X270000D02*
D03*
X260000Y530000D02*
D03*
X270000D02*
D03*
X140000Y460000D02*
D03*
X150000D02*
D03*
X140000Y530000D02*
D03*
X150000D02*
D03*
D135*
X640000Y460000D02*
D03*
Y530000D02*
D03*
X520000Y460000D02*
D03*
Y530000D02*
D03*
X400000Y460000D02*
D03*
Y530000D02*
D03*
X280000Y460000D02*
D03*
Y530000D02*
D03*
X160000Y460000D02*
D03*
Y530000D02*
D03*
D136*
X610000Y375000D02*
D03*
X620000D02*
D03*
X610000Y365000D02*
D03*
X620000D02*
D03*
X610000Y355000D02*
D03*
X620000D02*
D03*
X610000Y345000D02*
D03*
X620000D02*
D03*
X610000Y335000D02*
D03*
X620000D02*
D03*
X610000Y325000D02*
D03*
X540000Y315000D02*
D03*
X550000Y325000D02*
D03*
X540000D02*
D03*
X550000Y335000D02*
D03*
X540000D02*
D03*
X550000Y345000D02*
D03*
X540000D02*
D03*
X550000Y355000D02*
D03*
X540000D02*
D03*
X550000Y365000D02*
D03*
X540000D02*
D03*
X550000Y375000D02*
D03*
X540000D02*
D03*
X550000Y385000D02*
D03*
X540000D02*
D03*
X550000Y395000D02*
D03*
X540000D02*
D03*
X550000Y405000D02*
D03*
X540000D02*
D03*
X550000Y415000D02*
D03*
X540000D02*
D03*
X550000Y425000D02*
D03*
X540000D02*
D03*
X550000Y435000D02*
D03*
X540000D02*
D03*
D137*
X620000Y325000D02*
D03*
X550000Y315000D02*
D03*
D138*
X549843Y74528D02*
D03*
X444842D02*
D03*
D139*
X530158D02*
D03*
X425157D02*
D03*
X428189Y243504D02*
D03*
Y173425D02*
D03*
Y351575D02*
D03*
Y281496D02*
D03*
D140*
X430000Y225000D02*
D03*
X408347D02*
D03*
X430000Y208465D02*
D03*
Y191929D02*
D03*
Y333071D02*
D03*
X408347D02*
D03*
X430000Y316535D02*
D03*
Y300000D02*
D03*
D141*
X408347Y208465D02*
D03*
Y316535D02*
D03*
D142*
Y191929D02*
D03*
Y300000D02*
D03*
D143*
X243999Y45000D02*
D03*
D144*
X268999D02*
D03*
X293999D02*
D03*
X318999D02*
D03*
D145*
X182098Y397500D02*
D03*
X182500Y355000D02*
D03*
D146*
X49488Y301378D02*
D03*
Y278622D02*
D03*
D147*
X51457Y272992D02*
D03*
Y307008D02*
D03*
D148*
X35000Y272992D02*
D03*
Y307008D02*
D03*
D149*
X605000Y101000D02*
D03*
Y111500D02*
D03*
Y107000D02*
D03*
X608000Y104000D02*
D03*
X611000Y101000D02*
D03*
Y107000D02*
D03*
X604500Y116500D02*
D03*
X611339Y96738D02*
D03*
X217000Y27050D02*
D03*
X212550Y29600D02*
D03*
X30000Y412500D02*
D03*
Y400000D02*
D03*
X209500Y158500D02*
D03*
X218950Y189500D02*
D03*
X222500D02*
D03*
X240000Y200000D02*
D03*
X640000Y400000D02*
D03*
X650000Y380000D02*
D03*
X640000Y360000D02*
D03*
X650000Y340000D02*
D03*
X640000Y320000D02*
D03*
Y240000D02*
D03*
X650000Y220000D02*
D03*
X640000Y200000D02*
D03*
X650000Y180000D02*
D03*
X640000Y160000D02*
D03*
X650000Y140000D02*
D03*
Y100000D02*
D03*
X640000Y80000D02*
D03*
X620000Y400000D02*
D03*
X630000Y380000D02*
D03*
Y340000D02*
D03*
X620000Y240000D02*
D03*
X630000Y220000D02*
D03*
X620000Y200000D02*
D03*
X630000Y180000D02*
D03*
X620000Y160000D02*
D03*
Y80000D02*
D03*
Y40000D02*
D03*
X600000Y400000D02*
D03*
Y160000D02*
D03*
X610000Y140000D02*
D03*
X600000Y80000D02*
D03*
X610000Y60000D02*
D03*
X600000Y40000D02*
D03*
X580000Y400000D02*
D03*
X590000Y380000D02*
D03*
X580000Y360000D02*
D03*
X590000Y300000D02*
D03*
Y220000D02*
D03*
Y60000D02*
D03*
X580000Y40000D02*
D03*
X570000Y380000D02*
D03*
Y340000D02*
D03*
Y300000D02*
D03*
Y220000D02*
D03*
Y60000D02*
D03*
X540000Y520000D02*
D03*
Y280000D02*
D03*
X550000Y260000D02*
D03*
X540000Y240000D02*
D03*
X550000Y220000D02*
D03*
X540000Y200000D02*
D03*
X550000Y180000D02*
D03*
Y60000D02*
D03*
X540000Y40000D02*
D03*
X520000Y360000D02*
D03*
Y240000D02*
D03*
X530000Y220000D02*
D03*
X520000Y200000D02*
D03*
X530000Y180000D02*
D03*
X510000Y380000D02*
D03*
Y220000D02*
D03*
X500000Y200000D02*
D03*
X510000Y60000D02*
D03*
X500000Y40000D02*
D03*
X490000Y380000D02*
D03*
X480000Y360000D02*
D03*
Y40000D02*
D03*
X470000Y380000D02*
D03*
X460000Y240000D02*
D03*
X470000Y220000D02*
D03*
X460000Y120000D02*
D03*
Y80000D02*
D03*
X450000Y380000D02*
D03*
X430000Y540000D02*
D03*
X420000Y520000D02*
D03*
X400000Y400000D02*
D03*
Y160000D02*
D03*
Y80000D02*
D03*
X380000Y400000D02*
D03*
Y240000D02*
D03*
X390000Y180000D02*
D03*
X380000Y160000D02*
D03*
Y80000D02*
D03*
X390000Y60000D02*
D03*
X380000Y40000D02*
D03*
X360000Y400000D02*
D03*
X370000Y380000D02*
D03*
X360000Y360000D02*
D03*
X370000Y340000D02*
D03*
Y100000D02*
D03*
X360000Y80000D02*
D03*
X370000Y60000D02*
D03*
X360000Y40000D02*
D03*
X350000Y380000D02*
D03*
Y340000D02*
D03*
X340000Y200000D02*
D03*
X350000Y180000D02*
D03*
X340000Y160000D02*
D03*
X350000Y140000D02*
D03*
Y60000D02*
D03*
X340000Y40000D02*
D03*
X320000Y400000D02*
D03*
Y360000D02*
D03*
X330000Y340000D02*
D03*
Y220000D02*
D03*
X310000Y540000D02*
D03*
X300000Y520000D02*
D03*
X310000Y380000D02*
D03*
Y340000D02*
D03*
X300000Y240000D02*
D03*
X310000Y220000D02*
D03*
Y180000D02*
D03*
X300000Y160000D02*
D03*
X310000Y140000D02*
D03*
X290000Y380000D02*
D03*
X280000Y360000D02*
D03*
X290000Y340000D02*
D03*
X280000Y320000D02*
D03*
Y240000D02*
D03*
X290000Y220000D02*
D03*
X280000Y200000D02*
D03*
X290000Y180000D02*
D03*
X280000Y160000D02*
D03*
X260000Y400000D02*
D03*
Y320000D02*
D03*
Y240000D02*
D03*
X270000Y220000D02*
D03*
X260000Y200000D02*
D03*
X270000Y180000D02*
D03*
X240000Y400000D02*
D03*
Y360000D02*
D03*
X250000Y340000D02*
D03*
X240000Y320000D02*
D03*
Y240000D02*
D03*
X250000Y220000D02*
D03*
Y180000D02*
D03*
X220000Y400000D02*
D03*
X230000Y380000D02*
D03*
X220000Y360000D02*
D03*
Y320000D02*
D03*
Y240000D02*
D03*
X230000Y180000D02*
D03*
Y140000D02*
D03*
X210000Y340000D02*
D03*
X200000Y320000D02*
D03*
Y240000D02*
D03*
X210000Y220000D02*
D03*
X200000Y200000D02*
D03*
Y160000D02*
D03*
Y120000D02*
D03*
Y80000D02*
D03*
Y40000D02*
D03*
X190000Y540000D02*
D03*
X180000Y520000D02*
D03*
X190000Y380000D02*
D03*
X180000Y320000D02*
D03*
X190000Y220000D02*
D03*
X180000Y200000D02*
D03*
X190000Y180000D02*
D03*
X180000Y160000D02*
D03*
X190000Y140000D02*
D03*
X180000Y120000D02*
D03*
X190000Y100000D02*
D03*
X180000Y80000D02*
D03*
X190000Y60000D02*
D03*
X180000Y40000D02*
D03*
X160000Y400000D02*
D03*
X170000Y380000D02*
D03*
X160000Y360000D02*
D03*
X170000Y340000D02*
D03*
X160000Y320000D02*
D03*
Y280000D02*
D03*
Y240000D02*
D03*
Y200000D02*
D03*
X170000Y180000D02*
D03*
X160000Y160000D02*
D03*
X170000Y140000D02*
D03*
X160000Y120000D02*
D03*
X170000Y100000D02*
D03*
X160000Y80000D02*
D03*
X170000Y60000D02*
D03*
X160000Y40000D02*
D03*
X140000Y400000D02*
D03*
X150000Y380000D02*
D03*
X140000Y360000D02*
D03*
X150000Y340000D02*
D03*
X140000Y320000D02*
D03*
Y280000D02*
D03*
Y240000D02*
D03*
X150000Y220000D02*
D03*
Y180000D02*
D03*
X140000Y160000D02*
D03*
X150000Y140000D02*
D03*
X140000Y120000D02*
D03*
X150000Y100000D02*
D03*
X140000Y80000D02*
D03*
X150000Y60000D02*
D03*
X140000Y40000D02*
D03*
X120000Y400000D02*
D03*
X130000Y380000D02*
D03*
X120000Y360000D02*
D03*
X130000Y340000D02*
D03*
X120000Y320000D02*
D03*
Y240000D02*
D03*
X130000Y220000D02*
D03*
X120000Y200000D02*
D03*
Y160000D02*
D03*
X130000Y140000D02*
D03*
Y100000D02*
D03*
X120000Y80000D02*
D03*
X130000Y60000D02*
D03*
X120000Y40000D02*
D03*
X100000Y400000D02*
D03*
X110000Y380000D02*
D03*
X100000Y360000D02*
D03*
X110000Y340000D02*
D03*
X100000Y320000D02*
D03*
X110000Y260000D02*
D03*
X100000Y240000D02*
D03*
Y200000D02*
D03*
X110000Y180000D02*
D03*
Y140000D02*
D03*
X100000Y120000D02*
D03*
X110000Y100000D02*
D03*
X100000Y80000D02*
D03*
X110000Y60000D02*
D03*
X100000Y40000D02*
D03*
X80000Y400000D02*
D03*
X90000Y380000D02*
D03*
Y260000D02*
D03*
X80000Y240000D02*
D03*
X90000Y220000D02*
D03*
X80000Y200000D02*
D03*
X90000Y180000D02*
D03*
X80000Y160000D02*
D03*
X90000Y100000D02*
D03*
X80000Y80000D02*
D03*
X90000Y60000D02*
D03*
X80000Y40000D02*
D03*
X70000Y380000D02*
D03*
X60000Y360000D02*
D03*
X70000Y260000D02*
D03*
X60000Y240000D02*
D03*
Y200000D02*
D03*
X70000Y180000D02*
D03*
Y140000D02*
D03*
Y100000D02*
D03*
X60000Y80000D02*
D03*
X50000Y500000D02*
D03*
X40000Y480000D02*
D03*
X50000Y460000D02*
D03*
Y380000D02*
D03*
X40000Y320000D02*
D03*
Y280000D02*
D03*
X50000Y260000D02*
D03*
X40000Y240000D02*
D03*
X50000Y220000D02*
D03*
X40000Y200000D02*
D03*
X50000Y180000D02*
D03*
X40000Y160000D02*
D03*
Y120000D02*
D03*
X50000Y100000D02*
D03*
X40000Y80000D02*
D03*
X340000Y245000D02*
D03*
Y250000D02*
D03*
X335000Y255000D02*
D03*
X345000D02*
D03*
X335000Y250000D02*
D03*
X340000Y255000D02*
D03*
X48500Y346000D02*
D03*
X356000Y219000D02*
D03*
X366000Y273000D02*
D03*
X367550Y155000D02*
D03*
X445000Y120000D02*
D03*
X440000D02*
D03*
X615063Y117945D02*
D03*
X567500Y280000D02*
D03*
X562500Y285000D02*
D03*
X567500D02*
D03*
X572500D02*
D03*
X332000Y301500D02*
D03*
X529500Y440000D02*
D03*
X372550Y182000D02*
D03*
Y178500D02*
D03*
X305734Y290920D02*
D03*
X545500Y291500D02*
D03*
X542000Y294950D02*
D03*
X580000Y475000D02*
D03*
X232500Y285000D02*
D03*
X212500Y278000D02*
D03*
X350000Y310000D02*
D03*
X345000D02*
D03*
Y315000D02*
D03*
Y305000D02*
D03*
X140408Y264550D02*
D03*
X120000Y261000D02*
D03*
X127500Y254000D02*
D03*
X317406Y252000D02*
D03*
X380500Y147000D02*
D03*
X389500Y225000D02*
D03*
X349500Y247450D02*
D03*
X352500Y195000D02*
D03*
X349950Y205000D02*
D03*
X359824Y251379D02*
D03*
Y147450D02*
D03*
X363500Y276000D02*
D03*
X372500Y279000D02*
D03*
X346090Y271096D02*
D03*
X332396Y277518D02*
D03*
X330616Y280532D02*
D03*
X344500Y267000D02*
D03*
X349000Y274500D02*
D03*
X371000Y264950D02*
D03*
X334908Y282950D02*
D03*
X334908Y287050D02*
D03*
X317550Y270000D02*
D03*
X205000Y275050D02*
D03*
X315000D02*
D03*
X250000Y150000D02*
D03*
X515000Y330000D02*
D03*
Y340000D02*
D03*
X197500Y272500D02*
D03*
X192500Y282500D02*
D03*
X372500Y140000D02*
D03*
X398000Y106000D02*
D03*
X475500Y284500D02*
D03*
X477500Y286500D02*
D03*
X473500D02*
D03*
Y282500D02*
D03*
X417500Y287500D02*
D03*
X232500Y247500D02*
D03*
X317500Y160000D02*
D03*
X135000Y257500D02*
D03*
X532500Y447500D02*
D03*
X562500Y144500D02*
D03*
X302500Y205000D02*
D03*
X447500Y122500D02*
D03*
X445000D02*
D03*
X450000Y120000D02*
D03*
X447500D02*
D03*
X442500Y122500D02*
D03*
X450000D02*
D03*
X405000Y97500D02*
D03*
X400000D02*
D03*
X575000Y465000D02*
D03*
X580000Y470000D02*
D03*
Y465000D02*
D03*
X517000Y101000D02*
D03*
X514500D02*
D03*
X552500Y135000D02*
D03*
X210000Y210000D02*
D03*
X300000Y293000D02*
D03*
X334000Y300000D02*
D03*
X337500Y360000D02*
D03*
X267500D02*
D03*
X277500Y390000D02*
D03*
X347500D02*
D03*
X56500Y409500D02*
D03*
X60000Y401000D02*
D03*
X65000Y405000D02*
D03*
X345000Y250000D02*
D03*
X555000Y482500D02*
D03*
X565000D02*
D03*
X560000Y487500D02*
D03*
X565000Y492500D02*
D03*
X555000D02*
D03*
X420000Y427500D02*
D03*
X425000Y422500D02*
D03*
X180000Y427500D02*
D03*
X185000Y422500D02*
D03*
X60000Y427500D02*
D03*
X65000Y422500D02*
D03*
X70000Y482500D02*
D03*
X310000D02*
D03*
X487500Y502500D02*
D03*
Y510000D02*
D03*
Y512500D02*
D03*
X467500Y485000D02*
D03*
Y495000D02*
D03*
X470000Y502500D02*
D03*
X475000D02*
D03*
X480000D02*
D03*
X435000D02*
D03*
X432500D02*
D03*
X430000D02*
D03*
X435000Y477500D02*
D03*
Y482500D02*
D03*
X432500Y480000D02*
D03*
X430000Y482500D02*
D03*
Y477500D02*
D03*
Y507500D02*
D03*
Y512500D02*
D03*
X432500Y510000D02*
D03*
X435000Y512500D02*
D03*
Y507500D02*
D03*
X430000Y492500D02*
D03*
X432500Y487500D02*
D03*
X467500Y492500D02*
D03*
X487500Y500000D02*
D03*
X467500Y487500D02*
D03*
X475000Y477500D02*
D03*
Y480000D02*
D03*
X487500Y490000D02*
D03*
Y487500D02*
D03*
X480000Y490000D02*
D03*
X487500Y480000D02*
D03*
X477500Y490000D02*
D03*
X487500Y477500D02*
D03*
X480000Y480000D02*
D03*
Y477500D02*
D03*
X367500Y502500D02*
D03*
Y510000D02*
D03*
Y512500D02*
D03*
X347500Y485000D02*
D03*
Y495000D02*
D03*
X350000Y502500D02*
D03*
X355000D02*
D03*
X360000D02*
D03*
X315000D02*
D03*
X312500D02*
D03*
X310000D02*
D03*
X315000Y477500D02*
D03*
Y482500D02*
D03*
X312500Y480000D02*
D03*
X310000Y477500D02*
D03*
Y507500D02*
D03*
Y512500D02*
D03*
X312500Y510000D02*
D03*
X315000Y512500D02*
D03*
Y507500D02*
D03*
X310000Y492500D02*
D03*
X312500Y487500D02*
D03*
X347500Y492500D02*
D03*
X367500Y500000D02*
D03*
X347500Y487500D02*
D03*
X355000Y477500D02*
D03*
Y480000D02*
D03*
X367500Y490000D02*
D03*
Y487500D02*
D03*
X360000Y490000D02*
D03*
X367500Y480000D02*
D03*
X357500Y490000D02*
D03*
X367500Y477500D02*
D03*
X360000Y480000D02*
D03*
Y477500D02*
D03*
X247500Y502500D02*
D03*
Y510000D02*
D03*
Y512500D02*
D03*
X227500Y485000D02*
D03*
Y495000D02*
D03*
X230000Y502500D02*
D03*
X235000D02*
D03*
X240000D02*
D03*
X195000D02*
D03*
X192500D02*
D03*
X190000D02*
D03*
X195000Y477500D02*
D03*
Y482500D02*
D03*
X192500Y480000D02*
D03*
X190000Y482500D02*
D03*
Y477500D02*
D03*
Y507500D02*
D03*
Y512500D02*
D03*
X192500Y510000D02*
D03*
X195000Y512500D02*
D03*
Y507500D02*
D03*
X190000Y492500D02*
D03*
X192500Y487500D02*
D03*
X227500Y492500D02*
D03*
X247500Y500000D02*
D03*
X227500Y487500D02*
D03*
X235000Y477500D02*
D03*
Y480000D02*
D03*
X247500Y490000D02*
D03*
Y487500D02*
D03*
X240000Y490000D02*
D03*
X247500Y480000D02*
D03*
X237500Y490000D02*
D03*
X247500Y477500D02*
D03*
X240000Y480000D02*
D03*
Y477500D02*
D03*
X120000D02*
D03*
Y480000D02*
D03*
X127500Y477500D02*
D03*
X117500Y490000D02*
D03*
X127500Y480000D02*
D03*
X120000Y490000D02*
D03*
X127500Y487500D02*
D03*
Y490000D02*
D03*
X115000Y480000D02*
D03*
Y477500D02*
D03*
X107500Y487500D02*
D03*
X127500Y500000D02*
D03*
X107500Y492500D02*
D03*
X72500Y487500D02*
D03*
X70000Y492500D02*
D03*
X305000Y422500D02*
D03*
X300000Y427500D02*
D03*
X75000Y507500D02*
D03*
Y512500D02*
D03*
X72500Y510000D02*
D03*
X70000Y512500D02*
D03*
Y507500D02*
D03*
Y477500D02*
D03*
X72500Y480000D02*
D03*
X75000Y482500D02*
D03*
Y477500D02*
D03*
X70000Y502500D02*
D03*
X72500D02*
D03*
X75000D02*
D03*
X120000D02*
D03*
X115000D02*
D03*
X110000D02*
D03*
X107500Y495000D02*
D03*
Y485000D02*
D03*
X127500Y512500D02*
D03*
Y510000D02*
D03*
Y502500D02*
D03*
X477500Y282500D02*
D03*
X334000Y309000D02*
D03*
X330000D02*
D03*
X332000Y307000D02*
D03*
X334000Y305000D02*
D03*
X330000D02*
D03*
Y300000D02*
D03*
X274000Y161000D02*
D03*
X270000Y165000D02*
D03*
X334500Y108500D02*
D03*
X295000Y125000D02*
D03*
X297500D02*
D03*
X295000Y122500D02*
D03*
Y120000D02*
D03*
X300000Y125000D02*
D03*
X260000D02*
D03*
X262500D02*
D03*
X260000Y122500D02*
D03*
Y120000D02*
D03*
X265000Y125000D02*
D03*
X230000D02*
D03*
X225000Y120000D02*
D03*
Y122500D02*
D03*
X227500Y125000D02*
D03*
X225000D02*
D03*
X540000Y95000D02*
D03*
X537500D02*
D03*
Y97500D02*
D03*
X540000D02*
D03*
Y102500D02*
D03*
X537500Y100000D02*
D03*
X540000D02*
D03*
X555000Y107500D02*
D03*
X552500D02*
D03*
X550000D02*
D03*
X547500D02*
D03*
X545000D02*
D03*
X442500Y120000D02*
D03*
X440000Y122500D02*
D03*
X60000Y283000D02*
D03*
Y295000D02*
D03*
X350000Y305000D02*
D03*
X278000Y108000D02*
D03*
X271000Y151000D02*
D03*
X267974Y151056D02*
D03*
X278000Y105000D02*
D03*
X243000Y108000D02*
D03*
Y105000D02*
D03*
X331500Y99000D02*
D03*
X327500Y95000D02*
D03*
X318500Y99000D02*
D03*
X322500Y95000D02*
D03*
X267000Y146500D02*
D03*
X240000Y137500D02*
D03*
X238000Y139500D02*
D03*
X239500Y143500D02*
D03*
Y146000D02*
D03*
X334500Y112559D02*
D03*
X305000Y112500D02*
D03*
X302500D02*
D03*
Y120000D02*
D03*
X305000D02*
D03*
X235000Y112500D02*
D03*
X232500D02*
D03*
Y120000D02*
D03*
X235000D02*
D03*
X270000D02*
D03*
X267500D02*
D03*
Y112500D02*
D03*
X270000D02*
D03*
M02*
