G04*
G04 #@! TF.GenerationSoftware,Altium Limited,Altium Designer,22.10.1 (41)*
G04*
G04 Layer_Color=32768*
%FSLAX25Y25*%
%MOIN*%
G70*
G04*
G04 #@! TF.SameCoordinates,F9F3A06B-563E-4FCB-9898-75D578650021*
G04*
G04*
G04 #@! TF.FilePolarity,Positive*
G04*
G01*
G75*
%ADD14C,0.01000*%
%ADD163C,0.00197*%
%ADD164C,0.00394*%
D14*
X25000Y25000D02*
X664921D01*
X25000Y556496D02*
X664921D01*
Y25000D02*
Y556496D01*
X25000Y25000D02*
Y556496D01*
D163*
X563630Y188276D02*
Y201724D01*
X571370Y188276D02*
Y201724D01*
X563630D02*
X571370D01*
X563630Y188276D02*
X571370D01*
X468630D02*
Y201724D01*
X476370Y188276D02*
Y201724D01*
X468630D02*
X476370D01*
X468630Y188276D02*
X476370D01*
X600610Y95079D02*
X614390D01*
X600610Y79921D02*
X614390D01*
X600610D02*
Y95079D01*
X614390Y79921D02*
Y95079D01*
X602496Y97478D02*
Y119722D01*
X574504D02*
X602496D01*
X574504Y97478D02*
Y119722D01*
Y97478D02*
X602496D01*
X47185Y131161D02*
Y142697D01*
X52815Y131161D02*
Y142697D01*
X47185D02*
X52815D01*
X47185Y131161D02*
X52815D01*
X320965Y318189D02*
X358760D01*
X320965Y230000D02*
Y318189D01*
Y230000D02*
X358760D01*
Y318189D01*
X216110Y186610D02*
Y200390D01*
X200953Y186610D02*
Y200390D01*
X216110D01*
X200953Y186610D02*
X216110D01*
X504646Y112087D02*
X535354D01*
X504646Y97913D02*
X535354D01*
X504646D02*
Y112087D01*
X535354Y97913D02*
Y112087D01*
X435394Y515669D02*
X464606D01*
X435394Y474331D02*
X464606D01*
X435394D02*
Y515669D01*
X464606Y474331D02*
Y515669D01*
X399646Y112087D02*
X430354D01*
X399646Y97913D02*
X430354D01*
X399646D02*
Y112087D01*
X430354Y97913D02*
Y112087D01*
X315394Y515669D02*
X344606D01*
X315394Y474331D02*
X344606D01*
X315394D02*
Y515669D01*
X344606Y474331D02*
Y515669D01*
X293789Y107738D02*
X295600D01*
Y103997D02*
Y107738D01*
Y103997D02*
X312056D01*
Y107738D01*
X313867D01*
Y119942D01*
X312056D02*
X313867D01*
X312056D02*
Y123682D01*
X295600D02*
X312056D01*
X295600Y119942D02*
Y123682D01*
X293789Y119942D02*
X295600D01*
X293789Y107738D02*
Y119942D01*
X258788Y107738D02*
X260599D01*
Y103997D02*
Y107738D01*
Y103997D02*
X277056D01*
Y107738D01*
X278867D01*
Y119942D01*
X277056D02*
X278867D01*
X277056D02*
Y123682D01*
X260599D02*
X277056D01*
X260599Y119942D02*
Y123682D01*
X258788Y119942D02*
X260599D01*
X258788Y107738D02*
Y119942D01*
X223788Y107738D02*
X225600D01*
Y103997D02*
Y107738D01*
Y103997D02*
X242056D01*
Y107738D01*
X243867D01*
Y119942D01*
X242056D02*
X243867D01*
X242056D02*
Y123682D01*
X225600D02*
X242056D01*
X225600Y119942D02*
Y123682D01*
X223788Y119942D02*
X225600D01*
X223788Y107738D02*
Y119942D01*
X195394Y515669D02*
X224606D01*
X195394Y474331D02*
X224606D01*
X195394D02*
Y515669D01*
X224606Y474331D02*
Y515669D01*
X75394D02*
X104606D01*
X75394Y474331D02*
X104606D01*
X75394D02*
Y515669D01*
X104606Y474331D02*
Y515669D01*
X616606Y272752D02*
X628142D01*
X616606Y267122D02*
X628142D01*
X616606D02*
Y272752D01*
X628142Y267122D02*
Y272752D01*
X62185Y287303D02*
Y298839D01*
X67815Y287303D02*
Y298839D01*
X62185D02*
X67815D01*
X62185Y287303D02*
X67815D01*
X62248Y274358D02*
Y285894D01*
X67878Y274358D02*
Y285894D01*
X62248D02*
X67878D01*
X62248Y274358D02*
X67878D01*
X212752Y366606D02*
Y378142D01*
X207122Y366606D02*
Y378142D01*
Y366606D02*
X212752D01*
X207122Y378142D02*
X212752D01*
Y394106D02*
Y405642D01*
X207122Y394106D02*
Y405642D01*
Y394106D02*
X212752D01*
X207122Y405642D02*
X212752D01*
X212248Y201858D02*
Y213394D01*
X217878Y201858D02*
Y213394D01*
X212248D02*
X217878D01*
X212248Y201858D02*
X217878D01*
X212248Y174358D02*
Y185894D01*
X217878Y174358D02*
Y185894D01*
X212248D02*
X217878D01*
X212248Y174358D02*
X217878D01*
X647852Y109058D02*
Y120594D01*
X642222Y109058D02*
Y120594D01*
X647852D01*
X642222Y109058D02*
X647852D01*
X637048Y109106D02*
Y120642D01*
X642678Y109106D02*
Y120642D01*
X637048Y109106D02*
X642678D01*
X637048Y120642D02*
X642678D01*
X622348Y254106D02*
Y265642D01*
X627978Y254106D02*
Y265642D01*
X622348Y254106D02*
X627978D01*
X622348Y265642D02*
X627978D01*
X617248Y254106D02*
Y265642D01*
X622878Y254106D02*
Y265642D01*
X617248Y254106D02*
X622878D01*
X617248Y265642D02*
X622878D01*
X614106Y252752D02*
X625642D01*
X614106Y247122D02*
X625642D01*
X614106D02*
Y252752D01*
X625642Y247122D02*
Y252752D01*
X612248Y109106D02*
Y120642D01*
X617878Y109106D02*
Y120642D01*
X612248Y109106D02*
X617878D01*
X612248Y120642D02*
X617878D01*
X612048Y254106D02*
Y265642D01*
X617678Y254106D02*
Y265642D01*
X612048Y254106D02*
X617678D01*
X612048Y265642D02*
X617678D01*
X607048Y109106D02*
Y120642D01*
X612678Y109106D02*
Y120642D01*
X607048Y109106D02*
X612678D01*
X607048Y120642D02*
X612678D01*
X589358Y282248D02*
X600894D01*
X589358Y287878D02*
X600894D01*
Y282248D02*
Y287878D01*
X589358Y282248D02*
Y287878D01*
X589106Y497752D02*
X600642D01*
X589106Y492122D02*
X600642D01*
X589106D02*
Y497752D01*
X600642Y492122D02*
Y497752D01*
X589106Y487752D02*
X600642D01*
X589106Y482122D02*
X600642D01*
X589106D02*
Y487752D01*
X600642Y482122D02*
Y487752D01*
X587815Y466161D02*
Y477697D01*
X582185Y466161D02*
Y477697D01*
X587815D01*
X582185Y466161D02*
X587815D01*
X554106Y137752D02*
X565642D01*
X554106Y132122D02*
X565642D01*
X554106D02*
Y137752D01*
X565642Y132122D02*
Y137752D01*
X554058Y137248D02*
X565594D01*
X554058Y142878D02*
X565594D01*
Y137248D02*
Y142878D01*
X554058Y137248D02*
Y142878D01*
X547248Y449106D02*
Y460642D01*
X552878Y449106D02*
Y460642D01*
X547248Y449106D02*
X552878D01*
X547248Y460642D02*
X552878D01*
X542362Y94803D02*
X557638D01*
Y125197D01*
X542362D02*
X557638D01*
X542362Y94803D02*
Y125197D01*
X527348Y254106D02*
Y265642D01*
X532978Y254106D02*
Y265642D01*
X527348Y254106D02*
X532978D01*
X527348Y265642D02*
X532978D01*
X524106Y137752D02*
X535642D01*
X524106Y132122D02*
X535642D01*
X524106D02*
Y137752D01*
X535642Y132122D02*
Y137752D01*
X522248Y254106D02*
Y265642D01*
X527878Y254106D02*
Y265642D01*
X522248Y254106D02*
X527878D01*
X522248Y265642D02*
X527878D01*
X519106Y252752D02*
X530642D01*
X519106Y247122D02*
X530642D01*
X519106D02*
Y252752D01*
X530642Y247122D02*
Y252752D01*
X521606Y272752D02*
X533142D01*
X521606Y267122D02*
X533142D01*
X521606D02*
Y272752D01*
X533142Y267122D02*
Y272752D01*
X491858Y104748D02*
X503394D01*
X491858Y110378D02*
X503394D01*
Y104748D02*
Y110378D01*
X491858Y104748D02*
Y110378D01*
X494358Y282248D02*
X505894D01*
X494358Y287878D02*
X505894D01*
Y282248D02*
Y287878D01*
X494358Y282248D02*
Y287878D01*
X469358Y482248D02*
X480894D01*
X469358Y487878D02*
X480894D01*
Y482248D02*
Y487878D01*
X469358Y482248D02*
Y487878D01*
Y492248D02*
X480894D01*
X469358Y497878D02*
X480894D01*
Y492248D02*
Y497878D01*
X469358Y492248D02*
Y497878D01*
X437362Y117697D02*
X452638D01*
X437362Y87303D02*
Y117697D01*
Y87303D02*
X452638D01*
Y117697D01*
X397752Y94358D02*
Y105894D01*
X392122Y94358D02*
Y105894D01*
X397752D01*
X392122Y94358D02*
X397752D01*
X369358Y177248D02*
X380894D01*
X369358Y182878D02*
X380894D01*
Y177248D02*
Y182878D01*
X369358Y177248D02*
Y182878D01*
X369106Y202652D02*
X380642D01*
X369106Y197022D02*
X380642D01*
X369106D02*
Y202652D01*
X380642Y197022D02*
Y202652D01*
X369106Y207752D02*
X380642D01*
X369106Y202122D02*
X380642D01*
X369106D02*
Y207752D01*
X380642Y202122D02*
Y207752D01*
X369106Y212952D02*
X380642D01*
X369106Y207322D02*
X380642D01*
X369106D02*
Y212952D01*
X380642Y207322D02*
Y212952D01*
X349358Y482248D02*
X360894D01*
X349358Y487878D02*
X360894D01*
Y482248D02*
Y487878D01*
X349358Y482248D02*
Y487878D01*
Y492248D02*
X360894D01*
X349358Y497878D02*
X360894D01*
Y492248D02*
Y497878D01*
X349358Y492248D02*
Y497878D01*
X334358Y387248D02*
X345894D01*
X334358Y392878D02*
X345894D01*
Y387248D02*
Y392878D01*
X334358Y387248D02*
Y392878D01*
X324685Y96161D02*
Y107697D01*
X330315Y96161D02*
Y107697D01*
X324685Y96161D02*
X330315D01*
X324685Y107697D02*
X330315D01*
X325252Y96158D02*
Y107694D01*
X319622Y96158D02*
Y107694D01*
X325252D01*
X319622Y96158D02*
X325252D01*
X298858Y127248D02*
X310394D01*
X298858Y132878D02*
X310394D01*
Y127248D02*
Y132878D01*
X298858Y127248D02*
Y132878D01*
X272815Y152303D02*
Y163839D01*
X267185Y152303D02*
Y163839D01*
X272815D01*
X267185Y152303D02*
X272815D01*
X264358Y387248D02*
X275894D01*
X264358Y392878D02*
X275894D01*
Y387248D02*
Y392878D01*
X264358Y387248D02*
Y392878D01*
X263858Y127248D02*
X275394D01*
X263858Y132878D02*
X275394D01*
Y127248D02*
Y132878D01*
X263858Y127248D02*
Y132878D01*
X261848Y152306D02*
Y163842D01*
X267478Y152306D02*
Y163842D01*
X261848Y152306D02*
X267478D01*
X261848Y163842D02*
X267478D01*
X245748Y135806D02*
Y147342D01*
X251378Y135806D02*
Y147342D01*
X245748Y135806D02*
X251378D01*
X245748Y147342D02*
X251378D01*
X246304Y135851D02*
Y147386D01*
X240674Y135851D02*
Y147386D01*
X246304D01*
X240674Y135851D02*
X246304D01*
X229358Y482248D02*
X240894D01*
X229358Y487878D02*
X240894D01*
Y482248D02*
Y487878D01*
X229358Y482248D02*
Y487878D01*
Y492248D02*
X240894D01*
X229358Y497878D02*
X240894D01*
Y492248D02*
Y497878D01*
X229358Y492248D02*
Y497878D01*
X228858Y127248D02*
X240394D01*
X228858Y132878D02*
X240394D01*
Y127248D02*
Y132878D01*
X228858Y127248D02*
Y132878D01*
X209748Y351606D02*
Y363142D01*
X215378Y351606D02*
Y363142D01*
X209748Y351606D02*
X215378D01*
X209748Y363142D02*
X215378D01*
X109358Y482248D02*
X120894D01*
X109358Y487878D02*
X120894D01*
Y482248D02*
Y487878D01*
X109358Y482248D02*
Y487878D01*
Y492248D02*
X120894D01*
X109358Y497878D02*
X120894D01*
Y492248D02*
Y497878D01*
X109358Y492248D02*
Y497878D01*
X79358Y282248D02*
X90894D01*
X79358Y287878D02*
X90894D01*
Y282248D02*
Y287878D01*
X79358Y282248D02*
Y287878D01*
Y288748D02*
X90894D01*
X79358Y294378D02*
X90894D01*
Y288748D02*
Y294378D01*
X79358Y288748D02*
Y294378D01*
X209390Y379610D02*
Y393390D01*
X224547Y379610D02*
Y393390D01*
X209390Y379610D02*
X224547D01*
X209390Y393390D02*
X224547D01*
X563110Y477579D02*
X576890D01*
X563110Y462421D02*
X576890D01*
Y477579D01*
X563110Y462421D02*
Y477579D01*
X319252Y107638D02*
Y117480D01*
Y107638D02*
X332756D01*
Y117480D01*
X319252D02*
X332756D01*
X251752Y142520D02*
Y152362D01*
Y142520D02*
X265256D01*
Y152362D01*
X251752D02*
X265256D01*
X571220Y150728D02*
Y279272D01*
X608819D01*
Y150728D02*
Y279272D01*
X571220Y150728D02*
X608819D01*
X476221D02*
Y279272D01*
X513819D01*
Y150728D02*
Y279272D01*
X476221Y150728D02*
X513819D01*
X617402Y149260D02*
X637874D01*
Y123642D02*
Y149260D01*
X617402Y123642D02*
X637874D01*
X617402D02*
Y149260D01*
X439350Y166142D02*
Y250787D01*
X398996D02*
X439350D01*
X398996Y166142D02*
Y250787D01*
Y166142D02*
X439350D01*
Y274213D02*
Y358858D01*
X398996D02*
X439350D01*
X398996Y274213D02*
Y358858D01*
Y274213D02*
X439350D01*
X228015Y60984D02*
X334983D01*
Y28858D02*
Y60984D01*
X228015Y29016D02*
X334983Y28858D01*
X228015Y29016D02*
Y60984D01*
X173240Y384902D02*
Y405374D01*
X198858D01*
Y384902D02*
Y405374D01*
X173240Y384902D02*
X198858D01*
X173642Y342402D02*
Y362874D01*
X199260D01*
Y342402D02*
Y362874D01*
X173642Y342402D02*
X199260D01*
X89249Y323472D02*
Y380559D01*
X34524D02*
X89249D01*
X34524D02*
Y381740D01*
X25076D02*
X34524D01*
X25076Y368748D02*
Y381740D01*
Y368748D02*
X30194D01*
Y329969D02*
Y368748D01*
X29013Y329969D02*
X30194D01*
X29013Y322488D02*
Y329969D01*
Y322488D02*
X38461D01*
Y323472D01*
X89249D01*
X25216Y421339D02*
X49035D01*
X25216Y392598D02*
Y421339D01*
Y392598D02*
X49035D01*
Y421339D01*
X56968Y269921D02*
Y310079D01*
X23779Y269921D02*
X56968D01*
X23779D02*
Y310079D01*
X56968D01*
X626102Y93858D02*
Y106142D01*
X613898Y93858D02*
Y106142D01*
Y93858D02*
X626102D01*
X613898Y106142D02*
X626102D01*
X554095Y281221D02*
X565906D01*
X554095Y258780D02*
X565906D01*
Y281221D01*
X554095Y258780D02*
Y281221D01*
X459094D02*
X470905D01*
X459094Y258780D02*
X470905D01*
Y281221D01*
X459094Y258780D02*
Y281221D01*
X375079Y184095D02*
X384921D01*
Y195905D01*
X375079D02*
X384921D01*
X375079Y184095D02*
Y195905D01*
X284472Y105748D02*
Y124252D01*
X293527D01*
Y105748D02*
Y124252D01*
X284472Y105748D02*
X293527D01*
X249471D02*
Y124252D01*
X258527D01*
Y105748D02*
Y124252D01*
X249471Y105748D02*
X258527D01*
X214472D02*
Y124252D01*
X223527D01*
Y105748D02*
Y124252D01*
X214472Y105748D02*
X223527D01*
X320768Y297185D02*
Y302815D01*
X309232Y297185D02*
Y302815D01*
Y297185D02*
X320768D01*
X309232Y302815D02*
X320768D01*
Y307185D02*
Y312815D01*
X309232Y307185D02*
Y312815D01*
Y307185D02*
X320768D01*
X309232Y312815D02*
X320768D01*
X565768Y252185D02*
Y257815D01*
X554232Y252185D02*
Y257815D01*
X565768D01*
X554232Y252185D02*
X565768D01*
X537185Y115768D02*
X542815D01*
X537185Y104232D02*
X542815D01*
X537185D02*
Y115768D01*
X542815Y104232D02*
Y115768D01*
X470768Y252185D02*
Y257815D01*
X459232Y252185D02*
Y257815D01*
X470768D01*
X459232Y252185D02*
X470768D01*
X453276Y431130D02*
X466724D01*
X453276Y438870D02*
X466724D01*
X453276Y431130D02*
Y438870D01*
X466724Y431130D02*
Y438870D01*
X433276D02*
X446724D01*
X433276Y431130D02*
X446724D01*
Y438870D01*
X433276Y431130D02*
Y438870D01*
X430185Y108268D02*
X435815D01*
X430185Y96732D02*
X435815D01*
X430185D02*
Y108268D01*
X435815Y96732D02*
Y108268D01*
X333276Y431130D02*
X346724D01*
X333276Y438870D02*
X346724D01*
X333276Y431130D02*
Y438870D01*
X346724Y431130D02*
Y438870D01*
X335768Y357185D02*
Y362815D01*
X324232Y357185D02*
Y362815D01*
X335768D01*
X324232Y357185D02*
X335768D01*
X313276Y438870D02*
X326724D01*
X313276Y431130D02*
X326724D01*
Y438870D01*
X313276Y431130D02*
Y438870D01*
X299268Y127185D02*
Y132815D01*
X287732Y127185D02*
Y132815D01*
X299268D01*
X287732Y127185D02*
X299268D01*
X265768Y357185D02*
Y362815D01*
X254232Y357185D02*
Y362815D01*
X265768D01*
X254232Y357185D02*
X265768D01*
X264268Y127185D02*
Y132815D01*
X252732Y127185D02*
Y132815D01*
X264268D01*
X252732Y127185D02*
X264268D01*
X229268D02*
Y132815D01*
X217732Y127185D02*
Y132815D01*
X229268D01*
X217732Y127185D02*
X229268D01*
X213276Y431130D02*
X226724D01*
X213276Y438870D02*
X226724D01*
X213276Y431130D02*
Y438870D01*
X226724Y431130D02*
Y438870D01*
X193276D02*
X206724D01*
X193276Y431130D02*
X206724D01*
Y438870D01*
X193276Y431130D02*
Y438870D01*
X93276Y431130D02*
X106724D01*
X93276Y438870D02*
X106724D01*
X93276Y431130D02*
Y438870D01*
X106724Y431130D02*
Y438870D01*
X73276D02*
X86724D01*
X73276Y431130D02*
X86724D01*
Y438870D01*
X73276Y431130D02*
Y438870D01*
X57185Y280768D02*
X62815D01*
X57185Y269232D02*
X62815D01*
X57185D02*
Y280768D01*
X62815Y269232D02*
Y280768D01*
X49685Y406732D02*
X55315D01*
X49685Y418268D02*
X55315D01*
Y406732D02*
Y418268D01*
X49685Y406732D02*
Y418268D01*
Y348268D02*
X55315D01*
X49685Y336732D02*
X55315D01*
X49685D02*
Y348268D01*
X55315Y336732D02*
Y348268D01*
D164*
X607500Y85532D02*
Y89468D01*
X605532Y87500D02*
X609469D01*
X206563Y193500D02*
X210500D01*
X208531Y191532D02*
Y195468D01*
X520000Y103032D02*
Y106968D01*
X518032Y105000D02*
X521969D01*
X415000Y103032D02*
Y106968D01*
X413031Y105000D02*
X416968D01*
X215000Y386500D02*
X218937D01*
X216968Y384531D02*
Y388469D01*
X570000Y468032D02*
Y471969D01*
X568032Y470000D02*
X571969D01*
X618032Y100000D02*
X621969D01*
X620000Y98032D02*
Y101969D01*
X560000Y268032D02*
Y271969D01*
X558032Y270000D02*
X561969D01*
X465000Y268032D02*
Y271969D01*
X463031Y270000D02*
X466968D01*
M02*
