G04*
G04 #@! TF.GenerationSoftware,Altium Limited,Altium Designer,22.8.2 (66)*
G04*
G04 Layer_Color=255*
%FSLAX25Y25*%
%MOIN*%
G70*
G04*
G04 #@! TF.SameCoordinates,96B98669-0A76-488E-AF90-C307CBE701B7*
G04*
G04*
G04 #@! TF.FilePolarity,Positive*
G04*
G01*
G75*
%ADD25R,0.03661X0.03425*%
%ADD26R,0.03425X0.03661*%
%ADD28R,0.03937X0.02362*%
%ADD85C,0.05512*%
%ADD86R,0.05512X0.05512*%
%ADD87C,0.09646*%
%ADD88R,0.08465X0.08465*%
%ADD102C,0.07400*%
%ADD103C,0.06299*%
%ADD104C,0.04331*%
%ADD105C,0.13780*%
%ADD106O,0.07874X0.05906*%
%ADD107R,0.07874X0.07874*%
%ADD108C,0.07874*%
%ADD109R,0.07874X0.07874*%
%ADD110R,0.10512X0.10512*%
%ADD111C,0.10512*%
%ADD112C,0.11811*%
%ADD113R,0.09843X0.09843*%
%ADD114C,0.09843*%
%ADD115C,0.09843*%
%ADD116R,0.11811X0.11811*%
%ADD117C,0.03937*%
%ADD118R,0.04528X0.04528*%
%ADD119C,0.04528*%
%ADD120O,0.07874X0.03937*%
%ADD121O,0.08268X0.04134*%
%ADD122C,0.02559*%
%ADD123C,0.19685*%
%ADD126R,0.05512X0.05118*%
%ADD127R,0.03740X0.03937*%
%ADD128R,0.05906X0.03150*%
%ADD129R,0.07480X0.05512*%
D25*
X311024Y315827D02*
D03*
Y321969D02*
D03*
X271654Y315827D02*
D03*
Y321969D02*
D03*
X169291Y310315D02*
D03*
Y316457D02*
D03*
X255906Y270787D02*
D03*
Y264646D02*
D03*
D26*
X252835Y285433D02*
D03*
X258976D02*
D03*
D28*
X282677Y318898D02*
D03*
X292126Y315158D02*
D03*
Y322638D02*
D03*
D85*
X531496Y251969D02*
D03*
X523622D02*
D03*
X515748D02*
D03*
X507874D02*
D03*
X500000D02*
D03*
X492126D02*
D03*
X484252D02*
D03*
X476378D02*
D03*
X468504D02*
D03*
X460630D02*
D03*
Y338583D02*
D03*
X468504D02*
D03*
X476378D02*
D03*
X484252D02*
D03*
X492126D02*
D03*
X500000D02*
D03*
X507874D02*
D03*
X515748D02*
D03*
X523622D02*
D03*
D86*
X531496D02*
D03*
D87*
X248709Y133787D02*
D03*
X268984D02*
D03*
X248709Y113512D02*
D03*
X268984D02*
D03*
X369626Y132382D02*
D03*
X389902D02*
D03*
X369626Y112106D02*
D03*
X389902D02*
D03*
X487736Y132382D02*
D03*
X508012D02*
D03*
X487736Y112106D02*
D03*
X508012D02*
D03*
X722146Y132382D02*
D03*
X742421D02*
D03*
X722146Y112106D02*
D03*
X742421D02*
D03*
X603406Y132382D02*
D03*
X623681D02*
D03*
X603406Y112106D02*
D03*
X623681D02*
D03*
D88*
X258846Y123650D02*
D03*
X379764Y122244D02*
D03*
X497874D02*
D03*
X732283Y122244D02*
D03*
X613543Y122244D02*
D03*
D102*
X446220Y289449D02*
D03*
X506220D02*
D03*
X496220D02*
D03*
X486221D02*
D03*
X476221D02*
D03*
X466221D02*
D03*
X456220D02*
D03*
X496220Y409449D02*
D03*
X486221D02*
D03*
X476221D02*
D03*
X466221D02*
D03*
X456220D02*
D03*
X446220D02*
D03*
X436221D02*
D03*
X516221Y289449D02*
D03*
D103*
X231201Y344488D02*
D03*
D104*
Y265748D02*
D03*
D105*
X388681Y305118D02*
D03*
D106*
X274594Y217941D02*
D03*
X264595D02*
D03*
X254594D02*
D03*
X244595D02*
D03*
X395512Y217402D02*
D03*
X385512D02*
D03*
X375512D02*
D03*
X365512D02*
D03*
X513622Y216535D02*
D03*
X503622D02*
D03*
X493622D02*
D03*
X483622D02*
D03*
X629291Y216535D02*
D03*
X619291D02*
D03*
X609291D02*
D03*
X599291D02*
D03*
D107*
X131575Y344331D02*
D03*
X590551Y253937D02*
D03*
X195539Y184173D02*
D03*
X195539Y114173D02*
D03*
X318583Y184173D02*
D03*
X318583Y114173D02*
D03*
X436693Y184173D02*
D03*
X436693Y114173D02*
D03*
X668661D02*
D03*
X554173Y184173D02*
D03*
X668661Y184173D02*
D03*
X554173Y114173D02*
D03*
D108*
X151575Y354331D02*
D03*
Y344331D02*
D03*
X141575Y354331D02*
D03*
Y344331D02*
D03*
X131575Y354331D02*
D03*
X580551Y253937D02*
D03*
X645669Y362362D02*
D03*
X155512Y192318D02*
D03*
X171575Y364331D02*
D03*
X181575D02*
D03*
X171575Y354331D02*
D03*
X181575D02*
D03*
X171575Y344331D02*
D03*
X181575D02*
D03*
X171575Y334331D02*
D03*
X602362Y332677D02*
D03*
X588583Y295433D02*
D03*
X215539Y184173D02*
D03*
X205539D02*
D03*
X215539Y114173D02*
D03*
X205539D02*
D03*
X338583Y184173D02*
D03*
X328583D02*
D03*
X338583Y114173D02*
D03*
X328583D02*
D03*
X456693Y184173D02*
D03*
X446693D02*
D03*
X456693Y114173D02*
D03*
X446693D02*
D03*
X688661D02*
D03*
X678661D02*
D03*
X574173Y184173D02*
D03*
X564173D02*
D03*
X688661Y184173D02*
D03*
X678661D02*
D03*
X574173Y114173D02*
D03*
X564173D02*
D03*
D109*
X645669Y352362D02*
D03*
X155512Y202318D02*
D03*
X181575Y334331D02*
D03*
X602362Y322677D02*
D03*
X588583Y285433D02*
D03*
D110*
X203346Y480315D02*
D03*
D111*
X228346D02*
D03*
X253346D02*
D03*
X278346D02*
D03*
D112*
X673622Y462441D02*
D03*
X743701D02*
D03*
X673622Y413228D02*
D03*
X743701D02*
D03*
X726378Y277559D02*
D03*
Y358268D02*
D03*
D113*
X692126Y482283D02*
D03*
Y433071D02*
D03*
D114*
Y460630D02*
D03*
X708661D02*
D03*
X725197Y482283D02*
D03*
Y460630D02*
D03*
X692126Y411417D02*
D03*
X708661D02*
D03*
X725197Y433071D02*
D03*
Y411417D02*
D03*
D115*
X708661Y482283D02*
D03*
Y433071D02*
D03*
D116*
X726378Y297244D02*
D03*
Y377953D02*
D03*
D117*
X765748Y309055D02*
D03*
Y265748D02*
D03*
Y389764D02*
D03*
Y346457D02*
D03*
D118*
X631890Y366169D02*
D03*
D119*
Y358268D02*
D03*
D120*
X111496Y270905D02*
D03*
Y236890D02*
D03*
D121*
X127953Y270905D02*
D03*
Y236890D02*
D03*
D122*
X125984Y242520D02*
D03*
Y265276D02*
D03*
D123*
X759842Y116142D02*
D03*
X114173D02*
D03*
X281496Y448819D02*
D03*
D126*
X160236Y285630D02*
D03*
Y308071D02*
D03*
D127*
X161122Y291102D02*
D03*
D128*
X117480Y282441D02*
D03*
Y286772D02*
D03*
X116693Y291102D02*
D03*
X117480Y295433D02*
D03*
X116693Y299764D02*
D03*
X117480Y304095D02*
D03*
X119055Y308425D02*
D03*
X117480Y312756D02*
D03*
D129*
X108465Y279331D02*
D03*
X104528Y331102D02*
D03*
M02*
