G04*
G04 #@! TF.GenerationSoftware,Altium Limited,Altium Designer,22.8.2 (66)*
G04*
G04 Layer_Color=255*
%FSLAX25Y25*%
%MOIN*%
G70*
G04*
G04 #@! TF.SameCoordinates,96B98669-0A76-488E-AF90-C307CBE701B7*
G04*
G04*
G04 #@! TF.FilePolarity,Positive*
G04*
G01*
G75*
%ADD16C,0.10000*%
%ADD17R,0.06299X0.22441*%
G04:AMPARAMS|DCode=18|XSize=11.81mil|YSize=61.02mil|CornerRadius=0.89mil|HoleSize=0mil|Usage=FLASHONLY|Rotation=90.000|XOffset=0mil|YOffset=0mil|HoleType=Round|Shape=RoundedRectangle|*
%AMROUNDEDRECTD18*
21,1,0.01181,0.05925,0,0,90.0*
21,1,0.01004,0.06102,0,0,90.0*
1,1,0.00177,0.02963,0.00502*
1,1,0.00177,0.02963,-0.00502*
1,1,0.00177,-0.02963,-0.00502*
1,1,0.00177,-0.02963,0.00502*
%
%ADD18ROUNDEDRECTD18*%
G04:AMPARAMS|DCode=19|XSize=47.24mil|YSize=108.27mil|CornerRadius=3.54mil|HoleSize=0mil|Usage=FLASHONLY|Rotation=90.000|XOffset=0mil|YOffset=0mil|HoleType=Round|Shape=RoundedRectangle|*
%AMROUNDEDRECTD19*
21,1,0.04724,0.10118,0,0,90.0*
21,1,0.04016,0.10827,0,0,90.0*
1,1,0.00709,0.05059,0.02008*
1,1,0.00709,0.05059,-0.02008*
1,1,0.00709,-0.05059,-0.02008*
1,1,0.00709,-0.05059,0.02008*
%
%ADD19ROUNDEDRECTD19*%
G04:AMPARAMS|DCode=20|XSize=77.56mil|YSize=23.23mil|CornerRadius=2.9mil|HoleSize=0mil|Usage=FLASHONLY|Rotation=180.000|XOffset=0mil|YOffset=0mil|HoleType=Round|Shape=RoundedRectangle|*
%AMROUNDEDRECTD20*
21,1,0.07756,0.01742,0,0,180.0*
21,1,0.07175,0.02323,0,0,180.0*
1,1,0.00581,-0.03588,0.00871*
1,1,0.00581,0.03588,0.00871*
1,1,0.00581,0.03588,-0.00871*
1,1,0.00581,-0.03588,-0.00871*
%
%ADD20ROUNDEDRECTD20*%
%ADD21R,0.04724X0.02677*%
G04:AMPARAMS|DCode=22|XSize=33.07mil|YSize=10.24mil|CornerRadius=1.28mil|HoleSize=0mil|Usage=FLASHONLY|Rotation=0.000|XOffset=0mil|YOffset=0mil|HoleType=Round|Shape=RoundedRectangle|*
%AMROUNDEDRECTD22*
21,1,0.03307,0.00768,0,0,0.0*
21,1,0.03051,0.01024,0,0,0.0*
1,1,0.00256,0.01526,-0.00384*
1,1,0.00256,-0.01526,-0.00384*
1,1,0.00256,-0.01526,0.00384*
1,1,0.00256,0.01526,0.00384*
%
%ADD22ROUNDEDRECTD22*%
%ADD23R,0.05512X0.01772*%
%ADD24R,0.05118X0.03937*%
%ADD25R,0.03661X0.03425*%
%ADD26R,0.03425X0.03661*%
G04:AMPARAMS|DCode=27|XSize=74.8mil|YSize=132.68mil|CornerRadius=2.62mil|HoleSize=0mil|Usage=FLASHONLY|Rotation=180.000|XOffset=0mil|YOffset=0mil|HoleType=Round|Shape=RoundedRectangle|*
%AMROUNDEDRECTD27*
21,1,0.07480,0.12744,0,0,180.0*
21,1,0.06957,0.13268,0,0,180.0*
1,1,0.00524,-0.03478,0.06372*
1,1,0.00524,0.03478,0.06372*
1,1,0.00524,0.03478,-0.06372*
1,1,0.00524,-0.03478,-0.06372*
%
%ADD27ROUNDEDRECTD27*%
%ADD28R,0.03937X0.02362*%
%ADD29R,0.08661X0.03740*%
%ADD30R,0.28347X0.26772*%
%ADD31R,0.20472X0.14764*%
%ADD32R,0.04528X0.02362*%
%ADD33R,0.04528X0.01181*%
%ADD34R,0.05276X0.07087*%
%ADD35R,0.03150X0.03543*%
%ADD36R,0.04370X0.05787*%
%ADD37R,0.05787X0.04370*%
%ADD38P,0.06494X8X22.5*%
G04:AMPARAMS|DCode=39|XSize=60mil|YSize=60mil|CornerRadius=15mil|HoleSize=0mil|Usage=FLASHONLY|Rotation=0.000|XOffset=0mil|YOffset=0mil|HoleType=Round|Shape=RoundedRectangle|*
%AMROUNDEDRECTD39*
21,1,0.06000,0.03000,0,0,0.0*
21,1,0.03000,0.06000,0,0,0.0*
1,1,0.03000,0.01500,-0.01500*
1,1,0.03000,-0.01500,-0.01500*
1,1,0.03000,-0.01500,0.01500*
1,1,0.03000,0.01500,0.01500*
%
%ADD39ROUNDEDRECTD39*%
%ADD85C,0.05512*%
%ADD86R,0.05512X0.05512*%
%ADD87C,0.09646*%
%ADD88R,0.08465X0.08465*%
%ADD96R,0.06693X0.12992*%
%ADD102C,0.07400*%
%ADD103C,0.06299*%
%ADD104C,0.04331*%
%ADD105C,0.13780*%
%ADD106O,0.07874X0.05906*%
%ADD107R,0.07874X0.07874*%
%ADD108C,0.07874*%
%ADD109R,0.07874X0.07874*%
%ADD110R,0.10512X0.10512*%
%ADD111C,0.10512*%
%ADD112C,0.11811*%
%ADD113R,0.09843X0.09843*%
%ADD114C,0.09843*%
%ADD115C,0.09843*%
%ADD116R,0.11811X0.11811*%
%ADD117C,0.03937*%
%ADD118R,0.04528X0.04528*%
%ADD119C,0.04528*%
%ADD120O,0.07874X0.03937*%
%ADD121O,0.08268X0.04134*%
%ADD122C,0.02559*%
%ADD123C,0.19685*%
D16*
X484252Y356299D02*
D03*
X498032D02*
D03*
D17*
X567520Y366142D02*
D03*
X586024D02*
D03*
X619488Y440945D02*
D03*
X600984D02*
D03*
X507283D02*
D03*
X488779D02*
D03*
D18*
X210433Y341535D02*
D03*
X240158Y340551D02*
D03*
X210433Y339567D02*
D03*
X240158Y338583D02*
D03*
X210433Y337598D02*
D03*
X240158Y336614D02*
D03*
X210433Y335630D02*
D03*
X240158Y334646D02*
D03*
X210433Y333661D02*
D03*
X240158Y332677D02*
D03*
X210433Y331693D02*
D03*
X240158Y330709D02*
D03*
X210433Y329724D02*
D03*
X240158Y328740D02*
D03*
X210433Y327756D02*
D03*
X240158Y326772D02*
D03*
X210433Y325787D02*
D03*
X240158Y324803D02*
D03*
X210433Y323819D02*
D03*
X240158Y322835D02*
D03*
X210433Y321850D02*
D03*
X240158Y320866D02*
D03*
X210433Y319882D02*
D03*
X240158Y318898D02*
D03*
X210433Y317913D02*
D03*
X240158Y316929D02*
D03*
X210433Y315945D02*
D03*
X240158Y314961D02*
D03*
X210433Y313976D02*
D03*
X240158Y312992D02*
D03*
X210433Y312008D02*
D03*
X240158Y311024D02*
D03*
X210433Y310039D02*
D03*
X240158Y309055D02*
D03*
X210433Y308071D02*
D03*
X240158Y307087D02*
D03*
X210433Y306102D02*
D03*
X240158Y305118D02*
D03*
X210433Y304134D02*
D03*
X240158Y303150D02*
D03*
X210433Y302165D02*
D03*
X240158Y301181D02*
D03*
X210433Y300197D02*
D03*
X240158Y299213D02*
D03*
X210433Y290354D02*
D03*
X240158Y289370D02*
D03*
X210433Y288386D02*
D03*
X240158Y287402D02*
D03*
X210433Y286417D02*
D03*
X240158Y285433D02*
D03*
X210433Y284449D02*
D03*
X240158Y283465D02*
D03*
X210433Y282480D02*
D03*
X240158Y281496D02*
D03*
X210433Y280512D02*
D03*
Y278543D02*
D03*
Y276575D02*
D03*
Y274606D02*
D03*
Y272638D02*
D03*
Y270669D02*
D03*
Y268701D02*
D03*
X240158Y269685D02*
D03*
Y271654D02*
D03*
Y273622D02*
D03*
Y275590D02*
D03*
Y277559D02*
D03*
Y279528D02*
D03*
D19*
X213484Y345866D02*
D03*
Y264370D02*
D03*
D20*
X269587Y155728D02*
D03*
Y160728D02*
D03*
Y165728D02*
D03*
Y170728D02*
D03*
Y175728D02*
D03*
Y180728D02*
D03*
Y185728D02*
D03*
Y190728D02*
D03*
X250098D02*
D03*
Y185728D02*
D03*
Y180728D02*
D03*
Y175728D02*
D03*
Y170728D02*
D03*
Y165728D02*
D03*
Y160728D02*
D03*
Y155728D02*
D03*
X391634D02*
D03*
Y160728D02*
D03*
Y165728D02*
D03*
Y170728D02*
D03*
Y175728D02*
D03*
Y180728D02*
D03*
Y185728D02*
D03*
Y190728D02*
D03*
X372146D02*
D03*
Y185728D02*
D03*
Y180728D02*
D03*
Y175728D02*
D03*
Y170728D02*
D03*
Y165728D02*
D03*
Y160728D02*
D03*
Y155728D02*
D03*
X509744D02*
D03*
Y160728D02*
D03*
Y165728D02*
D03*
Y170728D02*
D03*
Y175728D02*
D03*
Y180728D02*
D03*
Y185728D02*
D03*
Y190728D02*
D03*
X490256D02*
D03*
Y185728D02*
D03*
Y180728D02*
D03*
Y175728D02*
D03*
Y170728D02*
D03*
Y165728D02*
D03*
Y160728D02*
D03*
Y155728D02*
D03*
X623917D02*
D03*
Y160728D02*
D03*
Y165728D02*
D03*
Y170728D02*
D03*
Y175728D02*
D03*
Y180728D02*
D03*
Y185728D02*
D03*
Y190728D02*
D03*
X604429D02*
D03*
Y185728D02*
D03*
Y180728D02*
D03*
Y175728D02*
D03*
Y170728D02*
D03*
Y165728D02*
D03*
Y160728D02*
D03*
Y155728D02*
D03*
D21*
X392323Y412283D02*
D03*
Y400472D02*
D03*
X379331D02*
D03*
Y406378D02*
D03*
Y412283D02*
D03*
X286024D02*
D03*
Y400472D02*
D03*
X273031D02*
D03*
Y406378D02*
D03*
Y412283D02*
D03*
X179724Y408346D02*
D03*
Y396535D02*
D03*
X166732D02*
D03*
Y402441D02*
D03*
Y408346D02*
D03*
D22*
X592264Y477362D02*
D03*
Y475394D02*
D03*
Y473425D02*
D03*
Y471457D02*
D03*
Y469488D02*
D03*
Y467520D02*
D03*
X580965D02*
D03*
Y469488D02*
D03*
Y471457D02*
D03*
Y473425D02*
D03*
Y475394D02*
D03*
Y477362D02*
D03*
X480059Y473425D02*
D03*
Y471457D02*
D03*
Y469488D02*
D03*
Y467520D02*
D03*
Y465551D02*
D03*
Y463583D02*
D03*
X468760D02*
D03*
Y465551D02*
D03*
Y467520D02*
D03*
Y469488D02*
D03*
Y471457D02*
D03*
Y473425D02*
D03*
X558799Y400591D02*
D03*
Y398622D02*
D03*
Y396654D02*
D03*
Y394685D02*
D03*
Y392717D02*
D03*
Y390748D02*
D03*
X547500D02*
D03*
Y392717D02*
D03*
Y394685D02*
D03*
Y396654D02*
D03*
Y398622D02*
D03*
Y400591D02*
D03*
D23*
X680905Y311122D02*
D03*
Y313681D02*
D03*
Y316240D02*
D03*
Y318799D02*
D03*
X657677Y311122D02*
D03*
Y313681D02*
D03*
Y316240D02*
D03*
Y318799D02*
D03*
X680905Y336713D02*
D03*
Y339272D02*
D03*
Y341831D02*
D03*
Y344390D02*
D03*
X657677Y336713D02*
D03*
Y339272D02*
D03*
Y341831D02*
D03*
Y344390D02*
D03*
D24*
X122835Y135433D02*
D03*
X105512Y147244D02*
D03*
Y135433D02*
D03*
X122835Y147244D02*
D03*
X122835Y165354D02*
D03*
X105512Y177165D02*
D03*
Y165354D02*
D03*
X122835Y177165D02*
D03*
D25*
X647638Y205827D02*
D03*
Y199685D02*
D03*
X663386Y205827D02*
D03*
Y199685D02*
D03*
X215539Y205264D02*
D03*
Y199122D02*
D03*
X223413Y205264D02*
D03*
Y199122D02*
D03*
X336457Y204724D02*
D03*
Y198583D02*
D03*
X344331Y204724D02*
D03*
Y198583D02*
D03*
X452126Y203858D02*
D03*
Y197716D02*
D03*
X460000Y203858D02*
D03*
Y197716D02*
D03*
X570236Y203858D02*
D03*
Y197717D02*
D03*
X578110Y203858D02*
D03*
Y197717D02*
D03*
X405512Y403307D02*
D03*
Y409449D02*
D03*
X299213Y403307D02*
D03*
Y409449D02*
D03*
X192913Y399370D02*
D03*
Y405512D02*
D03*
X641732Y314094D02*
D03*
Y307953D02*
D03*
X602362Y477244D02*
D03*
Y483386D02*
D03*
X641732Y339685D02*
D03*
Y333543D02*
D03*
X490158Y478110D02*
D03*
Y484252D02*
D03*
X576772Y400472D02*
D03*
Y406614D02*
D03*
X145669Y249528D02*
D03*
Y243386D02*
D03*
Y259134D02*
D03*
Y265276D02*
D03*
X137795Y168583D02*
D03*
Y174724D02*
D03*
X405512Y419055D02*
D03*
Y425197D02*
D03*
X299213Y419055D02*
D03*
Y425197D02*
D03*
X192913Y415118D02*
D03*
Y421260D02*
D03*
X610236Y477244D02*
D03*
Y483386D02*
D03*
X498032Y478110D02*
D03*
Y484252D02*
D03*
X568898Y400472D02*
D03*
Y406614D02*
D03*
X137795Y241654D02*
D03*
Y235512D02*
D03*
X129921Y122283D02*
D03*
Y116142D02*
D03*
X129921Y174724D02*
D03*
Y168583D02*
D03*
X553150Y337717D02*
D03*
Y331575D02*
D03*
D26*
X570000Y484252D02*
D03*
X563858D02*
D03*
X570000Y476378D02*
D03*
X563858D02*
D03*
X666457Y368110D02*
D03*
X660315D02*
D03*
X457795Y484252D02*
D03*
X451653D02*
D03*
X457795Y468504D02*
D03*
X451653D02*
D03*
X684173Y368110D02*
D03*
X678031D02*
D03*
X621181Y271654D02*
D03*
X615039D02*
D03*
X629055Y291339D02*
D03*
X622913D02*
D03*
X644803Y291339D02*
D03*
X638661D02*
D03*
X536535Y407480D02*
D03*
X530394D02*
D03*
X536535Y399606D02*
D03*
X530394D02*
D03*
X138661Y122047D02*
D03*
X144803D02*
D03*
X570000Y468504D02*
D03*
X563858D02*
D03*
Y460630D02*
D03*
X570000D02*
D03*
X563858Y452756D02*
D03*
X570000D02*
D03*
X583543D02*
D03*
X589685D02*
D03*
X703858Y291339D02*
D03*
X697717D02*
D03*
X457795Y476378D02*
D03*
X451653D02*
D03*
Y452756D02*
D03*
X457795D02*
D03*
X451653Y460630D02*
D03*
X457795D02*
D03*
X471339Y452756D02*
D03*
X477480D02*
D03*
X695748Y368110D02*
D03*
X701890D02*
D03*
X536535Y391732D02*
D03*
X530394D02*
D03*
Y375984D02*
D03*
X536535D02*
D03*
X530394Y383858D02*
D03*
X536535D02*
D03*
X550079Y375984D02*
D03*
X556220D02*
D03*
D27*
X711260Y303150D02*
D03*
X690315D02*
D03*
X711260Y356299D02*
D03*
X690315D02*
D03*
D28*
X505118Y480315D02*
D03*
X514567Y484055D02*
D03*
Y476575D02*
D03*
D29*
X667520Y253071D02*
D03*
Y235118D02*
D03*
D30*
X692717Y244094D02*
D03*
D31*
X346457Y438071D02*
D03*
Y398307D02*
D03*
X240158Y438071D02*
D03*
Y398307D02*
D03*
X133858Y438268D02*
D03*
Y398504D02*
D03*
D32*
X130217Y266496D02*
D03*
Y241299D02*
D03*
Y263347D02*
D03*
Y244449D02*
D03*
D33*
Y252913D02*
D03*
Y254882D02*
D03*
Y250945D02*
D03*
Y248976D02*
D03*
Y247008D02*
D03*
Y256850D02*
D03*
Y258819D02*
D03*
Y260787D02*
D03*
D34*
X380197Y422520D02*
D03*
X391457D02*
D03*
X273898D02*
D03*
X285157D02*
D03*
X167598Y418386D02*
D03*
X178858D02*
D03*
D35*
X645472Y271654D02*
D03*
X637992D02*
D03*
X641732Y263779D02*
D03*
D36*
X250579Y229752D02*
D03*
X243492D02*
D03*
X267114D02*
D03*
X274201D02*
D03*
X371654Y228346D02*
D03*
X364567D02*
D03*
X388032D02*
D03*
X395118D02*
D03*
X491102D02*
D03*
X484016D02*
D03*
X507638D02*
D03*
X514724D02*
D03*
X605512D02*
D03*
X598425D02*
D03*
X622835D02*
D03*
X629921D02*
D03*
D37*
X614174Y461024D02*
D03*
Y468110D02*
D03*
X602362Y461024D02*
D03*
Y468110D02*
D03*
X501969Y461024D02*
D03*
Y468110D02*
D03*
X492126Y461024D02*
D03*
Y468110D02*
D03*
X568898Y384252D02*
D03*
Y391339D02*
D03*
X580709Y384252D02*
D03*
Y391339D02*
D03*
D38*
X370079Y379921D02*
D03*
X261811D02*
D03*
X155512D02*
D03*
X139764Y277559D02*
D03*
X659449Y482283D02*
D03*
X600394Y360236D02*
D03*
X631890Y435039D02*
D03*
X519685Y433071D02*
D03*
D39*
X131890Y226378D02*
D03*
X757874Y482283D02*
D03*
D85*
X531496Y251969D02*
D03*
X523622D02*
D03*
X515748D02*
D03*
X507874D02*
D03*
X500000D02*
D03*
X492126D02*
D03*
X484252D02*
D03*
X476378D02*
D03*
X468504D02*
D03*
X460630D02*
D03*
Y338583D02*
D03*
X468504D02*
D03*
X476378D02*
D03*
X484252D02*
D03*
X492126D02*
D03*
X500000D02*
D03*
X507874D02*
D03*
X515748D02*
D03*
X523622D02*
D03*
D86*
X531496D02*
D03*
D87*
X248709Y133787D02*
D03*
X268984D02*
D03*
X248709Y113512D02*
D03*
X268984D02*
D03*
X369626Y132382D02*
D03*
X389902D02*
D03*
X369626Y112106D02*
D03*
X389902D02*
D03*
X487736Y132382D02*
D03*
X508012D02*
D03*
X487736Y112106D02*
D03*
X508012D02*
D03*
X722146Y132382D02*
D03*
X742421D02*
D03*
X722146Y112106D02*
D03*
X742421D02*
D03*
X603406Y132382D02*
D03*
X623681D02*
D03*
X603406Y112106D02*
D03*
X623681D02*
D03*
D88*
X258846Y123650D02*
D03*
X379764Y122244D02*
D03*
X497874D02*
D03*
X732283Y122244D02*
D03*
X613543Y122244D02*
D03*
D96*
X586614Y472441D02*
D03*
X474409Y468504D02*
D03*
X553150Y395669D02*
D03*
D102*
X446220Y289449D02*
D03*
X506220D02*
D03*
X496220D02*
D03*
X486221D02*
D03*
X476221D02*
D03*
X466221D02*
D03*
X456220D02*
D03*
X496220Y409449D02*
D03*
X486221D02*
D03*
X476221D02*
D03*
X466221D02*
D03*
X456220D02*
D03*
X446220D02*
D03*
X436221D02*
D03*
X516221Y289449D02*
D03*
D103*
X231201Y344488D02*
D03*
D104*
Y265748D02*
D03*
D105*
X388681Y305118D02*
D03*
D106*
X274594Y217941D02*
D03*
X264595D02*
D03*
X254594D02*
D03*
X244595D02*
D03*
X395512Y217402D02*
D03*
X385512D02*
D03*
X375512D02*
D03*
X365512D02*
D03*
X513622Y216535D02*
D03*
X503622D02*
D03*
X493622D02*
D03*
X483622D02*
D03*
X629291Y216535D02*
D03*
X619291D02*
D03*
X609291D02*
D03*
X599291D02*
D03*
D107*
X131575Y344331D02*
D03*
X590551Y253937D02*
D03*
X195539Y184173D02*
D03*
X195539Y114173D02*
D03*
X318583Y184173D02*
D03*
X318583Y114173D02*
D03*
X436693Y184173D02*
D03*
X436693Y114173D02*
D03*
X668661D02*
D03*
X554173Y184173D02*
D03*
X668661Y184173D02*
D03*
X554173Y114173D02*
D03*
D108*
X151575Y354331D02*
D03*
Y344331D02*
D03*
X141575Y354331D02*
D03*
Y344331D02*
D03*
X131575Y354331D02*
D03*
X580551Y253937D02*
D03*
X645669Y362362D02*
D03*
X155512Y192318D02*
D03*
X171575Y364331D02*
D03*
X181575D02*
D03*
X171575Y354331D02*
D03*
X181575D02*
D03*
X171575Y344331D02*
D03*
X181575D02*
D03*
X171575Y334331D02*
D03*
X602362Y332677D02*
D03*
X588583Y295433D02*
D03*
X215539Y184173D02*
D03*
X205539D02*
D03*
X215539Y114173D02*
D03*
X205539D02*
D03*
X338583Y184173D02*
D03*
X328583D02*
D03*
X338583Y114173D02*
D03*
X328583D02*
D03*
X456693Y184173D02*
D03*
X446693D02*
D03*
X456693Y114173D02*
D03*
X446693D02*
D03*
X688661D02*
D03*
X678661D02*
D03*
X574173Y184173D02*
D03*
X564173D02*
D03*
X688661Y184173D02*
D03*
X678661D02*
D03*
X574173Y114173D02*
D03*
X564173D02*
D03*
D109*
X645669Y352362D02*
D03*
X155512Y202318D02*
D03*
X181575Y334331D02*
D03*
X602362Y322677D02*
D03*
X588583Y285433D02*
D03*
D110*
X203346Y480315D02*
D03*
D111*
X228346D02*
D03*
X253346D02*
D03*
X278346D02*
D03*
D112*
X673622Y462441D02*
D03*
X743701D02*
D03*
X673622Y413228D02*
D03*
X743701D02*
D03*
X726378Y277559D02*
D03*
Y358268D02*
D03*
D113*
X692126Y482283D02*
D03*
Y433071D02*
D03*
D114*
Y460630D02*
D03*
X708661D02*
D03*
X725197Y482283D02*
D03*
Y460630D02*
D03*
X692126Y411417D02*
D03*
X708661D02*
D03*
X725197Y433071D02*
D03*
Y411417D02*
D03*
D115*
X708661Y482283D02*
D03*
Y433071D02*
D03*
D116*
X726378Y297244D02*
D03*
Y377953D02*
D03*
D117*
X765748Y309055D02*
D03*
Y265748D02*
D03*
Y389764D02*
D03*
Y346457D02*
D03*
D118*
X631890Y366169D02*
D03*
D119*
Y358268D02*
D03*
D120*
X111496Y270905D02*
D03*
Y236890D02*
D03*
D121*
X127953Y270905D02*
D03*
Y236890D02*
D03*
D122*
X125984Y242520D02*
D03*
Y265276D02*
D03*
D123*
X759842Y116142D02*
D03*
X114173D02*
D03*
X281496Y448819D02*
D03*
M02*
