M48
;Layer_Color=9474304
;FILE_FORMAT=2:4
INCH,TZ
;TYPE=PLATED
T2F00S00C0.0236
T3F00S00C0.0276
;TYPE=NON_PLATED
%
G90
G05
T02
G00X10992Y23689
M15
G01X11307
M16
G00X12579Y23689
M15
G01X13012
M16
G00X12579Y27091
M15
G01X13012
M16
G00X10992Y27091
M15
G01X11307
M16
T03
G00X62988Y21654
M15
G01X62870
M16
G00X61988Y21654
M15
G01X61870
M16
G00X60988Y21654
M15
G01X60870
M16
G00X59988Y21654
M15
G01X59870
M16
G00X51421Y21654
M15
G01X51303
M16
G00X50421Y21654
M15
G01X50303
M16
G00X49421Y21654
M15
G01X49303
M16
G00X48421Y21654
M15
G01X48303
M16
G00X39610Y21740
M15
G01X39492
M16
G00X38610Y21740
M15
G01X38492
M16
G00X37610Y21740
M15
G01X37492
M16
G00X36610Y21740
M15
G01X36492
M16
G00X27518Y21794
M15
G01X27400
M16
G00X26518Y21794
M15
G01X26400
M16
G00X25519Y21794
M15
G01X25400
M16
G00X24518Y21794
M15
G01X24400
M16
M17
M30
