G04*
G04 #@! TF.GenerationSoftware,Altium Limited,Altium Designer,22.8.2 (66)*
G04*
G04 Layer_Color=16711935*
%FSLAX25Y25*%
%MOIN*%
G70*
G04*
G04 #@! TF.SameCoordinates,96B98669-0A76-488E-AF90-C307CBE701B7*
G04*
G04*
G04 #@! TF.FilePolarity,Negative*
G04*
G01*
G75*
%ADD40C,0.07874*%
%ADD41C,0.01500*%
%ADD52R,0.04461X0.04225*%
%ADD53R,0.04225X0.04461*%
%ADD55R,0.04737X0.03162*%
%ADD67C,0.08200*%
%ADD68C,0.07099*%
%ADD69C,0.05131*%
%ADD70C,0.14580*%
%ADD71O,0.08674X0.06706*%
%ADD72R,0.08674X0.08674*%
%ADD73C,0.08674*%
%ADD74R,0.08674X0.08674*%
%ADD75R,0.11312X0.11312*%
%ADD76C,0.11312*%
%ADD77C,0.12611*%
%ADD78R,0.10642X0.10642*%
%ADD79C,0.10642*%
%ADD80C,0.10642*%
%ADD81R,0.12611X0.12611*%
%ADD82C,0.04737*%
%ADD83R,0.05328X0.05328*%
%ADD84C,0.05328*%
%ADD85C,0.05512*%
%ADD86R,0.05512X0.05512*%
%ADD87C,0.09646*%
%ADD88R,0.08465X0.08465*%
%ADD89O,0.08674X0.04737*%
%ADD90O,0.09068X0.04934*%
%ADD91C,0.03359*%
%ADD92C,0.20485*%
%ADD93C,0.05800*%
%ADD94C,0.02375*%
%ADD95C,0.00600*%
%ADD130R,0.06312X0.05918*%
%ADD131R,0.04540X0.04737*%
%ADD132R,0.06706X0.03950*%
%ADD133R,0.08280X0.06312*%
D40*
X396555Y305118D02*
X396491Y306125D01*
X396298Y307115D01*
X395980Y308073D01*
X395542Y308982D01*
X394991Y309828D01*
X394337Y310596D01*
X393590Y311274D01*
X392763Y311852D01*
X391868Y312318D01*
X390921Y312667D01*
X389938Y312891D01*
X388933Y312988D01*
X387925Y312956D01*
X386929Y312795D01*
X385962Y312508D01*
X385039Y312099D01*
X384176Y311576D01*
X383387Y310947D01*
X382685Y310222D01*
X382082Y309414D01*
X381587Y308535D01*
X381208Y307599D01*
X380952Y306623D01*
X380823Y305623D01*
Y304614D01*
X380952Y303613D01*
X381208Y302637D01*
X381587Y301702D01*
X382082Y300823D01*
X382685Y300014D01*
X383387Y299289D01*
X384176Y298660D01*
X385039Y298137D01*
X385962Y297729D01*
X386929Y297442D01*
X387925Y297281D01*
X388933Y297248D01*
X389938Y297345D01*
X390921Y297569D01*
X391868Y297918D01*
X392763Y298385D01*
X393590Y298962D01*
X394337Y299640D01*
X394991Y300409D01*
X395542Y301254D01*
X395980Y302163D01*
X396298Y303121D01*
X396491Y304111D01*
X396555Y305118D01*
D41*
X770643Y100525D02*
X771522Y101404D01*
Y498990D01*
X770643Y499868D02*
X771522Y498990D01*
X100525D02*
X101404Y499868D01*
X770643D01*
X100525Y337045D02*
Y498990D01*
X102362Y285433D02*
Y286380D01*
X100525Y288217D02*
X102362Y286380D01*
X100525Y288217D02*
Y325893D01*
Y101404D02*
Y271654D01*
X101404Y100525D02*
X770643D01*
X100525Y101404D02*
X101404Y100525D01*
X98425Y276469D02*
Y327102D01*
X98237Y327290D02*
X98425Y327102D01*
Y99304D02*
X99304Y98425D01*
X98425Y267717D02*
X98425Y99304D01*
X99304Y98425D02*
X772743D01*
X773622Y99304D01*
Y501090D01*
X772743Y501968D02*
X773622Y501090D01*
X98237Y500902D02*
X99304Y501968D01*
X772743D01*
X98237Y327290D02*
Y500902D01*
D52*
X311024Y315827D02*
D03*
Y321969D02*
D03*
X271654Y315827D02*
D03*
Y321969D02*
D03*
X169291Y310315D02*
D03*
Y316457D02*
D03*
X255906Y270787D02*
D03*
Y264646D02*
D03*
D53*
X252835Y285433D02*
D03*
X258976D02*
D03*
D55*
X282677Y318898D02*
D03*
X292126Y315158D02*
D03*
Y322638D02*
D03*
D67*
X446220Y289449D02*
D03*
X506220D02*
D03*
X496220D02*
D03*
X486221D02*
D03*
X476221D02*
D03*
X466221D02*
D03*
X456220D02*
D03*
X496220Y409449D02*
D03*
X486221D02*
D03*
X476221D02*
D03*
X466221D02*
D03*
X456220D02*
D03*
X446220D02*
D03*
X436221D02*
D03*
X516221Y289449D02*
D03*
D68*
X231201Y344488D02*
D03*
D69*
Y265748D02*
D03*
D70*
X388681Y305118D02*
D03*
D71*
X274594Y217941D02*
D03*
X264595D02*
D03*
X254594D02*
D03*
X244595D02*
D03*
X395512Y217402D02*
D03*
X385512D02*
D03*
X375512D02*
D03*
X365512D02*
D03*
X513622Y216535D02*
D03*
X503622D02*
D03*
X493622D02*
D03*
X483622D02*
D03*
X629291Y216535D02*
D03*
X619291D02*
D03*
X609291D02*
D03*
X599291D02*
D03*
D72*
X131575Y344331D02*
D03*
X590551Y253937D02*
D03*
X195539Y184173D02*
D03*
X195539Y114173D02*
D03*
X318583Y184173D02*
D03*
X318583Y114173D02*
D03*
X436693Y184173D02*
D03*
X436693Y114173D02*
D03*
X668661D02*
D03*
X554173Y184173D02*
D03*
X668661Y184173D02*
D03*
X554173Y114173D02*
D03*
D73*
X151575Y354331D02*
D03*
Y344331D02*
D03*
X141575Y354331D02*
D03*
Y344331D02*
D03*
X131575Y354331D02*
D03*
X580551Y253937D02*
D03*
X645669Y362362D02*
D03*
X155512Y192318D02*
D03*
X171575Y364331D02*
D03*
X181575D02*
D03*
X171575Y354331D02*
D03*
X181575D02*
D03*
X171575Y344331D02*
D03*
X181575D02*
D03*
X171575Y334331D02*
D03*
X602362Y332677D02*
D03*
X588583Y295433D02*
D03*
X215539Y184173D02*
D03*
X205539D02*
D03*
X215539Y114173D02*
D03*
X205539D02*
D03*
X338583Y184173D02*
D03*
X328583D02*
D03*
X338583Y114173D02*
D03*
X328583D02*
D03*
X456693Y184173D02*
D03*
X446693D02*
D03*
X456693Y114173D02*
D03*
X446693D02*
D03*
X688661D02*
D03*
X678661D02*
D03*
X574173Y184173D02*
D03*
X564173D02*
D03*
X688661Y184173D02*
D03*
X678661D02*
D03*
X574173Y114173D02*
D03*
X564173D02*
D03*
D74*
X645669Y352362D02*
D03*
X155512Y202318D02*
D03*
X181575Y334331D02*
D03*
X602362Y322677D02*
D03*
X588583Y285433D02*
D03*
D75*
X203346Y480315D02*
D03*
D76*
X228346D02*
D03*
X253346D02*
D03*
X278346D02*
D03*
D77*
X673622Y462441D02*
D03*
X743701D02*
D03*
X673622Y413228D02*
D03*
X743701D02*
D03*
X726378Y277559D02*
D03*
Y358268D02*
D03*
D78*
X692126Y482283D02*
D03*
Y433071D02*
D03*
D79*
Y460630D02*
D03*
X708661D02*
D03*
X725197Y482283D02*
D03*
Y460630D02*
D03*
X692126Y411417D02*
D03*
X708661D02*
D03*
X725197Y433071D02*
D03*
Y411417D02*
D03*
D80*
X708661Y482283D02*
D03*
Y433071D02*
D03*
D81*
X726378Y297244D02*
D03*
Y377953D02*
D03*
D82*
X765748Y309055D02*
D03*
Y265748D02*
D03*
Y389764D02*
D03*
Y346457D02*
D03*
D83*
X631890Y366169D02*
D03*
D84*
Y358268D02*
D03*
D85*
X531496Y251969D02*
D03*
X523622D02*
D03*
X515748D02*
D03*
X507874D02*
D03*
X500000D02*
D03*
X492126D02*
D03*
X484252D02*
D03*
X476378D02*
D03*
X468504D02*
D03*
X460630D02*
D03*
Y338583D02*
D03*
X468504D02*
D03*
X476378D02*
D03*
X484252D02*
D03*
X492126D02*
D03*
X500000D02*
D03*
X507874D02*
D03*
X515748D02*
D03*
X523622D02*
D03*
D86*
X531496D02*
D03*
D87*
X248709Y133787D02*
D03*
X268984D02*
D03*
X248709Y113512D02*
D03*
X268984D02*
D03*
X369626Y132382D02*
D03*
X389902D02*
D03*
X369626Y112106D02*
D03*
X389902D02*
D03*
X487736Y132382D02*
D03*
X508012D02*
D03*
X487736Y112106D02*
D03*
X508012D02*
D03*
X722146Y132382D02*
D03*
X742421D02*
D03*
X722146Y112106D02*
D03*
X742421D02*
D03*
X603406Y132382D02*
D03*
X623681D02*
D03*
X603406Y112106D02*
D03*
X623681D02*
D03*
D88*
X258846Y123650D02*
D03*
X379764Y122244D02*
D03*
X497874D02*
D03*
X732283Y122244D02*
D03*
X613543Y122244D02*
D03*
D89*
X111496Y270905D02*
D03*
Y236890D02*
D03*
D90*
X127953Y270905D02*
D03*
Y236890D02*
D03*
D91*
X125984Y242520D02*
D03*
Y265276D02*
D03*
D92*
X759842Y116142D02*
D03*
X114173D02*
D03*
X281496Y448819D02*
D03*
D93*
X596457Y342520D02*
D03*
X525591Y299213D02*
D03*
Y318898D02*
D03*
X505905Y299213D02*
D03*
X244094Y352362D02*
D03*
X253937Y340551D02*
D03*
X226378Y307087D02*
D03*
X129921Y151575D02*
D03*
X106299Y153543D02*
D03*
X190945Y309055D02*
D03*
X194882Y303150D02*
D03*
X277559Y204061D02*
D03*
X257874Y448819D02*
D03*
X267717Y438976D02*
D03*
Y458661D02*
D03*
X307087D02*
D03*
Y478346D02*
D03*
X316929Y468504D02*
D03*
X326772Y458661D02*
D03*
Y478346D02*
D03*
X336614Y468504D02*
D03*
X139764Y458661D02*
D03*
X129921Y468504D02*
D03*
X152221Y156360D02*
D03*
X152320Y175035D02*
D03*
X574803Y279528D02*
D03*
X564961D02*
D03*
X574803Y269685D02*
D03*
X555118Y279528D02*
D03*
X564961Y269685D02*
D03*
X555118D02*
D03*
X118110Y364173D02*
D03*
X108268D02*
D03*
X118110Y354331D02*
D03*
X108268D02*
D03*
X285433Y387795D02*
D03*
X275590D02*
D03*
X285433Y377953D02*
D03*
X275590D02*
D03*
X324803Y387795D02*
D03*
X314961D02*
D03*
X324803Y377953D02*
D03*
X314961D02*
D03*
X305118Y387795D02*
D03*
X295276D02*
D03*
X305118Y377953D02*
D03*
X295276D02*
D03*
X216535Y387795D02*
D03*
X206693D02*
D03*
X216535Y377953D02*
D03*
X206693D02*
D03*
X196850Y281496D02*
D03*
X187008D02*
D03*
X196850Y271654D02*
D03*
X187008D02*
D03*
X368110Y340551D02*
D03*
X328740D02*
D03*
X348425D02*
D03*
X705026Y452425D02*
D03*
Y442583D02*
D03*
X724711Y452425D02*
D03*
X714868D02*
D03*
X724711Y442583D02*
D03*
X714868D02*
D03*
X744396Y452425D02*
D03*
X734553D02*
D03*
X744396Y442583D02*
D03*
X734553D02*
D03*
X744396Y434709D02*
D03*
X734553D02*
D03*
X744396Y424866D02*
D03*
X734553D02*
D03*
X661417Y454724D02*
D03*
Y444882D02*
D03*
X651575D02*
D03*
X661417Y435039D02*
D03*
X651575D02*
D03*
X653845Y407150D02*
D03*
X644002D02*
D03*
X653845Y397307D02*
D03*
X644002D02*
D03*
X659449Y381890D02*
D03*
X669291D02*
D03*
X655512Y283465D02*
D03*
X665354D02*
D03*
X655512Y293307D02*
D03*
X665354D02*
D03*
X655512Y263779D02*
D03*
X665354D02*
D03*
X655512Y273622D02*
D03*
X665354D02*
D03*
X714567Y183071D02*
D03*
X734252Y202756D02*
D03*
X763779Y192913D02*
D03*
X753937Y183071D02*
D03*
X744095Y192913D02*
D03*
X763779Y212598D02*
D03*
X753937Y202756D02*
D03*
X685039Y173228D02*
D03*
X704724D02*
D03*
X694882Y163386D02*
D03*
X704724Y153543D02*
D03*
X685039D02*
D03*
X724409D02*
D03*
X714567Y163386D02*
D03*
X724409Y173228D02*
D03*
X744095Y153543D02*
D03*
X734252Y163386D02*
D03*
X744095Y173228D02*
D03*
X763779Y153543D02*
D03*
X753937Y163386D02*
D03*
X763779Y173228D02*
D03*
X269685Y204724D02*
D03*
X631890Y202756D02*
D03*
X622047D02*
D03*
X391732D02*
D03*
X399606D02*
D03*
X509842D02*
D03*
X517717D02*
D03*
X641732Y157480D02*
D03*
X631890D02*
D03*
X641732Y147638D02*
D03*
X631890D02*
D03*
X527559Y165354D02*
D03*
X517717D02*
D03*
X527559Y155512D02*
D03*
X517717D02*
D03*
X411417Y165354D02*
D03*
X401575D02*
D03*
X411417Y155512D02*
D03*
X401575D02*
D03*
X291339Y165354D02*
D03*
X281496D02*
D03*
X291339Y155512D02*
D03*
X281496D02*
D03*
X348425Y314961D02*
D03*
X318898Y324803D02*
D03*
X328740Y314961D02*
D03*
X338583Y324803D02*
D03*
X547244Y299213D02*
D03*
X537402Y309055D02*
D03*
X547244Y318898D02*
D03*
X527559Y279528D02*
D03*
X515748Y299213D02*
D03*
X442913Y391732D02*
D03*
X433071Y399606D02*
D03*
Y421260D02*
D03*
X452756Y399606D02*
D03*
Y421260D02*
D03*
X385827Y438976D02*
D03*
X395669Y448819D02*
D03*
X375984D02*
D03*
Y468504D02*
D03*
X385827Y458661D02*
D03*
Y478346D02*
D03*
X395669Y468504D02*
D03*
X405512Y478346D02*
D03*
X366142Y458661D02*
D03*
X356299Y468504D02*
D03*
X366142Y478346D02*
D03*
X307087Y438976D02*
D03*
X297244Y448819D02*
D03*
X149606Y429134D02*
D03*
X120079Y419291D02*
D03*
X139764D02*
D03*
X159449D02*
D03*
X208661Y429134D02*
D03*
X169291D02*
D03*
Y448819D02*
D03*
X188976Y429134D02*
D03*
X179134Y438976D02*
D03*
X188976Y448819D02*
D03*
X198819Y438976D02*
D03*
Y458661D02*
D03*
X218504Y438976D02*
D03*
X208661Y448819D02*
D03*
X218504Y458661D02*
D03*
X179134D02*
D03*
X159449D02*
D03*
X120079D02*
D03*
X110236Y488189D02*
D03*
X129921D02*
D03*
X120079Y478346D02*
D03*
X110236Y468504D02*
D03*
X149606D02*
D03*
X139764Y478346D02*
D03*
X149606Y488189D02*
D03*
X169291Y468504D02*
D03*
X159449Y478346D02*
D03*
X169291Y488189D02*
D03*
X188976Y468504D02*
D03*
X179134Y478346D02*
D03*
X188976Y488189D02*
D03*
X181102Y242126D02*
D03*
X200787Y261811D02*
D03*
X171260D02*
D03*
X181102Y251969D02*
D03*
X190945D02*
D03*
X181102Y261811D02*
D03*
X190945D02*
D03*
X151575Y222441D02*
D03*
X171260Y251969D02*
D03*
X161417D02*
D03*
X171260Y242126D02*
D03*
X161417D02*
D03*
Y232283D02*
D03*
Y222441D02*
D03*
X171260Y232283D02*
D03*
X110236Y187008D02*
D03*
Y206693D02*
D03*
X120079Y196850D02*
D03*
X129921Y206693D02*
D03*
X218504Y362205D02*
D03*
X212598Y352362D02*
D03*
X297244Y251969D02*
D03*
X279528Y285433D02*
D03*
X261811Y291339D02*
D03*
X232901Y282839D02*
D03*
X229032Y286887D02*
D03*
X220472Y291339D02*
D03*
X625984Y421450D02*
D03*
X673228Y362205D02*
D03*
X161112Y166208D02*
D03*
X170954Y156365D02*
D03*
Y176050D02*
D03*
X124016Y295164D02*
D03*
X127953Y289370D02*
D03*
X647638Y212598D02*
D03*
X102619Y285434D02*
D03*
X137795Y267717D02*
D03*
X584646Y181102D02*
D03*
X230315D02*
D03*
X352362D02*
D03*
X470472Y181102D02*
D03*
X232283Y273622D02*
D03*
X559055Y407480D02*
D03*
X541339Y395669D02*
D03*
X563858D02*
D03*
X592520Y482620D02*
D03*
X120079Y275590D02*
D03*
X232283Y322835D02*
D03*
X251969Y328740D02*
D03*
X267717D02*
D03*
X251969Y318898D02*
D03*
X248031Y312992D02*
D03*
X515748Y448819D02*
D03*
X216566Y340404D02*
D03*
X226378Y334483D02*
D03*
X253937Y360236D02*
D03*
X232283Y330709D02*
D03*
X549213Y383858D02*
D03*
X620079Y328740D02*
D03*
X639764Y344488D02*
D03*
X637795Y320866D02*
D03*
X413386Y238189D02*
D03*
X291339Y246063D02*
D03*
X399606Y259842D02*
D03*
X232283Y314961D02*
D03*
X629921Y267717D02*
D03*
X248031Y271654D02*
D03*
Y279528D02*
D03*
X716535Y338583D02*
D03*
X696850Y303150D02*
D03*
X649606Y311024D02*
D03*
Y328740D02*
D03*
X594488Y462598D02*
D03*
X574803Y472441D02*
D03*
X584646Y458661D02*
D03*
X289370Y393701D02*
D03*
X198819D02*
D03*
X397638D02*
D03*
X466535Y458661D02*
D03*
X462432Y472104D02*
D03*
X486221Y464567D02*
D03*
X480315Y478346D02*
D03*
X131890Y159449D02*
D03*
D94*
X100525Y271654D02*
D03*
X98787Y274363D02*
D03*
X204307Y287819D02*
D03*
X204724Y283465D02*
D03*
D95*
X99887Y336407D02*
X100525Y337045D01*
X99887Y326531D02*
Y336407D01*
Y326531D02*
X100525Y325893D01*
D130*
X160236Y285630D02*
D03*
Y308071D02*
D03*
D131*
X161122Y291102D02*
D03*
D132*
X117480Y282441D02*
D03*
Y286772D02*
D03*
X116693Y291102D02*
D03*
X117480Y295433D02*
D03*
X116693Y299764D02*
D03*
X117480Y304095D02*
D03*
X119055Y308425D02*
D03*
X117480Y312756D02*
D03*
D133*
X108465Y279331D02*
D03*
X104528Y331102D02*
D03*
M02*
