M48
;Layer_Color=9474304
;FILE_FORMAT=2:4
INCH,TZ
;TYPE=PLATED
T1F00S00C0.0157
T4F00S00C0.0280
T5F00S00C0.0315
T6F00S00C0.0354
T7F00S00C0.0394
T8F00S00C0.0400
T9F00S00C0.0433
T10F00S00C0.0551
T11F00S00C0.0630
T12F00S00C0.0669
T13F00S00C0.0701
T14F00S00C0.1378
T15F00S00C0.1575
;TYPE=NON_PLATED
T16F00S00C0.0256
T17F00S00C0.0433
T18F00S00C0.0630
T19F00S00C0.1181
%
T01
X20472Y28346
X20431Y28782
X9879Y27436
X10053Y27165
T04
X10630Y15354
X12992Y15157
X28150Y15551
X29134
X40157
X41142
X51772
X52756
X63189Y14764
X64173
X68504Y15354
X70472
X72441
X74409
X76378
X75394Y16339
Y18307
X76378Y19291
X74409
X73425Y20276
X75394
X76378Y21260
Y17323
X74409
X72441
X71457Y18307
X70472Y17323
X68504
X69488Y16339
X71457
X73425
X64173Y15748
X63189
Y20276
X64764Y21260
X65551Y26378
X66535
Y27362
Y28346
X65551
Y29331
X66535
X65551Y27362
X62992Y26772
X64961Y31102
X69685Y30315
X57480Y27953
X56496
X55512
Y26969
X56496
X57480
X52756Y27953
X52559Y29921
X51575
X50591
X54724
X53740Y30906
X51772Y20276
X50984
X51772Y16535
X52756
X58465Y18110
X62205Y20276
X47047Y18110
X41142Y16535
X40157
X39961Y20276
X39173
X41339Y23819
X39961Y25984
X35236Y18110
X29134Y16535
X28150
X27756Y20406
X26969Y20472
X29134Y24606
X29724Y25197
X27953Y28543
X26181Y29134
X24803Y27953
Y27165
X23228Y27362
X23290Y28284
X22903Y28689
X22047Y29134
X22638Y30709
X19488Y30315
X19094Y30906
X18701Y28150
X19685
Y27165
X18701
X19094Y26181
X20079
X19094Y25197
X18110
Y24213
X17126
Y25197
Y26181
X18110
X16142Y25197
Y24213
Y23228
Y22244
X17126Y23228
X17095Y17605
X16111Y16621
X17095Y15637
X23031Y18110
X15232Y17503
X15222Y15636
X13189Y15945
X11024Y18701
Y20669
X12008Y19685
X12992Y20669
X15157Y22244
X13780Y26772
X12008Y27559
X12795Y28937
X12402Y29516
X10262Y28543
X10827Y35433
Y36417
X11811
Y35433
X12008Y41929
X13976
X14961Y42913
X13976Y45866
X12992Y46850
X12008Y45866
X11024Y46850
X14961
X15945Y45866
X16929Y44882
Y42913
X15945Y41929
X18898Y42913
X20866
X19882Y43898
X17913
X18898Y44882
X19882Y45866
X20866Y44882
X21850Y43898
Y45866
X17913
X16929Y46850
X18898
X19882Y39370
X20669Y38780
X21654
Y37795
X20669
X21850Y36220
X21260Y35236
X21657Y34040
X22638Y33448
X23228Y33071
Y32283
Y31496
X24803Y31299
X25197Y31890
Y32874
X25394Y34055
Y36024
X24409Y35236
X26772Y32874
X27559Y37795
Y38780
X28543
Y37795
X29528
Y38780
X30512
Y37795
X28937Y39370
X30709Y43898
Y45866
X29724Y44882
X25787
X26772Y43898
Y45866
X31693Y46850
X32677Y45866
X33661Y46850
X35630
X37598
Y44882
X38583Y43898
X39567Y44882
X38583Y45866
X39567Y46850
X36614Y45866
X39764Y39370
X43307Y39961
X44291Y39173
X45276Y39961
Y42126
X43307
X46654Y45866
X32480Y38780
X31496
Y37795
X32480
X32874Y34055
X34843
X36811
X34843Y31496
X32874
X31890Y32480
X33858
X52559Y31890
X54724
X54921Y38386
X54134Y39567
X56386
X55906Y40748
X58465Y45866
X59449Y46260
X51575Y44882
X48622Y46457
X59646Y34252
X62008Y32874
X63780Y32087
X64961Y32874
X63976Y34449
X67323Y36220
X66929Y38189
X65945
X65384Y39731
Y40715
X64400
Y39731
X62598Y42145
X65157Y43504
Y44488
X66142
Y45472
Y43504
X70503Y44258
Y45243
X71487
X72471
Y44258
X71487
X73455
Y43471
X74440
Y44258
Y45243
X73455
Y42487
X74440
X71654Y33858
X59252Y48262
X57480Y47244
X48032Y47835
X46243Y47210
X40551Y47835
X38583
X36614
X32677
X30709
X17913
X15945
X16929Y48819
X18898
X14961
X12992
X11024
X12008Y47835
X13976
T05
X63189Y35827
Y36617
T06
X47638Y25197
X48425
X49213
X50000
X50787
X51575
X52362
X53150
X46850
X46063
Y33858
X46850
X47638
X48425
X49213
X50000
X50787
X51575
X52362
X53150
T07
X76575Y26575
Y30906
Y34646
Y38976
T08
X47622Y28945
X48622
X49622
X50622
X51622
X46622
X45622
X44622
Y40945
X45622
X46622
X43622
X47622
X48622
X49622
T09
X19554Y11417
X20554
X21554
X31858Y11417
X32858
X33858
X43669
X44669
X45669
X55417Y11417
X56417
X57417
X66866Y11417
X67866
X68866
Y18417
X67866
X66866
X57417Y18417
X56417
X55417
X58055Y25394
X59055
X58858Y28543
Y29543
X45669Y18417
X44669
X43669
X33858Y18417
X32858
X31858
X21554Y18417
X20554
X19554
X15551Y19232
Y20232
X15157Y34433
Y35433
X14157
Y34433
X13157
Y35433
X17157
Y36433
X18157
Y35433
Y34433
X17157
Y33433
X18157
X60236Y33268
Y32268
X64567Y35236
Y36236
T10
X25885Y12365
X37976Y12224
X49787
X61354Y12224
X73228Y12224
X72520Y41142
X70866
X69213
Y43307
X70866
X72520
Y46063
X70866
X69213
Y48228
X70866
X72520
T11
X24871Y11351
Y13379
X26898
Y11351
X36963Y11211
Y13238
X38990
Y11211
X48774
Y13238
X50801
Y11211
X60341Y11211
Y13238
X62368
Y11211
X72215Y11211
Y13238
X74242
Y11211
T12
X72638Y27756
Y29724
Y35827
Y37795
T13
X20335Y48032
X22835
X25335
X27835
T14
X38868Y30512
T15
X11417Y11614
X75984
X28150Y44882
T16
X12598Y24252
Y26528
T17
X23120Y26575
T18
X23120Y34449
T19
X67362Y41323
Y46244
X74370
Y41323
M30
