G04*
G04 #@! TF.GenerationSoftware,Altium Limited,Altium Designer,22.8.2 (66)*
G04*
G04 Layer_Color=128*
%FSLAX25Y25*%
%MOIN*%
G70*
G04*
G04 #@! TF.SameCoordinates,96B98669-0A76-488E-AF90-C307CBE701B7*
G04*
G04*
G04 #@! TF.FilePolarity,Positive*
G04*
G01*
G75*
%ADD25R,0.03661X0.03425*%
%ADD26R,0.03425X0.03661*%
%ADD28R,0.03937X0.02362*%
%ADD126R,0.05512X0.05118*%
%ADD127R,0.03740X0.03937*%
%ADD128R,0.05906X0.03150*%
%ADD129R,0.07480X0.05512*%
D25*
X311024Y315827D02*
D03*
Y321969D02*
D03*
X271654Y315827D02*
D03*
Y321969D02*
D03*
X169291Y310315D02*
D03*
Y316457D02*
D03*
X255906Y270787D02*
D03*
Y264646D02*
D03*
D26*
X252835Y285433D02*
D03*
X258976D02*
D03*
D28*
X282677Y318898D02*
D03*
X292126Y315158D02*
D03*
Y322638D02*
D03*
D126*
X160236Y285630D02*
D03*
Y308071D02*
D03*
D127*
X161122Y291102D02*
D03*
D128*
X117480Y282441D02*
D03*
Y286772D02*
D03*
X116693Y291102D02*
D03*
X117480Y295433D02*
D03*
X116693Y299764D02*
D03*
X117480Y304095D02*
D03*
X119055Y308425D02*
D03*
X117480Y312756D02*
D03*
D129*
X108465Y279331D02*
D03*
X104528Y331102D02*
D03*
M02*
